solid Untitled-5af38210
facet normal 0.0 0.0 -1.0
  outer loop
    vertex 381.0 457.2 0.0
    vertex 0.0 0.0 0.0
    vertex 0.0 457.2 0.0
  endloop
endfacet
facet normal 0.0 0.0 -1.0
  outer loop
    vertex 0.0 0.0 0.0
    vertex 381.0 457.2 0.0
    vertex 381.0 0.0 0.0
  endloop
endfacet
facet normal 0.0 1.0 0.0
  outer loop
    vertex 0.0 457.2 127.0
    vertex 381.0 457.2 0.0
    vertex 0.0 457.2 0.0
  endloop
endfacet
facet normal 0.0 1.0 0.0
  outer loop
    vertex 381.0 457.2 0.0
    vertex 0.0 457.2 127.0
    vertex 381.0 457.2 127.0
  endloop
endfacet
facet normal 1.0 0.0 0.0
  outer loop
    vertex 381.0 457.2 0.0
    vertex 381.0 0.0 127.0
    vertex 381.0 0.0 0.0
  endloop
endfacet
facet normal 1.0 0.0 0.0
  outer loop
    vertex 381.0 0.0 127.0
    vertex 381.0 457.2 0.0
    vertex 381.0 457.2 127.0
  endloop
endfacet
facet normal -1.0 0.0 0.0
  outer loop
    vertex 0.0 457.2 127.0
    vertex 0.0 0.0 0.0
    vertex 0.0 0.0 127.0
  endloop
endfacet
facet normal -1.0 0.0 0.0
  outer loop
    vertex 0.0 0.0 0.0
    vertex 0.0 457.2 127.0
    vertex 0.0 457.2 0.0
  endloop
endfacet
facet normal -0.0 -1.0 -0.0
  outer loop
    vertex 381.0 0.0 127.0
    vertex 0.0 0.0 0.0
    vertex 381.0 0.0 0.0
  endloop
endfacet
facet normal -0.0 -1.0 -0.0
  outer loop
    vertex 0.0 0.0 0.0
    vertex 381.0 0.0 127.0
    vertex 0.0 0.0 127.0
  endloop
endfacet
facet normal 0.0 0.0 1.0
  outer loop
    vertex 381.0 0.0 127.0
    vertex 0.0 457.2 127.0
    vertex 0.0 0.0 127.0
  endloop
endfacet
facet normal 0.0 0.0 1.0
  outer loop
    vertex 0.0 457.2 127.0
    vertex 381.0 0.0 127.0
    vertex 381.0 457.2 127.0
  endloop
endfacet
endsolid Untitled-5af38210
