solid delaware-dam
facet normal 0.0 1.0 0.0
  outer loop
    vertex -6345.300999999999 744.40348091307 24787.94092218533
    vertex -3297.300999999998 744.40348091307 24637.999999999975
    vertex -6345.300999999999 744.40348091307 24637.999999999975
  endloop
endfacet
facet normal 0.0 1.0 0.0
  outer loop
    vertex -3297.300999999998 744.40348091307 24637.999999999975
    vertex -6345.300999999999 744.40348091307 24787.94092218533
    vertex -3297.300999999998 744.40348091307 24787.94092218533
  endloop
endfacet
facet normal 0.0 0.0 -1.0
  outer loop
    vertex -6345.300999999999 744.40348091307 24637.999999999975
    vertex -3297.300999999998 -107.10672000000376 24637.999999999975
    vertex -6345.300999999999 -107.10672000000376 24637.999999999975
  endloop
endfacet
facet normal 0.0 0.0 -1.0
  outer loop
    vertex -3297.300999999998 -107.10672000000376 24637.999999999975
    vertex -6345.300999999999 744.40348091307 24637.999999999975
    vertex -3297.300999999998 744.40348091307 24637.999999999975
  endloop
endfacet
facet normal -1.0 3.995363236772797e-16 -1.1700197710045517e-30
  outer loop
    vertex -6345.300999999999 744.40348091307 24787.94092218533
    vertex -6345.300999999999 -107.10672000000376 24637.999999999975
    vertex -6345.300999999999 -107.10672000000376 25349.199999999975
  endloop
endfacet
facet normal -1.0 3.995363236772797e-16 -1.1700197710045517e-30
  outer loop
    vertex -6345.300999999999 -107.10672000000376 24637.999999999975
    vertex -6345.300999999999 744.40348091307 24787.94092218533
    vertex -6345.300999999999 744.40348091307 24637.999999999975
  endloop
endfacet
facet normal 4.3945319947564714e-18 0.5503382756026441 0.8349417838428667
  outer loop
    vertex -3297.300999999998 -107.10672000000376 25349.199999999975
    vertex -6345.300999999999 744.40348091307 24787.94092218533
    vertex -6345.300999999999 -107.10672000000376 25349.199999999975
  endloop
endfacet
facet normal 4.3945319947564714e-18 0.5503382756026441 0.8349417838428667
  outer loop
    vertex -6345.300999999999 744.40348091307 24787.94092218533
    vertex -3297.300999999998 -107.10672000000376 25349.199999999975
    vertex -3297.300999999998 744.40348091307 24787.94092218533
  endloop
endfacet
facet normal 1.0 0.0 0.0
  outer loop
    vertex -3297.300999999998 744.40348091307 24637.999999999975
    vertex -3297.300999999998 -107.10672000000376 25349.199999999975
    vertex -3297.300999999998 -107.10672000000376 24637.999999999975
  endloop
endfacet
facet normal 1.0 0.0 0.0
  outer loop
    vertex -3297.300999999998 -107.10672000000376 25349.199999999975
    vertex -3297.300999999998 744.40348091307 24637.999999999975
    vertex -3297.300999999998 744.40348091307 24787.94092218533
  endloop
endfacet
facet normal 0.0 -1.0 0.0
  outer loop
    vertex -3297.300999999998 -6386.068000000001 21691.599999999977
    vertex -4211.700999999998 -6386.068000000001 20319.999999999975
    vertex -3297.300999999998 -6386.068000000001 20319.999999999975
  endloop
endfacet
facet normal 0.0 -1.0 0.0
  outer loop
    vertex -4211.700999999998 -6386.068000000001 20319.999999999975
    vertex -3297.300999999998 -6386.068000000001 21691.599999999977
    vertex -4211.700999999998 -6386.068000000001 21691.599999999977
  endloop
endfacet
facet normal 1.0 0.0 0.0
  outer loop
    vertex -6345.300999999999 -6386.068000000001 20319.999999999975
    vertex -6345.300999999999 -6487.6680000000015 21691.599999999977
    vertex -6345.300999999999 -6487.6680000000015 20319.999999999975
  endloop
endfacet
facet normal 1.0 0.0 0.0
  outer loop
    vertex -6345.300999999999 -6487.6680000000015 21691.599999999977
    vertex -6345.300999999999 -6386.068000000001 20319.999999999975
    vertex -6345.300999999999 -6386.068000000001 21691.599999999977
  endloop
endfacet
facet normal 0.0 0.0 1.0
  outer loop
    vertex -3297.300999999998 -6436.868000000001 23926.799999999974
    vertex -4211.700999999998 -6335.268000000002 23926.799999999974
    vertex -4211.700999999998 -6436.868000000001 23926.799999999974
  endloop
endfacet
facet normal 0.0 0.0 1.0
  outer loop
    vertex -4211.700999999998 -6335.268000000002 23926.799999999974
    vertex -3297.300999999998 -6436.868000000001 23926.799999999974
    vertex -4211.700999999998 -6233.6680000000015 23926.799999999974
  endloop
endfacet
facet normal 0.0 0.0 1.0
  outer loop
    vertex -4211.700999999998 -6233.6680000000015 23926.799999999974
    vertex -3297.300999999998 -6436.868000000001 23926.799999999974
    vertex -3297.300999999998 -6233.6680000000015 23926.799999999974
  endloop
endfacet
facet normal 0.0 0.0 1.0
  outer loop
    vertex -3297.300999999998 -6233.6680000000015 23926.799999999974
    vertex -3297.300999999998 -6436.868000000001 23926.799999999974
    vertex -3297.300999999998 -6335.268000000002 23926.799999999974
  endloop
endfacet
facet normal 0.0 -1.0 0.0
  outer loop
    vertex -1524.0000000000027 -6335.268000000002 26212.799999999974
    vertex -8118.6019999999935 -6335.268000000002 25603.199999999975
    vertex -1524.0000000000027 -6335.268000000002 25603.199999999975
  endloop
endfacet
facet normal 0.0 -1.0 0.0
  outer loop
    vertex -8118.6019999999935 -6335.268000000002 25603.199999999975
    vertex -1524.0000000000027 -6335.268000000002 26212.799999999974
    vertex -8118.6019999999935 -6335.268000000002 26212.799999999974
  endloop
endfacet
facet normal -0.0 -0.0 -1.0
  outer loop
    vertex -5430.900999999998 -6386.068000000001 21691.599999999977
    vertex -6345.300999999999 -6487.6680000000015 21691.599999999977
    vertex -6345.300999999999 -6386.068000000001 21691.599999999977
  endloop
endfacet
facet normal -0.0 -0.0 -1.0
  outer loop
    vertex -6345.300999999999 -6487.6680000000015 21691.599999999977
    vertex -5430.900999999998 -6386.068000000001 21691.599999999977
    vertex -5430.900999999998 -6487.6680000000015 21691.599999999977
  endloop
endfacet
facet normal 0.0 0.0 1.0
  outer loop
    vertex -3297.300999999998 -6589.268000000002 20319.999999999975
    vertex -4211.700999999998 -6487.6680000000015 20319.999999999975
    vertex -4211.700999999998 -6589.268000000002 20319.999999999975
  endloop
endfacet
facet normal 0.0 0.0 1.0
  outer loop
    vertex -4211.700999999998 -6487.6680000000015 20319.999999999975
    vertex -3297.300999999998 -6589.268000000002 20319.999999999975
    vertex -4211.700999999998 -6386.068000000001 20319.999999999975
  endloop
endfacet
facet normal 0.0 0.0 1.0
  outer loop
    vertex -4211.700999999998 -6386.068000000001 20319.999999999975
    vertex -3297.300999999998 -6589.268000000002 20319.999999999975
    vertex -3297.300999999998 -6386.068000000001 20319.999999999975
  endloop
endfacet
facet normal 0.0 0.0 1.0
  outer loop
    vertex -3297.300999999998 -6386.068000000001 20319.999999999975
    vertex -3297.300999999998 -6589.268000000002 20319.999999999975
    vertex -3297.300999999998 -6487.6680000000015 20319.999999999975
  endloop
endfacet
facet normal -1.0 0.0 0.0
  outer loop
    vertex -5430.900999999998 -6233.6680000000015 25349.199999999975
    vertex -5430.900999999998 -6335.268000000002 23926.799999999974
    vertex -5430.900999999998 -6335.268000000002 25349.199999999975
  endloop
endfacet
facet normal -1.0 0.0 0.0
  outer loop
    vertex -5430.900999999998 -6335.268000000002 23926.799999999974
    vertex -5430.900999999998 -6233.6680000000015 25349.199999999975
    vertex -5430.900999999998 -6233.6680000000015 23926.799999999974
  endloop
endfacet
facet normal 1.0 0.0 0.0
  outer loop
    vertex -4211.700999999998 -6233.6680000000015 23926.799999999974
    vertex -4211.700999999998 -6335.268000000002 25349.199999999975
    vertex -4211.700999999998 -6335.268000000002 23926.799999999974
  endloop
endfacet
facet normal 1.0 0.0 0.0
  outer loop
    vertex -4211.700999999998 -6335.268000000002 25349.199999999975
    vertex -4211.700999999998 -6233.6680000000015 23926.799999999974
    vertex -4211.700999999998 -6233.6680000000015 25349.199999999975
  endloop
endfacet
facet normal 0.0 -1.0 0.0
  outer loop
    vertex -1524.0000000000027 -3185.6680000000015 25349.199999999975
    vertex -1625.6000000000029 -3185.6680000000015 23926.799999999974
    vertex -1524.0000000000027 -3185.6680000000015 23926.799999999974
  endloop
endfacet
facet normal 0.0 -1.0 0.0
  outer loop
    vertex -1625.6000000000029 -3185.6680000000015 23926.799999999974
    vertex -1524.0000000000027 -3185.6680000000015 25349.199999999975
    vertex -1625.6000000000029 -3185.6680000000015 25349.199999999975
  endloop
endfacet
facet normal -1.0 -0.0 -0.0
  outer loop
    vertex -3602.1009999999983 -107.10672000000376 24536.399999999976
    vertex -3602.1009999999983 -208.70672000000377 22555.199999999975
    vertex -3602.1009999999983 -208.70672000000377 24536.399999999976
  endloop
endfacet
facet normal -1.0 -0.0 -0.0
  outer loop
    vertex -3602.1009999999983 -208.70672000000377 22555.199999999975
    vertex -3602.1009999999983 -107.10672000000376 24536.399999999976
    vertex -3602.1009999999983 -107.10672000000376 22555.199999999975
  endloop
endfacet
facet normal 1.0 0.0 0.0
  outer loop
    vertex -4211.700999999998 -6386.068000000001 20319.999999999975
    vertex -4211.700999999998 -6487.6680000000015 21691.599999999977
    vertex -4211.700999999998 -6487.6680000000015 20319.999999999975
  endloop
endfacet
facet normal 1.0 0.0 0.0
  outer loop
    vertex -4211.700999999998 -6487.6680000000015 21691.599999999977
    vertex -4211.700999999998 -6386.068000000001 20319.999999999975
    vertex -4211.700999999998 -6386.068000000001 21691.599999999977
  endloop
endfacet
facet normal 0.0 -1.0 0.0
  outer loop
    vertex -1524.0000000000027 -6335.268000000002 22555.199999999975
    vertex -3297.300999999998 -6335.268000000002 23825.199999999975
    vertex -8118.6019999999935 -6335.268000000002 22555.199999999975
  endloop
endfacet
facet normal 0.0 -1.0 0.0
  outer loop
    vertex -3297.300999999998 -6335.268000000002 23825.199999999975
    vertex -1524.0000000000027 -6335.268000000002 22555.199999999975
    vertex -1524.0000000000027 -6335.268000000002 25450.799999999974
  endloop
endfacet
facet normal 0.0 -1.0 0.0
  outer loop
    vertex -3297.300999999998 -6335.268000000002 23825.199999999975
    vertex -1524.0000000000027 -6335.268000000002 25450.799999999974
    vertex -3297.300999999998 -6335.268000000002 23926.799999999974
  endloop
endfacet
facet normal 0.0 -1.0 0.0
  outer loop
    vertex -3297.300999999998 -6335.268000000002 23926.799999999974
    vertex -1524.0000000000027 -6335.268000000002 25450.799999999974
    vertex -3297.300999999998 -6335.268000000002 25349.199999999975
  endloop
endfacet
facet normal 0.0 -1.0 0.0
  outer loop
    vertex -3297.300999999998 -6335.268000000002 25349.199999999975
    vertex -1524.0000000000027 -6335.268000000002 25450.799999999974
    vertex -4211.700999999998 -6335.268000000002 25349.199999999975
  endloop
endfacet
facet normal 0.0 -1.0 0.0
  outer loop
    vertex -4211.700999999998 -6335.268000000002 25349.199999999975
    vertex -1524.0000000000027 -6335.268000000002 25450.799999999974
    vertex -5430.900999999998 -6335.268000000002 25349.199999999975
  endloop
endfacet
facet normal 0.0 -1.0 0.0
  outer loop
    vertex -5430.900999999998 -6335.268000000002 25349.199999999975
    vertex -1524.0000000000027 -6335.268000000002 25450.799999999974
    vertex -6345.300999999999 -6335.268000000002 25349.199999999975
  endloop
endfacet
facet normal 0.0 -1.0 0.0
  outer loop
    vertex -8118.6019999999935 -6335.268000000002 22555.199999999975
    vertex -6345.300999999999 -6335.268000000002 23825.199999999975
    vertex -8118.6019999999935 -6335.268000000002 25450.799999999974
  endloop
endfacet
facet normal 0.0 -1.0 0.0
  outer loop
    vertex -6345.300999999999 -6335.268000000002 23825.199999999975
    vertex -8118.6019999999935 -6335.268000000002 22555.199999999975
    vertex -3297.300999999998 -6335.268000000002 23825.199999999975
  endloop
endfacet
facet normal 0.0 -1.0 0.0
  outer loop
    vertex -6345.300999999999 -6335.268000000002 23825.199999999975
    vertex -3297.300999999998 -6335.268000000002 23825.199999999975
    vertex -4211.700999999998 -6335.268000000002 23825.199999999975
  endloop
endfacet
facet normal 0.0 -1.0 0.0
  outer loop
    vertex -6345.300999999999 -6335.268000000002 23825.199999999975
    vertex -4211.700999999998 -6335.268000000002 23825.199999999975
    vertex -5430.900999999998 -6335.268000000002 23825.199999999975
  endloop
endfacet
facet normal 0.0 -1.0 0.0
  outer loop
    vertex -8118.6019999999935 -6335.268000000002 25450.799999999974
    vertex -6345.300999999999 -6335.268000000002 23825.199999999975
    vertex -6345.300999999999 -6335.268000000002 23926.799999999974
  endloop
endfacet
facet normal 0.0 -1.0 0.0
  outer loop
    vertex -8118.6019999999935 -6335.268000000002 25450.799999999974
    vertex -6345.300999999999 -6335.268000000002 23926.799999999974
    vertex -6345.300999999999 -6335.268000000002 25349.199999999975
  endloop
endfacet
facet normal 0.0 -1.0 0.0
  outer loop
    vertex -8118.6019999999935 -6335.268000000002 25450.799999999974
    vertex -6345.300999999999 -6335.268000000002 25349.199999999975
    vertex -1524.0000000000027 -6335.268000000002 25450.799999999974
  endloop
endfacet
facet normal 0.0 -1.0 0.0
  outer loop
    vertex -4211.700999999998 -6335.268000000002 23926.799999999974
    vertex -5430.900999999998 -6335.268000000002 23825.199999999975
    vertex -4211.700999999998 -6335.268000000002 23825.199999999975
  endloop
endfacet
facet normal 0.0 -1.0 0.0
  outer loop
    vertex -5430.900999999998 -6335.268000000002 23825.199999999975
    vertex -4211.700999999998 -6335.268000000002 23926.799999999974
    vertex -5430.900999999998 -6335.268000000002 23926.799999999974
  endloop
endfacet
facet normal 0.0 -1.0 0.0
  outer loop
    vertex -5430.900999999998 -6335.268000000002 23926.799999999974
    vertex -4211.700999999998 -6335.268000000002 23926.799999999974
    vertex -4211.700999999998 -6335.268000000002 25349.199999999975
  endloop
endfacet
facet normal 0.0 -1.0 0.0
  outer loop
    vertex -5430.900999999998 -6335.268000000002 23926.799999999974
    vertex -4211.700999999998 -6335.268000000002 25349.199999999975
    vertex -5430.900999999998 -6335.268000000002 25349.199999999975
  endloop
endfacet
facet normal -1.0 0.0 0.0
  outer loop
    vertex -3297.300999999998 -6233.6680000000015 25349.199999999975
    vertex -3297.300999999998 -6335.268000000002 23926.799999999974
    vertex -3297.300999999998 -6335.268000000002 25349.199999999975
  endloop
endfacet
facet normal -1.0 0.0 0.0
  outer loop
    vertex -3297.300999999998 -6335.268000000002 23926.799999999974
    vertex -3297.300999999998 -6233.6680000000015 25349.199999999975
    vertex -3297.300999999998 -6233.6680000000015 23926.799999999974
  endloop
endfacet
facet normal 0.0 1.0 0.0
  outer loop
    vertex -8067.801999999993 -157.90672000000376 25603.199999999975
    vertex -1574.800000000003 -157.90672000000376 25450.799999999974
    vertex -8067.801999999993 -157.90672000000376 25450.799999999974
  endloop
endfacet
facet normal 0.0 1.0 0.0
  outer loop
    vertex -1574.800000000003 -157.90672000000376 25450.799999999974
    vertex -8067.801999999993 -157.90672000000376 25603.199999999975
    vertex -1574.800000000003 -157.90672000000376 25600.367575095413
  endloop
endfacet
facet normal 0.0 0.0 1.0
  outer loop
    vertex -1524.0000000000027 -6284.468000000002 25450.799999999974
    vertex -1574.800000000003 -157.90672000000376 25450.799999999974
    vertex -1574.800000000003 -6284.468000000002 25450.799999999974
  endloop
endfacet
facet normal 0.0 0.0 1.0
  outer loop
    vertex -8067.801999999993 -157.90672000000376 25450.799999999974
    vertex -8118.6019999999935 -107.10672000000376 25450.799999999974
    vertex -8118.6019999999935 -157.90672000000376 25450.799999999974
  endloop
endfacet
facet normal 0.0 0.0 1.0
  outer loop
    vertex -8118.6019999999935 -107.10672000000376 25450.799999999974
    vertex -8067.801999999993 -157.90672000000376 25450.799999999974
    vertex -1524.0000000000027 -107.10672000000376 25450.799999999974
  endloop
endfacet
facet normal 0.0 0.0 1.0
  outer loop
    vertex -1524.0000000000027 -107.10672000000376 25450.799999999974
    vertex -8067.801999999993 -157.90672000000376 25450.799999999974
    vertex -1574.800000000003 -157.90672000000376 25450.799999999974
  endloop
endfacet
facet normal 0.0 0.0 1.0
  outer loop
    vertex -1524.0000000000027 -107.10672000000376 25450.799999999974
    vertex -1574.800000000003 -157.90672000000376 25450.799999999974
    vertex -1524.0000000000027 -6284.468000000002 25450.799999999974
  endloop
endfacet
facet normal 0.0 1.0 0.0
  outer loop
    vertex -8118.6019999999935 -2951.9067200000036 25349.199999999975
    vertex -8017.001999999994 -2951.9067200000036 23926.799999999974
    vertex -8118.6019999999935 -2951.9067200000036 23926.799999999974
  endloop
endfacet
facet normal 0.0 1.0 0.0
  outer loop
    vertex -8017.001999999994 -2951.9067200000036 23926.799999999974
    vertex -8118.6019999999935 -2951.9067200000036 25349.199999999975
    vertex -8017.001999999994 -2951.9067200000036 25349.199999999975
  endloop
endfacet
facet normal 0.0 1.0 0.0
  outer loop
    vertex -1625.6000000000029 -3084.0680000000016 25349.199999999975
    vertex -1524.0000000000027 -3084.0680000000016 23926.799999999974
    vertex -1625.6000000000029 -3084.0680000000016 23926.799999999974
  endloop
endfacet
facet normal 0.0 1.0 0.0
  outer loop
    vertex -1524.0000000000027 -3084.0680000000016 23926.799999999974
    vertex -1625.6000000000029 -3084.0680000000016 25349.199999999975
    vertex -1524.0000000000027 -3084.0680000000016 25349.199999999975
  endloop
endfacet
facet normal 0.0 1.0 0.0
  outer loop
    vertex -4770.500999999998 -208.70672000000377 24536.399999999976
    vertex -3602.1009999999983 -208.70672000000377 22555.199999999975
    vertex -4770.500999999998 -208.70672000000377 22555.199999999975
  endloop
endfacet
facet normal 0.0 1.0 0.0
  outer loop
    vertex -3602.1009999999983 -208.70672000000377 22555.199999999975
    vertex -4770.500999999998 -208.70672000000377 24536.399999999976
    vertex -3602.1009999999983 -208.70672000000377 24536.399999999976
  endloop
endfacet
facet normal -1.0 0.0 0.0
  outer loop
    vertex -3297.300999999998 -6386.068000000001 21691.599999999977
    vertex -3297.300999999998 -6487.6680000000015 20319.999999999975
    vertex -3297.300999999998 -6487.6680000000015 21691.599999999977
  endloop
endfacet
facet normal -1.0 0.0 0.0
  outer loop
    vertex -3297.300999999998 -6487.6680000000015 20319.999999999975
    vertex -3297.300999999998 -6386.068000000001 21691.599999999977
    vertex -3297.300999999998 -6386.068000000001 20319.999999999975
  endloop
endfacet
facet normal 0.0 0.0 -1.0
  outer loop
    vertex -3602.1009999999983 -107.10672000000376 24536.399999999976
    vertex -4770.500999999998 -208.70672000000377 24536.399999999976
    vertex -4770.500999999998 -107.10672000000376 24536.399999999976
  endloop
endfacet
facet normal 0.0 0.0 -1.0
  outer loop
    vertex -4770.500999999998 -208.70672000000377 24536.399999999976
    vertex -3602.1009999999983 -107.10672000000376 24536.399999999976
    vertex -3602.1009999999983 -208.70672000000377 24536.399999999976
  endloop
endfacet
facet normal 0.0 1.0 0.0
  outer loop
    vertex -1625.6000000000029 -3896.8680000000018 25349.199999999975
    vertex -1524.0000000000027 -3896.8680000000018 23926.799999999974
    vertex -1625.6000000000029 -3896.8680000000018 23926.799999999974
  endloop
endfacet
facet normal 0.0 1.0 0.0
  outer loop
    vertex -1524.0000000000027 -3896.8680000000018 23926.799999999974
    vertex -1625.6000000000029 -3896.8680000000018 25349.199999999975
    vertex -1524.0000000000027 -3896.8680000000018 25349.199999999975
  endloop
endfacet
facet normal -0.0 -0.0 -1.0
  outer loop
    vertex -3297.300999999998 -6386.068000000001 21691.599999999977
    vertex -4211.700999999998 -6487.6680000000015 21691.599999999977
    vertex -4211.700999999998 -6386.068000000001 21691.599999999977
  endloop
endfacet
facet normal -0.0 -0.0 -1.0
  outer loop
    vertex -4211.700999999998 -6487.6680000000015 21691.599999999977
    vertex -3297.300999999998 -6386.068000000001 21691.599999999977
    vertex -3297.300999999998 -6487.6680000000015 21691.599999999977
  endloop
endfacet
facet normal 0.0 -1.0 0.0
  outer loop
    vertex -3297.300999999998 -6233.6680000000015 25349.199999999975
    vertex -4211.700999999998 -6233.6680000000015 23926.799999999974
    vertex -3297.300999999998 -6233.6680000000015 23926.799999999974
  endloop
endfacet
facet normal 0.0 -1.0 0.0
  outer loop
    vertex -4211.700999999998 -6233.6680000000015 23926.799999999974
    vertex -3297.300999999998 -6233.6680000000015 25349.199999999975
    vertex -4211.700999999998 -6233.6680000000015 25349.199999999975
  endloop
endfacet
facet normal 1.0 0.0 0.0
  outer loop
    vertex -1574.800000000003 -157.90672000000376 25450.799999999974
    vertex -1574.800000000003 -6284.468000000002 25600.367575095413
    vertex -1574.800000000003 -6284.468000000002 25450.799999999974
  endloop
endfacet
facet normal 1.0 0.0 0.0
  outer loop
    vertex -1574.800000000003 -6284.468000000002 25600.367575095413
    vertex -1574.800000000003 -157.90672000000376 25450.799999999974
    vertex -1574.800000000003 -157.90672000000376 25600.367575095413
  endloop
endfacet
facet normal 0.0 -1.0 0.0
  outer loop
    vertex -1524.0000000000027 -6284.468000000002 25603.199999999975
    vertex -1574.800000000003 -6284.468000000002 25600.367575095413
    vertex -1524.0000000000027 -6284.468000000002 25600.34541474722
  endloop
endfacet
facet normal 0.0 -1.0 0.0
  outer loop
    vertex -1574.800000000003 -6284.468000000002 25600.367575095413
    vertex -8067.801999999993 -6284.468000000002 25450.799999999974
    vertex -1574.800000000003 -6284.468000000002 25450.799999999974
  endloop
endfacet
facet normal 0.0 -1.0 0.0
  outer loop
    vertex -8067.801999999993 -6284.468000000002 25450.799999999974
    vertex -1574.800000000003 -6284.468000000002 25600.367575095413
    vertex -8067.801999999993 -6284.468000000002 25603.199999999975
  endloop
endfacet
facet normal 0.0 -1.0 0.0
  outer loop
    vertex -8067.801999999993 -6284.468000000002 25603.199999999975
    vertex -1574.800000000003 -6284.468000000002 25600.367575095413
    vertex -1524.0000000000027 -6284.468000000002 25603.199999999975
  endloop
endfacet
facet normal -1.0 0.0 0.0
  outer loop
    vertex -8017.001999999994 -3053.5067200000035 25349.199999999975
    vertex -8017.001999999994 -3612.3067200000037 23926.799999999974
    vertex -8017.001999999994 -3612.3067200000037 25349.199999999975
  endloop
endfacet
facet normal -1.0 0.0 0.0
  outer loop
    vertex -8017.001999999994 -3612.3067200000037 23926.799999999974
    vertex -8017.001999999994 -3053.5067200000035 25349.199999999975
    vertex -8017.001999999994 -3053.5067200000035 23926.799999999974
  endloop
endfacet
facet normal -0.0 -0.0 -1.0
  outer loop
    vertex -3297.300999999998 -6233.6680000000015 25349.199999999975
    vertex -4211.700999999998 -6335.268000000002 25349.199999999975
    vertex -4211.700999999998 -6233.6680000000015 25349.199999999975
  endloop
endfacet
facet normal -0.0 -0.0 -1.0
  outer loop
    vertex -4211.700999999998 -6335.268000000002 25349.199999999975
    vertex -3297.300999999998 -6233.6680000000015 25349.199999999975
    vertex -3297.300999999998 -6335.268000000002 25349.199999999975
  endloop
endfacet
facet normal -1.0 0.0 0.0
  outer loop
    vertex -5430.900999999998 -6386.068000000001 21691.599999999977
    vertex -5430.900999999998 -6487.6680000000015 20319.999999999975
    vertex -5430.900999999998 -6487.6680000000015 21691.599999999977
  endloop
endfacet
facet normal -1.0 0.0 0.0
  outer loop
    vertex -5430.900999999998 -6487.6680000000015 20319.999999999975
    vertex -5430.900999999998 -6386.068000000001 21691.599999999977
    vertex -5430.900999999998 -6386.068000000001 20319.999999999975
  endloop
endfacet
facet normal 0.0 -1.0 0.0
  outer loop
    vertex -8017.001999999994 -2393.106720000004 25349.199999999975
    vertex -8118.6019999999935 -2393.106720000004 23926.799999999974
    vertex -8017.001999999994 -2393.106720000004 23926.799999999974
  endloop
endfacet
facet normal 0.0 -1.0 0.0
  outer loop
    vertex -8118.6019999999935 -2393.106720000004 23926.799999999974
    vertex -8017.001999999994 -2393.106720000004 25349.199999999975
    vertex -8118.6019999999935 -2393.106720000004 25349.199999999975
  endloop
endfacet
facet normal -0.0 -0.0 -1.0
  outer loop
    vertex -5430.900999999998 -6233.6680000000015 25349.199999999975
    vertex -6345.300999999999 -6335.268000000002 25349.199999999975
    vertex -6345.300999999999 -6233.6680000000015 25349.199999999975
  endloop
endfacet
facet normal -0.0 -0.0 -1.0
  outer loop
    vertex -6345.300999999999 -6335.268000000002 25349.199999999975
    vertex -5430.900999999998 -6233.6680000000015 25349.199999999975
    vertex -5430.900999999998 -6335.268000000002 25349.199999999975
  endloop
endfacet
facet normal 0.0 0.0 1.0
  outer loop
    vertex -5430.900999999998 -6436.868000000001 23926.799999999974
    vertex -6345.300999999999 -6335.268000000002 23926.799999999974
    vertex -6345.300999999999 -6436.868000000001 23926.799999999974
  endloop
endfacet
facet normal 0.0 0.0 1.0
  outer loop
    vertex -6345.300999999999 -6335.268000000002 23926.799999999974
    vertex -5430.900999999998 -6436.868000000001 23926.799999999974
    vertex -6345.300999999999 -6233.6680000000015 23926.799999999974
  endloop
endfacet
facet normal 0.0 0.0 1.0
  outer loop
    vertex -6345.300999999999 -6233.6680000000015 23926.799999999974
    vertex -5430.900999999998 -6436.868000000001 23926.799999999974
    vertex -5430.900999999998 -6233.6680000000015 23926.799999999974
  endloop
endfacet
facet normal 0.0 0.0 1.0
  outer loop
    vertex -5430.900999999998 -6233.6680000000015 23926.799999999974
    vertex -5430.900999999998 -6436.868000000001 23926.799999999974
    vertex -5430.900999999998 -6335.268000000002 23926.799999999974
  endloop
endfacet
facet normal 0.0 -1.0 0.0
  outer loop
    vertex -5430.900999999998 -6233.6680000000015 25349.199999999975
    vertex -6345.300999999999 -6233.6680000000015 23926.799999999974
    vertex -5430.900999999998 -6233.6680000000015 23926.799999999974
  endloop
endfacet
facet normal 0.0 -1.0 0.0
  outer loop
    vertex -6345.300999999999 -6233.6680000000015 23926.799999999974
    vertex -5430.900999999998 -6233.6680000000015 25349.199999999975
    vertex -6345.300999999999 -6233.6680000000015 25349.199999999975
  endloop
endfacet
facet normal 1.0 0.0 0.0
  outer loop
    vertex -4770.500999999998 -107.10672000000376 22555.199999999975
    vertex -4770.500999999998 -208.70672000000377 24536.399999999976
    vertex -4770.500999999998 -208.70672000000377 22555.199999999975
  endloop
endfacet
facet normal 1.0 0.0 0.0
  outer loop
    vertex -4770.500999999998 -208.70672000000377 24536.399999999976
    vertex -4770.500999999998 -107.10672000000376 22555.199999999975
    vertex -4770.500999999998 -107.10672000000376 24536.399999999976
  endloop
endfacet
facet normal 1.0 0.0 0.0
  outer loop
    vertex -1625.6000000000029 -3185.6680000000015 23926.799999999974
    vertex -1625.6000000000029 -3896.8680000000018 25349.199999999975
    vertex -1625.6000000000029 -3896.8680000000018 23926.799999999974
  endloop
endfacet
facet normal 1.0 0.0 0.0
  outer loop
    vertex -1625.6000000000029 -3896.8680000000018 25349.199999999975
    vertex -1625.6000000000029 -3185.6680000000015 23926.799999999974
    vertex -1625.6000000000029 -3185.6680000000015 25349.199999999975
  endloop
endfacet
facet normal -0.00043396285968207556 -7.775185478731921e-10 -0.9999999058381139
  outer loop
    vertex -1524.0000000000027 -107.10672000000376 25600.34541474722
    vertex -8118.6019999999935 -157.90672000000376 25603.199999999975
    vertex -8118.6019999999935 -107.10672000000376 25603.199999999975
  endloop
endfacet
facet normal -0.00043396285968207556 -7.775185478731921e-10 -0.9999999058381139
  outer loop
    vertex -8118.6019999999935 -157.90672000000376 25603.199999999975
    vertex -1524.0000000000027 -107.10672000000376 25600.34541474722
    vertex -8067.801999999993 -157.90672000000376 25603.199999999975
  endloop
endfacet
facet normal -0.00043396285968207556 -7.775185478731921e-10 -0.9999999058381139
  outer loop
    vertex -8067.801999999993 -157.90672000000376 25603.199999999975
    vertex -1524.0000000000027 -107.10672000000376 25600.34541474722
    vertex -1574.800000000003 -157.90672000000376 25600.367575095413
  endloop
endfacet
facet normal -0.00043396285968207556 -7.775185478731921e-10 -0.9999999058381139
  outer loop
    vertex -1574.800000000003 -157.90672000000376 25600.367575095413
    vertex -1524.0000000000027 -107.10672000000376 25600.34541474722
    vertex -1574.800000000003 -6284.468000000002 25600.367575095413
  endloop
endfacet
facet normal -0.00043396285968207556 -7.775185478731921e-10 -0.9999999058381139
  outer loop
    vertex -1574.800000000003 -6284.468000000002 25600.367575095413
    vertex -1524.0000000000027 -107.10672000000376 25600.34541474722
    vertex -1524.0000000000027 -6284.468000000002 25600.34541474722
  endloop
endfacet
facet normal -1.0 0.0 0.0
  outer loop
    vertex -8017.001999999994 -2393.106720000004 25349.199999999975
    vertex -8017.001999999994 -2951.9067200000036 23926.799999999974
    vertex -8017.001999999994 -2951.9067200000036 25349.199999999975
  endloop
endfacet
facet normal -1.0 0.0 0.0
  outer loop
    vertex -8017.001999999994 -2951.9067200000036 23926.799999999974
    vertex -8017.001999999994 -2393.106720000004 25349.199999999975
    vertex -8017.001999999994 -2393.106720000004 23926.799999999974
  endloop
endfacet
facet normal 0.0 0.0 -1.0
  outer loop
    vertex -8017.001999999994 -2393.106720000004 25349.199999999975
    vertex -8118.6019999999935 -2951.9067200000036 25349.199999999975
    vertex -8118.6019999999935 -2393.106720000004 25349.199999999975
  endloop
endfacet
facet normal 0.0 0.0 -1.0
  outer loop
    vertex -8118.6019999999935 -2951.9067200000036 25349.199999999975
    vertex -8017.001999999994 -2393.106720000004 25349.199999999975
    vertex -8017.001999999994 -2951.9067200000036 25349.199999999975
  endloop
endfacet
facet normal 1.0 0.0 0.0
  outer loop
    vertex -6345.300999999999 -6233.6680000000015 23926.799999999974
    vertex -6345.300999999999 -6335.268000000002 25349.199999999975
    vertex -6345.300999999999 -6335.268000000002 23926.799999999974
  endloop
endfacet
facet normal 1.0 0.0 0.0
  outer loop
    vertex -6345.300999999999 -6335.268000000002 25349.199999999975
    vertex -6345.300999999999 -6233.6680000000015 23926.799999999974
    vertex -6345.300999999999 -6233.6680000000015 25349.199999999975
  endloop
endfacet
facet normal -0.0 -0.0 -1.0
  outer loop
    vertex -1524.0000000000027 -3185.6680000000015 25349.199999999975
    vertex -1625.6000000000029 -3896.8680000000018 25349.199999999975
    vertex -1625.6000000000029 -3185.6680000000015 25349.199999999975
  endloop
endfacet
facet normal -0.0 -0.0 -1.0
  outer loop
    vertex -1625.6000000000029 -3896.8680000000018 25349.199999999975
    vertex -1524.0000000000027 -3185.6680000000015 25349.199999999975
    vertex -1524.0000000000027 -3896.8680000000018 25349.199999999975
  endloop
endfacet
facet normal 0.0 -1.0 0.0
  outer loop
    vertex -1524.0000000000027 -2372.8680000000018 25349.199999999975
    vertex -1625.6000000000029 -2372.8680000000018 23926.799999999974
    vertex -1524.0000000000027 -2372.8680000000018 23926.799999999974
  endloop
endfacet
facet normal 0.0 -1.0 0.0
  outer loop
    vertex -1625.6000000000029 -2372.8680000000018 23926.799999999974
    vertex -1524.0000000000027 -2372.8680000000018 25349.199999999975
    vertex -1625.6000000000029 -2372.8680000000018 25349.199999999975
  endloop
endfacet
facet normal 1.0 5.66855310937084e-18 5.915960421423314e-18
  outer loop
    vertex -1524.0000000000027 -3084.0680000000016 23926.799999999974
    vertex -1524.0000000000027 -3185.6680000000015 25349.199999999975
    vertex -1524.0000000000027 -3185.6680000000015 23926.799999999974
  endloop
endfacet
facet normal 1.0 5.66855310937084e-18 5.915960421423314e-18
  outer loop
    vertex -1524.0000000000027 -4811.268000000002 22555.199999999975
    vertex -1524.0000000000027 -3896.8680000000018 23825.199999999975
    vertex -1524.0000000000027 -4811.268000000002 24841.199999999975
  endloop
endfacet
facet normal 1.0 5.66855310937084e-18 5.915960421423314e-18
  outer loop
    vertex -1524.0000000000027 -3896.8680000000018 23825.199999999975
    vertex -1524.0000000000027 -4811.268000000002 22555.199999999975
    vertex -1524.0000000000027 -542.4587404220077 22555.199999999975
  endloop
endfacet
facet normal 1.0 5.66855310937084e-18 5.915960421423314e-18
  outer loop
    vertex -1524.0000000000027 -3896.8680000000018 23825.199999999975
    vertex -1524.0000000000027 -542.4587404220077 22555.199999999975
    vertex -1524.0000000000027 -2372.8680000000018 23825.199999999975
  endloop
endfacet
facet normal 1.0 5.66855310937084e-18 5.915960421423314e-18
  outer loop
    vertex -1524.0000000000027 -2372.8680000000018 23825.199999999975
    vertex -1524.0000000000027 -542.4587404220077 22555.199999999975
    vertex -1524.0000000000027 -2372.8680000000018 23926.799999999974
  endloop
endfacet
facet normal 1.0 5.66855310937084e-18 5.915960421423314e-18
  outer loop
    vertex -1524.0000000000027 -2372.8680000000018 23926.799999999974
    vertex -1524.0000000000027 -542.4587404220077 22555.199999999975
    vertex -1524.0000000000027 -2372.8680000000018 25349.199999999975
  endloop
endfacet
facet normal 1.0 5.66855310937084e-18 5.915960421423314e-18
  outer loop
    vertex -1524.0000000000027 -107.10672000000376 13491.900959809582
    vertex -1524.0000000000027 -6335.268000000002 18824.575000000008
    vertex -1524.0000000000027 -6335.268000000002 13491.900959809582
  endloop
endfacet
facet normal 1.0 5.66855310937084e-18 5.915960421423314e-18
  outer loop
    vertex -1524.0000000000027 -6335.268000000002 18824.575000000008
    vertex -1524.0000000000027 -107.10672000000376 13491.900959809582
    vertex -1524.0000000000027 -542.4587404220077 22555.199999999975
  endloop
endfacet
facet normal 1.0 5.66855310937084e-18 5.915960421423314e-18
  outer loop
    vertex -1524.0000000000027 45.29327999999623 18824.575000000008
    vertex -1524.0000000000027 -107.10672000000376 22555.199999999975
    vertex -1524.0000000000027 -107.10672000000376 18824.575000000008
  endloop
endfacet
facet normal 1.0 5.66855310937084e-18 5.915960421423314e-18
  outer loop
    vertex -1524.0000000000027 -107.10672000000376 22555.199999999975
    vertex -1524.0000000000027 45.29327999999623 18824.575000000008
    vertex -1524.0000000000027 45.29327999999623 22555.199999999975
  endloop
endfacet
facet normal 1.0 5.66855310937084e-18 5.915960421423314e-18
  outer loop
    vertex -1524.0000000000027 -5725.6680000000015 22555.199999999975
    vertex -1524.0000000000027 -6335.268000000002 25450.799999999974
    vertex -1524.0000000000027 -6335.268000000002 22555.199999999975
  endloop
endfacet
facet normal 1.0 5.66855310937084e-18 5.915960421423314e-18
  outer loop
    vertex -1524.0000000000027 -6335.268000000002 25450.799999999974
    vertex -1524.0000000000027 -5725.6680000000015 22555.199999999975
    vertex -1524.0000000000027 -6284.468000000002 25450.799999999974
  endloop
endfacet
facet normal 1.0 5.66855310937084e-18 5.915960421423314e-18
  outer loop
    vertex -1524.0000000000027 -6284.468000000002 25450.799999999974
    vertex -1524.0000000000027 -5725.6680000000015 22555.199999999975
    vertex -1524.0000000000027 -5725.6680000000015 24841.199999999975
  endloop
endfacet
facet normal 1.0 5.66855310937084e-18 5.915960421423314e-18
  outer loop
    vertex -1524.0000000000027 -6284.468000000002 25450.799999999974
    vertex -1524.0000000000027 -5725.6680000000015 24841.199999999975
    vertex -1524.0000000000027 -3896.8680000000018 25349.199999999975
  endloop
endfacet
facet normal 1.0 5.66855310937084e-18 5.915960421423314e-18
  outer loop
    vertex -1524.0000000000027 -6284.468000000002 25450.799999999974
    vertex -1524.0000000000027 -3896.8680000000018 25349.199999999975
    vertex -1524.0000000000027 -107.10672000000376 25450.799999999974
  endloop
endfacet
facet normal 1.0 5.66855310937084e-18 5.915960421423314e-18
  outer loop
    vertex -1524.0000000000027 -3896.8680000000018 25349.199999999975
    vertex -1524.0000000000027 -5725.6680000000015 24841.199999999975
    vertex -1524.0000000000027 -4811.268000000002 24841.199999999975
  endloop
endfacet
facet normal 1.0 5.66855310937084e-18 5.915960421423314e-18
  outer loop
    vertex -1524.0000000000027 -3896.8680000000018 25349.199999999975
    vertex -1524.0000000000027 -4811.268000000002 24841.199999999975
    vertex -1524.0000000000027 -3896.8680000000018 23825.199999999975
  endloop
endfacet
facet normal 1.0 5.66855310937084e-18 5.915960421423314e-18
  outer loop
    vertex -1524.0000000000027 -3896.8680000000018 25349.199999999975
    vertex -1524.0000000000027 -3896.8680000000018 23825.199999999975
    vertex -1524.0000000000027 -3896.8680000000018 23926.799999999974
  endloop
endfacet
facet normal 1.0 5.66855310937084e-18 5.915960421423314e-18
  outer loop
    vertex -1524.0000000000027 -107.10672000000376 25450.799999999974
    vertex -1524.0000000000027 -3896.8680000000018 25349.199999999975
    vertex -1524.0000000000027 -3185.6680000000015 25349.199999999975
  endloop
endfacet
facet normal 1.0 5.66855310937084e-18 5.915960421423314e-18
  outer loop
    vertex -1524.0000000000027 -107.10672000000376 25450.799999999974
    vertex -1524.0000000000027 -3185.6680000000015 25349.199999999975
    vertex -1524.0000000000027 -3084.0680000000016 25349.199999999975
  endloop
endfacet
facet normal 1.0 5.66855310937084e-18 5.915960421423314e-18
  outer loop
    vertex -1524.0000000000027 -3084.0680000000016 25349.199999999975
    vertex -1524.0000000000027 -3185.6680000000015 25349.199999999975
    vertex -1524.0000000000027 -3084.0680000000016 23926.799999999974
  endloop
endfacet
facet normal 1.0 5.66855310937084e-18 5.915960421423314e-18
  outer loop
    vertex -1524.0000000000027 -107.10672000000376 25450.799999999974
    vertex -1524.0000000000027 -3084.0680000000016 25349.199999999975
    vertex -1524.0000000000027 -2372.8680000000018 25349.199999999975
  endloop
endfacet
facet normal 1.0 5.66855310937084e-18 5.915960421423314e-18
  outer loop
    vertex -1524.0000000000027 -107.10672000000376 25450.799999999974
    vertex -1524.0000000000027 -2372.8680000000018 25349.199999999975
    vertex -1524.0000000000027 -542.4587404220077 22555.199999999975
  endloop
endfacet
facet normal 1.0 5.66855310937084e-18 5.915960421423314e-18
  outer loop
    vertex -1524.0000000000027 -107.10672000000376 25450.799999999974
    vertex -1524.0000000000027 -542.4587404220077 22555.199999999975
    vertex -1524.0000000000027 -107.10672000000376 13491.900959809582
  endloop
endfacet
facet normal 1.0 5.66855310937084e-18 5.915960421423314e-18
  outer loop
    vertex -1524.0000000000027 -107.10672000000376 25450.799999999974
    vertex -1524.0000000000027 -107.10672000000376 13491.900959809582
    vertex -1524.0000000000027 -107.10672000000376 18824.575000000008
  endloop
endfacet
facet normal 1.0 5.66855310937084e-18 5.915960421423314e-18
  outer loop
    vertex -1524.0000000000027 -107.10672000000376 25450.799999999974
    vertex -1524.0000000000027 -107.10672000000376 18824.575000000008
    vertex -1524.0000000000027 -107.10672000000376 22555.199999999975
  endloop
endfacet
facet normal 1.0 5.66855310937084e-18 5.915960421423314e-18
  outer loop
    vertex -1524.0000000000027 -6335.268000000002 18824.575000000008
    vertex -1524.0000000000014 -6487.668000000001 19214.669841135175
    vertex -1524.0000000000027 -6487.6680000000015 18824.575000000008
  endloop
endfacet
facet normal 1.0 5.66855310937084e-18 5.915960421423314e-18
  outer loop
    vertex -1524.0000000000014 -6487.668000000001 19214.669841135175
    vertex -1524.0000000000027 -6335.268000000002 18824.575000000008
    vertex -1524.0000000000027 -542.4587404220077 22555.199999999975
  endloop
endfacet
facet normal 0.0 0.0 1.0
  outer loop
    vertex -5430.900999999998 -6589.268000000002 20319.999999999975
    vertex -6345.300999999999 -6487.6680000000015 20319.999999999975
    vertex -6345.300999999999 -6589.268000000002 20319.999999999975
  endloop
endfacet
facet normal 0.0 0.0 1.0
  outer loop
    vertex -6345.300999999999 -6487.6680000000015 20319.999999999975
    vertex -5430.900999999998 -6589.268000000002 20319.999999999975
    vertex -6345.300999999999 -6386.068000000001 20319.999999999975
  endloop
endfacet
facet normal 0.0 0.0 1.0
  outer loop
    vertex -6345.300999999999 -6386.068000000001 20319.999999999975
    vertex -5430.900999999998 -6589.268000000002 20319.999999999975
    vertex -5430.900999999998 -6386.068000000001 20319.999999999975
  endloop
endfacet
facet normal 0.0 0.0 1.0
  outer loop
    vertex -5430.900999999998 -6386.068000000001 20319.999999999975
    vertex -5430.900999999998 -6589.268000000002 20319.999999999975
    vertex -5430.900999999998 -6487.6680000000015 20319.999999999975
  endloop
endfacet
facet normal -0.0 -0.0 -1.0
  outer loop
    vertex -1524.0000000000027 -2372.8680000000018 25349.199999999975
    vertex -1625.6000000000029 -3084.0680000000016 25349.199999999975
    vertex -1625.6000000000029 -2372.8680000000018 25349.199999999975
  endloop
endfacet
facet normal -0.0 -0.0 -1.0
  outer loop
    vertex -1625.6000000000029 -3084.0680000000016 25349.199999999975
    vertex -1524.0000000000027 -2372.8680000000018 25349.199999999975
    vertex -1524.0000000000027 -3084.0680000000016 25349.199999999975
  endloop
endfacet
facet normal 0.0 0.0 1.0
  outer loop
    vertex -1524.0000000000027 -3896.8680000000018 23926.799999999974
    vertex -1625.6000000000029 -3185.6680000000015 23926.799999999974
    vertex -1625.6000000000029 -3896.8680000000018 23926.799999999974
  endloop
endfacet
facet normal 0.0 0.0 1.0
  outer loop
    vertex -1625.6000000000029 -3185.6680000000015 23926.799999999974
    vertex -1524.0000000000027 -3896.8680000000018 23926.799999999974
    vertex -1524.0000000000027 -3185.6680000000015 23926.799999999974
  endloop
endfacet
facet normal 0.0 0.0 1.0
  outer loop
    vertex -1524.0000000000027 -3185.6680000000015 23926.799999999974
    vertex -1524.0000000000027 -3896.8680000000018 23926.799999999974
    vertex -1422.4000000000028 -3896.8680000000018 23926.799999999974
  endloop
endfacet
facet normal 0.0 0.0 1.0
  outer loop
    vertex -1524.0000000000027 -3185.6680000000015 23926.799999999974
    vertex -1422.4000000000028 -3896.8680000000018 23926.799999999974
    vertex -1524.0000000000027 -3084.0680000000016 23926.799999999974
  endloop
endfacet
facet normal 0.0 0.0 1.0
  outer loop
    vertex -1524.0000000000027 -3084.0680000000016 23926.799999999974
    vertex -1422.4000000000028 -3896.8680000000018 23926.799999999974
    vertex -1524.0000000000027 -2372.8680000000018 23926.799999999974
  endloop
endfacet
facet normal 0.0 0.0 1.0
  outer loop
    vertex -1524.0000000000027 -2372.8680000000018 23926.799999999974
    vertex -1422.4000000000028 -3896.8680000000018 23926.799999999974
    vertex -1422.4000000000028 -2372.8680000000018 23926.799999999974
  endloop
endfacet
facet normal 0.0 0.0 1.0
  outer loop
    vertex -1524.0000000000027 -3084.0680000000016 23926.799999999974
    vertex -1625.6000000000029 -2372.8680000000018 23926.799999999974
    vertex -1625.6000000000029 -3084.0680000000016 23926.799999999974
  endloop
endfacet
facet normal 0.0 0.0 1.0
  outer loop
    vertex -1625.6000000000029 -2372.8680000000018 23926.799999999974
    vertex -1524.0000000000027 -3084.0680000000016 23926.799999999974
    vertex -1524.0000000000027 -2372.8680000000018 23926.799999999974
  endloop
endfacet
facet normal 1.0 0.0 0.0
  outer loop
    vertex -1625.6000000000029 -2372.8680000000018 23926.799999999974
    vertex -1625.6000000000029 -3084.0680000000016 25349.199999999975
    vertex -1625.6000000000029 -3084.0680000000016 23926.799999999974
  endloop
endfacet
facet normal 1.0 0.0 0.0
  outer loop
    vertex -1625.6000000000029 -3084.0680000000016 25349.199999999975
    vertex -1625.6000000000029 -2372.8680000000018 23926.799999999974
    vertex -1625.6000000000029 -2372.8680000000018 25349.199999999975
  endloop
endfacet
facet normal 0.0 -1.0 0.0
  outer loop
    vertex -5430.900999999998 -6386.068000000001 21691.599999999977
    vertex -6345.300999999999 -6386.068000000001 20319.999999999975
    vertex -5430.900999999998 -6386.068000000001 20319.999999999975
  endloop
endfacet
facet normal 0.0 -1.0 0.0
  outer loop
    vertex -6345.300999999999 -6386.068000000001 20319.999999999975
    vertex -5430.900999999998 -6386.068000000001 21691.599999999977
    vertex -6345.300999999999 -6386.068000000001 21691.599999999977
  endloop
endfacet
facet normal 0.0 1.0 0.0
  outer loop
    vertex -1676.4000000000028 -5725.6680000000015 24841.199999999975
    vertex -1524.0000000000027 -5725.6680000000015 22555.199999999975
    vertex -1676.4000000000028 -5725.6680000000015 22555.199999999975
  endloop
endfacet
facet normal 0.0 1.0 0.0
  outer loop
    vertex -1524.0000000000027 -5725.6680000000015 22555.199999999975
    vertex -1676.4000000000028 -5725.6680000000015 24841.199999999975
    vertex -1524.0000000000027 -5725.6680000000015 24841.199999999975
  endloop
endfacet
facet normal 0.0 -1.0 0.0
  outer loop
    vertex -5430.900999999998 -6436.868000000001 23926.799999999974
    vertex -6345.300999999999 -6436.868000000001 23825.199999999975
    vertex -5430.900999999998 -6436.868000000001 23825.199999999975
  endloop
endfacet
facet normal 0.0 -1.0 0.0
  outer loop
    vertex -6345.300999999999 -6436.868000000001 23825.199999999975
    vertex -5430.900999999998 -6436.868000000001 23926.799999999974
    vertex -6345.300999999999 -6436.868000000001 23926.799999999974
  endloop
endfacet
facet normal -1.0 -0.0 -0.0
  outer loop
    vertex -6345.300999999999 -6335.268000000002 23926.799999999974
    vertex -6345.300999999999 -6436.868000000001 23825.199999999975
    vertex -6345.300999999999 -6436.868000000001 23926.799999999974
  endloop
endfacet
facet normal -1.0 -0.0 -0.0
  outer loop
    vertex -6345.300999999999 -6436.868000000001 23825.199999999975
    vertex -6345.300999999999 -6335.268000000002 23926.799999999974
    vertex -6345.300999999999 -6335.268000000002 23825.199999999975
  endloop
endfacet
facet normal -1.0 -0.0 -0.0
  outer loop
    vertex -4872.100999999998 -107.10672000000376 24536.399999999976
    vertex -4872.100999999998 -208.70672000000377 22555.199999999975
    vertex -4872.100999999998 -208.70672000000377 24536.399999999976
  endloop
endfacet
facet normal -1.0 -0.0 -0.0
  outer loop
    vertex -4872.100999999998 -208.70672000000377 22555.199999999975
    vertex -4872.100999999998 -107.10672000000376 24536.399999999976
    vertex -4872.100999999998 -107.10672000000376 22555.199999999975
  endloop
endfacet
facet normal 1.0 0.0 0.0
  outer loop
    vertex -1524.0000000000027 -107.10672000000376 25600.34541474722
    vertex -1524.0000000000027 -6284.468000000002 25603.199999999975
    vertex -1524.0000000000027 -6284.468000000002 25600.34541474722
  endloop
endfacet
facet normal 1.0 0.0 0.0
  outer loop
    vertex -1524.0000000000027 -6284.468000000002 25603.199999999975
    vertex -1524.0000000000027 -6335.268000000002 26212.799999999974
    vertex -1524.0000000000027 -6335.268000000002 25603.199999999975
  endloop
endfacet
facet normal 1.0 0.0 0.0
  outer loop
    vertex -1524.0000000000027 -6335.268000000002 26212.799999999974
    vertex -1524.0000000000027 -6284.468000000002 25603.199999999975
    vertex -1524.0000000000027 -107.10672000000376 26212.799999999974
  endloop
endfacet
facet normal 1.0 0.0 0.0
  outer loop
    vertex -1524.0000000000027 -107.10672000000376 26212.799999999974
    vertex -1524.0000000000027 -6284.468000000002 25603.199999999975
    vertex -1524.0000000000027 -107.10672000000376 25600.34541474722
  endloop
endfacet
facet normal 0.0 0.0 -1.0
  outer loop
    vertex -5430.900999999998 -6335.268000000002 23825.199999999975
    vertex -6345.300999999999 -6436.868000000001 23825.199999999975
    vertex -6345.300999999999 -6335.268000000002 23825.199999999975
  endloop
endfacet
facet normal 0.0 0.0 -1.0
  outer loop
    vertex -6345.300999999999 -6436.868000000001 23825.199999999975
    vertex -5430.900999999998 -6335.268000000002 23825.199999999975
    vertex -5430.900999999998 -6436.868000000001 23825.199999999975
  endloop
endfacet
facet normal 1.0 0.0 0.0
  outer loop
    vertex -5430.900999999998 -6335.268000000002 23825.199999999975
    vertex -5430.900999999998 -6436.868000000001 23926.799999999974
    vertex -5430.900999999998 -6436.868000000001 23825.199999999975
  endloop
endfacet
facet normal 1.0 0.0 0.0
  outer loop
    vertex -5430.900999999998 -6436.868000000001 23926.799999999974
    vertex -5430.900999999998 -6335.268000000002 23825.199999999975
    vertex -5430.900999999998 -6335.268000000002 23926.799999999974
  endloop
endfacet
facet normal 1.0 0.0 0.0
  outer loop
    vertex -5430.900999999998 -6487.6680000000015 20218.399999999976
    vertex -5430.900999999998 -6589.268000000002 20319.999999999975
    vertex -5430.900999999998 -6589.268000000002 20218.399999999976
  endloop
endfacet
facet normal 1.0 0.0 0.0
  outer loop
    vertex -5430.900999999998 -6589.268000000002 20319.999999999975
    vertex -5430.900999999998 -6487.6680000000015 20218.399999999976
    vertex -5430.900999999998 -6487.6680000000015 20319.999999999975
  endloop
endfacet
facet normal 1.0 -1.2134768129879335e-16 3.2776360290674474e-16
  outer loop
    vertex -1371.6000000000029 -542.4587404220077 22555.199999999975
    vertex -1371.6000000000029 -6487.6680000000015 22555.199999999975
    vertex -1371.6000000000013 -6487.668000000001 19214.669841135175
  endloop
endfacet
facet normal -1.0 0.0 0.0
  outer loop
    vertex -8118.6019999999935 -107.10672000000376 26212.799999999974
    vertex -8118.6019999999935 -6335.268000000002 25603.199999999975
    vertex -8118.6019999999935 -6335.268000000002 26212.799999999974
  endloop
endfacet
facet normal -1.0 0.0 0.0
  outer loop
    vertex -8118.6019999999935 -6335.268000000002 25603.199999999975
    vertex -8118.6019999999935 -107.10672000000376 26212.799999999974
    vertex -8118.6019999999935 -157.90672000000376 25603.199999999975
  endloop
endfacet
facet normal -1.0 0.0 0.0
  outer loop
    vertex -8118.6019999999935 -157.90672000000376 25603.199999999975
    vertex -8118.6019999999935 -107.10672000000376 26212.799999999974
    vertex -8118.6019999999935 -107.10672000000376 25603.199999999975
  endloop
endfacet
facet normal 0.0 0.0 -1.0
  outer loop
    vertex -5430.900999999998 -6487.6680000000015 20218.399999999976
    vertex -6345.300999999999 -6589.268000000002 20218.399999999976
    vertex -6345.300999999999 -6487.6680000000015 20218.399999999976
  endloop
endfacet
facet normal 0.0 0.0 -1.0
  outer loop
    vertex -6345.300999999999 -6589.268000000002 20218.399999999976
    vertex -5430.900999999998 -6487.6680000000015 20218.399999999976
    vertex -5430.900999999998 -6589.268000000002 20218.399999999976
  endloop
endfacet
facet normal -1.5866096214752595e-16 0.48985459260614905 -0.8718041512304606
  outer loop
    vertex -1371.6000000000029 -542.4587404220077 22555.199999999975
    vertex -1524.0000000000014 -6487.668000000001 19214.669841135175
    vertex -1524.0000000000027 -542.4587404220077 22555.199999999975
  endloop
endfacet
facet normal -1.5866096214752595e-16 0.48985459260614905 -0.8718041512304606
  outer loop
    vertex -1524.0000000000014 -6487.668000000001 19214.669841135175
    vertex -1371.6000000000029 -542.4587404220077 22555.199999999975
    vertex -1371.6000000000013 -6487.668000000001 19214.669841135175
  endloop
endfacet
facet normal -1.0 0.0 0.0
  outer loop
    vertex -8067.801999999993 -157.90672000000376 25603.199999999975
    vertex -8067.801999999993 -6284.468000000002 25450.799999999974
    vertex -8067.801999999993 -6284.468000000002 25603.199999999975
  endloop
endfacet
facet normal -1.0 0.0 0.0
  outer loop
    vertex -8067.801999999993 -6284.468000000002 25450.799999999974
    vertex -8067.801999999993 -157.90672000000376 25603.199999999975
    vertex -8067.801999999993 -157.90672000000376 25450.799999999974
  endloop
endfacet
facet normal 0.0 0.0 1.0
  outer loop
    vertex -1524.0000000000027 -6335.268000000002 26212.799999999974
    vertex -8118.6019999999935 -107.10672000000376 26212.799999999974
    vertex -8118.6019999999935 -6335.268000000002 26212.799999999974
  endloop
endfacet
facet normal 0.0 0.0 1.0
  outer loop
    vertex -8118.6019999999935 -107.10672000000376 26212.799999999974
    vertex -1524.0000000000027 -6335.268000000002 26212.799999999974
    vertex -1524.0000000000027 -107.10672000000376 26212.799999999974
  endloop
endfacet
facet normal 0.0 0.0 1.0
  outer loop
    vertex -8017.001999999994 -3612.3067200000037 23926.799999999974
    vertex -8118.6019999999935 -3053.5067200000035 23926.799999999974
    vertex -8118.6019999999935 -3612.3067200000037 23926.799999999974
  endloop
endfacet
facet normal 0.0 0.0 1.0
  outer loop
    vertex -8118.6019999999935 -3053.5067200000035 23926.799999999974
    vertex -8017.001999999994 -3612.3067200000037 23926.799999999974
    vertex -8017.001999999994 -3053.5067200000035 23926.799999999974
  endloop
endfacet
facet normal 0.0 0.0 1.0
  outer loop
    vertex -8118.6019999999935 -3612.3067200000037 23926.799999999974
    vertex -8220.201999999994 -2393.106720000004 23926.799999999974
    vertex -8220.201999999994 -3612.3067200000037 23926.799999999974
  endloop
endfacet
facet normal 0.0 0.0 1.0
  outer loop
    vertex -8220.201999999994 -2393.106720000004 23926.799999999974
    vertex -8118.6019999999935 -3612.3067200000037 23926.799999999974
    vertex -8118.6019999999935 -2393.106720000004 23926.799999999974
  endloop
endfacet
facet normal 0.0 0.0 1.0
  outer loop
    vertex -8118.6019999999935 -2393.106720000004 23926.799999999974
    vertex -8118.6019999999935 -3612.3067200000037 23926.799999999974
    vertex -8118.6019999999935 -3053.5067200000035 23926.799999999974
  endloop
endfacet
facet normal 0.0 0.0 1.0
  outer loop
    vertex -8118.6019999999935 -2393.106720000004 23926.799999999974
    vertex -8118.6019999999935 -3053.5067200000035 23926.799999999974
    vertex -8118.6019999999935 -2951.9067200000036 23926.799999999974
  endloop
endfacet
facet normal 0.0 0.0 1.0
  outer loop
    vertex -8118.6019999999935 -2393.106720000004 23926.799999999974
    vertex -8118.6019999999935 -2951.9067200000036 23926.799999999974
    vertex -8017.001999999994 -2951.9067200000036 23926.799999999974
  endloop
endfacet
facet normal 0.0 0.0 1.0
  outer loop
    vertex -8118.6019999999935 -2393.106720000004 23926.799999999974
    vertex -8017.001999999994 -2951.9067200000036 23926.799999999974
    vertex -8017.001999999994 -2393.106720000004 23926.799999999974
  endloop
endfacet
facet normal -1.0 0.0 0.0
  outer loop
    vertex -8118.6019999999935 -2951.9067200000036 23926.799999999974
    vertex -8118.6019999999935 -3053.5067200000035 23926.799999999974
    vertex -8118.6019999999935 -2951.9067200000036 25349.199999999975
  endloop
endfacet
facet normal -1.0 0.0 0.0
  outer loop
    vertex -8118.6019999999935 -6335.268000000002 25450.799999999974
    vertex -8118.6019999999935 -3612.3067200000037 25349.199999999975
    vertex -8118.6019999999935 -6335.268000000002 22555.199999999975
  endloop
endfacet
facet normal -1.0 0.0 0.0
  outer loop
    vertex -8118.6019999999935 -3612.3067200000037 25349.199999999975
    vertex -8118.6019999999935 -6335.268000000002 25450.799999999974
    vertex -8118.6019999999935 -157.90672000000376 25450.799999999974
  endloop
endfacet
facet normal -1.0 0.0 0.0
  outer loop
    vertex -8118.6019999999935 -3612.3067200000037 25349.199999999975
    vertex -8118.6019999999935 -157.90672000000376 25450.799999999974
    vertex -8118.6019999999935 -3053.5067200000035 25349.199999999975
  endloop
endfacet
facet normal -1.0 0.0 0.0
  outer loop
    vertex -8118.6019999999935 -3053.5067200000035 25349.199999999975
    vertex -8118.6019999999935 -157.90672000000376 25450.799999999974
    vertex -8118.6019999999935 -2951.9067200000036 25349.199999999975
  endloop
endfacet
facet normal -1.0 0.0 0.0
  outer loop
    vertex -8118.6019999999935 -3053.5067200000035 25349.199999999975
    vertex -8118.6019999999935 -2951.9067200000036 25349.199999999975
    vertex -8118.6019999999935 -3053.5067200000035 23926.799999999974
  endloop
endfacet
facet normal -1.0 0.0 0.0
  outer loop
    vertex -8118.6019999999935 -2951.9067200000036 25349.199999999975
    vertex -8118.6019999999935 -157.90672000000376 25450.799999999974
    vertex -8118.6019999999935 -2393.106720000004 25349.199999999975
  endloop
endfacet
facet normal -1.0 0.0 0.0
  outer loop
    vertex -8118.6019999999935 -2393.106720000004 25349.199999999975
    vertex -8118.6019999999935 -157.90672000000376 25450.799999999974
    vertex -8118.6019999999935 -2393.106720000004 23926.799999999974
  endloop
endfacet
facet normal -1.0 0.0 0.0
  outer loop
    vertex -8118.6019999999935 -2393.106720000004 23926.799999999974
    vertex -8118.6019999999935 -157.90672000000376 25450.799999999974
    vertex -8118.6019999999935 -2393.106720000004 23825.199999999975
  endloop
endfacet
facet normal -1.0 0.0 0.0
  outer loop
    vertex -8118.6019999999935 -6335.268000000002 22555.199999999975
    vertex -8118.6019999999935 -3612.3067200000037 23825.199999999975
    vertex -8118.6019999999935 -107.10672000000376 22555.199999999975
  endloop
endfacet
facet normal -1.0 0.0 0.0
  outer loop
    vertex -8118.6019999999935 -3612.3067200000037 23825.199999999975
    vertex -8118.6019999999935 -6335.268000000002 22555.199999999975
    vertex -8118.6019999999935 -3612.3067200000037 25349.199999999975
  endloop
endfacet
facet normal -1.0 0.0 0.0
  outer loop
    vertex -8118.6019999999935 -3612.3067200000037 23825.199999999975
    vertex -8118.6019999999935 -3612.3067200000037 25349.199999999975
    vertex -8118.6019999999935 -3612.3067200000037 23926.799999999974
  endloop
endfacet
facet normal -1.0 0.0 0.0
  outer loop
    vertex -8118.6019999999935 -107.10672000000376 22555.199999999975
    vertex -8118.6019999999935 -3612.3067200000037 23825.199999999975
    vertex -8118.6019999999935 -2393.106720000004 23825.199999999975
  endloop
endfacet
facet normal -1.0 0.0 0.0
  outer loop
    vertex -8118.6019999999935 -107.10672000000376 22555.199999999975
    vertex -8118.6019999999935 -2393.106720000004 23825.199999999975
    vertex -8118.6019999999935 -157.90672000000376 25450.799999999974
  endloop
endfacet
facet normal -1.0 0.0 0.0
  outer loop
    vertex -8118.6019999999935 -107.10672000000376 22555.199999999975
    vertex -8118.6019999999935 -157.90672000000376 25450.799999999974
    vertex -8118.6019999999935 -107.10672000000376 25450.799999999974
  endloop
endfacet
facet normal 0.0 0.0 -1.0
  outer loop
    vertex -8017.001999999994 -3053.5067200000035 25349.199999999975
    vertex -8118.6019999999935 -3612.3067200000037 25349.199999999975
    vertex -8118.6019999999935 -3053.5067200000035 25349.199999999975
  endloop
endfacet
facet normal 0.0 0.0 -1.0
  outer loop
    vertex -8118.6019999999935 -3612.3067200000037 25349.199999999975
    vertex -8017.001999999994 -3053.5067200000035 25349.199999999975
    vertex -8017.001999999994 -3612.3067200000037 25349.199999999975
  endloop
endfacet
facet normal -0.0 -0.0 -1.0
  outer loop
    vertex -1524.0000000000027 -4811.268000000002 24841.199999999975
    vertex -1676.4000000000028 -5725.6680000000015 24841.199999999975
    vertex -1676.4000000000028 -4811.268000000002 24841.199999999975
  endloop
endfacet
facet normal -0.0 -0.0 -1.0
  outer loop
    vertex -1676.4000000000028 -5725.6680000000015 24841.199999999975
    vertex -1524.0000000000027 -4811.268000000002 24841.199999999975
    vertex -1524.0000000000027 -5725.6680000000015 24841.199999999975
  endloop
endfacet
facet normal 0.0 1.0 0.0
  outer loop
    vertex -8118.6019999999935 -3612.3067200000037 25349.199999999975
    vertex -8017.001999999994 -3612.3067200000037 23926.799999999974
    vertex -8118.6019999999935 -3612.3067200000037 23926.799999999974
  endloop
endfacet
facet normal 0.0 1.0 0.0
  outer loop
    vertex -8017.001999999994 -3612.3067200000037 23926.799999999974
    vertex -8118.6019999999935 -3612.3067200000037 25349.199999999975
    vertex -8017.001999999994 -3612.3067200000037 25349.199999999975
  endloop
endfacet
facet normal 1.0 0.0 0.0
  outer loop
    vertex -1676.4000000000028 -4811.268000000002 22555.199999999975
    vertex -1676.4000000000028 -5725.6680000000015 24841.199999999975
    vertex -1676.4000000000028 -5725.6680000000015 22555.199999999975
  endloop
endfacet
facet normal 1.0 0.0 0.0
  outer loop
    vertex -1676.4000000000028 -5725.6680000000015 24841.199999999975
    vertex -1676.4000000000028 -4811.268000000002 22555.199999999975
    vertex -1676.4000000000028 -4811.268000000002 24841.199999999975
  endloop
endfacet
facet normal 1.0 0.0 0.0
  outer loop
    vertex -3297.300999999998 -6335.268000000002 23825.199999999975
    vertex -3297.300999999998 -6436.868000000001 23926.799999999974
    vertex -3297.300999999998 -6436.868000000001 23825.199999999975
  endloop
endfacet
facet normal 1.0 0.0 0.0
  outer loop
    vertex -3297.300999999998 -6436.868000000001 23926.799999999974
    vertex -3297.300999999998 -6335.268000000002 23825.199999999975
    vertex -3297.300999999998 -6335.268000000002 23926.799999999974
  endloop
endfacet
facet normal 0.0 0.0 -1.0
  outer loop
    vertex -3297.300999999998 -6335.268000000002 23825.199999999975
    vertex -4211.700999999998 -6436.868000000001 23825.199999999975
    vertex -4211.700999999998 -6335.268000000002 23825.199999999975
  endloop
endfacet
facet normal 0.0 0.0 -1.0
  outer loop
    vertex -4211.700999999998 -6436.868000000001 23825.199999999975
    vertex -3297.300999999998 -6335.268000000002 23825.199999999975
    vertex -3297.300999999998 -6436.868000000001 23825.199999999975
  endloop
endfacet
facet normal 0.0 1.0 0.0
  outer loop
    vertex -8118.6019999999935 -107.10672000000376 25450.799999999974
    vertex -6040.500999999998 -107.10672000000376 22555.199999999975
    vertex -8118.6019999999935 -107.10672000000376 22555.199999999975
  endloop
endfacet
facet normal 0.0 1.0 0.0
  outer loop
    vertex -6040.500999999998 -107.10672000000376 22555.199999999975
    vertex -8118.6019999999935 -107.10672000000376 25450.799999999974
    vertex -6345.300999999999 -107.10672000000376 24637.999999999975
  endloop
endfacet
facet normal 0.0 1.0 0.0
  outer loop
    vertex -6040.500999999998 -107.10672000000376 22555.199999999975
    vertex -6345.300999999999 -107.10672000000376 24637.999999999975
    vertex -6040.500999999998 -107.10672000000376 24536.399999999976
  endloop
endfacet
facet normal 0.0 1.0 0.0
  outer loop
    vertex -6040.500999999998 -107.10672000000376 24536.399999999976
    vertex -6345.300999999999 -107.10672000000376 24637.999999999975
    vertex -4872.100999999998 -107.10672000000376 24536.399999999976
  endloop
endfacet
facet normal 0.0 1.0 0.0
  outer loop
    vertex -4872.100999999998 -107.10672000000376 24536.399999999976
    vertex -6345.300999999999 -107.10672000000376 24637.999999999975
    vertex -4770.500999999998 -107.10672000000376 24536.399999999976
  endloop
endfacet
facet normal 0.0 1.0 0.0
  outer loop
    vertex -4770.500999999998 -107.10672000000376 24536.399999999976
    vertex -6345.300999999999 -107.10672000000376 24637.999999999975
    vertex -3602.1009999999983 -107.10672000000376 24536.399999999976
  endloop
endfacet
facet normal 0.0 1.0 0.0
  outer loop
    vertex -6345.300999999999 -107.10672000000376 24637.999999999975
    vertex -8118.6019999999935 -107.10672000000376 25450.799999999974
    vertex -6345.300999999999 -107.10672000000376 25349.199999999975
  endloop
endfacet
facet normal 0.0 1.0 0.0
  outer loop
    vertex -6345.300999999999 -107.10672000000376 25349.199999999975
    vertex -8118.6019999999935 -107.10672000000376 25450.799999999974
    vertex -3297.300999999998 -107.10672000000376 25349.199999999975
  endloop
endfacet
facet normal 0.0 1.0 0.0
  outer loop
    vertex -3602.1009999999983 -107.10672000000376 24536.399999999976
    vertex -1524.0000000000027 -107.10672000000376 22555.199999999975
    vertex -3602.1009999999983 -107.10672000000376 22555.199999999975
  endloop
endfacet
facet normal 0.0 1.0 0.0
  outer loop
    vertex -1524.0000000000027 -107.10672000000376 22555.199999999975
    vertex -3602.1009999999983 -107.10672000000376 24536.399999999976
    vertex -3297.300999999998 -107.10672000000376 24637.999999999975
  endloop
endfacet
facet normal 0.0 1.0 0.0
  outer loop
    vertex -1524.0000000000027 -107.10672000000376 22555.199999999975
    vertex -3297.300999999998 -107.10672000000376 24637.999999999975
    vertex -1524.0000000000027 -107.10672000000376 25450.799999999974
  endloop
endfacet
facet normal 0.0 1.0 0.0
  outer loop
    vertex -3297.300999999998 -107.10672000000376 24637.999999999975
    vertex -3602.1009999999983 -107.10672000000376 24536.399999999976
    vertex -6345.300999999999 -107.10672000000376 24637.999999999975
  endloop
endfacet
facet normal 0.0 1.0 0.0
  outer loop
    vertex -1524.0000000000027 -107.10672000000376 25450.799999999974
    vertex -3297.300999999998 -107.10672000000376 24637.999999999975
    vertex -3297.300999999998 -107.10672000000376 25349.199999999975
  endloop
endfacet
facet normal 0.0 1.0 0.0
  outer loop
    vertex -1524.0000000000027 -107.10672000000376 25450.799999999974
    vertex -3297.300999999998 -107.10672000000376 25349.199999999975
    vertex -8118.6019999999935 -107.10672000000376 25450.799999999974
  endloop
endfacet
facet normal 0.0 1.0 0.0
  outer loop
    vertex -4872.100999999998 -107.10672000000376 24536.399999999976
    vertex -4770.500999999998 -107.10672000000376 22555.199999999975
    vertex -4872.100999999998 -107.10672000000376 22555.199999999975
  endloop
endfacet
facet normal 0.0 1.0 0.0
  outer loop
    vertex -4770.500999999998 -107.10672000000376 22555.199999999975
    vertex -4872.100999999998 -107.10672000000376 24536.399999999976
    vertex -4770.500999999998 -107.10672000000376 24536.399999999976
  endloop
endfacet
facet normal 0.0 -1.0 0.0
  outer loop
    vertex -1524.0000000000027 -4811.268000000002 24841.199999999975
    vertex -1676.4000000000028 -4811.268000000002 22555.199999999975
    vertex -1524.0000000000027 -4811.268000000002 22555.199999999975
  endloop
endfacet
facet normal 0.0 -1.0 0.0
  outer loop
    vertex -1676.4000000000028 -4811.268000000002 22555.199999999975
    vertex -1524.0000000000027 -4811.268000000002 24841.199999999975
    vertex -1676.4000000000028 -4811.268000000002 24841.199999999975
  endloop
endfacet
facet normal -1.0 -0.0 -0.0
  outer loop
    vertex -4211.700999999998 -6335.268000000002 23926.799999999974
    vertex -4211.700999999998 -6436.868000000001 23825.199999999975
    vertex -4211.700999999998 -6436.868000000001 23926.799999999974
  endloop
endfacet
facet normal -1.0 -0.0 -0.0
  outer loop
    vertex -4211.700999999998 -6436.868000000001 23825.199999999975
    vertex -4211.700999999998 -6335.268000000002 23926.799999999974
    vertex -4211.700999999998 -6335.268000000002 23825.199999999975
  endloop
endfacet
facet normal 0.0 -1.0 0.0
  outer loop
    vertex -3297.300999999998 -6436.868000000001 23926.799999999974
    vertex -4211.700999999998 -6436.868000000001 23825.199999999975
    vertex -3297.300999999998 -6436.868000000001 23825.199999999975
  endloop
endfacet
facet normal 0.0 -1.0 0.0
  outer loop
    vertex -4211.700999999998 -6436.868000000001 23825.199999999975
    vertex -3297.300999999998 -6436.868000000001 23926.799999999974
    vertex -4211.700999999998 -6436.868000000001 23926.799999999974
  endloop
endfacet
facet normal -1.0 -0.0 -0.0
  outer loop
    vertex -6345.300999999999 -6487.6680000000015 20319.999999999975
    vertex -6345.300999999999 -6589.268000000002 20218.399999999976
    vertex -6345.300999999999 -6589.268000000002 20319.999999999975
  endloop
endfacet
facet normal -1.0 -0.0 -0.0
  outer loop
    vertex -6345.300999999999 -6589.268000000002 20218.399999999976
    vertex -6345.300999999999 -6487.6680000000015 20319.999999999975
    vertex -6345.300999999999 -6487.6680000000015 20218.399999999976
  endloop
endfacet
facet normal 0.0 1.0 0.0
  outer loop
    vertex -6040.500999999998 -208.70672000000377 24536.399999999976
    vertex -4872.100999999998 -208.70672000000377 22555.199999999975
    vertex -6040.500999999998 -208.70672000000377 22555.199999999975
  endloop
endfacet
facet normal 0.0 1.0 0.0
  outer loop
    vertex -4872.100999999998 -208.70672000000377 22555.199999999975
    vertex -6040.500999999998 -208.70672000000377 24536.399999999976
    vertex -4872.100999999998 -208.70672000000377 24536.399999999976
  endloop
endfacet
facet normal 0.0 1.0 0.0
  outer loop
    vertex -8118.6019999999935 -107.10672000000376 25603.199999999975
    vertex -1524.0000000000027 -107.10672000000376 26212.799999999974
    vertex -1524.0000000000027 -107.10672000000376 25600.34541474722
  endloop
endfacet
facet normal 0.0 1.0 0.0
  outer loop
    vertex -1524.0000000000027 -107.10672000000376 26212.799999999974
    vertex -8118.6019999999935 -107.10672000000376 25603.199999999975
    vertex -8118.6019999999935 -107.10672000000376 26212.799999999974
  endloop
endfacet
facet normal 0.0 -1.0 0.0
  outer loop
    vertex -8017.001999999994 -3053.5067200000035 25349.199999999975
    vertex -8118.6019999999935 -3053.5067200000035 23926.799999999974
    vertex -8017.001999999994 -3053.5067200000035 23926.799999999974
  endloop
endfacet
facet normal 0.0 -1.0 0.0
  outer loop
    vertex -8118.6019999999935 -3053.5067200000035 23926.799999999974
    vertex -8017.001999999994 -3053.5067200000035 25349.199999999975
    vertex -8118.6019999999935 -3053.5067200000035 25349.199999999975
  endloop
endfacet
facet normal 0.0 0.0 -1.0
  outer loop
    vertex -4872.100999999998 -107.10672000000376 24536.399999999976
    vertex -6040.500999999998 -208.70672000000377 24536.399999999976
    vertex -6040.500999999998 -107.10672000000376 24536.399999999976
  endloop
endfacet
facet normal 0.0 0.0 -1.0
  outer loop
    vertex -6040.500999999998 -208.70672000000377 24536.399999999976
    vertex -4872.100999999998 -107.10672000000376 24536.399999999976
    vertex -4872.100999999998 -208.70672000000377 24536.399999999976
  endloop
endfacet
facet normal 1.0 0.0 0.0
  outer loop
    vertex -6040.500999999998 -107.10672000000376 22555.199999999975
    vertex -6040.500999999998 -208.70672000000377 24536.399999999976
    vertex -6040.500999999998 -208.70672000000377 22555.199999999975
  endloop
endfacet
facet normal 1.0 0.0 0.0
  outer loop
    vertex -6040.500999999998 -208.70672000000377 24536.399999999976
    vertex -6040.500999999998 -107.10672000000376 22555.199999999975
    vertex -6040.500999999998 -107.10672000000376 24536.399999999976
  endloop
endfacet
facet normal 0.0 -1.0 0.0
  outer loop
    vertex -5430.900999999998 -6589.268000000002 20319.999999999975
    vertex -6345.300999999999 -6589.268000000002 20218.399999999976
    vertex -5430.900999999998 -6589.268000000002 20218.399999999976
  endloop
endfacet
facet normal 0.0 -1.0 0.0
  outer loop
    vertex -6345.300999999999 -6589.268000000002 20218.399999999976
    vertex -5430.900999999998 -6589.268000000002 20319.999999999975
    vertex -6345.300999999999 -6589.268000000002 20319.999999999975
  endloop
endfacet
facet normal 0.0 1.0 0.0
  outer loop
    vertex -1524.0000000000027 -2372.8680000000018 23926.799999999974
    vertex -1422.4000000000028 -2372.8680000000018 23825.199999999975
    vertex -1524.0000000000027 -2372.8680000000018 23825.199999999975
  endloop
endfacet
facet normal 0.0 1.0 0.0
  outer loop
    vertex -1422.4000000000028 -2372.8680000000018 23825.199999999975
    vertex -1524.0000000000027 -2372.8680000000018 23926.799999999974
    vertex -1422.4000000000028 -2372.8680000000018 23926.799999999974
  endloop
endfacet
facet normal -0.0 -1.0 -0.0
  outer loop
    vertex -1422.4000000000028 -3896.8680000000018 23926.799999999974
    vertex -1524.0000000000027 -3896.8680000000018 23825.199999999975
    vertex -1422.4000000000028 -3896.8680000000018 23825.199999999975
  endloop
endfacet
facet normal -0.0 -1.0 -0.0
  outer loop
    vertex -1524.0000000000027 -3896.8680000000018 23825.199999999975
    vertex -1422.4000000000028 -3896.8680000000018 23926.799999999974
    vertex -1524.0000000000027 -3896.8680000000018 23926.799999999974
  endloop
endfacet
facet normal 0.0 0.0 -1.0
  outer loop
    vertex -1422.4000000000028 -2372.8680000000018 23825.199999999975
    vertex -1524.0000000000027 -3896.8680000000018 23825.199999999975
    vertex -1524.0000000000027 -2372.8680000000018 23825.199999999975
  endloop
endfacet
facet normal 0.0 0.0 -1.0
  outer loop
    vertex -1524.0000000000027 -3896.8680000000018 23825.199999999975
    vertex -1422.4000000000028 -2372.8680000000018 23825.199999999975
    vertex -1422.4000000000028 -3896.8680000000018 23825.199999999975
  endloop
endfacet
facet normal 0.0 1.0 0.0
  outer loop
    vertex -8220.201999999994 -2393.106720000004 23926.799999999974
    vertex -8118.6019999999935 -2393.106720000004 23825.199999999975
    vertex -8220.201999999994 -2393.106720000004 23825.199999999975
  endloop
endfacet
facet normal 0.0 1.0 0.0
  outer loop
    vertex -8118.6019999999935 -2393.106720000004 23825.199999999975
    vertex -8220.201999999994 -2393.106720000004 23926.799999999974
    vertex -8118.6019999999935 -2393.106720000004 23926.799999999974
  endloop
endfacet
facet normal 0.0 0.0 1.0
  outer loop
    vertex -8271.001999999993 -6487.6680000000015 22555.199999999975
    vertex -8118.6019999999935 -6335.268000000002 22555.199999999975
    vertex -8271.001999999993 45.29327999999623 22555.199999999975
  endloop
endfacet
facet normal 0.0 0.0 1.0
  outer loop
    vertex -8118.6019999999935 -6335.268000000002 22555.199999999975
    vertex -8271.001999999993 -6487.6680000000015 22555.199999999975
    vertex -1371.6000000000029 -6487.6680000000015 22555.199999999975
  endloop
endfacet
facet normal 0.0 0.0 1.0
  outer loop
    vertex -8118.6019999999935 -6335.268000000002 22555.199999999975
    vertex -1371.6000000000029 -6487.6680000000015 22555.199999999975
    vertex -1524.0000000000027 -6335.268000000002 22555.199999999975
  endloop
endfacet
facet normal 0.0 0.0 1.0
  outer loop
    vertex -1524.0000000000027 -6335.268000000002 22555.199999999975
    vertex -1371.6000000000029 -6487.6680000000015 22555.199999999975
    vertex -1524.0000000000027 -5725.6680000000015 22555.199999999975
  endloop
endfacet
facet normal 0.0 0.0 1.0
  outer loop
    vertex -1524.0000000000027 -5725.6680000000015 22555.199999999975
    vertex -1371.6000000000029 -6487.6680000000015 22555.199999999975
    vertex -1524.0000000000027 -4811.268000000002 22555.199999999975
  endloop
endfacet
facet normal 0.0 0.0 1.0
  outer loop
    vertex -1524.0000000000027 -4811.268000000002 22555.199999999975
    vertex -1371.6000000000029 -6487.6680000000015 22555.199999999975
    vertex -1524.0000000000027 -542.4587404220077 22555.199999999975
  endloop
endfacet
facet normal 0.0 0.0 1.0
  outer loop
    vertex -1524.0000000000027 -542.4587404220077 22555.199999999975
    vertex -1371.6000000000029 -6487.6680000000015 22555.199999999975
    vertex -1371.6000000000029 -542.4587404220077 22555.199999999975
  endloop
endfacet
facet normal 0.0 0.0 1.0
  outer loop
    vertex -1524.0000000000027 -5725.6680000000015 22555.199999999975
    vertex -1676.4000000000028 -4811.268000000002 22555.199999999975
    vertex -1676.4000000000028 -5725.6680000000015 22555.199999999975
  endloop
endfacet
facet normal 0.0 0.0 1.0
  outer loop
    vertex -1676.4000000000028 -4811.268000000002 22555.199999999975
    vertex -1524.0000000000027 -5725.6680000000015 22555.199999999975
    vertex -1524.0000000000027 -4811.268000000002 22555.199999999975
  endloop
endfacet
facet normal 0.0 0.0 1.0
  outer loop
    vertex -4872.100999999998 -208.70672000000377 22555.199999999975
    vertex -6040.500999999998 -107.10672000000376 22555.199999999975
    vertex -6040.500999999998 -208.70672000000377 22555.199999999975
  endloop
endfacet
facet normal 0.0 0.0 1.0
  outer loop
    vertex -3602.1009999999983 -208.70672000000377 22555.199999999975
    vertex -4770.500999999998 -107.10672000000376 22555.199999999975
    vertex -4770.500999999998 -208.70672000000377 22555.199999999975
  endloop
endfacet
facet normal 0.0 0.0 1.0
  outer loop
    vertex -8271.001999999993 45.29327999999623 22555.199999999975
    vertex -8118.6019999999935 -107.10672000000376 22555.199999999975
    vertex -1524.0000000000027 45.29327999999623 22555.199999999975
  endloop
endfacet
facet normal 0.0 0.0 1.0
  outer loop
    vertex -8118.6019999999935 -107.10672000000376 22555.199999999975
    vertex -8271.001999999993 45.29327999999623 22555.199999999975
    vertex -8118.6019999999935 -6335.268000000002 22555.199999999975
  endloop
endfacet
facet normal 0.0 0.0 1.0
  outer loop
    vertex -1524.0000000000027 45.29327999999623 22555.199999999975
    vertex -8118.6019999999935 -107.10672000000376 22555.199999999975
    vertex -6040.500999999998 -107.10672000000376 22555.199999999975
  endloop
endfacet
facet normal 0.0 0.0 1.0
  outer loop
    vertex -1524.0000000000027 45.29327999999623 22555.199999999975
    vertex -6040.500999999998 -107.10672000000376 22555.199999999975
    vertex -4872.100999999998 -107.10672000000376 22555.199999999975
  endloop
endfacet
facet normal 0.0 0.0 1.0
  outer loop
    vertex -4872.100999999998 -107.10672000000376 22555.199999999975
    vertex -6040.500999999998 -107.10672000000376 22555.199999999975
    vertex -4872.100999999998 -208.70672000000377 22555.199999999975
  endloop
endfacet
facet normal 0.0 0.0 1.0
  outer loop
    vertex -1524.0000000000027 45.29327999999623 22555.199999999975
    vertex -4872.100999999998 -107.10672000000376 22555.199999999975
    vertex -4770.500999999998 -107.10672000000376 22555.199999999975
  endloop
endfacet
facet normal 0.0 0.0 1.0
  outer loop
    vertex -1524.0000000000027 45.29327999999623 22555.199999999975
    vertex -4770.500999999998 -107.10672000000376 22555.199999999975
    vertex -3602.1009999999983 -107.10672000000376 22555.199999999975
  endloop
endfacet
facet normal 0.0 0.0 1.0
  outer loop
    vertex -3602.1009999999983 -107.10672000000376 22555.199999999975
    vertex -4770.500999999998 -107.10672000000376 22555.199999999975
    vertex -3602.1009999999983 -208.70672000000377 22555.199999999975
  endloop
endfacet
facet normal 0.0 0.0 1.0
  outer loop
    vertex -1524.0000000000027 45.29327999999623 22555.199999999975
    vertex -3602.1009999999983 -107.10672000000376 22555.199999999975
    vertex -1524.0000000000027 -107.10672000000376 22555.199999999975
  endloop
endfacet
facet normal 1.0 0.0 0.0
  outer loop
    vertex -1422.4000000000028 -2372.8680000000018 23825.199999999975
    vertex -1422.4000000000028 -3896.8680000000018 23926.799999999974
    vertex -1422.4000000000028 -3896.8680000000018 23825.199999999975
  endloop
endfacet
facet normal 1.0 0.0 0.0
  outer loop
    vertex -1422.4000000000028 -3896.8680000000018 23926.799999999974
    vertex -1422.4000000000028 -2372.8680000000018 23825.199999999975
    vertex -1422.4000000000028 -2372.8680000000018 23926.799999999974
  endloop
endfacet
facet normal 2.6750040827833092e-17 -1.0 8.582461156550256e-18
  outer loop
    vertex -1524.0000000000027 -6335.268000000002 13491.900959809582
    vertex -8118.6019999999935 -6335.268000000002 18824.575000000008
    vertex -8118.6019999999935 -6335.268000000002 2104.6835385860445
  endloop
endfacet
facet normal 2.6750040827833092e-17 -1.0 8.582461156550256e-18
  outer loop
    vertex -8118.6019999999935 -6335.268000000002 18824.575000000008
    vertex -1524.0000000000027 -6335.268000000002 13491.900959809582
    vertex -1524.0000000000027 -6335.268000000002 18824.575000000008
  endloop
endfacet
facet normal -1.0 0.0 0.0
  outer loop
    vertex -8118.6019999999935 -107.10672000000376 18824.575000000008
    vertex -8118.6019999999935 -6335.268000000002 2104.6835385860445
    vertex -8118.6019999999935 -6335.268000000002 18824.575000000008
  endloop
endfacet
facet normal -1.0 0.0 0.0
  outer loop
    vertex -8118.6019999999935 -6335.268000000002 2104.6835385860445
    vertex -8118.6019999999935 -107.10672000000376 18824.575000000008
    vertex -8118.6019999999935 -107.10672000000376 2104.6835385860445
  endloop
endfacet
facet normal 0.8653602940452265 0.0 -0.5011502384414871
  outer loop
    vertex -8118.6019999999935 -107.10672000000376 2104.6835385860445
    vertex -1524.0000000000027 -6335.268000000002 13491.900959809582
    vertex -8118.6019999999935 -6335.268000000002 2104.6835385860445
  endloop
endfacet
facet normal 0.8653602940452265 0.0 -0.5011502384414871
  outer loop
    vertex -1524.0000000000027 -6335.268000000002 13491.900959809582
    vertex -8118.6019999999935 -107.10672000000376 2104.6835385860445
    vertex -1524.0000000000027 -107.10672000000376 13491.900959809582
  endloop
endfacet
facet normal 0.0 1.0 0.0
  outer loop
    vertex -8118.6019999999935 -107.10672000000376 18824.575000000008
    vertex -1524.0000000000027 -107.10672000000376 13491.900959809582
    vertex -8118.6019999999935 -107.10672000000376 2104.6835385860445
  endloop
endfacet
facet normal 0.0 1.0 0.0
  outer loop
    vertex -1524.0000000000027 -107.10672000000376 13491.900959809582
    vertex -8118.6019999999935 -107.10672000000376 18824.575000000008
    vertex -1524.0000000000027 -107.10672000000376 18824.575000000008
  endloop
endfacet
facet normal 0.0 0.0 -1.0
  outer loop
    vertex -8271.001999999993 45.29327999999623 18824.575000000008
    vertex -8118.6019999999935 -107.10672000000376 18824.575000000008
    vertex -8271.001999999993 -6487.6680000000015 18824.575000000008
  endloop
endfacet
facet normal 0.0 0.0 -1.0
  outer loop
    vertex -8118.6019999999935 -107.10672000000376 18824.575000000008
    vertex -8271.001999999993 45.29327999999623 18824.575000000008
    vertex -1524.0000000000027 45.29327999999623 18824.575000000008
  endloop
endfacet
facet normal 0.0 0.0 -1.0
  outer loop
    vertex -8118.6019999999935 -107.10672000000376 18824.575000000008
    vertex -1524.0000000000027 45.29327999999623 18824.575000000008
    vertex -1524.0000000000027 -107.10672000000376 18824.575000000008
  endloop
endfacet
facet normal 0.0 0.0 -1.0
  outer loop
    vertex -8271.001999999993 -6487.6680000000015 18824.575000000008
    vertex -8118.6019999999935 -6335.268000000002 18824.575000000008
    vertex -1524.0000000000027 -6487.6680000000015 18824.575000000008
  endloop
endfacet
facet normal 0.0 0.0 -1.0
  outer loop
    vertex -8118.6019999999935 -6335.268000000002 18824.575000000008
    vertex -8271.001999999993 -6487.6680000000015 18824.575000000008
    vertex -8118.6019999999935 -107.10672000000376 18824.575000000008
  endloop
endfacet
facet normal 0.0 0.0 -1.0
  outer loop
    vertex -1524.0000000000027 -6487.6680000000015 18824.575000000008
    vertex -8118.6019999999935 -6335.268000000002 18824.575000000008
    vertex -1524.0000000000027 -6335.268000000002 18824.575000000008
  endloop
endfacet
facet normal 4.596199552652987e-17 -1.0 -6.68643112863316e-17
  outer loop
    vertex -1371.6000000000029 -6487.6680000000015 22555.199999999975
    vertex -1524.0000000000014 -6487.668000000001 19214.669841135175
    vertex -1371.6000000000013 -6487.668000000001 19214.669841135175
  endloop
endfacet
facet normal 4.596199552652987e-17 -1.0 -6.68643112863316e-17
  outer loop
    vertex -1524.0000000000014 -6487.668000000001 19214.669841135175
    vertex -1371.6000000000029 -6487.6680000000015 22555.199999999975
    vertex -3297.300999999998 -6487.6680000000015 20218.399999999976
  endloop
endfacet
facet normal 4.596199552652987e-17 -1.0 -6.68643112863316e-17
  outer loop
    vertex -3297.300999999998 -6487.6680000000015 20218.399999999976
    vertex -1371.6000000000029 -6487.6680000000015 22555.199999999975
    vertex -3297.300999999998 -6487.6680000000015 20319.999999999975
  endloop
endfacet
facet normal 4.596199552652987e-17 -1.0 -6.68643112863316e-17
  outer loop
    vertex -3297.300999999998 -6487.6680000000015 20319.999999999975
    vertex -1371.6000000000029 -6487.6680000000015 22555.199999999975
    vertex -3297.300999999998 -6487.6680000000015 21691.599999999977
  endloop
endfacet
facet normal 4.596199552652987e-17 -1.0 -6.68643112863316e-17
  outer loop
    vertex -3297.300999999998 -6487.6680000000015 21691.599999999977
    vertex -1371.6000000000029 -6487.6680000000015 22555.199999999975
    vertex -4211.700999999998 -6487.6680000000015 21691.599999999977
  endloop
endfacet
facet normal 4.596199552652987e-17 -1.0 -6.68643112863316e-17
  outer loop
    vertex -4211.700999999998 -6487.6680000000015 21691.599999999977
    vertex -1371.6000000000029 -6487.6680000000015 22555.199999999975
    vertex -5430.900999999998 -6487.6680000000015 21691.599999999977
  endloop
endfacet
facet normal 4.596199552652987e-17 -1.0 -6.68643112863316e-17
  outer loop
    vertex -5430.900999999998 -6487.6680000000015 21691.599999999977
    vertex -1371.6000000000029 -6487.6680000000015 22555.199999999975
    vertex -6345.300999999999 -6487.6680000000015 21691.599999999977
  endloop
endfacet
facet normal 4.596199552652987e-17 -1.0 -6.68643112863316e-17
  outer loop
    vertex -1524.0000000000014 -6487.668000000001 19214.669841135175
    vertex -8271.001999999993 -6487.6680000000015 18824.575000000008
    vertex -1524.0000000000027 -6487.6680000000015 18824.575000000008
  endloop
endfacet
facet normal 4.596199552652987e-17 -1.0 -6.68643112863316e-17
  outer loop
    vertex -8271.001999999993 -6487.6680000000015 18824.575000000008
    vertex -1524.0000000000014 -6487.668000000001 19214.669841135175
    vertex -6345.300999999999 -6487.6680000000015 20218.399999999976
  endloop
endfacet
facet normal 4.596199552652987e-17 -1.0 -6.68643112863316e-17
  outer loop
    vertex -8271.001999999993 -6487.6680000000015 18824.575000000008
    vertex -6345.300999999999 -6487.6680000000015 20218.399999999976
    vertex -8271.001999999993 -6487.6680000000015 22555.199999999975
  endloop
endfacet
facet normal 4.596199552652987e-17 -1.0 -6.68643112863316e-17
  outer loop
    vertex -6345.300999999999 -6487.6680000000015 20218.399999999976
    vertex -1524.0000000000014 -6487.668000000001 19214.669841135175
    vertex -3297.300999999998 -6487.6680000000015 20218.399999999976
  endloop
endfacet
facet normal 4.596199552652987e-17 -1.0 -6.68643112863316e-17
  outer loop
    vertex -6345.300999999999 -6487.6680000000015 20218.399999999976
    vertex -3297.300999999998 -6487.6680000000015 20218.399999999976
    vertex -4211.700999999998 -6487.6680000000015 20218.399999999976
  endloop
endfacet
facet normal 4.596199552652987e-17 -1.0 -6.68643112863316e-17
  outer loop
    vertex -6345.300999999999 -6487.6680000000015 20218.399999999976
    vertex -4211.700999999998 -6487.6680000000015 20218.399999999976
    vertex -5430.900999999998 -6487.6680000000015 20218.399999999976
  endloop
endfacet
facet normal 4.596199552652987e-17 -1.0 -6.68643112863316e-17
  outer loop
    vertex -8271.001999999993 -6487.6680000000015 22555.199999999975
    vertex -6345.300999999999 -6487.6680000000015 20218.399999999976
    vertex -6345.300999999999 -6487.6680000000015 20319.999999999975
  endloop
endfacet
facet normal 4.596199552652987e-17 -1.0 -6.68643112863316e-17
  outer loop
    vertex -8271.001999999993 -6487.6680000000015 22555.199999999975
    vertex -6345.300999999999 -6487.6680000000015 20319.999999999975
    vertex -6345.300999999999 -6487.6680000000015 21691.599999999977
  endloop
endfacet
facet normal 4.596199552652987e-17 -1.0 -6.68643112863316e-17
  outer loop
    vertex -8271.001999999993 -6487.6680000000015 22555.199999999975
    vertex -6345.300999999999 -6487.6680000000015 21691.599999999977
    vertex -1371.6000000000029 -6487.6680000000015 22555.199999999975
  endloop
endfacet
facet normal 4.596199552652987e-17 -1.0 -6.68643112863316e-17
  outer loop
    vertex -4211.700999999998 -6487.6680000000015 20319.999999999975
    vertex -5430.900999999998 -6487.6680000000015 20218.399999999976
    vertex -4211.700999999998 -6487.6680000000015 20218.399999999976
  endloop
endfacet
facet normal 4.596199552652987e-17 -1.0 -6.68643112863316e-17
  outer loop
    vertex -5430.900999999998 -6487.6680000000015 20218.399999999976
    vertex -4211.700999999998 -6487.6680000000015 20319.999999999975
    vertex -5430.900999999998 -6487.6680000000015 20319.999999999975
  endloop
endfacet
facet normal 4.596199552652987e-17 -1.0 -6.68643112863316e-17
  outer loop
    vertex -5430.900999999998 -6487.6680000000015 20319.999999999975
    vertex -4211.700999999998 -6487.6680000000015 20319.999999999975
    vertex -4211.700999999998 -6487.6680000000015 21691.599999999977
  endloop
endfacet
facet normal 4.596199552652987e-17 -1.0 -6.68643112863316e-17
  outer loop
    vertex -5430.900999999998 -6487.6680000000015 20319.999999999975
    vertex -4211.700999999998 -6487.6680000000015 21691.599999999977
    vertex -5430.900999999998 -6487.6680000000015 21691.599999999977
  endloop
endfacet
facet normal -1.0 -0.0 -0.0
  outer loop
    vertex -8271.001999999993 45.29327999999623 22555.199999999975
    vertex -8271.001999999993 -6487.6680000000015 18824.575000000008
    vertex -8271.001999999993 -6487.6680000000015 22555.199999999975
  endloop
endfacet
facet normal -1.0 -0.0 -0.0
  outer loop
    vertex -8271.001999999993 -6487.6680000000015 18824.575000000008
    vertex -8271.001999999993 45.29327999999623 22555.199999999975
    vertex -8271.001999999993 45.29327999999623 18824.575000000008
  endloop
endfacet
facet normal -1.0 0.0 0.0
  outer loop
    vertex -8220.201999999994 -2393.106720000004 23926.799999999974
    vertex -8220.201999999994 -3612.3067200000037 23825.199999999975
    vertex -8220.201999999994 -3612.3067200000037 23926.799999999974
  endloop
endfacet
facet normal -1.0 0.0 0.0
  outer loop
    vertex -8220.201999999994 -3612.3067200000037 23825.199999999975
    vertex -8220.201999999994 -2393.106720000004 23926.799999999974
    vertex -8220.201999999994 -2393.106720000004 23825.199999999975
  endloop
endfacet
facet normal 0.0 -1.0 0.0
  outer loop
    vertex -8118.6019999999935 -3612.3067200000037 23926.799999999974
    vertex -8220.201999999994 -3612.3067200000037 23825.199999999975
    vertex -8118.6019999999935 -3612.3067200000037 23825.199999999975
  endloop
endfacet
facet normal 0.0 -1.0 0.0
  outer loop
    vertex -8220.201999999994 -3612.3067200000037 23825.199999999975
    vertex -8118.6019999999935 -3612.3067200000037 23926.799999999974
    vertex -8220.201999999994 -3612.3067200000037 23926.799999999974
  endloop
endfacet
facet normal 1.0 0.0 0.0
  outer loop
    vertex -3297.300999999998 -6487.6680000000015 20218.399999999976
    vertex -3297.300999999998 -6589.268000000002 20319.999999999975
    vertex -3297.300999999998 -6589.268000000002 20218.399999999976
  endloop
endfacet
facet normal 1.0 0.0 0.0
  outer loop
    vertex -3297.300999999998 -6589.268000000002 20319.999999999975
    vertex -3297.300999999998 -6487.6680000000015 20218.399999999976
    vertex -3297.300999999998 -6487.6680000000015 20319.999999999975
  endloop
endfacet
facet normal -0.0 -0.0 -1.0
  outer loop
    vertex -8118.6019999999935 -2393.106720000004 23825.199999999975
    vertex -8220.201999999994 -3612.3067200000037 23825.199999999975
    vertex -8220.201999999994 -2393.106720000004 23825.199999999975
  endloop
endfacet
facet normal -0.0 -0.0 -1.0
  outer loop
    vertex -8220.201999999994 -3612.3067200000037 23825.199999999975
    vertex -8118.6019999999935 -2393.106720000004 23825.199999999975
    vertex -8118.6019999999935 -3612.3067200000037 23825.199999999975
  endloop
endfacet
facet normal -1.0 -0.0 -0.0
  outer loop
    vertex -4211.700999999998 -6487.6680000000015 20319.999999999975
    vertex -4211.700999999998 -6589.268000000002 20218.399999999976
    vertex -4211.700999999998 -6589.268000000002 20319.999999999975
  endloop
endfacet
facet normal -1.0 -0.0 -0.0
  outer loop
    vertex -4211.700999999998 -6589.268000000002 20218.399999999976
    vertex -4211.700999999998 -6487.6680000000015 20319.999999999975
    vertex -4211.700999999998 -6487.6680000000015 20218.399999999976
  endloop
endfacet
facet normal 0.0 0.0 -1.0
  outer loop
    vertex -8067.801999999993 -157.90672000000376 25603.199999999975
    vertex -8118.6019999999935 -6335.268000000002 25603.199999999975
    vertex -8118.6019999999935 -157.90672000000376 25603.199999999975
  endloop
endfacet
facet normal 0.0 0.0 -1.0
  outer loop
    vertex -8118.6019999999935 -6335.268000000002 25603.199999999975
    vertex -8067.801999999993 -157.90672000000376 25603.199999999975
    vertex -8067.801999999993 -6284.468000000002 25603.199999999975
  endloop
endfacet
facet normal 0.0 0.0 -1.0
  outer loop
    vertex -8118.6019999999935 -6335.268000000002 25603.199999999975
    vertex -8067.801999999993 -6284.468000000002 25603.199999999975
    vertex -1524.0000000000027 -6335.268000000002 25603.199999999975
  endloop
endfacet
facet normal 0.0 0.0 -1.0
  outer loop
    vertex -1524.0000000000027 -6335.268000000002 25603.199999999975
    vertex -8067.801999999993 -6284.468000000002 25603.199999999975
    vertex -1524.0000000000027 -6284.468000000002 25603.199999999975
  endloop
endfacet
facet normal 0.0 0.0 1.0
  outer loop
    vertex -8118.6019999999935 -6335.268000000002 25450.799999999974
    vertex -8067.801999999993 -6284.468000000002 25450.799999999974
    vertex -8118.6019999999935 -157.90672000000376 25450.799999999974
  endloop
endfacet
facet normal 0.0 0.0 1.0
  outer loop
    vertex -8067.801999999993 -6284.468000000002 25450.799999999974
    vertex -8118.6019999999935 -6335.268000000002 25450.799999999974
    vertex -1524.0000000000027 -6335.268000000002 25450.799999999974
  endloop
endfacet
facet normal 0.0 0.0 1.0
  outer loop
    vertex -8067.801999999993 -6284.468000000002 25450.799999999974
    vertex -1524.0000000000027 -6335.268000000002 25450.799999999974
    vertex -1574.800000000003 -6284.468000000002 25450.799999999974
  endloop
endfacet
facet normal 0.0 0.0 1.0
  outer loop
    vertex -1574.800000000003 -6284.468000000002 25450.799999999974
    vertex -1524.0000000000027 -6335.268000000002 25450.799999999974
    vertex -1524.0000000000027 -6284.468000000002 25450.799999999974
  endloop
endfacet
facet normal 0.0 0.0 1.0
  outer loop
    vertex -8067.801999999993 -157.90672000000376 25450.799999999974
    vertex -8118.6019999999935 -157.90672000000376 25450.799999999974
    vertex -8067.801999999993 -6284.468000000002 25450.799999999974
  endloop
endfacet
facet normal 0.0 -1.0 0.0
  outer loop
    vertex -3297.300999999998 -6589.268000000002 20319.999999999975
    vertex -4211.700999999998 -6589.268000000002 20218.399999999976
    vertex -3297.300999999998 -6589.268000000002 20218.399999999976
  endloop
endfacet
facet normal 0.0 -1.0 0.0
  outer loop
    vertex -4211.700999999998 -6589.268000000002 20218.399999999976
    vertex -3297.300999999998 -6589.268000000002 20319.999999999975
    vertex -4211.700999999998 -6589.268000000002 20319.999999999975
  endloop
endfacet
facet normal 0.0 0.0 -1.0
  outer loop
    vertex -3297.300999999998 -6487.6680000000015 20218.399999999976
    vertex -4211.700999999998 -6589.268000000002 20218.399999999976
    vertex -4211.700999999998 -6487.6680000000015 20218.399999999976
  endloop
endfacet
facet normal 0.0 0.0 -1.0
  outer loop
    vertex -4211.700999999998 -6589.268000000002 20218.399999999976
    vertex -3297.300999999998 -6487.6680000000015 20218.399999999976
    vertex -3297.300999999998 -6589.268000000002 20218.399999999976
  endloop
endfacet
facet normal 0.0 1.0 0.0
  outer loop
    vertex -8271.001999999993 45.29327999999623 22555.199999999975
    vertex -1524.0000000000027 45.29327999999623 18824.575000000008
    vertex -8271.001999999993 45.29327999999623 18824.575000000008
  endloop
endfacet
facet normal 0.0 1.0 0.0
  outer loop
    vertex -1524.0000000000027 45.29327999999623 18824.575000000008
    vertex -8271.001999999993 45.29327999999623 22555.199999999975
    vertex -1524.0000000000027 45.29327999999623 22555.199999999975
  endloop
endfacet
endsolid delaware-dam
