solid delaware-dam
facet normal 0.0 -0.7706267883935388 0.6372867117791332
  outer loop
    vertex 21945.6 -9173.208782796462 1318.7684834750964
    vertex 9753.599999999999 -9917.836985359576 418.34104684067324
    vertex 21945.6 -9917.836985359576 418.34104684067324
  endloop
endfacet
facet normal 0.0 -0.7706267883935388 0.6372867117791332
  outer loop
    vertex 9753.599999999999 -9917.836985359576 418.34104684067324
    vertex 21945.6 -9173.208782796462 1318.7684834750964
    vertex 9753.599999999999 -9173.208782796462 1318.7684834750964
  endloop
endfacet
facet normal -1.0 -1.0520357272188742e-17 -1.127062243350284e-17
  outer loop
    vertex 9753.599999999999 -18151.943140102685 -2962.1929672056945
    vertex 9753.599999999999 -20420.811733756902 -4572.0
    vertex 9753.599999999999 -20420.811733756902 -3048.0
  endloop
endfacet
facet normal -1.0 -1.0520357272188742e-17 -1.127062243350284e-17
  outer loop
    vertex 9753.599999999999 -20420.811733756902 -4572.0
    vertex 9753.599999999999 -18151.943140102685 -2962.1929672056945
    vertex 9753.599999999999 0.0 -4572.0
  endloop
endfacet
facet normal -1.0 -1.0520357272188742e-17 -1.127062243350284e-17
  outer loop
    vertex 9753.599999999999 0.0 -4572.0
    vertex 9753.599999999999 -18151.943140102685 -2962.1929672056945
    vertex 9753.599999999999 -16187.221484523148 -2714.8154546742103
  endloop
endfacet
facet normal -1.0 -1.0520357272188742e-17 -1.127062243350284e-17
  outer loop
    vertex 9753.599999999999 0.0 -4572.0
    vertex 9753.599999999999 -16187.221484523148 -2714.8154546742103
    vertex 9753.599999999999 -14497.847330092975 -2320.932841182696
  endloop
endfacet
facet normal -1.0 -1.0520357272188742e-17 -1.127062243350284e-17
  outer loop
    vertex 9753.599999999999 0.0 -4572.0
    vertex 9753.599999999999 -14497.847330092975 -2320.932841182696
    vertex 9753.599999999999 -13564.752782858524 -1981.2000000000005
  endloop
endfacet
facet normal -1.0 -1.0520357272188742e-17 -1.127062243350284e-17
  outer loop
    vertex 9753.599999999999 0.0 -4572.0
    vertex 9753.599999999999 -13564.752782858524 -1981.2000000000005
    vertex 9753.599999999997 -13055.021239886852 -1795.6105055083008
  endloop
endfacet
facet normal -1.0 -1.0520357272188742e-17 -1.127062243350284e-17
  outer loop
    vertex 9753.599999999999 0.0 -4572.0
    vertex 9753.599999999997 -13055.021239886852 -1795.6105055083008
    vertex 9753.599999999997 -11829.943776979451 -1153.913826428174
  endloop
endfacet
facet normal -1.0 -1.0520357272188742e-17 -1.127062243350284e-17
  outer loop
    vertex 9753.599999999999 0.0 -4572.0
    vertex 9753.599999999997 -11829.943776979451 -1153.913826428174
    vertex 9753.599999999997 -10793.815504445467 -410.9081827194671
  endloop
endfacet
facet normal -1.0 -1.0520357272188742e-17 -1.127062243350284e-17
  outer loop
    vertex 9753.599999999999 0.0 -4572.0
    vertex 9753.599999999997 -10793.815504445467 -410.9081827194671
    vertex 9753.599999999999 -10359.752102819153 0.0
  endloop
endfacet
facet normal -1.0 -1.0520357272188742e-17 -1.127062243350284e-17
  outer loop
    vertex 9753.599999999999 0.0 -4572.0
    vertex 9753.599999999999 -10359.752102819153 0.0
    vertex 9753.599999999999 -9917.836985359576 418.34104684067324
  endloop
endfacet
facet normal -1.0 -1.0520357272188742e-17 -1.127062243350284e-17
  outer loop
    vertex 9753.599999999999 0.0 -4572.0
    vertex 9753.599999999999 -9917.836985359576 418.34104684067324
    vertex 9753.599999999999 -9173.208782796462 1318.7684834750964
  endloop
endfacet
facet normal -1.0 -1.0520357272188742e-17 -1.127062243350284e-17
  outer loop
    vertex 9753.599999999999 0.0 -4572.0
    vertex 9753.599999999999 -9173.208782796462 1318.7684834750964
    vertex 9753.599999999999 -8531.131459830807 2275.3087484066555
  endloop
endfacet
facet normal -1.0 -1.0520357272188742e-17 -1.127062243350284e-17
  outer loop
    vertex 9753.599999999999 0.0 -4572.0
    vertex 9753.599999999999 -8531.131459830807 2275.3087484066555
    vertex 9753.599999999999 -7962.805579537291 3272.8964628582007
  endloop
endfacet
facet normal -1.0 -1.0520357272188742e-17 -1.127062243350284e-17
  outer loop
    vertex 9753.599999999999 0.0 -4572.0
    vertex 9753.599999999999 -7962.805579537291 3272.8964628582007
    vertex 9753.6 -7439.431704990599 4296.46624805258
  endloop
endfacet
facet normal -1.0 -1.0520357272188742e-17 -1.127062243350284e-17
  outer loop
    vertex 9753.599999999999 0.0 -4572.0
    vertex 9753.6 -7439.431704990599 4296.46624805258
    vertex 9753.599999999999 -6932.210399265412 5330.9527252126445
  endloop
endfacet
facet normal -1.0 -1.0520357272188742e-17 -1.127062243350284e-17
  outer loop
    vertex 9753.599999999999 0.0 -4572.0
    vertex 9753.599999999999 -6932.210399265412 5330.9527252126445
    vertex 9753.599999999995 -6412.342225436412 6361.290515561247
  endloop
endfacet
facet normal -1.0 -1.0520357272188742e-17 -1.127062243350284e-17
  outer loop
    vertex 9753.599999999999 0.0 -4572.0
    vertex 9753.599999999995 -6412.342225436412 6361.290515561247
    vertex 9753.599999999999 -5851.027746578287 7372.4142403212445
  endloop
endfacet
facet normal -1.0 -1.0520357272188742e-17 -1.127062243350284e-17
  outer loop
    vertex 9753.599999999999 0.0 -4572.0
    vertex 9753.599999999999 -5851.027746578287 7372.4142403212445
    vertex 9753.599999999999 -5219.467525765711 8349.258520715475
  endloop
endfacet
facet normal -1.0 -1.0520357272188742e-17 -1.127062243350284e-17
  outer loop
    vertex 9753.599999999999 0.0 -4572.0
    vertex 9753.599999999999 -5219.467525765711 8349.258520715475
    vertex 9753.600000000004 -4488.86212607337 9276.757977966798
  endloop
endfacet
facet normal -1.0 -1.0520357272188742e-17 -1.127062243350284e-17
  outer loop
    vertex 9753.599999999999 0.0 -4572.0
    vertex 9753.600000000004 -4488.86212607337 9276.757977966798
    vertex 9753.599999999999 -3630.412110575944 10139.847233298058
  endloop
endfacet
facet normal -1.0 -1.0520357272188742e-17 -1.127062243350284e-17
  outer loop
    vertex 9753.599999999999 0.0 -4572.0
    vertex 9753.599999999999 -3630.412110575944 10139.847233298058
    vertex 9753.599999999999 -2615.318042348121 10923.460907932114
  endloop
endfacet
facet normal -1.0 -1.0520357272188742e-17 -1.127062243350284e-17
  outer loop
    vertex 9753.599999999999 0.0 -4572.0
    vertex 9753.599999999999 -2615.318042348121 10923.460907932114
    vertex 9753.599999999999 -1414.7804844645786 11612.53362309181
  endloop
endfacet
facet normal -1.0 -1.0520357272188742e-17 -1.127062243350284e-17
  outer loop
    vertex 9753.599999999999 0.0 -4572.0
    vertex 9753.599999999999 -1414.7804844645786 11612.53362309181
    vertex 9753.599999999999 0.0 12192.0
  endloop
endfacet
facet normal 0.0 -0.22706303606336325 0.973880063279708
  outer loop
    vertex 21945.6 -16187.221484523148 -2714.8154546742103
    vertex 9753.599999999999 -14497.847330092975 -2320.932841182696
    vertex 9753.599999999999 -16187.221484523148 -2714.8154546742103
  endloop
endfacet
facet normal 0.0 -0.22706303606336325 0.973880063279708
  outer loop
    vertex 9753.599999999999 -14497.847330092975 -2320.932841182696
    vertex 21945.6 -16187.221484523148 -2714.8154546742103
    vertex 21945.6 -14497.847330092975 -2320.932841182696
  endloop
endfacet
facet normal 0.0 -0.830289873674039 0.5573317913723823
  outer loop
    vertex 21945.6 -8531.131459830807 2275.3087484066555
    vertex 9753.599999999999 -9173.208782796462 1318.7684834750964
    vertex 21945.6 -9173.208782796462 1318.7684834750964
  endloop
endfacet
facet normal 0.0 -0.830289873674039 0.5573317913723823
  outer loop
    vertex 9753.599999999999 -9173.208782796462 1318.7684834750964
    vertex 21945.6 -8531.131459830807 2275.3087484066555
    vertex 9753.599999999999 -8531.131459830807 2275.3087484066555
  endloop
endfacet
facet normal -6.034333212400001e-17 0.0 -1.0
  outer loop
    vertex 21945.6 0.0 -4572.000000000001
    vertex 9753.599999999999 -20420.811733756902 -4572.0
    vertex 9753.599999999999 0.0 -4572.0
  endloop
endfacet
facet normal -6.034333212400001e-17 0.0 -1.0
  outer loop
    vertex 9753.599999999999 -20420.811733756902 -4572.0
    vertex 21945.6 0.0 -4572.000000000001
    vertex 21945.6 -20420.811733756902 -4572.000000000001
  endloop
endfacet
facet normal -1.2668352114582371e-17 -0.6874714655323272 0.7262113907663762
  outer loop
    vertex 21945.6 -10793.815504445467 -410.90818271946785
    vertex 11963.400000000001 -10359.752102819153 0.0
    vertex 11963.400000000001 -10793.815504445467 -410.9081827194686
  endloop
endfacet
facet normal -1.2668352114582371e-17 -0.6874714655323272 0.7262113907663762
  outer loop
    vertex 9982.199999999997 -10793.815504445467 -410.9081827194671
    vertex 9753.599999999999 -10359.752102819153 0.0
    vertex 9753.599999999997 -10793.815504445467 -410.9081827194671
  endloop
endfacet
facet normal -1.2668352114582371e-17 -0.6874714655323272 0.7262113907663762
  outer loop
    vertex 9753.599999999999 -10359.752102819153 0.0
    vertex 9982.199999999997 -10793.815504445467 -410.9081827194671
    vertex 9753.599999999999 -9917.836985359576 418.34104684067324
  endloop
endfacet
facet normal -1.2668352114582371e-17 -0.6874714655323272 0.7262113907663762
  outer loop
    vertex 9753.599999999999 -9917.836985359576 418.34104684067324
    vertex 9982.199999999997 -10793.815504445467 -410.9081827194671
    vertex 9982.199999999997 -10359.752102819153 0.0
  endloop
endfacet
facet normal -1.2668352114582371e-17 -0.6874714655323272 0.7262113907663762
  outer loop
    vertex 9753.599999999999 -9917.836985359576 418.34104684067324
    vertex 9982.199999999997 -10359.752102819153 0.0
    vertex 21945.6 -9917.836985359576 418.34104684067324
  endloop
endfacet
facet normal -1.2668352114582371e-17 -0.6874714655323272 0.7262113907663762
  outer loop
    vertex 21945.6 -9917.836985359576 418.34104684067324
    vertex 9982.199999999997 -10359.752102819153 0.0
    vertex 11963.400000000001 -10359.752102819153 0.0
  endloop
endfacet
facet normal -1.2668352114582371e-17 -0.6874714655323272 0.7262113907663762
  outer loop
    vertex 21945.6 -9917.836985359576 418.34104684067324
    vertex 11963.400000000001 -10359.752102819153 0.0
    vertex 21945.6 -10793.815504445467 -410.90818271946785
  endloop
endfacet
facet normal 7.812800415925829e-17 -0.3421216917437506 0.9396556539703222
  outer loop
    vertex 21945.6 -14497.847330092975 -2320.932841182696
    vertex 9753.599999999999 -13564.752782858524 -1981.2000000000005
    vertex 9753.599999999999 -14497.847330092975 -2320.932841182696
  endloop
endfacet
facet normal 7.812800415925829e-17 -0.3421216917437506 0.9396556539703222
  outer loop
    vertex 9753.599999999999 -13564.752782858524 -1981.2000000000005
    vertex 21945.6 -14497.847330092975 -2320.932841182696
    vertex 9982.2 -13564.752782858524 -1981.2000000000005
  endloop
endfacet
facet normal 7.812800415925829e-17 -0.3421216917437506 0.9396556539703222
  outer loop
    vertex 9753.599999999999 -13564.752782858524 -1981.2000000000005
    vertex 9982.2 -13564.752782858524 -1981.2000000000005
    vertex 9982.199999999997 -13055.021239886852 -1795.6105055083008
  endloop
endfacet
facet normal 7.812800415925829e-17 -0.3421216917437506 0.9396556539703222
  outer loop
    vertex 9982.2 -13564.752782858524 -1981.2000000000005
    vertex 21945.6 -14497.847330092975 -2320.932841182696
    vertex 11963.400000000001 -13564.752782858524 -1981.2000000000005
  endloop
endfacet
facet normal 7.812800415925829e-17 -0.3421216917437506 0.9396556539703222
  outer loop
    vertex 11963.400000000001 -13564.752782858524 -1981.2000000000005
    vertex 21945.6 -14497.847330092975 -2320.932841182696
    vertex 11963.400000000001 -13055.021239886852 -1795.6105055083015
  endloop
endfacet
facet normal 7.812800415925829e-17 -0.3421216917437506 0.9396556539703222
  outer loop
    vertex 11963.400000000001 -13055.021239886852 -1795.6105055083015
    vertex 21945.6 -14497.847330092975 -2320.932841182696
    vertex 21945.6 -13055.021239886852 -1795.6105055083015
  endloop
endfacet
facet normal 7.812800415925829e-17 -0.3421216917437506 0.9396556539703222
  outer loop
    vertex 9982.199999999997 -13055.021239886852 -1795.6105055083008
    vertex 9753.599999999997 -13055.021239886852 -1795.6105055083008
    vertex 9753.599999999999 -13564.752782858524 -1981.2000000000005
  endloop
endfacet
facet normal 1.7335596005837015e-18 -0.8978795231697293 0.4402412541692335
  outer loop
    vertex 21945.6 -6932.210399265412 5330.9527252126445
    vertex 9753.6 -7439.431704990599 4296.46624805258
    vertex 21945.6 -7439.431704990599 4296.46624805258
  endloop
endfacet
facet normal 1.7335596005837015e-18 -0.8978795231697293 0.4402412541692335
  outer loop
    vertex 9753.6 -7439.431704990599 4296.46624805258
    vertex 21945.6 -6932.210399265412 5330.9527252126445
    vertex 9753.599999999999 -6932.210399265412 5330.9527252126445
  endloop
endfacet
facet normal -6.84471963887091e-17 -0.5827505669808465 0.8126510792975679
  outer loop
    vertex 9982.199999999997 -11829.943776979451 -1153.913826428174
    vertex 9753.599999999997 -10793.815504445467 -410.9081827194671
    vertex 9753.599999999997 -11829.943776979451 -1153.913826428174
  endloop
endfacet
facet normal -6.84471963887091e-17 -0.5827505669808465 0.8126510792975679
  outer loop
    vertex 9753.599999999997 -10793.815504445467 -410.9081827194671
    vertex 9982.199999999997 -11829.943776979451 -1153.913826428174
    vertex 9982.199999999997 -10793.815504445467 -410.9081827194671
  endloop
endfacet
facet normal 2.7872861243879314e-17 -0.8903585338895678 0.45526001485966183
  outer loop
    vertex 21945.6 -7439.431704990599 4296.46624805258
    vertex 9753.599999999999 -7962.805579537291 3272.8964628582007
    vertex 21945.6 -7962.805579537291 3272.8964628581994
  endloop
endfacet
facet normal 2.7872861243879314e-17 -0.8903585338895678 0.45526001485966183
  outer loop
    vertex 9753.599999999999 -7962.805579537291 3272.8964628582007
    vertex 21945.6 -7439.431704990599 4296.46624805258
    vertex 9753.6 -7439.431704990599 4296.46624805258
  endloop
endfacet
facet normal 2.547313410343899e-17 -0.8743117474038236 0.48536477864764
  outer loop
    vertex 21945.6 -5851.027746578287 7372.4142403212445
    vertex 9753.599999999995 -6412.342225436412 6361.290515561247
    vertex 21945.6 -6412.342225436412 6361.290515561246
  endloop
endfacet
facet normal 2.547313410343899e-17 -0.8743117474038236 0.48536477864764
  outer loop
    vertex 9753.599999999995 -6412.342225436412 6361.290515561247
    vertex 21945.6 -5851.027746578287 7372.4142403212445
    vertex 9753.599999999999 -5851.027746578287 7372.4142403212445
  endloop
endfacet
facet normal -0.0 -0.0 -1.0
  outer loop
    vertex 11963.400000000001 0.0 0.0
    vertex 9982.199999999997 -10359.752102819153 0.0
    vertex 9982.199999999997 0.0 0.0
  endloop
endfacet
facet normal -0.0 -0.0 -1.0
  outer loop
    vertex 9982.199999999997 -10359.752102819153 0.0
    vertex 11963.400000000001 0.0 0.0
    vertex 11963.400000000001 -10359.752102819153 0.0
  endloop
endfacet
facet normal 2.8659987266408415e-17 -0.8688893325898451 0.49500639158658705
  outer loop
    vertex 21945.6 -7962.805579537291 3272.8964628581994
    vertex 9753.599999999999 -8531.131459830807 2275.3087484066555
    vertex 21945.6 -8531.131459830807 2275.3087484066555
  endloop
endfacet
facet normal 2.8659987266408415e-17 -0.8688893325898451 0.49500639158658705
  outer loop
    vertex 9753.599999999999 -8531.131459830807 2275.3087484066555
    vertex 21945.6 -7962.805579537291 3272.8964628581994
    vertex 9753.599999999999 -7962.805579537291 3272.8964628582007
  endloop
endfacet
facet normal 4.726345158741742e-18 -0.5827505669808465 0.812651079297568
  outer loop
    vertex 21945.6 -11829.943776979451 -1153.9138264281746
    vertex 11963.400000000001 -10793.815504445467 -410.9081827194686
    vertex 11963.400000000001 -11829.943776979451 -1153.9138264281746
  endloop
endfacet
facet normal 4.726345158741742e-18 -0.5827505669808465 0.812651079297568
  outer loop
    vertex 11963.400000000001 -10793.815504445467 -410.9081827194686
    vertex 21945.6 -11829.943776979451 -1153.9138264281746
    vertex 21945.6 -10793.815504445467 -410.90818271946785
  endloop
endfacet
facet normal 1.0 -1.401341534168858e-17 -1.586495265051871e-17
  outer loop
    vertex 21945.6 0.0 -4572.000000000001
    vertex 21945.6 -20420.811733756902 -3048.0
    vertex 21945.6 -20420.811733756902 -4572.000000000001
  endloop
endfacet
facet normal 1.0 -1.401341534168858e-17 -1.586495265051871e-17
  outer loop
    vertex 21945.6 -20420.811733756902 -3048.0
    vertex 21945.6 0.0 -4572.000000000001
    vertex 21945.6 -18151.943140102685 -2962.1929672056945
  endloop
endfacet
facet normal 1.0 -1.401341534168858e-17 -1.586495265051871e-17
  outer loop
    vertex 21945.6 -18151.943140102685 -2962.1929672056945
    vertex 21945.6 0.0 -4572.000000000001
    vertex 21945.6 -16187.221484523148 -2714.8154546742103
  endloop
endfacet
facet normal 1.0 -1.401341534168858e-17 -1.586495265051871e-17
  outer loop
    vertex 21945.6 -16187.221484523148 -2714.8154546742103
    vertex 21945.6 0.0 -4572.000000000001
    vertex 21945.6 -14497.847330092975 -2320.932841182696
  endloop
endfacet
facet normal 1.0 -1.401341534168858e-17 -1.586495265051871e-17
  outer loop
    vertex 21945.6 -14497.847330092975 -2320.932841182696
    vertex 21945.6 0.0 -4572.000000000001
    vertex 21945.6 -13055.021239886852 -1795.6105055083015
  endloop
endfacet
facet normal 1.0 -1.401341534168858e-17 -1.586495265051871e-17
  outer loop
    vertex 21945.6 -13055.021239886852 -1795.6105055083015
    vertex 21945.6 0.0 -4572.000000000001
    vertex 21945.6 -11829.943776979451 -1153.9138264281746
  endloop
endfacet
facet normal 1.0 -1.401341534168858e-17 -1.586495265051871e-17
  outer loop
    vertex 21945.6 -11829.943776979451 -1153.9138264281746
    vertex 21945.6 0.0 -4572.000000000001
    vertex 21945.6 -10793.815504445467 -410.90818271946785
  endloop
endfacet
facet normal 1.0 -1.401341534168858e-17 -1.586495265051871e-17
  outer loop
    vertex 21945.6 -10793.815504445467 -410.90818271946785
    vertex 21945.6 0.0 -4572.000000000001
    vertex 21945.6 -9917.836985359576 418.34104684067324
  endloop
endfacet
facet normal 1.0 -1.401341534168858e-17 -1.586495265051871e-17
  outer loop
    vertex 21945.6 -9917.836985359576 418.34104684067324
    vertex 21945.6 0.0 -4572.000000000001
    vertex 21945.6 -9173.208782796462 1318.7684834750964
  endloop
endfacet
facet normal 1.0 -1.401341534168858e-17 -1.586495265051871e-17
  outer loop
    vertex 21945.6 -9173.208782796462 1318.7684834750964
    vertex 21945.6 0.0 -4572.000000000001
    vertex 21945.6 -8531.131459830807 2275.3087484066555
  endloop
endfacet
facet normal 1.0 -1.401341534168858e-17 -1.586495265051871e-17
  outer loop
    vertex 21945.6 -8531.131459830807 2275.3087484066555
    vertex 21945.6 0.0 -4572.000000000001
    vertex 21945.6 -7962.805579537291 3272.8964628581994
  endloop
endfacet
facet normal 1.0 -1.401341534168858e-17 -1.586495265051871e-17
  outer loop
    vertex 21945.6 -7962.805579537291 3272.8964628581994
    vertex 21945.6 0.0 -4572.000000000001
    vertex 21945.6 -7439.431704990599 4296.46624805258
  endloop
endfacet
facet normal 1.0 -1.401341534168858e-17 -1.586495265051871e-17
  outer loop
    vertex 21945.6 -7439.431704990599 4296.46624805258
    vertex 21945.6 0.0 -4572.000000000001
    vertex 21945.6 -6932.210399265412 5330.9527252126445
  endloop
endfacet
facet normal 1.0 -1.401341534168858e-17 -1.586495265051871e-17
  outer loop
    vertex 21945.6 -6932.210399265412 5330.9527252126445
    vertex 21945.6 0.0 -4572.000000000001
    vertex 21945.6 -6412.342225436412 6361.290515561246
  endloop
endfacet
facet normal 1.0 -1.401341534168858e-17 -1.586495265051871e-17
  outer loop
    vertex 21945.6 -6412.342225436412 6361.290515561246
    vertex 21945.6 0.0 -4572.000000000001
    vertex 21945.6 -5851.027746578287 7372.4142403212445
  endloop
endfacet
facet normal 1.0 -1.401341534168858e-17 -1.586495265051871e-17
  outer loop
    vertex 21945.6 -5851.027746578287 7372.4142403212445
    vertex 21945.6 0.0 -4572.000000000001
    vertex 21945.6 -5219.467525765711 8349.258520715475
  endloop
endfacet
facet normal 1.0 -1.401341534168858e-17 -1.586495265051871e-17
  outer loop
    vertex 21945.6 -5219.467525765711 8349.258520715475
    vertex 21945.6 0.0 -4572.000000000001
    vertex 21945.6 -4488.86212607337 9276.757977966798
  endloop
endfacet
facet normal 1.0 -1.401341534168858e-17 -1.586495265051871e-17
  outer loop
    vertex 21945.6 -4488.86212607337 9276.757977966798
    vertex 21945.6 0.0 -4572.000000000001
    vertex 21945.6 -3630.412110575944 10139.847233298058
  endloop
endfacet
facet normal 1.0 -1.401341534168858e-17 -1.586495265051871e-17
  outer loop
    vertex 21945.6 -3630.412110575944 10139.847233298058
    vertex 21945.6 0.0 -4572.000000000001
    vertex 21945.6 -2615.318042348121 10923.460907932114
  endloop
endfacet
facet normal 1.0 -1.401341534168858e-17 -1.586495265051871e-17
  outer loop
    vertex 21945.6 -2615.318042348121 10923.460907932114
    vertex 21945.6 0.0 -4572.000000000001
    vertex 21945.6 -1414.7804844645786 11612.53362309181
  endloop
endfacet
facet normal 1.0 -1.401341534168858e-17 -1.586495265051871e-17
  outer loop
    vertex 21945.6 -1414.7804844645786 11612.53362309181
    vertex 21945.6 0.0 -4572.000000000001
    vertex 21945.6 0.0 12192.0
  endloop
endfacet
facet normal 7.551486426725786e-18 -0.46400100096097 0.8858346748164794
  outer loop
    vertex 21945.6 -13055.021239886852 -1795.6105055083015
    vertex 11963.400000000001 -11829.943776979451 -1153.9138264281746
    vertex 11963.400000000001 -13055.021239886852 -1795.6105055083015
  endloop
endfacet
facet normal 7.551486426725786e-18 -0.46400100096097 0.8858346748164794
  outer loop
    vertex 11963.400000000001 -11829.943776979451 -1153.9138264281746
    vertex 21945.6 -13055.021239886852 -1795.6105055083015
    vertex 21945.6 -11829.943776979451 -1153.9138264281746
  endloop
endfacet
facet normal -7.934179539818198e-17 -0.46400100096097024 0.8858346748164796
  outer loop
    vertex 9982.199999999997 -13055.021239886852 -1795.6105055083008
    vertex 9753.599999999997 -11829.943776979451 -1153.913826428174
    vertex 9753.599999999997 -13055.021239886852 -1795.6105055083008
  endloop
endfacet
facet normal -7.934179539818198e-17 -0.46400100096097024 0.8858346748164796
  outer loop
    vertex 9753.599999999997 -11829.943776979451 -1153.913826428174
    vertex 9982.199999999997 -13055.021239886852 -1795.6105055083008
    vertex 9982.199999999997 -11829.943776979451 -1153.913826428174
  endloop
endfacet
facet normal 0.0 -0.49779972203248707 0.8672920135366052
  outer loop
    vertex 21945.6 -2615.318042348121 10923.460907932114
    vertex 9753.599999999999 -1414.7804844645786 11612.53362309181
    vertex 9753.599999999999 -2615.318042348121 10923.460907932114
  endloop
endfacet
facet normal 0.0 -0.49779972203248707 0.8672920135366052
  outer loop
    vertex 9753.599999999999 -1414.7804844645786 11612.53362309181
    vertex 21945.6 -2615.318042348121 10923.460907932114
    vertex 21945.6 -1414.7804844645786 11612.53362309181
  endloop
endfacet
facet normal 0.0 -0.6110679549695067 0.7915781416950477
  outer loop
    vertex 21945.6 -3630.412110575944 10139.847233298058
    vertex 9753.599999999999 -2615.318042348121 10923.460907932114
    vertex 9753.599999999999 -3630.412110575944 10139.847233298058
  endloop
endfacet
facet normal 0.0 -0.6110679549695067 0.7915781416950477
  outer loop
    vertex 9753.599999999999 -2615.318042348121 10923.460907932114
    vertex 21945.6 -3630.412110575944 10139.847233298058
    vertex 21945.6 -2615.318042348121 10923.460907932114
  endloop
endfacet
facet normal 0.0 -0.12492337201379702 0.9921663928619546
  outer loop
    vertex 21945.6 -18151.943140102685 -2962.1929672056945
    vertex 9753.599999999999 -16187.221484523148 -2714.8154546742103
    vertex 9753.599999999999 -18151.943140102685 -2962.1929672056945
  endloop
endfacet
facet normal 0.0 -0.12492337201379702 0.9921663928619546
  outer loop
    vertex 9753.599999999999 -16187.221484523148 -2714.8154546742103
    vertex 21945.6 -18151.943140102685 -2962.1929672056945
    vertex 21945.6 -16187.221484523148 -2714.8154546742103
  endloop
endfacet
facet normal 0.0 -5.321965177607403e-17 1.0
  outer loop
    vertex 11963.400000000001 -13564.752782858524 -1981.2000000000005
    vertex 9982.2 0.0 -1981.1999999999998
    vertex 9982.2 -13564.752782858524 -1981.2000000000005
  endloop
endfacet
facet normal 0.0 -5.321965177607403e-17 1.0
  outer loop
    vertex 9982.2 0.0 -1981.1999999999998
    vertex 11963.400000000001 -13564.752782858524 -1981.2000000000005
    vertex 11963.400000000001 0.0 -1981.1999999999998
  endloop
endfacet
facet normal 0.0 -1.0 0.0
  outer loop
    vertex 21945.6 -20420.811733756902 -3048.0
    vertex 9753.599999999999 -20420.811733756902 -4572.0
    vertex 21945.6 -20420.811733756902 -4572.000000000001
  endloop
endfacet
facet normal 0.0 -1.0 0.0
  outer loop
    vertex 9753.599999999999 -20420.811733756902 -4572.0
    vertex 21945.6 -20420.811733756902 -3048.0
    vertex 9753.599999999999 -20420.811733756902 -3048.0
  endloop
endfacet
facet normal 0.0 1.0 0.0
  outer loop
    vertex 9753.599999999999 0.0 12192.0
    vertex 9982.2 0.0 -1981.1999999999998
    vertex 9753.599999999999 0.0 -4572.0
  endloop
endfacet
facet normal 0.0 1.0 0.0
  outer loop
    vertex 9982.2 0.0 -1981.1999999999998
    vertex 9753.599999999999 0.0 12192.0
    vertex 9982.199999999997 0.0 0.0
  endloop
endfacet
facet normal 0.0 1.0 0.0
  outer loop
    vertex 9982.199999999997 0.0 0.0
    vertex 9753.599999999999 0.0 12192.0
    vertex 11963.400000000001 0.0 0.0
  endloop
endfacet
facet normal 0.0 1.0 0.0
  outer loop
    vertex 21945.6 0.0 -4572.000000000001
    vertex 11963.400000000001 0.0 -1981.1999999999998
    vertex 21945.6 0.0 12192.0
  endloop
endfacet
facet normal 0.0 1.0 0.0
  outer loop
    vertex 11963.400000000001 0.0 -1981.1999999999998
    vertex 21945.6 0.0 -4572.000000000001
    vertex 9753.599999999999 0.0 -4572.0
  endloop
endfacet
facet normal 0.0 1.0 0.0
  outer loop
    vertex 11963.400000000001 0.0 -1981.1999999999998
    vertex 9753.599999999999 0.0 -4572.0
    vertex 9982.2 0.0 -1981.1999999999998
  endloop
endfacet
facet normal 0.0 1.0 0.0
  outer loop
    vertex 21945.6 0.0 12192.0
    vertex 11963.400000000001 0.0 -1981.1999999999998
    vertex 11963.400000000001 0.0 0.0
  endloop
endfacet
facet normal 0.0 1.0 0.0
  outer loop
    vertex 21945.6 0.0 12192.0
    vertex 11963.400000000001 0.0 0.0
    vertex 9753.599999999999 0.0 12192.0
  endloop
endfacet
facet normal -1.0 0.0 0.0
  outer loop
    vertex 11963.400000000001 -13055.021239886852 -1795.6105055083015
    vertex 11963.400000000001 0.0 -1981.1999999999998
    vertex 11963.400000000001 -13564.752782858524 -1981.2000000000005
  endloop
endfacet
facet normal -1.0 0.0 0.0
  outer loop
    vertex 11963.400000000001 0.0 -1981.1999999999998
    vertex 11963.400000000001 -13055.021239886852 -1795.6105055083015
    vertex 11963.400000000001 -11829.943776979451 -1153.9138264281746
  endloop
endfacet
facet normal -1.0 0.0 0.0
  outer loop
    vertex 11963.400000000001 0.0 -1981.1999999999998
    vertex 11963.400000000001 -11829.943776979451 -1153.9138264281746
    vertex 11963.400000000001 -10793.815504445467 -410.9081827194686
  endloop
endfacet
facet normal -1.0 0.0 0.0
  outer loop
    vertex 11963.400000000001 0.0 -1981.1999999999998
    vertex 11963.400000000001 -10793.815504445467 -410.9081827194686
    vertex 11963.400000000001 -10359.752102819153 0.0
  endloop
endfacet
facet normal -1.0 0.0 0.0
  outer loop
    vertex 11963.400000000001 0.0 -1981.1999999999998
    vertex 11963.400000000001 -10359.752102819153 0.0
    vertex 11963.400000000001 0.0 0.0
  endloop
endfacet
facet normal 0.0 -0.03779228726245433 0.9992856163397292
  outer loop
    vertex 21945.6 -20420.811733756902 -3048.0
    vertex 9753.599999999999 -18151.943140102685 -2962.1929672056945
    vertex 9753.599999999999 -20420.811733756902 -3048.0
  endloop
endfacet
facet normal 0.0 -0.03779228726245433 0.9992856163397292
  outer loop
    vertex 9753.599999999999 -18151.943140102685 -2962.1929672056945
    vertex 21945.6 -20420.811733756902 -3048.0
    vertex 21945.6 -18151.943140102685 -2962.1929672056945
  endloop
endfacet
facet normal 0.0 -0.8397722213210932 0.5429388697610784
  outer loop
    vertex 21945.6 -5219.467525765711 8349.258520715475
    vertex 9753.599999999999 -5851.027746578287 7372.4142403212445
    vertex 21945.6 -5851.027746578287 7372.4142403212445
  endloop
endfacet
facet normal 0.0 -0.8397722213210932 0.5429388697610784
  outer loop
    vertex 9753.599999999999 -5851.027746578287 7372.4142403212445
    vertex 21945.6 -5219.467525765711 8349.258520715475
    vertex 9753.599999999999 -5219.467525765711 8349.258520715475
  endloop
endfacet
facet normal 1.9782144562159523e-19 -0.7855541465369075 0.6187929240534924
  outer loop
    vertex 21945.6 -4488.86212607337 9276.757977966798
    vertex 9753.599999999999 -5219.467525765711 8349.258520715475
    vertex 21945.6 -5219.467525765711 8349.258520715475
  endloop
endfacet
facet normal 1.9782144562159523e-19 -0.7855541465369075 0.6187929240534924
  outer loop
    vertex 9753.599999999999 -5219.467525765711 8349.258520715475
    vertex 21945.6 -4488.86212607337 9276.757977966798
    vertex 9753.600000000004 -4488.86212607337 9276.757977966798
  endloop
endfacet
facet normal 1.0 2.7627041033219844e-17 1.0403834113885747e-16
  outer loop
    vertex 9982.2 0.0 -1981.1999999999998
    vertex 9982.199999999997 -13055.021239886852 -1795.6105055083008
    vertex 9982.2 -13564.752782858524 -1981.2000000000005
  endloop
endfacet
facet normal 1.0 2.7627041033219844e-17 1.0403834113885747e-16
  outer loop
    vertex 9982.199999999997 -13055.021239886852 -1795.6105055083008
    vertex 9982.2 0.0 -1981.1999999999998
    vertex 9982.199999999997 -11829.943776979451 -1153.913826428174
  endloop
endfacet
facet normal 1.0 2.7627041033219844e-17 1.0403834113885747e-16
  outer loop
    vertex 9982.199999999997 -11829.943776979451 -1153.913826428174
    vertex 9982.2 0.0 -1981.1999999999998
    vertex 9982.199999999997 -10793.815504445467 -410.9081827194671
  endloop
endfacet
facet normal 1.0 2.7627041033219844e-17 1.0403834113885747e-16
  outer loop
    vertex 9982.199999999997 -10793.815504445467 -410.9081827194671
    vertex 9982.2 0.0 -1981.1999999999998
    vertex 9982.199999999997 -10359.752102819153 0.0
  endloop
endfacet
facet normal 1.0 2.7627041033219844e-17 1.0403834113885747e-16
  outer loop
    vertex 9982.199999999997 -10359.752102819153 0.0
    vertex 9982.2 0.0 -1981.1999999999998
    vertex 9982.199999999997 0.0 0.0
  endloop
endfacet
facet normal 2.5905437911634502e-17 -0.8927924801596074 0.4504681868572489
  outer loop
    vertex 21945.6 -6412.342225436412 6361.290515561246
    vertex 9753.599999999999 -6932.210399265412 5330.9527252126445
    vertex 21945.6 -6932.210399265412 5330.9527252126445
  endloop
endfacet
facet normal 2.5905437911634502e-17 -0.8927924801596074 0.4504681868572489
  outer loop
    vertex 9753.599999999999 -6932.210399265412 5330.9527252126445
    vertex 21945.6 -6412.342225436412 6361.290515561246
    vertex 9753.599999999995 -6412.342225436412 6361.290515561247
  endloop
endfacet
facet normal 0.0 -0.37902085389187185 0.9253881306322643
  outer loop
    vertex 21945.6 -1414.7804844645786 11612.53362309181
    vertex 9753.599999999999 0.0 12192.0
    vertex 9753.599999999999 -1414.7804844645786 11612.53362309181
  endloop
endfacet
facet normal 0.0 -0.37902085389187185 0.9253881306322643
  outer loop
    vertex 9753.599999999999 0.0 12192.0
    vertex 21945.6 -1414.7804844645786 11612.53362309181
    vertex 21945.6 0.0 12192.0
  endloop
endfacet
facet normal -1.515881979722373e-18 -0.7090097328171817 0.7051986945326181
  outer loop
    vertex 21945.6 -3630.412110575944 10139.847233298058
    vertex 9753.600000000004 -4488.86212607337 9276.757977966798
    vertex 21945.6 -4488.86212607337 9276.757977966798
  endloop
endfacet
facet normal -1.515881979722373e-18 -0.7090097328171817 0.7051986945326181
  outer loop
    vertex 9753.600000000004 -4488.86212607337 9276.757977966798
    vertex 21945.6 -3630.412110575944 10139.847233298058
    vertex 9753.599999999999 -3630.412110575944 10139.847233298058
  endloop
endfacet
endsolid delaware-dam
