solid Untitled-5afc1bae
facet normal -0.07687349608712078 0.6038881875381386 0.7933533402912257
  outer loop
    vertex 6.518075231931411 5.141366447666034 4.43301270189222
    vertex -0.5000000000000002 4.35237159948539 4.353553390593274
    vertex -0.5000000000000002 4.247982556385786 4.43301270189222
  endloop
endfacet
facet normal -0.07687349608712078 0.6038881875381386 0.7933533402912257
  outer loop
    vertex -0.5000000000000002 4.35237159948539 4.353553390593274
    vertex 6.518075231931411 5.141366447666034 4.43301270189222
    vertex 6.637691081468159 5.260982297202782 4.353553390593274
  endloop
endfacet
facet normal -0.12627852624023259 0.9919948254958767 0.0
  outer loop
    vertex -0.5000000000000004 4.5 4.0
    vertex 6.806853438157805 5.43014465389243 -0.5
    vertex -0.5 4.5 -0.5
  endloop
endfacet
facet normal -0.12627852624023259 0.9919948254958767 0.0
  outer loop
    vertex 6.806853438157805 5.43014465389243 -0.5
    vertex -0.5000000000000004 4.5 4.0
    vertex 6.806853438157805 5.43014465389243 4.0
  endloop
endfacet
facet normal 0.7071067811865501 0.707106781186545 2.4891138039307887e-16
  outer loop
    vertex 8.530426217300013 3.706571874750213 -0.5
    vertex 6.806853438157805 5.43014465389243 4.5
    vertex 8.53042621730001 3.706571874750211 2.549999999999997
  endloop
endfacet
facet normal 0.7071067811865501 0.707106781186545 2.4891138039307887e-16
  outer loop
    vertex 6.806853438157805 5.43014465389243 4.5
    vertex 8.530426217300013 3.706571874750213 -0.5
    vertex 6.806853438157805 5.43014465389243 -0.5
  endloop
endfacet
facet normal 0.7071067811865501 0.707106781186545 2.4891138039307887e-16
  outer loop
    vertex 6.806853438157805 5.43014465389243 4.5
    vertex 6.806853438157805 5.43014465389243 -0.5
    vertex 6.806853438157805 5.43014465389243 4.0
  endloop
endfacet
facet normal 0.0 0.0 -1.0
  outer loop
    vertex 6.806853438157805 5.43014465389243 -0.5
    vertex 7.867202414224799 2.5578345510348894 -0.5
    vertex 7.779887344090536 1.8946107479596792 -0.5
  endloop
endfacet
facet normal 0.0 0.0 -1.0
  outer loop
    vertex 7.867202414224799 2.5578345510348894 -0.5
    vertex 6.806853438157805 5.43014465389243 -0.5
    vertex 8.123197246892913 3.175860747959679 -0.5
  endloop
endfacet
facet normal 0.0 0.0 -1.0
  outer loop
    vertex 8.123197246892913 3.175860747959679 -0.5
    vertex 6.806853438157805 5.43014465389243 -0.5
    vertex 8.530426217300013 3.706571874750213 -0.5
  endloop
endfacet
facet normal 0.0 0.0 -1.0
  outer loop
    vertex 6.806853438157805 5.43014465389243 -0.5
    vertex -0.5 -0.5 -0.5
    vertex -0.5 4.5 -0.5
  endloop
endfacet
facet normal 0.0 0.0 -1.0
  outer loop
    vertex -0.5 -0.5 -0.5
    vertex 6.806853438157805 5.43014465389243 -0.5
    vertex 0.28745982733068254 0.0 -0.5
  endloop
endfacet
facet normal 0.0 0.0 -1.0
  outer loop
    vertex 0.28745982733068254 0.0 -0.5
    vertex 6.806853438157805 5.43014465389243 -0.5
    vertex 3.9999999999999996 1.165930280184774 -0.5
  endloop
endfacet
facet normal 0.0 0.0 -1.0
  outer loop
    vertex 3.9999999999999996 1.165930280184774 -0.5
    vertex 6.806853438157805 5.43014465389243 -0.5
    vertex 6.806853438157804 -1.640923157973046 -0.5
  endloop
endfacet
facet normal 0.0 0.0 -1.0
  outer loop
    vertex 6.806853438157804 -1.640923157973046 -0.5
    vertex 6.806853438157805 5.43014465389243 -0.5
    vertex 7.867202414224799 1.2313869448844716 -0.5
  endloop
endfacet
facet normal 0.0 0.0 -1.0
  outer loop
    vertex 6.806853438157804 -1.640923157973046 -0.5
    vertex 7.867202414224799 1.2313869448844716 -0.5
    vertex 8.12319724689291 0.6133607479596801 -0.5
  endloop
endfacet
facet normal 0.0 0.0 -1.0
  outer loop
    vertex 6.806853438157804 -1.640923157973046 -0.5
    vertex 8.12319724689291 0.6133607479596801 -0.5
    vertex 8.530426217300008 0.0826496211691552 -0.5
  endloop
endfacet
facet normal 0.0 0.0 -1.0
  outer loop
    vertex 7.867202414224799 1.2313869448844716 -0.5
    vertex 6.806853438157805 5.43014465389243 -0.5
    vertex 7.779887344090536 1.8946107479596792 -0.5
  endloop
endfacet
facet normal 0.0 0.0 -1.0
  outer loop
    vertex 3.9999999999999996 0.0 -0.5
    vertex 0.28745982733068254 0.0 -0.5
    vertex 3.9999999999999996 1.165930280184774 -0.5
  endloop
endfacet
facet normal 0.9914448613738107 0.13052619222005069 5.016706489861426e-16
  outer loop
    vertex 7.779887344090536 1.8946107479596792 -0.5
    vertex 7.867202414224796 1.2313869448844716 1.5249999999999986
    vertex 7.867202414224799 1.2313869448844716 -0.5
  endloop
endfacet
facet normal 0.9914448613738107 0.13052619222005069 5.016706489861426e-16
  outer loop
    vertex 7.867202414224796 1.2313869448844716 1.5249999999999986
    vertex 7.779887344090536 1.8946107479596792 -0.5
    vertex 7.779887344090536 1.89461074795968 1.9495689014324191
  endloop
endfacet
facet normal 0.4417261042993858 -0.4417261042993864 0.7808688094430306
  outer loop
    vertex 3.9999999999999996 0.0 3.0160423938615524
    vertex 3.7132612704666594 1.4526690097181092 4.000000000000001
    vertex 2.2605922607485516 4.440892098500626e-16 4.0
  endloop
endfacet
facet normal 0.4417261042993858 -0.4417261042993864 0.7808688094430306
  outer loop
    vertex 3.7132612704666594 1.4526690097181092 4.000000000000001
    vertex 3.9999999999999996 0.0 3.0160423938615524
    vertex 3.999999999999996 1.1659302801847722 3.67559215986906
  endloop
endfacet
facet normal 0.4417261042993858 -0.4417261042993864 0.7808688094430306
  outer loop
    vertex 3.7132612704666594 1.4526690097181092 4.000000000000001
    vertex 6.229297025705016 4.852588241439637 4.5
    vertex 3.2713195322250748 1.894610747959693 4.5
  endloop
endfacet
facet normal 0.4417261042993858 -0.4417261042993864 0.7808688094430306
  outer loop
    vertex 6.229297025705016 4.852588241439637 4.5
    vertex 3.7132612704666594 1.4526690097181092 4.000000000000001
    vertex 3.999999999999996 1.1659302801847722 3.67559215986906
  endloop
endfacet
facet normal 0.4417261042993858 -0.4417261042993864 0.7808688094430306
  outer loop
    vertex 6.229297025705016 4.852588241439637 4.5
    vertex 3.999999999999996 1.1659302801847722 3.67559215986906
    vertex 6.806853438157805 -1.6409231579730443 0.5
  endloop
endfacet
facet normal 0.4417261042993858 -0.4417261042993864 0.7808688094430306
  outer loop
    vertex 6.229297025705016 4.852588241439637 4.5
    vertex 6.806853438157805 -1.6409231579730443 0.5
    vertex 6.806853438157805 5.43014465389243 4.5
  endloop
endfacet
facet normal 0.4417261042993858 -0.4417261042993864 0.7808688094430306
  outer loop
    vertex 6.806853438157805 5.43014465389243 4.5
    vertex 6.806853438157805 -1.6409231579730443 0.5
    vertex 7.867202414224796 1.2313869448844716 1.5249999999999986
  endloop
endfacet
facet normal 0.4417261042993858 -0.4417261042993864 0.7808688094430306
  outer loop
    vertex 7.867202414224796 1.2313869448844716 1.5249999999999986
    vertex 6.806853438157805 -1.6409231579730443 0.5
    vertex 8.123197246892913 0.6133607479596814 1.0305790424601662
  endloop
endfacet
facet normal 0.4417261042993858 -0.4417261042993864 0.7808688094430306
  outer loop
    vertex 8.123197246892913 0.6133607479596814 1.0305790424601662
    vertex 6.806853438157805 -1.6409231579730443 0.5
    vertex 8.53042621730001 0.08264962116915453 0.5
  endloop
endfacet
facet normal 0.4417261042993858 -0.4417261042993864 0.7808688094430306
  outer loop
    vertex 6.806853438157805 5.43014465389243 4.5
    vertex 7.867202414224796 1.2313869448844716 1.5249999999999986
    vertex 7.779887344090536 1.89461074795968 1.9495689014324191
  endloop
endfacet
facet normal 0.4417261042993858 -0.4417261042993864 0.7808688094430306
  outer loop
    vertex 6.806853438157805 5.43014465389243 4.5
    vertex 8.123197246892913 3.17586074795968 2.4801479438925873
    vertex 8.53042621730001 3.706571874750211 2.549999999999997
  endloop
endfacet
facet normal 0.4417261042993858 -0.4417261042993864 0.7808688094430306
  outer loop
    vertex 8.123197246892913 3.17586074795968 2.4801479438925873
    vertex 6.806853438157805 5.43014465389243 4.5
    vertex 7.867202414224799 2.5578345510348903 2.2753520777580967
  endloop
endfacet
facet normal 0.4417261042993858 -0.4417261042993864 0.7808688094430306
  outer loop
    vertex 7.867202414224799 2.5578345510348903 2.2753520777580967
    vertex 6.806853438157805 5.43014465389243 4.5
    vertex 7.779887344090536 1.89461074795968 1.9495689014324191
  endloop
endfacet
facet normal -0.3314135740355902 -0.9238795325112875 0.19134171618254386
  outer loop
    vertex 0.7427640810783924 1.1369876281378284 4.5
    vertex -0.5 1.2368880506424587 2.829831379545536
    vertex -0.5 1.1369876281378288 2.347469469750577
  endloop
endfacet
facet normal -0.3314135740355902 -0.9238795325112875 0.19134171618254386
  outer loop
    vertex -0.5 1.2368880506424587 2.829831379545536
    vertex 0.7427640810783924 1.1369876281378284 4.5
    vertex 0.46427230261145147 1.2368880506424582 4.5
  endloop
endfacet
facet normal -1.0630672959319814e-17 -1.0 5.516601491440753e-17
  outer loop
    vertex 3.9999999999999996 0.0 3.0160423938615524
    vertex 0.28745982733068254 0.0 -0.5
    vertex 3.9999999999999996 0.0 -0.5
  endloop
endfacet
facet normal -1.0630672959319814e-17 -1.0 5.516601491440753e-17
  outer loop
    vertex 0.28745982733068254 0.0 -0.5
    vertex 3.9999999999999996 0.0 3.0160423938615524
    vertex 0.2874598273306834 2.220446049250313e-16 2.7895979861006768
  endloop
endfacet
facet normal -1.0630672959319814e-17 -1.0 5.516601491440753e-17
  outer loop
    vertex 0.2874598273306834 2.220446049250313e-16 2.7895979861006768
    vertex 3.9999999999999996 0.0 3.0160423938615524
    vertex 0.9862857558831235 2.220446049250313e-16 4.000000000000001
  endloop
endfacet
facet normal -1.0630672959319814e-17 -1.0 5.516601491440753e-17
  outer loop
    vertex 0.9862857558831235 2.220446049250313e-16 4.000000000000001
    vertex 3.9999999999999996 0.0 3.0160423938615524
    vertex 2.2605922607485516 4.440892098500626e-16 4.0
  endloop
endfacet
facet normal -1.0 -5.424884305107309e-17 -2.180378170221918e-17
  outer loop
    vertex -0.5000000000000002 3.9959651127715707 4.5
    vertex -0.5 1.1369876281378293 4.347469469750577
    vertex -0.5000000000000001 1.078467231962268 4.5
  endloop
endfacet
facet normal -1.0 -5.424884305107309e-17 -2.180378170221918e-17
  outer loop
    vertex -0.5 1.1369876281378293 4.347469469750577
    vertex -0.5000000000000002 3.9959651127715707 4.5
    vertex -0.5 1.2368880506424595 3.8651075599556197
  endloop
endfacet
facet normal -1.0 -5.424884305107309e-17 -2.180378170221918e-17
  outer loop
    vertex -0.5 1.2368880506424595 3.8651075599556197
    vertex -0.5000000000000002 3.9959651127715707 4.5
    vertex -0.5 1.270962224353391 3.3474694697505782
  endloop
endfacet
facet normal -1.0 -5.424884305107309e-17 -2.180378170221918e-17
  outer loop
    vertex -0.5 -0.43614455683315656 1.9332559073774833
    vertex -0.5 -0.5 -0.5
    vertex -0.4999999999999997 -0.5000000000000004 2.0996919748355833
  endloop
endfacet
facet normal -1.0 -5.424884305107309e-17 -2.180378170221918e-17
  outer loop
    vertex -0.5 -0.5 -0.5
    vertex -0.5 -0.43614455683315656 1.9332559073774833
    vertex -0.5 -0.2290377756466091 1.6154186621817006
  endloop
endfacet
facet normal -1.0 -5.424884305107309e-17 -2.180378170221918e-17
  outer loop
    vertex -0.5 -0.5 -0.5
    vertex -0.5 -0.2290377756466091 1.6154186621817006
    vertex -0.5 0.012143179250870162 1.4156178171724418
  endloop
endfacet
facet normal -1.0 -5.424884305107309e-17 -2.180378170221918e-17
  outer loop
    vertex -0.5 -0.5 -0.5
    vertex -0.5 0.012143179250870162 1.4156178171724418
    vertex -0.5 4.5 -0.5
  endloop
endfacet
facet normal -1.0 -5.424884305107309e-17 -2.180378170221918e-17
  outer loop
    vertex -0.5 4.5 -0.5
    vertex -0.5 0.012143179250870162 1.4156178171724418
    vertex -0.5 0.2709622243533909 1.3474694697505782
  endloop
endfacet
facet normal -1.0 -5.424884305107309e-17 -2.180378170221918e-17
  outer loop
    vertex -0.5 4.5 -0.5
    vertex -0.5 0.2709622243533909 1.3474694697505782
    vertex -0.5 0.5297812694559116 1.4156178171724403
  endloop
endfacet
facet normal -1.0 -5.424884305107309e-17 -2.180378170221918e-17
  outer loop
    vertex -0.5 4.5 -0.5
    vertex -0.5 0.5297812694559116 1.4156178171724403
    vertex -0.5 0.7709622243533909 1.6154186621816997
  endloop
endfacet
facet normal -1.0 -5.424884305107309e-17 -2.180378170221918e-17
  outer loop
    vertex -0.5 4.5 -0.5
    vertex -0.5 0.7709622243533909 1.6154186621816997
    vertex -0.5 0.978069005539937 1.9332559073774815
  endloop
endfacet
facet normal -1.0 -5.424884305107309e-17 -2.180378170221918e-17
  outer loop
    vertex -0.5 4.5 -0.5
    vertex -0.5 0.978069005539937 1.9332559073774815
    vertex -0.5 1.1369876281378288 2.347469469750577
  endloop
endfacet
facet normal -1.0 -5.424884305107309e-17 -2.180378170221918e-17
  outer loop
    vertex -0.5 4.5 -0.5
    vertex -0.5 1.1369876281378288 2.347469469750577
    vertex -0.5 1.2368880506424587 2.829831379545536
  endloop
endfacet
facet normal -1.0 -5.424884305107309e-17 -2.180378170221918e-17
  outer loop
    vertex -0.5 4.5 -0.5
    vertex -0.5 1.2368880506424587 2.829831379545536
    vertex -0.5 1.270962224353391 3.3474694697505782
  endloop
endfacet
facet normal -1.0 -5.424884305107309e-17 -2.180378170221918e-17
  outer loop
    vertex -0.5 4.5 -0.5
    vertex -0.5 1.270962224353391 3.3474694697505782
    vertex -0.5000000000000002 3.9959651127715707 4.5
  endloop
endfacet
facet normal -1.0 -5.424884305107309e-17 -2.180378170221918e-17
  outer loop
    vertex -0.5 4.5 -0.5
    vertex -0.5000000000000002 3.9959651127715707 4.5
    vertex -0.5000000000000002 4.12641894098239 4.482962913144534
  endloop
endfacet
facet normal -1.0 -5.424884305107309e-17 -2.180378170221918e-17
  outer loop
    vertex -0.5 4.5 -0.5
    vertex -0.5000000000000002 4.12641894098239 4.482962913144534
    vertex -0.5000000000000002 4.247982556385786 4.43301270189222
  endloop
endfacet
facet normal -1.0 -5.424884305107309e-17 -2.180378170221918e-17
  outer loop
    vertex -0.5 4.5 -0.5
    vertex -0.5000000000000002 4.247982556385786 4.43301270189222
    vertex -0.5000000000000002 4.35237159948539 4.353553390593274
  endloop
endfacet
facet normal -1.0 -5.424884305107309e-17 -2.180378170221918e-17
  outer loop
    vertex -0.5 4.5 -0.5
    vertex -0.5000000000000002 4.35237159948539 4.353553390593274
    vertex -0.5000000000000002 4.432472129505015 4.25
  endloop
endfacet
facet normal -1.0 -5.424884305107309e-17 -2.180378170221918e-17
  outer loop
    vertex -0.5 4.5 -0.5
    vertex -0.5000000000000002 4.432472129505015 4.25
    vertex -0.5000000000000003 4.482825427696208 4.12940952255126
  endloop
endfacet
facet normal -1.0 -5.424884305107309e-17 -2.180378170221918e-17
  outer loop
    vertex -0.5 4.5 -0.5
    vertex -0.5000000000000003 4.482825427696208 4.12940952255126
    vertex -0.5000000000000004 4.5 4.0
  endloop
endfacet
facet normal 1.0 1.3827429490326596e-15 4.978395077141525e-16
  outer loop
    vertex 3.9999999999999996 1.165930280184774 -0.5
    vertex 3.9999999999999996 0.0 3.0160423938615524
    vertex 3.9999999999999996 0.0 -0.5
  endloop
endfacet
facet normal 1.0 1.3827429490326596e-15 4.978395077141525e-16
  outer loop
    vertex 3.9999999999999996 0.0 3.0160423938615524
    vertex 3.9999999999999996 1.165930280184774 -0.5
    vertex 3.999999999999996 1.1659302801847722 3.67559215986906
  endloop
endfacet
facet normal -3.397659501834236e-17 7.721373965117592e-17 1.0
  outer loop
    vertex 0.7427640810783924 1.1369876281378284 4.5
    vertex 0.8904548252803264 2.637151295747672 4.5
    vertex 0.8841729591496048 2.8981280870142117 4.5
  endloop
endfacet
facet normal -3.397659501834236e-17 7.721373965117592e-17 1.0
  outer loop
    vertex 0.8904548252803264 2.637151295747672 4.5
    vertex 0.7427640810783924 1.1369876281378284 4.5
    vertex 0.9819103928164925 0.978069005539937 4.5
  endloop
endfacet
facet normal -3.397659501834236e-17 7.721373965117592e-17 1.0
  outer loop
    vertex 0.8904548252803264 2.637151295747672 4.5
    vertex 0.9819103928164925 0.978069005539937 4.5
    vertex 0.9640684059228064 2.3866929395946856 4.5
  endloop
endfacet
facet normal -3.397659501834236e-17 7.721373965117592e-17 1.0
  outer loop
    vertex 0.9640684059228064 2.3866929395946856 4.5
    vertex 0.9819103928164925 0.978069005539937 4.5
    vertex 1.0999970572084543 2.1638213416250736 4.5
  endloop
endfacet
facet normal -3.397659501834236e-17 7.721373965117592e-17 1.0
  outer loop
    vertex 1.0999970572084543 2.1638213416250736 4.5
    vertex 0.9819103928164925 0.978069005539937 4.5
    vertex 1.165413811888766 0.7709622243533905 4.5
  endloop
endfacet
facet normal -3.397659501834236e-17 7.721373965117592e-17 1.0
  outer loop
    vertex 1.0999970572084543 2.1638213416250736 4.5
    vertex 1.165413811888766 0.7709622243533905 4.5
    vertex 1.2889774661848707 1.9837248329277362 4.5
  endloop
endfacet
facet normal -3.397659501834236e-17 7.721373965117592e-17 1.0
  outer loop
    vertex 1.2889774661848707 1.9837248329277362 4.5
    vertex 1.165413811888766 0.7709622243533905 4.5
    vertex 1.2437426302765124 0.6071946591786292 4.500000000000001
  endloop
endfacet
facet normal -3.397659501834236e-17 7.721373965117592e-17 1.0
  outer loop
    vertex 1.2889774661848707 1.9837248329277362 4.5
    vertex 1.2437426302765124 0.6071946591786292 4.500000000000001
    vertex 1.5181309302852037 1.858676692946844 4.5
  endloop
endfacet
facet normal -3.397659501834236e-17 7.721373965117592e-17 1.0
  outer loop
    vertex 1.5181309302852037 1.858676692946844 4.5
    vertex 1.2437426302765124 0.6071946591786292 4.500000000000001
    vertex 1.7718410196250205 1.797198745770273 4.5
  endloop
endfacet
facet normal -3.397659501834236e-17 7.721373965117592e-17 1.0
  outer loop
    vertex 1.7718410196250205 1.797198745770273 4.5
    vertex 1.2437426302765124 0.6071946591786292 4.500000000000001
    vertex 2.032817810891561 1.8034806119009947 4.5
  endloop
endfacet
facet normal -3.397659501834236e-17 7.721373965117592e-17 1.0
  outer loop
    vertex 2.032817810891561 1.8034806119009947 4.5
    vertex 1.2437426302765124 0.6071946591786292 4.500000000000001
    vertex 3.2713195322250748 1.894610747959693 4.5
  endloop
endfacet
facet normal -3.397659501834236e-17 7.721373965117592e-17 1.0
  outer loop
    vertex 2.032817810891561 1.8034806119009947 4.5
    vertex 3.2713195322250748 1.894610747959693 4.5
    vertex 2.283276167044548 1.877094192543475 4.5
  endloop
endfacet
facet normal -3.397659501834236e-17 7.721373965117592e-17 1.0
  outer loop
    vertex 2.283276167044548 1.877094192543475 4.5
    vertex 3.2713195322250748 1.894610747959693 4.5
    vertex 2.506147765014159 2.013022843829123 4.5
  endloop
endfacet
facet normal -3.397659501834236e-17 7.721373965117592e-17 1.0
  outer loop
    vertex 2.506147765014159 2.013022843829123 4.5
    vertex 3.2713195322250748 1.894610747959693 4.5
    vertex 2.6862442737114964 2.202003252805539 4.5
  endloop
endfacet
facet normal -3.397659501834236e-17 7.721373965117592e-17 1.0
  outer loop
    vertex 2.6862442737114964 2.202003252805539 4.5
    vertex 3.2713195322250748 1.894610747959693 4.5
    vertex 2.8112924136923887 2.431156716905872 4.5
  endloop
endfacet
facet normal -3.397659501834236e-17 7.721373965117592e-17 1.0
  outer loop
    vertex 2.8112924136923887 2.431156716905872 4.5
    vertex 3.2713195322250748 1.894610747959693 4.5
    vertex 2.8727703608689596 2.6848668062456893 4.5
  endloop
endfacet
facet normal -3.397659501834236e-17 7.721373965117592e-17 1.0
  outer loop
    vertex -0.5000000000000002 3.9959651127715707 4.5
    vertex 1.7241255091270036 3.7795142813589058 4.5
    vertex 6.229297025705016 4.852588241439637 4.5
  endloop
endfacet
facet normal -3.397659501834236e-17 7.721373965117592e-17 1.0
  outer loop
    vertex 1.7241255091270036 3.7795142813589058 4.5
    vertex -0.5000000000000002 3.9959651127715707 4.5
    vertex 1.4736671529740166 3.705900700716426 4.5
  endloop
endfacet
facet normal -3.397659501834236e-17 7.721373965117592e-17 1.0
  outer loop
    vertex 1.4736671529740166 3.705900700716426 4.5
    vertex -0.5000000000000002 3.9959651127715707 4.5
    vertex 1.2507955550044052 3.5699720494307785 4.5
  endloop
endfacet
facet normal -3.397659501834236e-17 7.721373965117592e-17 1.0
  outer loop
    vertex 1.2507955550044052 3.5699720494307785 4.5
    vertex -0.5000000000000002 3.9959651127715707 4.5
    vertex 1.0706990463070678 3.3809916404543623 4.5
  endloop
endfacet
facet normal -3.397659501834236e-17 7.721373965117592e-17 1.0
  outer loop
    vertex 1.0706990463070678 3.3809916404543623 4.5
    vertex -0.5000000000000002 3.9959651127715707 4.5
    vertex -0.5000000000000001 1.078467231962268 4.5
  endloop
endfacet
facet normal -3.397659501834236e-17 7.721373965117592e-17 1.0
  outer loop
    vertex 1.0706990463070678 3.3809916404543623 4.5
    vertex -0.5000000000000001 1.078467231962268 4.5
    vertex -0.4119364573008587 1.1369876281378302 4.5
  endloop
endfacet
facet normal -3.397659501834236e-17 7.721373965117592e-17 1.0
  outer loop
    vertex 1.0706990463070678 3.3809916404543623 4.5
    vertex -0.4119364573008587 1.1369876281378302 4.5
    vertex -0.1334446788339177 1.2368880506424595 4.5
  endloop
endfacet
facet normal -3.397659501834236e-17 7.721373965117592e-17 1.0
  outer loop
    vertex 1.0706990463070678 3.3809916404543623 4.5
    vertex -0.1334446788339177 1.2368880506424595 4.5
    vertex 0.945650906326176 3.151838176354029 4.5
  endloop
endfacet
facet normal -3.397659501834236e-17 7.721373965117592e-17 1.0
  outer loop
    vertex 0.945650906326176 3.151838176354029 4.5
    vertex -0.1334446788339177 1.2368880506424595 4.5
    vertex 0.16541381188876614 1.270962224353391 4.5
  endloop
endfacet
facet normal -3.397659501834236e-17 7.721373965117592e-17 1.0
  outer loop
    vertex 0.945650906326176 3.151838176354029 4.5
    vertex 0.16541381188876614 1.270962224353391 4.5
    vertex 0.46427230261145147 1.2368880506424582 4.5
  endloop
endfacet
facet normal -3.397659501834236e-17 7.721373965117592e-17 1.0
  outer loop
    vertex 0.945650906326176 3.151838176354029 4.5
    vertex 0.46427230261145147 1.2368880506424582 4.5
    vertex 0.8841729591496048 2.8981280870142117 4.5
  endloop
endfacet
facet normal -3.397659501834236e-17 7.721373965117592e-17 1.0
  outer loop
    vertex 0.8841729591496048 2.8981280870142117 4.5
    vertex 0.46427230261145147 1.2368880506424582 4.5
    vertex 0.7427640810783924 1.1369876281378284 4.5
  endloop
endfacet
facet normal -3.397659501834236e-17 7.721373965117592e-17 1.0
  outer loop
    vertex 6.229297025705016 4.852588241439637 4.5
    vertex 1.7241255091270036 3.7795142813589058 4.5
    vertex 1.9851023003935437 3.785796147489628 4.5
  endloop
endfacet
facet normal -3.397659501834236e-17 7.721373965117592e-17 1.0
  outer loop
    vertex 6.229297025705016 4.852588241439637 4.5
    vertex 1.9851023003935437 3.785796147489628 4.5
    vertex 2.2388123897333605 3.724318200313057 4.5
  endloop
endfacet
facet normal -3.397659501834236e-17 7.721373965117592e-17 1.0
  outer loop
    vertex 6.229297025705016 4.852588241439637 4.5
    vertex 2.2388123897333605 3.724318200313057 4.5
    vertex 2.467965853833694 3.599270060332165 4.5
  endloop
endfacet
facet normal -3.397659501834236e-17 7.721373965117592e-17 1.0
  outer loop
    vertex 6.229297025705016 4.852588241439637 4.5
    vertex 2.467965853833694 3.599270060332165 4.5
    vertex 2.6569462628101097 3.4191735516348274 4.5
  endloop
endfacet
facet normal -3.397659501834236e-17 7.721373965117592e-17 1.0
  outer loop
    vertex 6.229297025705016 4.852588241439637 4.5
    vertex 2.6569462628101097 3.4191735516348274 4.5
    vertex 2.7928749140957576 3.196301953665216 4.5
  endloop
endfacet
facet normal -3.397659501834236e-17 7.721373965117592e-17 1.0
  outer loop
    vertex 6.229297025705016 4.852588241439637 4.5
    vertex 2.7928749140957576 3.196301953665216 4.5
    vertex 2.866488494738238 2.945843597512229 4.5
  endloop
endfacet
facet normal -3.397659501834236e-17 7.721373965117592e-17 1.0
  outer loop
    vertex 6.229297025705016 4.852588241439637 4.5
    vertex 2.866488494738238 2.945843597512229 4.5
    vertex 2.8727703608689596 2.6848668062456893 4.5
  endloop
endfacet
facet normal -3.397659501834236e-17 7.721373965117592e-17 1.0
  outer loop
    vertex 6.229297025705016 4.852588241439637 4.5
    vertex 2.8727703608689596 2.6848668062456893 4.5
    vertex 3.2713195322250748 1.894610747959693 4.5
  endloop
endfacet
facet normal -1.8472859341211564e-16 1.659040905524875e-16 1.0
  outer loop
    vertex 2.2605922607485516 4.440892098500626e-16 4.0
    vertex 0.9920937489443631 0.012143179250870384 4.0
    vertex 0.9862857558831235 2.220446049250313e-16 4.000000000000001
  endloop
endfacet
facet normal -1.8472859341211564e-16 1.659040905524875e-16 1.0
  outer loop
    vertex 0.9920937489443631 0.012143179250870384 4.0
    vertex 2.2605922607485516 4.440892098500626e-16 4.0
    vertex 1.0314392156732044 0.2709622243533909 4.0
  endloop
endfacet
facet normal -1.8472859341211564e-16 1.659040905524875e-16 1.0
  outer loop
    vertex 1.0314392156732044 0.2709622243533909 4.0
    vertex 3.2713195322250685 1.8946107479596996 4.0
    vertex 1.0035135521305443 0.4546604791428721 4.0
  endloop
endfacet
facet normal -1.8472859341211564e-16 1.659040905524875e-16 1.0
  outer loop
    vertex 3.2713195322250685 1.8946107479596996 4.0
    vertex 1.0314392156732044 0.2709622243533909 4.0
    vertex 2.2605922607485516 4.440892098500626e-16 4.0
  endloop
endfacet
facet normal -1.8472859341211564e-16 1.659040905524875e-16 1.0
  outer loop
    vertex 3.2713195322250685 1.8946107479596996 4.0
    vertex 2.2605922607485516 4.440892098500626e-16 4.0
    vertex 3.7132612704666594 1.4526690097181092 4.000000000000001
  endloop
endfacet
facet normal 0.11303899832181401 -0.9914448613738107 -0.06526309611002495
  outer loop
    vertex 0.16541381188876614 1.270962224353391 4.5
    vertex -0.5 1.2368880506424595 3.8651075599556197
    vertex -0.5 1.270962224353391 3.3474694697505782
  endloop
endfacet
facet normal 0.11303899832181401 -0.9914448613738107 -0.06526309611002495
  outer loop
    vertex -0.5 1.2368880506424595 3.8651075599556197
    vertex 0.16541381188876614 1.270962224353391 4.5
    vertex -0.1334446788339177 1.2368880506424595 4.5
  endloop
endfacet
facet normal -0.8001031451912665 0.3826834323650878 0.46193976625564387
  outer loop
    vertex 0.9920937489443631 0.012143179250870384 4.0
    vertex 0.2874598273306834 2.220446049250313e-16 2.7895979861006768
    vertex 0.9862857558831235 2.220446049250313e-16 4.000000000000001
  endloop
endfacet
facet normal -0.8001031451912665 0.3826834323650878 0.46193976625564387
  outer loop
    vertex 0.2874598273306834 2.220446049250313e-16 2.7895979861006768
    vertex 0.9920937489443631 0.012143179250870384 4.0
    vertex -0.5 0.012143179250870162 1.4156178171724418
  endloop
endfacet
facet normal -0.8001031451912665 0.3826834323650878 0.46193976625564387
  outer loop
    vertex 0.2874598273306834 2.220446049250313e-16 2.7895979861006768
    vertex -0.5 -0.2290377756466091 1.6154186621817006
    vertex -0.07325626719508227 -0.22903777564660954 2.3545604892114156
  endloop
endfacet
facet normal -0.8001031451912665 0.3826834323650878 0.46193976625564387
  outer loop
    vertex -0.5 -0.2290377756466091 1.6154186621817006
    vertex 0.2874598273306834 2.220446049250313e-16 2.7895979861006768
    vertex -0.5 0.012143179250870162 1.4156178171724418
  endloop
endfacet
facet normal 0.9914448613738105 -0.1305261922200523 3.852101932575734e-17
  outer loop
    vertex 7.867202414224799 2.5578345510348894 -0.5
    vertex 7.779887344090536 1.89461074795968 1.9495689014324191
    vertex 7.779887344090536 1.8946107479596792 -0.5
  endloop
endfacet
facet normal 0.9914448613738105 -0.1305261922200523 3.852101932575734e-17
  outer loop
    vertex 7.779887344090536 1.89461074795968 1.9495689014324191
    vertex 7.867202414224799 2.5578345510348894 -0.5
    vertex 7.867202414224799 2.5578345510348903 2.2753520777580967
  endloop
endfacet
facet normal -0.8001031451912658 -0.3826834323650892 0.46193976625564326
  outer loop
    vertex 1.2437426302765124 0.6071946591786292 4.500000000000001
    vertex -0.5 0.5297812694559116 1.4156178171724403
    vertex 1.1218227612682443 0.5297812694559112 4.22469724056069
  endloop
endfacet
facet normal -0.8001031451912658 -0.3826834323650892 0.46193976625564326
  outer loop
    vertex -0.5 0.5297812694559116 1.4156178171724403
    vertex 1.2437426302765124 0.6071946591786292 4.500000000000001
    vertex -0.5 0.7709622243533909 1.6154186621816997
  endloop
endfacet
facet normal -0.8001031451912658 -0.3826834323650892 0.46193976625564326
  outer loop
    vertex -0.5 0.7709622243533909 1.6154186621816997
    vertex 1.2437426302765124 0.6071946591786292 4.500000000000001
    vertex 1.165413811888766 0.7709622243533905 4.5
  endloop
endfacet
facet normal -0.6870641468694494 -0.6087614290087218 0.39667667014561697
  outer loop
    vertex 0.9819103928164925 0.978069005539937 4.5
    vertex -0.5 0.7709622243533909 1.6154186621816997
    vertex 1.165413811888766 0.7709622243533905 4.5
  endloop
endfacet
facet normal -0.6870641468694494 -0.6087614290087218 0.39667667014561697
  outer loop
    vertex -0.5 0.7709622243533909 1.6154186621816997
    vertex 0.9819103928164925 0.978069005539937 4.5
    vertex -0.5 0.978069005539937 1.9332559073774815
  endloop
endfacet
facet normal -0.7071067811865465 -0.7071067811865487 -5.275510661177502e-16
  outer loop
    vertex 3.2713195322250748 1.894610747959693 4.5
    vertex 3.2713195322250685 1.8946107479596996 4.0
    vertex 3.7132612704666594 1.4526690097181092 4.000000000000001
  endloop
endfacet
facet normal -0.8586164364012613 -0.1305261922200497 0.49572243068690536
  outer loop
    vertex 1.0035135521305443 0.4546604791428721 4.0
    vertex -0.5 0.2709622243533909 1.3474694697505782
    vertex 1.0314392156732044 0.2709622243533909 4.0
  endloop
endfacet
facet normal -0.8586164364012613 -0.1305261922200497 0.49572243068690536
  outer loop
    vertex -0.5 0.2709622243533909 1.3474694697505782
    vertex 1.0035135521305443 0.4546604791428721 4.0
    vertex -0.5 0.5297812694559116 1.4156178171724403
  endloop
endfacet
facet normal -0.8586164364012613 -0.1305261922200497 0.49572243068690536
  outer loop
    vertex -0.5 0.5297812694559116 1.4156178171724403
    vertex 1.0035135521305443 0.4546604791428721 4.0
    vertex 1.1218227612682443 0.5297812694559112 4.22469724056069
  endloop
endfacet
facet normal -0.12519819594273646 0.9835081722472966 0.13052619222005332
  outer loop
    vertex -0.5000000000000003 4.482825427696208 4.12940952255126
    vertex 6.806853438157805 5.43014465389243 4.0
    vertex -0.5000000000000004 4.5 4.0
  endloop
endfacet
facet normal -0.12519819594273646 0.9835081722472966 0.13052619222005332
  outer loop
    vertex 6.806853438157805 5.43014465389243 4.0
    vertex -0.5000000000000003 4.482825427696208 4.12940952255126
    vertex 6.787173680632026 5.410464896366651 4.12940952255126
  endloop
endfacet
facet normal -0.10018349059974303 0.7870024083587756 0.6087614290087198
  outer loop
    vertex -0.5000000000000002 4.35237159948539 4.353553390593274
    vertex 6.729475551007734 5.352766766742359 4.25
    vertex -0.5000000000000002 4.432472129505015 4.25
  endloop
endfacet
facet normal -0.10018349059974303 0.7870024083587756 0.6087614290087198
  outer loop
    vertex 6.729475551007734 5.352766766742359 4.25
    vertex -0.5000000000000002 4.35237159948539 4.353553390593274
    vertex 6.637691081468159 5.260982297202782 4.353553390593274
  endloop
endfacet
facet normal -0.7071067811865493 -0.7071067811865458 -7.610301227088181e-16
  outer loop
    vertex 6.806853438157805 -1.6409231579730443 0.5
    vertex 3.9999999999999996 1.165930280184774 -0.5
    vertex 6.806853438157804 -1.640923157973046 -0.5
  endloop
endfacet
facet normal -0.7071067811865493 -0.7071067811865458 -7.610301227088181e-16
  outer loop
    vertex 3.9999999999999996 1.165930280184774 -0.5
    vertex 6.806853438157805 -1.6409231579730443 0.5
    vertex 3.999999999999996 1.1659302801847722 3.67559215986906
  endloop
endfacet
facet normal -0.5272028623656698 -0.7933533402912347 0.30438071450436066
  outer loop
    vertex 0.9819103928164925 0.978069005539937 4.5
    vertex -0.5 1.1369876281378288 2.347469469750577
    vertex -0.5 0.978069005539937 1.9332559073774815
  endloop
endfacet
facet normal -0.5272028623656698 -0.7933533402912347 0.30438071450436066
  outer loop
    vertex -0.5 1.1369876281378288 2.347469469750577
    vertex 0.9819103928164925 0.978069005539937 4.5
    vertex 0.7427640810783924 1.1369876281378284 4.5
  endloop
endfacet
facet normal -0.11303899832181796 -0.99144486137381 0.06526309611002713
  outer loop
    vertex 0.46427230261145147 1.2368880506424582 4.5
    vertex -0.5 1.270962224353391 3.3474694697505782
    vertex -0.5 1.2368880506424587 2.829831379545536
  endloop
endfacet
facet normal -0.11303899832181796 -0.99144486137381 0.06526309611002713
  outer loop
    vertex -0.5 1.270962224353391 3.3474694697505782
    vertex 0.46427230261145147 1.2368880506424582 4.5
    vertex 0.16541381188876614 1.270962224353391 4.5
  endloop
endfacet
facet normal -0.858616436401261 0.13052619222005224 0.49572243068690514
  outer loop
    vertex 0.9920937489443631 0.012143179250870384 4.0
    vertex -0.5 0.2709622243533909 1.3474694697505782
    vertex -0.5 0.012143179250870162 1.4156178171724418
  endloop
endfacet
facet normal -0.858616436401261 0.13052619222005224 0.49572243068690514
  outer loop
    vertex -0.5 0.2709622243533909 1.3474694697505782
    vertex 0.9920937489443631 0.012143179250870384 4.0
    vertex 1.0314392156732044 0.2709622243533909 4.0
  endloop
endfacet
facet normal 0.5272028623656683 -0.7933533402912358 -0.3043807145043602
  outer loop
    vertex -0.5000000000000001 1.078467231962268 4.5
    vertex -0.5 1.1369876281378293 4.347469469750577
    vertex -0.4119364573008587 1.1369876281378302 4.5
  endloop
endfacet
facet normal -0.7071067811865497 0.7071067811865454 -1.3407022234226005e-15
  outer loop
    vertex 6.806853438157805 5.43014465389243 4.5
    vertex 6.3787796248688835 5.002070840603507 4.482962913144534
    vertex 6.229297025705016 4.852588241439637 4.5
  endloop
endfacet
facet normal -0.7071067811865497 0.7071067811865454 -1.3407022234226005e-15
  outer loop
    vertex 6.3787796248688835 5.002070840603507 4.482962913144534
    vertex 6.806853438157805 5.43014465389243 4.5
    vertex 6.518075231931411 5.141366447666034 4.43301270189222
  endloop
endfacet
facet normal -0.7071067811865497 0.7071067811865454 -1.3407022234226005e-15
  outer loop
    vertex 6.518075231931411 5.141366447666034 4.43301270189222
    vertex 6.806853438157805 5.43014465389243 4.5
    vertex 6.637691081468159 5.260982297202782 4.353553390593274
  endloop
endfacet
facet normal -0.7071067811865497 0.7071067811865454 -1.3407022234226005e-15
  outer loop
    vertex 6.637691081468159 5.260982297202782 4.353553390593274
    vertex 6.806853438157805 5.43014465389243 4.5
    vertex 6.729475551007734 5.352766766742359 4.25
  endloop
endfacet
facet normal -0.7071067811865497 0.7071067811865454 -1.3407022234226005e-15
  outer loop
    vertex 6.729475551007734 5.352766766742359 4.25
    vertex 6.806853438157805 5.43014465389243 4.5
    vertex 6.787173680632026 5.410464896366651 4.12940952255126
  endloop
endfacet
facet normal -0.7071067811865497 0.7071067811865454 -1.3407022234226005e-15
  outer loop
    vertex 6.787173680632026 5.410464896366651 4.12940952255126
    vertex 6.806853438157805 5.43014465389243 4.5
    vertex 6.806853438157805 5.43014465389243 4.0
  endloop
endfacet
facet normal -0.11666614578904054 0.9164837156327477 0.38268343236508623
  outer loop
    vertex -0.5000000000000002 4.432472129505015 4.25
    vertex 6.787173680632026 5.410464896366651 4.12940952255126
    vertex -0.5000000000000003 4.482825427696208 4.12940952255126
  endloop
endfacet
facet normal -0.11666614578904054 0.9164837156327477 0.38268343236508623
  outer loop
    vertex 6.787173680632026 5.410464896366651 4.12940952255126
    vertex -0.5000000000000002 4.432472129505015 4.25
    vertex 6.729475551007734 5.352766766742359 4.25
  endloop
endfacet
facet normal -0.6870641468694498 0.6087614290087208 0.39667667014561775
  outer loop
    vertex -0.07325626719508227 -0.22903777564660954 2.3545604892114156
    vertex -0.5 -0.43614455683315656 1.9332559073774833
    vertex -0.39943280749942595 -0.436144556833157 2.1074433943630364
  endloop
endfacet
facet normal -0.6870641468694498 0.6087614290087208 0.39667667014561775
  outer loop
    vertex -0.5 -0.43614455683315656 1.9332559073774833
    vertex -0.07325626719508227 -0.22903777564660954 2.3545604892114156
    vertex -0.5 -0.2290377756466091 1.6154186621817006
  endloop
endfacet
facet normal -0.0164826551892979 0.12948130727397497 0.99144486137381
  outer loop
    vertex 6.229297025705016 4.852588241439637 4.5
    vertex -0.5000000000000002 4.12641894098239 4.482962913144534
    vertex -0.5000000000000002 3.9959651127715707 4.5
  endloop
endfacet
facet normal -0.0164826551892979 0.12948130727397497 0.99144486137381
  outer loop
    vertex -0.5000000000000002 4.12641894098239 4.482962913144534
    vertex 6.229297025705016 4.852588241439637 4.5
    vertex 6.3787796248688835 5.002070840603507 4.482962913144534
  endloop
endfacet
facet normal 0.7933533402912331 0.6087614290087234 -1.3390050280455761e-15
  outer loop
    vertex 8.530426217300008 0.0826496211691552 -0.5
    vertex 8.123197246892913 0.6133607479596814 1.0305790424601662
    vertex 8.53042621730001 0.08264962116915453 0.5
  endloop
endfacet
facet normal 0.7933533402912331 0.6087614290087234 -1.3390050280455761e-15
  outer loop
    vertex 8.123197246892913 0.6133607479596814 1.0305790424601662
    vertex 8.530426217300008 0.0826496211691552 -0.5
    vertex 8.12319724689291 0.6133607479596801 -0.5
  endloop
endfacet
facet normal 0.7071067811865467 -0.7071067811865485 -5.495323605393199e-16
  outer loop
    vertex 8.53042621730001 0.08264962116915453 0.5
    vertex 6.806853438157804 -1.640923157973046 -0.5
    vertex 8.530426217300008 0.0826496211691552 -0.5
  endloop
endfacet
facet normal 0.7071067811865467 -0.7071067811865485 -5.495323605393199e-16
  outer loop
    vertex 6.806853438157804 -1.640923157973046 -0.5
    vertex 8.53042621730001 0.08264962116915453 0.5
    vertex 6.806853438157805 -1.6409231579730443 0.5
  endloop
endfacet
facet normal -0.5272028623656689 0.7933533402912345 0.3043807145043625
  outer loop
    vertex -0.39943280749942595 -0.436144556833157 2.1074433943630364
    vertex -0.5 -0.43614455683315656 1.9332559073774833
    vertex -0.4999999999999997 -0.5000000000000004 2.0996919748355833
  endloop
endfacet
facet normal 0.7933533402912355 -0.6087614290087201 3.3965920415640356e-16
  outer loop
    vertex 8.530426217300013 3.706571874750213 -0.5
    vertex 8.123197246892913 3.17586074795968 2.4801479438925873
    vertex 8.123197246892913 3.175860747959679 -0.5
  endloop
endfacet
facet normal 0.7933533402912355 -0.6087614290087201 3.3965920415640356e-16
  outer loop
    vertex 8.123197246892913 3.17586074795968 2.4801479438925873
    vertex 8.530426217300013 3.706571874750213 -0.5
    vertex 8.53042621730001 3.706571874750211 2.549999999999997
  endloop
endfacet
facet normal -0.048324699855616625 0.3796199847091654 0.9238795325112888
  outer loop
    vertex 6.3787796248688835 5.002070840603507 4.482962913144534
    vertex -0.5000000000000002 4.247982556385786 4.43301270189222
    vertex -0.5000000000000002 4.12641894098239 4.482962913144534
  endloop
endfacet
facet normal -0.048324699855616625 0.3796199847091654 0.9238795325112888
  outer loop
    vertex -0.5000000000000002 4.247982556385786 4.43301270189222
    vertex 6.3787796248688835 5.002070840603507 4.482962913144534
    vertex 6.518075231931411 5.141366447666034 4.43301270189222
  endloop
endfacet
facet normal 0.9238795325112867 0.38268343236509 2.318321520930009e-16
  outer loop
    vertex 7.867202414224799 1.2313869448844716 -0.5
    vertex 8.123197246892913 0.6133607479596814 1.0305790424601662
    vertex 8.12319724689291 0.6133607479596801 -0.5
  endloop
endfacet
facet normal 0.9238795325112867 0.38268343236509 2.318321520930009e-16
  outer loop
    vertex 8.123197246892913 0.6133607479596814 1.0305790424601662
    vertex 7.867202414224799 1.2313869448844716 -0.5
    vertex 7.867202414224796 1.2313869448844716 1.5249999999999986
  endloop
endfacet
facet normal 0.33141357403559285 -0.9238795325112862 -0.19134171618254567
  outer loop
    vertex -0.1334446788339177 1.2368880506424595 4.5
    vertex -0.5 1.1369876281378293 4.347469469750577
    vertex -0.5 1.2368880506424595 3.8651075599556197
  endloop
endfacet
facet normal 0.33141357403559285 -0.9238795325112862 -0.19134171618254567
  outer loop
    vertex -0.5 1.1369876281378293 4.347469469750577
    vertex -0.1334446788339177 1.2368880506424595 4.5
    vertex -0.4119364573008587 1.1369876281378302 4.5
  endloop
endfacet
facet normal 0.9238795325112867 -0.3826834323650902 1.1436275812141876e-16
  outer loop
    vertex 8.123197246892913 3.175860747959679 -0.5
    vertex 7.867202414224799 2.5578345510348903 2.2753520777580967
    vertex 7.867202414224799 2.5578345510348894 -0.5
  endloop
endfacet
facet normal 0.9238795325112867 -0.3826834323650902 1.1436275812141876e-16
  outer loop
    vertex 7.867202414224799 2.5578345510348903 2.2753520777580967
    vertex 8.123197246892913 3.175860747959679 -0.5
    vertex 8.123197246892913 3.17586074795968 2.4801479438925873
  endloop
endfacet
facet normal 0.5360276246978877 -0.8442004415781483 -1.6776681944180904e-16
  outer loop
    vertex 0.2874598273306834 2.220446049250313e-16 2.7895979861006768
    vertex -0.5 -0.5 -0.5
    vertex 0.28745982733068254 0.0 -0.5
  endloop
endfacet
facet normal 0.5360276246978877 -0.8442004415781483 -1.6776681944180904e-16
  outer loop
    vertex -0.5 -0.5 -0.5
    vertex 0.2874598273306834 2.220446049250313e-16 2.7895979861006768
    vertex -0.07325626719508227 -0.22903777564660954 2.3545604892114156
  endloop
endfacet
facet normal 0.5360276246978877 -0.8442004415781483 -1.6776681944180904e-16
  outer loop
    vertex -0.5 -0.5 -0.5
    vertex -0.07325626719508227 -0.22903777564660954 2.3545604892114156
    vertex -0.39943280749942595 -0.436144556833157 2.1074433943630364
  endloop
endfacet
facet normal 0.5360276246978877 -0.8442004415781483 -1.6776681944180904e-16
  outer loop
    vertex -0.5 -0.5 -0.5
    vertex -0.39943280749942595 -0.436144556833157 2.1074433943630364
    vertex -0.4999999999999997 -0.5000000000000004 2.0996919748355833
  endloop
endfacet
facet normal 0.5360276246978882 -0.8442004415781479 -8.778800820576662e-15
  outer loop
    vertex 3.2713195322250748 1.894610747959693 4.5
    vertex 1.0035135521305443 0.4546604791428721 4.0
    vertex 3.2713195322250685 1.8946107479596996 4.0
  endloop
endfacet
facet normal 0.5360276246978882 -0.8442004415781479 -8.778800820576662e-15
  outer loop
    vertex 1.0035135521305443 0.4546604791428721 4.0
    vertex 3.2713195322250748 1.894610747959693 4.5
    vertex 1.1218227612682443 0.5297812694559112 4.22469724056069
  endloop
endfacet
facet normal 0.5360276246978882 -0.8442004415781479 -8.778800820576662e-15
  outer loop
    vertex 1.1218227612682443 0.5297812694559112 4.22469724056069
    vertex 3.2713195322250748 1.894610747959693 4.5
    vertex 1.2437426302765124 0.6071946591786292 4.500000000000001
  endloop
endfacet
facet normal 0.5206949232706035 -0.8537428165906992 0.0
  outer loop
    vertex 1.4736671529740166 3.705900700716426 4.5
    vertex 1.2507955550044052 3.5699720494307785 0.0625
    vertex 1.4736671529740166 3.705900700716426 0.0625
  endloop
endfacet
facet normal 0.5206949232706035 -0.8537428165906992 0.0
  outer loop
    vertex 1.2507955550044052 3.5699720494307785 0.0625
    vertex 1.4736671529740166 3.705900700716426 4.5
    vertex 1.2507955550044052 3.5699720494307785 4.5
  endloop
endfacet
facet normal 0.2819877734515405 -0.9594179983843554 0.0
  outer loop
    vertex 1.7241255091270036 3.7795142813589058 4.5
    vertex 1.4736671529740166 3.705900700716426 0.0625
    vertex 1.7241255091270036 3.7795142813589058 0.0625
  endloop
endfacet
facet normal 0.2819877734515405 -0.9594179983843554 0.0
  outer loop
    vertex 1.4736671529740166 3.705900700716426 0.0625
    vertex 1.7241255091270036 3.7795142813589058 4.5
    vertex 1.4736671529740166 3.705900700716426 4.5
  endloop
endfacet
facet normal -0.23550042382653202 -0.9718742461746395 -0.0
  outer loop
    vertex 2.2388123897333605 3.724318200313057 4.5
    vertex 1.9851023003935437 3.785796147489628 0.0625
    vertex 2.2388123897333605 3.724318200313057 0.0625
  endloop
endfacet
facet normal -0.23550042382653202 -0.9718742461746395 -0.0
  outer loop
    vertex 1.9851023003935437 3.785796147489628 0.0625
    vertex 2.2388123897333605 3.724318200313057 4.5
    vertex 1.9851023003935437 3.785796147489628 4.5
  endloop
endfacet
facet normal -0.47901550583072183 -0.8778064394692818 -0.0
  outer loop
    vertex 2.467965853833694 3.599270060332165 4.5
    vertex 2.2388123897333605 3.724318200313057 0.0625
    vertex 2.467965853833694 3.599270060332165 0.0625
  endloop
endfacet
facet normal -0.47901550583072183 -0.8778064394692818 -0.0
  outer loop
    vertex 2.2388123897333605 3.724318200313057 0.0625
    vertex 2.467965853833694 3.599270060332165 4.5
    vertex 2.2388123897333605 3.724318200313057 4.5
  endloop
endfacet
facet normal 0.02406362287858407 -0.9997104291013261 0.0
  outer loop
    vertex 1.9851023003935437 3.785796147489628 4.5
    vertex 1.7241255091270036 3.7795142813589058 0.0625
    vertex 1.9851023003935437 3.785796147489628 0.0625
  endloop
endfacet
facet normal 0.02406362287858407 -0.9997104291013261 0.0
  outer loop
    vertex 1.7241255091270036 3.7795142813589058 0.0625
    vertex 1.9851023003935437 3.785796147489628 4.5
    vertex 1.7241255091270036 3.7795142813589058 4.5
  endloop
endfacet
facet normal -0.9594179983843555 -0.28198777345154025 -0.0
  outer loop
    vertex 2.7928749140957576 3.196301953665216 4.5
    vertex 2.866488494738238 2.945843597512229 0.0625
    vertex 2.866488494738238 2.945843597512229 4.5
  endloop
endfacet
facet normal -0.9594179983843555 -0.28198777345154025 -0.0
  outer loop
    vertex 2.866488494738238 2.945843597512229 0.0625
    vertex 2.7928749140957576 3.196301953665216 4.5
    vertex 2.7928749140957576 3.196301953665216 0.0625
  endloop
endfacet
facet normal -0.8537428165906983 -0.5206949232706053 -0.0
  outer loop
    vertex 2.6569462628101097 3.4191735516348274 4.5
    vertex 2.7928749140957576 3.196301953665216 0.0625
    vertex 2.7928749140957576 3.196301953665216 4.5
  endloop
endfacet
facet normal -0.8537428165906983 -0.5206949232706053 -0.0
  outer loop
    vertex 2.7928749140957576 3.196301953665216 0.0625
    vertex 2.6569462628101097 3.4191735516348274 4.5
    vertex 2.6569462628101097 3.4191735516348274 0.0625
  endloop
endfacet
facet normal -0.999710429101326 -0.024063622878584087 -0.0
  outer loop
    vertex 2.866488494738238 2.945843597512229 4.5
    vertex 2.8727703608689596 2.6848668062456893 0.0625
    vertex 2.8727703608689596 2.6848668062456893 4.5
  endloop
endfacet
facet normal -0.999710429101326 -0.024063622878584087 -0.0
  outer loop
    vertex 2.8727703608689596 2.6848668062456893 0.0625
    vertex 2.866488494738238 2.945843597512229 4.5
    vertex 2.866488494738238 2.945843597512229 0.0625
  endloop
endfacet
facet normal -0.6898864727230994 -0.7239175745578222 -0.0
  outer loop
    vertex 2.6569462628101097 3.4191735516348274 4.5
    vertex 2.467965853833694 3.599270060332165 0.0625
    vertex 2.6569462628101097 3.4191735516348274 0.0625
  endloop
endfacet
facet normal -0.6898864727230994 -0.7239175745578222 -0.0
  outer loop
    vertex 2.467965853833694 3.599270060332165 0.0625
    vertex 2.6569462628101097 3.4191735516348274 4.5
    vertex 2.467965853833694 3.599270060332165 4.5
  endloop
endfacet
facet normal -0.9718742461746396 0.23550042382653186 0.0
  outer loop
    vertex 2.8727703608689596 2.6848668062456893 4.5
    vertex 2.8112924136923887 2.431156716905872 0.0625
    vertex 2.8112924136923887 2.431156716905872 4.5
  endloop
endfacet
facet normal -0.9718742461746396 0.23550042382653186 0.0
  outer loop
    vertex 2.8112924136923887 2.431156716905872 0.0625
    vertex 2.8727703608689596 2.6848668062456893 4.5
    vertex 2.8727703608689596 2.6848668062456893 0.0625
  endloop
endfacet
facet normal -0.8778064394692813 0.47901550583072244 0.0
  outer loop
    vertex 2.8112924136923887 2.431156716905872 4.5
    vertex 2.6862442737114964 2.202003252805539 0.0625
    vertex 2.6862442737114964 2.202003252805539 4.5
  endloop
endfacet
facet normal -0.8778064394692813 0.47901550583072244 0.0
  outer loop
    vertex 2.6862442737114964 2.202003252805539 0.0625
    vertex 2.8112924136923887 2.431156716905872 4.5
    vertex 2.8112924136923887 2.431156716905872 0.0625
  endloop
endfacet
facet normal -0.7239175745578231 0.6898864727230987 0.0
  outer loop
    vertex 2.6862442737114964 2.202003252805539 4.5
    vertex 2.506147765014159 2.013022843829123 0.0625
    vertex 2.506147765014159 2.013022843829123 4.5
  endloop
endfacet
facet normal -0.7239175745578231 0.6898864727230987 0.0
  outer loop
    vertex 2.506147765014159 2.013022843829123 0.0625
    vertex 2.6862442737114964 2.202003252805539 4.5
    vertex 2.6862442737114964 2.202003252805539 0.0625
  endloop
endfacet
facet normal -0.5206949232706053 0.8537428165906983 0.0
  outer loop
    vertex 2.283276167044548 1.877094192543475 4.5
    vertex 2.506147765014159 2.013022843829123 0.0625
    vertex 2.283276167044548 1.877094192543475 0.0625
  endloop
endfacet
facet normal -0.5206949232706053 0.8537428165906983 0.0
  outer loop
    vertex 2.506147765014159 2.013022843829123 0.0625
    vertex 2.283276167044548 1.877094192543475 4.5
    vertex 2.506147765014159 2.013022843829123 4.5
  endloop
endfacet
facet normal -0.2819877734515407 0.9594179983843552 0.0
  outer loop
    vertex 2.032817810891561 1.8034806119009947 4.5
    vertex 2.283276167044548 1.877094192543475 0.0625
    vertex 2.032817810891561 1.8034806119009947 0.0625
  endloop
endfacet
facet normal -0.2819877734515407 0.9594179983843552 0.0
  outer loop
    vertex 2.283276167044548 1.877094192543475 0.0625
    vertex 2.032817810891561 1.8034806119009947 4.5
    vertex 2.283276167044548 1.877094192543475 4.5
  endloop
endfacet
facet normal -0.024063622878584025 0.999710429101326 0.0
  outer loop
    vertex 1.7718410196250205 1.797198745770273 4.5
    vertex 2.032817810891561 1.8034806119009947 0.0625
    vertex 1.7718410196250205 1.797198745770273 0.0625
  endloop
endfacet
facet normal -0.024063622878584025 0.999710429101326 0.0
  outer loop
    vertex 2.032817810891561 1.8034806119009947 0.0625
    vertex 1.7718410196250205 1.797198745770273 4.5
    vertex 2.032817810891561 1.8034806119009947 4.5
  endloop
endfacet
facet normal 0.4790155058307213 0.8778064394692822 0.0
  outer loop
    vertex 1.2889774661848707 1.9837248329277362 4.5
    vertex 1.5181309302852037 1.858676692946844 0.0625
    vertex 1.2889774661848707 1.9837248329277362 0.0625
  endloop
endfacet
facet normal 0.4790155058307213 0.8778064394692822 0.0
  outer loop
    vertex 1.5181309302852037 1.858676692946844 0.0625
    vertex 1.2889774661848707 1.9837248329277362 4.5
    vertex 1.5181309302852037 1.858676692946844 4.5
  endloop
endfacet
facet normal 0.23550042382653288 0.9718742461746395 0.0
  outer loop
    vertex 1.5181309302852037 1.858676692946844 4.5
    vertex 1.7718410196250205 1.797198745770273 0.0625
    vertex 1.5181309302852037 1.858676692946844 0.0625
  endloop
endfacet
facet normal 0.23550042382653288 0.9718742461746395 0.0
  outer loop
    vertex 1.7718410196250205 1.797198745770273 0.0625
    vertex 1.5181309302852037 1.858676692946844 4.5
    vertex 1.7718410196250205 1.797198745770273 4.5
  endloop
endfacet
facet normal 0.0 0.0 1.0
  outer loop
    vertex 0.8904548252803264 2.637151295747672 0.0625
    vertex 0.945650906326176 3.151838176354029 0.0625
    vertex 0.8841729591496048 2.8981280870142117 0.0625
  endloop
endfacet
facet normal 0.0 0.0 1.0
  outer loop
    vertex 0.945650906326176 3.151838176354029 0.0625
    vertex 0.8904548252803264 2.637151295747672 0.0625
    vertex 0.9640684059228064 2.3866929395946856 0.0625
  endloop
endfacet
facet normal 0.0 0.0 1.0
  outer loop
    vertex 0.945650906326176 3.151838176354029 0.0625
    vertex 0.9640684059228064 2.3866929395946856 0.0625
    vertex 1.0706990463070678 3.3809916404543623 0.0625
  endloop
endfacet
facet normal 0.0 0.0 1.0
  outer loop
    vertex 1.0706990463070678 3.3809916404543623 0.0625
    vertex 0.9640684059228064 2.3866929395946856 0.0625
    vertex 1.0999970572084543 2.1638213416250736 0.0625
  endloop
endfacet
facet normal 0.0 0.0 1.0
  outer loop
    vertex 1.0706990463070678 3.3809916404543623 0.0625
    vertex 1.0999970572084543 2.1638213416250736 0.0625
    vertex 1.2507955550044052 3.5699720494307785 0.0625
  endloop
endfacet
facet normal 0.0 0.0 1.0
  outer loop
    vertex 1.2507955550044052 3.5699720494307785 0.0625
    vertex 1.0999970572084543 2.1638213416250736 0.0625
    vertex 1.2889774661848707 1.9837248329277362 0.0625
  endloop
endfacet
facet normal 0.0 0.0 1.0
  outer loop
    vertex 1.2507955550044052 3.5699720494307785 0.0625
    vertex 1.2889774661848707 1.9837248329277362 0.0625
    vertex 1.4736671529740166 3.705900700716426 0.0625
  endloop
endfacet
facet normal 0.0 0.0 1.0
  outer loop
    vertex 1.4736671529740166 3.705900700716426 0.0625
    vertex 1.2889774661848707 1.9837248329277362 0.0625
    vertex 1.5181309302852037 1.858676692946844 0.0625
  endloop
endfacet
facet normal 0.0 0.0 1.0
  outer loop
    vertex 1.4736671529740166 3.705900700716426 0.0625
    vertex 1.5181309302852037 1.858676692946844 0.0625
    vertex 1.7241255091270036 3.7795142813589058 0.0625
  endloop
endfacet
facet normal 0.0 0.0 1.0
  outer loop
    vertex 1.7241255091270036 3.7795142813589058 0.0625
    vertex 1.5181309302852037 1.858676692946844 0.0625
    vertex 1.7718410196250205 1.797198745770273 0.0625
  endloop
endfacet
facet normal 0.0 0.0 1.0
  outer loop
    vertex 1.7241255091270036 3.7795142813589058 0.0625
    vertex 1.7718410196250205 1.797198745770273 0.0625
    vertex 1.9851023003935437 3.785796147489628 0.0625
  endloop
endfacet
facet normal 0.0 0.0 1.0
  outer loop
    vertex 1.9851023003935437 3.785796147489628 0.0625
    vertex 1.7718410196250205 1.797198745770273 0.0625
    vertex 2.032817810891561 1.8034806119009947 0.0625
  endloop
endfacet
facet normal 0.0 0.0 1.0
  outer loop
    vertex 1.9851023003935437 3.785796147489628 0.0625
    vertex 2.032817810891561 1.8034806119009947 0.0625
    vertex 2.2388123897333605 3.724318200313057 0.0625
  endloop
endfacet
facet normal 0.0 0.0 1.0
  outer loop
    vertex 2.2388123897333605 3.724318200313057 0.0625
    vertex 2.032817810891561 1.8034806119009947 0.0625
    vertex 2.283276167044548 1.877094192543475 0.0625
  endloop
endfacet
facet normal 0.0 0.0 1.0
  outer loop
    vertex 2.2388123897333605 3.724318200313057 0.0625
    vertex 2.283276167044548 1.877094192543475 0.0625
    vertex 2.467965853833694 3.599270060332165 0.0625
  endloop
endfacet
facet normal 0.0 0.0 1.0
  outer loop
    vertex 2.467965853833694 3.599270060332165 0.0625
    vertex 2.283276167044548 1.877094192543475 0.0625
    vertex 2.506147765014159 2.013022843829123 0.0625
  endloop
endfacet
facet normal 0.0 0.0 1.0
  outer loop
    vertex 2.467965853833694 3.599270060332165 0.0625
    vertex 2.506147765014159 2.013022843829123 0.0625
    vertex 2.6569462628101097 3.4191735516348274 0.0625
  endloop
endfacet
facet normal 0.0 0.0 1.0
  outer loop
    vertex 2.6569462628101097 3.4191735516348274 0.0625
    vertex 2.506147765014159 2.013022843829123 0.0625
    vertex 2.6862442737114964 2.202003252805539 0.0625
  endloop
endfacet
facet normal 0.0 0.0 1.0
  outer loop
    vertex 2.6569462628101097 3.4191735516348274 0.0625
    vertex 2.6862442737114964 2.202003252805539 0.0625
    vertex 2.7928749140957576 3.196301953665216 0.0625
  endloop
endfacet
facet normal 0.0 0.0 1.0
  outer loop
    vertex 2.7928749140957576 3.196301953665216 0.0625
    vertex 2.6862442737114964 2.202003252805539 0.0625
    vertex 2.8112924136923887 2.431156716905872 0.0625
  endloop
endfacet
facet normal 0.0 0.0 1.0
  outer loop
    vertex 2.7928749140957576 3.196301953665216 0.0625
    vertex 2.8112924136923887 2.431156716905872 0.0625
    vertex 2.866488494738238 2.945843597512229 0.0625
  endloop
endfacet
facet normal 0.0 0.0 1.0
  outer loop
    vertex 2.866488494738238 2.945843597512229 0.0625
    vertex 2.8112924136923887 2.431156716905872 0.0625
    vertex 2.8727703608689596 2.6848668062456893 0.0625
  endloop
endfacet
facet normal 0.6898864727230987 0.7239175745578231 0.0
  outer loop
    vertex 1.0999970572084543 2.1638213416250736 4.5
    vertex 1.2889774661848707 1.9837248329277362 0.0625
    vertex 1.0999970572084543 2.1638213416250736 0.0625
  endloop
endfacet
facet normal 0.6898864727230987 0.7239175745578231 0.0
  outer loop
    vertex 1.2889774661848707 1.9837248329277362 0.0625
    vertex 1.0999970572084543 2.1638213416250736 4.5
    vertex 1.2889774661848707 1.9837248329277362 4.5
  endloop
endfacet
facet normal 0.8537428165906987 0.5206949232706044 0.0
  outer loop
    vertex 0.9640684059228064 2.3866929395946856 0.0625
    vertex 1.0999970572084543 2.1638213416250736 4.5
    vertex 1.0999970572084543 2.1638213416250736 0.0625
  endloop
endfacet
facet normal 0.8537428165906987 0.5206949232706044 0.0
  outer loop
    vertex 1.0999970572084543 2.1638213416250736 4.5
    vertex 0.9640684059228064 2.3866929395946856 0.0625
    vertex 0.9640684059228064 2.3866929395946856 4.5
  endloop
endfacet
facet normal 0.9594179983843554 0.2819877734515399 0.0
  outer loop
    vertex 0.8904548252803264 2.637151295747672 0.0625
    vertex 0.9640684059228064 2.3866929395946856 4.5
    vertex 0.9640684059228064 2.3866929395946856 0.0625
  endloop
endfacet
facet normal 0.9594179983843554 0.2819877734515399 0.0
  outer loop
    vertex 0.9640684059228064 2.3866929395946856 4.5
    vertex 0.8904548252803264 2.637151295747672 0.0625
    vertex 0.8904548252803264 2.637151295747672 4.5
  endloop
endfacet
facet normal 0.999710429101326 0.024063622878583237 0.0
  outer loop
    vertex 0.8841729591496048 2.8981280870142117 0.0625
    vertex 0.8904548252803264 2.637151295747672 4.5
    vertex 0.8904548252803264 2.637151295747672 0.0625
  endloop
endfacet
facet normal 0.999710429101326 0.024063622878583237 0.0
  outer loop
    vertex 0.8904548252803264 2.637151295747672 4.5
    vertex 0.8841729591496048 2.8981280870142117 0.0625
    vertex 0.8841729591496048 2.8981280870142117 4.5
  endloop
endfacet
facet normal 0.9718742461746396 -0.23550042382653186 0.0
  outer loop
    vertex 0.945650906326176 3.151838176354029 0.0625
    vertex 0.8841729591496048 2.8981280870142117 4.5
    vertex 0.8841729591496048 2.8981280870142117 0.0625
  endloop
endfacet
facet normal 0.9718742461746396 -0.23550042382653186 0.0
  outer loop
    vertex 0.8841729591496048 2.8981280870142117 4.5
    vertex 0.945650906326176 3.151838176354029 0.0625
    vertex 0.945650906326176 3.151838176354029 4.5
  endloop
endfacet
facet normal 0.8778064394692818 -0.4790155058307215 0.0
  outer loop
    vertex 1.0706990463070678 3.3809916404543623 0.0625
    vertex 0.945650906326176 3.151838176354029 4.5
    vertex 0.945650906326176 3.151838176354029 0.0625
  endloop
endfacet
facet normal 0.8778064394692818 -0.4790155058307215 0.0
  outer loop
    vertex 0.945650906326176 3.151838176354029 4.5
    vertex 1.0706990463070678 3.3809916404543623 0.0625
    vertex 1.0706990463070678 3.3809916404543623 4.5
  endloop
endfacet
facet normal 0.7239175745578231 -0.6898864727230987 0.0
  outer loop
    vertex 1.2507955550044052 3.5699720494307785 0.0625
    vertex 1.0706990463070678 3.3809916404543623 4.5
    vertex 1.0706990463070678 3.3809916404543623 0.0625
  endloop
endfacet
facet normal 0.7239175745578231 -0.6898864727230987 0.0
  outer loop
    vertex 1.0706990463070678 3.3809916404543623 4.5
    vertex 1.2507955550044052 3.5699720494307785 0.0625
    vertex 1.2507955550044052 3.5699720494307785 4.5
  endloop
endfacet
endsolid Untitled-5afc1bae
