solid overpass
facet normal 0.0 1.0 0.0
  outer loop
    vertex -319.4673851648535 13563.599999999999 5907.024000000001
    vertex -40.06738516485355 13563.599999999999 5870.448000000001
    vertex -319.4673851648535 13563.599999999999 5870.448000000001
  endloop
endfacet
facet normal 0.0 1.0 0.0
  outer loop
    vertex -40.06738516485355 13563.599999999999 5870.448000000001
    vertex -319.4673851648535 13563.599999999999 5907.024000000001
    vertex 10.732614835146451 13563.599999999999 5870.448000000001
  endloop
endfacet
facet normal 0.0 1.0 0.0
  outer loop
    vertex 10.732614835146451 13563.599999999999 5870.448000000001
    vertex -319.4673851648535 13563.599999999999 5907.024000000001
    vertex 290.13261483514646 13563.599999999999 5870.448000000001
  endloop
endfacet
facet normal 0.0 1.0 0.0
  outer loop
    vertex 290.13261483514646 13563.599999999999 5870.448000000001
    vertex -319.4673851648535 13563.599999999999 5907.024000000001
    vertex 290.13261483514646 13563.599999999999 5907.024000000001
  endloop
endfacet
facet normal 0.0 1.0 0.0
  outer loop
    vertex -40.06738516485355 13563.599999999999 5870.448000000001
    vertex 10.732614835146451 13563.599999999999 5065.776000000001
    vertex -40.06738516485355 13563.599999999999 5065.776000000001
  endloop
endfacet
facet normal 0.0 1.0 0.0
  outer loop
    vertex 10.732614835146451 13563.599999999999 5065.776000000001
    vertex -40.06738516485355 13563.599999999999 5870.448000000001
    vertex 10.732614835146451 13563.599999999999 5870.448000000001
  endloop
endfacet
facet normal 0.0 1.0 0.0
  outer loop
    vertex -319.4673851648535 13563.599999999999 5065.776000000001
    vertex 290.13261483514646 13563.599999999999 5029.200000000001
    vertex -319.4673851648535 13563.599999999999 5029.200000000001
  endloop
endfacet
facet normal 0.0 1.0 0.0
  outer loop
    vertex 290.13261483514646 13563.599999999999 5029.200000000001
    vertex -319.4673851648535 13563.599999999999 5065.776000000001
    vertex 290.13261483514646 13563.599999999999 5065.776000000001
  endloop
endfacet
facet normal 0.0 1.0 0.0
  outer loop
    vertex 290.13261483514646 13563.599999999999 5065.776000000001
    vertex -319.4673851648535 13563.599999999999 5065.776000000001
    vertex -40.06738516485355 13563.599999999999 5065.776000000001
  endloop
endfacet
facet normal 0.0 1.0 0.0
  outer loop
    vertex 290.13261483514646 13563.599999999999 5065.776000000001
    vertex -40.06738516485355 13563.599999999999 5065.776000000001
    vertex 10.732614835146451 13563.599999999999 5065.776000000001
  endloop
endfacet
facet normal -1.0 0.0 0.0
  outer loop
    vertex -319.4673851648535 13563.599999999999 5907.024000000001
    vertex -319.4673851648535 -457.2 5870.448000000001
    vertex -319.4673851648535 -457.2 5907.024000000001
  endloop
endfacet
facet normal -1.0 0.0 0.0
  outer loop
    vertex -319.4673851648535 -457.2 5870.448000000001
    vertex -319.4673851648535 13563.599999999999 5907.024000000001
    vertex -319.4673851648535 13563.599999999999 5870.448000000001
  endloop
endfacet
facet normal -0.0 -0.0 -0.9999999999999999
  outer loop
    vertex 290.13261483514646 13563.599999999999 5870.448000000001
    vertex 10.732614835146451 -457.2 5870.448000000001
    vertex 10.732614835146451 13563.599999999999 5870.448000000001
  endloop
endfacet
facet normal -0.0 -0.0 -0.9999999999999999
  outer loop
    vertex 10.732614835146451 -457.2 5870.448000000001
    vertex 290.13261483514646 13563.599999999999 5870.448000000001
    vertex 290.13261483514646 -457.2 5870.448000000001
  endloop
endfacet
facet normal 1.0 0.0 0.0
  outer loop
    vertex 10.732614835146451 13563.599999999999 5065.776000000001
    vertex 10.732614835146451 -457.2 5870.448000000001
    vertex 10.732614835146451 -457.2 5065.776000000001
  endloop
endfacet
facet normal 1.0 0.0 0.0
  outer loop
    vertex 10.732614835146451 -457.2 5870.448000000001
    vertex 10.732614835146451 13563.599999999999 5065.776000000001
    vertex 10.732614835146451 13563.599999999999 5870.448000000001
  endloop
endfacet
facet normal -0.0 -0.0 -0.9999999999999999
  outer loop
    vertex -40.06738516485355 13563.599999999999 5870.448000000001
    vertex -319.4673851648535 -457.2 5870.448000000001
    vertex -319.4673851648535 13563.599999999999 5870.448000000001
  endloop
endfacet
facet normal -0.0 -0.0 -0.9999999999999999
  outer loop
    vertex -319.4673851648535 -457.2 5870.448000000001
    vertex -40.06738516485355 13563.599999999999 5870.448000000001
    vertex -40.06738516485355 -457.2 5870.448000000001
  endloop
endfacet
facet normal 1.0 0.0 0.0
  outer loop
    vertex 290.13261483514646 13563.599999999999 5870.448000000001
    vertex 290.13261483514646 -457.2 5907.024000000001
    vertex 290.13261483514646 -457.2 5870.448000000001
  endloop
endfacet
facet normal 1.0 0.0 0.0
  outer loop
    vertex 290.13261483514646 -457.2 5907.024000000001
    vertex 290.13261483514646 13563.599999999999 5870.448000000001
    vertex 290.13261483514646 13563.599999999999 5907.024000000001
  endloop
endfacet
facet normal 0.0 0.0 0.9999999999999999
  outer loop
    vertex 290.13261483514646 -457.2 5907.024000000001
    vertex -319.4673851648535 13563.599999999999 5907.024000000001
    vertex -319.4673851648535 -457.2 5907.024000000001
  endloop
endfacet
facet normal 0.0 0.0 0.9999999999999999
  outer loop
    vertex -319.4673851648535 13563.599999999999 5907.024000000001
    vertex 290.13261483514646 -457.2 5907.024000000001
    vertex 290.13261483514646 13563.599999999999 5907.024000000001
  endloop
endfacet
facet normal 0.0 0.0 0.9999999999999999
  outer loop
    vertex -40.06738516485355 -457.2 5065.776000000001
    vertex -319.4673851648535 13563.599999999999 5065.776000000001
    vertex -319.4673851648535 -457.2 5065.776000000001
  endloop
endfacet
facet normal 0.0 0.0 0.9999999999999999
  outer loop
    vertex -319.4673851648535 13563.599999999999 5065.776000000001
    vertex -40.06738516485355 -457.2 5065.776000000001
    vertex -40.06738516485355 13563.599999999999 5065.776000000001
  endloop
endfacet
facet normal -1.0 0.0 0.0
  outer loop
    vertex -319.4673851648535 13563.599999999999 5065.776000000001
    vertex -319.4673851648535 -457.2 5029.200000000001
    vertex -319.4673851648535 -457.2 5065.776000000001
  endloop
endfacet
facet normal -1.0 0.0 0.0
  outer loop
    vertex -319.4673851648535 -457.2 5029.200000000001
    vertex -319.4673851648535 13563.599999999999 5065.776000000001
    vertex -319.4673851648535 13563.599999999999 5029.200000000001
  endloop
endfacet
facet normal -1.0 0.0 0.0
  outer loop
    vertex -40.06738516485355 13563.599999999999 5870.448000000001
    vertex -40.06738516485355 -457.2 5065.776000000001
    vertex -40.06738516485355 -457.2 5870.448000000001
  endloop
endfacet
facet normal -1.0 0.0 0.0
  outer loop
    vertex -40.06738516485355 -457.2 5065.776000000001
    vertex -40.06738516485355 13563.599999999999 5870.448000000001
    vertex -40.06738516485355 13563.599999999999 5065.776000000001
  endloop
endfacet
facet normal -0.0 -0.0 -0.9999999999999999
  outer loop
    vertex 290.13261483514646 13563.599999999999 5029.200000000001
    vertex -319.4673851648535 -457.2 5029.200000000001
    vertex -319.4673851648535 13563.599999999999 5029.200000000001
  endloop
endfacet
facet normal -0.0 -0.0 -0.9999999999999999
  outer loop
    vertex -319.4673851648535 -457.2 5029.200000000001
    vertex 290.13261483514646 13563.599999999999 5029.200000000001
    vertex 290.13261483514646 -457.2 5029.200000000001
  endloop
endfacet
facet normal 1.0 0.0 0.0
  outer loop
    vertex 290.13261483514646 13563.599999999999 5029.200000000001
    vertex 290.13261483514646 -457.2 5065.776000000001
    vertex 290.13261483514646 -457.2 5029.200000000001
  endloop
endfacet
facet normal 1.0 0.0 0.0
  outer loop
    vertex 290.13261483514646 -457.2 5065.776000000001
    vertex 290.13261483514646 13563.599999999999 5029.200000000001
    vertex 290.13261483514646 13563.599999999999 5065.776000000001
  endloop
endfacet
facet normal 0.0 -1.0 0.0
  outer loop
    vertex 290.13261483514646 -457.2 5907.024000000001
    vertex 10.732614835146451 -457.2 5870.448000000001
    vertex 290.13261483514646 -457.2 5870.448000000001
  endloop
endfacet
facet normal 0.0 -1.0 0.0
  outer loop
    vertex 10.732614835146451 -457.2 5870.448000000001
    vertex 290.13261483514646 -457.2 5907.024000000001
    vertex -40.06738516485355 -457.2 5870.448000000001
  endloop
endfacet
facet normal 0.0 -1.0 0.0
  outer loop
    vertex -40.06738516485355 -457.2 5870.448000000001
    vertex 290.13261483514646 -457.2 5907.024000000001
    vertex -319.4673851648535 -457.2 5870.448000000001
  endloop
endfacet
facet normal 0.0 -1.0 0.0
  outer loop
    vertex -319.4673851648535 -457.2 5870.448000000001
    vertex 290.13261483514646 -457.2 5907.024000000001
    vertex -319.4673851648535 -457.2 5907.024000000001
  endloop
endfacet
facet normal 0.0 -1.0 0.0
  outer loop
    vertex 10.732614835146451 -457.2 5870.448000000001
    vertex -40.06738516485355 -457.2 5065.776000000001
    vertex 10.732614835146451 -457.2 5065.776000000001
  endloop
endfacet
facet normal 0.0 -1.0 0.0
  outer loop
    vertex -40.06738516485355 -457.2 5065.776000000001
    vertex 10.732614835146451 -457.2 5870.448000000001
    vertex -40.06738516485355 -457.2 5870.448000000001
  endloop
endfacet
facet normal 0.0 -1.0 0.0
  outer loop
    vertex 290.13261483514646 -457.2 5065.776000000001
    vertex -319.4673851648535 -457.2 5029.200000000001
    vertex 290.13261483514646 -457.2 5029.200000000001
  endloop
endfacet
facet normal 0.0 -1.0 0.0
  outer loop
    vertex -319.4673851648535 -457.2 5029.200000000001
    vertex 290.13261483514646 -457.2 5065.776000000001
    vertex -319.4673851648535 -457.2 5065.776000000001
  endloop
endfacet
facet normal 0.0 -1.0 0.0
  outer loop
    vertex -319.4673851648535 -457.2 5065.776000000001
    vertex 290.13261483514646 -457.2 5065.776000000001
    vertex 10.732614835146451 -457.2 5065.776000000001
  endloop
endfacet
facet normal 0.0 -1.0 0.0
  outer loop
    vertex -319.4673851648535 -457.2 5065.776000000001
    vertex 10.732614835146451 -457.2 5065.776000000001
    vertex -40.06738516485355 -457.2 5065.776000000001
  endloop
endfacet
facet normal 0.0 0.0 0.9999999999999999
  outer loop
    vertex 290.13261483514646 -457.2 5065.776000000001
    vertex 10.732614835146451 13563.599999999999 5065.776000000001
    vertex 10.732614835146451 -457.2 5065.776000000001
  endloop
endfacet
facet normal 0.0 0.0 0.9999999999999999
  outer loop
    vertex 10.732614835146451 13563.599999999999 5065.776000000001
    vertex 290.13261483514646 -457.2 5065.776000000001
    vertex 290.13261483514646 13563.599999999999 5065.776000000001
  endloop
endfacet
endsolid overpass
