solid overpass
facet normal 0.0 4.996003610813203e-16 -1.0
  outer loop
    vertex -1679.0347538805402 804.6720000000025 2397.6975167492737
    vertex -1729.8347538805401 753.8720000000025 2397.6975167492737
    vertex -3624.1021390453934 804.6720000000025 2397.6975167492737
  endloop
endfacet
facet normal 0.0 4.996003610813203e-16 -1.0
  outer loop
    vertex -1729.8347538805401 753.8720000000025 2397.6975167492737
    vertex -1679.0347538805402 804.6720000000025 2397.6975167492737
    vertex -1679.0347538805402 9.023892744153272e-13 2397.6975167492733
  endloop
endfacet
facet normal 0.0 4.996003610813203e-16 -1.0
  outer loop
    vertex -1729.8347538805401 753.8720000000025 2397.6975167492737
    vertex -1679.0347538805402 9.023892744153272e-13 2397.6975167492733
    vertex -1729.8347538805401 50.8000000000009 2397.6975167492733
  endloop
endfacet
facet normal 0.0 4.996003610813203e-16 -1.0
  outer loop
    vertex -1729.8347538805401 50.8000000000009 2397.6975167492733
    vertex -1679.0347538805402 9.023892744153272e-13 2397.6975167492733
    vertex -3573.3021390453937 50.8000000000009 2397.6975167492733
  endloop
endfacet
facet normal 0.0 4.996003610813203e-16 -1.0
  outer loop
    vertex -3624.1021390453934 804.6720000000025 2397.6975167492737
    vertex -3573.3021390453937 753.8720000000025 2397.6975167492737
    vertex -3624.1021390453934 9.023892744153272e-13 2397.6975167492733
  endloop
endfacet
facet normal 0.0 4.996003610813203e-16 -1.0
  outer loop
    vertex -3573.3021390453937 753.8720000000025 2397.6975167492737
    vertex -3624.1021390453934 804.6720000000025 2397.6975167492737
    vertex -1729.8347538805401 753.8720000000025 2397.6975167492737
  endloop
endfacet
facet normal 0.0 4.996003610813203e-16 -1.0
  outer loop
    vertex -3624.1021390453934 9.023892744153272e-13 2397.6975167492733
    vertex -3573.3021390453937 753.8720000000025 2397.6975167492737
    vertex -3573.3021390453937 50.8000000000009 2397.6975167492733
  endloop
endfacet
facet normal 0.0 4.996003610813203e-16 -1.0
  outer loop
    vertex -3624.1021390453934 9.023892744153272e-13 2397.6975167492733
    vertex -3573.3021390453937 50.8000000000009 2397.6975167492733
    vertex -1679.0347538805402 9.023892744153272e-13 2397.6975167492733
  endloop
endfacet
facet normal 0.0 -4.996003610813203e-16 1.0
  outer loop
    vertex -3624.1021390453934 804.6720000000024 2550.097516749274
    vertex -3573.3021390453937 753.8720000000023 2550.097516749274
    vertex -1679.0347538805402 804.6720000000024 2550.097516749274
  endloop
endfacet
facet normal 0.0 -4.996003610813203e-16 1.0
  outer loop
    vertex -3573.3021390453937 753.8720000000023 2550.097516749274
    vertex -3624.1021390453934 804.6720000000024 2550.097516749274
    vertex -3624.1021390453934 8.121503469737945e-13 2550.0975167492734
  endloop
endfacet
facet normal 0.0 -4.996003610813203e-16 1.0
  outer loop
    vertex -3573.3021390453937 753.8720000000023 2550.097516749274
    vertex -3624.1021390453934 8.121503469737945e-13 2550.0975167492734
    vertex -3573.3021390453937 50.80000000000081 2550.0975167492734
  endloop
endfacet
facet normal 0.0 -4.996003610813203e-16 1.0
  outer loop
    vertex -3573.3021390453937 50.80000000000081 2550.0975167492734
    vertex -3624.1021390453934 8.121503469737945e-13 2550.0975167492734
    vertex -1729.8347538805401 50.80000000000081 2550.0975167492734
  endloop
endfacet
facet normal 0.0 -4.996003610813203e-16 1.0
  outer loop
    vertex -1679.0347538805402 804.6720000000024 2550.097516749274
    vertex -1729.8347538805401 753.8720000000023 2550.097516749274
    vertex -1679.0347538805402 8.121503469737945e-13 2550.0975167492734
  endloop
endfacet
facet normal 0.0 -4.996003610813203e-16 1.0
  outer loop
    vertex -1729.8347538805401 753.8720000000023 2550.097516749274
    vertex -1679.0347538805402 804.6720000000024 2550.097516749274
    vertex -3573.3021390453937 753.8720000000023 2550.097516749274
  endloop
endfacet
facet normal 0.0 -4.996003610813203e-16 1.0
  outer loop
    vertex -1679.0347538805402 8.121503469737945e-13 2550.0975167492734
    vertex -1729.8347538805401 753.8720000000023 2550.097516749274
    vertex -1729.8347538805401 50.80000000000081 2550.0975167492734
  endloop
endfacet
facet normal 0.0 -4.996003610813203e-16 1.0
  outer loop
    vertex -1679.0347538805402 8.121503469737945e-13 2550.0975167492734
    vertex -1729.8347538805401 50.80000000000081 2550.0975167492734
    vertex -3624.1021390453934 8.121503469737945e-13 2550.0975167492734
  endloop
endfacet
facet normal -0.0 1.0 4.996003610813203e-16
  outer loop
    vertex -1679.0347538805402 804.6720000000024 2550.097516749274
    vertex -3624.1021390453934 804.6720000000025 2397.6975167492737
    vertex -3624.1021390453934 804.6720000000024 2550.097516749274
  endloop
endfacet
facet normal -0.0 1.0 4.996003610813203e-16
  outer loop
    vertex -3624.1021390453934 804.6720000000025 2397.6975167492737
    vertex -1679.0347538805402 804.6720000000024 2550.097516749274
    vertex -1679.0347538805402 804.6720000000025 2397.6975167492737
  endloop
endfacet
facet normal 1.0 0.0 0.0
  outer loop
    vertex -1679.0347538805402 804.6720000000024 2550.097516749274
    vertex -1679.0347538805402 9.023892744153272e-13 2397.6975167492733
    vertex -1679.0347538805402 804.6720000000025 2397.6975167492737
  endloop
endfacet
facet normal 1.0 0.0 0.0
  outer loop
    vertex -1679.0347538805402 9.023892744153272e-13 2397.6975167492733
    vertex -1679.0347538805402 804.6720000000024 2550.097516749274
    vertex -1679.0347538805402 8.121503469737945e-13 2550.0975167492734
  endloop
endfacet
facet normal -1.0 -0.0 0.0
  outer loop
    vertex -3624.1021390453934 8.121503469737945e-13 2550.0975167492734
    vertex -3624.1021390453934 804.6720000000025 2397.6975167492737
    vertex -3624.1021390453934 9.023892744153272e-13 2397.6975167492733
  endloop
endfacet
facet normal -1.0 -0.0 0.0
  outer loop
    vertex -3624.1021390453934 804.6720000000025 2397.6975167492737
    vertex -3624.1021390453934 8.121503469737945e-13 2550.0975167492734
    vertex -3624.1021390453934 804.6720000000024 2550.097516749274
  endloop
endfacet
facet normal 0.0 -1.0 -4.996003610813203e-16
  outer loop
    vertex -1679.0347538805402 9.023892744153272e-13 2397.6975167492733
    vertex -3624.1021390453934 8.121503469737945e-13 2550.0975167492734
    vertex -3624.1021390453934 9.023892744153272e-13 2397.6975167492733
  endloop
endfacet
facet normal 0.0 -1.0 -4.996003610813203e-16
  outer loop
    vertex -3624.1021390453934 8.121503469737945e-13 2550.0975167492734
    vertex -1679.0347538805402 9.023892744153272e-13 2397.6975167492733
    vertex -1679.0347538805402 8.121503469737945e-13 2550.0975167492734
  endloop
endfacet
facet normal 0.0 -1.0 -4.996003610813203e-16
  outer loop
    vertex -1729.8347538805401 753.8720000000025 2397.6975167492737
    vertex -3573.3021390453937 753.8720000000023 2550.097516749274
    vertex -3573.3021390453937 753.8720000000025 2397.6975167492737
  endloop
endfacet
facet normal 0.0 -1.0 -4.996003610813203e-16
  outer loop
    vertex -3573.3021390453937 753.8720000000023 2550.097516749274
    vertex -1729.8347538805401 753.8720000000025 2397.6975167492737
    vertex -1729.8347538805401 753.8720000000023 2550.097516749274
  endloop
endfacet
facet normal 1.0 0.0 0.0
  outer loop
    vertex -3573.3021390453937 753.8720000000023 2550.097516749274
    vertex -3573.3021390453937 50.8000000000009 2397.6975167492733
    vertex -3573.3021390453937 753.8720000000025 2397.6975167492737
  endloop
endfacet
facet normal 1.0 0.0 0.0
  outer loop
    vertex -3573.3021390453937 50.8000000000009 2397.6975167492733
    vertex -3573.3021390453937 753.8720000000023 2550.097516749274
    vertex -3573.3021390453937 50.80000000000081 2550.0975167492734
  endloop
endfacet
facet normal -1.0 -0.0 0.0
  outer loop
    vertex -1729.8347538805401 50.80000000000081 2550.0975167492734
    vertex -1729.8347538805401 753.8720000000025 2397.6975167492737
    vertex -1729.8347538805401 50.8000000000009 2397.6975167492733
  endloop
endfacet
facet normal -1.0 -0.0 0.0
  outer loop
    vertex -1729.8347538805401 753.8720000000025 2397.6975167492737
    vertex -1729.8347538805401 50.80000000000081 2550.0975167492734
    vertex -1729.8347538805401 753.8720000000023 2550.097516749274
  endloop
endfacet
facet normal -0.0 1.0 4.996003610813203e-16
  outer loop
    vertex -1729.8347538805401 50.80000000000081 2550.0975167492734
    vertex -3573.3021390453937 50.8000000000009 2397.6975167492733
    vertex -3573.3021390453937 50.80000000000081 2550.0975167492734
  endloop
endfacet
facet normal -0.0 1.0 4.996003610813203e-16
  outer loop
    vertex -3573.3021390453937 50.8000000000009 2397.6975167492733
    vertex -1729.8347538805401 50.80000000000081 2550.0975167492734
    vertex -1729.8347538805401 50.8000000000009 2397.6975167492733
  endloop
endfacet
facet normal -0.356655658480171 0.9342359130723225 4.667445995060693e-16
  outer loop
    vertex -2723.6850601080914 402.3360000000016 2550.097516749274
    vertex -3573.3021390453937 77.98458671738568 2397.6975167492733
    vertex -3573.3021390453937 77.9845867173856 2550.0975167492734
  endloop
endfacet
facet normal -0.356655658480171 0.9342359130723225 4.667445995060693e-16
  outer loop
    vertex -3573.3021390453937 77.98458671738568 2397.6975167492733
    vertex -2723.6850601080914 402.3360000000016 2550.097516749274
    vertex -2723.6850601080914 402.33600000000166 2397.6975167492737
  endloop
endfacet
facet normal 0.35634882056585915 -0.9343529943663269 -4.668030933628298e-16
  outer loop
    vertex -2652.0228635588164 374.97810512485745 2397.6975167492733
    vertex -3502.023665442855 50.80000000000081 2550.0975167492734
    vertex -3502.023665442855 50.8000000000009 2397.6975167492733
  endloop
endfacet
facet normal 0.35634882056585915 -0.9343529943663269 -4.668030933628298e-16
  outer loop
    vertex -3502.023665442855 50.80000000000081 2550.0975167492734
    vertex -2652.0228635588164 374.97810512485745 2397.6975167492733
    vertex -2652.0228635588164 374.9781051248574 2550.097516749274
  endloop
endfacet
facet normal -0.356655658480171 -0.9342359130723225 -4.667445995060693e-16
  outer loop
    vertex -2723.6850601080914 402.33600000000166 2397.6975167492737
    vertex -3573.3021390453937 726.6874132826176 2550.097516749274
    vertex -3573.3021390453937 726.6874132826177 2397.6975167492737
  endloop
endfacet
facet normal -0.356655658480171 -0.9342359130723225 -4.667445995060693e-16
  outer loop
    vertex -3573.3021390453937 726.6874132826176 2550.097516749274
    vertex -2723.6850601080914 402.33600000000166 2397.6975167492737
    vertex -2723.6850601080914 402.3360000000016 2550.097516749274
  endloop
endfacet
facet normal -0.35665565848017133 -0.9342359130723222 -4.667445995060692e-16
  outer loop
    vertex -1802.8597538805402 50.8000000000009 2397.6975167492733
    vertex -2652.0228635588164 374.9781051248574 2550.097516749274
    vertex -2652.0228635588164 374.97810512485745 2397.6975167492733
  endloop
endfacet
facet normal -0.35665565848017133 -0.9342359130723222 -4.667445995060692e-16
  outer loop
    vertex -2652.0228635588164 374.9781051248574 2550.097516749274
    vertex -1802.8597538805402 50.8000000000009 2397.6975167492733
    vertex -1802.8597538805402 50.80000000000081 2550.0975167492734
  endloop
endfacet
facet normal 0.35634882056585915 0.9343529943663269 4.668030933628298e-16
  outer loop
    vertex -2652.0228635588164 429.6938948751458 2550.097516749274
    vertex -3502.023665442855 753.8720000000025 2397.6975167492737
    vertex -3502.023665442855 753.8720000000023 2550.097516749274
  endloop
endfacet
facet normal 0.35634882056585915 0.9343529943663269 4.668030933628298e-16
  outer loop
    vertex -3502.023665442855 753.8720000000025 2397.6975167492737
    vertex -2652.0228635588164 429.6938948751458 2550.097516749274
    vertex -2652.0228635588164 429.69389487514593 2397.6975167492737
  endloop
endfacet
facet normal -0.35665565848017133 0.9342359130723222 4.667445995060692e-16
  outer loop
    vertex -1802.8597538805402 753.8720000000023 2550.097516749274
    vertex -2652.0228635588164 429.69389487514593 2397.6975167492737
    vertex -2652.0228635588164 429.6938948751458 2550.097516749274
  endloop
endfacet
facet normal -0.35665565848017133 0.9342359130723222 4.667445995060692e-16
  outer loop
    vertex -2652.0228635588164 429.69389487514593 2397.6975167492737
    vertex -1802.8597538805402 753.8720000000023 2550.097516749274
    vertex -1802.8597538805402 753.8720000000025 2397.6975167492737
  endloop
endfacet
facet normal -1.0 4.979232995870273e-15 2.4876266026448126e-30
  outer loop
    vertex -3573.3021390453937 726.6874132826176 2550.097516749274
    vertex -3573.3021390453937 753.8720000000025 2397.6975167492737
    vertex -3573.3021390453937 726.6874132826177 2397.6975167492737
  endloop
endfacet
facet normal -1.0 4.979232995870273e-15 2.4876266026448126e-30
  outer loop
    vertex -3573.3021390453937 753.8720000000025 2397.6975167492737
    vertex -3573.3021390453937 726.6874132826176 2550.097516749274
    vertex -3573.3021390453937 753.8720000000023 2550.097516749274
  endloop
endfacet
facet normal 0.35634882056585887 -0.9343529943663269 -4.668030933628298e-16
  outer loop
    vertex -1729.8347538805401 726.6874132826177 2397.6975167492737
    vertex -2580.289972860428 402.3360000000016 2550.097516749274
    vertex -2580.289972860428 402.33600000000166 2397.6975167492737
  endloop
endfacet
facet normal 0.35634882056585887 -0.9343529943663269 -4.668030933628298e-16
  outer loop
    vertex -2580.289972860428 402.3360000000016 2550.097516749274
    vertex -1729.8347538805401 726.6874132826177 2397.6975167492737
    vertex -1729.8347538805401 726.6874132826176 2550.097516749274
  endloop
endfacet
facet normal 0.35634882056585887 0.9343529943663269 4.668030933628298e-16
  outer loop
    vertex -1729.8347538805401 77.9845867173856 2550.0975167492734
    vertex -2580.289972860428 402.33600000000166 2397.6975167492737
    vertex -2580.289972860428 402.3360000000016 2550.097516749274
  endloop
endfacet
facet normal 0.35634882056585887 0.9343529943663269 4.668030933628298e-16
  outer loop
    vertex -2580.289972860428 402.33600000000166 2397.6975167492737
    vertex -1729.8347538805401 77.9845867173856 2550.0975167492734
    vertex -1729.8347538805401 77.98458671738568 2397.6975167492733
  endloop
endfacet
facet normal 0.0 1.0 4.996003610813203e-16
  outer loop
    vertex -3502.023665442855 753.8720000000023 2550.097516749274
    vertex -3573.3021390453937 753.8720000000025 2397.6975167492737
    vertex -3573.3021390453937 753.8720000000023 2550.097516749274
  endloop
endfacet
facet normal 0.0 1.0 4.996003610813203e-16
  outer loop
    vertex -3573.3021390453937 753.8720000000025 2397.6975167492737
    vertex -3502.023665442855 753.8720000000023 2550.097516749274
    vertex -3502.023665442855 753.8720000000025 2397.6975167492737
  endloop
endfacet
facet normal 1.0 0.0 0.0
  outer loop
    vertex -1729.8347538805401 77.9845867173856 2550.0975167492734
    vertex -1729.8347538805401 50.8000000000009 2397.6975167492733
    vertex -1729.8347538805401 77.98458671738568 2397.6975167492733
  endloop
endfacet
facet normal 1.0 0.0 0.0
  outer loop
    vertex -1729.8347538805401 50.8000000000009 2397.6975167492733
    vertex -1729.8347538805401 77.9845867173856 2550.0975167492734
    vertex -1729.8347538805401 50.80000000000081 2550.0975167492734
  endloop
endfacet
facet normal 0.0 -4.996003610813203e-16 1.0
  outer loop
    vertex -3573.3021390453937 726.6874132826176 2550.097516749274
    vertex -3502.023665442855 753.8720000000023 2550.097516749274
    vertex -3573.3021390453937 753.8720000000023 2550.097516749274
  endloop
endfacet
facet normal 0.0 -4.996003610813203e-16 1.0
  outer loop
    vertex -3502.023665442855 753.8720000000023 2550.097516749274
    vertex -3573.3021390453937 726.6874132826176 2550.097516749274
    vertex -2652.0228635588164 429.6938948751458 2550.097516749274
  endloop
endfacet
facet normal 0.0 -4.996003610813203e-16 1.0
  outer loop
    vertex -2652.0228635588164 429.6938948751458 2550.097516749274
    vertex -3573.3021390453937 726.6874132826176 2550.097516749274
    vertex -2723.6850601080914 402.3360000000016 2550.097516749274
  endloop
endfacet
facet normal 0.0 -4.996003610813203e-16 1.0
  outer loop
    vertex -2652.0228635588164 429.6938948751458 2550.097516749274
    vertex -1729.8347538805401 753.8720000000023 2550.097516749274
    vertex -1802.8597538805402 753.8720000000023 2550.097516749274
  endloop
endfacet
facet normal 0.0 -4.996003610813203e-16 1.0
  outer loop
    vertex -1729.8347538805401 753.8720000000023 2550.097516749274
    vertex -2652.0228635588164 429.6938948751458 2550.097516749274
    vertex -1729.8347538805401 726.6874132826176 2550.097516749274
  endloop
endfacet
facet normal 0.0 -4.996003610813203e-16 1.0
  outer loop
    vertex -1729.8347538805401 726.6874132826176 2550.097516749274
    vertex -2652.0228635588164 429.6938948751458 2550.097516749274
    vertex -2580.289972860428 402.3360000000016 2550.097516749274
  endloop
endfacet
facet normal 0.0 -4.996003610813203e-16 1.0
  outer loop
    vertex -2580.289972860428 402.3360000000016 2550.097516749274
    vertex -2652.0228635588164 429.6938948751458 2550.097516749274
    vertex -2723.6850601080914 402.3360000000016 2550.097516749274
  endloop
endfacet
facet normal 0.0 -4.996003610813203e-16 1.0
  outer loop
    vertex -2580.289972860428 402.3360000000016 2550.097516749274
    vertex -2723.6850601080914 402.3360000000016 2550.097516749274
    vertex -3573.3021390453937 77.9845867173856 2550.0975167492734
  endloop
endfacet
facet normal 0.0 -4.996003610813203e-16 1.0
  outer loop
    vertex -2580.289972860428 402.3360000000016 2550.097516749274
    vertex -3573.3021390453937 77.9845867173856 2550.0975167492734
    vertex -2652.0228635588164 374.9781051248574 2550.097516749274
  endloop
endfacet
facet normal 0.0 -4.996003610813203e-16 1.0
  outer loop
    vertex -2652.0228635588164 374.9781051248574 2550.097516749274
    vertex -3573.3021390453937 77.9845867173856 2550.0975167492734
    vertex -3502.023665442855 50.80000000000081 2550.0975167492734
  endloop
endfacet
facet normal 0.0 -4.996003610813203e-16 1.0
  outer loop
    vertex -3502.023665442855 50.80000000000081 2550.0975167492734
    vertex -3573.3021390453937 77.9845867173856 2550.0975167492734
    vertex -3573.3021390453937 50.80000000000081 2550.0975167492734
  endloop
endfacet
facet normal 0.0 -4.996003610813203e-16 1.0
  outer loop
    vertex -2652.0228635588164 374.9781051248574 2550.097516749274
    vertex -1729.8347538805401 77.9845867173856 2550.0975167492734
    vertex -2580.289972860428 402.3360000000016 2550.097516749274
  endloop
endfacet
facet normal 0.0 -4.996003610813203e-16 1.0
  outer loop
    vertex -1729.8347538805401 77.9845867173856 2550.0975167492734
    vertex -2652.0228635588164 374.9781051248574 2550.097516749274
    vertex -1802.8597538805402 50.80000000000081 2550.0975167492734
  endloop
endfacet
facet normal 0.0 -4.996003610813203e-16 1.0
  outer loop
    vertex -1729.8347538805401 77.9845867173856 2550.0975167492734
    vertex -1802.8597538805402 50.80000000000081 2550.0975167492734
    vertex -1729.8347538805401 50.80000000000081 2550.0975167492734
  endloop
endfacet
facet normal -1.0 -4.979232995870273e-15 -2.4876266026448126e-30
  outer loop
    vertex -3573.3021390453937 50.80000000000081 2550.0975167492734
    vertex -3573.3021390453937 77.98458671738568 2397.6975167492733
    vertex -3573.3021390453937 50.8000000000009 2397.6975167492733
  endloop
endfacet
facet normal -1.0 -4.979232995870273e-15 -2.4876266026448126e-30
  outer loop
    vertex -3573.3021390453937 77.98458671738568 2397.6975167492733
    vertex -3573.3021390453937 50.80000000000081 2550.0975167492734
    vertex -3573.3021390453937 77.9845867173856 2550.0975167492734
  endloop
endfacet
facet normal 0.0 4.996003610813203e-16 -1.0
  outer loop
    vertex -1729.8347538805401 726.6874132826177 2397.6975167492737
    vertex -1802.8597538805402 753.8720000000025 2397.6975167492737
    vertex -1729.8347538805401 753.8720000000025 2397.6975167492737
  endloop
endfacet
facet normal 0.0 4.996003610813203e-16 -1.0
  outer loop
    vertex -1802.8597538805402 753.8720000000025 2397.6975167492737
    vertex -1729.8347538805401 726.6874132826177 2397.6975167492737
    vertex -2652.0228635588164 429.69389487514593 2397.6975167492737
  endloop
endfacet
facet normal 0.0 4.996003610813203e-16 -1.0
  outer loop
    vertex -2652.0228635588164 429.69389487514593 2397.6975167492737
    vertex -1729.8347538805401 726.6874132826177 2397.6975167492737
    vertex -2580.289972860428 402.33600000000166 2397.6975167492737
  endloop
endfacet
facet normal 0.0 4.996003610813203e-16 -1.0
  outer loop
    vertex -2652.0228635588164 429.69389487514593 2397.6975167492737
    vertex -3573.3021390453937 753.8720000000025 2397.6975167492737
    vertex -3502.023665442855 753.8720000000025 2397.6975167492737
  endloop
endfacet
facet normal 0.0 4.996003610813203e-16 -1.0
  outer loop
    vertex -3573.3021390453937 753.8720000000025 2397.6975167492737
    vertex -2652.0228635588164 429.69389487514593 2397.6975167492737
    vertex -3573.3021390453937 726.6874132826177 2397.6975167492737
  endloop
endfacet
facet normal 0.0 4.996003610813203e-16 -1.0
  outer loop
    vertex -3573.3021390453937 726.6874132826177 2397.6975167492737
    vertex -2652.0228635588164 429.69389487514593 2397.6975167492737
    vertex -2723.6850601080914 402.33600000000166 2397.6975167492737
  endloop
endfacet
facet normal 0.0 4.996003610813203e-16 -1.0
  outer loop
    vertex -2723.6850601080914 402.33600000000166 2397.6975167492737
    vertex -2652.0228635588164 429.69389487514593 2397.6975167492737
    vertex -2580.289972860428 402.33600000000166 2397.6975167492737
  endloop
endfacet
facet normal 0.0 4.996003610813203e-16 -1.0
  outer loop
    vertex -2723.6850601080914 402.33600000000166 2397.6975167492737
    vertex -2580.289972860428 402.33600000000166 2397.6975167492737
    vertex -1729.8347538805401 77.98458671738568 2397.6975167492733
  endloop
endfacet
facet normal 0.0 4.996003610813203e-16 -1.0
  outer loop
    vertex -2723.6850601080914 402.33600000000166 2397.6975167492737
    vertex -1729.8347538805401 77.98458671738568 2397.6975167492733
    vertex -2652.0228635588164 374.97810512485745 2397.6975167492733
  endloop
endfacet
facet normal 0.0 4.996003610813203e-16 -1.0
  outer loop
    vertex -2652.0228635588164 374.97810512485745 2397.6975167492733
    vertex -1729.8347538805401 77.98458671738568 2397.6975167492733
    vertex -1802.8597538805402 50.8000000000009 2397.6975167492733
  endloop
endfacet
facet normal 0.0 4.996003610813203e-16 -1.0
  outer loop
    vertex -1802.8597538805402 50.8000000000009 2397.6975167492733
    vertex -1729.8347538805401 77.98458671738568 2397.6975167492733
    vertex -1729.8347538805401 50.8000000000009 2397.6975167492733
  endloop
endfacet
facet normal 0.0 4.996003610813203e-16 -1.0
  outer loop
    vertex -2652.0228635588164 374.97810512485745 2397.6975167492733
    vertex -3573.3021390453937 77.98458671738568 2397.6975167492733
    vertex -2723.6850601080914 402.33600000000166 2397.6975167492737
  endloop
endfacet
facet normal 0.0 4.996003610813203e-16 -1.0
  outer loop
    vertex -3573.3021390453937 77.98458671738568 2397.6975167492733
    vertex -2652.0228635588164 374.97810512485745 2397.6975167492733
    vertex -3502.023665442855 50.8000000000009 2397.6975167492733
  endloop
endfacet
facet normal 0.0 4.996003610813203e-16 -1.0
  outer loop
    vertex -3573.3021390453937 77.98458671738568 2397.6975167492733
    vertex -3502.023665442855 50.8000000000009 2397.6975167492733
    vertex -3573.3021390453937 50.8000000000009 2397.6975167492733
  endloop
endfacet
facet normal 0.0 -1.0 -4.996003610813203e-16
  outer loop
    vertex -3502.023665442855 50.8000000000009 2397.6975167492733
    vertex -3573.3021390453937 50.80000000000081 2550.0975167492734
    vertex -3573.3021390453937 50.8000000000009 2397.6975167492733
  endloop
endfacet
facet normal 0.0 -1.0 -4.996003610813203e-16
  outer loop
    vertex -3573.3021390453937 50.80000000000081 2550.0975167492734
    vertex -3502.023665442855 50.8000000000009 2397.6975167492733
    vertex -3502.023665442855 50.80000000000081 2550.0975167492734
  endloop
endfacet
facet normal -0.0 1.0 4.996003610813203e-16
  outer loop
    vertex -1729.8347538805401 753.8720000000023 2550.097516749274
    vertex -1802.8597538805402 753.8720000000025 2397.6975167492737
    vertex -1802.8597538805402 753.8720000000023 2550.097516749274
  endloop
endfacet
facet normal -0.0 1.0 4.996003610813203e-16
  outer loop
    vertex -1802.8597538805402 753.8720000000025 2397.6975167492737
    vertex -1729.8347538805401 753.8720000000023 2550.097516749274
    vertex -1729.8347538805401 753.8720000000025 2397.6975167492737
  endloop
endfacet
facet normal 1.0 0.0 0.0
  outer loop
    vertex -1729.8347538805401 753.8720000000023 2550.097516749274
    vertex -1729.8347538805401 726.6874132826177 2397.6975167492737
    vertex -1729.8347538805401 753.8720000000025 2397.6975167492737
  endloop
endfacet
facet normal 1.0 0.0 0.0
  outer loop
    vertex -1729.8347538805401 726.6874132826177 2397.6975167492737
    vertex -1729.8347538805401 753.8720000000023 2550.097516749274
    vertex -1729.8347538805401 726.6874132826176 2550.097516749274
  endloop
endfacet
facet normal 0.0 -1.0 -4.996003610813203e-16
  outer loop
    vertex -1729.8347538805401 50.8000000000009 2397.6975167492733
    vertex -1802.8597538805402 50.80000000000081 2550.0975167492734
    vertex -1802.8597538805402 50.8000000000009 2397.6975167492733
  endloop
endfacet
facet normal 0.0 -1.0 -4.996003610813203e-16
  outer loop
    vertex -1802.8597538805402 50.80000000000081 2550.0975167492734
    vertex -1729.8347538805401 50.8000000000009 2397.6975167492733
    vertex -1729.8347538805401 50.80000000000081 2550.0975167492734
  endloop
endfacet
endsolid overpass
