solid overpass
facet normal -1.0 0.0 0.0
  outer loop
    vertex 3681.032614835146 13563.599999999999 5907.024000000001
    vertex 3681.032614835146 6398.2556185345 5870.448000000001
    vertex 3681.032614835146 6398.2556185345 5907.024000000001
  endloop
endfacet
facet normal -1.0 0.0 0.0
  outer loop
    vertex 3681.032614835146 6398.2556185345 5870.448000000001
    vertex 3681.032614835146 13563.599999999999 5907.024000000001
    vertex 3681.032614835146 13563.599999999999 5870.448000000001
  endloop
endfacet
facet normal 0.0 0.0 -1.0
  outer loop
    vertex 3960.432614835146 13563.599999999999 5870.448000000001
    vertex 3681.032614835146 6398.2556185345 5870.448000000001
    vertex 3681.032614835146 13563.599999999999 5870.448000000001
  endloop
endfacet
facet normal 0.0 0.0 -1.0
  outer loop
    vertex 3681.032614835146 6398.2556185345 5870.448000000001
    vertex 3960.432614835146 13563.599999999999 5870.448000000001
    vertex 3960.432614835146 6398.2556185345 5870.448000000001
  endloop
endfacet
facet normal 0.0 0.0 1.0
  outer loop
    vertex 4290.632614835145 6398.2556185345 5907.024000000001
    vertex 3681.032614835146 13563.599999999999 5907.024000000001
    vertex 3681.032614835146 6398.2556185345 5907.024000000001
  endloop
endfacet
facet normal 0.0 0.0 1.0
  outer loop
    vertex 3681.032614835146 13563.599999999999 5907.024000000001
    vertex 4290.632614835145 6398.2556185345 5907.024000000001
    vertex 4290.632614835145 13563.599999999999 5907.024000000001
  endloop
endfacet
facet normal 0.0 0.0 1.0
  outer loop
    vertex 3960.432614835146 6398.2556185345 5065.776000000001
    vertex 3681.032614835146 13563.599999999999 5065.776000000001
    vertex 3681.032614835146 6398.2556185345 5065.776000000001
  endloop
endfacet
facet normal 0.0 0.0 1.0
  outer loop
    vertex 3681.032614835146 13563.599999999999 5065.776000000001
    vertex 3960.432614835146 6398.2556185345 5065.776000000001
    vertex 3960.432614835146 13563.599999999999 5065.776000000001
  endloop
endfacet
facet normal 0.0 0.0 -1.0
  outer loop
    vertex 4290.632614835145 13563.599999999999 5870.448000000001
    vertex 4011.232614835146 6398.2556185345 5870.448000000001
    vertex 4011.232614835146 13563.599999999999 5870.448000000001
  endloop
endfacet
facet normal 0.0 0.0 -1.0
  outer loop
    vertex 4011.232614835146 6398.2556185345 5870.448000000001
    vertex 4290.632614835145 13563.599999999999 5870.448000000001
    vertex 4290.632614835145 6398.2556185345 5870.448000000001
  endloop
endfacet
facet normal 0.0 -1.0 0.0
  outer loop
    vertex 4290.632614835145 6398.2556185345 5907.024000000001
    vertex 4011.232614835146 6398.2556185345 5870.448000000001
    vertex 4290.632614835145 6398.2556185345 5870.448000000001
  endloop
endfacet
facet normal 0.0 -1.0 0.0
  outer loop
    vertex 4011.232614835146 6398.2556185345 5870.448000000001
    vertex 4290.632614835145 6398.2556185345 5907.024000000001
    vertex 3960.432614835146 6398.2556185345 5870.448000000001
  endloop
endfacet
facet normal 0.0 -1.0 0.0
  outer loop
    vertex 3960.432614835146 6398.2556185345 5870.448000000001
    vertex 4290.632614835145 6398.2556185345 5907.024000000001
    vertex 3681.032614835146 6398.2556185345 5870.448000000001
  endloop
endfacet
facet normal 0.0 -1.0 0.0
  outer loop
    vertex 3681.032614835146 6398.2556185345 5870.448000000001
    vertex 4290.632614835145 6398.2556185345 5907.024000000001
    vertex 3681.032614835146 6398.2556185345 5907.024000000001
  endloop
endfacet
facet normal 0.0 -1.0 0.0
  outer loop
    vertex 4011.232614835146 6398.2556185345 5870.448000000001
    vertex 3960.432614835146 6398.2556185345 5065.776000000001
    vertex 4011.232614835146 6398.2556185345 5065.776000000001
  endloop
endfacet
facet normal 0.0 -1.0 0.0
  outer loop
    vertex 3960.432614835146 6398.2556185345 5065.776000000001
    vertex 4011.232614835146 6398.2556185345 5870.448000000001
    vertex 3960.432614835146 6398.2556185345 5870.448000000001
  endloop
endfacet
facet normal 0.0 -1.0 0.0
  outer loop
    vertex 4290.632614835145 6398.2556185345 5065.776000000001
    vertex 3681.032614835146 6398.2556185345 5029.200000000001
    vertex 4290.632614835145 6398.2556185345 5029.200000000001
  endloop
endfacet
facet normal 0.0 -1.0 0.0
  outer loop
    vertex 3681.032614835146 6398.2556185345 5029.200000000001
    vertex 4290.632614835145 6398.2556185345 5065.776000000001
    vertex 3681.032614835146 6398.2556185345 5065.776000000001
  endloop
endfacet
facet normal 0.0 -1.0 0.0
  outer loop
    vertex 3681.032614835146 6398.2556185345 5065.776000000001
    vertex 4290.632614835145 6398.2556185345 5065.776000000001
    vertex 4011.232614835146 6398.2556185345 5065.776000000001
  endloop
endfacet
facet normal 0.0 -1.0 0.0
  outer loop
    vertex 3681.032614835146 6398.2556185345 5065.776000000001
    vertex 4011.232614835146 6398.2556185345 5065.776000000001
    vertex 3960.432614835146 6398.2556185345 5065.776000000001
  endloop
endfacet
facet normal 0.0 0.0 -1.0
  outer loop
    vertex 4290.632614835145 13563.599999999999 5029.200000000001
    vertex 3681.032614835146 6398.2556185345 5029.200000000001
    vertex 3681.032614835146 13563.599999999999 5029.200000000001
  endloop
endfacet
facet normal 0.0 0.0 -1.0
  outer loop
    vertex 3681.032614835146 6398.2556185345 5029.200000000001
    vertex 4290.632614835145 13563.599999999999 5029.200000000001
    vertex 4290.632614835145 6398.2556185345 5029.200000000001
  endloop
endfacet
facet normal 0.0 0.0 1.0
  outer loop
    vertex 4290.632614835145 6398.2556185345 5065.776000000001
    vertex 4011.232614835146 13563.599999999999 5065.776000000001
    vertex 4011.232614835146 6398.2556185345 5065.776000000001
  endloop
endfacet
facet normal 0.0 0.0 1.0
  outer loop
    vertex 4011.232614835146 13563.599999999999 5065.776000000001
    vertex 4290.632614835145 6398.2556185345 5065.776000000001
    vertex 4290.632614835145 13563.599999999999 5065.776000000001
  endloop
endfacet
facet normal 1.0 0.0 0.0
  outer loop
    vertex 4290.632614835145 13563.599999999999 5870.448000000001
    vertex 4290.632614835145 6398.2556185345 5907.024000000001
    vertex 4290.632614835145 6398.2556185345 5870.448000000001
  endloop
endfacet
facet normal 1.0 0.0 0.0
  outer loop
    vertex 4290.632614835145 6398.2556185345 5907.024000000001
    vertex 4290.632614835145 13563.599999999999 5870.448000000001
    vertex 4290.632614835145 13563.599999999999 5907.024000000001
  endloop
endfacet
facet normal 1.0 0.0 0.0
  outer loop
    vertex 4011.232614835146 13563.599999999999 5065.776000000001
    vertex 4011.232614835146 6398.2556185345 5870.448000000001
    vertex 4011.232614835146 6398.2556185345 5065.776000000001
  endloop
endfacet
facet normal 1.0 0.0 0.0
  outer loop
    vertex 4011.232614835146 6398.2556185345 5870.448000000001
    vertex 4011.232614835146 13563.599999999999 5065.776000000001
    vertex 4011.232614835146 13563.599999999999 5870.448000000001
  endloop
endfacet
facet normal 0.0 1.0 0.0
  outer loop
    vertex 3681.032614835146 13563.599999999999 5907.024000000001
    vertex 3960.432614835146 13563.599999999999 5870.448000000001
    vertex 3681.032614835146 13563.599999999999 5870.448000000001
  endloop
endfacet
facet normal 0.0 1.0 0.0
  outer loop
    vertex 3960.432614835146 13563.599999999999 5870.448000000001
    vertex 3681.032614835146 13563.599999999999 5907.024000000001
    vertex 4011.232614835146 13563.599999999999 5870.448000000001
  endloop
endfacet
facet normal 0.0 1.0 0.0
  outer loop
    vertex 4011.232614835146 13563.599999999999 5870.448000000001
    vertex 3681.032614835146 13563.599999999999 5907.024000000001
    vertex 4290.632614835145 13563.599999999999 5870.448000000001
  endloop
endfacet
facet normal 0.0 1.0 0.0
  outer loop
    vertex 4290.632614835145 13563.599999999999 5870.448000000001
    vertex 3681.032614835146 13563.599999999999 5907.024000000001
    vertex 4290.632614835145 13563.599999999999 5907.024000000001
  endloop
endfacet
facet normal 0.0 1.0 0.0
  outer loop
    vertex 3960.432614835146 13563.599999999999 5870.448000000001
    vertex 4011.232614835146 13563.599999999999 5065.776000000001
    vertex 3960.432614835146 13563.599999999999 5065.776000000001
  endloop
endfacet
facet normal 0.0 1.0 0.0
  outer loop
    vertex 4011.232614835146 13563.599999999999 5065.776000000001
    vertex 3960.432614835146 13563.599999999999 5870.448000000001
    vertex 4011.232614835146 13563.599999999999 5870.448000000001
  endloop
endfacet
facet normal 0.0 1.0 0.0
  outer loop
    vertex 3681.032614835146 13563.599999999999 5065.776000000001
    vertex 4290.632614835145 13563.599999999999 5029.200000000001
    vertex 3681.032614835146 13563.599999999999 5029.200000000001
  endloop
endfacet
facet normal 0.0 1.0 0.0
  outer loop
    vertex 4290.632614835145 13563.599999999999 5029.200000000001
    vertex 3681.032614835146 13563.599999999999 5065.776000000001
    vertex 4290.632614835145 13563.599999999999 5065.776000000001
  endloop
endfacet
facet normal 0.0 1.0 0.0
  outer loop
    vertex 4290.632614835145 13563.599999999999 5065.776000000001
    vertex 3681.032614835146 13563.599999999999 5065.776000000001
    vertex 3960.432614835146 13563.599999999999 5065.776000000001
  endloop
endfacet
facet normal 0.0 1.0 0.0
  outer loop
    vertex 4290.632614835145 13563.599999999999 5065.776000000001
    vertex 3960.432614835146 13563.599999999999 5065.776000000001
    vertex 4011.232614835146 13563.599999999999 5065.776000000001
  endloop
endfacet
facet normal 1.0 0.0 0.0
  outer loop
    vertex 4290.632614835145 13563.599999999999 5029.200000000001
    vertex 4290.632614835145 6398.2556185345 5065.776000000001
    vertex 4290.632614835145 6398.2556185345 5029.200000000001
  endloop
endfacet
facet normal 1.0 0.0 0.0
  outer loop
    vertex 4290.632614835145 6398.2556185345 5065.776000000001
    vertex 4290.632614835145 13563.599999999999 5029.200000000001
    vertex 4290.632614835145 13563.599999999999 5065.776000000001
  endloop
endfacet
facet normal -1.0 0.0 0.0
  outer loop
    vertex 3681.032614835146 13563.599999999999 5065.776000000001
    vertex 3681.032614835146 6398.2556185345 5029.200000000001
    vertex 3681.032614835146 6398.2556185345 5065.776000000001
  endloop
endfacet
facet normal -1.0 0.0 0.0
  outer loop
    vertex 3681.032614835146 6398.2556185345 5029.200000000001
    vertex 3681.032614835146 13563.599999999999 5065.776000000001
    vertex 3681.032614835146 13563.599999999999 5029.200000000001
  endloop
endfacet
facet normal -1.0 0.0 0.0
  outer loop
    vertex 3960.432614835146 13563.599999999999 5870.448000000001
    vertex 3960.432614835146 6398.2556185345 5065.776000000001
    vertex 3960.432614835146 6398.2556185345 5870.448000000001
  endloop
endfacet
facet normal -1.0 0.0 0.0
  outer loop
    vertex 3960.432614835146 6398.2556185345 5065.776000000001
    vertex 3960.432614835146 13563.599999999999 5870.448000000001
    vertex 3960.432614835146 13563.599999999999 5065.776000000001
  endloop
endfacet
facet normal 1.0 0.0 0.0
  outer loop
    vertex 2006.6 13563.599999999999 5065.776
    vertex 2006.6 6398.2556185345 5870.447999999999
    vertex 2006.6 6398.2556185345 5065.776
  endloop
endfacet
facet normal 1.0 0.0 0.0
  outer loop
    vertex 2006.6 6398.2556185345 5870.447999999999
    vertex 2006.6 13563.599999999999 5065.776
    vertex 2006.6 13563.599999999999 5870.447999999999
  endloop
endfacet
facet normal -1.0 0.0 0.0
  outer loop
    vertex 1676.3999999999999 13563.599999999999 5065.776
    vertex 1676.3999999999999 6398.2556185345 5029.2
    vertex 1676.3999999999999 6398.2556185345 5065.776
  endloop
endfacet
facet normal -1.0 0.0 0.0
  outer loop
    vertex 1676.3999999999999 6398.2556185345 5029.2
    vertex 1676.3999999999999 13563.599999999999 5065.776
    vertex 1676.3999999999999 13563.599999999999 5029.2
  endloop
endfacet
facet normal 0.0 0.0 1.0
  outer loop
    vertex 1955.8 6398.2556185345 5065.776
    vertex 1676.3999999999999 13563.599999999999 5065.776
    vertex 1676.3999999999999 6398.2556185345 5065.776
  endloop
endfacet
facet normal 0.0 0.0 1.0
  outer loop
    vertex 1676.3999999999999 13563.599999999999 5065.776
    vertex 1955.8 6398.2556185345 5065.776
    vertex 1955.8 13563.599999999999 5065.776
  endloop
endfacet
facet normal 0.0 0.0 1.0
  outer loop
    vertex 2286.0 6398.2556185345 5907.023999999999
    vertex 1676.3999999999999 13563.599999999999 5907.023999999999
    vertex 1676.3999999999999 6398.2556185345 5907.023999999999
  endloop
endfacet
facet normal 0.0 0.0 1.0
  outer loop
    vertex 1676.3999999999999 13563.599999999999 5907.023999999999
    vertex 2286.0 6398.2556185345 5907.023999999999
    vertex 2286.0 13563.599999999999 5907.023999999999
  endloop
endfacet
facet normal 1.0 0.0 0.0
  outer loop
    vertex 2286.0 13563.599999999999 5029.2
    vertex 2286.0 6398.2556185345 5065.776
    vertex 2286.0 6398.2556185345 5029.2
  endloop
endfacet
facet normal 1.0 0.0 0.0
  outer loop
    vertex 2286.0 6398.2556185345 5065.776
    vertex 2286.0 13563.599999999999 5029.2
    vertex 2286.0 13563.599999999999 5065.776
  endloop
endfacet
facet normal 0.0 0.0 -1.0
  outer loop
    vertex 1955.8 13563.599999999999 5870.447999999999
    vertex 1676.3999999999999 6398.2556185345 5870.447999999999
    vertex 1676.3999999999999 13563.599999999999 5870.447999999999
  endloop
endfacet
facet normal 0.0 0.0 -1.0
  outer loop
    vertex 1676.3999999999999 6398.2556185345 5870.447999999999
    vertex 1955.8 13563.599999999999 5870.447999999999
    vertex 1955.8 6398.2556185345 5870.447999999999
  endloop
endfacet
facet normal 0.0 0.0 -1.0
  outer loop
    vertex 2286.0 13563.599999999999 5870.447999999999
    vertex 2006.6 6398.2556185345 5870.447999999999
    vertex 2006.6 13563.599999999999 5870.447999999999
  endloop
endfacet
facet normal 0.0 0.0 -1.0
  outer loop
    vertex 2006.6 6398.2556185345 5870.447999999999
    vertex 2286.0 13563.599999999999 5870.447999999999
    vertex 2286.0 6398.2556185345 5870.447999999999
  endloop
endfacet
facet normal 1.0 0.0 0.0
  outer loop
    vertex 2286.0 13563.599999999999 5870.447999999999
    vertex 2286.0 6398.2556185345 5907.023999999999
    vertex 2286.0 6398.2556185345 5870.447999999999
  endloop
endfacet
facet normal 1.0 0.0 0.0
  outer loop
    vertex 2286.0 6398.2556185345 5907.023999999999
    vertex 2286.0 13563.599999999999 5870.447999999999
    vertex 2286.0 13563.599999999999 5907.023999999999
  endloop
endfacet
facet normal 0.0 0.0 1.0
  outer loop
    vertex 2286.0 6398.2556185345 5065.776
    vertex 2006.6 13563.599999999999 5065.776
    vertex 2006.6 6398.2556185345 5065.776
  endloop
endfacet
facet normal 0.0 0.0 1.0
  outer loop
    vertex 2006.6 13563.599999999999 5065.776
    vertex 2286.0 6398.2556185345 5065.776
    vertex 2286.0 13563.599999999999 5065.776
  endloop
endfacet
facet normal -1.0 0.0 0.0
  outer loop
    vertex 1955.8 13563.599999999999 5870.447999999999
    vertex 1955.8 6398.2556185345 5065.776
    vertex 1955.8 6398.2556185345 5870.447999999999
  endloop
endfacet
facet normal -1.0 0.0 0.0
  outer loop
    vertex 1955.8 6398.2556185345 5065.776
    vertex 1955.8 13563.599999999999 5870.447999999999
    vertex 1955.8 13563.599999999999 5065.776
  endloop
endfacet
facet normal 0.0 0.0 -1.0
  outer loop
    vertex 2286.0 13563.599999999999 5029.2
    vertex 1676.3999999999999 6398.2556185345 5029.2
    vertex 1676.3999999999999 13563.599999999999 5029.2
  endloop
endfacet
facet normal 0.0 0.0 -1.0
  outer loop
    vertex 1676.3999999999999 6398.2556185345 5029.2
    vertex 2286.0 13563.599999999999 5029.2
    vertex 2286.0 6398.2556185345 5029.2
  endloop
endfacet
facet normal 0.0 -1.0 0.0
  outer loop
    vertex 2286.0 6398.2556185345 5907.023999999999
    vertex 2006.6 6398.2556185345 5870.447999999999
    vertex 2286.0 6398.2556185345 5870.447999999999
  endloop
endfacet
facet normal 0.0 -1.0 0.0
  outer loop
    vertex 2006.6 6398.2556185345 5870.447999999999
    vertex 2286.0 6398.2556185345 5907.023999999999
    vertex 1955.8 6398.2556185345 5870.447999999999
  endloop
endfacet
facet normal 0.0 -1.0 0.0
  outer loop
    vertex 1955.8 6398.2556185345 5870.447999999999
    vertex 2286.0 6398.2556185345 5907.023999999999
    vertex 1676.3999999999999 6398.2556185345 5870.447999999999
  endloop
endfacet
facet normal 0.0 -1.0 0.0
  outer loop
    vertex 1676.3999999999999 6398.2556185345 5870.447999999999
    vertex 2286.0 6398.2556185345 5907.023999999999
    vertex 1676.3999999999999 6398.2556185345 5907.023999999999
  endloop
endfacet
facet normal 0.0 -1.0 0.0
  outer loop
    vertex 2006.6 6398.2556185345 5870.447999999999
    vertex 1955.8 6398.2556185345 5065.776
    vertex 2006.6 6398.2556185345 5065.776
  endloop
endfacet
facet normal 0.0 -1.0 0.0
  outer loop
    vertex 1955.8 6398.2556185345 5065.776
    vertex 2006.6 6398.2556185345 5870.447999999999
    vertex 1955.8 6398.2556185345 5870.447999999999
  endloop
endfacet
facet normal 0.0 -1.0 0.0
  outer loop
    vertex 2286.0 6398.2556185345 5065.776
    vertex 1676.3999999999999 6398.2556185345 5029.2
    vertex 2286.0 6398.2556185345 5029.2
  endloop
endfacet
facet normal 0.0 -1.0 0.0
  outer loop
    vertex 1676.3999999999999 6398.2556185345 5029.2
    vertex 2286.0 6398.2556185345 5065.776
    vertex 1676.3999999999999 6398.2556185345 5065.776
  endloop
endfacet
facet normal 0.0 -1.0 0.0
  outer loop
    vertex 1676.3999999999999 6398.2556185345 5065.776
    vertex 2286.0 6398.2556185345 5065.776
    vertex 2006.6 6398.2556185345 5065.776
  endloop
endfacet
facet normal 0.0 -1.0 0.0
  outer loop
    vertex 1676.3999999999999 6398.2556185345 5065.776
    vertex 2006.6 6398.2556185345 5065.776
    vertex 1955.8 6398.2556185345 5065.776
  endloop
endfacet
facet normal -1.0 0.0 0.0
  outer loop
    vertex 1676.3999999999999 13563.599999999999 5907.023999999999
    vertex 1676.3999999999999 6398.2556185345 5870.447999999999
    vertex 1676.3999999999999 6398.2556185345 5907.023999999999
  endloop
endfacet
facet normal -1.0 0.0 0.0
  outer loop
    vertex 1676.3999999999999 6398.2556185345 5870.447999999999
    vertex 1676.3999999999999 13563.599999999999 5907.023999999999
    vertex 1676.3999999999999 13563.599999999999 5870.447999999999
  endloop
endfacet
facet normal 0.0 1.0 0.0
  outer loop
    vertex 1676.3999999999999 13563.599999999999 5907.023999999999
    vertex 1955.8 13563.599999999999 5870.447999999999
    vertex 1676.3999999999999 13563.599999999999 5870.447999999999
  endloop
endfacet
facet normal 0.0 1.0 0.0
  outer loop
    vertex 1955.8 13563.599999999999 5870.447999999999
    vertex 1676.3999999999999 13563.599999999999 5907.023999999999
    vertex 2006.6 13563.599999999999 5870.447999999999
  endloop
endfacet
facet normal 0.0 1.0 0.0
  outer loop
    vertex 2006.6 13563.599999999999 5870.447999999999
    vertex 1676.3999999999999 13563.599999999999 5907.023999999999
    vertex 2286.0 13563.599999999999 5870.447999999999
  endloop
endfacet
facet normal 0.0 1.0 0.0
  outer loop
    vertex 2286.0 13563.599999999999 5870.447999999999
    vertex 1676.3999999999999 13563.599999999999 5907.023999999999
    vertex 2286.0 13563.599999999999 5907.023999999999
  endloop
endfacet
facet normal 0.0 1.0 0.0
  outer loop
    vertex 1955.8 13563.599999999999 5870.447999999999
    vertex 2006.6 13563.599999999999 5065.776
    vertex 1955.8 13563.599999999999 5065.776
  endloop
endfacet
facet normal 0.0 1.0 0.0
  outer loop
    vertex 2006.6 13563.599999999999 5065.776
    vertex 1955.8 13563.599999999999 5870.447999999999
    vertex 2006.6 13563.599999999999 5870.447999999999
  endloop
endfacet
facet normal 0.0 1.0 0.0
  outer loop
    vertex 1676.3999999999999 13563.599999999999 5065.776
    vertex 2286.0 13563.599999999999 5029.2
    vertex 1676.3999999999999 13563.599999999999 5029.2
  endloop
endfacet
facet normal 0.0 1.0 0.0
  outer loop
    vertex 2286.0 13563.599999999999 5029.2
    vertex 1676.3999999999999 13563.599999999999 5065.776
    vertex 2286.0 13563.599999999999 5065.776
  endloop
endfacet
facet normal 0.0 1.0 0.0
  outer loop
    vertex 2286.0 13563.599999999999 5065.776
    vertex 1676.3999999999999 13563.599999999999 5065.776
    vertex 1955.8 13563.599999999999 5065.776
  endloop
endfacet
facet normal 0.0 1.0 0.0
  outer loop
    vertex 2286.0 13563.599999999999 5065.776
    vertex 1955.8 13563.599999999999 5065.776
    vertex 2006.6 13563.599999999999 5065.776
  endloop
endfacet
facet normal -1.0 1.2593801865958034e-17 8.289665250534511e-16
  outer loop
    vertex -624.267385164853 13563.599999999999 6059.487500000001
    vertex -624.2673851648537 6398.2556185345 5907.0875
    vertex -624.267385164853 6398.2556185345 6059.487500000001
  endloop
endfacet
facet normal -1.0 1.2593801865958034e-17 8.289665250534511e-16
  outer loop
    vertex -624.2673851648537 6398.2556185345 5907.0875
    vertex -624.267385164853 13563.599999999999 6059.487500000001
    vertex -624.2673851648535 13563.599999999999 5907.0875000000015
  endloop
endfacet
facet normal 1.4373516842831759e-16 2.918009656007037e-48 1.0
  outer loop
    vertex 4595.432614835146 6398.2556185345 6059.4875
    vertex -624.267385164853 13563.599999999999 6059.487500000001
    vertex -624.267385164853 6398.2556185345 6059.487500000001
  endloop
endfacet
facet normal 1.4373516842831759e-16 2.918009656007037e-48 1.0
  outer loop
    vertex -624.267385164853 13563.599999999999 6059.487500000001
    vertex 4595.432614835146 6398.2556185345 6059.4875
    vertex 4595.432614835146 13563.599999999999 6059.4875
  endloop
endfacet
facet normal 0.0 1.0 0.0
  outer loop
    vertex -624.2673851648535 13563.599999999999 5907.0875000000015
    vertex 4595.432614835146 13563.599999999999 6059.4875
    vertex 4595.432614835146 13563.599999999999 5907.0875
  endloop
endfacet
facet normal 0.0 1.0 0.0
  outer loop
    vertex 4595.432614835146 13563.599999999999 6059.4875
    vertex -624.2673851648535 13563.599999999999 5907.0875000000015
    vertex -624.267385164853 13563.599999999999 6059.487500000001
  endloop
endfacet
facet normal 1.0 0.0 0.0
  outer loop
    vertex 4595.432614835146 13563.599999999999 5907.0875
    vertex 4595.432614835146 6398.2556185345 6059.4875
    vertex 4595.432614835146 6398.2556185345 5907.0875
  endloop
endfacet
facet normal 1.0 0.0 0.0
  outer loop
    vertex 4595.432614835146 6398.2556185345 6059.4875
    vertex 4595.432614835146 13563.599999999999 5907.0875
    vertex 4595.432614835146 13563.599999999999 6059.4875
  endloop
endfacet
facet normal -1.383051553790949e-16 1.0075041492766495e-16 -1.0
  outer loop
    vertex -624.2673851648535 13563.599999999999 5907.0875000000015
    vertex 4595.432614835146 6398.2556185345 5907.0875
    vertex -624.2673851648537 6398.2556185345 5907.0875
  endloop
endfacet
facet normal -1.383051553790949e-16 1.0075041492766495e-16 -1.0
  outer loop
    vertex 4595.432614835146 6398.2556185345 5907.0875
    vertex -624.2673851648535 13563.599999999999 5907.0875000000015
    vertex 4595.432614835146 13563.599999999999 5907.0875
  endloop
endfacet
facet normal 0.0 -1.0 0.0
  outer loop
    vertex 4595.432614835146 6398.2556185345 6059.4875
    vertex -624.2673851648537 6398.2556185345 5907.0875
    vertex 4595.432614835146 6398.2556185345 5907.0875
  endloop
endfacet
facet normal 0.0 -1.0 0.0
  outer loop
    vertex -624.2673851648537 6398.2556185345 5907.0875
    vertex 4595.432614835146 6398.2556185345 6059.4875
    vertex -624.267385164853 6398.2556185345 6059.487500000001
  endloop
endfacet
facet normal 1.0 0.0 0.0
  outer loop
    vertex 290.13261483514646 13563.599999999999 5870.448000000001
    vertex 290.13261483514646 6398.2556185345 5907.024000000001
    vertex 290.13261483514646 6398.2556185345 5870.448000000001
  endloop
endfacet
facet normal 1.0 0.0 0.0
  outer loop
    vertex 290.13261483514646 6398.2556185345 5907.024000000001
    vertex 290.13261483514646 13563.599999999999 5870.448000000001
    vertex 290.13261483514646 13563.599999999999 5907.024000000001
  endloop
endfacet
facet normal 0.0 0.0 1.0
  outer loop
    vertex 290.13261483514646 6398.2556185345 5907.024000000001
    vertex -319.4673851648535 13563.599999999999 5907.024000000001
    vertex -319.4673851648535 6398.2556185345 5907.024000000001
  endloop
endfacet
facet normal 0.0 0.0 1.0
  outer loop
    vertex -319.4673851648535 13563.599999999999 5907.024000000001
    vertex 290.13261483514646 6398.2556185345 5907.024000000001
    vertex 290.13261483514646 13563.599999999999 5907.024000000001
  endloop
endfacet
facet normal 0.0 0.0 -1.0
  outer loop
    vertex 290.13261483514646 13563.599999999999 5870.448000000001
    vertex 10.732614835146451 6398.2556185345 5870.448000000001
    vertex 10.732614835146451 13563.599999999999 5870.448000000001
  endloop
endfacet
facet normal 0.0 0.0 -1.0
  outer loop
    vertex 10.732614835146451 6398.2556185345 5870.448000000001
    vertex 290.13261483514646 13563.599999999999 5870.448000000001
    vertex 290.13261483514646 6398.2556185345 5870.448000000001
  endloop
endfacet
facet normal -1.0 0.0 0.0
  outer loop
    vertex -319.4673851648535 13563.599999999999 5907.024000000001
    vertex -319.4673851648535 6398.2556185345 5870.448000000001
    vertex -319.4673851648535 6398.2556185345 5907.024000000001
  endloop
endfacet
facet normal -1.0 0.0 0.0
  outer loop
    vertex -319.4673851648535 6398.2556185345 5870.448000000001
    vertex -319.4673851648535 13563.599999999999 5907.024000000001
    vertex -319.4673851648535 13563.599999999999 5870.448000000001
  endloop
endfacet
facet normal 0.0 1.0 0.0
  outer loop
    vertex -319.4673851648535 13563.599999999999 5907.024000000001
    vertex -40.06738516485355 13563.599999999999 5870.448000000001
    vertex -319.4673851648535 13563.599999999999 5870.448000000001
  endloop
endfacet
facet normal 0.0 1.0 0.0
  outer loop
    vertex -40.06738516485355 13563.599999999999 5870.448000000001
    vertex -319.4673851648535 13563.599999999999 5907.024000000001
    vertex 10.732614835146451 13563.599999999999 5870.448000000001
  endloop
endfacet
facet normal 0.0 1.0 0.0
  outer loop
    vertex 10.732614835146451 13563.599999999999 5870.448000000001
    vertex -319.4673851648535 13563.599999999999 5907.024000000001
    vertex 290.13261483514646 13563.599999999999 5870.448000000001
  endloop
endfacet
facet normal 0.0 1.0 0.0
  outer loop
    vertex 290.13261483514646 13563.599999999999 5870.448000000001
    vertex -319.4673851648535 13563.599999999999 5907.024000000001
    vertex 290.13261483514646 13563.599999999999 5907.024000000001
  endloop
endfacet
facet normal 0.0 1.0 0.0
  outer loop
    vertex -40.06738516485355 13563.599999999999 5870.448000000001
    vertex 10.732614835146451 13563.599999999999 5065.776000000001
    vertex -40.06738516485355 13563.599999999999 5065.776000000001
  endloop
endfacet
facet normal 0.0 1.0 0.0
  outer loop
    vertex 10.732614835146451 13563.599999999999 5065.776000000001
    vertex -40.06738516485355 13563.599999999999 5870.448000000001
    vertex 10.732614835146451 13563.599999999999 5870.448000000001
  endloop
endfacet
facet normal 0.0 1.0 0.0
  outer loop
    vertex -319.4673851648535 13563.599999999999 5065.776000000001
    vertex 290.13261483514646 13563.599999999999 5029.200000000001
    vertex -319.4673851648535 13563.599999999999 5029.200000000001
  endloop
endfacet
facet normal 0.0 1.0 0.0
  outer loop
    vertex 290.13261483514646 13563.599999999999 5029.200000000001
    vertex -319.4673851648535 13563.599999999999 5065.776000000001
    vertex 290.13261483514646 13563.599999999999 5065.776000000001
  endloop
endfacet
facet normal 0.0 1.0 0.0
  outer loop
    vertex 290.13261483514646 13563.599999999999 5065.776000000001
    vertex -319.4673851648535 13563.599999999999 5065.776000000001
    vertex -40.06738516485355 13563.599999999999 5065.776000000001
  endloop
endfacet
facet normal 0.0 1.0 0.0
  outer loop
    vertex 290.13261483514646 13563.599999999999 5065.776000000001
    vertex -40.06738516485355 13563.599999999999 5065.776000000001
    vertex 10.732614835146451 13563.599999999999 5065.776000000001
  endloop
endfacet
facet normal 1.0 0.0 0.0
  outer loop
    vertex 10.732614835146451 13563.599999999999 5065.776000000001
    vertex 10.732614835146451 6398.2556185345 5870.448000000001
    vertex 10.732614835146451 6398.2556185345 5065.776000000001
  endloop
endfacet
facet normal 1.0 0.0 0.0
  outer loop
    vertex 10.732614835146451 6398.2556185345 5870.448000000001
    vertex 10.732614835146451 13563.599999999999 5065.776000000001
    vertex 10.732614835146451 13563.599999999999 5870.448000000001
  endloop
endfacet
facet normal 0.0 0.0 1.0
  outer loop
    vertex -40.06738516485355 6398.2556185345 5065.776000000001
    vertex -319.4673851648535 13563.599999999999 5065.776000000001
    vertex -319.4673851648535 6398.2556185345 5065.776000000001
  endloop
endfacet
facet normal 0.0 0.0 1.0
  outer loop
    vertex -319.4673851648535 13563.599999999999 5065.776000000001
    vertex -40.06738516485355 6398.2556185345 5065.776000000001
    vertex -40.06738516485355 13563.599999999999 5065.776000000001
  endloop
endfacet
facet normal 0.0 0.0 -1.0
  outer loop
    vertex 290.13261483514646 13563.599999999999 5029.200000000001
    vertex -319.4673851648535 6398.2556185345 5029.200000000001
    vertex -319.4673851648535 13563.599999999999 5029.200000000001
  endloop
endfacet
facet normal 0.0 0.0 -1.0
  outer loop
    vertex -319.4673851648535 6398.2556185345 5029.200000000001
    vertex 290.13261483514646 13563.599999999999 5029.200000000001
    vertex 290.13261483514646 6398.2556185345 5029.200000000001
  endloop
endfacet
facet normal 1.0 0.0 0.0
  outer loop
    vertex 290.13261483514646 13563.599999999999 5029.200000000001
    vertex 290.13261483514646 6398.2556185345 5065.776000000001
    vertex 290.13261483514646 6398.2556185345 5029.200000000001
  endloop
endfacet
facet normal 1.0 0.0 0.0
  outer loop
    vertex 290.13261483514646 6398.2556185345 5065.776000000001
    vertex 290.13261483514646 13563.599999999999 5029.200000000001
    vertex 290.13261483514646 13563.599999999999 5065.776000000001
  endloop
endfacet
facet normal 0.0 0.0 1.0
  outer loop
    vertex 290.13261483514646 6398.2556185345 5065.776000000001
    vertex 10.732614835146451 13563.599999999999 5065.776000000001
    vertex 10.732614835146451 6398.2556185345 5065.776000000001
  endloop
endfacet
facet normal 0.0 0.0 1.0
  outer loop
    vertex 10.732614835146451 13563.599999999999 5065.776000000001
    vertex 290.13261483514646 6398.2556185345 5065.776000000001
    vertex 290.13261483514646 13563.599999999999 5065.776000000001
  endloop
endfacet
facet normal 0.0 0.0 -1.0
  outer loop
    vertex -40.06738516485355 13563.599999999999 5870.448000000001
    vertex -319.4673851648535 6398.2556185345 5870.448000000001
    vertex -319.4673851648535 13563.599999999999 5870.448000000001
  endloop
endfacet
facet normal 0.0 0.0 -1.0
  outer loop
    vertex -319.4673851648535 6398.2556185345 5870.448000000001
    vertex -40.06738516485355 13563.599999999999 5870.448000000001
    vertex -40.06738516485355 6398.2556185345 5870.448000000001
  endloop
endfacet
facet normal -1.0 0.0 0.0
  outer loop
    vertex -40.06738516485355 13563.599999999999 5870.448000000001
    vertex -40.06738516485355 6398.2556185345 5065.776000000001
    vertex -40.06738516485355 6398.2556185345 5870.448000000001
  endloop
endfacet
facet normal -1.0 0.0 0.0
  outer loop
    vertex -40.06738516485355 6398.2556185345 5065.776000000001
    vertex -40.06738516485355 13563.599999999999 5870.448000000001
    vertex -40.06738516485355 13563.599999999999 5065.776000000001
  endloop
endfacet
facet normal 0.0 -1.0 0.0
  outer loop
    vertex 290.13261483514646 6398.2556185345 5907.024000000001
    vertex 10.732614835146451 6398.2556185345 5870.448000000001
    vertex 290.13261483514646 6398.2556185345 5870.448000000001
  endloop
endfacet
facet normal 0.0 -1.0 0.0
  outer loop
    vertex 10.732614835146451 6398.2556185345 5870.448000000001
    vertex 290.13261483514646 6398.2556185345 5907.024000000001
    vertex -40.06738516485355 6398.2556185345 5870.448000000001
  endloop
endfacet
facet normal 0.0 -1.0 0.0
  outer loop
    vertex -40.06738516485355 6398.2556185345 5870.448000000001
    vertex 290.13261483514646 6398.2556185345 5907.024000000001
    vertex -319.4673851648535 6398.2556185345 5870.448000000001
  endloop
endfacet
facet normal 0.0 -1.0 0.0
  outer loop
    vertex -319.4673851648535 6398.2556185345 5870.448000000001
    vertex 290.13261483514646 6398.2556185345 5907.024000000001
    vertex -319.4673851648535 6398.2556185345 5907.024000000001
  endloop
endfacet
facet normal 0.0 -1.0 0.0
  outer loop
    vertex 10.732614835146451 6398.2556185345 5870.448000000001
    vertex -40.06738516485355 6398.2556185345 5065.776000000001
    vertex 10.732614835146451 6398.2556185345 5065.776000000001
  endloop
endfacet
facet normal 0.0 -1.0 0.0
  outer loop
    vertex -40.06738516485355 6398.2556185345 5065.776000000001
    vertex 10.732614835146451 6398.2556185345 5870.448000000001
    vertex -40.06738516485355 6398.2556185345 5870.448000000001
  endloop
endfacet
facet normal 0.0 -1.0 0.0
  outer loop
    vertex 290.13261483514646 6398.2556185345 5065.776000000001
    vertex -319.4673851648535 6398.2556185345 5029.200000000001
    vertex 290.13261483514646 6398.2556185345 5029.200000000001
  endloop
endfacet
facet normal 0.0 -1.0 0.0
  outer loop
    vertex -319.4673851648535 6398.2556185345 5029.200000000001
    vertex 290.13261483514646 6398.2556185345 5065.776000000001
    vertex -319.4673851648535 6398.2556185345 5065.776000000001
  endloop
endfacet
facet normal 0.0 -1.0 0.0
  outer loop
    vertex -319.4673851648535 6398.2556185345 5065.776000000001
    vertex 290.13261483514646 6398.2556185345 5065.776000000001
    vertex 10.732614835146451 6398.2556185345 5065.776000000001
  endloop
endfacet
facet normal 0.0 -1.0 0.0
  outer loop
    vertex -319.4673851648535 6398.2556185345 5065.776000000001
    vertex 10.732614835146451 6398.2556185345 5065.776000000001
    vertex -40.06738516485355 6398.2556185345 5065.776000000001
  endloop
endfacet
facet normal -1.0 0.0 0.0
  outer loop
    vertex -319.4673851648535 13563.599999999999 5065.776000000001
    vertex -319.4673851648535 6398.2556185345 5029.200000000001
    vertex -319.4673851648535 6398.2556185345 5065.776000000001
  endloop
endfacet
facet normal -1.0 0.0 0.0
  outer loop
    vertex -319.4673851648535 6398.2556185345 5029.200000000001
    vertex -319.4673851648535 13563.599999999999 5065.776000000001
    vertex -319.4673851648535 13563.599999999999 5029.200000000001
  endloop
endfacet
endsolid overpass
