solid overpass
facet normal 0.0 0.0 1.0
  outer loop
    vertex 3365.5291306558556 -132.20159537713928 3962.3999999999996
    vertex 3365.5291306558556 104.46253946460557 3962.3999999999996
    vertex 3349.950418435217 -13.869527956267579 3962.3999999999996
  endloop
endfacet
facet normal 0.0 0.0 1.0
  outer loop
    vertex 3365.5291306558556 104.46253946460557 3962.3999999999996
    vertex 3365.5291306558556 -132.20159537713928 3962.3999999999996
    vertex 3411.2036038249717 -242.46952795626757 3962.3999999999996
  endloop
endfacet
facet normal 0.0 0.0 1.0
  outer loop
    vertex 3365.5291306558556 104.46253946460557 3962.3999999999996
    vertex 3411.2036038249717 -242.46952795626757 3962.3999999999996
    vertex 3411.2036038249717 214.73047204373242 3962.3999999999996
  endloop
endfacet
facet normal 0.0 0.0 1.0
  outer loop
    vertex 3411.2036038249717 214.73047204373242 3962.3999999999996
    vertex 3411.2036038249717 -242.46952795626757 3962.3999999999996
    vertex 3483.8611980767273 -337.1587483147568 3962.3999999999996
  endloop
endfacet
facet normal 0.0 0.0 1.0
  outer loop
    vertex 3411.2036038249717 214.73047204373242 3962.3999999999996
    vertex 3483.8611980767273 -337.1587483147568 3962.3999999999996
    vertex 3483.8611980767278 309.41969240222164 3962.3999999999996
  endloop
endfacet
facet normal 0.0 0.0 1.0
  outer loop
    vertex 3483.8611980767278 309.41969240222164 3962.3999999999996
    vertex 3483.8611980767273 -337.1587483147568 3962.3999999999996
    vertex 3578.550418435217 -409.8163425665129 3962.3999999999996
  endloop
endfacet
facet normal 0.0 0.0 1.0
  outer loop
    vertex 3483.8611980767278 309.41969240222164 3962.3999999999996
    vertex 3578.550418435217 -409.8163425665129 3962.3999999999996
    vertex 3578.550418435217 382.07728665397775 3962.3999999999996
  endloop
endfacet
facet normal 0.0 0.0 1.0
  outer loop
    vertex 3578.550418435217 382.07728665397775 3962.3999999999996
    vertex 3578.550418435217 -409.8163425665129 3962.3999999999996
    vertex 3688.818351014345 -455.49081573562995 3962.3999999999996
  endloop
endfacet
facet normal 0.0 0.0 1.0
  outer loop
    vertex 3578.550418435217 382.07728665397775 3962.3999999999996
    vertex 3688.818351014345 -455.49081573562995 3962.3999999999996
    vertex 3688.818351014345 427.7517598230948 3962.3999999999996
  endloop
endfacet
facet normal 0.0 0.0 1.0
  outer loop
    vertex 3688.818351014345 427.7517598230948 3962.3999999999996
    vertex 3688.818351014345 -455.49081573562995 3962.3999999999996
    vertex 3807.150418435217 -471.06952795626756 3962.3999999999996
  endloop
endfacet
facet normal 0.0 0.0 1.0
  outer loop
    vertex 3688.818351014345 427.7517598230948 3962.3999999999996
    vertex 3807.150418435217 -471.06952795626756 3962.3999999999996
    vertex 3807.150418435217 443.3304720437324 3962.3999999999996
  endloop
endfacet
facet normal 0.0 0.0 1.0
  outer loop
    vertex 3807.150418435217 443.3304720437324 3962.3999999999996
    vertex 3807.150418435217 -471.06952795626756 3962.3999999999996
    vertex 3925.4824858560896 -455.49081573562995 3962.3999999999996
  endloop
endfacet
facet normal 0.0 0.0 1.0
  outer loop
    vertex 3807.150418435217 443.3304720437324 3962.3999999999996
    vertex 3925.4824858560896 -455.49081573562995 3962.3999999999996
    vertex 3925.4824858560896 427.7517598230948 3962.3999999999996
  endloop
endfacet
facet normal 0.0 0.0 1.0
  outer loop
    vertex 3925.4824858560896 427.7517598230948 3962.3999999999996
    vertex 3925.4824858560896 -455.49081573562995 3962.3999999999996
    vertex 4035.7504184352165 -409.8163425665129 3962.3999999999996
  endloop
endfacet
facet normal 0.0 0.0 1.0
  outer loop
    vertex 3925.4824858560896 427.7517598230948 3962.3999999999996
    vertex 4035.7504184352165 -409.8163425665129 3962.3999999999996
    vertex 4035.750418435217 382.07728665397775 3962.3999999999996
  endloop
endfacet
facet normal 0.0 0.0 1.0
  outer loop
    vertex 4035.750418435217 382.07728665397775 3962.3999999999996
    vertex 4035.7504184352165 -409.8163425665129 3962.3999999999996
    vertex 4130.439638793707 -337.1587483147568 3962.3999999999996
  endloop
endfacet
facet normal 0.0 0.0 1.0
  outer loop
    vertex 4035.750418435217 382.07728665397775 3962.3999999999996
    vertex 4130.439638793707 -337.1587483147568 3962.3999999999996
    vertex 4130.439638793707 309.41969240222164 3962.3999999999996
  endloop
endfacet
facet normal 0.0 0.0 1.0
  outer loop
    vertex 4130.439638793707 309.41969240222164 3962.3999999999996
    vertex 4130.439638793707 -337.1587483147568 3962.3999999999996
    vertex 4203.097233045462 -242.46952795626757 3962.3999999999996
  endloop
endfacet
facet normal 0.0 0.0 1.0
  outer loop
    vertex 4130.439638793707 309.41969240222164 3962.3999999999996
    vertex 4203.097233045462 -242.46952795626757 3962.3999999999996
    vertex 4203.097233045462 214.73047204373242 3962.3999999999996
  endloop
endfacet
facet normal 0.0 0.0 1.0
  outer loop
    vertex 4203.097233045462 214.73047204373242 3962.3999999999996
    vertex 4203.097233045462 -242.46952795626757 3962.3999999999996
    vertex 4248.771706214578 -132.20159537714073 3962.3999999999996
  endloop
endfacet
facet normal 0.0 0.0 1.0
  outer loop
    vertex 4203.097233045462 214.73047204373242 3962.3999999999996
    vertex 4248.771706214578 -132.20159537714073 3962.3999999999996
    vertex 4248.771706214578 104.46253946460557 3962.3999999999996
  endloop
endfacet
facet normal 0.0 0.0 1.0
  outer loop
    vertex 4248.771706214578 104.46253946460557 3962.3999999999996
    vertex 4248.771706214578 -132.20159537714073 3962.3999999999996
    vertex 4264.350418435217 -13.869527956267579 3962.3999999999996
  endloop
endfacet
facet normal -0.13052619222004844 0.9914448613738108 0.0
  outer loop
    vertex 3688.818351014345 427.7517598230948 3962.3999999999996
    vertex 3807.150418435217 443.3304720437324 0.0
    vertex 3688.818351014345 427.7517598230948 0.0
  endloop
endfacet
facet normal -0.13052619222004844 0.9914448613738108 0.0
  outer loop
    vertex 3807.150418435217 443.3304720437324 0.0
    vertex 3688.818351014345 427.7517598230948 3962.3999999999996
    vertex 3807.150418435217 443.3304720437324 3962.3999999999996
  endloop
endfacet
facet normal 0.13052619222004844 0.9914448613738108 0.0
  outer loop
    vertex 3807.150418435217 443.3304720437324 3962.3999999999996
    vertex 3925.4824858560896 427.7517598230948 0.0
    vertex 3807.150418435217 443.3304720437324 0.0
  endloop
endfacet
facet normal 0.13052619222004844 0.9914448613738108 0.0
  outer loop
    vertex 3925.4824858560896 427.7517598230948 0.0
    vertex 3807.150418435217 443.3304720437324 3962.3999999999996
    vertex 3925.4824858560896 427.7517598230948 3962.3999999999996
  endloop
endfacet
facet normal 0.6087614290087203 0.7933533402912354 0.0
  outer loop
    vertex 4035.750418435217 382.07728665397775 3962.3999999999996
    vertex 4130.439638793707 309.41969240222164 0.0
    vertex 4035.750418435217 382.07728665397775 0.0
  endloop
endfacet
facet normal 0.6087614290087203 0.7933533402912354 0.0
  outer loop
    vertex 4130.439638793707 309.41969240222164 0.0
    vertex 4035.750418435217 382.07728665397775 3962.3999999999996
    vertex 4130.439638793707 309.41969240222164 3962.3999999999996
  endloop
endfacet
facet normal 0.793353340291236 0.6087614290087194 0.0
  outer loop
    vertex 4130.439638793707 309.41969240222164 0.0
    vertex 4203.097233045462 214.73047204373242 3962.3999999999996
    vertex 4203.097233045462 214.73047204373242 0.0
  endloop
endfacet
facet normal 0.793353340291236 0.6087614290087194 0.0
  outer loop
    vertex 4203.097233045462 214.73047204373242 3962.3999999999996
    vertex 4130.439638793707 309.41969240222164 0.0
    vertex 4130.439638793707 309.41969240222164 3962.3999999999996
  endloop
endfacet
facet normal 0.3826834323650924 0.9238795325112857 0.0
  outer loop
    vertex 3925.4824858560896 427.7517598230948 3962.3999999999996
    vertex 4035.750418435217 382.07728665397775 0.0
    vertex 3925.4824858560896 427.7517598230948 0.0
  endloop
endfacet
facet normal 0.3826834323650924 0.9238795325112857 0.0
  outer loop
    vertex 4035.750418435217 382.07728665397775 0.0
    vertex 3925.4824858560896 427.7517598230948 3962.3999999999996
    vertex 4035.750418435217 382.07728665397775 3962.3999999999996
  endloop
endfacet
facet normal 0.9238795325112871 0.38268343236508934 0.0
  outer loop
    vertex 4203.097233045462 214.73047204373242 0.0
    vertex 4248.771706214578 104.46253946460557 3962.3999999999996
    vertex 4248.771706214578 104.46253946460557 0.0
  endloop
endfacet
facet normal 0.9238795325112871 0.38268343236508934 0.0
  outer loop
    vertex 4248.771706214578 104.46253946460557 3962.3999999999996
    vertex 4203.097233045462 214.73047204373242 0.0
    vertex 4203.097233045462 214.73047204373242 3962.3999999999996
  endloop
endfacet
facet normal 0.9914448613738102 -0.1305261922200536 0.0
  outer loop
    vertex 4264.350418435217 -13.869527956267579 0.0
    vertex 4248.771706214578 -132.20159537714073 3962.3999999999996
    vertex 4248.771706214578 -132.20159537714073 0.0
  endloop
endfacet
facet normal 0.9914448613738102 -0.1305261922200536 0.0
  outer loop
    vertex 4248.771706214578 -132.20159537714073 3962.3999999999996
    vertex 4264.350418435217 -13.869527956267579 0.0
    vertex 4264.350418435217 -13.869527956267579 3962.3999999999996
  endloop
endfacet
facet normal 0.9238795325112871 -0.38268343236508934 0.0
  outer loop
    vertex 4248.771706214578 -132.20159537714073 0.0
    vertex 4203.097233045462 -242.46952795626757 3962.3999999999996
    vertex 4203.097233045462 -242.46952795626757 0.0
  endloop
endfacet
facet normal 0.9238795325112871 -0.38268343236508934 0.0
  outer loop
    vertex 4203.097233045462 -242.46952795626757 3962.3999999999996
    vertex 4248.771706214578 -132.20159537714073 0.0
    vertex 4248.771706214578 -132.20159537714073 3962.3999999999996
  endloop
endfacet
facet normal 0.9914448613738102 0.1305261922200536 0.0
  outer loop
    vertex 4248.771706214578 104.46253946460557 0.0
    vertex 4264.350418435217 -13.869527956267579 3962.3999999999996
    vertex 4264.350418435217 -13.869527956267579 0.0
  endloop
endfacet
facet normal 0.9914448613738102 0.1305261922200536 0.0
  outer loop
    vertex 4264.350418435217 -13.869527956267579 3962.3999999999996
    vertex 4248.771706214578 104.46253946460557 0.0
    vertex 4248.771706214578 104.46253946460557 3962.3999999999996
  endloop
endfacet
facet normal 0.793353340291236 -0.6087614290087194 0.0
  outer loop
    vertex 4203.097233045462 -242.46952795626757 0.0
    vertex 4130.439638793707 -337.1587483147568 3962.3999999999996
    vertex 4130.439638793707 -337.1587483147568 0.0
  endloop
endfacet
facet normal 0.793353340291236 -0.6087614290087194 0.0
  outer loop
    vertex 4130.439638793707 -337.1587483147568 3962.3999999999996
    vertex 4203.097233045462 -242.46952795626757 0.0
    vertex 4203.097233045462 -242.46952795626757 3962.3999999999996
  endloop
endfacet
facet normal 0.38268343236509444 -0.9238795325112849 0.0
  outer loop
    vertex 4035.7504184352165 -409.8163425665129 3962.3999999999996
    vertex 3925.4824858560896 -455.49081573562995 0.0
    vertex 4035.7504184352165 -409.8163425665129 0.0
  endloop
endfacet
facet normal 0.38268343236509444 -0.9238795325112849 0.0
  outer loop
    vertex 3925.4824858560896 -455.49081573562995 0.0
    vertex 4035.7504184352165 -409.8163425665129 3962.3999999999996
    vertex 3925.4824858560896 -455.49081573562995 3962.3999999999996
  endloop
endfacet
facet normal 0.13052619222004844 -0.9914448613738108 0.0
  outer loop
    vertex 3925.4824858560896 -455.49081573562995 3962.3999999999996
    vertex 3807.150418435217 -471.06952795626756 0.0
    vertex 3925.4824858560896 -455.49081573562995 0.0
  endloop
endfacet
facet normal 0.13052619222004844 -0.9914448613738108 0.0
  outer loop
    vertex 3807.150418435217 -471.06952795626756 0.0
    vertex 3925.4824858560896 -455.49081573562995 3962.3999999999996
    vertex 3807.150418435217 -471.06952795626756 3962.3999999999996
  endloop
endfacet
facet normal 0.6087614290087174 -0.7933533402912377 0.0
  outer loop
    vertex 4130.439638793707 -337.1587483147568 3962.3999999999996
    vertex 4035.7504184352165 -409.8163425665129 0.0
    vertex 4130.439638793707 -337.1587483147568 0.0
  endloop
endfacet
facet normal 0.6087614290087174 -0.7933533402912377 0.0
  outer loop
    vertex 4035.7504184352165 -409.8163425665129 0.0
    vertex 4130.439638793707 -337.1587483147568 3962.3999999999996
    vertex 4035.7504184352165 -409.8163425665129 3962.3999999999996
  endloop
endfacet
facet normal -0.13052619222004844 -0.9914448613738108 -0.0
  outer loop
    vertex 3807.150418435217 -471.06952795626756 3962.3999999999996
    vertex 3688.818351014345 -455.49081573562995 0.0
    vertex 3807.150418435217 -471.06952795626756 0.0
  endloop
endfacet
facet normal -0.13052619222004844 -0.9914448613738108 -0.0
  outer loop
    vertex 3688.818351014345 -455.49081573562995 0.0
    vertex 3807.150418435217 -471.06952795626756 3962.3999999999996
    vertex 3688.818351014345 -455.49081573562995 3962.3999999999996
  endloop
endfacet
facet normal -0.6087614290087203 -0.7933533402912354 -0.0
  outer loop
    vertex 3578.550418435217 -409.8163425665129 3962.3999999999996
    vertex 3483.8611980767273 -337.1587483147568 0.0
    vertex 3578.550418435217 -409.8163425665129 0.0
  endloop
endfacet
facet normal -0.6087614290087203 -0.7933533402912354 -0.0
  outer loop
    vertex 3483.8611980767273 -337.1587483147568 0.0
    vertex 3578.550418435217 -409.8163425665129 3962.3999999999996
    vertex 3483.8611980767273 -337.1587483147568 3962.3999999999996
  endloop
endfacet
facet normal -0.793353340291236 -0.6087614290087194 -0.0
  outer loop
    vertex 3411.2036038249717 -242.46952795626757 3962.3999999999996
    vertex 3483.8611980767273 -337.1587483147568 0.0
    vertex 3483.8611980767273 -337.1587483147568 3962.3999999999996
  endloop
endfacet
facet normal -0.793353340291236 -0.6087614290087194 -0.0
  outer loop
    vertex 3483.8611980767273 -337.1587483147568 0.0
    vertex 3411.2036038249717 -242.46952795626757 3962.3999999999996
    vertex 3411.2036038249717 -242.46952795626757 0.0
  endloop
endfacet
facet normal -0.3826834323650924 -0.9238795325112857 -0.0
  outer loop
    vertex 3688.818351014345 -455.49081573562995 3962.3999999999996
    vertex 3578.550418435217 -409.8163425665129 0.0
    vertex 3688.818351014345 -455.49081573562995 0.0
  endloop
endfacet
facet normal -0.3826834323650924 -0.9238795325112857 -0.0
  outer loop
    vertex 3578.550418435217 -409.8163425665129 0.0
    vertex 3688.818351014345 -455.49081573562995 3962.3999999999996
    vertex 3578.550418435217 -409.8163425665129 3962.3999999999996
  endloop
endfacet
facet normal -0.9238795325112887 -0.382683432365085 -0.0
  outer loop
    vertex 3365.5291306558556 -132.20159537713928 3962.3999999999996
    vertex 3411.2036038249717 -242.46952795626757 0.0
    vertex 3411.2036038249717 -242.46952795626757 3962.3999999999996
  endloop
endfacet
facet normal -0.9238795325112887 -0.382683432365085 -0.0
  outer loop
    vertex 3411.2036038249717 -242.46952795626757 0.0
    vertex 3365.5291306558556 -132.20159537713928 3962.3999999999996
    vertex 3365.5291306558556 -132.20159537713928 0.0
  endloop
endfacet
facet normal -0.9914448613738102 0.1305261922200536 0.0
  outer loop
    vertex 3365.5291306558556 104.46253946460557 3962.3999999999996
    vertex 3349.950418435217 -13.869527956267579 0.0
    vertex 3349.950418435217 -13.869527956267579 3962.3999999999996
  endloop
endfacet
facet normal -0.9914448613738102 0.1305261922200536 0.0
  outer loop
    vertex 3349.950418435217 -13.869527956267579 0.0
    vertex 3365.5291306558556 104.46253946460557 3962.3999999999996
    vertex 3365.5291306558556 104.46253946460557 0.0
  endloop
endfacet
facet normal -0.9238795325112871 0.38268343236508934 0.0
  outer loop
    vertex 3411.2036038249717 214.73047204373242 3962.3999999999996
    vertex 3365.5291306558556 104.46253946460557 0.0
    vertex 3365.5291306558556 104.46253946460557 3962.3999999999996
  endloop
endfacet
facet normal -0.9238795325112871 0.38268343236508934 0.0
  outer loop
    vertex 3365.5291306558556 104.46253946460557 0.0
    vertex 3411.2036038249717 214.73047204373242 3962.3999999999996
    vertex 3411.2036038249717 214.73047204373242 0.0
  endloop
endfacet
facet normal -0.99144486137381 -0.13052619222005518 -0.0
  outer loop
    vertex 3349.950418435217 -13.869527956267579 3962.3999999999996
    vertex 3365.5291306558556 -132.20159537713928 0.0
    vertex 3365.5291306558556 -132.20159537713928 3962.3999999999996
  endloop
endfacet
facet normal -0.99144486137381 -0.13052619222005518 -0.0
  outer loop
    vertex 3365.5291306558556 -132.20159537713928 0.0
    vertex 3349.950418435217 -13.869527956267579 3962.3999999999996
    vertex 3349.950418435217 -13.869527956267579 0.0
  endloop
endfacet
facet normal -0.7933533402912333 0.6087614290087233 0.0
  outer loop
    vertex 3483.8611980767278 309.41969240222164 3962.3999999999996
    vertex 3411.2036038249717 214.73047204373242 0.0
    vertex 3411.2036038249717 214.73047204373242 3962.3999999999996
  endloop
endfacet
facet normal -0.7933533402912333 0.6087614290087233 0.0
  outer loop
    vertex 3411.2036038249717 214.73047204373242 0.0
    vertex 3483.8611980767278 309.41969240222164 3962.3999999999996
    vertex 3483.8611980767278 309.41969240222164 0.0
  endloop
endfacet
facet normal -0.3826834323650924 0.9238795325112857 0.0
  outer loop
    vertex 3578.550418435217 382.07728665397775 3962.3999999999996
    vertex 3688.818351014345 427.7517598230948 0.0
    vertex 3578.550418435217 382.07728665397775 0.0
  endloop
endfacet
facet normal -0.3826834323650924 0.9238795325112857 0.0
  outer loop
    vertex 3688.818351014345 427.7517598230948 0.0
    vertex 3578.550418435217 382.07728665397775 3962.3999999999996
    vertex 3688.818351014345 427.7517598230948 3962.3999999999996
  endloop
endfacet
facet normal -0.6087614290087233 0.7933533402912333 0.0
  outer loop
    vertex 3483.8611980767278 309.41969240222164 3962.3999999999996
    vertex 3578.550418435217 382.07728665397775 0.0
    vertex 3483.8611980767278 309.41969240222164 0.0
  endloop
endfacet
facet normal -0.6087614290087233 0.7933533402912333 0.0
  outer loop
    vertex 3578.550418435217 382.07728665397775 0.0
    vertex 3483.8611980767278 309.41969240222164 3962.3999999999996
    vertex 3578.550418435217 382.07728665397775 3962.3999999999996
  endloop
endfacet
facet normal 0.0 0.0 -1.0
  outer loop
    vertex 3365.5291306558556 104.46253946460557 0.0
    vertex 3365.5291306558556 -132.20159537713928 0.0
    vertex 3349.950418435217 -13.869527956267579 0.0
  endloop
endfacet
facet normal 0.0 0.0 -1.0
  outer loop
    vertex 3365.5291306558556 -132.20159537713928 0.0
    vertex 3365.5291306558556 104.46253946460557 0.0
    vertex 3411.2036038249717 214.73047204373242 0.0
  endloop
endfacet
facet normal 0.0 0.0 -1.0
  outer loop
    vertex 3365.5291306558556 -132.20159537713928 0.0
    vertex 3411.2036038249717 214.73047204373242 0.0
    vertex 3411.2036038249717 -242.46952795626757 0.0
  endloop
endfacet
facet normal 0.0 0.0 -1.0
  outer loop
    vertex 3411.2036038249717 -242.46952795626757 0.0
    vertex 3411.2036038249717 214.73047204373242 0.0
    vertex 3483.8611980767278 309.41969240222164 0.0
  endloop
endfacet
facet normal 0.0 0.0 -1.0
  outer loop
    vertex 3411.2036038249717 -242.46952795626757 0.0
    vertex 3483.8611980767278 309.41969240222164 0.0
    vertex 3483.8611980767273 -337.1587483147568 0.0
  endloop
endfacet
facet normal 0.0 0.0 -1.0
  outer loop
    vertex 3483.8611980767273 -337.1587483147568 0.0
    vertex 3483.8611980767278 309.41969240222164 0.0
    vertex 3578.550418435217 -409.8163425665129 0.0
  endloop
endfacet
facet normal 0.0 0.0 -1.0
  outer loop
    vertex 3578.550418435217 -409.8163425665129 0.0
    vertex 3483.8611980767278 309.41969240222164 0.0
    vertex 3578.550418435217 382.07728665397775 0.0
  endloop
endfacet
facet normal 0.0 0.0 -1.0
  outer loop
    vertex 3578.550418435217 -409.8163425665129 0.0
    vertex 3578.550418435217 382.07728665397775 0.0
    vertex 3688.818351014345 427.7517598230948 0.0
  endloop
endfacet
facet normal 0.0 0.0 -1.0
  outer loop
    vertex 3578.550418435217 -409.8163425665129 0.0
    vertex 3688.818351014345 427.7517598230948 0.0
    vertex 3688.818351014345 -455.49081573562995 0.0
  endloop
endfacet
facet normal 0.0 0.0 -1.0
  outer loop
    vertex 3688.818351014345 -455.49081573562995 0.0
    vertex 3688.818351014345 427.7517598230948 0.0
    vertex 3807.150418435217 443.3304720437324 0.0
  endloop
endfacet
facet normal 0.0 0.0 -1.0
  outer loop
    vertex 3688.818351014345 -455.49081573562995 0.0
    vertex 3807.150418435217 443.3304720437324 0.0
    vertex 3807.150418435217 -471.06952795626756 0.0
  endloop
endfacet
facet normal 0.0 0.0 -1.0
  outer loop
    vertex 3807.150418435217 -471.06952795626756 0.0
    vertex 3807.150418435217 443.3304720437324 0.0
    vertex 3925.4824858560896 427.7517598230948 0.0
  endloop
endfacet
facet normal 0.0 0.0 -1.0
  outer loop
    vertex 3807.150418435217 -471.06952795626756 0.0
    vertex 3925.4824858560896 427.7517598230948 0.0
    vertex 3925.4824858560896 -455.49081573562995 0.0
  endloop
endfacet
facet normal 0.0 0.0 -1.0
  outer loop
    vertex 3925.4824858560896 -455.49081573562995 0.0
    vertex 3925.4824858560896 427.7517598230948 0.0
    vertex 4035.750418435217 382.07728665397775 0.0
  endloop
endfacet
facet normal 0.0 0.0 -1.0
  outer loop
    vertex 3925.4824858560896 -455.49081573562995 0.0
    vertex 4035.750418435217 382.07728665397775 0.0
    vertex 4035.7504184352165 -409.8163425665129 0.0
  endloop
endfacet
facet normal 0.0 0.0 -1.0
  outer loop
    vertex 4035.7504184352165 -409.8163425665129 0.0
    vertex 4035.750418435217 382.07728665397775 0.0
    vertex 4130.439638793707 -337.1587483147568 0.0
  endloop
endfacet
facet normal 0.0 0.0 -1.0
  outer loop
    vertex 4130.439638793707 -337.1587483147568 0.0
    vertex 4035.750418435217 382.07728665397775 0.0
    vertex 4130.439638793707 309.41969240222164 0.0
  endloop
endfacet
facet normal 0.0 0.0 -1.0
  outer loop
    vertex 4130.439638793707 -337.1587483147568 0.0
    vertex 4130.439638793707 309.41969240222164 0.0
    vertex 4203.097233045462 214.73047204373242 0.0
  endloop
endfacet
facet normal 0.0 0.0 -1.0
  outer loop
    vertex 4130.439638793707 -337.1587483147568 0.0
    vertex 4203.097233045462 214.73047204373242 0.0
    vertex 4203.097233045462 -242.46952795626757 0.0
  endloop
endfacet
facet normal 0.0 0.0 -1.0
  outer loop
    vertex 4203.097233045462 -242.46952795626757 0.0
    vertex 4203.097233045462 214.73047204373242 0.0
    vertex 4248.771706214578 104.46253946460557 0.0
  endloop
endfacet
facet normal 0.0 0.0 -1.0
  outer loop
    vertex 4203.097233045462 -242.46952795626757 0.0
    vertex 4248.771706214578 104.46253946460557 0.0
    vertex 4248.771706214578 -132.20159537714073 0.0
  endloop
endfacet
facet normal 0.0 0.0 -1.0
  outer loop
    vertex 4248.771706214578 -132.20159537714073 0.0
    vertex 4248.771706214578 104.46253946460557 0.0
    vertex 4264.350418435217 -13.869527956267579 0.0
  endloop
endfacet
facet normal 0.0 -1.0 0.0
  outer loop
    vertex 4648.2 -457.2 4267.2
    vertex 3886.2 -457.2 3962.3999999999996
    vertex 4343.4 -457.2 3962.3999999999996
  endloop
endfacet
facet normal 0.0 -1.0 0.0
  outer loop
    vertex 3886.2 -457.2 3962.3999999999996
    vertex 4648.2 -457.2 4267.2
    vertex 76.19999999999999 -457.2 3962.3999999999996
  endloop
endfacet
facet normal 0.0 -1.0 0.0
  outer loop
    vertex 76.19999999999999 -457.2 3962.3999999999996
    vertex 4648.2 -457.2 4267.2
    vertex -381.0 -457.2 3962.3999999999996
  endloop
endfacet
facet normal 0.0 -1.0 0.0
  outer loop
    vertex -381.0 -457.2 3962.3999999999996
    vertex 4648.2 -457.2 4267.2
    vertex -685.8 -457.2 4267.2
  endloop
endfacet
facet normal 0.0 -1.0 0.0
  outer loop
    vertex -685.8 -457.2 4267.2
    vertex 4648.2 -457.2 4267.2
    vertex 4648.2 -457.2 5029.2
  endloop
endfacet
facet normal 0.0 -1.0 0.0
  outer loop
    vertex -685.8 -457.2 4267.2
    vertex 4648.2 -457.2 5029.2
    vertex -685.8 -457.2 5029.2
  endloop
endfacet
facet normal 0.0 0.0 -1.0
  outer loop
    vertex 3886.2 457.2 3962.3999999999996
    vertex 76.19999999999999 -457.2 3962.3999999999996
    vertex 76.19999999999999 457.2 3962.3999999999996
  endloop
endfacet
facet normal 0.0 0.0 -1.0
  outer loop
    vertex 76.19999999999999 -457.2 3962.3999999999996
    vertex 3886.2 457.2 3962.3999999999996
    vertex 3886.2 -457.2 3962.3999999999996
  endloop
endfacet
facet normal -0.7071067811865476 0.0 -0.7071067811865476
  outer loop
    vertex -685.8 457.2 4267.2
    vertex -381.0 -457.2 3962.3999999999996
    vertex -685.8 -457.2 4267.2
  endloop
endfacet
facet normal -0.7071067811865476 0.0 -0.7071067811865476
  outer loop
    vertex -381.0 -457.2 3962.3999999999996
    vertex -685.8 457.2 4267.2
    vertex -381.0 457.2 3962.3999999999996
  endloop
endfacet
facet normal 0.0 0.0 -1.0
  outer loop
    vertex 4343.4 457.2 3962.3999999999996
    vertex 3886.2 -457.2 3962.3999999999996
    vertex 3886.2 457.2 3962.3999999999996
  endloop
endfacet
facet normal 0.0 0.0 -1.0
  outer loop
    vertex 3886.2 -457.2 3962.3999999999996
    vertex 4343.4 457.2 3962.3999999999996
    vertex 4343.4 -457.2 3962.3999999999996
  endloop
endfacet
facet normal 0.0 0.0 -1.0
  outer loop
    vertex 76.19999999999999 457.2 3962.3999999999996
    vertex -381.0 -457.2 3962.3999999999996
    vertex -381.0 457.2 3962.3999999999996
  endloop
endfacet
facet normal 0.0 0.0 -1.0
  outer loop
    vertex -381.0 -457.2 3962.3999999999996
    vertex 76.19999999999999 457.2 3962.3999999999996
    vertex 76.19999999999999 -457.2 3962.3999999999996
  endloop
endfacet
facet normal -1.0 0.0 0.0
  outer loop
    vertex -685.8 457.2 5029.2
    vertex -685.8 -457.2 4267.2
    vertex -685.8 -457.2 5029.2
  endloop
endfacet
facet normal -1.0 0.0 0.0
  outer loop
    vertex -685.8 -457.2 4267.2
    vertex -685.8 457.2 5029.2
    vertex -685.8 457.2 4267.2
  endloop
endfacet
facet normal 0.0 0.0 1.0
  outer loop
    vertex 4648.2 -457.2 5029.2
    vertex -685.8 457.2 5029.2
    vertex -685.8 -457.2 5029.2
  endloop
endfacet
facet normal 0.0 0.0 1.0
  outer loop
    vertex -685.8 457.2 5029.2
    vertex 4648.2 -457.2 5029.2
    vertex 4648.2 457.2 5029.2
  endloop
endfacet
facet normal 0.0 1.0 0.0
  outer loop
    vertex -685.8 457.2 4267.2
    vertex 76.19999999999999 457.2 3962.3999999999996
    vertex -381.0 457.2 3962.3999999999996
  endloop
endfacet
facet normal 0.0 1.0 0.0
  outer loop
    vertex 76.19999999999999 457.2 3962.3999999999996
    vertex -685.8 457.2 4267.2
    vertex 3886.2 457.2 3962.3999999999996
  endloop
endfacet
facet normal 0.0 1.0 0.0
  outer loop
    vertex 3886.2 457.2 3962.3999999999996
    vertex -685.8 457.2 4267.2
    vertex 4343.4 457.2 3962.3999999999996
  endloop
endfacet
facet normal 0.0 1.0 0.0
  outer loop
    vertex 4343.4 457.2 3962.3999999999996
    vertex -685.8 457.2 4267.2
    vertex 4648.2 457.2 4267.2
  endloop
endfacet
facet normal 0.0 1.0 0.0
  outer loop
    vertex 4648.2 457.2 4267.2
    vertex -685.8 457.2 4267.2
    vertex -685.8 457.2 5029.2
  endloop
endfacet
facet normal 0.0 1.0 0.0
  outer loop
    vertex 4648.2 457.2 4267.2
    vertex -685.8 457.2 5029.2
    vertex 4648.2 457.2 5029.2
  endloop
endfacet
facet normal 1.0 0.0 0.0
  outer loop
    vertex 4648.2 457.2 4267.2
    vertex 4648.2 -457.2 5029.2
    vertex 4648.2 -457.2 4267.2
  endloop
endfacet
facet normal 1.0 0.0 0.0
  outer loop
    vertex 4648.2 -457.2 5029.2
    vertex 4648.2 457.2 4267.2
    vertex 4648.2 457.2 5029.2
  endloop
endfacet
facet normal 0.7071067811865476 0.0 -0.7071067811865476
  outer loop
    vertex 4343.4 457.2 3962.3999999999996
    vertex 4648.2 -457.2 4267.2
    vertex 4343.4 -457.2 3962.3999999999996
  endloop
endfacet
facet normal 0.7071067811865476 0.0 -0.7071067811865476
  outer loop
    vertex 4648.2 -457.2 4267.2
    vertex 4343.4 457.2 3962.3999999999996
    vertex 4648.2 457.2 4267.2
  endloop
endfacet
facet normal 0.9914448613738105 0.13052619222005063 0.0
  outer loop
    vertex 591.1717062145779 104.46253946460557 0.0
    vertex 606.7504184352158 -13.869527956267579 3962.3999999999996
    vertex 606.7504184352158 -13.869527956267579 0.0
  endloop
endfacet
facet normal 0.9914448613738105 0.13052619222005063 0.0
  outer loop
    vertex 606.7504184352158 -13.869527956267579 3962.3999999999996
    vertex 591.1717062145779 104.46253946460557 0.0
    vertex 591.1717062145779 104.46253946460557 3962.3999999999996
  endloop
endfacet
facet normal 0.9238795325112859 0.3826834323650919 0.0
  outer loop
    vertex 545.4972330454611 214.73047204373242 0.0
    vertex 591.1717062145779 104.46253946460557 3962.3999999999996
    vertex 591.1717062145779 104.46253946460557 0.0
  endloop
endfacet
facet normal 0.9238795325112859 0.3826834323650919 0.0
  outer loop
    vertex 591.1717062145779 104.46253946460557 3962.3999999999996
    vertex 545.4972330454611 214.73047204373242 0.0
    vertex 545.4972330454611 214.73047204373242 3962.3999999999996
  endloop
endfacet
facet normal 0.13052619222004824 0.9914448613738108 0.0
  outer loop
    vertex 149.55041843521582 443.3304720437324 3962.3999999999996
    vertex 267.8824858560884 427.7517598230948 0.0
    vertex 149.55041843521582 443.3304720437324 0.0
  endloop
endfacet
facet normal 0.13052619222004824 0.9914448613738108 0.0
  outer loop
    vertex 267.8824858560884 427.7517598230948 0.0
    vertex 149.55041843521582 443.3304720437324 3962.3999999999996
    vertex 267.8824858560884 427.7517598230948 3962.3999999999996
  endloop
endfacet
facet normal 0.0 0.0 1.0
  outer loop
    vertex -292.0708693441462 -132.20159537713928 3962.3999999999996
    vertex -292.0708693441461 104.46253946460557 3962.3999999999996
    vertex -307.64958156478417 -13.869527956267579 3962.3999999999996
  endloop
endfacet
facet normal 0.0 0.0 1.0
  outer loop
    vertex -292.0708693441461 104.46253946460557 3962.3999999999996
    vertex -292.0708693441462 -132.20159537713928 3962.3999999999996
    vertex -246.39639617502962 -242.46952795626757 3962.3999999999996
  endloop
endfacet
facet normal 0.0 0.0 1.0
  outer loop
    vertex -292.0708693441461 104.46253946460557 3962.3999999999996
    vertex -246.39639617502962 -242.46952795626757 3962.3999999999996
    vertex -246.39639617502945 214.73047204373242 3962.3999999999996
  endloop
endfacet
facet normal 0.0 0.0 1.0
  outer loop
    vertex -246.39639617502945 214.73047204373242 3962.3999999999996
    vertex -246.39639617502962 -242.46952795626757 3962.3999999999996
    vertex -173.73880192327388 -337.1587483147568 3962.3999999999996
  endloop
endfacet
facet normal 0.0 0.0 1.0
  outer loop
    vertex -246.39639617502945 214.73047204373242 3962.3999999999996
    vertex -173.73880192327388 -337.1587483147568 3962.3999999999996
    vertex -173.73880192327368 309.41969240222164 3962.3999999999996
  endloop
endfacet
facet normal 0.0 0.0 1.0
  outer loop
    vertex -173.73880192327368 309.41969240222164 3962.3999999999996
    vertex -173.73880192327388 -337.1587483147568 3962.3999999999996
    vertex -79.04958156478436 -409.8163425665129 3962.3999999999996
  endloop
endfacet
facet normal 0.0 0.0 1.0
  outer loop
    vertex -173.73880192327368 309.41969240222164 3962.3999999999996
    vertex -79.04958156478436 -409.8163425665129 3962.3999999999996
    vertex -79.04958156478409 382.07728665397775 3962.3999999999996
  endloop
endfacet
facet normal 0.0 0.0 1.0
  outer loop
    vertex -79.04958156478409 382.07728665397775 3962.3999999999996
    vertex -79.04958156478436 -409.8163425665129 3962.3999999999996
    vertex 31.218351014343018 -455.49081573562995 3962.3999999999996
  endloop
endfacet
facet normal 0.0 0.0 1.0
  outer loop
    vertex -79.04958156478409 382.07728665397775 3962.3999999999996
    vertex 31.218351014343018 -455.49081573562995 3962.3999999999996
    vertex 31.21835101434338 427.7517598230948 3962.3999999999996
  endloop
endfacet
facet normal 0.0 0.0 1.0
  outer loop
    vertex 31.21835101434338 427.7517598230948 3962.3999999999996
    vertex 31.218351014343018 -455.49081573562995 3962.3999999999996
    vertex 149.55041843521573 -471.06952795626756 3962.3999999999996
  endloop
endfacet
facet normal 0.0 0.0 1.0
  outer loop
    vertex 31.21835101434338 427.7517598230948 3962.3999999999996
    vertex 149.55041843521573 -471.06952795626756 3962.3999999999996
    vertex 149.55041843521582 443.3304720437324 3962.3999999999996
  endloop
endfacet
facet normal 0.0 0.0 1.0
  outer loop
    vertex 149.55041843521582 443.3304720437324 3962.3999999999996
    vertex 149.55041843521573 -471.06952795626756 3962.3999999999996
    vertex 267.88248585608807 -455.49081573562995 3962.3999999999996
  endloop
endfacet
facet normal 0.0 0.0 1.0
  outer loop
    vertex 149.55041843521582 443.3304720437324 3962.3999999999996
    vertex 267.88248585608807 -455.49081573562995 3962.3999999999996
    vertex 267.8824858560884 427.7517598230948 3962.3999999999996
  endloop
endfacet
facet normal 0.0 0.0 1.0
  outer loop
    vertex 267.8824858560884 427.7517598230948 3962.3999999999996
    vertex 267.88248585608807 -455.49081573562995 3962.3999999999996
    vertex 378.15041843521544 -409.8163425665129 3962.3999999999996
  endloop
endfacet
facet normal 0.0 0.0 1.0
  outer loop
    vertex 267.8824858560884 427.7517598230948 3962.3999999999996
    vertex 378.15041843521544 -409.8163425665129 3962.3999999999996
    vertex 378.1504184352158 382.07728665397775 3962.3999999999996
  endloop
endfacet
facet normal 0.0 0.0 1.0
  outer loop
    vertex 378.1504184352158 382.07728665397775 3962.3999999999996
    vertex 378.15041843521544 -409.8163425665129 3962.3999999999996
    vertex 472.8396387937054 -337.1587483147568 3962.3999999999996
  endloop
endfacet
facet normal 0.0 0.0 1.0
  outer loop
    vertex 378.1504184352158 382.07728665397775 3962.3999999999996
    vertex 472.8396387937054 -337.1587483147568 3962.3999999999996
    vertex 472.8396387937054 309.41969240222164 3962.3999999999996
  endloop
endfacet
facet normal 0.0 0.0 1.0
  outer loop
    vertex 472.8396387937054 309.41969240222164 3962.3999999999996
    vertex 472.8396387937054 -337.1587483147568 3962.3999999999996
    vertex 545.4972330454609 -242.46952795626757 3962.3999999999996
  endloop
endfacet
facet normal 0.0 0.0 1.0
  outer loop
    vertex 472.8396387937054 309.41969240222164 3962.3999999999996
    vertex 545.4972330454609 -242.46952795626757 3962.3999999999996
    vertex 545.4972330454611 214.73047204373242 3962.3999999999996
  endloop
endfacet
facet normal 0.0 0.0 1.0
  outer loop
    vertex 545.4972330454611 214.73047204373242 3962.3999999999996
    vertex 545.4972330454609 -242.46952795626757 3962.3999999999996
    vertex 591.1717062145779 -132.20159537714073 3962.3999999999996
  endloop
endfacet
facet normal 0.0 0.0 1.0
  outer loop
    vertex 545.4972330454611 214.73047204373242 3962.3999999999996
    vertex 591.1717062145779 -132.20159537714073 3962.3999999999996
    vertex 591.1717062145779 104.46253946460557 3962.3999999999996
  endloop
endfacet
facet normal 0.0 0.0 1.0
  outer loop
    vertex 591.1717062145779 104.46253946460557 3962.3999999999996
    vertex 591.1717062145779 -132.20159537714073 3962.3999999999996
    vertex 606.7504184352158 -13.869527956267579 3962.3999999999996
  endloop
endfacet
facet normal 0.9914448613738105 -0.13052619222005063 0.0
  outer loop
    vertex 606.7504184352158 -13.869527956267579 0.0
    vertex 591.1717062145779 -132.20159537714073 3962.3999999999996
    vertex 591.1717062145779 -132.20159537714073 0.0
  endloop
endfacet
facet normal 0.9914448613738105 -0.13052619222005063 0.0
  outer loop
    vertex 591.1717062145779 -132.20159537714073 3962.3999999999996
    vertex 606.7504184352158 -13.869527956267579 0.0
    vertex 606.7504184352158 -13.869527956267579 3962.3999999999996
  endloop
endfacet
facet normal 0.38268343236509283 0.9238795325112855 0.0
  outer loop
    vertex 267.8824858560884 427.7517598230948 3962.3999999999996
    vertex 378.1504184352158 382.07728665397775 0.0
    vertex 267.8824858560884 427.7517598230948 0.0
  endloop
endfacet
facet normal 0.38268343236509283 0.9238795325112855 0.0
  outer loop
    vertex 378.1504184352158 382.07728665397775 0.0
    vertex 267.8824858560884 427.7517598230948 3962.3999999999996
    vertex 378.1504184352158 382.07728665397775 3962.3999999999996
  endloop
endfacet
facet normal -0.38268343236509267 0.9238795325112857 0.0
  outer loop
    vertex -79.04958156478409 382.07728665397775 3962.3999999999996
    vertex 31.21835101434338 427.7517598230948 0.0
    vertex -79.04958156478409 382.07728665397775 0.0
  endloop
endfacet
facet normal -0.38268343236509267 0.9238795325112857 0.0
  outer loop
    vertex 31.21835101434338 427.7517598230948 0.0
    vertex -79.04958156478409 382.07728665397775 3962.3999999999996
    vertex 31.21835101434338 427.7517598230948 3962.3999999999996
  endloop
endfacet
facet normal 0.6087614290087219 0.7933533402912344 0.0
  outer loop
    vertex 378.1504184352158 382.07728665397775 3962.3999999999996
    vertex 472.8396387937054 309.41969240222164 0.0
    vertex 378.1504184352158 382.07728665397775 0.0
  endloop
endfacet
facet normal 0.6087614290087219 0.7933533402912344 0.0
  outer loop
    vertex 472.8396387937054 309.41969240222164 0.0
    vertex 378.1504184352158 382.07728665397775 3962.3999999999996
    vertex 472.8396387937054 309.41969240222164 3962.3999999999996
  endloop
endfacet
facet normal -0.13052619222004844 0.9914448613738108 0.0
  outer loop
    vertex 31.21835101434338 427.7517598230948 3962.3999999999996
    vertex 149.55041843521582 443.3304720437324 0.0
    vertex 31.21835101434338 427.7517598230948 0.0
  endloop
endfacet
facet normal -0.13052619222004844 0.9914448613738108 0.0
  outer loop
    vertex 149.55041843521582 443.3304720437324 0.0
    vertex 31.21835101434338 427.7517598230948 3962.3999999999996
    vertex 149.55041843521582 443.3304720437324 3962.3999999999996
  endloop
endfacet
facet normal 0.7933533402912346 0.6087614290087214 0.0
  outer loop
    vertex 472.8396387937054 309.41969240222164 0.0
    vertex 545.4972330454611 214.73047204373242 3962.3999999999996
    vertex 545.4972330454611 214.73047204373242 0.0
  endloop
endfacet
facet normal 0.7933533402912346 0.6087614290087214 0.0
  outer loop
    vertex 545.4972330454611 214.73047204373242 3962.3999999999996
    vertex 472.8396387937054 309.41969240222164 0.0
    vertex 472.8396387937054 309.41969240222164 3962.3999999999996
  endloop
endfacet
facet normal -0.6087614290087219 0.7933533402912344 0.0
  outer loop
    vertex -173.73880192327368 309.41969240222164 3962.3999999999996
    vertex -79.04958156478409 382.07728665397775 0.0
    vertex -173.73880192327368 309.41969240222164 0.0
  endloop
endfacet
facet normal -0.6087614290087219 0.7933533402912344 0.0
  outer loop
    vertex -79.04958156478409 382.07728665397775 0.0
    vertex -173.73880192327368 309.41969240222164 3962.3999999999996
    vertex -79.04958156478409 382.07728665397775 3962.3999999999996
  endloop
endfacet
facet normal 0.7933533402912354 -0.6087614290087204 0.0
  outer loop
    vertex 545.4972330454609 -242.46952795626757 0.0
    vertex 472.8396387937054 -337.1587483147568 3962.3999999999996
    vertex 472.8396387937054 -337.1587483147568 0.0
  endloop
endfacet
facet normal 0.7933533402912354 -0.6087614290087204 0.0
  outer loop
    vertex 472.8396387937054 -337.1587483147568 3962.3999999999996
    vertex 545.4972330454609 -242.46952795626757 0.0
    vertex 545.4972330454609 -242.46952795626757 3962.3999999999996
  endloop
endfacet
facet normal -0.9238795325112878 -0.38268343236508695 -0.0
  outer loop
    vertex -292.0708693441462 -132.20159537713928 3962.3999999999996
    vertex -246.39639617502962 -242.46952795626757 0.0
    vertex -246.39639617502962 -242.46952795626757 3962.3999999999996
  endloop
endfacet
facet normal -0.9238795325112878 -0.38268343236508695 -0.0
  outer loop
    vertex -246.39639617502962 -242.46952795626757 0.0
    vertex -292.0708693441462 -132.20159537713928 3962.3999999999996
    vertex -292.0708693441462 -132.20159537713928 0.0
  endloop
endfacet
facet normal -0.9914448613738105 0.13052619222005138 0.0
  outer loop
    vertex -292.0708693441461 104.46253946460557 3962.3999999999996
    vertex -307.64958156478417 -13.869527956267579 0.0
    vertex -307.64958156478417 -13.869527956267579 3962.3999999999996
  endloop
endfacet
facet normal -0.9914448613738105 0.13052619222005138 0.0
  outer loop
    vertex -307.64958156478417 -13.869527956267579 0.0
    vertex -292.0708693441461 104.46253946460557 3962.3999999999996
    vertex -292.0708693441461 104.46253946460557 0.0
  endloop
endfacet
facet normal 0.9238795325112853 -0.3826834323650931 0.0
  outer loop
    vertex 591.1717062145779 -132.20159537714073 0.0
    vertex 545.4972330454609 -242.46952795626757 3962.3999999999996
    vertex 545.4972330454609 -242.46952795626757 0.0
  endloop
endfacet
facet normal 0.9238795325112853 -0.3826834323650931 0.0
  outer loop
    vertex 545.4972330454609 -242.46952795626757 3962.3999999999996
    vertex 591.1717062145779 -132.20159537714073 0.0
    vertex 591.1717062145779 -132.20159537714073 3962.3999999999996
  endloop
endfacet
facet normal -0.7933533402912346 -0.6087614290087214 -0.0
  outer loop
    vertex -246.39639617502962 -242.46952795626757 3962.3999999999996
    vertex -173.73880192327388 -337.1587483147568 0.0
    vertex -173.73880192327388 -337.1587483147568 3962.3999999999996
  endloop
endfacet
facet normal -0.7933533402912346 -0.6087614290087214 -0.0
  outer loop
    vertex -173.73880192327388 -337.1587483147568 0.0
    vertex -246.39639617502962 -242.46952795626757 3962.3999999999996
    vertex -246.39639617502962 -242.46952795626757 0.0
  endloop
endfacet
facet normal -0.9914448613738103 -0.13052619222005218 -0.0
  outer loop
    vertex -307.64958156478417 -13.869527956267579 3962.3999999999996
    vertex -292.0708693441462 -132.20159537713928 0.0
    vertex -292.0708693441462 -132.20159537713928 3962.3999999999996
  endloop
endfacet
facet normal -0.9914448613738103 -0.13052619222005218 -0.0
  outer loop
    vertex -292.0708693441462 -132.20159537713928 0.0
    vertex -307.64958156478417 -13.869527956267579 3962.3999999999996
    vertex -307.64958156478417 -13.869527956267579 0.0
  endloop
endfacet
facet normal -0.38268343236509283 -0.9238795325112855 -0.0
  outer loop
    vertex 31.218351014343018 -455.49081573562995 3962.3999999999996
    vertex -79.04958156478436 -409.8163425665129 0.0
    vertex 31.218351014343018 -455.49081573562995 0.0
  endloop
endfacet
facet normal -0.38268343236509283 -0.9238795325112855 -0.0
  outer loop
    vertex -79.04958156478436 -409.8163425665129 0.0
    vertex 31.218351014343018 -455.49081573562995 3962.3999999999996
    vertex -79.04958156478436 -409.8163425665129 3962.3999999999996
  endloop
endfacet
facet normal -0.13052619222004813 -0.9914448613738108 -0.0
  outer loop
    vertex 149.55041843521573 -471.06952795626756 3962.3999999999996
    vertex 31.218351014343018 -455.49081573562995 0.0
    vertex 149.55041843521573 -471.06952795626756 0.0
  endloop
endfacet
facet normal -0.13052619222004813 -0.9914448613738108 -0.0
  outer loop
    vertex 31.218351014343018 -455.49081573562995 0.0
    vertex 149.55041843521573 -471.06952795626756 3962.3999999999996
    vertex 31.218351014343018 -455.49081573562995 3962.3999999999996
  endloop
endfacet
facet normal -0.9238795325112859 0.3826834323650919 0.0
  outer loop
    vertex -246.39639617502945 214.73047204373242 3962.3999999999996
    vertex -292.0708693441461 104.46253946460557 0.0
    vertex -292.0708693441461 104.46253946460557 3962.3999999999996
  endloop
endfacet
facet normal -0.9238795325112859 0.3826834323650919 0.0
  outer loop
    vertex -292.0708693441461 104.46253946460557 0.0
    vertex -246.39639617502945 214.73047204373242 3962.3999999999996
    vertex -246.39639617502945 214.73047204373242 0.0
  endloop
endfacet
facet normal -0.7933533402912346 0.6087614290087214 0.0
  outer loop
    vertex -173.73880192327368 309.41969240222164 3962.3999999999996
    vertex -246.39639617502945 214.73047204373242 0.0
    vertex -246.39639617502945 214.73047204373242 3962.3999999999996
  endloop
endfacet
facet normal -0.7933533402912346 0.6087614290087214 0.0
  outer loop
    vertex -246.39639617502945 214.73047204373242 0.0
    vertex -173.73880192327368 309.41969240222164 3962.3999999999996
    vertex -173.73880192327368 309.41969240222164 0.0
  endloop
endfacet
facet normal 0.13052619222004855 -0.9914448613738109 0.0
  outer loop
    vertex 267.88248585608807 -455.49081573562995 3962.3999999999996
    vertex 149.55041843521573 -471.06952795626756 0.0
    vertex 267.88248585608807 -455.49081573562995 0.0
  endloop
endfacet
facet normal 0.13052619222004855 -0.9914448613738109 0.0
  outer loop
    vertex 149.55041843521573 -471.06952795626756 0.0
    vertex 267.88248585608807 -455.49081573562995 3962.3999999999996
    vertex 149.55041843521573 -471.06952795626756 3962.3999999999996
  endloop
endfacet
facet normal 0.38268343236509283 -0.9238795325112855 0.0
  outer loop
    vertex 378.15041843521544 -409.8163425665129 3962.3999999999996
    vertex 267.88248585608807 -455.49081573562995 0.0
    vertex 378.15041843521544 -409.8163425665129 0.0
  endloop
endfacet
facet normal 0.38268343236509283 -0.9238795325112855 0.0
  outer loop
    vertex 267.88248585608807 -455.49081573562995 0.0
    vertex 378.15041843521544 -409.8163425665129 3962.3999999999996
    vertex 267.88248585608807 -455.49081573562995 3962.3999999999996
  endloop
endfacet
facet normal 0.6087614290087203 -0.7933533402912354 0.0
  outer loop
    vertex 472.8396387937054 -337.1587483147568 3962.3999999999996
    vertex 378.15041843521544 -409.8163425665129 0.0
    vertex 472.8396387937054 -337.1587483147568 0.0
  endloop
endfacet
facet normal 0.6087614290087203 -0.7933533402912354 0.0
  outer loop
    vertex 378.15041843521544 -409.8163425665129 0.0
    vertex 472.8396387937054 -337.1587483147568 3962.3999999999996
    vertex 378.15041843521544 -409.8163425665129 3962.3999999999996
  endloop
endfacet
facet normal -0.6087614290087222 -0.793353340291234 -0.0
  outer loop
    vertex -79.04958156478436 -409.8163425665129 3962.3999999999996
    vertex -173.73880192327388 -337.1587483147568 0.0
    vertex -79.04958156478436 -409.8163425665129 0.0
  endloop
endfacet
facet normal -0.6087614290087222 -0.793353340291234 -0.0
  outer loop
    vertex -173.73880192327388 -337.1587483147568 0.0
    vertex -79.04958156478436 -409.8163425665129 3962.3999999999996
    vertex -173.73880192327388 -337.1587483147568 3962.3999999999996
  endloop
endfacet
facet normal 0.0 0.0 -1.0
  outer loop
    vertex -292.0708693441461 104.46253946460557 0.0
    vertex -292.0708693441462 -132.20159537713928 0.0
    vertex -307.64958156478417 -13.869527956267579 0.0
  endloop
endfacet
facet normal 0.0 0.0 -1.0
  outer loop
    vertex -292.0708693441462 -132.20159537713928 0.0
    vertex -292.0708693441461 104.46253946460557 0.0
    vertex -246.39639617502962 -242.46952795626757 0.0
  endloop
endfacet
facet normal 0.0 0.0 -1.0
  outer loop
    vertex -246.39639617502962 -242.46952795626757 0.0
    vertex -292.0708693441461 104.46253946460557 0.0
    vertex -246.39639617502945 214.73047204373242 0.0
  endloop
endfacet
facet normal 0.0 0.0 -1.0
  outer loop
    vertex -246.39639617502962 -242.46952795626757 0.0
    vertex -246.39639617502945 214.73047204373242 0.0
    vertex -173.73880192327388 -337.1587483147568 0.0
  endloop
endfacet
facet normal 0.0 0.0 -1.0
  outer loop
    vertex -173.73880192327388 -337.1587483147568 0.0
    vertex -246.39639617502945 214.73047204373242 0.0
    vertex -173.73880192327368 309.41969240222164 0.0
  endloop
endfacet
facet normal 0.0 0.0 -1.0
  outer loop
    vertex -173.73880192327388 -337.1587483147568 0.0
    vertex -173.73880192327368 309.41969240222164 0.0
    vertex -79.04958156478436 -409.8163425665129 0.0
  endloop
endfacet
facet normal 0.0 0.0 -1.0
  outer loop
    vertex -79.04958156478436 -409.8163425665129 0.0
    vertex -173.73880192327368 309.41969240222164 0.0
    vertex -79.04958156478409 382.07728665397775 0.0
  endloop
endfacet
facet normal 0.0 0.0 -1.0
  outer loop
    vertex -79.04958156478436 -409.8163425665129 0.0
    vertex -79.04958156478409 382.07728665397775 0.0
    vertex 31.218351014343018 -455.49081573562995 0.0
  endloop
endfacet
facet normal 0.0 0.0 -1.0
  outer loop
    vertex 31.218351014343018 -455.49081573562995 0.0
    vertex -79.04958156478409 382.07728665397775 0.0
    vertex 31.21835101434338 427.7517598230948 0.0
  endloop
endfacet
facet normal 0.0 0.0 -1.0
  outer loop
    vertex 31.218351014343018 -455.49081573562995 0.0
    vertex 31.21835101434338 427.7517598230948 0.0
    vertex 149.55041843521573 -471.06952795626756 0.0
  endloop
endfacet
facet normal 0.0 0.0 -1.0
  outer loop
    vertex 149.55041843521573 -471.06952795626756 0.0
    vertex 31.21835101434338 427.7517598230948 0.0
    vertex 149.55041843521582 443.3304720437324 0.0
  endloop
endfacet
facet normal 0.0 0.0 -1.0
  outer loop
    vertex 149.55041843521573 -471.06952795626756 0.0
    vertex 149.55041843521582 443.3304720437324 0.0
    vertex 267.88248585608807 -455.49081573562995 0.0
  endloop
endfacet
facet normal 0.0 0.0 -1.0
  outer loop
    vertex 267.88248585608807 -455.49081573562995 0.0
    vertex 149.55041843521582 443.3304720437324 0.0
    vertex 267.8824858560884 427.7517598230948 0.0
  endloop
endfacet
facet normal 0.0 0.0 -1.0
  outer loop
    vertex 267.88248585608807 -455.49081573562995 0.0
    vertex 267.8824858560884 427.7517598230948 0.0
    vertex 378.15041843521544 -409.8163425665129 0.0
  endloop
endfacet
facet normal 0.0 0.0 -1.0
  outer loop
    vertex 378.15041843521544 -409.8163425665129 0.0
    vertex 267.8824858560884 427.7517598230948 0.0
    vertex 378.1504184352158 382.07728665397775 0.0
  endloop
endfacet
facet normal 0.0 0.0 -1.0
  outer loop
    vertex 378.15041843521544 -409.8163425665129 0.0
    vertex 378.1504184352158 382.07728665397775 0.0
    vertex 472.8396387937054 -337.1587483147568 0.0
  endloop
endfacet
facet normal 0.0 0.0 -1.0
  outer loop
    vertex 472.8396387937054 -337.1587483147568 0.0
    vertex 378.1504184352158 382.07728665397775 0.0
    vertex 472.8396387937054 309.41969240222164 0.0
  endloop
endfacet
facet normal 0.0 0.0 -1.0
  outer loop
    vertex 472.8396387937054 -337.1587483147568 0.0
    vertex 472.8396387937054 309.41969240222164 0.0
    vertex 545.4972330454611 214.73047204373242 0.0
  endloop
endfacet
facet normal 0.0 0.0 -1.0
  outer loop
    vertex 472.8396387937054 -337.1587483147568 0.0
    vertex 545.4972330454611 214.73047204373242 0.0
    vertex 545.4972330454609 -242.46952795626757 0.0
  endloop
endfacet
facet normal 0.0 0.0 -1.0
  outer loop
    vertex 545.4972330454609 -242.46952795626757 0.0
    vertex 545.4972330454611 214.73047204373242 0.0
    vertex 591.1717062145779 -132.20159537714073 0.0
  endloop
endfacet
facet normal 0.0 0.0 -1.0
  outer loop
    vertex 591.1717062145779 -132.20159537714073 0.0
    vertex 545.4972330454611 214.73047204373242 0.0
    vertex 591.1717062145779 104.46253946460557 0.0
  endloop
endfacet
facet normal 0.0 0.0 -1.0
  outer loop
    vertex 591.1717062145779 -132.20159537714073 0.0
    vertex 591.1717062145779 104.46253946460557 0.0
    vertex 606.7504184352158 -13.869527956267579 0.0
  endloop
endfacet
endsolid overpass
