solid house assy
facet normal 0.8462127656258337 -5.38451044945881e-16 -0.5328451513262348
  outer loop
    vertex 217.04827520378936 50.8 2840.4373748074077
    vertex 218.54994642806253 -3352.7999999999997 2842.8221827700813
    vertex 217.04827520378936 -3352.7999999999997 2840.4373748074077
  endloop
endfacet
facet normal 0.8462127656258337 -5.38451044945881e-16 -0.5328451513262348
  outer loop
    vertex 218.54994642806253 -3352.7999999999997 2842.8221827700813
    vertex 217.04827520378936 50.8 2840.4373748074077
    vertex 218.54994642806685 50.8 2842.8221827700813
  endloop
endfacet
facet normal 3.7223241684341166e-18 1.0 -1.2035278890216156e-17
  outer loop
    vertex -2330.4499999999957 50.8 4387.849999999999
    vertex 217.04827520378936 50.8 2840.4373748074077
    vertex 127.00000000000432 50.8 2840.4373748074077
  endloop
endfacet
facet normal 3.7223241684341166e-18 1.0 -1.2035278890216156e-17
  outer loop
    vertex 217.04827520378936 50.8 2840.4373748074077
    vertex -2330.4499999999957 50.8 4387.849999999999
    vertex 218.54994642806685 50.8 2842.8221827700813
  endloop
endfacet
facet normal 3.7223241684341166e-18 1.0 -1.2035278890216156e-17
  outer loop
    vertex 218.54994642806685 50.8 2842.8221827700813
    vertex -2330.4499999999957 50.8 4387.849999999999
    vertex -2303.3814663125945 50.8 4430.8376084937745
  endloop
endfacet
facet normal 1.2231113480669183e-15 -1.0 2.0660425887416934e-15
  outer loop
    vertex -2330.4499999999957 -3200.3999999999996 4387.849999999999
    vertex -16.005899200281366 -3200.3999999999996 2840.437374807407
    vertex 127.00000000000396 -3200.3999999999996 2840.437374807407
  endloop
endfacet
facet normal 1.2231113480669183e-15 -1.0 2.0660425887416934e-15
  outer loop
    vertex -16.005899200281366 -3200.3999999999996 2840.437374807407
    vertex -2330.4499999999957 -3200.3999999999996 4387.849999999999
    vertex -2330.449999999996 -3200.3999999999996 4297.801724796214
  endloop
endfacet
facet normal -0.5328451513267884 3.9056422734076814e-16 -0.8462127656254849
  outer loop
    vertex -2330.4499999999816 -152.40000000000072 4297.801724796208
    vertex -16.005899200281366 -3200.3999999999996 2840.437374807407
    vertex -2330.449999999996 -3200.3999999999996 4297.801724796214
  endloop
endfacet
facet normal -0.5328451513267884 3.9056422734076814e-16 -0.8462127656254849
  outer loop
    vertex -16.005899200281366 -3200.3999999999996 2840.437374807407
    vertex -2330.4499999999816 -152.40000000000072 4297.801724796208
    vertex -16.005899200281007 -152.40000000000035 2840.437374807407
  endloop
endfacet
facet normal -2.5217968428983908e-15 1.0 -4.01206567916513e-15
  outer loop
    vertex -2330.4499999999816 -152.40000000000072 4297.801724796208
    vertex 127.0000000000054 -152.40000000000035 2840.437374807407
    vertex -16.005899200281007 -152.40000000000035 2840.437374807407
  endloop
endfacet
facet normal -2.5217968428983908e-15 1.0 -4.01206567916513e-15
  outer loop
    vertex 127.0000000000054 -152.40000000000035 2840.437374807407
    vertex -2330.4499999999816 -152.40000000000072 4297.801724796208
    vertex -2330.4499999999957 -152.39999999999998 4387.849999999999
  endloop
endfacet
facet normal -0.8462127656254833 9.249305456421019e-17 0.532845151326791
  outer loop
    vertex -2303.3814663125945 50.8 4430.8376084937745
    vertex -2330.4499999999957 -3352.7999999999997 4387.849999999999
    vertex -2303.381466312595 -3352.7999999999997 4430.8376084937745
  endloop
endfacet
facet normal -0.8462127656254833 9.249305456421019e-17 0.532845151326791
  outer loop
    vertex -2330.4499999999957 -3352.7999999999997 4387.849999999999
    vertex -2303.3814663125945 50.8 4430.8376084937745
    vertex -2330.4499999999957 -3200.3999999999996 4387.849999999999
  endloop
endfacet
facet normal -0.8462127656254833 9.249305456421019e-17 0.532845151326791
  outer loop
    vertex -2330.4499999999957 -3200.3999999999996 4387.849999999999
    vertex -2303.3814663125945 50.8 4430.8376084937745
    vertex -2330.4499999999957 -152.39999999999998 4387.849999999999
  endloop
endfacet
facet normal -0.8462127656254833 9.249305456421019e-17 0.532845151326791
  outer loop
    vertex -2330.4499999999957 -152.39999999999998 4387.849999999999
    vertex -2303.3814663125945 50.8 4430.8376084937745
    vertex -2330.4499999999957 50.8 4387.849999999999
  endloop
endfacet
facet normal -0.5328451513267881 2.2905872305281903e-16 -0.8462127656254852
  outer loop
    vertex 127.00000000000432 50.8 2840.4373748074077
    vertex -2330.4499999999957 -152.39999999999998 4387.849999999999
    vertex -2330.4499999999957 50.8 4387.849999999999
  endloop
endfacet
facet normal -0.5328451513267881 2.2905872305281903e-16 -0.8462127656254852
  outer loop
    vertex -2330.4499999999957 -152.39999999999998 4387.849999999999
    vertex 127.00000000000432 50.8 2840.4373748074077
    vertex 127.0000000000054 -152.40000000000035 2840.437374807407
  endloop
endfacet
facet normal 0.5328451513267884 -3.754802494812306e-16 0.846212765625485
  outer loop
    vertex 218.54994642806253 -3352.7999999999997 2842.8221827700813
    vertex -2303.3814663125945 50.8 4430.8376084937745
    vertex -2303.381466312595 -3352.7999999999997 4430.8376084937745
  endloop
endfacet
facet normal 0.5328451513267884 -3.754802494812306e-16 0.846212765625485
  outer loop
    vertex -2303.3814663125945 50.8 4430.8376084937745
    vertex 218.54994642806253 -3352.7999999999997 2842.8221827700813
    vertex 218.54994642806685 50.8 2842.8221827700813
  endloop
endfacet
facet normal 3.0195566805079135e-15 9.00485062806389e-19 -1.0
  outer loop
    vertex 217.04827520378936 50.8 2840.4373748074077
    vertex 127.0000000000054 -152.40000000000035 2840.437374807407
    vertex 127.00000000000432 50.8 2840.4373748074077
  endloop
endfacet
facet normal 3.0195566805079135e-15 9.00485062806389e-19 -1.0
  outer loop
    vertex -16.005899200281007 -152.40000000000035 2840.437374807407
    vertex 127.00000000000396 -3200.3999999999996 2840.437374807407
    vertex -16.005899200281366 -3200.3999999999996 2840.437374807407
  endloop
endfacet
facet normal 3.0195566805079135e-15 9.00485062806389e-19 -1.0
  outer loop
    vertex 127.00000000000396 -3200.3999999999996 2840.437374807407
    vertex -16.005899200281007 -152.40000000000035 2840.437374807407
    vertex 127.0000000000054 -152.40000000000035 2840.437374807407
  endloop
endfacet
facet normal 3.0195566805079135e-15 9.00485062806389e-19 -1.0
  outer loop
    vertex 127.00000000000396 -3200.3999999999996 2840.437374807407
    vertex 127.0000000000054 -152.40000000000035 2840.437374807407
    vertex 127.00000000000432 -3352.7999999999997 2840.4373748074077
  endloop
endfacet
facet normal 3.0195566805079135e-15 9.00485062806389e-19 -1.0
  outer loop
    vertex 127.00000000000432 -3352.7999999999997 2840.4373748074077
    vertex 127.0000000000054 -152.40000000000035 2840.437374807407
    vertex 217.04827520378936 -3352.7999999999997 2840.4373748074077
  endloop
endfacet
facet normal 3.0195566805079135e-15 9.00485062806389e-19 -1.0
  outer loop
    vertex 217.04827520378936 -3352.7999999999997 2840.4373748074077
    vertex 127.0000000000054 -152.40000000000035 2840.437374807407
    vertex 217.04827520378936 50.8 2840.4373748074077
  endloop
endfacet
facet normal -1.0 2.427687680513597e-15 -7.415667446779425e-14
  outer loop
    vertex -2330.4499999999957 -3200.3999999999996 4387.849999999999
    vertex -2330.4499999999816 -152.40000000000072 4297.801724796208
    vertex -2330.449999999996 -3200.3999999999996 4297.801724796214
  endloop
endfacet
facet normal -1.0 2.427687680513597e-15 -7.415667446779425e-14
  outer loop
    vertex -2330.4499999999816 -152.40000000000072 4297.801724796208
    vertex -2330.4499999999957 -3200.3999999999996 4387.849999999999
    vertex -2330.4499999999957 -152.39999999999998 4387.849999999999
  endloop
endfacet
facet normal -0.5328451513267882 -2.920662820327139e-15 -0.8462127656254852
  outer loop
    vertex 127.00000000000396 -3200.3999999999996 2840.437374807407
    vertex -2330.4499999999957 -3352.7999999999997 4387.849999999999
    vertex -2330.4499999999957 -3200.3999999999996 4387.849999999999
  endloop
endfacet
facet normal -0.5328451513267882 -2.920662820327139e-15 -0.8462127656254852
  outer loop
    vertex -2330.4499999999957 -3352.7999999999997 4387.849999999999
    vertex 127.00000000000396 -3200.3999999999996 2840.437374807407
    vertex 127.00000000000432 -3352.7999999999997 2840.4373748074077
  endloop
endfacet
facet normal 0.0 -1.0 0.0
  outer loop
    vertex 218.54994642806253 -3352.7999999999997 2842.8221827700813
    vertex 127.00000000000432 -3352.7999999999997 2840.4373748074077
    vertex 217.04827520378936 -3352.7999999999997 2840.4373748074077
  endloop
endfacet
facet normal 0.0 -1.0 0.0
  outer loop
    vertex 127.00000000000432 -3352.7999999999997 2840.4373748074077
    vertex 218.54994642806253 -3352.7999999999997 2842.8221827700813
    vertex -2330.4499999999957 -3352.7999999999997 4387.849999999999
  endloop
endfacet
facet normal 0.0 -1.0 0.0
  outer loop
    vertex -2330.4499999999957 -3352.7999999999997 4387.849999999999
    vertex 218.54994642806253 -3352.7999999999997 2842.8221827700813
    vertex -2303.381466312595 -3352.7999999999997 4430.8376084937745
  endloop
endfacet
endsolid house assy
