solid garage north wall
facet normal 1.0 0.0 0.0
  outer loop
    vertex 1753.1472924863997 -1691.8481095973966 381.00000000000006
    vertex 1753.1472924863997 -1793.4481095973965 2463.7999999999997
    vertex 1753.1472924863997 -1793.4481095973965 381.00000000000006
  endloop
endfacet
facet normal 1.0 0.0 0.0
  outer loop
    vertex 1753.1472924863997 -1793.4481095973965 2463.7999999999997
    vertex 1753.1472924863997 -1691.8481095973966 381.00000000000006
    vertex 1753.1472924863997 -1691.8481095973966 2463.7999999999997
  endloop
endfacet
facet normal -1.0 0.0 0.0
  outer loop
    vertex 1734.0972924863997 -1691.8481095973966 2463.7999999999997
    vertex 1734.0972924863997 -1793.4481095973965 381.00000000000006
    vertex 1734.0972924863997 -1793.4481095973965 2463.7999999999997
  endloop
endfacet
facet normal -1.0 0.0 0.0
  outer loop
    vertex 1734.0972924863997 -1793.4481095973965 381.00000000000006
    vertex 1734.0972924863997 -1691.8481095973966 2463.7999999999997
    vertex 1734.0972924863997 -1691.8481095973966 381.00000000000006
  endloop
endfacet
facet normal 0.0 -1.0 0.0
  outer loop
    vertex 1753.1472924863997 -1793.4481095973965 2463.7999999999997
    vertex 1734.0972924863997 -1793.4481095973965 381.00000000000006
    vertex 1753.1472924863997 -1793.4481095973965 381.00000000000006
  endloop
endfacet
facet normal 0.0 -1.0 0.0
  outer loop
    vertex 1734.0972924863997 -1793.4481095973965 381.00000000000006
    vertex 1753.1472924863997 -1793.4481095973965 2463.7999999999997
    vertex 1734.0972924863997 -1793.4481095973965 2463.7999999999997
  endloop
endfacet
facet normal -0.0 -0.0 -1.0
  outer loop
    vertex 1753.1472924863997 -1691.8481095973966 381.00000000000006
    vertex 1734.0972924863997 -1793.4481095973965 381.00000000000006
    vertex 1734.0972924863997 -1691.8481095973966 381.00000000000006
  endloop
endfacet
facet normal -0.0 -0.0 -1.0
  outer loop
    vertex 1734.0972924863997 -1793.4481095973965 381.00000000000006
    vertex 1753.1472924863997 -1691.8481095973966 381.00000000000006
    vertex 1753.1472924863997 -1793.4481095973965 381.00000000000006
  endloop
endfacet
facet normal 0.0 1.0 0.0
  outer loop
    vertex 1734.0972924863997 -1691.8481095973966 2463.7999999999997
    vertex 1753.1472924863997 -1691.8481095973966 381.00000000000006
    vertex 1734.0972924863997 -1691.8481095973966 381.00000000000006
  endloop
endfacet
facet normal 0.0 1.0 0.0
  outer loop
    vertex 1753.1472924863997 -1691.8481095973966 381.00000000000006
    vertex 1734.0972924863997 -1691.8481095973966 2463.7999999999997
    vertex 1753.1472924863997 -1691.8481095973966 2463.7999999999997
  endloop
endfacet
facet normal 0.0 0.0 1.0
  outer loop
    vertex 1753.1472924863997 -1793.4481095973965 2463.7999999999997
    vertex 1734.0972924863997 -1691.8481095973966 2463.7999999999997
    vertex 1734.0972924863997 -1793.4481095973965 2463.7999999999997
  endloop
endfacet
facet normal 0.0 0.0 1.0
  outer loop
    vertex 1734.0972924863997 -1691.8481095973966 2463.7999999999997
    vertex 1753.1472924863997 -1793.4481095973965 2463.7999999999997
    vertex 1753.1472924863997 -1691.8481095973966 2463.7999999999997
  endloop
endfacet
facet normal 1.0510987215386086e-17 -6.719048789582243e-18 1.0
  outer loop
    vertex 1753.1472924863997 -1787.0981095973966 190.5
    vertex 1111.7972924863998 -371.0481095973967 190.5
    vertex 1111.7972924863998 -1787.0981095973966 190.5
  endloop
endfacet
facet normal 1.0510987215386086e-17 -6.719048789582243e-18 1.0
  outer loop
    vertex 1111.7972924863998 -371.0481095973967 190.5
    vertex 1753.1472924863997 -1787.0981095973966 190.5
    vertex 1753.1472924863997 -371.0481095973967 190.5
  endloop
endfacet
facet normal -1.0 0.0 1.0510987215386086e-17
  outer loop
    vertex 1111.7972924863998 -371.0481095973967 190.5
    vertex 1111.7972924863998 -1787.0981095973966 1.9036621911398153e-14
    vertex 1111.7972924863998 -1787.0981095973966 190.5
  endloop
endfacet
facet normal -1.0 0.0 1.0510987215386086e-17
  outer loop
    vertex 1111.7972924863998 -1787.0981095973966 1.9036621911398153e-14
    vertex 1111.7972924863998 -371.0481095973967 190.5
    vertex 1111.7972924863998 -371.0481095973967 2.180990929929855e-14
  endloop
endfacet
facet normal -1.412476718537086e-34 -1.0 -6.719048789582243e-18
  outer loop
    vertex 1753.1472924863997 -1787.0981095973966 190.5
    vertex 1111.7972924863998 -1787.0981095973966 1.9036621911398153e-14
    vertex 1753.1472924863997 -1787.0981095973966 5.554178610222421e-15
  endloop
endfacet
facet normal -1.412476718537086e-34 -1.0 -6.719048789582243e-18
  outer loop
    vertex 1111.7972924863998 -1787.0981095973966 1.9036621911398153e-14
    vertex 1753.1472924863997 -1787.0981095973966 190.5
    vertex 1111.7972924863998 -1787.0981095973966 190.5
  endloop
endfacet
facet normal 1.0 1.4124767185370865e-34 -1.0510987215386086e-17
  outer loop
    vertex 1753.1472924863997 -371.0481095973967 2.180990929929855e-14
    vertex 1753.1472924863997 -1787.0981095973966 190.5
    vertex 1753.1472924863997 -1787.0981095973966 5.554178610222421e-15
  endloop
endfacet
facet normal 1.0 1.4124767185370865e-34 -1.0510987215386086e-17
  outer loop
    vertex 1753.1472924863997 -1787.0981095973966 190.5
    vertex 1753.1472924863997 -371.0481095973967 2.180990929929855e-14
    vertex 1753.1472924863997 -371.0481095973967 190.5
  endloop
endfacet
facet normal -1.0510987215386086e-17 6.719048789582243e-18 -1.0
  outer loop
    vertex 1753.1472924863997 -371.0481095973967 2.180990929929855e-14
    vertex 1111.7972924863998 -1787.0981095973966 1.9036621911398153e-14
    vertex 1111.7972924863998 -371.0481095973967 2.180990929929855e-14
  endloop
endfacet
facet normal -1.0510987215386086e-17 6.719048789582243e-18 -1.0
  outer loop
    vertex 1111.7972924863998 -1787.0981095973966 1.9036621911398153e-14
    vertex 1753.1472924863997 -371.0481095973967 2.180990929929855e-14
    vertex 1753.1472924863997 -1787.0981095973966 5.554178610222421e-15
  endloop
endfacet
facet normal 0.0 1.0 6.719048789582243e-18
  outer loop
    vertex 1111.7972924863998 -371.0481095973967 190.5
    vertex 1753.1472924863997 -371.0481095973967 2.180990929929855e-14
    vertex 1111.7972924863998 -371.0481095973967 2.180990929929855e-14
  endloop
endfacet
facet normal 0.0 1.0 6.719048789582243e-18
  outer loop
    vertex 1753.1472924863997 -371.0481095973967 2.180990929929855e-14
    vertex 1111.7972924863998 -371.0481095973967 190.5
    vertex 1753.1472924863997 -371.0481095973967 190.5
  endloop
endfacet
facet normal 0.0 1.0 0.0
  outer loop
    vertex 1803.9472924863996 -1577.5481095973967 1885.9499999999998
    vertex 1905.5472924863998 -1577.5481095973967 1498.6
    vertex 1803.9472924863996 -1577.5481095973967 1498.6
  endloop
endfacet
facet normal 0.0 1.0 0.0
  outer loop
    vertex 1905.5472924863998 -1577.5481095973967 1498.6
    vertex 1803.9472924863996 -1577.5481095973967 1885.9499999999998
    vertex 1905.5472924863998 -1577.5481095973967 1885.9499999999998
  endloop
endfacet
facet normal -0.0 -1.0 -0.0
  outer loop
    vertex 1905.5472924863998 -1291.7981095973967 1885.9499999999998
    vertex 1803.9472924863996 -1291.7981095973967 1498.6
    vertex 1905.5472924863998 -1291.7981095973967 1498.6
  endloop
endfacet
facet normal -0.0 -1.0 -0.0
  outer loop
    vertex 1803.9472924863996 -1291.7981095973967 1498.6
    vertex 1905.5472924863998 -1291.7981095973967 1885.9499999999998
    vertex 1803.9472924863996 -1291.7981095973967 1885.9499999999998
  endloop
endfacet
facet normal 0.0 0.0 -1.0
  outer loop
    vertex 1905.5472924863998 -1291.7981095973967 1885.9499999999998
    vertex 1803.9472924863996 -1577.5481095973967 1885.9499999999998
    vertex 1803.9472924863996 -1291.7981095973967 1885.9499999999998
  endloop
endfacet
facet normal 0.0 0.0 -1.0
  outer loop
    vertex 1803.9472924863996 -1577.5481095973967 1885.9499999999998
    vertex 1905.5472924863998 -1291.7981095973967 1885.9499999999998
    vertex 1905.5472924863998 -1577.5481095973967 1885.9499999999998
  endloop
endfacet
facet normal 0.0 0.0 1.0
  outer loop
    vertex 1905.5472924863998 -1577.5481095973967 1498.6
    vertex 1803.9472924863996 -1291.7981095973967 1498.6
    vertex 1803.9472924863996 -1577.5481095973967 1498.6
  endloop
endfacet
facet normal 0.0 0.0 1.0
  outer loop
    vertex 1803.9472924863996 -1291.7981095973967 1498.6
    vertex 1905.5472924863998 -1577.5481095973967 1498.6
    vertex 1905.5472924863998 -1291.7981095973967 1498.6
  endloop
endfacet
facet normal 0.0 0.0 1.0
  outer loop
    vertex 1905.5472924863998 -1577.5481095973967 1924.05
    vertex 1803.9472924863996 -1291.7981095973967 1924.05
    vertex 1803.9472924863996 -1577.5481095973967 1924.05
  endloop
endfacet
facet normal 0.0 0.0 1.0
  outer loop
    vertex 1803.9472924863996 -1291.7981095973967 1924.05
    vertex 1905.5472924863998 -1577.5481095973967 1924.05
    vertex 1905.5472924863998 -1291.7981095973967 1924.05
  endloop
endfacet
facet normal 0.0 1.0 0.0
  outer loop
    vertex 1803.9472924863996 -1577.5481095973967 2311.4
    vertex 1905.5472924863998 -1577.5481095973967 1924.05
    vertex 1803.9472924863996 -1577.5481095973967 1924.05
  endloop
endfacet
facet normal 0.0 1.0 0.0
  outer loop
    vertex 1905.5472924863998 -1577.5481095973967 1924.05
    vertex 1803.9472924863996 -1577.5481095973967 2311.4
    vertex 1905.5472924863998 -1577.5481095973967 2311.4
  endloop
endfacet
facet normal -0.0 -1.0 -0.0
  outer loop
    vertex 1905.5472924863998 -1291.7981095973967 2311.4
    vertex 1803.9472924863996 -1291.7981095973967 1924.05
    vertex 1905.5472924863998 -1291.7981095973967 1924.05
  endloop
endfacet
facet normal -0.0 -1.0 -0.0
  outer loop
    vertex 1803.9472924863996 -1291.7981095973967 1924.05
    vertex 1905.5472924863998 -1291.7981095973967 2311.4
    vertex 1803.9472924863996 -1291.7981095973967 2311.4
  endloop
endfacet
facet normal 0.0 0.0 -1.0
  outer loop
    vertex 1905.5472924863998 -1291.7981095973967 2311.4
    vertex 1803.9472924863996 -1577.5481095973967 2311.4
    vertex 1803.9472924863996 -1291.7981095973967 2311.4
  endloop
endfacet
facet normal 0.0 0.0 -1.0
  outer loop
    vertex 1803.9472924863996 -1577.5481095973967 2311.4
    vertex 1905.5472924863998 -1291.7981095973967 2311.4
    vertex 1905.5472924863998 -1577.5481095973967 2311.4
  endloop
endfacet
facet normal 0.0 1.0 0.0
  outer loop
    vertex 1803.9472924863996 -1577.5481095973967 952.5
    vertex 1822.9972924863998 -1577.5481095973967 768.35
    vertex 1803.9472924863996 -1577.5481095973967 768.35
  endloop
endfacet
facet normal 0.0 1.0 0.0
  outer loop
    vertex 1822.9972924863998 -1577.5481095973967 768.35
    vertex 1803.9472924863996 -1577.5481095973967 952.5
    vertex 1822.9972924863998 -1577.5481095973967 952.5
  endloop
endfacet
facet normal 0.0 0.0 -1.0
  outer loop
    vertex 1822.9972924863998 -967.9481095973966 952.5
    vertex 1803.9472924863996 -1577.5481095973967 952.5
    vertex 1803.9472924863996 -967.9481095973966 952.5
  endloop
endfacet
facet normal 0.0 0.0 -1.0
  outer loop
    vertex 1803.9472924863996 -1577.5481095973967 952.5
    vertex 1822.9972924863998 -967.9481095973966 952.5
    vertex 1822.9972924863998 -1577.5481095973967 952.5
  endloop
endfacet
facet normal 0.0 0.0 1.0
  outer loop
    vertex 1822.9972924863998 -1577.5481095973967 768.35
    vertex 1803.9472924863996 -967.9481095973966 768.35
    vertex 1803.9472924863996 -1577.5481095973967 768.35
  endloop
endfacet
facet normal 0.0 0.0 1.0
  outer loop
    vertex 1803.9472924863996 -967.9481095973966 768.35
    vertex 1822.9972924863998 -1577.5481095973967 768.35
    vertex 1822.9972924863998 -967.9481095973966 768.35
  endloop
endfacet
facet normal -0.0 -1.0 -0.0
  outer loop
    vertex 1822.9972924863998 -967.9481095973966 952.5
    vertex 1803.9472924863996 -967.9481095973966 768.35
    vertex 1822.9972924863998 -967.9481095973966 768.35
  endloop
endfacet
facet normal -0.0 -1.0 -0.0
  outer loop
    vertex 1803.9472924863996 -967.9481095973966 768.35
    vertex 1822.9972924863998 -967.9481095973966 952.5
    vertex 1803.9472924863996 -967.9481095973966 952.5
  endloop
endfacet
facet normal -0.0 -1.0 -0.0
  outer loop
    vertex 1905.5472924863998 -967.9481095973966 1885.9499999999998
    vertex 1803.9472924863996 -967.9481095973966 1498.6
    vertex 1905.5472924863998 -967.9481095973966 1498.6
  endloop
endfacet
facet normal -0.0 -1.0 -0.0
  outer loop
    vertex 1803.9472924863996 -967.9481095973966 1498.6
    vertex 1905.5472924863998 -967.9481095973966 1885.9499999999998
    vertex 1803.9472924863996 -967.9481095973966 1885.9499999999998
  endloop
endfacet
facet normal 0.0 0.0 1.0
  outer loop
    vertex 1905.5472924863998 -1253.6981095973968 1498.6
    vertex 1803.9472924863996 -967.9481095973966 1498.6
    vertex 1803.9472924863996 -1253.6981095973968 1498.6
  endloop
endfacet
facet normal 0.0 0.0 1.0
  outer loop
    vertex 1803.9472924863996 -967.9481095973966 1498.6
    vertex 1905.5472924863998 -1253.6981095973968 1498.6
    vertex 1905.5472924863998 -967.9481095973966 1498.6
  endloop
endfacet
facet normal 0.0 1.0 0.0
  outer loop
    vertex 1803.9472924863996 -1253.6981095973968 1885.9499999999998
    vertex 1905.5472924863998 -1253.6981095973968 1498.6
    vertex 1803.9472924863996 -1253.6981095973968 1498.6
  endloop
endfacet
facet normal 0.0 1.0 0.0
  outer loop
    vertex 1905.5472924863998 -1253.6981095973968 1498.6
    vertex 1803.9472924863996 -1253.6981095973968 1885.9499999999998
    vertex 1905.5472924863998 -1253.6981095973968 1885.9499999999998
  endloop
endfacet
facet normal 0.0 0.0 -1.0
  outer loop
    vertex 1905.5472924863998 -967.9481095973966 1885.9499999999998
    vertex 1803.9472924863996 -1253.6981095973968 1885.9499999999998
    vertex 1803.9472924863996 -967.9481095973966 1885.9499999999998
  endloop
endfacet
facet normal 0.0 0.0 -1.0
  outer loop
    vertex 1803.9472924863996 -1253.6981095973968 1885.9499999999998
    vertex 1905.5472924863998 -967.9481095973966 1885.9499999999998
    vertex 1905.5472924863998 -1253.6981095973968 1885.9499999999998
  endloop
endfacet
facet normal -1.0 0.0 0.0
  outer loop
    vertex 1822.9972924863998 -967.9481095973966 952.5
    vertex 1822.9972924863998 -1577.5481095973967 768.35
    vertex 1822.9972924863998 -1577.5481095973967 952.5
  endloop
endfacet
facet normal -1.0 0.0 0.0
  outer loop
    vertex 1822.9972924863998 -1577.5481095973967 768.35
    vertex 1822.9972924863998 -967.9481095973966 952.5
    vertex 1822.9972924863998 -967.9481095973966 768.35
  endloop
endfacet
facet normal -1.0 0.0 0.0
  outer loop
    vertex 1822.9972924863998 -967.9481095973966 666.75
    vertex 1822.9972924863998 -1577.5481095973967 482.6000000000001
    vertex 1822.9972924863998 -1577.5481095973967 666.75
  endloop
endfacet
facet normal -1.0 0.0 0.0
  outer loop
    vertex 1822.9972924863998 -1577.5481095973967 482.6000000000001
    vertex 1822.9972924863998 -967.9481095973966 666.75
    vertex 1822.9972924863998 -967.9481095973966 482.6000000000001
  endloop
endfacet
facet normal 0.0 1.0 0.0
  outer loop
    vertex 1803.9472924863996 -1577.5481095973967 666.75
    vertex 1822.9972924863998 -1577.5481095973967 482.6000000000001
    vertex 1803.9472924863996 -1577.5481095973967 482.6000000000001
  endloop
endfacet
facet normal 0.0 1.0 0.0
  outer loop
    vertex 1822.9972924863998 -1577.5481095973967 482.6000000000001
    vertex 1803.9472924863996 -1577.5481095973967 666.75
    vertex 1822.9972924863998 -1577.5481095973967 666.75
  endloop
endfacet
facet normal 0.0 1.0 0.0
  outer loop
    vertex 1803.9472924863996 -1253.6981095973968 2311.4
    vertex 1905.5472924863998 -1253.6981095973968 1924.05
    vertex 1803.9472924863996 -1253.6981095973968 1924.05
  endloop
endfacet
facet normal 0.0 1.0 0.0
  outer loop
    vertex 1905.5472924863998 -1253.6981095973968 1924.05
    vertex 1803.9472924863996 -1253.6981095973968 2311.4
    vertex 1905.5472924863998 -1253.6981095973968 2311.4
  endloop
endfacet
facet normal 0.0 0.0 -1.0
  outer loop
    vertex 1905.5472924863998 -967.9481095973966 2311.4
    vertex 1803.9472924863996 -1253.6981095973968 2311.4
    vertex 1803.9472924863996 -967.9481095973966 2311.4
  endloop
endfacet
facet normal 0.0 0.0 -1.0
  outer loop
    vertex 1803.9472924863996 -1253.6981095973968 2311.4
    vertex 1905.5472924863998 -967.9481095973966 2311.4
    vertex 1905.5472924863998 -1253.6981095973968 2311.4
  endloop
endfacet
facet normal -0.0 -1.0 -0.0
  outer loop
    vertex 1905.5472924863998 -967.9481095973966 2311.4
    vertex 1803.9472924863996 -967.9481095973966 1924.05
    vertex 1905.5472924863998 -967.9481095973966 1924.05
  endloop
endfacet
facet normal -0.0 -1.0 -0.0
  outer loop
    vertex 1803.9472924863996 -967.9481095973966 1924.05
    vertex 1905.5472924863998 -967.9481095973966 2311.4
    vertex 1803.9472924863996 -967.9481095973966 2311.4
  endloop
endfacet
facet normal 0.0 0.0 1.0
  outer loop
    vertex 1905.5472924863998 -1253.6981095973968 1924.05
    vertex 1803.9472924863996 -967.9481095973966 1924.05
    vertex 1803.9472924863996 -1253.6981095973968 1924.05
  endloop
endfacet
facet normal 0.0 0.0 1.0
  outer loop
    vertex 1803.9472924863996 -967.9481095973966 1924.05
    vertex 1905.5472924863998 -1253.6981095973968 1924.05
    vertex 1905.5472924863998 -967.9481095973966 1924.05
  endloop
endfacet
facet normal -0.0 -1.0 -0.0
  outer loop
    vertex 1822.9972924863998 -967.9481095973966 666.75
    vertex 1803.9472924863996 -967.9481095973966 482.6000000000001
    vertex 1822.9972924863998 -967.9481095973966 482.6000000000001
  endloop
endfacet
facet normal -0.0 -1.0 -0.0
  outer loop
    vertex 1803.9472924863996 -967.9481095973966 482.6000000000001
    vertex 1822.9972924863998 -967.9481095973966 666.75
    vertex 1803.9472924863996 -967.9481095973966 666.75
  endloop
endfacet
facet normal 0.0 0.0 1.0
  outer loop
    vertex 1822.9972924863998 -1577.5481095973967 482.6000000000001
    vertex 1803.9472924863996 -967.9481095973966 482.6000000000001
    vertex 1803.9472924863996 -1577.5481095973967 482.6000000000001
  endloop
endfacet
facet normal 0.0 0.0 1.0
  outer loop
    vertex 1803.9472924863996 -967.9481095973966 482.6000000000001
    vertex 1822.9972924863998 -1577.5481095973967 482.6000000000001
    vertex 1822.9972924863998 -967.9481095973966 482.6000000000001
  endloop
endfacet
facet normal 0.0 0.0 -1.0
  outer loop
    vertex 1822.9972924863998 -967.9481095973966 666.75
    vertex 1803.9472924863996 -1577.5481095973967 666.75
    vertex 1803.9472924863996 -967.9481095973966 666.75
  endloop
endfacet
facet normal 0.0 0.0 -1.0
  outer loop
    vertex 1803.9472924863996 -1577.5481095973967 666.75
    vertex 1822.9972924863998 -967.9481095973966 666.75
    vertex 1822.9972924863998 -1577.5481095973967 666.75
  endloop
endfacet
facet normal 0.0 0.0 1.0
  outer loop
    vertex 1822.9972924863998 -1577.5481095973967 1054.1
    vertex 1803.9472924863996 -967.9481095973966 1054.1
    vertex 1803.9472924863996 -1577.5481095973967 1054.1
  endloop
endfacet
facet normal 0.0 0.0 1.0
  outer loop
    vertex 1803.9472924863996 -967.9481095973966 1054.1
    vertex 1822.9972924863998 -1577.5481095973967 1054.1
    vertex 1822.9972924863998 -967.9481095973966 1054.1
  endloop
endfacet
facet normal -0.0 -1.0 -0.0
  outer loop
    vertex 1822.9972924863998 -967.9481095973966 1238.25
    vertex 1803.9472924863996 -967.9481095973966 1054.1
    vertex 1822.9972924863998 -967.9481095973966 1054.1
  endloop
endfacet
facet normal -0.0 -1.0 -0.0
  outer loop
    vertex 1803.9472924863996 -967.9481095973966 1054.1
    vertex 1822.9972924863998 -967.9481095973966 1238.25
    vertex 1803.9472924863996 -967.9481095973966 1238.25
  endloop
endfacet
facet normal -1.0 -0.0 -0.0
  outer loop
    vertex 1803.9472924863996 -1691.8481095973966 2413.0
    vertex 1803.9472924863996 -1577.5481095973967 2311.4
    vertex 1803.9472924863996 -1691.8481095973966 381.00000000000006
  endloop
endfacet
facet normal -1.0 -0.0 -0.0
  outer loop
    vertex 1803.9472924863996 -1577.5481095973967 2311.4
    vertex 1803.9472924863996 -1691.8481095973966 2413.0
    vertex 1803.9472924863996 -853.6481095973967 2413.0
  endloop
endfacet
facet normal -1.0 -0.0 -0.0
  outer loop
    vertex 1803.9472924863996 -1577.5481095973967 2311.4
    vertex 1803.9472924863996 -853.6481095973967 2413.0
    vertex 1803.9472924863996 -1291.7981095973967 2311.4
  endloop
endfacet
facet normal -1.0 -0.0 -0.0
  outer loop
    vertex 1803.9472924863996 -1291.7981095973967 2311.4
    vertex 1803.9472924863996 -853.6481095973967 2413.0
    vertex 1803.9472924863996 -1253.6981095973968 2311.4
  endloop
endfacet
facet normal -1.0 -0.0 -0.0
  outer loop
    vertex 1803.9472924863996 -1291.7981095973967 2311.4
    vertex 1803.9472924863996 -1253.6981095973968 2311.4
    vertex 1803.9472924863996 -1291.7981095973967 1924.05
  endloop
endfacet
facet normal -1.0 -0.0 -0.0
  outer loop
    vertex 1803.9472924863996 -1291.7981095973967 1924.05
    vertex 1803.9472924863996 -1253.6981095973968 2311.4
    vertex 1803.9472924863996 -1291.7981095973967 1885.9499999999998
  endloop
endfacet
facet normal -1.0 -0.0 -0.0
  outer loop
    vertex 1803.9472924863996 -1291.7981095973967 1885.9499999999998
    vertex 1803.9472924863996 -1253.6981095973968 2311.4
    vertex 1803.9472924863996 -1291.7981095973967 1498.6
  endloop
endfacet
facet normal -1.0 -0.0 -0.0
  outer loop
    vertex 1803.9472924863996 -1253.6981095973968 2311.4
    vertex 1803.9472924863996 -853.6481095973967 2413.0
    vertex 1803.9472924863996 -967.9481095973966 2311.4
  endloop
endfacet
facet normal -1.0 -0.0 -0.0
  outer loop
    vertex 1803.9472924863996 -967.9481095973966 2311.4
    vertex 1803.9472924863996 -853.6481095973967 2413.0
    vertex 1803.9472924863996 -967.9481095973966 1924.05
  endloop
endfacet
facet normal -1.0 -0.0 -0.0
  outer loop
    vertex 1803.9472924863996 -967.9481095973966 1924.05
    vertex 1803.9472924863996 -853.6481095973967 2413.0
    vertex 1803.9472924863996 -967.9481095973966 1885.9499999999998
  endloop
endfacet
facet normal -1.0 -0.0 -0.0
  outer loop
    vertex 1803.9472924863996 -967.9481095973966 1885.9499999999998
    vertex 1803.9472924863996 -853.6481095973967 2413.0
    vertex 1803.9472924863996 -967.9481095973966 1498.6
  endloop
endfacet
facet normal -1.0 -0.0 -0.0
  outer loop
    vertex 1803.9472924863996 -967.9481095973966 1498.6
    vertex 1803.9472924863996 -853.6481095973967 2413.0
    vertex 1803.9472924863996 -967.9481095973966 1238.25
  endloop
endfacet
facet normal -1.0 -0.0 -0.0
  outer loop
    vertex 1803.9472924863996 -967.9481095973966 1238.25
    vertex 1803.9472924863996 -853.6481095973967 2413.0
    vertex 1803.9472924863996 -967.9481095973966 1054.1
  endloop
endfacet
facet normal -1.0 -0.0 -0.0
  outer loop
    vertex 1803.9472924863996 -967.9481095973966 1054.1
    vertex 1803.9472924863996 -853.6481095973967 2413.0
    vertex 1803.9472924863996 -967.9481095973966 952.5
  endloop
endfacet
facet normal -1.0 -0.0 -0.0
  outer loop
    vertex 1803.9472924863996 -967.9481095973966 952.5
    vertex 1803.9472924863996 -853.6481095973967 2413.0
    vertex 1803.9472924863996 -967.9481095973966 768.35
  endloop
endfacet
facet normal -1.0 -0.0 -0.0
  outer loop
    vertex 1803.9472924863996 -967.9481095973966 768.35
    vertex 1803.9472924863996 -853.6481095973967 2413.0
    vertex 1803.9472924863996 -967.9481095973966 666.75
  endloop
endfacet
facet normal -1.0 -0.0 -0.0
  outer loop
    vertex 1803.9472924863996 -967.9481095973966 666.75
    vertex 1803.9472924863996 -853.6481095973967 2413.0
    vertex 1803.9472924863996 -967.9481095973966 482.6000000000001
  endloop
endfacet
facet normal -1.0 -0.0 -0.0
  outer loop
    vertex 1803.9472924863996 -1691.8481095973966 381.00000000000006
    vertex 1803.9472924863996 -1577.5481095973967 482.6000000000001
    vertex 1803.9472924863996 -853.6481095973967 381.00000000000006
  endloop
endfacet
facet normal -1.0 -0.0 -0.0
  outer loop
    vertex 1803.9472924863996 -1577.5481095973967 482.6000000000001
    vertex 1803.9472924863996 -1691.8481095973966 381.00000000000006
    vertex 1803.9472924863996 -1577.5481095973967 2311.4
  endloop
endfacet
facet normal -1.0 -0.0 -0.0
  outer loop
    vertex 1803.9472924863996 -1577.5481095973967 482.6000000000001
    vertex 1803.9472924863996 -1577.5481095973967 2311.4
    vertex 1803.9472924863996 -1577.5481095973967 1924.05
  endloop
endfacet
facet normal -1.0 -0.0 -0.0
  outer loop
    vertex 1803.9472924863996 -1577.5481095973967 482.6000000000001
    vertex 1803.9472924863996 -1577.5481095973967 1924.05
    vertex 1803.9472924863996 -1577.5481095973967 1885.9499999999998
  endloop
endfacet
facet normal -1.0 -0.0 -0.0
  outer loop
    vertex 1803.9472924863996 -1577.5481095973967 482.6000000000001
    vertex 1803.9472924863996 -1577.5481095973967 1885.9499999999998
    vertex 1803.9472924863996 -1577.5481095973967 1498.6
  endloop
endfacet
facet normal -1.0 -0.0 -0.0
  outer loop
    vertex 1803.9472924863996 -1577.5481095973967 482.6000000000001
    vertex 1803.9472924863996 -1577.5481095973967 1498.6
    vertex 1803.9472924863996 -1577.5481095973967 1238.25
  endloop
endfacet
facet normal -1.0 -0.0 -0.0
  outer loop
    vertex 1803.9472924863996 -1577.5481095973967 482.6000000000001
    vertex 1803.9472924863996 -1577.5481095973967 1238.25
    vertex 1803.9472924863996 -1577.5481095973967 1054.1
  endloop
endfacet
facet normal -1.0 -0.0 -0.0
  outer loop
    vertex 1803.9472924863996 -1577.5481095973967 482.6000000000001
    vertex 1803.9472924863996 -1577.5481095973967 1054.1
    vertex 1803.9472924863996 -1577.5481095973967 952.5
  endloop
endfacet
facet normal -1.0 -0.0 -0.0
  outer loop
    vertex 1803.9472924863996 -1577.5481095973967 482.6000000000001
    vertex 1803.9472924863996 -1577.5481095973967 952.5
    vertex 1803.9472924863996 -1577.5481095973967 768.35
  endloop
endfacet
facet normal -1.0 -0.0 -0.0
  outer loop
    vertex 1803.9472924863996 -1577.5481095973967 482.6000000000001
    vertex 1803.9472924863996 -1577.5481095973967 768.35
    vertex 1803.9472924863996 -1577.5481095973967 666.75
  endloop
endfacet
facet normal -1.0 -0.0 -0.0
  outer loop
    vertex 1803.9472924863996 -853.6481095973967 381.00000000000006
    vertex 1803.9472924863996 -1577.5481095973967 482.6000000000001
    vertex 1803.9472924863996 -967.9481095973966 482.6000000000001
  endloop
endfacet
facet normal -1.0 -0.0 -0.0
  outer loop
    vertex 1803.9472924863996 -853.6481095973967 381.00000000000006
    vertex 1803.9472924863996 -967.9481095973966 482.6000000000001
    vertex 1803.9472924863996 -853.6481095973967 2413.0
  endloop
endfacet
facet normal -1.0 -0.0 -0.0
  outer loop
    vertex 1803.9472924863996 -967.9481095973966 768.35
    vertex 1803.9472924863996 -1577.5481095973967 666.75
    vertex 1803.9472924863996 -1577.5481095973967 768.35
  endloop
endfacet
facet normal -1.0 -0.0 -0.0
  outer loop
    vertex 1803.9472924863996 -1577.5481095973967 666.75
    vertex 1803.9472924863996 -967.9481095973966 768.35
    vertex 1803.9472924863996 -967.9481095973966 666.75
  endloop
endfacet
facet normal -1.0 -0.0 -0.0
  outer loop
    vertex 1803.9472924863996 -967.9481095973966 1054.1
    vertex 1803.9472924863996 -1577.5481095973967 952.5
    vertex 1803.9472924863996 -1577.5481095973967 1054.1
  endloop
endfacet
facet normal -1.0 -0.0 -0.0
  outer loop
    vertex 1803.9472924863996 -1577.5481095973967 952.5
    vertex 1803.9472924863996 -967.9481095973966 1054.1
    vertex 1803.9472924863996 -967.9481095973966 952.5
  endloop
endfacet
facet normal -1.0 -0.0 -0.0
  outer loop
    vertex 1803.9472924863996 -1291.7981095973967 1498.6
    vertex 1803.9472924863996 -1577.5481095973967 1238.25
    vertex 1803.9472924863996 -1577.5481095973967 1498.6
  endloop
endfacet
facet normal -1.0 -0.0 -0.0
  outer loop
    vertex 1803.9472924863996 -1577.5481095973967 1238.25
    vertex 1803.9472924863996 -1291.7981095973967 1498.6
    vertex 1803.9472924863996 -967.9481095973966 1238.25
  endloop
endfacet
facet normal -1.0 -0.0 -0.0
  outer loop
    vertex 1803.9472924863996 -967.9481095973966 1238.25
    vertex 1803.9472924863996 -1291.7981095973967 1498.6
    vertex 1803.9472924863996 -1253.6981095973968 1498.6
  endloop
endfacet
facet normal -1.0 -0.0 -0.0
  outer loop
    vertex 1803.9472924863996 -1253.6981095973968 1498.6
    vertex 1803.9472924863996 -1291.7981095973967 1498.6
    vertex 1803.9472924863996 -1253.6981095973968 2311.4
  endloop
endfacet
facet normal -1.0 -0.0 -0.0
  outer loop
    vertex 1803.9472924863996 -1253.6981095973968 1498.6
    vertex 1803.9472924863996 -1253.6981095973968 2311.4
    vertex 1803.9472924863996 -1253.6981095973968 1924.05
  endloop
endfacet
facet normal -1.0 -0.0 -0.0
  outer loop
    vertex 1803.9472924863996 -1253.6981095973968 1498.6
    vertex 1803.9472924863996 -1253.6981095973968 1924.05
    vertex 1803.9472924863996 -1253.6981095973968 1885.9499999999998
  endloop
endfacet
facet normal -1.0 -0.0 -0.0
  outer loop
    vertex 1803.9472924863996 -967.9481095973966 1238.25
    vertex 1803.9472924863996 -1253.6981095973968 1498.6
    vertex 1803.9472924863996 -967.9481095973966 1498.6
  endloop
endfacet
facet normal -1.0 -0.0 -0.0
  outer loop
    vertex 1803.9472924863996 -967.9481095973966 1924.05
    vertex 1803.9472924863996 -1253.6981095973968 1885.9499999999998
    vertex 1803.9472924863996 -1253.6981095973968 1924.05
  endloop
endfacet
facet normal -1.0 -0.0 -0.0
  outer loop
    vertex 1803.9472924863996 -1253.6981095973968 1885.9499999999998
    vertex 1803.9472924863996 -967.9481095973966 1924.05
    vertex 1803.9472924863996 -967.9481095973966 1885.9499999999998
  endloop
endfacet
facet normal -1.0 -0.0 -0.0
  outer loop
    vertex 1803.9472924863996 -1291.7981095973967 1924.05
    vertex 1803.9472924863996 -1577.5481095973967 1885.9499999999998
    vertex 1803.9472924863996 -1577.5481095973967 1924.05
  endloop
endfacet
facet normal -1.0 -0.0 -0.0
  outer loop
    vertex 1803.9472924863996 -1577.5481095973967 1885.9499999999998
    vertex 1803.9472924863996 -1291.7981095973967 1924.05
    vertex 1803.9472924863996 -1291.7981095973967 1885.9499999999998
  endloop
endfacet
facet normal 0.0 0.0 1.0
  outer loop
    vertex 1905.5472924863998 -1691.8481095973966 2413.0
    vertex 1803.9472924863996 -853.6481095973967 2413.0
    vertex 1803.9472924863996 -1691.8481095973966 2413.0
  endloop
endfacet
facet normal 0.0 0.0 1.0
  outer loop
    vertex 1803.9472924863996 -853.6481095973967 2413.0
    vertex 1905.5472924863998 -1691.8481095973966 2413.0
    vertex 1905.5472924863998 -853.6481095973967 2413.0
  endloop
endfacet
facet normal -0.0 -1.0 -0.0
  outer loop
    vertex 1905.5472924863998 -1691.8481095973966 2413.0
    vertex 1803.9472924863996 -1691.8481095973966 381.00000000000006
    vertex 1905.5472924863998 -1691.8481095973966 381.00000000000006
  endloop
endfacet
facet normal -0.0 -1.0 -0.0
  outer loop
    vertex 1803.9472924863996 -1691.8481095973966 381.00000000000006
    vertex 1905.5472924863998 -1691.8481095973966 2413.0
    vertex 1803.9472924863996 -1691.8481095973966 2413.0
  endloop
endfacet
facet normal 0.0 0.0 -1.0
  outer loop
    vertex 1905.5472924863998 -853.6481095973967 381.00000000000006
    vertex 1803.9472924863996 -1691.8481095973966 381.00000000000006
    vertex 1803.9472924863996 -853.6481095973967 381.00000000000006
  endloop
endfacet
facet normal 0.0 0.0 -1.0
  outer loop
    vertex 1803.9472924863996 -1691.8481095973966 381.00000000000006
    vertex 1905.5472924863998 -853.6481095973967 381.00000000000006
    vertex 1905.5472924863998 -1691.8481095973966 381.00000000000006
  endloop
endfacet
facet normal 0.0 1.0 0.0
  outer loop
    vertex 1803.9472924863996 -853.6481095973967 2413.0
    vertex 1905.5472924863998 -853.6481095973967 381.00000000000006
    vertex 1803.9472924863996 -853.6481095973967 381.00000000000006
  endloop
endfacet
facet normal 0.0 1.0 0.0
  outer loop
    vertex 1905.5472924863998 -853.6481095973967 381.00000000000006
    vertex 1803.9472924863996 -853.6481095973967 2413.0
    vertex 1905.5472924863998 -853.6481095973967 2413.0
  endloop
endfacet
facet normal 1.0 0.0 0.0
  outer loop
    vertex 1905.5472924863998 -1691.8481095973966 381.00000000000006
    vertex 1905.5472924863998 -1577.5481095973967 1498.6
    vertex 1905.5472924863998 -1691.8481095973966 2413.0
  endloop
endfacet
facet normal 1.0 0.0 0.0
  outer loop
    vertex 1905.5472924863998 -1577.5481095973967 1498.6
    vertex 1905.5472924863998 -1691.8481095973966 381.00000000000006
    vertex 1905.5472924863998 -853.6481095973967 381.00000000000006
  endloop
endfacet
facet normal 1.0 0.0 0.0
  outer loop
    vertex 1905.5472924863998 -1577.5481095973967 1498.6
    vertex 1905.5472924863998 -853.6481095973967 381.00000000000006
    vertex 1905.5472924863998 -1291.7981095973967 1498.6
  endloop
endfacet
facet normal 1.0 0.0 0.0
  outer loop
    vertex 1905.5472924863998 -1291.7981095973967 1498.6
    vertex 1905.5472924863998 -853.6481095973967 381.00000000000006
    vertex 1905.5472924863998 -1253.6981095973968 1498.6
  endloop
endfacet
facet normal 1.0 0.0 0.0
  outer loop
    vertex 1905.5472924863998 -1291.7981095973967 1498.6
    vertex 1905.5472924863998 -1253.6981095973968 1498.6
    vertex 1905.5472924863998 -1291.7981095973967 1885.9499999999998
  endloop
endfacet
facet normal 1.0 0.0 0.0
  outer loop
    vertex 1905.5472924863998 -1291.7981095973967 1885.9499999999998
    vertex 1905.5472924863998 -1253.6981095973968 1498.6
    vertex 1905.5472924863998 -1291.7981095973967 1924.05
  endloop
endfacet
facet normal 1.0 0.0 0.0
  outer loop
    vertex 1905.5472924863998 -1291.7981095973967 1924.05
    vertex 1905.5472924863998 -1253.6981095973968 1498.6
    vertex 1905.5472924863998 -1291.7981095973967 2311.4
  endloop
endfacet
facet normal 1.0 0.0 0.0
  outer loop
    vertex 1905.5472924863998 -1253.6981095973968 1498.6
    vertex 1905.5472924863998 -853.6481095973967 381.00000000000006
    vertex 1905.5472924863998 -967.9481095973966 1498.6
  endloop
endfacet
facet normal 1.0 0.0 0.0
  outer loop
    vertex 1905.5472924863998 -967.9481095973966 1498.6
    vertex 1905.5472924863998 -853.6481095973967 381.00000000000006
    vertex 1905.5472924863998 -967.9481095973966 1885.9499999999998
  endloop
endfacet
facet normal 1.0 0.0 0.0
  outer loop
    vertex 1905.5472924863998 -967.9481095973966 1885.9499999999998
    vertex 1905.5472924863998 -853.6481095973967 381.00000000000006
    vertex 1905.5472924863998 -967.9481095973966 1924.05
  endloop
endfacet
facet normal 1.0 0.0 0.0
  outer loop
    vertex 1905.5472924863998 -967.9481095973966 1924.05
    vertex 1905.5472924863998 -853.6481095973967 381.00000000000006
    vertex 1905.5472924863998 -967.9481095973966 2311.4
  endloop
endfacet
facet normal 1.0 0.0 0.0
  outer loop
    vertex 1905.5472924863998 -1691.8481095973966 2413.0
    vertex 1905.5472924863998 -1577.5481095973967 2311.4
    vertex 1905.5472924863998 -853.6481095973967 2413.0
  endloop
endfacet
facet normal 1.0 0.0 0.0
  outer loop
    vertex 1905.5472924863998 -1577.5481095973967 2311.4
    vertex 1905.5472924863998 -1691.8481095973966 2413.0
    vertex 1905.5472924863998 -1577.5481095973967 1498.6
  endloop
endfacet
facet normal 1.0 0.0 0.0
  outer loop
    vertex 1905.5472924863998 -1577.5481095973967 2311.4
    vertex 1905.5472924863998 -1577.5481095973967 1498.6
    vertex 1905.5472924863998 -1577.5481095973967 1885.9499999999998
  endloop
endfacet
facet normal 1.0 0.0 0.0
  outer loop
    vertex 1905.5472924863998 -1577.5481095973967 2311.4
    vertex 1905.5472924863998 -1577.5481095973967 1885.9499999999998
    vertex 1905.5472924863998 -1577.5481095973967 1924.05
  endloop
endfacet
facet normal 1.0 0.0 0.0
  outer loop
    vertex 1905.5472924863998 -853.6481095973967 2413.0
    vertex 1905.5472924863998 -1577.5481095973967 2311.4
    vertex 1905.5472924863998 -1291.7981095973967 2311.4
  endloop
endfacet
facet normal 1.0 0.0 0.0
  outer loop
    vertex 1905.5472924863998 -853.6481095973967 2413.0
    vertex 1905.5472924863998 -1291.7981095973967 2311.4
    vertex 1905.5472924863998 -1253.6981095973968 2311.4
  endloop
endfacet
facet normal 1.0 0.0 0.0
  outer loop
    vertex 1905.5472924863998 -1253.6981095973968 2311.4
    vertex 1905.5472924863998 -1291.7981095973967 2311.4
    vertex 1905.5472924863998 -1253.6981095973968 1498.6
  endloop
endfacet
facet normal 1.0 0.0 0.0
  outer loop
    vertex 1905.5472924863998 -1253.6981095973968 2311.4
    vertex 1905.5472924863998 -1253.6981095973968 1498.6
    vertex 1905.5472924863998 -1253.6981095973968 1885.9499999999998
  endloop
endfacet
facet normal 1.0 0.0 0.0
  outer loop
    vertex 1905.5472924863998 -1253.6981095973968 2311.4
    vertex 1905.5472924863998 -1253.6981095973968 1885.9499999999998
    vertex 1905.5472924863998 -1253.6981095973968 1924.05
  endloop
endfacet
facet normal 1.0 0.0 0.0
  outer loop
    vertex 1905.5472924863998 -853.6481095973967 2413.0
    vertex 1905.5472924863998 -1253.6981095973968 2311.4
    vertex 1905.5472924863998 -967.9481095973966 2311.4
  endloop
endfacet
facet normal 1.0 0.0 0.0
  outer loop
    vertex 1905.5472924863998 -853.6481095973967 2413.0
    vertex 1905.5472924863998 -967.9481095973966 2311.4
    vertex 1905.5472924863998 -853.6481095973967 381.00000000000006
  endloop
endfacet
facet normal 1.0 0.0 0.0
  outer loop
    vertex 1905.5472924863998 -967.9481095973966 1885.9499999999998
    vertex 1905.5472924863998 -1253.6981095973968 1924.05
    vertex 1905.5472924863998 -1253.6981095973968 1885.9499999999998
  endloop
endfacet
facet normal 1.0 0.0 0.0
  outer loop
    vertex 1905.5472924863998 -1253.6981095973968 1924.05
    vertex 1905.5472924863998 -967.9481095973966 1885.9499999999998
    vertex 1905.5472924863998 -967.9481095973966 1924.05
  endloop
endfacet
facet normal 1.0 0.0 0.0
  outer loop
    vertex 1905.5472924863998 -1291.7981095973967 1885.9499999999998
    vertex 1905.5472924863998 -1577.5481095973967 1924.05
    vertex 1905.5472924863998 -1577.5481095973967 1885.9499999999998
  endloop
endfacet
facet normal 1.0 0.0 0.0
  outer loop
    vertex 1905.5472924863998 -1577.5481095973967 1924.05
    vertex 1905.5472924863998 -1291.7981095973967 1885.9499999999998
    vertex 1905.5472924863998 -1291.7981095973967 1924.05
  endloop
endfacet
facet normal 0.0 1.0 0.0
  outer loop
    vertex 1803.9472924863996 -1577.5481095973967 1238.25
    vertex 1822.9972924863998 -1577.5481095973967 1054.1
    vertex 1803.9472924863996 -1577.5481095973967 1054.1
  endloop
endfacet
facet normal 0.0 1.0 0.0
  outer loop
    vertex 1822.9972924863998 -1577.5481095973967 1054.1
    vertex 1803.9472924863996 -1577.5481095973967 1238.25
    vertex 1822.9972924863998 -1577.5481095973967 1238.25
  endloop
endfacet
facet normal -1.0 0.0 0.0
  outer loop
    vertex 1822.9972924863998 -967.9481095973966 1238.25
    vertex 1822.9972924863998 -1577.5481095973967 1054.1
    vertex 1822.9972924863998 -1577.5481095973967 1238.25
  endloop
endfacet
facet normal -1.0 0.0 0.0
  outer loop
    vertex 1822.9972924863998 -1577.5481095973967 1054.1
    vertex 1822.9972924863998 -967.9481095973966 1238.25
    vertex 1822.9972924863998 -967.9481095973966 1054.1
  endloop
endfacet
facet normal 0.0 0.0 -1.0
  outer loop
    vertex 1822.9972924863998 -967.9481095973966 1238.25
    vertex 1803.9472924863996 -1577.5481095973967 1238.25
    vertex 1803.9472924863996 -967.9481095973966 1238.25
  endloop
endfacet
facet normal 0.0 0.0 -1.0
  outer loop
    vertex 1803.9472924863996 -1577.5481095973967 1238.25
    vertex 1822.9972924863998 -967.9481095973966 1238.25
    vertex 1822.9972924863998 -1577.5481095973967 1238.25
  endloop
endfacet
facet normal 0.0 0.0 1.0
  outer loop
    vertex 1753.1472924863997 -1945.8481095973966 2463.7999999999997
    vertex 1748.3847924863996 -1793.4481095973965 2463.7999999999997
    vertex 1748.3847924863996 -1945.8481095973966 2463.7999999999997
  endloop
endfacet
facet normal 0.0 0.0 1.0
  outer loop
    vertex 1748.3847924863996 -1793.4481095973965 2463.7999999999997
    vertex 1753.1472924863997 -1945.8481095973966 2463.7999999999997
    vertex 1753.1472924863997 -1793.4481095973965 2463.7999999999997
  endloop
endfacet
facet normal 0.0 -1.0 0.0
  outer loop
    vertex 1753.1472924863997 -1945.8481095973966 2463.7999999999997
    vertex 1734.0972924863997 -1945.8481095973966 2203.45
    vertex 1753.1472924863997 -1945.8481095973966 2203.45
  endloop
endfacet
facet normal 0.0 -1.0 0.0
  outer loop
    vertex 1734.0972924863997 -1945.8481095973966 2203.45
    vertex 1753.1472924863997 -1945.8481095973966 2463.7999999999997
    vertex 1748.3847924863996 -1945.8481095973966 2463.7999999999997
  endloop
endfacet
facet normal 0.0 1.0 0.0
  outer loop
    vertex 1748.3847924863996 -1793.4481095973965 2463.7999999999997
    vertex 1753.1472924863997 -1793.4481095973965 2203.45
    vertex 1734.0972924863997 -1793.4481095973965 2203.45
  endloop
endfacet
facet normal 0.0 1.0 0.0
  outer loop
    vertex 1753.1472924863997 -1793.4481095973965 2203.45
    vertex 1748.3847924863996 -1793.4481095973965 2463.7999999999997
    vertex 1753.1472924863997 -1793.4481095973965 2463.7999999999997
  endloop
endfacet
facet normal 1.0 0.0 0.0
  outer loop
    vertex 1753.1472924863997 -1793.4481095973965 2203.45
    vertex 1753.1472924863997 -1945.8481095973966 2463.7999999999997
    vertex 1753.1472924863997 -1945.8481095973966 2203.45
  endloop
endfacet
facet normal 1.0 0.0 0.0
  outer loop
    vertex 1753.1472924863997 -1945.8481095973966 2463.7999999999997
    vertex 1753.1472924863997 -1793.4481095973965 2203.45
    vertex 1753.1472924863997 -1793.4481095973965 2463.7999999999997
  endloop
endfacet
facet normal -0.9984975925186969 0.0 0.054795599589440684
  outer loop
    vertex 1748.3847924863996 -1793.4481095973965 2463.7999999999997
    vertex 1734.0972924863997 -1945.8481095973966 2203.45
    vertex 1748.3847924863996 -1945.8481095973966 2463.7999999999997
  endloop
endfacet
facet normal -0.9984975925186969 0.0 0.054795599589440684
  outer loop
    vertex 1734.0972924863997 -1945.8481095973966 2203.45
    vertex 1748.3847924863996 -1793.4481095973965 2463.7999999999997
    vertex 1734.0972924863997 -1793.4481095973965 2203.45
  endloop
endfacet
facet normal -1.1842378929335002e-15 -0.0 -1.0
  outer loop
    vertex 1753.1472924863997 -1793.4481095973965 2203.45
    vertex 1734.0972924863997 -1945.8481095973966 2203.45
    vertex 1734.0972924863997 -1793.4481095973965 2203.45
  endloop
endfacet
facet normal -1.1842378929335002e-15 -0.0 -1.0
  outer loop
    vertex 1734.0972924863997 -1945.8481095973966 2203.45
    vertex 1753.1472924863997 -1793.4481095973965 2203.45
    vertex 1753.1472924863997 -1945.8481095973966 2203.45
  endloop
endfacet
facet normal 1.0 -5.72274918088108e-35 -3.1532961646158256e-17
  outer loop
    vertex 1905.5472924863998 -1964.8981095973966 3.203748903249679e-15
    vertex 1905.5472924863998 -1691.8481095973966 381.0
    vertex 1905.5472924863998 -1964.8981095973966 2463.7999999999997
  endloop
endfacet
facet normal 1.0 -5.72274918088108e-35 -3.1532961646158256e-17
  outer loop
    vertex 1905.5472924863998 -1691.8481095973966 381.0
    vertex 1905.5472924863998 -1964.8981095973966 3.203748903249679e-15
    vertex 1905.5472924863998 -199.5981095973967 0.0
  endloop
endfacet
facet normal 1.0 -5.72274918088108e-35 -3.1532961646158256e-17
  outer loop
    vertex 1905.5472924863998 -1691.8481095973966 381.0
    vertex 1905.5472924863998 -199.5981095973967 0.0
    vertex 1905.5472924863998 -853.6481095973967 381.00000000000006
  endloop
endfacet
facet normal 1.0 -5.72274918088108e-35 -3.1532961646158256e-17
  outer loop
    vertex 1905.5472924863998 -853.6481095973967 381.00000000000006
    vertex 1905.5472924863998 -199.5981095973967 0.0
    vertex 1905.5472924863998 -853.6481095973967 2413.0
  endloop
endfacet
facet normal 1.0 -5.72274918088108e-35 -3.1532961646158256e-17
  outer loop
    vertex 1905.5472924863998 -1964.8981095973966 2463.7999999999997
    vertex 1905.5472924863998 -1691.8481095973966 2413.0
    vertex 1905.5472924863998 -199.5981095973967 2463.7999999999997
  endloop
endfacet
facet normal 1.0 -5.72274918088108e-35 -3.1532961646158256e-17
  outer loop
    vertex 1905.5472924863998 -1691.8481095973966 2413.0
    vertex 1905.5472924863998 -1964.8981095973966 2463.7999999999997
    vertex 1905.5472924863998 -1691.8481095973966 381.0
  endloop
endfacet
facet normal 1.0 -5.72274918088108e-35 -3.1532961646158256e-17
  outer loop
    vertex 1905.5472924863998 -199.5981095973967 2463.7999999999997
    vertex 1905.5472924863998 -1691.8481095973966 2413.0
    vertex 1905.5472924863998 -853.6481095973967 2413.0
  endloop
endfacet
facet normal 1.0 -5.72274918088108e-35 -3.1532961646158256e-17
  outer loop
    vertex 1905.5472924863998 -199.5981095973967 2463.7999999999997
    vertex 1905.5472924863998 -853.6481095973967 2413.0
    vertex 1905.5472924863998 -199.5981095973967 0.0
  endloop
endfacet
facet normal 1.9075830602936934e-35 -1.0 9.074233567239785e-19
  outer loop
    vertex 1905.5472924863998 -1964.8981095973966 2463.7999999999997
    vertex 1753.1472924863997 -1964.8981095973966 6.407497806499358e-15
    vertex 1905.5472924863998 -1964.8981095973966 3.203748903249679e-15
  endloop
endfacet
facet normal 1.9075830602936934e-35 -1.0 9.074233567239785e-19
  outer loop
    vertex 1753.1472924863997 -1964.8981095973966 6.407497806499358e-15
    vertex 1905.5472924863998 -1964.8981095973966 2463.7999999999997
    vertex 1753.1472924863997 -1964.8981095973966 2463.7999999999997
  endloop
endfacet
facet normal 3.1532961646158256e-17 9.074233567239787e-19 1.0
  outer loop
    vertex 1905.5472924863998 -1964.8981095973966 2463.7999999999997
    vertex 1753.1472924863997 -199.5981095973967 2463.7999999999997
    vertex 1753.1472924863997 -1964.8981095973966 2463.7999999999997
  endloop
endfacet
facet normal 3.1532961646158256e-17 9.074233567239787e-19 1.0
  outer loop
    vertex 1753.1472924863997 -199.5981095973967 2463.7999999999997
    vertex 1905.5472924863998 -1964.8981095973966 2463.7999999999997
    vertex 1905.5472924863998 -199.5981095973967 2463.7999999999997
  endloop
endfacet
facet normal -1.0 0.0 3.1532961646158256e-17
  outer loop
    vertex 1753.1472924863997 -1964.8981095973966 2463.7999999999997
    vertex 1753.1472924863997 -1691.8481095973966 2413.0
    vertex 1753.1472924863997 -1964.8981095973966 6.407497806499358e-15
  endloop
endfacet
facet normal -1.0 0.0 3.1532961646158256e-17
  outer loop
    vertex 1753.1472924863997 -1691.8481095973966 2413.0
    vertex 1753.1472924863997 -1964.8981095973966 2463.7999999999997
    vertex 1753.1472924863997 -199.5981095973967 2463.7999999999997
  endloop
endfacet
facet normal -1.0 0.0 3.1532961646158256e-17
  outer loop
    vertex 1753.1472924863997 -1691.8481095973966 2413.0
    vertex 1753.1472924863997 -199.5981095973967 2463.7999999999997
    vertex 1753.1472924863997 -853.6481095973967 2413.0
  endloop
endfacet
facet normal -1.0 0.0 3.1532961646158256e-17
  outer loop
    vertex 1753.1472924863997 -853.6481095973967 2413.0
    vertex 1753.1472924863997 -199.5981095973967 2463.7999999999997
    vertex 1753.1472924863997 -853.6481095973967 381.00000000000006
  endloop
endfacet
facet normal -1.0 0.0 3.1532961646158256e-17
  outer loop
    vertex 1753.1472924863997 -1964.8981095973966 6.407497806499358e-15
    vertex 1753.1472924863997 -1691.8481095973966 381.0
    vertex 1753.1472924863997 -199.5981095973967 6.407497806499358e-15
  endloop
endfacet
facet normal -1.0 0.0 3.1532961646158256e-17
  outer loop
    vertex 1753.1472924863997 -1691.8481095973966 381.0
    vertex 1753.1472924863997 -1964.8981095973966 6.407497806499358e-15
    vertex 1753.1472924863997 -1691.8481095973966 2413.0
  endloop
endfacet
facet normal -1.0 0.0 3.1532961646158256e-17
  outer loop
    vertex 1753.1472924863997 -199.5981095973967 6.407497806499358e-15
    vertex 1753.1472924863997 -1691.8481095973966 381.0
    vertex 1753.1472924863997 -853.6481095973967 381.00000000000006
  endloop
endfacet
facet normal -1.0 0.0 3.1532961646158256e-17
  outer loop
    vertex 1753.1472924863997 -199.5981095973967 6.407497806499358e-15
    vertex 1753.1472924863997 -853.6481095973967 381.00000000000006
    vertex 1753.1472924863997 -199.5981095973967 2463.7999999999997
  endloop
endfacet
facet normal -3.1532961646158256e-17 -9.074233567239787e-19 -1.0
  outer loop
    vertex 1905.5472924863998 -199.5981095973967 0.0
    vertex 1753.1472924863997 -1964.8981095973966 6.407497806499358e-15
    vertex 1753.1472924863997 -199.5981095973967 6.407497806499358e-15
  endloop
endfacet
facet normal -3.1532961646158256e-17 -9.074233567239787e-19 -1.0
  outer loop
    vertex 1753.1472924863997 -1964.8981095973966 6.407497806499358e-15
    vertex 1905.5472924863998 -199.5981095973967 0.0
    vertex 1905.5472924863998 -1964.8981095973966 3.203748903249679e-15
  endloop
endfacet
facet normal -3.8151661205873867e-35 1.0 -9.074233567239785e-19
  outer loop
    vertex 1753.1472924863997 -199.5981095973967 6.407497806499358e-15
    vertex 1905.5472924863998 -199.5981095973967 2463.7999999999997
    vertex 1905.5472924863998 -199.5981095973967 0.0
  endloop
endfacet
facet normal -3.8151661205873867e-35 1.0 -9.074233567239785e-19
  outer loop
    vertex 1905.5472924863998 -199.5981095973967 2463.7999999999997
    vertex 1753.1472924863997 -199.5981095973967 6.407497806499358e-15
    vertex 1753.1472924863997 -199.5981095973967 2463.7999999999997
  endloop
endfacet
facet normal -0.0 -1.0 -0.0
  outer loop
    vertex 1905.5472924863998 -853.6481095973967 2413.0
    vertex 1753.1472924863997 -853.6481095973967 381.00000000000006
    vertex 1905.5472924863998 -853.6481095973967 381.00000000000006
  endloop
endfacet
facet normal -0.0 -1.0 -0.0
  outer loop
    vertex 1753.1472924863997 -853.6481095973967 381.00000000000006
    vertex 1905.5472924863998 -853.6481095973967 2413.0
    vertex 1753.1472924863997 -853.6481095973967 2413.0
  endloop
endfacet
facet normal 0.0 -5.3828995133340925e-17 1.0
  outer loop
    vertex 1905.5472924863998 -1691.8481095973966 381.0
    vertex 1753.1472924863997 -853.6481095973967 381.00000000000006
    vertex 1753.1472924863997 -1691.8481095973966 381.0
  endloop
endfacet
facet normal 0.0 -5.3828995133340925e-17 1.0
  outer loop
    vertex 1753.1472924863997 -853.6481095973967 381.00000000000006
    vertex 1905.5472924863998 -1691.8481095973966 381.0
    vertex 1905.5472924863998 -853.6481095973967 381.00000000000006
  endloop
endfacet
facet normal 0.0 0.0 -1.0
  outer loop
    vertex 1905.5472924863998 -853.6481095973967 2413.0
    vertex 1753.1472924863997 -1691.8481095973966 2413.0
    vertex 1753.1472924863997 -853.6481095973967 2413.0
  endloop
endfacet
facet normal 0.0 0.0 -1.0
  outer loop
    vertex 1753.1472924863997 -1691.8481095973966 2413.0
    vertex 1905.5472924863998 -853.6481095973967 2413.0
    vertex 1905.5472924863998 -1691.8481095973966 2413.0
  endloop
endfacet
facet normal 0.0 1.0 0.0
  outer loop
    vertex 1753.1472924863997 -1691.8481095973966 2413.0
    vertex 1905.5472924863998 -1691.8481095973966 381.0
    vertex 1753.1472924863997 -1691.8481095973966 381.0
  endloop
endfacet
facet normal 0.0 1.0 0.0
  outer loop
    vertex 1905.5472924863998 -1691.8481095973966 381.0
    vertex 1753.1472924863997 -1691.8481095973966 2413.0
    vertex 1905.5472924863998 -1691.8481095973966 2413.0
  endloop
endfacet
facet normal 0.0 -1.0 0.0
  outer loop
    vertex 1753.1472924863997 -853.6481095973967 2463.7999999999997
    vertex 1734.0972924863997 -853.6481095973967 381.00000000000006
    vertex 1753.1472924863997 -853.6481095973967 381.00000000000006
  endloop
endfacet
facet normal 0.0 -1.0 0.0
  outer loop
    vertex 1734.0972924863997 -853.6481095973967 381.00000000000006
    vertex 1753.1472924863997 -853.6481095973967 2463.7999999999997
    vertex 1734.0972924863997 -853.6481095973967 2463.7999999999997
  endloop
endfacet
facet normal -1.0 0.0 0.0
  outer loop
    vertex 1734.0972924863997 -752.0481095973967 2463.7999999999997
    vertex 1734.0972924863997 -853.6481095973967 381.00000000000006
    vertex 1734.0972924863997 -853.6481095973967 2463.7999999999997
  endloop
endfacet
facet normal -1.0 0.0 0.0
  outer loop
    vertex 1734.0972924863997 -853.6481095973967 381.00000000000006
    vertex 1734.0972924863997 -752.0481095973967 2463.7999999999997
    vertex 1734.0972924863997 -752.0481095973967 381.00000000000006
  endloop
endfacet
facet normal 0.0 0.0 1.0
  outer loop
    vertex 1753.1472924863997 -853.6481095973967 2463.7999999999997
    vertex 1734.0972924863997 -752.0481095973967 2463.7999999999997
    vertex 1734.0972924863997 -853.6481095973967 2463.7999999999997
  endloop
endfacet
facet normal 0.0 0.0 1.0
  outer loop
    vertex 1734.0972924863997 -752.0481095973967 2463.7999999999997
    vertex 1753.1472924863997 -853.6481095973967 2463.7999999999997
    vertex 1753.1472924863997 -752.0481095973967 2463.7999999999997
  endloop
endfacet
facet normal -0.0 -0.0 -1.0
  outer loop
    vertex 1753.1472924863997 -752.0481095973967 381.00000000000006
    vertex 1734.0972924863997 -853.6481095973967 381.00000000000006
    vertex 1734.0972924863997 -752.0481095973967 381.00000000000006
  endloop
endfacet
facet normal -0.0 -0.0 -1.0
  outer loop
    vertex 1734.0972924863997 -853.6481095973967 381.00000000000006
    vertex 1753.1472924863997 -752.0481095973967 381.00000000000006
    vertex 1753.1472924863997 -853.6481095973967 381.00000000000006
  endloop
endfacet
facet normal 0.0 1.0 0.0
  outer loop
    vertex 1734.0972924863997 -752.0481095973967 2463.7999999999997
    vertex 1753.1472924863997 -752.0481095973967 381.00000000000006
    vertex 1734.0972924863997 -752.0481095973967 381.00000000000006
  endloop
endfacet
facet normal 0.0 1.0 0.0
  outer loop
    vertex 1753.1472924863997 -752.0481095973967 381.00000000000006
    vertex 1734.0972924863997 -752.0481095973967 2463.7999999999997
    vertex 1753.1472924863997 -752.0481095973967 2463.7999999999997
  endloop
endfacet
facet normal 1.0 0.0 0.0
  outer loop
    vertex 1753.1472924863997 -752.0481095973967 381.00000000000006
    vertex 1753.1472924863997 -853.6481095973967 2463.7999999999997
    vertex 1753.1472924863997 -853.6481095973967 381.00000000000006
  endloop
endfacet
facet normal 1.0 0.0 0.0
  outer loop
    vertex 1753.1472924863997 -853.6481095973967 2463.7999999999997
    vertex 1753.1472924863997 -752.0481095973967 381.00000000000006
    vertex 1753.1472924863997 -752.0481095973967 2463.7999999999997
  endloop
endfacet
facet normal -1.1842378929335002e-15 -0.0 -1.0
  outer loop
    vertex 1753.1472924863997 -371.0481095973967 1856.3166666666664
    vertex 1734.0972924863997 -752.0481095973967 1856.3166666666664
    vertex 1734.0972924863997 -371.0481095973967 1856.3166666666664
  endloop
endfacet
facet normal -1.1842378929335002e-15 -0.0 -1.0
  outer loop
    vertex 1734.0972924863997 -752.0481095973967 1856.3166666666664
    vertex 1753.1472924863997 -371.0481095973967 1856.3166666666664
    vertex 1753.1472924863997 -752.0481095973967 1856.3166666666664
  endloop
endfacet
facet normal -0.998497592518697 0.0 0.05479559958944072
  outer loop
    vertex 1753.1472924863997 -371.0481095973967 2203.4499999999994
    vertex 1734.0972924863997 -752.0481095973967 1856.3166666666664
    vertex 1753.1472924863997 -752.0481095973967 2203.4499999999994
  endloop
endfacet
facet normal -0.998497592518697 0.0 0.05479559958944072
  outer loop
    vertex 1734.0972924863997 -752.0481095973967 1856.3166666666664
    vertex 1753.1472924863997 -371.0481095973967 2203.4499999999994
    vertex 1734.0972924863997 -371.0481095973967 1856.3166666666664
  endloop
endfacet
facet normal 1.0 0.0 0.0
  outer loop
    vertex 1753.1472924863997 -371.0481095973967 1856.3166666666664
    vertex 1753.1472924863997 -752.0481095973967 2203.4499999999994
    vertex 1753.1472924863997 -752.0481095973967 1856.3166666666664
  endloop
endfacet
facet normal 1.0 0.0 0.0
  outer loop
    vertex 1753.1472924863997 -752.0481095973967 2203.4499999999994
    vertex 1753.1472924863997 -371.0481095973967 1856.3166666666664
    vertex 1753.1472924863997 -371.0481095973967 2203.4499999999994
  endloop
endfacet
facet normal 0.0 -1.0 0.0
  outer loop
    vertex 1753.1472924863997 -752.0481095973967 2203.4499999999994
    vertex 1734.0972924863997 -752.0481095973967 1856.3166666666664
    vertex 1753.1472924863997 -752.0481095973967 1856.3166666666664
  endloop
endfacet
facet normal 0.0 1.0 0.0
  outer loop
    vertex 1753.1472924863997 -371.0481095973967 2203.4499999999994
    vertex 1753.1472924863997 -371.0481095973967 1856.3166666666664
    vertex 1734.0972924863997 -371.0481095973967 1856.3166666666664
  endloop
endfacet
facet normal 1.0 0.0 0.0
  outer loop
    vertex 1753.1472924863997 -1945.8481095973966 120.64999999999999
    vertex 1753.1472924863997 -1964.8981095973966 2463.7999999999997
    vertex 1753.1472924863997 -1964.8981095973966 120.64999999999999
  endloop
endfacet
facet normal 1.0 0.0 0.0
  outer loop
    vertex 1753.1472924863997 -1964.8981095973966 2463.7999999999997
    vertex 1753.1472924863997 -1945.8481095973966 120.64999999999999
    vertex 1753.1472924863997 -1945.8481095973966 2463.7999999999997
  endloop
endfacet
facet normal 0.0 1.0 0.0
  outer loop
    vertex 1734.0972924863997 -1945.8481095973966 2463.7999999999997
    vertex 1753.1472924863997 -1945.8481095973966 120.64999999999999
    vertex 1734.0972924863997 -1945.8481095973966 120.64999999999999
  endloop
endfacet
facet normal 0.0 1.0 0.0
  outer loop
    vertex 1753.1472924863997 -1945.8481095973966 120.64999999999999
    vertex 1734.0972924863997 -1945.8481095973966 2463.7999999999997
    vertex 1753.1472924863997 -1945.8481095973966 2463.7999999999997
  endloop
endfacet
facet normal 0.0 0.0 1.0
  outer loop
    vertex 1753.1472924863997 -1964.8981095973966 2463.7999999999997
    vertex 1734.0972924863997 -1945.8481095973966 2463.7999999999997
    vertex 1734.0972924863997 -1964.8981095973966 2463.7999999999997
  endloop
endfacet
facet normal 0.0 0.0 1.0
  outer loop
    vertex 1734.0972924863997 -1945.8481095973966 2463.7999999999997
    vertex 1753.1472924863997 -1964.8981095973966 2463.7999999999997
    vertex 1753.1472924863997 -1945.8481095973966 2463.7999999999997
  endloop
endfacet
facet normal 0.0 -1.0 0.0
  outer loop
    vertex 1753.1472924863997 -1964.8981095973966 2463.7999999999997
    vertex 1734.0972924863997 -1964.8981095973966 120.64999999999999
    vertex 1753.1472924863997 -1964.8981095973966 120.64999999999999
  endloop
endfacet
facet normal 0.0 -1.0 0.0
  outer loop
    vertex 1734.0972924863997 -1964.8981095973966 120.64999999999999
    vertex 1753.1472924863997 -1964.8981095973966 2463.7999999999997
    vertex 1734.0972924863997 -1964.8981095973966 2463.7999999999997
  endloop
endfacet
facet normal -0.0 -0.0 -1.0
  outer loop
    vertex 1753.1472924863997 -1945.8481095973966 120.64999999999999
    vertex 1734.0972924863997 -1964.8981095973966 120.64999999999999
    vertex 1734.0972924863997 -1945.8481095973966 120.64999999999999
  endloop
endfacet
facet normal -0.0 -0.0 -1.0
  outer loop
    vertex 1734.0972924863997 -1964.8981095973966 120.64999999999999
    vertex 1753.1472924863997 -1945.8481095973966 120.64999999999999
    vertex 1753.1472924863997 -1964.8981095973966 120.64999999999999
  endloop
endfacet
facet normal -1.0 0.0 0.0
  outer loop
    vertex 1734.0972924863997 -1945.8481095973966 2463.7999999999997
    vertex 1734.0972924863997 -1964.8981095973966 120.64999999999999
    vertex 1734.0972924863997 -1964.8981095973966 2463.7999999999997
  endloop
endfacet
facet normal -1.0 0.0 0.0
  outer loop
    vertex 1734.0972924863997 -1964.8981095973966 120.64999999999999
    vertex 1734.0972924863997 -1945.8481095973966 2463.7999999999997
    vertex 1734.0972924863997 -1945.8481095973966 120.64999999999999
  endloop
endfacet
facet normal 1.0 0.0 0.0
  outer loop
    vertex 1753.1472924863997 -1793.4481095973965 1162.05
    vertex 1753.1472924863997 -1945.8481095973966 1509.1833333333332
    vertex 1753.1472924863997 -1945.8481095973966 1162.05
  endloop
endfacet
facet normal 1.0 0.0 0.0
  outer loop
    vertex 1753.1472924863997 -1945.8481095973966 1509.1833333333332
    vertex 1753.1472924863997 -1793.4481095973965 1162.05
    vertex 1753.1472924863997 -1793.4481095973965 1509.1833333333332
  endloop
endfacet
facet normal 0.0 1.0 0.0
  outer loop
    vertex 1753.1472924863997 -1793.4481095973965 1509.1833333333332
    vertex 1753.1472924863997 -1793.4481095973965 1162.05
    vertex 1734.0972924863997 -1793.4481095973965 1162.05
  endloop
endfacet
facet normal 0.0 -1.0 0.0
  outer loop
    vertex 1753.1472924863997 -1945.8481095973966 1509.1833333333332
    vertex 1734.0972924863997 -1945.8481095973966 1162.05
    vertex 1753.1472924863997 -1945.8481095973966 1162.05
  endloop
endfacet
facet normal -1.1842378929335002e-15 -0.0 -1.0
  outer loop
    vertex 1753.1472924863997 -1793.4481095973965 1162.05
    vertex 1734.0972924863997 -1945.8481095973966 1162.05
    vertex 1734.0972924863997 -1793.4481095973965 1162.05
  endloop
endfacet
facet normal -1.1842378929335002e-15 -0.0 -1.0
  outer loop
    vertex 1734.0972924863997 -1945.8481095973966 1162.05
    vertex 1753.1472924863997 -1793.4481095973965 1162.05
    vertex 1753.1472924863997 -1945.8481095973966 1162.05
  endloop
endfacet
facet normal -0.998497592518697 0.0 0.05479559958944072
  outer loop
    vertex 1753.1472924863997 -1793.4481095973965 1509.1833333333332
    vertex 1734.0972924863997 -1945.8481095973966 1162.05
    vertex 1753.1472924863997 -1945.8481095973966 1509.1833333333332
  endloop
endfacet
facet normal -0.998497592518697 0.0 0.05479559958944072
  outer loop
    vertex 1734.0972924863997 -1945.8481095973966 1162.05
    vertex 1753.1472924863997 -1793.4481095973965 1509.1833333333332
    vertex 1734.0972924863997 -1793.4481095973965 1162.05
  endloop
endfacet
facet normal 1.0 0.0 0.0
  outer loop
    vertex 1753.1472924863997 -1793.4481095973965 814.9166666666666
    vertex 1753.1472924863997 -1945.8481095973966 1162.05
    vertex 1753.1472924863997 -1945.8481095973966 814.9166666666666
  endloop
endfacet
facet normal 1.0 0.0 0.0
  outer loop
    vertex 1753.1472924863997 -1945.8481095973966 1162.05
    vertex 1753.1472924863997 -1793.4481095973965 814.9166666666666
    vertex 1753.1472924863997 -1793.4481095973965 1162.05
  endloop
endfacet
facet normal 0.0 1.0 0.0
  outer loop
    vertex 1753.1472924863997 -1793.4481095973965 1162.05
    vertex 1753.1472924863997 -1793.4481095973965 814.9166666666666
    vertex 1734.0972924863997 -1793.4481095973965 814.9166666666666
  endloop
endfacet
facet normal 0.0 -1.0 0.0
  outer loop
    vertex 1753.1472924863997 -1945.8481095973966 1162.05
    vertex 1734.0972924863997 -1945.8481095973966 814.9166666666666
    vertex 1753.1472924863997 -1945.8481095973966 814.9166666666666
  endloop
endfacet
facet normal -1.1842378929335002e-15 -0.0 -1.0
  outer loop
    vertex 1753.1472924863997 -1793.4481095973965 814.9166666666666
    vertex 1734.0972924863997 -1945.8481095973966 814.9166666666666
    vertex 1734.0972924863997 -1793.4481095973965 814.9166666666666
  endloop
endfacet
facet normal -1.1842378929335002e-15 -0.0 -1.0
  outer loop
    vertex 1734.0972924863997 -1945.8481095973966 814.9166666666666
    vertex 1753.1472924863997 -1793.4481095973965 814.9166666666666
    vertex 1753.1472924863997 -1945.8481095973966 814.9166666666666
  endloop
endfacet
facet normal -0.998497592518697 0.0 0.05479559958944072
  outer loop
    vertex 1753.1472924863997 -1793.4481095973965 1162.05
    vertex 1734.0972924863997 -1945.8481095973966 814.9166666666666
    vertex 1753.1472924863997 -1945.8481095973966 1162.05
  endloop
endfacet
facet normal -0.998497592518697 0.0 0.05479559958944072
  outer loop
    vertex 1734.0972924863997 -1945.8481095973966 814.9166666666666
    vertex 1753.1472924863997 -1793.4481095973965 1162.05
    vertex 1734.0972924863997 -1793.4481095973965 814.9166666666666
  endloop
endfacet
facet normal 1.0 0.0 0.0
  outer loop
    vertex 1753.1472924863997 -1793.4481095973965 1509.1833333333332
    vertex 1753.1472924863997 -1945.8481095973966 1856.3166666666664
    vertex 1753.1472924863997 -1945.8481095973966 1509.1833333333332
  endloop
endfacet
facet normal 1.0 0.0 0.0
  outer loop
    vertex 1753.1472924863997 -1945.8481095973966 1856.3166666666664
    vertex 1753.1472924863997 -1793.4481095973965 1509.1833333333332
    vertex 1753.1472924863997 -1793.4481095973965 1856.3166666666664
  endloop
endfacet
facet normal 0.0 1.0 0.0
  outer loop
    vertex 1753.1472924863997 -1793.4481095973965 1856.3166666666664
    vertex 1753.1472924863997 -1793.4481095973965 1509.1833333333332
    vertex 1734.0972924863997 -1793.4481095973965 1509.1833333333332
  endloop
endfacet
facet normal 0.0 -1.0 0.0
  outer loop
    vertex 1753.1472924863997 -1945.8481095973966 1856.3166666666664
    vertex 1734.0972924863997 -1945.8481095973966 1509.1833333333332
    vertex 1753.1472924863997 -1945.8481095973966 1509.1833333333332
  endloop
endfacet
facet normal -1.1842378929335002e-15 -0.0 -1.0
  outer loop
    vertex 1753.1472924863997 -1793.4481095973965 1509.1833333333332
    vertex 1734.0972924863997 -1945.8481095973966 1509.1833333333332
    vertex 1734.0972924863997 -1793.4481095973965 1509.1833333333332
  endloop
endfacet
facet normal -1.1842378929335002e-15 -0.0 -1.0
  outer loop
    vertex 1734.0972924863997 -1945.8481095973966 1509.1833333333332
    vertex 1753.1472924863997 -1793.4481095973965 1509.1833333333332
    vertex 1753.1472924863997 -1945.8481095973966 1509.1833333333332
  endloop
endfacet
facet normal -0.998497592518697 0.0 0.05479559958944072
  outer loop
    vertex 1753.1472924863997 -1793.4481095973965 1856.3166666666664
    vertex 1734.0972924863997 -1945.8481095973966 1509.1833333333332
    vertex 1753.1472924863997 -1945.8481095973966 1856.3166666666664
  endloop
endfacet
facet normal -0.998497592518697 0.0 0.05479559958944072
  outer loop
    vertex 1734.0972924863997 -1945.8481095973966 1509.1833333333332
    vertex 1753.1472924863997 -1793.4481095973965 1856.3166666666664
    vertex 1734.0972924863997 -1793.4481095973965 1509.1833333333332
  endloop
endfacet
facet normal 1.0 0.0 0.0
  outer loop
    vertex 1753.1472924863997 -1793.4481095973965 1856.3166666666664
    vertex 1753.1472924863997 -1945.8481095973966 2203.4499999999994
    vertex 1753.1472924863997 -1945.8481095973966 1856.3166666666664
  endloop
endfacet
facet normal 1.0 0.0 0.0
  outer loop
    vertex 1753.1472924863997 -1945.8481095973966 2203.4499999999994
    vertex 1753.1472924863997 -1793.4481095973965 1856.3166666666664
    vertex 1753.1472924863997 -1793.4481095973965 2203.4499999999994
  endloop
endfacet
facet normal 0.0 1.0 0.0
  outer loop
    vertex 1753.1472924863997 -1793.4481095973965 2203.4499999999994
    vertex 1753.1472924863997 -1793.4481095973965 1856.3166666666664
    vertex 1734.0972924863997 -1793.4481095973965 1856.3166666666664
  endloop
endfacet
facet normal 0.0 -1.0 0.0
  outer loop
    vertex 1753.1472924863997 -1945.8481095973966 2203.4499999999994
    vertex 1734.0972924863997 -1945.8481095973966 1856.3166666666664
    vertex 1753.1472924863997 -1945.8481095973966 1856.3166666666664
  endloop
endfacet
facet normal -1.1842378929335002e-15 -0.0 -1.0
  outer loop
    vertex 1753.1472924863997 -1793.4481095973965 1856.3166666666664
    vertex 1734.0972924863997 -1945.8481095973966 1856.3166666666664
    vertex 1734.0972924863997 -1793.4481095973965 1856.3166666666664
  endloop
endfacet
facet normal -1.1842378929335002e-15 -0.0 -1.0
  outer loop
    vertex 1734.0972924863997 -1945.8481095973966 1856.3166666666664
    vertex 1753.1472924863997 -1793.4481095973965 1856.3166666666664
    vertex 1753.1472924863997 -1945.8481095973966 1856.3166666666664
  endloop
endfacet
facet normal -0.998497592518697 0.0 0.05479559958944072
  outer loop
    vertex 1753.1472924863997 -1793.4481095973965 2203.4499999999994
    vertex 1734.0972924863997 -1945.8481095973966 1856.3166666666664
    vertex 1753.1472924863997 -1945.8481095973966 2203.4499999999994
  endloop
endfacet
facet normal -0.998497592518697 0.0 0.05479559958944072
  outer loop
    vertex 1734.0972924863997 -1945.8481095973966 1856.3166666666664
    vertex 1753.1472924863997 -1793.4481095973965 2203.4499999999994
    vertex 1734.0972924863997 -1793.4481095973965 1856.3166666666664
  endloop
endfacet
facet normal 0.0 0.0 1.0
  outer loop
    vertex 1753.1472924863997 -752.0481095973967 2463.7999999999997
    vertex 1748.3847924863996 -371.0481095973967 2463.7999999999997
    vertex 1748.3847924863996 -752.0481095973967 2463.7999999999997
  endloop
endfacet
facet normal 0.0 0.0 1.0
  outer loop
    vertex 1748.3847924863996 -371.0481095973967 2463.7999999999997
    vertex 1753.1472924863997 -752.0481095973967 2463.7999999999997
    vertex 1753.1472924863997 -371.0481095973967 2463.7999999999997
  endloop
endfacet
facet normal 0.0 -1.0 0.0
  outer loop
    vertex 1753.1472924863997 -752.0481095973967 2463.7999999999997
    vertex 1734.0972924863997 -752.0481095973967 2203.45
    vertex 1753.1472924863997 -752.0481095973967 2203.45
  endloop
endfacet
facet normal 0.0 -1.0 0.0
  outer loop
    vertex 1734.0972924863997 -752.0481095973967 2203.45
    vertex 1753.1472924863997 -752.0481095973967 2463.7999999999997
    vertex 1748.3847924863996 -752.0481095973967 2463.7999999999997
  endloop
endfacet
facet normal 0.0 1.0 0.0
  outer loop
    vertex 1748.3847924863996 -371.0481095973967 2463.7999999999997
    vertex 1753.1472924863997 -371.0481095973967 2203.45
    vertex 1734.0972924863997 -371.0481095973967 2203.45
  endloop
endfacet
facet normal 0.0 1.0 0.0
  outer loop
    vertex 1753.1472924863997 -371.0481095973967 2203.45
    vertex 1748.3847924863996 -371.0481095973967 2463.7999999999997
    vertex 1753.1472924863997 -371.0481095973967 2463.7999999999997
  endloop
endfacet
facet normal 1.0 0.0 0.0
  outer loop
    vertex 1753.1472924863997 -371.0481095973967 2203.45
    vertex 1753.1472924863997 -752.0481095973967 2463.7999999999997
    vertex 1753.1472924863997 -752.0481095973967 2203.45
  endloop
endfacet
facet normal 1.0 0.0 0.0
  outer loop
    vertex 1753.1472924863997 -752.0481095973967 2463.7999999999997
    vertex 1753.1472924863997 -371.0481095973967 2203.45
    vertex 1753.1472924863997 -371.0481095973967 2463.7999999999997
  endloop
endfacet
facet normal -0.9984975925186971 0.0 0.0547955995894407
  outer loop
    vertex 1748.3847924863996 -371.0481095973967 2463.7999999999997
    vertex 1734.0972924863997 -752.0481095973967 2203.45
    vertex 1748.3847924863996 -752.0481095973967 2463.7999999999997
  endloop
endfacet
facet normal -0.9984975925186971 0.0 0.0547955995894407
  outer loop
    vertex 1734.0972924863997 -752.0481095973967 2203.45
    vertex 1748.3847924863996 -371.0481095973967 2463.7999999999997
    vertex 1734.0972924863997 -371.0481095973967 2203.45
  endloop
endfacet
facet normal -1.1842378929335002e-15 -0.0 -1.0
  outer loop
    vertex 1753.1472924863997 -371.0481095973967 2203.45
    vertex 1734.0972924863997 -752.0481095973967 2203.45
    vertex 1734.0972924863997 -371.0481095973967 2203.45
  endloop
endfacet
facet normal -1.1842378929335002e-15 -0.0 -1.0
  outer loop
    vertex 1734.0972924863997 -752.0481095973967 2203.45
    vertex 1753.1472924863997 -371.0481095973967 2203.45
    vertex 1753.1472924863997 -752.0481095973967 2203.45
  endloop
endfacet
facet normal 1.0 0.0 0.0
  outer loop
    vertex 1753.1472924863997 -1793.4481095973965 467.78333333333336
    vertex 1753.1472924863997 -1945.8481095973966 814.9166666666665
    vertex 1753.1472924863997 -1945.8481095973966 467.78333333333336
  endloop
endfacet
facet normal 1.0 0.0 0.0
  outer loop
    vertex 1753.1472924863997 -1945.8481095973966 814.9166666666665
    vertex 1753.1472924863997 -1793.4481095973965 467.78333333333336
    vertex 1753.1472924863997 -1793.4481095973965 814.9166666666665
  endloop
endfacet
facet normal 0.0 1.0 0.0
  outer loop
    vertex 1753.1472924863997 -1793.4481095973965 814.9166666666665
    vertex 1753.1472924863997 -1793.4481095973965 467.78333333333336
    vertex 1734.0972924863997 -1793.4481095973965 467.78333333333336
  endloop
endfacet
facet normal 0.0 -1.0 0.0
  outer loop
    vertex 1753.1472924863997 -1945.8481095973966 814.9166666666665
    vertex 1734.0972924863997 -1945.8481095973966 467.78333333333336
    vertex 1753.1472924863997 -1945.8481095973966 467.78333333333336
  endloop
endfacet
facet normal -1.1842378929335002e-15 -0.0 -1.0
  outer loop
    vertex 1753.1472924863997 -1793.4481095973965 467.78333333333336
    vertex 1734.0972924863997 -1945.8481095973966 467.78333333333336
    vertex 1734.0972924863997 -1793.4481095973965 467.78333333333336
  endloop
endfacet
facet normal -1.1842378929335002e-15 -0.0 -1.0
  outer loop
    vertex 1734.0972924863997 -1945.8481095973966 467.78333333333336
    vertex 1753.1472924863997 -1793.4481095973965 467.78333333333336
    vertex 1753.1472924863997 -1945.8481095973966 467.78333333333336
  endloop
endfacet
facet normal -0.998497592518697 0.0 0.05479559958944072
  outer loop
    vertex 1753.1472924863997 -1793.4481095973965 814.9166666666665
    vertex 1734.0972924863997 -1945.8481095973966 467.78333333333336
    vertex 1753.1472924863997 -1945.8481095973966 814.9166666666665
  endloop
endfacet
facet normal -0.998497592518697 0.0 0.05479559958944072
  outer loop
    vertex 1734.0972924863997 -1945.8481095973966 467.78333333333336
    vertex 1753.1472924863997 -1793.4481095973965 814.9166666666665
    vertex 1734.0972924863997 -1793.4481095973965 467.78333333333336
  endloop
endfacet
facet normal -1.1842378929335002e-15 -0.0 -1.0
  outer loop
    vertex 1753.1472924863997 -371.0481095973967 120.65000000000003
    vertex 1734.0972924863997 -752.0481095973967 120.65000000000006
    vertex 1734.0972924863997 -371.0481095973967 120.65000000000006
  endloop
endfacet
facet normal -1.1842378929335002e-15 -0.0 -1.0
  outer loop
    vertex 1734.0972924863997 -752.0481095973967 120.65000000000006
    vertex 1753.1472924863997 -371.0481095973967 120.65000000000003
    vertex 1753.1472924863997 -752.0481095973967 120.65000000000003
  endloop
endfacet
facet normal -0.998497592518697 0.0 0.05479559958944072
  outer loop
    vertex 1753.1472924863997 -371.0481095973967 467.78333333333325
    vertex 1734.0972924863997 -752.0481095973967 120.65000000000006
    vertex 1753.1472924863997 -752.0481095973967 467.78333333333325
  endloop
endfacet
facet normal -0.998497592518697 0.0 0.05479559958944072
  outer loop
    vertex 1734.0972924863997 -752.0481095973967 120.65000000000006
    vertex 1753.1472924863997 -371.0481095973967 467.78333333333325
    vertex 1734.0972924863997 -371.0481095973967 120.65000000000006
  endloop
endfacet
facet normal 1.0 0.0 0.0
  outer loop
    vertex 1753.1472924863997 -371.0481095973967 120.65000000000003
    vertex 1753.1472924863997 -752.0481095973967 467.78333333333325
    vertex 1753.1472924863997 -752.0481095973967 120.65000000000003
  endloop
endfacet
facet normal 1.0 0.0 0.0
  outer loop
    vertex 1753.1472924863997 -752.0481095973967 467.78333333333325
    vertex 1753.1472924863997 -371.0481095973967 120.65000000000003
    vertex 1753.1472924863997 -371.0481095973967 467.78333333333325
  endloop
endfacet
facet normal 0.0 -1.0 0.0
  outer loop
    vertex 1753.1472924863997 -752.0481095973967 467.78333333333325
    vertex 1734.0972924863997 -752.0481095973967 120.65000000000006
    vertex 1753.1472924863997 -752.0481095973967 120.65000000000003
  endloop
endfacet
facet normal 0.0 1.0 0.0
  outer loop
    vertex 1753.1472924863997 -371.0481095973967 467.78333333333325
    vertex 1753.1472924863997 -371.0481095973967 120.65000000000003
    vertex 1734.0972924863997 -371.0481095973967 120.65000000000006
  endloop
endfacet
facet normal -1.1842378929335002e-15 -0.0 -1.0
  outer loop
    vertex 1753.1472924863997 -371.0481095973967 814.9166666666666
    vertex 1734.0972924863997 -752.0481095973967 814.9166666666666
    vertex 1734.0972924863997 -371.0481095973967 814.9166666666666
  endloop
endfacet
facet normal -1.1842378929335002e-15 -0.0 -1.0
  outer loop
    vertex 1734.0972924863997 -752.0481095973967 814.9166666666666
    vertex 1753.1472924863997 -371.0481095973967 814.9166666666666
    vertex 1753.1472924863997 -752.0481095973967 814.9166666666666
  endloop
endfacet
facet normal -0.998497592518697 0.0 0.05479559958944072
  outer loop
    vertex 1753.1472924863997 -371.0481095973967 1162.05
    vertex 1734.0972924863997 -752.0481095973967 814.9166666666666
    vertex 1753.1472924863997 -752.0481095973967 1162.05
  endloop
endfacet
facet normal -0.998497592518697 0.0 0.05479559958944072
  outer loop
    vertex 1734.0972924863997 -752.0481095973967 814.9166666666666
    vertex 1753.1472924863997 -371.0481095973967 1162.05
    vertex 1734.0972924863997 -371.0481095973967 814.9166666666666
  endloop
endfacet
facet normal 1.0 0.0 0.0
  outer loop
    vertex 1753.1472924863997 -371.0481095973967 814.9166666666666
    vertex 1753.1472924863997 -752.0481095973967 1162.05
    vertex 1753.1472924863997 -752.0481095973967 814.9166666666666
  endloop
endfacet
facet normal 1.0 0.0 0.0
  outer loop
    vertex 1753.1472924863997 -752.0481095973967 1162.05
    vertex 1753.1472924863997 -371.0481095973967 814.9166666666666
    vertex 1753.1472924863997 -371.0481095973967 1162.05
  endloop
endfacet
facet normal 0.0 -1.0 0.0
  outer loop
    vertex 1753.1472924863997 -752.0481095973967 1162.05
    vertex 1734.0972924863997 -752.0481095973967 814.9166666666666
    vertex 1753.1472924863997 -752.0481095973967 814.9166666666666
  endloop
endfacet
facet normal 0.0 1.0 0.0
  outer loop
    vertex 1753.1472924863997 -371.0481095973967 1162.05
    vertex 1753.1472924863997 -371.0481095973967 814.9166666666666
    vertex 1734.0972924863997 -371.0481095973967 814.9166666666666
  endloop
endfacet
facet normal 0.0 -1.0 0.0
  outer loop
    vertex 1753.1472924863997 -1691.8481095973966 2463.7999999999997
    vertex 1734.0972924863997 -1691.8481095973966 2413.0
    vertex 1753.1472924863997 -1691.8481095973966 2413.0
  endloop
endfacet
facet normal 0.0 -1.0 0.0
  outer loop
    vertex 1734.0972924863997 -1691.8481095973966 2413.0
    vertex 1753.1472924863997 -1691.8481095973966 2463.7999999999997
    vertex 1734.0972924863997 -1691.8481095973966 2463.7999999999997
  endloop
endfacet
facet normal -0.0 -0.0 -1.0
  outer loop
    vertex 1753.1472924863997 -853.6481095973967 2413.0
    vertex 1734.0972924863997 -1691.8481095973966 2413.0
    vertex 1734.0972924863997 -853.6481095973967 2413.0
  endloop
endfacet
facet normal -0.0 -0.0 -1.0
  outer loop
    vertex 1734.0972924863997 -1691.8481095973966 2413.0
    vertex 1753.1472924863997 -853.6481095973967 2413.0
    vertex 1753.1472924863997 -1691.8481095973966 2413.0
  endloop
endfacet
facet normal 0.0 0.0 1.0
  outer loop
    vertex 1753.1472924863997 -1691.8481095973966 2463.7999999999997
    vertex 1734.0972924863997 -853.6481095973967 2463.7999999999997
    vertex 1734.0972924863997 -1691.8481095973966 2463.7999999999997
  endloop
endfacet
facet normal 0.0 0.0 1.0
  outer loop
    vertex 1734.0972924863997 -853.6481095973967 2463.7999999999997
    vertex 1753.1472924863997 -1691.8481095973966 2463.7999999999997
    vertex 1753.1472924863997 -853.6481095973967 2463.7999999999997
  endloop
endfacet
facet normal 0.0 1.0 0.0
  outer loop
    vertex 1734.0972924863997 -853.6481095973967 2463.7999999999997
    vertex 1753.1472924863997 -853.6481095973967 2413.0
    vertex 1734.0972924863997 -853.6481095973967 2413.0
  endloop
endfacet
facet normal 0.0 1.0 0.0
  outer loop
    vertex 1753.1472924863997 -853.6481095973967 2413.0
    vertex 1734.0972924863997 -853.6481095973967 2463.7999999999997
    vertex 1753.1472924863997 -853.6481095973967 2463.7999999999997
  endloop
endfacet
facet normal -1.0 0.0 0.0
  outer loop
    vertex 1734.0972924863997 -853.6481095973967 2463.7999999999997
    vertex 1734.0972924863997 -1691.8481095973966 2413.0
    vertex 1734.0972924863997 -1691.8481095973966 2463.7999999999997
  endloop
endfacet
facet normal -1.0 0.0 0.0
  outer loop
    vertex 1734.0972924863997 -1691.8481095973966 2413.0
    vertex 1734.0972924863997 -853.6481095973967 2463.7999999999997
    vertex 1734.0972924863997 -853.6481095973967 2413.0
  endloop
endfacet
facet normal 1.0 0.0 0.0
  outer loop
    vertex 1753.1472924863997 -853.6481095973967 2413.0
    vertex 1753.1472924863997 -1691.8481095973966 2463.7999999999997
    vertex 1753.1472924863997 -1691.8481095973966 2413.0
  endloop
endfacet
facet normal 1.0 0.0 0.0
  outer loop
    vertex 1753.1472924863997 -1691.8481095973966 2463.7999999999997
    vertex 1753.1472924863997 -853.6481095973967 2413.0
    vertex 1753.1472924863997 -853.6481095973967 2463.7999999999997
  endloop
endfacet
facet normal 0.0 0.0 1.0
  outer loop
    vertex 1753.1472924863997 -1793.4481095973965 2463.7999999999997
    vertex 1734.0972924863997 -1688.446654518384 2463.7999999999997
    vertex 1734.0972924863997 -1793.4481095973965 2463.7999999999997
  endloop
endfacet
facet normal 0.0 0.0 1.0
  outer loop
    vertex 1734.0972924863997 -1688.446654518384 2463.7999999999997
    vertex 1753.1472924863997 -1793.4481095973965 2463.7999999999997
    vertex 1753.1472924863997 -1688.446654518384 2463.7999999999997
  endloop
endfacet
facet normal 0.0 1.0 0.0
  outer loop
    vertex 1734.0972924863997 -1688.446654518384 2463.7999999999997
    vertex 1753.1472924863997 -1688.446654518384 381.00000000000006
    vertex 1734.0972924863997 -1688.446654518384 381.00000000000006
  endloop
endfacet
facet normal 0.0 1.0 0.0
  outer loop
    vertex 1753.1472924863997 -1688.446654518384 381.00000000000006
    vertex 1734.0972924863997 -1688.446654518384 2463.7999999999997
    vertex 1753.1472924863997 -1688.446654518384 2463.7999999999997
  endloop
endfacet
facet normal -1.0 0.0 0.0
  outer loop
    vertex 1734.0972924863997 -1688.446654518384 2463.7999999999997
    vertex 1734.0972924863997 -1793.4481095973965 381.00000000000006
    vertex 1734.0972924863997 -1793.4481095973965 2463.7999999999997
  endloop
endfacet
facet normal -1.0 0.0 0.0
  outer loop
    vertex 1734.0972924863997 -1793.4481095973965 381.00000000000006
    vertex 1734.0972924863997 -1688.446654518384 2463.7999999999997
    vertex 1734.0972924863997 -1688.446654518384 381.00000000000006
  endloop
endfacet
facet normal 0.0 -1.0 0.0
  outer loop
    vertex 1753.1472924863997 -1793.4481095973965 2463.7999999999997
    vertex 1734.0972924863997 -1793.4481095973965 381.00000000000006
    vertex 1753.1472924863997 -1793.4481095973965 381.00000000000006
  endloop
endfacet
facet normal 0.0 -1.0 0.0
  outer loop
    vertex 1734.0972924863997 -1793.4481095973965 381.00000000000006
    vertex 1753.1472924863997 -1793.4481095973965 2463.7999999999997
    vertex 1734.0972924863997 -1793.4481095973965 2463.7999999999997
  endloop
endfacet
facet normal -0.0 -0.0 -1.0
  outer loop
    vertex 1753.1472924863997 -1688.446654518384 381.00000000000006
    vertex 1734.0972924863997 -1793.4481095973965 381.00000000000006
    vertex 1734.0972924863997 -1688.446654518384 381.00000000000006
  endloop
endfacet
facet normal -0.0 -0.0 -1.0
  outer loop
    vertex 1734.0972924863997 -1793.4481095973965 381.00000000000006
    vertex 1753.1472924863997 -1688.446654518384 381.00000000000006
    vertex 1753.1472924863997 -1793.4481095973965 381.00000000000006
  endloop
endfacet
facet normal 1.0 0.0 0.0
  outer loop
    vertex 1753.1472924863997 -1688.446654518384 381.00000000000006
    vertex 1753.1472924863997 -1793.4481095973965 2463.7999999999997
    vertex 1753.1472924863997 -1793.4481095973965 381.00000000000006
  endloop
endfacet
facet normal 1.0 0.0 0.0
  outer loop
    vertex 1753.1472924863997 -1793.4481095973965 2463.7999999999997
    vertex 1753.1472924863997 -1688.446654518384 381.00000000000006
    vertex 1753.1472924863997 -1688.446654518384 2463.7999999999997
  endloop
endfacet
facet normal -1.1842378929335002e-15 -0.0 -1.0
  outer loop
    vertex 1753.1472924863997 -371.0481095973967 1509.1833333333332
    vertex 1734.0972924863997 -752.0481095973967 1509.1833333333332
    vertex 1734.0972924863997 -371.0481095973967 1509.1833333333332
  endloop
endfacet
facet normal -1.1842378929335002e-15 -0.0 -1.0
  outer loop
    vertex 1734.0972924863997 -752.0481095973967 1509.1833333333332
    vertex 1753.1472924863997 -371.0481095973967 1509.1833333333332
    vertex 1753.1472924863997 -752.0481095973967 1509.1833333333332
  endloop
endfacet
facet normal -0.998497592518697 0.0 0.05479559958944072
  outer loop
    vertex 1753.1472924863997 -371.0481095973967 1856.3166666666664
    vertex 1734.0972924863997 -752.0481095973967 1509.1833333333332
    vertex 1753.1472924863997 -752.0481095973967 1856.3166666666664
  endloop
endfacet
facet normal -0.998497592518697 0.0 0.05479559958944072
  outer loop
    vertex 1734.0972924863997 -752.0481095973967 1509.1833333333332
    vertex 1753.1472924863997 -371.0481095973967 1856.3166666666664
    vertex 1734.0972924863997 -371.0481095973967 1509.1833333333332
  endloop
endfacet
facet normal 1.0 0.0 0.0
  outer loop
    vertex 1753.1472924863997 -371.0481095973967 1509.1833333333332
    vertex 1753.1472924863997 -752.0481095973967 1856.3166666666664
    vertex 1753.1472924863997 -752.0481095973967 1509.1833333333332
  endloop
endfacet
facet normal 1.0 0.0 0.0
  outer loop
    vertex 1753.1472924863997 -752.0481095973967 1856.3166666666664
    vertex 1753.1472924863997 -371.0481095973967 1509.1833333333332
    vertex 1753.1472924863997 -371.0481095973967 1856.3166666666664
  endloop
endfacet
facet normal 0.0 -1.0 0.0
  outer loop
    vertex 1753.1472924863997 -752.0481095973967 1856.3166666666664
    vertex 1734.0972924863997 -752.0481095973967 1509.1833333333332
    vertex 1753.1472924863997 -752.0481095973967 1509.1833333333332
  endloop
endfacet
facet normal 0.0 1.0 0.0
  outer loop
    vertex 1753.1472924863997 -371.0481095973967 1856.3166666666664
    vertex 1753.1472924863997 -371.0481095973967 1509.1833333333332
    vertex 1734.0972924863997 -371.0481095973967 1509.1833333333332
  endloop
endfacet
facet normal 1.0 0.0 0.0
  outer loop
    vertex 1753.1472924863997 -752.0481095973967 190.50000000000003
    vertex 1753.1472924863997 -1793.4481095973965 381.00000000000006
    vertex 1753.1472924863997 -1793.4481095973965 190.50000000000003
  endloop
endfacet
facet normal 1.0 0.0 0.0
  outer loop
    vertex 1753.1472924863997 -1793.4481095973965 381.00000000000006
    vertex 1753.1472924863997 -752.0481095973967 190.50000000000003
    vertex 1753.1472924863997 -752.0481095973967 381.00000000000006
  endloop
endfacet
facet normal 0.0 1.0 0.0
  outer loop
    vertex 1734.0972924863997 -752.0481095973967 381.00000000000006
    vertex 1753.1472924863997 -752.0481095973967 190.50000000000003
    vertex 1734.0972924863997 -752.0481095973967 190.50000000000003
  endloop
endfacet
facet normal 0.0 1.0 0.0
  outer loop
    vertex 1753.1472924863997 -752.0481095973967 190.50000000000003
    vertex 1734.0972924863997 -752.0481095973967 381.00000000000006
    vertex 1753.1472924863997 -752.0481095973967 381.00000000000006
  endloop
endfacet
facet normal 0.0 0.0 -1.0
  outer loop
    vertex 1753.1472924863997 -752.0481095973967 190.50000000000003
    vertex 1734.0972924863997 -1793.4481095973965 190.50000000000003
    vertex 1734.0972924863997 -752.0481095973967 190.50000000000003
  endloop
endfacet
facet normal 0.0 0.0 -1.0
  outer loop
    vertex 1734.0972924863997 -1793.4481095973965 190.50000000000003
    vertex 1753.1472924863997 -752.0481095973967 190.50000000000003
    vertex 1753.1472924863997 -1793.4481095973965 190.50000000000003
  endloop
endfacet
facet normal -0.0 -1.0 -0.0
  outer loop
    vertex 1753.1472924863997 -1793.4481095973965 381.00000000000006
    vertex 1734.0972924863997 -1793.4481095973965 190.50000000000003
    vertex 1753.1472924863997 -1793.4481095973965 190.50000000000003
  endloop
endfacet
facet normal -0.0 -1.0 -0.0
  outer loop
    vertex 1734.0972924863997 -1793.4481095973965 190.50000000000003
    vertex 1753.1472924863997 -1793.4481095973965 381.00000000000006
    vertex 1734.0972924863997 -1793.4481095973965 381.00000000000006
  endloop
endfacet
facet normal 0.0 0.0 1.0
  outer loop
    vertex 1753.1472924863997 -1793.4481095973965 381.00000000000006
    vertex 1734.0972924863997 -752.0481095973967 381.00000000000006
    vertex 1734.0972924863997 -1793.4481095973965 381.00000000000006
  endloop
endfacet
facet normal 0.0 0.0 1.0
  outer loop
    vertex 1734.0972924863997 -752.0481095973967 381.00000000000006
    vertex 1753.1472924863997 -1793.4481095973965 381.00000000000006
    vertex 1753.1472924863997 -752.0481095973967 381.00000000000006
  endloop
endfacet
facet normal -1.0 -0.0 -0.0
  outer loop
    vertex 1734.0972924863997 -752.0481095973967 381.00000000000006
    vertex 1734.0972924863997 -1793.4481095973965 190.50000000000003
    vertex 1734.0972924863997 -1793.4481095973965 381.00000000000006
  endloop
endfacet
facet normal -1.0 -0.0 -0.0
  outer loop
    vertex 1734.0972924863997 -1793.4481095973965 190.50000000000003
    vertex 1734.0972924863997 -752.0481095973967 381.00000000000006
    vertex 1734.0972924863997 -752.0481095973967 190.50000000000003
  endloop
endfacet
facet normal -1.1842378929335002e-15 -0.0 -1.0
  outer loop
    vertex 1753.1472924863997 -371.0481095973967 1162.05
    vertex 1734.0972924863997 -752.0481095973967 1162.05
    vertex 1734.0972924863997 -371.0481095973967 1162.05
  endloop
endfacet
facet normal -1.1842378929335002e-15 -0.0 -1.0
  outer loop
    vertex 1734.0972924863997 -752.0481095973967 1162.05
    vertex 1753.1472924863997 -371.0481095973967 1162.05
    vertex 1753.1472924863997 -752.0481095973967 1162.05
  endloop
endfacet
facet normal -0.998497592518697 0.0 0.05479559958944072
  outer loop
    vertex 1753.1472924863997 -371.0481095973967 1509.1833333333332
    vertex 1734.0972924863997 -752.0481095973967 1162.05
    vertex 1753.1472924863997 -752.0481095973967 1509.1833333333332
  endloop
endfacet
facet normal -0.998497592518697 0.0 0.05479559958944072
  outer loop
    vertex 1734.0972924863997 -752.0481095973967 1162.05
    vertex 1753.1472924863997 -371.0481095973967 1509.1833333333332
    vertex 1734.0972924863997 -371.0481095973967 1162.05
  endloop
endfacet
facet normal 1.0 0.0 0.0
  outer loop
    vertex 1753.1472924863997 -371.0481095973967 1162.05
    vertex 1753.1472924863997 -752.0481095973967 1509.1833333333332
    vertex 1753.1472924863997 -752.0481095973967 1162.05
  endloop
endfacet
facet normal 1.0 0.0 0.0
  outer loop
    vertex 1753.1472924863997 -752.0481095973967 1509.1833333333332
    vertex 1753.1472924863997 -371.0481095973967 1162.05
    vertex 1753.1472924863997 -371.0481095973967 1509.1833333333332
  endloop
endfacet
facet normal 0.0 -1.0 0.0
  outer loop
    vertex 1753.1472924863997 -752.0481095973967 1509.1833333333332
    vertex 1734.0972924863997 -752.0481095973967 1162.05
    vertex 1753.1472924863997 -752.0481095973967 1162.05
  endloop
endfacet
facet normal 0.0 1.0 0.0
  outer loop
    vertex 1753.1472924863997 -371.0481095973967 1509.1833333333332
    vertex 1753.1472924863997 -371.0481095973967 1162.05
    vertex 1734.0972924863997 -371.0481095973967 1162.05
  endloop
endfacet
facet normal -1.1842378929335002e-15 -0.0 -1.0
  outer loop
    vertex 1753.1472924863997 -371.0481095973967 467.78333333333336
    vertex 1734.0972924863997 -752.0481095973967 467.78333333333336
    vertex 1734.0972924863997 -371.0481095973967 467.78333333333336
  endloop
endfacet
facet normal -1.1842378929335002e-15 -0.0 -1.0
  outer loop
    vertex 1734.0972924863997 -752.0481095973967 467.78333333333336
    vertex 1753.1472924863997 -371.0481095973967 467.78333333333336
    vertex 1753.1472924863997 -752.0481095973967 467.78333333333336
  endloop
endfacet
facet normal -0.998497592518697 0.0 0.05479559958944072
  outer loop
    vertex 1753.1472924863997 -371.0481095973967 814.9166666666665
    vertex 1734.0972924863997 -752.0481095973967 467.78333333333336
    vertex 1753.1472924863997 -752.0481095973967 814.9166666666665
  endloop
endfacet
facet normal -0.998497592518697 0.0 0.05479559958944072
  outer loop
    vertex 1734.0972924863997 -752.0481095973967 467.78333333333336
    vertex 1753.1472924863997 -371.0481095973967 814.9166666666665
    vertex 1734.0972924863997 -371.0481095973967 467.78333333333336
  endloop
endfacet
facet normal 1.0 0.0 0.0
  outer loop
    vertex 1753.1472924863997 -371.0481095973967 467.78333333333336
    vertex 1753.1472924863997 -752.0481095973967 814.9166666666665
    vertex 1753.1472924863997 -752.0481095973967 467.78333333333336
  endloop
endfacet
facet normal 1.0 0.0 0.0
  outer loop
    vertex 1753.1472924863997 -752.0481095973967 814.9166666666665
    vertex 1753.1472924863997 -371.0481095973967 467.78333333333336
    vertex 1753.1472924863997 -371.0481095973967 814.9166666666665
  endloop
endfacet
facet normal 0.0 -1.0 0.0
  outer loop
    vertex 1753.1472924863997 -752.0481095973967 814.9166666666665
    vertex 1734.0972924863997 -752.0481095973967 467.78333333333336
    vertex 1753.1472924863997 -752.0481095973967 467.78333333333336
  endloop
endfacet
facet normal 0.0 1.0 0.0
  outer loop
    vertex 1753.1472924863997 -371.0481095973967 814.9166666666665
    vertex 1753.1472924863997 -371.0481095973967 467.78333333333336
    vertex 1734.0972924863997 -371.0481095973967 467.78333333333336
  endloop
endfacet
facet normal 1.0 0.0 0.0
  outer loop
    vertex 1753.1472924863997 -1793.4481095973965 120.65000000000003
    vertex 1753.1472924863997 -1945.8481095973966 467.78333333333325
    vertex 1753.1472924863997 -1945.8481095973966 120.65000000000003
  endloop
endfacet
facet normal 1.0 0.0 0.0
  outer loop
    vertex 1753.1472924863997 -1945.8481095973966 467.78333333333325
    vertex 1753.1472924863997 -1793.4481095973965 120.65000000000003
    vertex 1753.1472924863997 -1793.4481095973965 467.78333333333325
  endloop
endfacet
facet normal 0.0 1.0 0.0
  outer loop
    vertex 1753.1472924863997 -1793.4481095973965 467.78333333333325
    vertex 1753.1472924863997 -1793.4481095973965 120.65000000000003
    vertex 1734.0972924863997 -1793.4481095973965 120.65000000000006
  endloop
endfacet
facet normal 0.0 -1.0 0.0
  outer loop
    vertex 1753.1472924863997 -1945.8481095973966 467.78333333333325
    vertex 1734.0972924863997 -1945.8481095973966 120.65000000000006
    vertex 1753.1472924863997 -1945.8481095973966 120.65000000000003
  endloop
endfacet
facet normal -1.1842378929335002e-15 -0.0 -1.0
  outer loop
    vertex 1753.1472924863997 -1793.4481095973965 120.65000000000003
    vertex 1734.0972924863997 -1945.8481095973966 120.65000000000006
    vertex 1734.0972924863997 -1793.4481095973965 120.65000000000006
  endloop
endfacet
facet normal -1.1842378929335002e-15 -0.0 -1.0
  outer loop
    vertex 1734.0972924863997 -1945.8481095973966 120.65000000000006
    vertex 1753.1472924863997 -1793.4481095973965 120.65000000000003
    vertex 1753.1472924863997 -1945.8481095973966 120.65000000000003
  endloop
endfacet
facet normal -0.998497592518697 0.0 0.05479559958944072
  outer loop
    vertex 1753.1472924863997 -1793.4481095973965 467.78333333333325
    vertex 1734.0972924863997 -1945.8481095973966 120.65000000000006
    vertex 1753.1472924863997 -1945.8481095973966 467.78333333333325
  endloop
endfacet
facet normal -0.998497592518697 0.0 0.05479559958944072
  outer loop
    vertex 1734.0972924863997 -1945.8481095973966 120.65000000000006
    vertex 1753.1472924863997 -1793.4481095973965 467.78333333333325
    vertex 1734.0972924863997 -1793.4481095973965 120.65000000000006
  endloop
endfacet
endsolid garage north wall
