solid garage north wall
facet normal 0.0 0.0 1.0
  outer loop
    vertex 228.6 0.0 1784.35
    vertex 57.15 19.049999999999997 1784.35
    vertex 57.15 0.0 1784.35
  endloop
endfacet
facet normal 0.0 0.0 1.0
  outer loop
    vertex 57.15 19.049999999999997 1784.35
    vertex 228.6 0.0 1784.35
    vertex 228.6 19.049999999999997 1784.35
  endloop
endfacet
facet normal 1.0 0.0 0.0
  outer loop
    vertex 228.6 19.049999999999997 120.65000000000006
    vertex 228.6 0.0 1784.35
    vertex 228.6 0.0 120.65000000000006
  endloop
endfacet
facet normal 1.0 0.0 0.0
  outer loop
    vertex 228.6 0.0 1784.35
    vertex 228.6 19.049999999999997 120.65000000000006
    vertex 228.6 19.049999999999997 1784.35
  endloop
endfacet
facet normal -1.0 0.0 0.0
  outer loop
    vertex 57.15 19.049999999999997 1784.35
    vertex 57.15 0.0 120.65000000000008
    vertex 57.15 0.0 1784.35
  endloop
endfacet
facet normal -1.0 0.0 0.0
  outer loop
    vertex 57.15 0.0 120.65000000000008
    vertex 57.15 19.049999999999997 1784.35
    vertex 57.15 19.049999999999997 120.65000000000008
  endloop
endfacet
facet normal -1.3158198810372225e-16 -0.0 -1.0
  outer loop
    vertex 228.6 19.049999999999997 120.65000000000006
    vertex 57.15 0.0 120.65000000000008
    vertex 57.15 19.049999999999997 120.65000000000008
  endloop
endfacet
facet normal -1.3158198810372225e-16 -0.0 -1.0
  outer loop
    vertex 57.15 0.0 120.65000000000008
    vertex 228.6 19.049999999999997 120.65000000000006
    vertex 228.6 0.0 120.65000000000006
  endloop
endfacet
facet normal -0.0 -1.0 -0.0
  outer loop
    vertex 228.6 0.0 1784.35
    vertex 57.15 0.0 120.65000000000008
    vertex 228.6 0.0 120.65000000000006
  endloop
endfacet
facet normal -0.0 -1.0 -0.0
  outer loop
    vertex 57.15 0.0 120.65000000000008
    vertex 228.6 0.0 1784.35
    vertex 57.15 0.0 1784.35
  endloop
endfacet
facet normal 0.0 1.0 0.0
  outer loop
    vertex 57.15 19.049999999999997 120.65000000000008
    vertex 228.6 19.049999999999997 1784.35
    vertex 228.6 19.049999999999997 120.65000000000006
  endloop
endfacet
facet normal 0.0 1.0 0.0
  outer loop
    vertex 228.6 19.049999999999997 1784.35
    vertex 57.15 19.049999999999997 120.65000000000008
    vertex 57.15 19.049999999999997 1784.35
  endloop
endfacet
facet normal 0.0 -1.2537319667286929e-17 1.0
  outer loop
    vertex 228.6 19.049999999999997 1784.35
    vertex 76.19999999999999 3390.8999999999996 1784.35
    vertex 76.19999999999999 19.049999999999997 1784.35
  endloop
endfacet
facet normal 0.0 -1.2537319667286929e-17 1.0
  outer loop
    vertex 76.19999999999999 3390.8999999999996 1784.35
    vertex 228.6 19.049999999999997 1784.35
    vertex 228.6 3390.8999999999996 1784.35
  endloop
endfacet
facet normal 1.0 0.0 0.0
  outer loop
    vertex 228.6 3371.85 8.739342504090779e-14
    vertex 228.6 19.049999999999997 1784.35
    vertex 228.6 19.049999999999997 4.511946372076636e-14
  endloop
endfacet
facet normal 1.0 0.0 0.0
  outer loop
    vertex 228.6 19.049999999999997 1784.35
    vertex 228.6 3371.85 8.739342504090779e-14
    vertex 228.60000000000431 3371.85 120.65000000000008
  endloop
endfacet
facet normal 1.0 0.0 0.0
  outer loop
    vertex 228.6 19.049999999999997 1784.35
    vertex 228.60000000000431 3371.85 120.65000000000008
    vertex 228.6 3390.8999999999996 1784.35
  endloop
endfacet
facet normal 1.0 0.0 0.0
  outer loop
    vertex 228.6 3390.8999999999996 1784.35
    vertex 228.60000000000431 3371.85 120.65000000000008
    vertex 228.60000000000431 3390.8999999999996 120.65000000000008
  endloop
endfacet
facet normal -1.0 0.0 0.0
  outer loop
    vertex 76.19999999999999 3390.8999999999996 1784.35
    vertex 76.19999999999999 19.049999999999997 4.511946372076636e-14
    vertex 76.19999999999999 19.049999999999997 1784.35
  endloop
endfacet
facet normal -1.0 0.0 0.0
  outer loop
    vertex 76.19999999999999 19.049999999999997 4.511946372076636e-14
    vertex 76.19999999999999 3390.8999999999996 1784.35
    vertex 76.19999999999999 3371.85 120.65000000000008
  endloop
endfacet
facet normal -1.0 0.0 0.0
  outer loop
    vertex 76.19999999999999 3371.85 120.65000000000008
    vertex 76.19999999999999 3390.8999999999996 1784.35
    vertex 76.19999999999999 3390.8999999999996 120.65000000000008
  endloop
endfacet
facet normal -1.0 0.0 0.0
  outer loop
    vertex 76.19999999999999 3371.85 8.739342504090779e-14
    vertex 76.19999999999999 19.049999999999997 4.511946372076636e-14
    vertex 76.19999999999999 3371.85 120.65000000000008
  endloop
endfacet
facet normal 2.666196553345127e-33 1.0 1.35084170296597e-17
  outer loop
    vertex 76.19999999999999 3390.8999999999996 1784.35
    vertex 228.60000000000431 3390.8999999999996 120.65000000000008
    vertex 76.19999999999999 3390.8999999999996 120.65000000000008
  endloop
endfacet
facet normal 2.666196553345127e-33 1.0 1.35084170296597e-17
  outer loop
    vertex 228.60000000000431 3390.8999999999996 120.65000000000008
    vertex 76.19999999999999 3390.8999999999996 1784.35
    vertex 228.6 3390.8999999999996 1784.35
  endloop
endfacet
facet normal -0.0 -1.0 -1.2537319667286929e-17
  outer loop
    vertex 228.6 19.049999999999997 1784.35
    vertex 76.19999999999999 19.049999999999997 4.511946372076636e-14
    vertex 228.6 19.049999999999997 4.511946372076636e-14
  endloop
endfacet
facet normal -0.0 -1.0 -1.2537319667286929e-17
  outer loop
    vertex 76.19999999999999 19.049999999999997 4.511946372076636e-14
    vertex 228.6 19.049999999999997 1784.35
    vertex 76.19999999999999 19.049999999999997 1784.35
  endloop
endfacet
facet normal 0.0 1.0 0.0
  outer loop
    vertex 76.19999999999999 3371.85 120.65000000000008
    vertex 228.6 3371.85 8.739342504090779e-14
    vertex 76.19999999999999 3371.85 8.739342504090779e-14
  endloop
endfacet
facet normal 0.0 1.0 0.0
  outer loop
    vertex 228.6 3371.85 8.739342504090779e-14
    vertex 76.19999999999999 3371.85 120.65000000000008
    vertex 228.60000000000431 3371.85 120.65000000000008
  endloop
endfacet
facet normal 0.0 1.2537319667286929e-17 -1.0
  outer loop
    vertex 228.6 3371.85 8.739342504090779e-14
    vertex 76.19999999999999 19.049999999999997 4.511946372076636e-14
    vertex 76.19999999999999 3371.85 8.739342504090779e-14
  endloop
endfacet
facet normal 0.0 1.2537319667286929e-17 -1.0
  outer loop
    vertex 76.19999999999999 19.049999999999997 4.511946372076636e-14
    vertex 228.6 3371.85 8.739342504090779e-14
    vertex 228.6 19.049999999999997 4.511946372076636e-14
  endloop
endfacet
facet normal 0.0 0.0 -1.0
  outer loop
    vertex 228.60000000000431 3390.8999999999996 120.65000000000008
    vertex 76.19999999999999 3371.85 120.65000000000008
    vertex 76.19999999999999 3390.8999999999996 120.65000000000008
  endloop
endfacet
facet normal 0.0 0.0 -1.0
  outer loop
    vertex 76.19999999999999 3371.85 120.65000000000008
    vertex 228.60000000000431 3390.8999999999996 120.65000000000008
    vertex 228.60000000000431 3371.85 120.65000000000008
  endloop
endfacet
facet normal 1.0 0.0 0.0
  outer loop
    vertex 76.19999999999999 120.64999999999999 120.65000000000003
    vertex 76.19999999999999 19.049999999999997 1784.35
    vertex 76.19999999999999 19.049999999999997 120.65000000000003
  endloop
endfacet
facet normal 1.0 0.0 0.0
  outer loop
    vertex 76.19999999999999 19.049999999999997 1784.35
    vertex 76.19999999999999 120.64999999999999 120.65000000000003
    vertex 76.19999999999999 120.64999999999999 1784.35
  endloop
endfacet
facet normal 0.0 -1.0 0.0
  outer loop
    vertex 76.19999999999999 19.049999999999997 1784.35
    vertex 57.15 19.049999999999997 120.65000000000003
    vertex 76.19999999999999 19.049999999999997 120.65000000000003
  endloop
endfacet
facet normal 0.0 -1.0 0.0
  outer loop
    vertex 57.15 19.049999999999997 120.65000000000003
    vertex 76.19999999999999 19.049999999999997 1784.35
    vertex 57.15 19.049999999999997 1784.35
  endloop
endfacet
facet normal -0.0 -0.0 -1.0
  outer loop
    vertex 76.19999999999999 120.64999999999999 120.65000000000003
    vertex 57.15 19.049999999999997 120.65000000000003
    vertex 57.15 120.64999999999999 120.65000000000003
  endloop
endfacet
facet normal -0.0 -0.0 -1.0
  outer loop
    vertex 57.15 19.049999999999997 120.65000000000003
    vertex 76.19999999999999 120.64999999999999 120.65000000000003
    vertex 76.19999999999999 19.049999999999997 120.65000000000003
  endloop
endfacet
facet normal 0.0 1.0 0.0
  outer loop
    vertex 57.15 120.64999999999999 1784.35
    vertex 76.19999999999999 120.64999999999999 120.65000000000003
    vertex 57.15 120.64999999999999 120.65000000000003
  endloop
endfacet
facet normal 0.0 1.0 0.0
  outer loop
    vertex 76.19999999999999 120.64999999999999 120.65000000000003
    vertex 57.15 120.64999999999999 1784.35
    vertex 76.19999999999999 120.64999999999999 1784.35
  endloop
endfacet
facet normal 0.0 0.0 1.0
  outer loop
    vertex 76.19999999999999 19.049999999999997 1784.35
    vertex 57.15 120.64999999999999 1784.35
    vertex 57.15 19.049999999999997 1784.35
  endloop
endfacet
facet normal 0.0 0.0 1.0
  outer loop
    vertex 57.15 120.64999999999999 1784.35
    vertex 76.19999999999999 19.049999999999997 1784.35
    vertex 76.19999999999999 120.64999999999999 1784.35
  endloop
endfacet
facet normal -1.0 0.0 0.0
  outer loop
    vertex 57.15 120.64999999999999 1784.35
    vertex 57.15 19.049999999999997 120.65000000000003
    vertex 57.15 19.049999999999997 1784.35
  endloop
endfacet
facet normal -1.0 0.0 0.0
  outer loop
    vertex 57.15 19.049999999999997 120.65000000000003
    vertex 57.15 120.64999999999999 1784.35
    vertex 57.15 120.64999999999999 120.65000000000003
  endloop
endfacet
facet normal 0.0 -1.0 0.0
  outer loop
    vertex 76.19999999999999 120.64999999999999 1162.0499999999997
    vertex 57.15 120.64999999999999 814.9166666666665
    vertex 76.19999999999999 120.64999999999999 814.9166666666665
  endloop
endfacet
facet normal 1.0 0.0 0.0
  outer loop
    vertex 76.19999999999999 3289.2999999999997 814.9166666666665
    vertex 76.19999999999999 120.64999999999999 1162.0499999999997
    vertex 76.19999999999999 120.64999999999999 814.9166666666665
  endloop
endfacet
facet normal 1.0 0.0 0.0
  outer loop
    vertex 76.19999999999999 120.64999999999999 1162.0499999999997
    vertex 76.19999999999999 3289.2999999999997 814.9166666666665
    vertex 76.19999999999999 3289.2999999999997 1162.0499999999997
  endloop
endfacet
facet normal 0.0 0.0 -1.0
  outer loop
    vertex 76.19999999999999 3289.2999999999997 814.9166666666665
    vertex 57.15 120.64999999999999 814.9166666666665
    vertex 57.15 3289.2999999999997 814.9166666666665
  endloop
endfacet
facet normal 0.0 0.0 -1.0
  outer loop
    vertex 57.15 120.64999999999999 814.9166666666665
    vertex 76.19999999999999 3289.2999999999997 814.9166666666665
    vertex 76.19999999999999 120.64999999999999 814.9166666666665
  endloop
endfacet
facet normal -0.9984975925186971 0.0 0.054795599589440705
  outer loop
    vertex 76.19999999999999 3289.2999999999997 1162.0499999999997
    vertex 57.15 120.64999999999999 814.9166666666665
    vertex 76.19999999999999 120.64999999999999 1162.0499999999997
  endloop
endfacet
facet normal -0.9984975925186971 0.0 0.054795599589440705
  outer loop
    vertex 57.15 120.64999999999999 814.9166666666665
    vertex 76.19999999999999 3289.2999999999997 1162.0499999999997
    vertex 57.15 3289.2999999999997 814.9166666666665
  endloop
endfacet
facet normal 0.0 1.0 0.0
  outer loop
    vertex 76.19999999999999 3289.2999999999997 1162.0499999999997
    vertex 76.19999999999999 3289.2999999999997 814.9166666666665
    vertex 57.15 3289.2999999999997 814.9166666666665
  endloop
endfacet
facet normal 0.0 -1.0 0.0
  outer loop
    vertex 76.19999999999999 120.64999999999999 814.9166666666665
    vertex 57.15 120.64999999999999 467.78333333333325
    vertex 76.19999999999999 120.64999999999999 467.78333333333325
  endloop
endfacet
facet normal 1.0 0.0 0.0
  outer loop
    vertex 76.19999999999999 3289.2999999999997 467.78333333333325
    vertex 76.19999999999999 120.64999999999999 814.9166666666665
    vertex 76.19999999999999 120.64999999999999 467.78333333333325
  endloop
endfacet
facet normal 1.0 0.0 0.0
  outer loop
    vertex 76.19999999999999 120.64999999999999 814.9166666666665
    vertex 76.19999999999999 3289.2999999999997 467.78333333333325
    vertex 76.19999999999999 3289.2999999999997 814.9166666666665
  endloop
endfacet
facet normal 0.0 0.0 -1.0
  outer loop
    vertex 76.19999999999999 3289.2999999999997 467.78333333333325
    vertex 57.15 120.64999999999999 467.78333333333325
    vertex 57.15 3289.2999999999997 467.78333333333325
  endloop
endfacet
facet normal 0.0 0.0 -1.0
  outer loop
    vertex 57.15 120.64999999999999 467.78333333333325
    vertex 76.19999999999999 3289.2999999999997 467.78333333333325
    vertex 76.19999999999999 120.64999999999999 467.78333333333325
  endloop
endfacet
facet normal -0.9984975925186971 0.0 0.054795599589440705
  outer loop
    vertex 76.19999999999999 3289.2999999999997 814.9166666666665
    vertex 57.15 120.64999999999999 467.78333333333325
    vertex 76.19999999999999 120.64999999999999 814.9166666666665
  endloop
endfacet
facet normal -0.9984975925186971 0.0 0.054795599589440705
  outer loop
    vertex 57.15 120.64999999999999 467.78333333333325
    vertex 76.19999999999999 3289.2999999999997 814.9166666666665
    vertex 57.15 3289.2999999999997 467.78333333333325
  endloop
endfacet
facet normal 0.0 1.0 0.0
  outer loop
    vertex 76.19999999999999 3289.2999999999997 814.9166666666665
    vertex 76.19999999999999 3289.2999999999997 467.78333333333325
    vertex 57.15 3289.2999999999997 467.78333333333325
  endloop
endfacet
facet normal -0.0 -0.0 -1.0
  outer loop
    vertex 76.19999999999999 3289.2999999999997 1765.3
    vertex 57.15 120.64999999999999 1765.3
    vertex 57.15 3289.2999999999997 1765.3
  endloop
endfacet
facet normal -0.0 -0.0 -1.0
  outer loop
    vertex 57.15 120.64999999999999 1765.3
    vertex 76.19999999999999 3289.2999999999997 1765.3
    vertex 76.19999999999999 120.64999999999999 1765.3
  endloop
endfacet
facet normal 0.0 1.0 0.0
  outer loop
    vertex 57.15 3289.2999999999997 1784.35
    vertex 76.19999999999999 3289.2999999999997 1765.3
    vertex 57.15 3289.2999999999997 1765.3
  endloop
endfacet
facet normal 0.0 1.0 0.0
  outer loop
    vertex 76.19999999999999 3289.2999999999997 1765.3
    vertex 57.15 3289.2999999999997 1784.35
    vertex 76.19999999999999 3289.2999999999997 1784.35
  endloop
endfacet
facet normal -1.0 0.0 0.0
  outer loop
    vertex 57.15 3289.2999999999997 1784.35
    vertex 57.15 120.64999999999999 1765.3
    vertex 57.15 120.64999999999999 1784.35
  endloop
endfacet
facet normal -1.0 0.0 0.0
  outer loop
    vertex 57.15 120.64999999999999 1765.3
    vertex 57.15 3289.2999999999997 1784.35
    vertex 57.15 3289.2999999999997 1765.3
  endloop
endfacet
facet normal 0.0 -1.0 0.0
  outer loop
    vertex 76.19999999999999 120.64999999999999 1784.35
    vertex 57.15 120.64999999999999 1765.3
    vertex 76.19999999999999 120.64999999999999 1765.3
  endloop
endfacet
facet normal 0.0 -1.0 0.0
  outer loop
    vertex 57.15 120.64999999999999 1765.3
    vertex 76.19999999999999 120.64999999999999 1784.35
    vertex 57.15 120.64999999999999 1784.35
  endloop
endfacet
facet normal 0.0 0.0 1.0
  outer loop
    vertex 76.19999999999999 120.64999999999999 1784.35
    vertex 57.15 3289.2999999999997 1784.35
    vertex 57.15 120.64999999999999 1784.35
  endloop
endfacet
facet normal 0.0 0.0 1.0
  outer loop
    vertex 57.15 3289.2999999999997 1784.35
    vertex 76.19999999999999 120.64999999999999 1784.35
    vertex 76.19999999999999 3289.2999999999997 1784.35
  endloop
endfacet
facet normal 1.0 0.0 0.0
  outer loop
    vertex 76.19999999999999 3289.2999999999997 1765.3
    vertex 76.19999999999999 120.64999999999999 1784.35
    vertex 76.19999999999999 120.64999999999999 1765.3
  endloop
endfacet
facet normal 1.0 0.0 0.0
  outer loop
    vertex 76.19999999999999 120.64999999999999 1784.35
    vertex 76.19999999999999 3289.2999999999997 1765.3
    vertex 76.19999999999999 3289.2999999999997 1784.35
  endloop
endfacet
facet normal 0.0 -1.0 0.0
  outer loop
    vertex 76.19999999999999 120.64999999999999 467.78333333333336
    vertex 57.15 120.64999999999999 120.65000000000008
    vertex 76.19999999999999 120.64999999999999 120.65000000000008
  endloop
endfacet
facet normal 1.0 0.0 0.0
  outer loop
    vertex 76.19999999999999 3289.2999999999997 120.65000000000008
    vertex 76.19999999999999 120.64999999999999 467.78333333333336
    vertex 76.19999999999999 120.64999999999999 120.65000000000008
  endloop
endfacet
facet normal 1.0 0.0 0.0
  outer loop
    vertex 76.19999999999999 120.64999999999999 467.78333333333336
    vertex 76.19999999999999 3289.2999999999997 120.65000000000008
    vertex 76.19999999999999 3289.2999999999997 467.78333333333336
  endloop
endfacet
facet normal 0.0 0.0 -1.0
  outer loop
    vertex 76.19999999999999 3289.2999999999997 120.65000000000008
    vertex 57.15 120.64999999999999 120.65000000000008
    vertex 57.15 3289.2999999999997 120.65000000000008
  endloop
endfacet
facet normal 0.0 0.0 -1.0
  outer loop
    vertex 57.15 120.64999999999999 120.65000000000008
    vertex 76.19999999999999 3289.2999999999997 120.65000000000008
    vertex 76.19999999999999 120.64999999999999 120.65000000000008
  endloop
endfacet
facet normal -0.9984975925186971 0.0 0.054795599589440705
  outer loop
    vertex 76.19999999999999 3289.2999999999997 467.78333333333336
    vertex 57.15 120.64999999999999 120.65000000000008
    vertex 76.19999999999999 120.64999999999999 467.78333333333336
  endloop
endfacet
facet normal -0.9984975925186971 0.0 0.054795599589440705
  outer loop
    vertex 57.15 120.64999999999999 120.65000000000008
    vertex 76.19999999999999 3289.2999999999997 467.78333333333336
    vertex 57.15 3289.2999999999997 120.65000000000008
  endloop
endfacet
facet normal 0.0 1.0 0.0
  outer loop
    vertex 76.19999999999999 3289.2999999999997 467.78333333333336
    vertex 76.19999999999999 3289.2999999999997 120.65000000000008
    vertex 57.15 3289.2999999999997 120.65000000000008
  endloop
endfacet
facet normal 0.0 -1.0 0.0
  outer loop
    vertex 76.19999999999999 120.64999999999999 1765.3
    vertex 57.15 120.64999999999999 1509.183333333333
    vertex 76.19999999999999 120.64999999999999 1509.183333333333
  endloop
endfacet
facet normal 0.0 -1.0 0.0
  outer loop
    vertex 57.15 120.64999999999999 1509.183333333333
    vertex 76.19999999999999 120.64999999999999 1765.3
    vertex 71.20518292682948 120.64999999999999 1765.3
  endloop
endfacet
facet normal 0.0 0.0 1.0
  outer loop
    vertex 76.19999999999999 120.64999999999999 1765.3
    vertex 71.20518292682948 3289.2999999999997 1765.3
    vertex 71.20518292682948 120.64999999999999 1765.3
  endloop
endfacet
facet normal 0.0 0.0 1.0
  outer loop
    vertex 71.20518292682948 3289.2999999999997 1765.3
    vertex 76.19999999999999 120.64999999999999 1765.3
    vertex 76.19999999999999 3289.2999999999997 1765.3
  endloop
endfacet
facet normal 0.0 1.0 0.0
  outer loop
    vertex 71.20518292682948 3289.2999999999997 1765.3
    vertex 76.19999999999999 3289.2999999999997 1509.183333333333
    vertex 57.15 3289.2999999999997 1509.183333333333
  endloop
endfacet
facet normal 0.0 1.0 0.0
  outer loop
    vertex 76.19999999999999 3289.2999999999997 1509.183333333333
    vertex 71.20518292682948 3289.2999999999997 1765.3
    vertex 76.19999999999999 3289.2999999999997 1765.3
  endloop
endfacet
facet normal -0.9984975925186969 0.0 0.054795599589441454
  outer loop
    vertex 71.20518292682948 3289.2999999999997 1765.3
    vertex 57.15 120.64999999999999 1509.183333333333
    vertex 71.20518292682948 120.64999999999999 1765.3
  endloop
endfacet
facet normal -0.9984975925186969 0.0 0.054795599589441454
  outer loop
    vertex 57.15 120.64999999999999 1509.183333333333
    vertex 71.20518292682948 3289.2999999999997 1765.3
    vertex 57.15 3289.2999999999997 1509.183333333333
  endloop
endfacet
facet normal 0.0 0.0 -1.0
  outer loop
    vertex 76.19999999999999 3289.2999999999997 1509.183333333333
    vertex 57.15 120.64999999999999 1509.183333333333
    vertex 57.15 3289.2999999999997 1509.183333333333
  endloop
endfacet
facet normal 0.0 0.0 -1.0
  outer loop
    vertex 57.15 120.64999999999999 1509.183333333333
    vertex 76.19999999999999 3289.2999999999997 1509.183333333333
    vertex 76.19999999999999 120.64999999999999 1509.183333333333
  endloop
endfacet
facet normal 1.0 0.0 0.0
  outer loop
    vertex 76.19999999999999 3289.2999999999997 1509.183333333333
    vertex 76.19999999999999 120.64999999999999 1765.3
    vertex 76.19999999999999 120.64999999999999 1509.183333333333
  endloop
endfacet
facet normal 1.0 0.0 0.0
  outer loop
    vertex 76.19999999999999 120.64999999999999 1765.3
    vertex 76.19999999999999 3289.2999999999997 1509.183333333333
    vertex 76.19999999999999 3289.2999999999997 1765.3
  endloop
endfacet
facet normal 0.0 -1.0 0.0
  outer loop
    vertex 76.19999999999999 120.64999999999999 1509.183333333333
    vertex 57.15 120.64999999999999 1162.0499999999997
    vertex 76.19999999999999 120.64999999999999 1162.0499999999997
  endloop
endfacet
facet normal 1.0 0.0 0.0
  outer loop
    vertex 76.19999999999999 3289.2999999999997 1162.0499999999997
    vertex 76.19999999999999 120.64999999999999 1509.183333333333
    vertex 76.19999999999999 120.64999999999999 1162.0499999999997
  endloop
endfacet
facet normal 1.0 0.0 0.0
  outer loop
    vertex 76.19999999999999 120.64999999999999 1509.183333333333
    vertex 76.19999999999999 3289.2999999999997 1162.0499999999997
    vertex 76.19999999999999 3289.2999999999997 1509.183333333333
  endloop
endfacet
facet normal 0.0 0.0 -1.0
  outer loop
    vertex 76.19999999999999 3289.2999999999997 1162.0499999999997
    vertex 57.15 120.64999999999999 1162.0499999999997
    vertex 57.15 3289.2999999999997 1162.0499999999997
  endloop
endfacet
facet normal 0.0 0.0 -1.0
  outer loop
    vertex 57.15 120.64999999999999 1162.0499999999997
    vertex 76.19999999999999 3289.2999999999997 1162.0499999999997
    vertex 76.19999999999999 120.64999999999999 1162.0499999999997
  endloop
endfacet
facet normal -0.9984975925186971 0.0 0.054795599589440705
  outer loop
    vertex 76.19999999999999 3289.2999999999997 1509.183333333333
    vertex 57.15 120.64999999999999 1162.0499999999997
    vertex 76.19999999999999 120.64999999999999 1509.183333333333
  endloop
endfacet
facet normal -0.9984975925186971 0.0 0.054795599589440705
  outer loop
    vertex 57.15 120.64999999999999 1162.0499999999997
    vertex 76.19999999999999 3289.2999999999997 1509.183333333333
    vertex 57.15 3289.2999999999997 1162.0499999999997
  endloop
endfacet
facet normal 0.0 1.0 0.0
  outer loop
    vertex 76.19999999999999 3289.2999999999997 1509.183333333333
    vertex 76.19999999999999 3289.2999999999997 1162.0499999999997
    vertex 57.15 3289.2999999999997 1162.0499999999997
  endloop
endfacet
facet normal 1.0 0.0 0.0
  outer loop
    vertex 76.19999999999999 3390.8999999999996 120.65000000000008
    vertex 76.19999999999999 3289.2999999999997 1784.35
    vertex 76.19999999999999 3289.2999999999997 120.65000000000008
  endloop
endfacet
facet normal 1.0 0.0 0.0
  outer loop
    vertex 76.19999999999999 3289.2999999999997 1784.35
    vertex 76.19999999999999 3390.8999999999996 120.65000000000008
    vertex 76.19999999999999 3390.8999999999996 1784.35
  endloop
endfacet
facet normal 0.0 -1.0 0.0
  outer loop
    vertex 76.19999999999999 3289.2999999999997 1784.35
    vertex 57.15 3289.2999999999997 120.65000000000008
    vertex 76.19999999999999 3289.2999999999997 120.65000000000008
  endloop
endfacet
facet normal 0.0 -1.0 0.0
  outer loop
    vertex 57.15 3289.2999999999997 120.65000000000008
    vertex 76.19999999999999 3289.2999999999997 1784.35
    vertex 57.15 3289.2999999999997 1784.35
  endloop
endfacet
facet normal -0.0 -0.0 -1.0
  outer loop
    vertex 76.19999999999999 3390.8999999999996 120.65000000000008
    vertex 57.15 3289.2999999999997 120.65000000000008
    vertex 57.15 3390.8999999999996 120.65000000000008
  endloop
endfacet
facet normal -0.0 -0.0 -1.0
  outer loop
    vertex 57.15 3289.2999999999997 120.65000000000008
    vertex 76.19999999999999 3390.8999999999996 120.65000000000008
    vertex 76.19999999999999 3289.2999999999997 120.65000000000008
  endloop
endfacet
facet normal 0.0 1.0 0.0
  outer loop
    vertex 57.15 3390.8999999999996 1784.35
    vertex 76.19999999999999 3390.8999999999996 120.65000000000008
    vertex 57.15 3390.8999999999996 120.65000000000008
  endloop
endfacet
facet normal 0.0 1.0 0.0
  outer loop
    vertex 76.19999999999999 3390.8999999999996 120.65000000000008
    vertex 57.15 3390.8999999999996 1784.35
    vertex 76.19999999999999 3390.8999999999996 1784.35
  endloop
endfacet
facet normal 0.0 0.0 1.0
  outer loop
    vertex 76.19999999999999 3289.2999999999997 1784.35
    vertex 57.15 3390.8999999999996 1784.35
    vertex 57.15 3289.2999999999997 1784.35
  endloop
endfacet
facet normal 0.0 0.0 1.0
  outer loop
    vertex 57.15 3390.8999999999996 1784.35
    vertex 76.19999999999999 3289.2999999999997 1784.35
    vertex 76.19999999999999 3390.8999999999996 1784.35
  endloop
endfacet
facet normal -1.0 0.0 0.0
  outer loop
    vertex 57.15 3390.8999999999996 1784.35
    vertex 57.15 3289.2999999999997 120.65000000000008
    vertex 57.15 3289.2999999999997 1784.35
  endloop
endfacet
facet normal -1.0 0.0 0.0
  outer loop
    vertex 57.15 3289.2999999999997 120.65000000000008
    vertex 57.15 3390.8999999999996 1784.35
    vertex 57.15 3390.8999999999996 120.65000000000008
  endloop
endfacet
endsolid garage north wall
