solid garage north wall
facet normal 0.0 -1.0 0.0
  outer loop
    vertex 1301.75 19.049999999999997 2658.9560286360206
    vertex 228.6 19.049999999999997 4.511946372076636e-14
    vertex 1301.75 19.049999999999997 0.0
  endloop
endfacet
facet normal 0.0 -1.0 0.0
  outer loop
    vertex 228.6 19.049999999999997 4.511946372076636e-14
    vertex 1301.75 19.049999999999997 2658.9560286360206
    vertex 228.6 19.049999999999997 1784.35
  endloop
endfacet
facet normal 0.0 -1.0 0.0
  outer loop
    vertex 228.6 19.049999999999997 1784.35
    vertex 1301.75 19.049999999999997 2658.9560286360206
    vertex 0.0 19.049999999999997 1784.35
  endloop
endfacet
facet normal 0.0 -1.0 0.0
  outer loop
    vertex 0.0 19.049999999999997 1784.35
    vertex 1301.75 19.049999999999997 2658.9560286360206
    vertex 0.0 19.049999999999997 1885.9499999999998
  endloop
endfacet
facet normal 0.0 1.0 0.0
  outer loop
    vertex 0.0 171.45 1885.9499999999998
    vertex 228.6 171.45 1784.35
    vertex 0.0 171.45 1784.35
  endloop
endfacet
facet normal 0.0 1.0 0.0
  outer loop
    vertex 228.6 171.45 4.511946372076636e-14
    vertex 1301.75 171.45 2658.9560286360206
    vertex 1301.75 171.45 0.0
  endloop
endfacet
facet normal 0.0 1.0 0.0
  outer loop
    vertex 1301.75 171.45 2658.9560286360206
    vertex 228.6 171.45 4.511946372076636e-14
    vertex 228.6 171.45 1784.35
  endloop
endfacet
facet normal 0.0 1.0 0.0
  outer loop
    vertex 1301.75 171.45 2658.9560286360206
    vertex 228.6 171.45 1784.35
    vertex 0.0 171.45 1885.9499999999998
  endloop
endfacet
facet normal -4.204394886154439e-17 -0.0 -1.0
  outer loop
    vertex 1301.75 171.45 0.0
    vertex 228.6 19.049999999999997 4.511946372076636e-14
    vertex 228.6 171.45 4.511946372076636e-14
  endloop
endfacet
facet normal -4.204394886154439e-17 -0.0 -1.0
  outer loop
    vertex 228.6 19.049999999999997 4.511946372076636e-14
    vertex 1301.75 171.45 0.0
    vertex 1301.75 19.049999999999997 0.0
  endloop
endfacet
facet normal 1.0 0.0 0.0
  outer loop
    vertex 1301.75 171.45 0.0
    vertex 1301.75 19.049999999999997 2658.9560286360206
    vertex 1301.75 19.049999999999997 0.0
  endloop
endfacet
facet normal 1.0 0.0 0.0
  outer loop
    vertex 1301.75 19.049999999999997 2658.9560286360206
    vertex 1301.75 171.45 0.0
    vertex 1301.75 171.45 2658.9560286360206
  endloop
endfacet
facet normal -1.0 -0.0 -0.0
  outer loop
    vertex 228.6 171.45 1784.35
    vertex 228.6 19.049999999999997 4.511946372076636e-14
    vertex 228.6 19.049999999999997 1784.35
  endloop
endfacet
facet normal -1.0 -0.0 -0.0
  outer loop
    vertex 228.6 19.049999999999997 4.511946372076636e-14
    vertex 228.6 171.45 1784.35
    vertex 228.6 171.45 4.511946372076636e-14
  endloop
endfacet
facet normal -1.0 -0.0 -0.0
  outer loop
    vertex 0.0 171.45 1885.9499999999998
    vertex 0.0 19.049999999999997 1784.35
    vertex 0.0 19.049999999999997 1885.9499999999998
  endloop
endfacet
facet normal -1.0 -0.0 -0.0
  outer loop
    vertex 0.0 19.049999999999997 1784.35
    vertex 0.0 171.45 1885.9499999999998
    vertex 0.0 171.45 1784.35
  endloop
endfacet
facet normal 0.0 0.0 -1.0
  outer loop
    vertex 228.6 171.45 1784.35
    vertex 0.0 19.049999999999997 1784.35
    vertex 0.0 171.45 1784.35
  endloop
endfacet
facet normal 0.0 0.0 -1.0
  outer loop
    vertex 0.0 19.049999999999997 1784.35
    vertex 228.6 171.45 1784.35
    vertex 228.6 19.049999999999997 1784.35
  endloop
endfacet
facet normal -0.5105836654345688 0.0 0.8598280761823263
  outer loop
    vertex 1301.75 19.049999999999997 2658.9560286360206
    vertex 0.0 171.45 1885.9499999999998
    vertex 0.0 19.049999999999997 1885.9499999999998
  endloop
endfacet
facet normal -0.5105836654345688 0.0 0.8598280761823263
  outer loop
    vertex 0.0 171.45 1885.9499999999998
    vertex 1301.75 19.049999999999997 2658.9560286360206
    vertex 1301.75 171.45 2658.9560286360206
  endloop
endfacet
facet normal -1.0 0.0 0.0
  outer loop
    vertex 228.6 19.049999999999997 120.65000000000006
    vertex 228.6 0.0 120.65000000000006
    vertex 228.6 19.049999999999997 467.78333333333336
  endloop
endfacet
facet normal 0.0 1.0 0.0
  outer loop
    vertex 228.6 19.049999999999997 467.78333333333336
    vertex 1282.6999999999998 19.049999999999997 120.65000000000006
    vertex 228.6 19.049999999999997 120.65000000000006
  endloop
endfacet
facet normal 0.0 1.0 0.0
  outer loop
    vertex 1282.6999999999998 19.049999999999997 120.65000000000006
    vertex 228.6 19.049999999999997 467.78333333333336
    vertex 1282.6999999999998 19.049999999999997 467.78333333333336
  endloop
endfacet
facet normal 0.0 0.0 -1.0
  outer loop
    vertex 1282.6999999999998 19.049999999999997 120.65000000000006
    vertex 228.6 0.0 120.65000000000006
    vertex 228.6 19.049999999999997 120.65000000000006
  endloop
endfacet
facet normal 0.0 0.0 -1.0
  outer loop
    vertex 228.6 0.0 120.65000000000006
    vertex 1282.6999999999998 19.049999999999997 120.65000000000006
    vertex 1282.6999999999998 0.0 120.65000000000006
  endloop
endfacet
facet normal 0.0 -0.9984975925186971 0.054795599589440705
  outer loop
    vertex 1282.6999999999998 19.049999999999997 467.78333333333336
    vertex 228.6 0.0 120.65000000000006
    vertex 1282.6999999999998 0.0 120.65000000000006
  endloop
endfacet
facet normal 0.0 -0.9984975925186971 0.054795599589440705
  outer loop
    vertex 228.6 0.0 120.65000000000006
    vertex 1282.6999999999998 19.049999999999997 467.78333333333336
    vertex 228.6 19.049999999999997 467.78333333333336
  endloop
endfacet
facet normal 1.0 0.0 0.0
  outer loop
    vertex 1282.6999999999998 19.049999999999997 467.78333333333336
    vertex 1282.6999999999998 0.0 120.65000000000006
    vertex 1282.6999999999998 19.049999999999997 120.65000000000006
  endloop
endfacet
facet normal -1.0 0.0 0.0
  outer loop
    vertex 228.6 19.049999999999997 1162.0499999999997
    vertex 228.6 0.0 1162.0499999999997
    vertex 228.6 19.049999999999997 1509.183333333333
  endloop
endfacet
facet normal 0.0 1.0 0.0
  outer loop
    vertex 228.6 19.049999999999997 1509.183333333333
    vertex 1282.6999999999998 19.049999999999997 1162.0499999999997
    vertex 228.6 19.049999999999997 1162.0499999999997
  endloop
endfacet
facet normal 0.0 1.0 0.0
  outer loop
    vertex 1282.6999999999998 19.049999999999997 1162.0499999999997
    vertex 228.6 19.049999999999997 1509.183333333333
    vertex 1282.6999999999998 19.049999999999997 1509.183333333333
  endloop
endfacet
facet normal 0.0 0.0 -1.0
  outer loop
    vertex 1282.6999999999998 19.049999999999997 1162.0499999999997
    vertex 228.6 0.0 1162.0499999999997
    vertex 228.6 19.049999999999997 1162.0499999999997
  endloop
endfacet
facet normal 0.0 0.0 -1.0
  outer loop
    vertex 228.6 0.0 1162.0499999999997
    vertex 1282.6999999999998 19.049999999999997 1162.0499999999997
    vertex 1282.6999999999998 0.0 1162.0499999999997
  endloop
endfacet
facet normal 0.0 -0.9984975925186971 0.054795599589440705
  outer loop
    vertex 1282.6999999999998 19.049999999999997 1509.183333333333
    vertex 228.6 0.0 1162.0499999999997
    vertex 1282.6999999999998 0.0 1162.0499999999997
  endloop
endfacet
facet normal 0.0 -0.9984975925186971 0.054795599589440705
  outer loop
    vertex 228.6 0.0 1162.0499999999997
    vertex 1282.6999999999998 19.049999999999997 1509.183333333333
    vertex 228.6 19.049999999999997 1509.183333333333
  endloop
endfacet
facet normal 1.0 0.0 0.0
  outer loop
    vertex 1282.6999999999998 19.049999999999997 1509.183333333333
    vertex 1282.6999999999998 0.0 1162.0499999999997
    vertex 1282.6999999999998 19.049999999999997 1162.0499999999997
  endloop
endfacet
facet normal -0.5105836654345663 0.0 0.8598280761823278
  outer loop
    vertex 1301.75 0.0 2658.9560286360206
    vertex 1282.6999999999998 19.049999999999997 2647.6437452901278
    vertex 1282.6999999999998 0.0 2647.6437452901278
  endloop
endfacet
facet normal -0.5105836654345663 0.0 0.8598280761823278
  outer loop
    vertex 1282.6999999999998 19.049999999999997 2647.6437452901278
    vertex 1301.75 0.0 2658.9560286360206
    vertex 1301.75 19.049999999999997 2658.9560286360206
  endloop
endfacet
facet normal 1.0 0.0 0.0
  outer loop
    vertex 1301.75 19.049999999999997 120.65000000000003
    vertex 1301.75 0.0 2658.9560286360206
    vertex 1301.75 0.0 120.65000000000003
  endloop
endfacet
facet normal 1.0 0.0 0.0
  outer loop
    vertex 1301.75 0.0 2658.9560286360206
    vertex 1301.75 19.049999999999997 120.65000000000003
    vertex 1301.75 19.049999999999997 2658.9560286360206
  endloop
endfacet
facet normal -1.0 0.0 0.0
  outer loop
    vertex 1282.6999999999998 19.049999999999997 2647.6437452901278
    vertex 1282.6999999999998 0.0 120.65000000000006
    vertex 1282.6999999999998 0.0 2647.6437452901278
  endloop
endfacet
facet normal -1.0 0.0 0.0
  outer loop
    vertex 1282.6999999999998 0.0 120.65000000000006
    vertex 1282.6999999999998 19.049999999999997 2647.6437452901278
    vertex 1282.6999999999998 19.049999999999997 120.65000000000006
  endloop
endfacet
facet normal -1.1842378929335002e-15 -0.0 -1.0
  outer loop
    vertex 1301.75 19.049999999999997 120.65000000000003
    vertex 1282.6999999999998 0.0 120.65000000000006
    vertex 1282.6999999999998 19.049999999999997 120.65000000000006
  endloop
endfacet
facet normal -1.1842378929335002e-15 -0.0 -1.0
  outer loop
    vertex 1282.6999999999998 0.0 120.65000000000006
    vertex 1301.75 19.049999999999997 120.65000000000003
    vertex 1301.75 0.0 120.65000000000003
  endloop
endfacet
facet normal -0.0 -1.0 -0.0
  outer loop
    vertex 1301.75 0.0 2658.9560286360206
    vertex 1282.6999999999998 0.0 120.65000000000006
    vertex 1301.75 0.0 120.65000000000003
  endloop
endfacet
facet normal -0.0 -1.0 -0.0
  outer loop
    vertex 1282.6999999999998 0.0 120.65000000000006
    vertex 1301.75 0.0 2658.9560286360206
    vertex 1282.6999999999998 0.0 2647.6437452901278
  endloop
endfacet
facet normal 0.0 1.0 0.0
  outer loop
    vertex 1282.6999999999998 19.049999999999997 120.65000000000006
    vertex 1301.75 19.049999999999997 2658.9560286360206
    vertex 1301.75 19.049999999999997 120.65000000000003
  endloop
endfacet
facet normal 0.0 1.0 0.0
  outer loop
    vertex 1301.75 19.049999999999997 2658.9560286360206
    vertex 1282.6999999999998 19.049999999999997 120.65000000000006
    vertex 1282.6999999999998 19.049999999999997 2647.6437452901278
  endloop
endfacet
facet normal -1.0 0.0 0.0
  outer loop
    vertex 228.6 19.049999999999997 467.78333333333336
    vertex 228.6 0.0 467.78333333333336
    vertex 228.6 19.049999999999997 814.9166666666665
  endloop
endfacet
facet normal 0.0 1.0 0.0
  outer loop
    vertex 228.6 19.049999999999997 814.9166666666665
    vertex 1282.6999999999998 19.049999999999997 467.78333333333336
    vertex 228.6 19.049999999999997 467.78333333333336
  endloop
endfacet
facet normal 0.0 1.0 0.0
  outer loop
    vertex 1282.6999999999998 19.049999999999997 467.78333333333336
    vertex 228.6 19.049999999999997 814.9166666666665
    vertex 1282.6999999999998 19.049999999999997 814.9166666666665
  endloop
endfacet
facet normal 0.0 0.0 -1.0
  outer loop
    vertex 1282.6999999999998 19.049999999999997 467.78333333333336
    vertex 228.6 0.0 467.78333333333336
    vertex 228.6 19.049999999999997 467.78333333333336
  endloop
endfacet
facet normal 0.0 0.0 -1.0
  outer loop
    vertex 228.6 0.0 467.78333333333336
    vertex 1282.6999999999998 19.049999999999997 467.78333333333336
    vertex 1282.6999999999998 0.0 467.78333333333336
  endloop
endfacet
facet normal 0.0 -0.9984975925186971 0.054795599589440705
  outer loop
    vertex 1282.6999999999998 19.049999999999997 814.9166666666665
    vertex 228.6 0.0 467.78333333333336
    vertex 1282.6999999999998 0.0 467.78333333333336
  endloop
endfacet
facet normal 0.0 -0.9984975925186971 0.054795599589440705
  outer loop
    vertex 228.6 0.0 467.78333333333336
    vertex 1282.6999999999998 19.049999999999997 814.9166666666665
    vertex 228.6 19.049999999999997 814.9166666666665
  endloop
endfacet
facet normal 1.0 0.0 0.0
  outer loop
    vertex 1282.6999999999998 19.049999999999997 814.9166666666665
    vertex 1282.6999999999998 0.0 467.78333333333336
    vertex 1282.6999999999998 19.049999999999997 467.78333333333336
  endloop
endfacet
facet normal -1.0 0.0 0.0
  outer loop
    vertex 228.6 2.5912084629670744 1903.5342431029621
    vertex 228.6 19.049999999999997 1856.3166666666668
    vertex 228.6 0.0 1856.3166666666668
  endloop
endfacet
facet normal -1.0 0.0 0.0
  outer loop
    vertex 228.6 19.049999999999997 1856.3166666666668
    vertex 228.6 2.5912084629670744 1903.5342431029621
    vertex 228.6 19.049999999999997 1903.5342431029621
  endloop
endfacet
facet normal 0.0 0.0 -1.0
  outer loop
    vertex 1282.6999999999998 19.049999999999997 1856.3166666666668
    vertex 228.6 0.0 1856.3166666666668
    vertex 228.6 19.049999999999997 1856.3166666666668
  endloop
endfacet
facet normal 0.0 0.0 -1.0
  outer loop
    vertex 228.6 0.0 1856.3166666666668
    vertex 1282.6999999999998 19.049999999999997 1856.3166666666668
    vertex 1282.6999999999998 0.0 1856.3166666666668
  endloop
endfacet
facet normal 1.0 0.0 0.0
  outer loop
    vertex 1282.6999999999998 19.049999999999997 2203.45
    vertex 1282.6999999999998 0.0 1856.3166666666668
    vertex 1282.6999999999998 19.049999999999997 1856.3166666666668
  endloop
endfacet
facet normal 1.5634367974715378e-16 -0.9984975925186971 0.05479559958944082
  outer loop
    vertex 1282.6999999999998 19.049999999999997 2203.45
    vertex 228.6 0.0 1856.3166666666668
    vertex 1282.6999999999998 0.0 1856.3166666666668
  endloop
endfacet
facet normal 1.5634367974715378e-16 -0.9984975925186971 0.05479559958944082
  outer loop
    vertex 228.6 0.0 1856.3166666666668
    vertex 1282.6999999999998 19.049999999999997 2203.45
    vertex 228.6 2.5912084629670744 1903.5342431029621
  endloop
endfacet
facet normal 1.5634367974715378e-16 -0.9984975925186971 0.05479559958944082
  outer loop
    vertex 228.6 2.5912084629670744 1903.5342431029621
    vertex 1282.6999999999998 19.049999999999997 2203.45
    vertex 733.6611794446305 19.049999999999997 2203.45
  endloop
endfacet
facet normal 0.0 1.0 0.0
  outer loop
    vertex 228.6 19.049999999999997 1903.5342431029621
    vertex 1282.6999999999998 19.049999999999997 1856.3166666666668
    vertex 228.6 19.049999999999997 1856.3166666666668
  endloop
endfacet
facet normal 0.0 1.0 0.0
  outer loop
    vertex 1282.6999999999998 19.049999999999997 1856.3166666666668
    vertex 228.6 19.049999999999997 1903.5342431029621
    vertex 1282.6999999999998 19.049999999999997 2203.45
  endloop
endfacet
facet normal 0.0 1.0 0.0
  outer loop
    vertex 1282.6999999999998 19.049999999999997 2203.45
    vertex 228.6 19.049999999999997 1903.5342431029621
    vertex 733.6611794446305 19.049999999999997 2203.45
  endloop
endfacet
facet normal -0.5105836654345691 -1.7664203664917e-15 0.8598280761823262
  outer loop
    vertex 733.6611794446305 19.049999999999997 2203.45
    vertex 228.6 19.049999999999997 1903.5342431029621
    vertex 228.6 2.5912084629670744 1903.5342431029621
  endloop
endfacet
facet normal -1.0 0.0 0.0
  outer loop
    vertex 228.6 19.049999999999997 1509.1833333333332
    vertex 228.6 0.0 1509.1833333333332
    vertex 228.6 19.049999999999997 1856.3166666666664
  endloop
endfacet
facet normal 0.0 1.0 0.0
  outer loop
    vertex 228.6 19.049999999999997 1856.3166666666664
    vertex 1282.6999999999998 19.049999999999997 1509.1833333333332
    vertex 228.6 19.049999999999997 1509.1833333333332
  endloop
endfacet
facet normal 0.0 1.0 0.0
  outer loop
    vertex 1282.6999999999998 19.049999999999997 1509.1833333333332
    vertex 228.6 19.049999999999997 1856.3166666666664
    vertex 1282.6999999999998 19.049999999999997 1856.3166666666664
  endloop
endfacet
facet normal 0.0 0.0 -1.0
  outer loop
    vertex 1282.6999999999998 19.049999999999997 1509.1833333333332
    vertex 228.6 0.0 1509.1833333333332
    vertex 228.6 19.049999999999997 1509.1833333333332
  endloop
endfacet
facet normal 0.0 0.0 -1.0
  outer loop
    vertex 228.6 0.0 1509.1833333333332
    vertex 1282.6999999999998 19.049999999999997 1509.1833333333332
    vertex 1282.6999999999998 0.0 1509.1833333333332
  endloop
endfacet
facet normal 0.0 -0.9984975925186971 0.054795599589440705
  outer loop
    vertex 1282.6999999999998 19.049999999999997 1856.3166666666664
    vertex 228.6 0.0 1509.1833333333332
    vertex 1282.6999999999998 0.0 1509.1833333333332
  endloop
endfacet
facet normal 0.0 -0.9984975925186971 0.054795599589440705
  outer loop
    vertex 228.6 0.0 1509.1833333333332
    vertex 1282.6999999999998 19.049999999999997 1856.3166666666664
    vertex 228.6 19.049999999999997 1856.3166666666664
  endloop
endfacet
facet normal 1.0 0.0 0.0
  outer loop
    vertex 1282.6999999999998 19.049999999999997 1856.3166666666664
    vertex 1282.6999999999998 0.0 1509.1833333333332
    vertex 1282.6999999999998 19.049999999999997 1509.1833333333332
  endloop
endfacet
facet normal -1.0 0.0 0.0
  outer loop
    vertex 228.6 19.049999999999997 814.9166666666665
    vertex 228.6 0.0 814.9166666666665
    vertex 228.6 19.049999999999997 1162.0499999999997
  endloop
endfacet
facet normal 0.0 1.0 0.0
  outer loop
    vertex 228.6 19.049999999999997 1162.0499999999997
    vertex 1282.6999999999998 19.049999999999997 814.9166666666665
    vertex 228.6 19.049999999999997 814.9166666666665
  endloop
endfacet
facet normal 0.0 1.0 0.0
  outer loop
    vertex 1282.6999999999998 19.049999999999997 814.9166666666665
    vertex 228.6 19.049999999999997 1162.0499999999997
    vertex 1282.6999999999998 19.049999999999997 1162.0499999999997
  endloop
endfacet
facet normal 0.0 0.0 -1.0
  outer loop
    vertex 1282.6999999999998 19.049999999999997 814.9166666666665
    vertex 228.6 0.0 814.9166666666665
    vertex 228.6 19.049999999999997 814.9166666666665
  endloop
endfacet
facet normal 0.0 0.0 -1.0
  outer loop
    vertex 228.6 0.0 814.9166666666665
    vertex 1282.6999999999998 19.049999999999997 814.9166666666665
    vertex 1282.6999999999998 0.0 814.9166666666665
  endloop
endfacet
facet normal 0.0 -0.9984975925186971 0.054795599589440705
  outer loop
    vertex 1282.6999999999998 19.049999999999997 1162.0499999999997
    vertex 228.6 0.0 814.9166666666665
    vertex 1282.6999999999998 0.0 814.9166666666665
  endloop
endfacet
facet normal 0.0 -0.9984975925186971 0.054795599589440705
  outer loop
    vertex 228.6 0.0 814.9166666666665
    vertex 1282.6999999999998 19.049999999999997 1162.0499999999997
    vertex 228.6 19.049999999999997 1162.0499999999997
  endloop
endfacet
facet normal 1.0 0.0 0.0
  outer loop
    vertex 1282.6999999999998 19.049999999999997 1162.0499999999997
    vertex 1282.6999999999998 0.0 814.9166666666665
    vertex 1282.6999999999998 19.049999999999997 814.9166666666665
  endloop
endfacet
facet normal 1.835856051746831e-15 -0.9984975925186971 0.054795599589439636
  outer loop
    vertex 1282.6999999999998 17.89192252549579 2529.4805882423743
    vertex 733.6611794446623 0.0 2203.4500000000185
    vertex 1282.6999999999998 0.0 2203.4500000000003
  endloop
endfacet
facet normal -1.6435800905708853e-14 -4.926429634603498e-13 -1.0
  outer loop
    vertex 1282.6999999999998 19.049999999999997 2203.4500000000003
    vertex 733.6611794446623 0.0 2203.4500000000185
    vertex 733.6611794446305 19.049999999999997 2203.45
  endloop
endfacet
facet normal -1.6435800905708853e-14 -4.926429634603498e-13 -1.0
  outer loop
    vertex 733.6611794446623 0.0 2203.4500000000185
    vertex 1282.6999999999998 19.049999999999997 2203.4500000000003
    vertex 1282.6999999999998 0.0 2203.4500000000003
  endloop
endfacet
facet normal 1.0 0.0 0.0
  outer loop
    vertex 1282.6999999999998 19.049999999999997 2203.4500000000003
    vertex 1282.6999999999998 17.89192252549579 2529.4805882423743
    vertex 1282.6999999999998 0.0 2203.4500000000003
  endloop
endfacet
facet normal 1.0 0.0 0.0
  outer loop
    vertex 1282.6999999999998 17.89192252549579 2529.4805882423743
    vertex 1282.6999999999998 19.049999999999997 2203.4500000000003
    vertex 1282.6999999999998 19.049999999999997 2550.5833333333335
  endloop
endfacet
facet normal -0.5105836654345686 -6.6947307365034305e-15 0.8598280761823265
  outer loop
    vertex 1282.6999999999998 17.89192252549579 2529.4805882423743
    vertex 733.6611794446305 19.049999999999997 2203.45
    vertex 733.6611794446623 0.0 2203.4500000000185
  endloop
endfacet
facet normal 0.0 1.0 0.0
  outer loop
    vertex 0.0 19.049999999999997 1885.9499999999998
    vertex 228.6 19.049999999999997 1784.35
    vertex 0.0 19.049999999999997 1784.35
  endloop
endfacet
facet normal 0.0 1.0 0.0
  outer loop
    vertex 228.6 19.049999999999997 1784.35
    vertex 0.0 19.049999999999997 1885.9499999999998
    vertex 228.6 19.049999999999997 1903.5342431029621
  endloop
endfacet
facet normal 0.0 1.0 0.0
  outer loop
    vertex 228.6 19.049999999999997 1903.5342431029621
    vertex 0.0 19.049999999999997 1885.9499999999998
    vertex 1282.6999999999998 19.049999999999997 2647.6437452901278
  endloop
endfacet
facet normal 0.0 1.0 0.0
  outer loop
    vertex 228.6 19.049999999999997 1903.5342431029621
    vertex 1282.6999999999998 19.049999999999997 2647.6437452901278
    vertex 1282.6999999999998 19.049999999999997 2529.4805882423743
  endloop
endfacet
facet normal 0.5105836654345689 0.0 -0.8598280761823263
  outer loop
    vertex 1282.6999999999998 19.049999999999997 2529.4805882423743
    vertex 228.6 0.0 1903.5342431029621
    vertex 228.6 19.049999999999997 1903.5342431029621
  endloop
endfacet
facet normal 0.5105836654345689 0.0 -0.8598280761823263
  outer loop
    vertex 228.6 0.0 1903.5342431029621
    vertex 1282.6999999999998 19.049999999999997 2529.4805882423743
    vertex 1282.6999999999998 0.0 2529.4805882423743
  endloop
endfacet
facet normal 0.0 -1.0 0.0
  outer loop
    vertex 228.6 0.0 1903.5342431029621
    vertex 0.0 0.0 1784.35
    vertex 228.6 0.0 1784.35
  endloop
endfacet
facet normal 0.0 -1.0 0.0
  outer loop
    vertex 0.0 0.0 1784.35
    vertex 228.6 0.0 1903.5342431029621
    vertex 0.0 0.0 1885.9499999999998
  endloop
endfacet
facet normal 0.0 -1.0 0.0
  outer loop
    vertex 0.0 0.0 1885.9499999999998
    vertex 228.6 0.0 1903.5342431029621
    vertex 1282.6999999999998 0.0 2647.6437452901278
  endloop
endfacet
facet normal 0.0 -1.0 0.0
  outer loop
    vertex 1282.6999999999998 0.0 2647.6437452901278
    vertex 228.6 0.0 1903.5342431029621
    vertex 1282.6999999999998 0.0 2529.4805882423743
  endloop
endfacet
facet normal 1.0 0.0 0.0
  outer loop
    vertex 1282.6999999999998 19.049999999999997 2529.4805882423743
    vertex 1282.6999999999998 0.0 2647.6437452901278
    vertex 1282.6999999999998 0.0 2529.4805882423743
  endloop
endfacet
facet normal 1.0 0.0 0.0
  outer loop
    vertex 1282.6999999999998 0.0 2647.6437452901278
    vertex 1282.6999999999998 19.049999999999997 2529.4805882423743
    vertex 1282.6999999999998 19.049999999999997 2647.6437452901278
  endloop
endfacet
facet normal -0.5105836654345688 0.0 0.8598280761823263
  outer loop
    vertex 1282.6999999999998 0.0 2647.6437452901278
    vertex 0.0 19.049999999999997 1885.9499999999998
    vertex 0.0 0.0 1885.9499999999998
  endloop
endfacet
facet normal -0.5105836654345688 0.0 0.8598280761823263
  outer loop
    vertex 0.0 19.049999999999997 1885.9499999999998
    vertex 1282.6999999999998 0.0 2647.6437452901278
    vertex 1282.6999999999998 19.049999999999997 2647.6437452901278
  endloop
endfacet
facet normal -1.0 -0.0 -0.0
  outer loop
    vertex 0.0 19.049999999999997 1885.9499999999998
    vertex 0.0 0.0 1784.35
    vertex 0.0 0.0 1885.9499999999998
  endloop
endfacet
facet normal -1.0 -0.0 -0.0
  outer loop
    vertex 0.0 0.0 1784.35
    vertex 0.0 19.049999999999997 1885.9499999999998
    vertex 0.0 19.049999999999997 1784.35
  endloop
endfacet
facet normal 0.0 0.0 -1.0
  outer loop
    vertex 228.6 19.049999999999997 1784.35
    vertex 0.0 0.0 1784.35
    vertex 0.0 19.049999999999997 1784.35
  endloop
endfacet
facet normal 0.0 0.0 -1.0
  outer loop
    vertex 0.0 0.0 1784.35
    vertex 228.6 19.049999999999997 1784.35
    vertex 228.6 0.0 1784.35
  endloop
endfacet
facet normal 1.0 0.0 0.0
  outer loop
    vertex 228.6 19.049999999999997 1784.35
    vertex 228.6 0.0 1903.5342431029621
    vertex 228.6 0.0 1784.35
  endloop
endfacet
facet normal 1.0 0.0 0.0
  outer loop
    vertex 228.6 0.0 1903.5342431029621
    vertex 228.6 19.049999999999997 1784.35
    vertex 228.6 19.049999999999997 1903.5342431029621
  endloop
endfacet
endsolid garage north wall
