solid house assy
facet normal -4.9395941264548145e-34 -1.0 -1.4423184230842902e-16
  outer loop
    vertex -5632.45 -228.6 228.60000000000034
    vertex -6038.849999999999 -228.6 3.5234116061544715e-13
    vertex -5632.45 -228.6 3.5094933824053885e-13
  endloop
endfacet
facet normal -4.9395941264548145e-34 -1.0 -1.4423184230842902e-16
  outer loop
    vertex -6038.849999999999 -228.6 3.5234116061544715e-13
    vertex -5632.45 -228.6 228.60000000000034
    vertex -6038.849999999999 -228.6 228.60000000000034
  endloop
endfacet
facet normal 9.082436390101934e-34 1.0 1.3109750741889031e-16
  outer loop
    vertex -5556.25 -3124.2 3.15409189489281e-13
    vertex -5149.849999999999 -3124.2 228.6000000000003
    vertex -5149.849999999999 -3124.2 3.1259364995568527e-13
  endloop
endfacet
facet normal 9.082436390101934e-34 1.0 1.3109750741889031e-16
  outer loop
    vertex -5149.849999999999 -3124.2 228.6000000000003
    vertex -5556.25 -3124.2 3.15409189489281e-13
    vertex -5556.25 -3124.2 228.6000000000003
  endloop
endfacet
facet normal -2.690497032606476e-34 -1.0 -7.856016786073552e-17
  outer loop
    vertex -3219.45 -228.6 228.60000000000014
    vertex -3625.85 -228.6 1.4848453912142113e-13
    vertex -3219.45 -228.6 1.470927167465128e-13
  endloop
endfacet
facet normal -2.690497032606476e-34 -1.0 -7.856016786073552e-17
  outer loop
    vertex -3625.85 -228.6 1.4848453912142113e-13
    vertex -3219.45 -228.6 228.60000000000014
    vertex -3625.85 -228.6 228.60000000000014
  endloop
endfacet
facet normal -5.176380300816998e-18 7.856016786073552e-17 -1.0
  outer loop
    vertex -3219.45 -228.6 228.60000000000014
    vertex -3625.85 -3276.6 228.60000000000014
    vertex -3625.85 -228.6 228.60000000000014
  endloop
endfacet
facet normal -5.176380300816998e-18 7.856016786073552e-17 -1.0
  outer loop
    vertex -3625.85 -3276.6 228.60000000000014
    vertex -3219.45 -228.6 228.60000000000014
    vertex -3219.45 -3276.6 228.60000000000014
  endloop
endfacet
facet normal 1.0 -2.545137952121986e-36 -5.176380300816998e-18
  outer loop
    vertex -730.25 -228.6 -7.04987105787506e-14
    vertex -730.25 -3276.6 228.5999999999999
    vertex -730.25 -3276.6 -6.903752717904515e-14
  endloop
endfacet
facet normal 1.0 -2.545137952121986e-36 -5.176380300816998e-18
  outer loop
    vertex -730.25 -3276.6 228.5999999999999
    vertex -730.25 -228.6 -7.04987105787506e-14
    vertex -730.25 -228.6 228.5999999999999
  endloop
endfacet
facet normal 1.0 -2.545137952121986e-36 -5.176380300816998e-18
  outer loop
    vertex -4108.45 -228.6 1.8985977242371436e-13
    vertex -4108.45 -3276.6 228.60000000000016
    vertex -4108.45 -3276.6 1.7730924736325997e-13
  endloop
endfacet
facet normal 1.0 -2.545137952121986e-36 -5.176380300816998e-18
  outer loop
    vertex -4108.45 -3276.6 228.60000000000016
    vertex -4108.45 -228.6 1.8985977242371436e-13
    vertex -4108.45 -228.6 228.60000000000016
  endloop
endfacet
facet normal 1.0 0.0 -6.9280008208555794e-18
  outer loop
    vertex -247.64999999999998 -152.39999999999998 -8.407025076095923e-14
    vertex -247.64999999999998 -3352.7999999999997 304.7999999999999
    vertex -247.64999999999998 -3352.7999999999997 -8.206857812379353e-14
  endloop
endfacet
facet normal 1.0 0.0 -6.9280008208555794e-18
  outer loop
    vertex -247.64999999999998 -3352.7999999999997 304.7999999999999
    vertex -247.64999999999998 -152.39999999999998 -8.407025076095923e-14
    vertex -247.64999999999998 -152.39999999999998 304.7999999999999
  endloop
endfacet
facet normal 7.2625427321797115e-34 1.0 1.0482883763981291e-16
  outer loop
    vertex -4591.05 -3276.6 2.1668280802838732e-13
    vertex -4184.65 -3276.6 228.60000000000022
    vertex -4184.65 -3276.6 2.1386726849479162e-13
  endloop
endfacet
facet normal 7.2625427321797115e-34 1.0 1.0482883763981291e-16
  outer loop
    vertex -4184.65 -3276.6 228.60000000000022
    vertex -4591.05 -3276.6 2.1668280802838732e-13
    vertex -4591.05 -3276.6 228.60000000000022
  endloop
endfacet
facet normal -3.590135870145811e-34 -1.0 -1.0482883763981291e-16
  outer loop
    vertex -4184.65 -228.6 228.60000000000022
    vertex -4591.05 -228.6 2.312350057260075e-13
    vertex -4184.65 -228.6 2.2984318335109917e-13
  endloop
endfacet
facet normal -3.590135870145811e-34 -1.0 -1.0482883763981291e-16
  outer loop
    vertex -4591.05 -228.6 2.312350057260075e-13
    vertex -4184.65 -228.6 228.60000000000022
    vertex -4591.05 -228.6 228.60000000000022
  endloop
endfacet
facet normal -1.0 -1.8198936579223232e-34 6.9280008208555794e-18
  outer loop
    vertex -6315.074999999995 -152.39999999999998 304.79999999999995
    vertex -6315.074999999995 -3200.3999999999996 -8.206857812379353e-14
    vertex -6315.074999999995 -3200.3999999999996 304.7999999999999
  endloop
endfacet
facet normal -1.0 -1.8198936579223232e-34 6.9280008208555794e-18
  outer loop
    vertex -6315.074999999995 -3200.3999999999996 -8.206857812379353e-14
    vertex -6315.074999999995 -152.39999999999998 304.79999999999995
    vertex -6315.074999999995 -152.39999999999998 4.00741339852274e-29
  endloop
endfacet
facet normal -1.0 -3.5819684647988684e-50 5.176380300816998e-18
  outer loop
    vertex -2736.85 -228.6 228.60000000000008
    vertex -2736.85 -3276.6 9.574658649940928e-14
    vertex -2736.85 -3276.6 228.60000000000008
  endloop
endfacet
facet normal -1.0 -3.5819684647988684e-50 5.176380300816998e-18
  outer loop
    vertex -2736.85 -3276.6 9.574658649940928e-14
    vertex -2736.85 -228.6 228.60000000000008
    vertex -2736.85 -228.6 1.0571748344421973e-13
  endloop
endfacet
facet normal 3.622755416334972e-34 1.0 5.229149808165814e-17
  outer loop
    vertex -2660.6499999999996 -3276.6 5.918856536787762e-14
    vertex -2254.25 -3276.6 228.60000000000002
    vertex -2254.25 -3276.6 5.6373025834281915e-14
  endloop
endfacet
facet normal 3.622755416334972e-34 1.0 5.229149808165814e-17
  outer loop
    vertex -2254.25 -3276.6 228.60000000000002
    vertex -2660.6499999999996 -3276.6 5.918856536787762e-14
    vertex -2660.6499999999996 -3276.6 228.60000000000002
  endloop
endfacet
facet normal -1.0 -3.5819684647988684e-50 5.176380300816998e-18
  outer loop
    vertex -1771.6499999999999 -228.6 228.60000000000002
    vertex -1771.6499999999999 -3276.6 1.6999465169154426e-14
    vertex -1771.6499999999999 -3276.6 228.60000000000002
  endloop
endfacet
facet normal -1.0 -3.5819684647988684e-50 5.176380300816998e-18
  outer loop
    vertex -1771.6499999999999 -3276.6 1.6999465169154426e-14
    vertex -1771.6499999999999 -228.6 228.60000000000002
    vertex -1771.6499999999999 -228.6 2.2967016839633476e-14
  endloop
endfacet
facet normal -5.176380300816998e-18 9.169450275027422e-17 -1.0
  outer loop
    vertex -3702.0499999999997 -228.6 228.60000000000016
    vertex -4108.45 -3276.6 228.60000000000016
    vertex -4108.45 -228.6 228.60000000000016
  endloop
endfacet
facet normal -5.176380300816998e-18 9.169450275027422e-17 -1.0
  outer loop
    vertex -4108.45 -3276.6 228.60000000000016
    vertex -3702.0499999999997 -228.6 228.60000000000016
    vertex -3702.0499999999997 -3276.6 228.60000000000016
  endloop
endfacet
facet normal 6.352595903218536e-34 1.0 9.169450275027422e-17
  outer loop
    vertex -4108.45 -3276.6 1.7730924736325997e-13
    vertex -3702.0499999999997 -3276.6 228.60000000000016
    vertex -3702.0499999999997 -3276.6 1.7449370782966417e-13
  endloop
endfacet
facet normal 6.352595903218536e-34 1.0 9.169450275027422e-17
  outer loop
    vertex -3702.0499999999997 -3276.6 228.60000000000016
    vertex -4108.45 -3276.6 1.7730924736325997e-13
    vertex -4108.45 -3276.6 228.60000000000016
  endloop
endfacet
facet normal -5.176380300816998e-18 1.3109750741889031e-16 -1.0
  outer loop
    vertex -5149.849999999999 -228.6 228.6000000000003
    vertex -5556.25 -3124.2 228.6000000000003
    vertex -5556.25 -228.6 228.6000000000003
  endloop
endfacet
facet normal -5.176380300816998e-18 1.3109750741889031e-16 -1.0
  outer loop
    vertex -5556.25 -3124.2 228.6000000000003
    vertex -5149.849999999999 -228.6 228.6000000000003
    vertex -5149.849999999999 -3124.2 228.6000000000003
  endloop
endfacet
facet normal 6.92800082085558e-18 -1.3134334889538696e-17 1.0
  outer loop
    vertex -247.64999999999998 -3352.7999999999997 304.7999999999999
    vertex -5089.525 -3200.3999999999996 304.7999999999999
    vertex -5089.525 -3352.7999999999997 304.7999999999999
  endloop
endfacet
facet normal 6.92800082085558e-18 -1.3134334889538696e-17 1.0
  outer loop
    vertex -5089.525 -3200.3999999999996 304.7999999999999
    vertex -6315.074999999995 -152.39999999999998 304.79999999999995
    vertex -6315.074999999995 -3200.3999999999996 304.7999999999999
  endloop
endfacet
facet normal 6.92800082085558e-18 -1.3134334889538696e-17 1.0
  outer loop
    vertex -6315.074999999995 -152.39999999999998 304.79999999999995
    vertex -5089.525 -3200.3999999999996 304.7999999999999
    vertex -247.64999999999998 -152.39999999999998 304.7999999999999
  endloop
endfacet
facet normal 6.92800082085558e-18 -1.3134334889538696e-17 1.0
  outer loop
    vertex -247.64999999999998 -152.39999999999998 304.7999999999999
    vertex -5089.525 -3200.3999999999996 304.7999999999999
    vertex -247.64999999999998 -3352.7999999999997 304.7999999999999
  endloop
endfacet
facet normal 1.0 -2.545137952121968e-36 -5.176380300816998e-18
  outer loop
    vertex -1695.4499999999998 -228.6 -1.7016394087751343e-14
    vertex -1695.4499999999998 -3276.6 228.6
    vertex -1695.4499999999998 -3276.6 -1.9558555962377297e-14
  endloop
endfacet
facet normal 1.0 -2.545137952121968e-36 -5.176380300816998e-18
  outer loop
    vertex -1695.4499999999998 -3276.6 228.6
    vertex -1695.4499999999998 -228.6 -1.7016394087751343e-14
    vertex -1695.4499999999998 -228.6 228.6
  endloop
endfacet
facet normal -1.0 -1.4327873859195474e-49 5.176380300816998e-18
  outer loop
    vertex -4184.65 -228.6 228.60000000000022
    vertex -4184.65 -3276.6 2.1386726849479162e-13
    vertex -4184.65 -3276.6 228.60000000000022
  endloop
endfacet
facet normal -1.0 -1.4327873859195474e-49 5.176380300816998e-18
  outer loop
    vertex -4184.65 -3276.6 2.1386726849479162e-13
    vertex -4184.65 -228.6 228.60000000000022
    vertex -4184.65 -228.6 2.2984318335109917e-13
  endloop
endfacet
facet normal 1.0 2.632641831517506e-32 5.51359018827496e-16
  outer loop
    vertex -6238.874999999995 -228.6 -1.5537708890965788e-15
    vertex -6238.874999999995 -3124.2 228.60000000000014
    vertex -6238.874999999995 -3124.2 1.3670600952681286e-13
  endloop
endfacet
facet normal 1.0 2.632641831517506e-32 5.51359018827496e-16
  outer loop
    vertex -6238.874999999995 -3124.2 228.60000000000014
    vertex -6238.874999999995 -228.6 -1.5537708890965788e-15
    vertex -6238.874999999995 -228.6 228.6
  endloop
endfacet
facet normal -5.176380300816998e-18 1.2888493413042052e-17 -1.0
  outer loop
    vertex -806.4499999999999 -228.6 228.59999999999994
    vertex -1212.85 -3276.6 228.59999999999994
    vertex -1212.85 -228.6 228.59999999999994
  endloop
endfacet
facet normal -5.176380300816998e-18 1.2888493413042052e-17 -1.0
  outer loop
    vertex -1212.85 -3276.6 228.59999999999994
    vertex -806.4499999999999 -228.6 228.59999999999994
    vertex -806.4499999999999 -3276.6 228.59999999999994
  endloop
endfacet
facet normal 1.0 -2.5451379521220214e-36 -5.176380300816998e-18
  outer loop
    vertex -3625.85 -228.6 1.4848453912142113e-13
    vertex -3625.85 -3276.6 228.60000000000014
    vertex -3625.85 -3276.6 1.3793568669813243e-13
  endloop
endfacet
facet normal 1.0 -2.5451379521220214e-36 -5.176380300816998e-18
  outer loop
    vertex -3625.85 -3276.6 228.60000000000014
    vertex -3625.85 -228.6 1.4848453912142113e-13
    vertex -3625.85 -228.6 228.60000000000014
  endloop
endfacet
facet normal 8.929149294514715e-35 1.0 1.2888493413042052e-17
  outer loop
    vertex -1212.85 -3276.6 -5.893211662750474e-14
    vertex -806.4499999999999 -3276.6 228.59999999999994
    vertex -806.4499999999999 -3276.6 -6.174765616110045e-14
  endloop
endfacet
facet normal 8.929149294514715e-35 1.0 1.2888493413042052e-17
  outer loop
    vertex -806.4499999999999 -3276.6 228.59999999999994
    vertex -1212.85 -3276.6 -5.893211662750474e-14
    vertex -1212.85 -3276.6 228.59999999999994
  endloop
endfacet
facet normal 1.0 -2.545137952121968e-36 -5.176380300816998e-18
  outer loop
    vertex -2660.6499999999996 -228.6 6.573407251683497e-14
    vertex -2660.6499999999996 -3276.6 228.60000000000002
    vertex -2660.6499999999996 -3276.6 5.918856536787762e-14
  endloop
endfacet
facet normal 1.0 -2.545137952121968e-36 -5.176380300816998e-18
  outer loop
    vertex -2660.6499999999996 -3276.6 228.60000000000002
    vertex -2660.6499999999996 -228.6 6.573407251683497e-14
    vertex -2660.6499999999996 -228.6 228.60000000000002
  endloop
endfacet
facet normal -1.0 -3.5819684647988684e-50 5.176380300816998e-18
  outer loop
    vertex -2254.25 -228.6 228.60000000000002
    vertex -2254.25 -3276.6 5.6373025834281915e-14
    vertex -2254.25 -3276.6 228.60000000000002
  endloop
endfacet
facet normal -1.0 -3.5819684647988684e-50 5.176380300816998e-18
  outer loop
    vertex -2254.25 -3276.6 5.6373025834281915e-14
    vertex -2254.25 -228.6 228.60000000000002
    vertex -2254.25 -228.6 6.434225014192662e-14
  endloop
endfacet
facet normal 1.0 -2.545137952121968e-36 -5.176380300816998e-18
  outer loop
    vertex -1212.85 -228.6 -5.83916273900445e-14
    vertex -1212.85 -3276.6 228.59999999999994
    vertex -1212.85 -3276.6 -5.893211662750474e-14
  endloop
endfacet
facet normal 1.0 -2.545137952121968e-36 -5.176380300816998e-18
  outer loop
    vertex -1212.85 -3276.6 228.59999999999994
    vertex -1212.85 -228.6 -5.83916273900445e-14
    vertex -1212.85 -228.6 228.59999999999994
  endloop
endfacet
facet normal -1.0 -1.7909842323994342e-50 5.176380300816998e-18
  outer loop
    vertex -806.4499999999999 -228.6 228.59999999999994
    vertex -806.4499999999999 -3276.6 -6.174765616110045e-14
    vertex -806.4499999999999 -3276.6 228.59999999999994
  endloop
endfacet
facet normal -1.0 -1.7909842323994342e-50 5.176380300816998e-18
  outer loop
    vertex -806.4499999999999 -3276.6 -6.174765616110045e-14
    vertex -806.4499999999999 -228.6 228.59999999999994
    vertex -806.4499999999999 -228.6 -5.978344976495283e-14
  endloop
endfacet
facet normal -1.0 -1.4327873859195474e-49 5.176380300816998e-18
  outer loop
    vertex -5149.849999999999 -228.6 228.6000000000003
    vertex -5149.849999999999 -3124.2 3.1259364995568527e-13
    vertex -5149.849999999999 -3124.2 228.6000000000003
  endloop
endfacet
facet normal -1.0 -1.4327873859195474e-49 5.176380300816998e-18
  outer loop
    vertex -5149.849999999999 -3124.2 3.1259364995568527e-13
    vertex -5149.849999999999 -228.6 228.6000000000003
    vertex -5149.849999999999 -228.6 3.1259364995568537e-13
  endloop
endfacet
facet normal -5.176380300816998e-18 3.9157163192119445e-17 -1.0
  outer loop
    vertex -1771.6499999999999 -228.6 228.60000000000002
    vertex -2178.0499999999997 -3276.6 228.60000000000002
    vertex -2178.0499999999997 -228.6 228.60000000000002
  endloop
endfacet
facet normal -5.176380300816998e-18 3.9157163192119445e-17 -1.0
  outer loop
    vertex -2178.0499999999997 -3276.6 228.60000000000002
    vertex -1771.6499999999999 -228.6 228.60000000000002
    vertex -1771.6499999999999 -3276.6 228.60000000000002
  endloop
endfacet
facet normal -8.912193575278063e-35 -1.0 -2.6022828302580747e-17
  outer loop
    vertex -1289.05 -228.6 228.6
    vertex -1695.4499999999998 -228.6 -1.7016394087751343e-14
    vertex -1289.05 -228.6 -1.840821646265969e-14
  endloop
endfacet
facet normal -8.912193575278063e-35 -1.0 -2.6022828302580747e-17
  outer loop
    vertex -1695.4499999999998 -228.6 -1.7016394087751343e-14
    vertex -1289.05 -228.6 228.6
    vertex -1695.4499999999998 -228.6 228.6
  endloop
endfacet
facet normal 1.0 -2.545137952121968e-36 -5.176380300816998e-18
  outer loop
    vertex -2178.0499999999997 -228.6 2.435883921454182e-14
    vertex -2178.0499999999997 -3276.6 228.60000000000002
    vertex -2178.0499999999997 -3276.6 1.9815004702750156e-14
  endloop
endfacet
facet normal 1.0 -2.545137952121968e-36 -5.176380300816998e-18
  outer loop
    vertex -2178.0499999999997 -3276.6 228.60000000000002
    vertex -2178.0499999999997 -228.6 2.435883921454182e-14
    vertex -2178.0499999999997 -228.6 228.60000000000002
  endloop
endfacet
facet normal 2.7128085873738064e-34 1.0 3.9157163192119445e-17
  outer loop
    vertex -2178.0499999999997 -3276.6 1.9815004702750156e-14
    vertex -1771.6499999999999 -3276.6 228.60000000000002
    vertex -1771.6499999999999 -3276.6 1.6999465169154426e-14
  endloop
endfacet
facet normal 2.7128085873738064e-34 1.0 3.9157163192119445e-17
  outer loop
    vertex -1771.6499999999999 -3276.6 228.60000000000002
    vertex -2178.0499999999997 -3276.6 1.9815004702750156e-14
    vertex -2178.0499999999997 -3276.6 228.60000000000002
  endloop
endfacet
facet normal -5.176380300816998e-18 1.0482883763981291e-16 -1.0
  outer loop
    vertex -4184.65 -228.6 228.60000000000022
    vertex -4591.05 -3276.6 228.60000000000022
    vertex -4591.05 -228.6 228.60000000000022
  endloop
endfacet
facet normal -5.176380300816998e-18 1.0482883763981291e-16 -1.0
  outer loop
    vertex -4591.05 -3276.6 228.60000000000022
    vertex -4184.65 -228.6 228.60000000000022
    vertex -4184.65 -3276.6 228.60000000000022
  endloop
endfacet
facet normal -5.176380300816998e-18 -2.45841476496644e-19 -1.0
  outer loop
    vertex -323.84999999999997 -228.6 228.5999999999999
    vertex -730.25 -3276.6 228.5999999999999
    vertex -730.25 -228.6 228.5999999999999
  endloop
endfacet
facet normal -5.176380300816998e-18 -2.45841476496644e-19 -1.0
  outer loop
    vertex -730.25 -3276.6 228.5999999999999
    vertex -323.84999999999997 -228.6 228.5999999999999
    vertex -323.84999999999997 -3276.6 228.5999999999999
  endloop
endfacet
facet normal -5.176380300816998e-18 5.229149808165814e-17 -1.0
  outer loop
    vertex -2254.25 -228.6 228.60000000000002
    vertex -2660.6499999999996 -3276.6 228.60000000000002
    vertex -2660.6499999999996 -228.6 228.60000000000002
  endloop
endfacet
facet normal -5.176380300816998e-18 5.229149808165814e-17 -1.0
  outer loop
    vertex -2660.6499999999996 -3276.6 228.60000000000002
    vertex -2254.25 -228.6 228.60000000000002
    vertex -2254.25 -3276.6 228.60000000000002
  endloop
endfacet
facet normal 0.0 1.0 0.0
  outer loop
    vertex -5073.65 -3124.2 2.740339561869879e-13
    vertex -5013.325 -3124.2 228.60000000000025
    vertex -5013.325 -3124.2 -9.356208690774536e-14
  endloop
endfacet
facet normal 0.0 1.0 0.0
  outer loop
    vertex -5013.325 -3124.2 228.60000000000025
    vertex -5073.65 -3124.2 2.740339561869879e-13
    vertex -5073.65 -3124.2 228.60000000000025
  endloop
endfacet
facet normal 0.0 -1.0 0.0
  outer loop
    vertex -5089.525 -3200.3999999999996 304.7999999999999
    vertex -6315.074999999995 -3200.3999999999996 -8.206857812379353e-14
    vertex -5089.525 -3200.3999999999996 -9.356208690774533e-14
  endloop
endfacet
facet normal 0.0 -1.0 0.0
  outer loop
    vertex -6315.074999999995 -3200.3999999999996 -8.206857812379353e-14
    vertex -5089.525 -3200.3999999999996 304.7999999999999
    vertex -6315.074999999995 -3200.3999999999996 304.7999999999999
  endloop
endfacet
facet normal 0.0 -1.0 0.0
  outer loop
    vertex -247.64999999999998 -3352.7999999999997 -8.206857812379353e-14
    vertex -5089.525 -3352.7999999999997 304.7999999999999
    vertex -5089.525 -3352.7999999999997 -9.356208690774533e-14
  endloop
endfacet
facet normal 0.0 -1.0 0.0
  outer loop
    vertex -5089.525 -3352.7999999999997 304.7999999999999
    vertex -247.64999999999998 -3352.7999999999997 -8.206857812379353e-14
    vertex -247.64999999999998 -3352.7999999999997 304.7999999999999
  endloop
endfacet
facet normal -1.0 -0.0 -0.0
  outer loop
    vertex -5089.525 -3200.3999999999996 304.7999999999999
    vertex -5089.525 -3352.7999999999997 -9.356208690774533e-14
    vertex -5089.525 -3352.7999999999997 304.7999999999999
  endloop
endfacet
facet normal -1.0 -0.0 -0.0
  outer loop
    vertex -5089.525 -3352.7999999999997 -9.356208690774533e-14
    vertex -5089.525 -3200.3999999999996 304.7999999999999
    vertex -5089.525 -3200.3999999999996 -9.356208690774533e-14
  endloop
endfacet
facet normal -1.0 0.0 5.176380300816998e-18
  outer loop
    vertex -3219.45 -228.6 228.60000000000014
    vertex -3219.45 -3276.6 1.3512014716453673e-13
    vertex -3219.45 -3276.6 228.60000000000014
  endloop
endfacet
facet normal -1.0 0.0 5.176380300816998e-18
  outer loop
    vertex -3219.45 -3276.6 1.3512014716453673e-13
    vertex -3219.45 -228.6 228.60000000000014
    vertex -3219.45 -228.6 1.470927167465128e-13
  endloop
endfacet
facet normal 5.442649074257323e-34 1.0 7.856016786073552e-17
  outer loop
    vertex -3625.85 -3276.6 1.3793568669813243e-13
    vertex -3219.45 -3276.6 228.60000000000014
    vertex -3219.45 -3276.6 1.3512014716453673e-13
  endloop
endfacet
facet normal 5.442649074257323e-34 1.0 7.856016786073552e-17
  outer loop
    vertex -3219.45 -3276.6 228.60000000000014
    vertex -3625.85 -3276.6 1.3793568669813243e-13
    vertex -3625.85 -3276.6 228.60000000000014
  endloop
endfacet
facet normal 5.513590188274961e-16 -2.3874115971803683e-17 -1.0
  outer loop
    vertex -6115.049999999999 -228.6 228.60000000000014
    vertex -6238.874999999995 -3124.2 228.60000000000014
    vertex -6238.874999999995 -228.6 228.6
  endloop
endfacet
facet normal 5.513590188274961e-16 -2.3874115971803683e-17 -1.0
  outer loop
    vertex -6238.874999999995 -3124.2 228.60000000000014
    vertex -6115.049999999999 -228.6 228.60000000000014
    vertex -6115.049999999999 -3124.2 228.60000000000014
  endloop
endfacet
facet normal -4.413999387581387e-35 -1.0 -1.2888493413042052e-17
  outer loop
    vertex -806.4499999999999 -228.6 228.59999999999994
    vertex -1212.85 -228.6 -5.83916273900445e-14
    vertex -806.4499999999999 -228.6 -5.978344976495283e-14
  endloop
endfacet
facet normal -4.413999387581387e-35 -1.0 -1.2888493413042052e-17
  outer loop
    vertex -1212.85 -228.6 -5.83916273900445e-14
    vertex -806.4499999999999 -228.6 228.59999999999994
    vertex -1212.85 -228.6 228.59999999999994
  endloop
endfacet
facet normal -1.3410387762974738e-34 -1.0 -3.9157163192119445e-17
  outer loop
    vertex -1771.6499999999999 -228.6 228.60000000000002
    vertex -2178.0499999999997 -228.6 2.435883921454182e-14
    vertex -1771.6499999999999 -228.6 2.2967016839633476e-14
  endloop
endfacet
facet normal -1.3410387762974738e-34 -1.0 -3.9157163192119445e-17
  outer loop
    vertex -2178.0499999999997 -228.6 2.435883921454182e-14
    vertex -1771.6499999999999 -228.6 228.60000000000002
    vertex -2178.0499999999997 -228.6 228.60000000000002
  endloop
endfacet
facet normal -1.7908581950671415e-34 -1.0 -5.229149808165814e-17
  outer loop
    vertex -2254.25 -228.6 228.60000000000002
    vertex -2660.6499999999996 -228.6 6.573407251683497e-14
    vertex -2254.25 -228.6 6.434225014192662e-14
  endloop
endfacet
facet normal -1.7908581950671415e-34 -1.0 -5.229149808165814e-17
  outer loop
    vertex -2660.6499999999996 -228.6 6.573407251683497e-14
    vertex -2254.25 -228.6 228.60000000000002
    vertex -2660.6499999999996 -228.6 228.60000000000002
  endloop
endfacet
facet normal -1.6539989504985603e-34 1.0 -2.3874115971803683e-17
  outer loop
    vertex -6238.874999999995 -3124.2 1.3670600952681286e-13
    vertex -6115.049999999999 -3124.2 228.60000000000014
    vertex -6115.049999999999 -3124.2 1.3584814982517041e-13
  endloop
endfacet
facet normal -1.6539989504985603e-34 1.0 -2.3874115971803683e-17
  outer loop
    vertex -6115.049999999999 -3124.2 228.60000000000014
    vertex -6238.874999999995 -3124.2 1.3670600952681286e-13
    vertex -6238.874999999995 -3124.2 228.60000000000014
  endloop
endfacet
facet normal -1.0 -7.163936929597737e-50 5.176380300816998e-18
  outer loop
    vertex -3702.0499999999997 -228.6 228.60000000000016
    vertex -3702.0499999999997 -3276.6 1.7449370782966417e-13
    vertex -3702.0499999999997 -3276.6 228.60000000000016
  endloop
endfacet
facet normal -1.0 -7.163936929597737e-50 5.176380300816998e-18
  outer loop
    vertex -3702.0499999999997 -3276.6 1.7449370782966417e-13
    vertex -3702.0499999999997 -228.6 228.60000000000016
    vertex -3702.0499999999997 -228.6 1.88467950048806e-13
  endloop
endfacet
facet normal -5.637722629613745e-18 1.605592374996812e-17 -1.0
  outer loop
    vertex -6315.074999999995 -3200.3999999999996 -8.206857812379353e-14
    vertex -6238.874999999995 -3124.2 1.3670600952681286e-13
    vertex -5089.525 -3200.3999999999996 -9.356208690774533e-14
  endloop
endfacet
facet normal -5.637722629613745e-18 1.605592374996812e-17 -1.0
  outer loop
    vertex -6238.874999999995 -3124.2 1.3670600952681286e-13
    vertex -6315.074999999995 -3200.3999999999996 -8.206857812379353e-14
    vertex -6238.874999999995 -228.6 -1.5537708890965788e-15
  endloop
endfacet
facet normal -5.637722629613745e-18 1.605592374996812e-17 -1.0
  outer loop
    vertex -5089.525 -3200.3999999999996 -9.356208690774533e-14
    vertex -6238.874999999995 -3124.2 1.3670600952681286e-13
    vertex -6115.049999999999 -3124.2 1.3584814982517041e-13
  endloop
endfacet
facet normal -5.637722629613745e-18 1.605592374996812e-17 -1.0
  outer loop
    vertex -5089.525 -3200.3999999999996 -9.356208690774533e-14
    vertex -6115.049999999999 -3124.2 1.3584814982517041e-13
    vertex -6038.849999999999 -3124.2 3.5376487777413445e-13
  endloop
endfacet
facet normal -5.637722629613745e-18 1.605592374996812e-17 -1.0
  outer loop
    vertex -6038.849999999999 -3124.2 3.5376487777413445e-13
    vertex -6115.049999999999 -3124.2 1.3584814982517041e-13
    vertex -6038.849999999999 -228.6 3.5234116061544715e-13
  endloop
endfacet
facet normal -5.637722629613745e-18 1.605592374996812e-17 -1.0
  outer loop
    vertex -5089.525 -3200.3999999999996 -9.356208690774533e-14
    vertex -6038.849999999999 -3124.2 3.5376487777413445e-13
    vertex -5632.45 -3124.2 3.5094933824053875e-13
  endloop
endfacet
facet normal -5.637722629613745e-18 1.605592374996812e-17 -1.0
  outer loop
    vertex -5089.525 -3200.3999999999996 -9.356208690774533e-14
    vertex -5632.45 -3124.2 3.5094933824053875e-13
    vertex -5556.25 -3124.2 3.15409189489281e-13
  endloop
endfacet
facet normal -5.637722629613745e-18 1.605592374996812e-17 -1.0
  outer loop
    vertex -5556.25 -3124.2 3.15409189489281e-13
    vertex -5632.45 -3124.2 3.5094933824053875e-13
    vertex -5556.25 -228.6 3.139854723305937e-13
  endloop
endfacet
facet normal -5.637722629613745e-18 1.605592374996812e-17 -1.0
  outer loop
    vertex -5089.525 -3200.3999999999996 -9.356208690774533e-14
    vertex -5556.25 -3124.2 3.15409189489281e-13
    vertex -5149.849999999999 -3124.2 3.1259364995568527e-13
  endloop
endfacet
facet normal -5.637722629613745e-18 1.605592374996812e-17 -1.0
  outer loop
    vertex -6315.074999999995 -152.39999999999998 4.00741339852274e-29
    vertex -6238.874999999995 -228.6 -1.5537708890965788e-15
    vertex -6315.074999999995 -3200.3999999999996 -8.206857812379353e-14
  endloop
endfacet
facet normal -5.637722629613745e-18 1.605592374996812e-17 -1.0
  outer loop
    vertex -6238.874999999995 -228.6 -1.5537708890965788e-15
    vertex -6315.074999999995 -152.39999999999998 4.00741339852274e-29
    vertex -247.64999999999998 -152.39999999999998 -8.407025076095923e-14
  endloop
endfacet
facet normal -5.637722629613745e-18 1.605592374996812e-17 -1.0
  outer loop
    vertex -6238.874999999995 -228.6 -1.5537708890965788e-15
    vertex -247.64999999999998 -152.39999999999998 -8.407025076095923e-14
    vertex -6115.049999999999 -228.6 1.3584814982517041e-13
  endloop
endfacet
facet normal -5.637722629613745e-18 1.605592374996812e-17 -1.0
  outer loop
    vertex -6115.049999999999 -228.6 1.3584814982517041e-13
    vertex -247.64999999999998 -152.39999999999998 -8.407025076095923e-14
    vertex -6038.849999999999 -228.6 3.5234116061544715e-13
  endloop
endfacet
facet normal -5.637722629613745e-18 1.605592374996812e-17 -1.0
  outer loop
    vertex -6115.049999999999 -228.6 1.3584814982517041e-13
    vertex -6038.849999999999 -228.6 3.5234116061544715e-13
    vertex -6115.049999999999 -3124.2 1.3584814982517041e-13
  endloop
endfacet
facet normal -5.637722629613745e-18 1.605592374996812e-17 -1.0
  outer loop
    vertex -6038.849999999999 -228.6 3.5234116061544715e-13
    vertex -247.64999999999998 -152.39999999999998 -8.407025076095923e-14
    vertex -5632.45 -228.6 3.5094933824053885e-13
  endloop
endfacet
facet normal -5.637722629613745e-18 1.605592374996812e-17 -1.0
  outer loop
    vertex -5632.45 -228.6 3.5094933824053885e-13
    vertex -247.64999999999998 -152.39999999999998 -8.407025076095923e-14
    vertex -5556.25 -228.6 3.139854723305937e-13
  endloop
endfacet
facet normal -5.637722629613745e-18 1.605592374996812e-17 -1.0
  outer loop
    vertex -5632.45 -228.6 3.5094933824053885e-13
    vertex -5556.25 -228.6 3.139854723305937e-13
    vertex -5632.45 -3124.2 3.5094933824053875e-13
  endloop
endfacet
facet normal -5.637722629613745e-18 1.605592374996812e-17 -1.0
  outer loop
    vertex -5556.25 -228.6 3.139854723305937e-13
    vertex -247.64999999999998 -152.39999999999998 -8.407025076095923e-14
    vertex -5149.849999999999 -228.6 3.1259364995568537e-13
  endloop
endfacet
facet normal -5.637722629613745e-18 1.605592374996812e-17 -1.0
  outer loop
    vertex -5149.849999999999 -228.6 3.1259364995568537e-13
    vertex -247.64999999999998 -152.39999999999998 -8.407025076095923e-14
    vertex -5073.65 -228.6 2.7261023902830067e-13
  endloop
endfacet
facet normal -5.637722629613745e-18 1.605592374996812e-17 -1.0
  outer loop
    vertex -5149.849999999999 -228.6 3.1259364995568537e-13
    vertex -5073.65 -228.6 2.7261023902830067e-13
    vertex -5149.849999999999 -3124.2 3.1259364995568527e-13
  endloop
endfacet
facet normal -5.637722629613745e-18 1.605592374996812e-17 -1.0
  outer loop
    vertex -5149.849999999999 -3124.2 3.1259364995568527e-13
    vertex -5073.65 -228.6 2.7261023902830067e-13
    vertex -5089.525 -3200.3999999999996 -9.356208690774533e-14
  endloop
endfacet
facet normal -5.637722629613745e-18 1.605592374996812e-17 -1.0
  outer loop
    vertex -5089.525 -3200.3999999999996 -9.356208690774533e-14
    vertex -5073.65 -228.6 2.7261023902830067e-13
    vertex -5089.525 -3352.7999999999997 -9.356208690774533e-14
  endloop
endfacet
facet normal -5.637722629613745e-18 1.605592374996812e-17 -1.0
  outer loop
    vertex -5073.65 -228.6 2.7261023902830067e-13
    vertex -247.64999999999998 -152.39999999999998 -8.407025076095923e-14
    vertex -4667.25 -228.6 2.712184166533923e-13
  endloop
endfacet
facet normal -5.637722629613745e-18 1.605592374996812e-17 -1.0
  outer loop
    vertex -4667.25 -228.6 2.712184166533923e-13
    vertex -247.64999999999998 -152.39999999999998 -8.407025076095923e-14
    vertex -4591.05 -228.6 2.312350057260075e-13
  endloop
endfacet
facet normal -5.637722629613745e-18 1.605592374996812e-17 -1.0
  outer loop
    vertex -4667.25 -228.6 2.712184166533923e-13
    vertex -4591.05 -228.6 2.312350057260075e-13
    vertex -4667.25 -3276.6 2.712184166533922e-13
  endloop
endfacet
facet normal -5.637722629613745e-18 1.605592374996812e-17 -1.0
  outer loop
    vertex -4591.05 -228.6 2.312350057260075e-13
    vertex -247.64999999999998 -152.39999999999998 -8.407025076095923e-14
    vertex -4184.65 -228.6 2.2984318335109917e-13
  endloop
endfacet
facet normal -5.637722629613745e-18 1.605592374996812e-17 -1.0
  outer loop
    vertex -4184.65 -228.6 2.2984318335109917e-13
    vertex -247.64999999999998 -152.39999999999998 -8.407025076095923e-14
    vertex -4108.45 -228.6 1.8985977242371436e-13
  endloop
endfacet
facet normal -5.637722629613745e-18 1.605592374996812e-17 -1.0
  outer loop
    vertex -4184.65 -228.6 2.2984318335109917e-13
    vertex -4108.45 -228.6 1.8985977242371436e-13
    vertex -4184.65 -3276.6 2.1386726849479162e-13
  endloop
endfacet
facet normal -5.637722629613745e-18 1.605592374996812e-17 -1.0
  outer loop
    vertex -4108.45 -228.6 1.8985977242371436e-13
    vertex -247.64999999999998 -152.39999999999998 -8.407025076095923e-14
    vertex -3702.0499999999997 -228.6 1.88467950048806e-13
  endloop
endfacet
facet normal -5.637722629613745e-18 1.605592374996812e-17 -1.0
  outer loop
    vertex -3702.0499999999997 -228.6 1.88467950048806e-13
    vertex -247.64999999999998 -152.39999999999998 -8.407025076095923e-14
    vertex -3625.85 -228.6 1.4848453912142113e-13
  endloop
endfacet
facet normal -5.637722629613745e-18 1.605592374996812e-17 -1.0
  outer loop
    vertex -3702.0499999999997 -228.6 1.88467950048806e-13
    vertex -3625.85 -228.6 1.4848453912142113e-13
    vertex -3702.0499999999997 -3276.6 1.7449370782966417e-13
  endloop
endfacet
facet normal -5.637722629613745e-18 1.605592374996812e-17 -1.0
  outer loop
    vertex -3625.85 -228.6 1.4848453912142113e-13
    vertex -247.64999999999998 -152.39999999999998 -8.407025076095923e-14
    vertex -3219.45 -228.6 1.470927167465128e-13
  endloop
endfacet
facet normal -5.637722629613745e-18 1.605592374996812e-17 -1.0
  outer loop
    vertex -3219.45 -228.6 1.470927167465128e-13
    vertex -247.64999999999998 -152.39999999999998 -8.407025076095923e-14
    vertex -3143.25 -228.6 1.0710930581912807e-13
  endloop
endfacet
facet normal -5.637722629613745e-18 1.605592374996812e-17 -1.0
  outer loop
    vertex -3219.45 -228.6 1.470927167465128e-13
    vertex -3143.25 -228.6 1.0710930581912807e-13
    vertex -3219.45 -3276.6 1.3512014716453673e-13
  endloop
endfacet
facet normal -5.637722629613745e-18 1.605592374996812e-17 -1.0
  outer loop
    vertex -3143.25 -228.6 1.0710930581912807e-13
    vertex -247.64999999999998 -152.39999999999998 -8.407025076095923e-14
    vertex -2736.85 -228.6 1.0571748344421973e-13
  endloop
endfacet
facet normal -5.637722629613745e-18 1.605592374996812e-17 -1.0
  outer loop
    vertex -2736.85 -228.6 1.0571748344421973e-13
    vertex -247.64999999999998 -152.39999999999998 -8.407025076095923e-14
    vertex -2660.6499999999996 -228.6 6.573407251683497e-14
  endloop
endfacet
facet normal -5.637722629613745e-18 1.605592374996812e-17 -1.0
  outer loop
    vertex -2736.85 -228.6 1.0571748344421973e-13
    vertex -2660.6499999999996 -228.6 6.573407251683497e-14
    vertex -2736.85 -3276.6 9.574658649940928e-14
  endloop
endfacet
facet normal -5.637722629613745e-18 1.605592374996812e-17 -1.0
  outer loop
    vertex -2660.6499999999996 -228.6 6.573407251683497e-14
    vertex -247.64999999999998 -152.39999999999998 -8.407025076095923e-14
    vertex -2254.25 -228.6 6.434225014192662e-14
  endloop
endfacet
facet normal -5.637722629613745e-18 1.605592374996812e-17 -1.0
  outer loop
    vertex -2254.25 -228.6 6.434225014192662e-14
    vertex -247.64999999999998 -152.39999999999998 -8.407025076095923e-14
    vertex -2178.0499999999997 -228.6 2.435883921454182e-14
  endloop
endfacet
facet normal -5.637722629613745e-18 1.605592374996812e-17 -1.0
  outer loop
    vertex -2254.25 -228.6 6.434225014192662e-14
    vertex -2178.0499999999997 -228.6 2.435883921454182e-14
    vertex -2254.25 -3276.6 5.6373025834281915e-14
  endloop
endfacet
facet normal -5.637722629613745e-18 1.605592374996812e-17 -1.0
  outer loop
    vertex -2178.0499999999997 -228.6 2.435883921454182e-14
    vertex -247.64999999999998 -152.39999999999998 -8.407025076095923e-14
    vertex -1771.6499999999999 -228.6 2.2967016839633476e-14
  endloop
endfacet
facet normal -5.637722629613745e-18 1.605592374996812e-17 -1.0
  outer loop
    vertex -1771.6499999999999 -228.6 2.2967016839633476e-14
    vertex -247.64999999999998 -152.39999999999998 -8.407025076095923e-14
    vertex -1695.4499999999998 -228.6 -1.7016394087751343e-14
  endloop
endfacet
facet normal -5.637722629613745e-18 1.605592374996812e-17 -1.0
  outer loop
    vertex -1771.6499999999999 -228.6 2.2967016839633476e-14
    vertex -1695.4499999999998 -228.6 -1.7016394087751343e-14
    vertex -1771.6499999999999 -3276.6 1.6999465169154426e-14
  endloop
endfacet
facet normal -5.637722629613745e-18 1.605592374996812e-17 -1.0
  outer loop
    vertex -1695.4499999999998 -228.6 -1.7016394087751343e-14
    vertex -247.64999999999998 -152.39999999999998 -8.407025076095923e-14
    vertex -1289.05 -228.6 -1.840821646265969e-14
  endloop
endfacet
facet normal -5.637722629613745e-18 1.605592374996812e-17 -1.0
  outer loop
    vertex -1289.05 -228.6 -1.840821646265969e-14
    vertex -247.64999999999998 -152.39999999999998 -8.407025076095923e-14
    vertex -1212.85 -228.6 -5.83916273900445e-14
  endloop
endfacet
facet normal -5.637722629613745e-18 1.605592374996812e-17 -1.0
  outer loop
    vertex -1289.05 -228.6 -1.840821646265969e-14
    vertex -1212.85 -228.6 -5.83916273900445e-14
    vertex -1289.05 -3276.6 -2.2374095495973018e-14
  endloop
endfacet
facet normal -5.637722629613745e-18 1.605592374996812e-17 -1.0
  outer loop
    vertex -1212.85 -228.6 -5.83916273900445e-14
    vertex -247.64999999999998 -152.39999999999998 -8.407025076095923e-14
    vertex -806.4499999999999 -228.6 -5.978344976495283e-14
  endloop
endfacet
facet normal -5.637722629613745e-18 1.605592374996812e-17 -1.0
  outer loop
    vertex -806.4499999999999 -228.6 -5.978344976495283e-14
    vertex -247.64999999999998 -152.39999999999998 -8.407025076095923e-14
    vertex -730.25 -228.6 -7.04987105787506e-14
  endloop
endfacet
facet normal -5.637722629613745e-18 1.605592374996812e-17 -1.0
  outer loop
    vertex -806.4499999999999 -228.6 -5.978344976495283e-14
    vertex -730.25 -228.6 -7.04987105787506e-14
    vertex -806.4499999999999 -3276.6 -6.174765616110045e-14
  endloop
endfacet
facet normal -5.637722629613745e-18 1.605592374996812e-17 -1.0
  outer loop
    vertex -730.25 -228.6 -7.04987105787506e-14
    vertex -247.64999999999998 -152.39999999999998 -8.407025076095923e-14
    vertex -323.84999999999997 -228.6 -7.189053295365895e-14
  endloop
endfacet
facet normal -5.637722629613745e-18 1.605592374996812e-17 -1.0
  outer loop
    vertex -323.84999999999997 -228.6 -7.189053295365895e-14
    vertex -247.64999999999998 -152.39999999999998 -8.407025076095923e-14
    vertex -323.84999999999997 -3276.6 -7.185306671264086e-14
  endloop
endfacet
facet normal -5.637722629613745e-18 1.605592374996812e-17 -1.0
  outer loop
    vertex -5089.525 -3352.7999999999997 -9.356208690774533e-14
    vertex -5013.325 -3276.6 -9.356208690774536e-14
    vertex -247.64999999999998 -3352.7999999999997 -8.206857812379353e-14
  endloop
endfacet
facet normal -5.637722629613745e-18 1.605592374996812e-17 -1.0
  outer loop
    vertex -5013.325 -3276.6 -9.356208690774536e-14
    vertex -5089.525 -3352.7999999999997 -9.356208690774533e-14
    vertex -5073.65 -3124.2 2.740339561869879e-13
  endloop
endfacet
facet normal -5.637722629613745e-18 1.605592374996812e-17 -1.0
  outer loop
    vertex -5073.65 -3124.2 2.740339561869879e-13
    vertex -5089.525 -3352.7999999999997 -9.356208690774533e-14
    vertex -5073.65 -228.6 2.7261023902830067e-13
  endloop
endfacet
facet normal -5.637722629613745e-18 1.605592374996812e-17 -1.0
  outer loop
    vertex -5013.325 -3276.6 -9.356208690774536e-14
    vertex -5073.65 -3124.2 2.740339561869879e-13
    vertex -5013.325 -3124.2 -9.356208690774536e-14
  endloop
endfacet
facet normal -5.637722629613745e-18 1.605592374996812e-17 -1.0
  outer loop
    vertex -247.64999999999998 -3352.7999999999997 -8.206857812379353e-14
    vertex -5013.325 -3276.6 -9.356208690774536e-14
    vertex -4667.25 -3276.6 2.712184166533922e-13
  endloop
endfacet
facet normal -5.637722629613745e-18 1.605592374996812e-17 -1.0
  outer loop
    vertex -247.64999999999998 -3352.7999999999997 -8.206857812379353e-14
    vertex -4667.25 -3276.6 2.712184166533922e-13
    vertex -4591.05 -3276.6 2.1668280802838732e-13
  endloop
endfacet
facet normal -5.637722629613745e-18 1.605592374996812e-17 -1.0
  outer loop
    vertex -4591.05 -3276.6 2.1668280802838732e-13
    vertex -4667.25 -3276.6 2.712184166533922e-13
    vertex -4591.05 -228.6 2.312350057260075e-13
  endloop
endfacet
facet normal -5.637722629613745e-18 1.605592374996812e-17 -1.0
  outer loop
    vertex -247.64999999999998 -3352.7999999999997 -8.206857812379353e-14
    vertex -4591.05 -3276.6 2.1668280802838732e-13
    vertex -4184.65 -3276.6 2.1386726849479162e-13
  endloop
endfacet
facet normal -5.637722629613745e-18 1.605592374996812e-17 -1.0
  outer loop
    vertex -247.64999999999998 -3352.7999999999997 -8.206857812379353e-14
    vertex -4184.65 -3276.6 2.1386726849479162e-13
    vertex -4108.45 -3276.6 1.7730924736325997e-13
  endloop
endfacet
facet normal -5.637722629613745e-18 1.605592374996812e-17 -1.0
  outer loop
    vertex -4108.45 -3276.6 1.7730924736325997e-13
    vertex -4184.65 -3276.6 2.1386726849479162e-13
    vertex -4108.45 -228.6 1.8985977242371436e-13
  endloop
endfacet
facet normal -5.637722629613745e-18 1.605592374996812e-17 -1.0
  outer loop
    vertex -247.64999999999998 -3352.7999999999997 -8.206857812379353e-14
    vertex -4108.45 -3276.6 1.7730924736325997e-13
    vertex -3702.0499999999997 -3276.6 1.7449370782966417e-13
  endloop
endfacet
facet normal -5.637722629613745e-18 1.605592374996812e-17 -1.0
  outer loop
    vertex -247.64999999999998 -3352.7999999999997 -8.206857812379353e-14
    vertex -3702.0499999999997 -3276.6 1.7449370782966417e-13
    vertex -3625.85 -3276.6 1.3793568669813243e-13
  endloop
endfacet
facet normal -5.637722629613745e-18 1.605592374996812e-17 -1.0
  outer loop
    vertex -3625.85 -3276.6 1.3793568669813243e-13
    vertex -3702.0499999999997 -3276.6 1.7449370782966417e-13
    vertex -3625.85 -228.6 1.4848453912142113e-13
  endloop
endfacet
facet normal -5.637722629613745e-18 1.605592374996812e-17 -1.0
  outer loop
    vertex -247.64999999999998 -3352.7999999999997 -8.206857812379353e-14
    vertex -3625.85 -3276.6 1.3793568669813243e-13
    vertex -3219.45 -3276.6 1.3512014716453673e-13
  endloop
endfacet
facet normal -5.637722629613745e-18 1.605592374996812e-17 -1.0
  outer loop
    vertex -247.64999999999998 -3352.7999999999997 -8.206857812379353e-14
    vertex -3219.45 -3276.6 1.3512014716453673e-13
    vertex -3143.25 -3276.6 9.856212603300506e-14
  endloop
endfacet
facet normal -5.637722629613745e-18 1.605592374996812e-17 -1.0
  outer loop
    vertex -3143.25 -3276.6 9.856212603300506e-14
    vertex -3219.45 -3276.6 1.3512014716453673e-13
    vertex -3143.25 -228.6 1.0710930581912807e-13
  endloop
endfacet
facet normal -5.637722629613745e-18 1.605592374996812e-17 -1.0
  outer loop
    vertex -247.64999999999998 -3352.7999999999997 -8.206857812379353e-14
    vertex -3143.25 -3276.6 9.856212603300506e-14
    vertex -2736.85 -3276.6 9.574658649940928e-14
  endloop
endfacet
facet normal -5.637722629613745e-18 1.605592374996812e-17 -1.0
  outer loop
    vertex -247.64999999999998 -3352.7999999999997 -8.206857812379353e-14
    vertex -2736.85 -3276.6 9.574658649940928e-14
    vertex -2660.6499999999996 -3276.6 5.918856536787762e-14
  endloop
endfacet
facet normal -5.637722629613745e-18 1.605592374996812e-17 -1.0
  outer loop
    vertex -2660.6499999999996 -3276.6 5.918856536787762e-14
    vertex -2736.85 -3276.6 9.574658649940928e-14
    vertex -2660.6499999999996 -228.6 6.573407251683497e-14
  endloop
endfacet
facet normal -5.637722629613745e-18 1.605592374996812e-17 -1.0
  outer loop
    vertex -247.64999999999998 -3352.7999999999997 -8.206857812379353e-14
    vertex -2660.6499999999996 -3276.6 5.918856536787762e-14
    vertex -2254.25 -3276.6 5.6373025834281915e-14
  endloop
endfacet
facet normal -5.637722629613745e-18 1.605592374996812e-17 -1.0
  outer loop
    vertex -247.64999999999998 -3352.7999999999997 -8.206857812379353e-14
    vertex -2254.25 -3276.6 5.6373025834281915e-14
    vertex -2178.0499999999997 -3276.6 1.9815004702750156e-14
  endloop
endfacet
facet normal -5.637722629613745e-18 1.605592374996812e-17 -1.0
  outer loop
    vertex -2178.0499999999997 -3276.6 1.9815004702750156e-14
    vertex -2254.25 -3276.6 5.6373025834281915e-14
    vertex -2178.0499999999997 -228.6 2.435883921454182e-14
  endloop
endfacet
facet normal -5.637722629613745e-18 1.605592374996812e-17 -1.0
  outer loop
    vertex -247.64999999999998 -3352.7999999999997 -8.206857812379353e-14
    vertex -2178.0499999999997 -3276.6 1.9815004702750156e-14
    vertex -1771.6499999999999 -3276.6 1.6999465169154426e-14
  endloop
endfacet
facet normal -5.637722629613745e-18 1.605592374996812e-17 -1.0
  outer loop
    vertex -247.64999999999998 -3352.7999999999997 -8.206857812379353e-14
    vertex -1771.6499999999999 -3276.6 1.6999465169154426e-14
    vertex -1695.4499999999998 -3276.6 -1.9558555962377297e-14
  endloop
endfacet
facet normal -5.637722629613745e-18 1.605592374996812e-17 -1.0
  outer loop
    vertex -1695.4499999999998 -3276.6 -1.9558555962377297e-14
    vertex -1771.6499999999999 -3276.6 1.6999465169154426e-14
    vertex -1695.4499999999998 -228.6 -1.7016394087751343e-14
  endloop
endfacet
facet normal -5.637722629613745e-18 1.605592374996812e-17 -1.0
  outer loop
    vertex -247.64999999999998 -3352.7999999999997 -8.206857812379353e-14
    vertex -1695.4499999999998 -3276.6 -1.9558555962377297e-14
    vertex -1289.05 -3276.6 -2.2374095495973018e-14
  endloop
endfacet
facet normal -5.637722629613745e-18 1.605592374996812e-17 -1.0
  outer loop
    vertex -247.64999999999998 -3352.7999999999997 -8.206857812379353e-14
    vertex -1289.05 -3276.6 -2.2374095495973018e-14
    vertex -1212.85 -3276.6 -5.893211662750474e-14
  endloop
endfacet
facet normal -5.637722629613745e-18 1.605592374996812e-17 -1.0
  outer loop
    vertex -1212.85 -3276.6 -5.893211662750474e-14
    vertex -1289.05 -3276.6 -2.2374095495973018e-14
    vertex -1212.85 -228.6 -5.83916273900445e-14
  endloop
endfacet
facet normal -5.637722629613745e-18 1.605592374996812e-17 -1.0
  outer loop
    vertex -247.64999999999998 -3352.7999999999997 -8.206857812379353e-14
    vertex -1212.85 -3276.6 -5.893211662750474e-14
    vertex -806.4499999999999 -3276.6 -6.174765616110045e-14
  endloop
endfacet
facet normal -5.637722629613745e-18 1.605592374996812e-17 -1.0
  outer loop
    vertex -247.64999999999998 -3352.7999999999997 -8.206857812379353e-14
    vertex -806.4499999999999 -3276.6 -6.174765616110045e-14
    vertex -730.25 -3276.6 -6.903752717904515e-14
  endloop
endfacet
facet normal -5.637722629613745e-18 1.605592374996812e-17 -1.0
  outer loop
    vertex -730.25 -3276.6 -6.903752717904515e-14
    vertex -806.4499999999999 -3276.6 -6.174765616110045e-14
    vertex -730.25 -228.6 -7.04987105787506e-14
  endloop
endfacet
facet normal -5.637722629613745e-18 1.605592374996812e-17 -1.0
  outer loop
    vertex -247.64999999999998 -3352.7999999999997 -8.206857812379353e-14
    vertex -730.25 -3276.6 -6.903752717904515e-14
    vertex -323.84999999999997 -3276.6 -7.185306671264086e-14
  endloop
endfacet
facet normal -5.637722629613745e-18 1.605592374996812e-17 -1.0
  outer loop
    vertex -247.64999999999998 -3352.7999999999997 -8.206857812379353e-14
    vertex -323.84999999999997 -3276.6 -7.185306671264086e-14
    vertex -247.64999999999998 -152.39999999999998 -8.407025076095923e-14
  endloop
endfacet
facet normal 1.0 -2.545137952121914e-36 -5.176380300816998e-18
  outer loop
    vertex -4591.05 -228.6 2.312350057260075e-13
    vertex -4591.05 -3276.6 228.60000000000022
    vertex -4591.05 -3276.6 2.1668280802838732e-13
  endloop
endfacet
facet normal 1.0 -2.545137952121914e-36 -5.176380300816998e-18
  outer loop
    vertex -4591.05 -3276.6 228.60000000000022
    vertex -4591.05 -228.6 2.312350057260075e-13
    vertex -4591.05 -228.6 228.60000000000022
  endloop
endfacet
facet normal 1.0 -2.545137952121986e-36 -5.176380300816998e-18
  outer loop
    vertex -3143.25 -228.6 1.0710930581912807e-13
    vertex -3143.25 -3276.6 228.60000000000008
    vertex -3143.25 -3276.6 9.856212603300506e-14
  endloop
endfacet
facet normal 1.0 -2.545137952121986e-36 -5.176380300816998e-18
  outer loop
    vertex -3143.25 -3276.6 228.60000000000008
    vertex -3143.25 -228.6 1.0710930581912807e-13
    vertex -3143.25 -228.6 228.60000000000008
  endloop
endfacet
facet normal -2.240677613836809e-34 -1.0 -6.542583297119683e-17
  outer loop
    vertex -2736.85 -228.6 228.60000000000008
    vertex -3143.25 -228.6 1.0710930581912807e-13
    vertex -2736.85 -228.6 1.0571748344421973e-13
  endloop
endfacet
facet normal -2.240677613836809e-34 -1.0 -6.542583297119683e-17
  outer loop
    vertex -3143.25 -228.6 1.0710930581912807e-13
    vertex -2736.85 -228.6 228.60000000000008
    vertex -3143.25 -228.6 228.60000000000008
  endloop
endfacet
facet normal -4.489774707685147e-34 -1.0 -1.3109750741889031e-16
  outer loop
    vertex -5149.849999999999 -228.6 228.6000000000003
    vertex -5556.25 -228.6 3.139854723305937e-13
    vertex -5149.849999999999 -228.6 3.1259364995568537e-13
  endloop
endfacet
facet normal -4.489774707685147e-34 -1.0 -1.3109750741889031e-16
  outer loop
    vertex -5556.25 -228.6 3.139854723305937e-13
    vertex -5149.849999999999 -228.6 228.6000000000003
    vertex -5556.25 -228.6 228.6000000000003
  endloop
endfacet
facet normal 8.41948001152887e-37 -1.0 2.45841476496644e-19
  outer loop
    vertex -323.84999999999997 -228.6 228.5999999999999
    vertex -730.25 -228.6 -7.04987105787506e-14
    vertex -323.84999999999997 -228.6 -7.189053295365895e-14
  endloop
endfacet
facet normal 8.41948001152887e-37 -1.0 2.45841476496644e-19
  outer loop
    vertex -730.25 -228.6 -7.04987105787506e-14
    vertex -323.84999999999997 -228.6 228.5999999999999
    vertex -730.25 -228.6 228.5999999999999
  endloop
endfacet
facet normal -5.176380300816998e-18 6.542583297119683e-17 -1.0
  outer loop
    vertex -2736.85 -228.6 228.60000000000008
    vertex -3143.25 -3276.6 228.60000000000008
    vertex -3143.25 -228.6 228.60000000000008
  endloop
endfacet
facet normal -5.176380300816998e-18 6.542583297119683e-17 -1.0
  outer loop
    vertex -3143.25 -3276.6 228.60000000000008
    vertex -2736.85 -228.6 228.60000000000008
    vertex -2736.85 -3276.6 228.60000000000008
  endloop
endfacet
facet normal -1.0 -1.4327873859195474e-49 5.176380300816998e-18
  outer loop
    vertex -4667.25 -228.6 228.60000000000025
    vertex -4667.25 -3276.6 2.712184166533922e-13
    vertex -4667.25 -3276.6 228.60000000000025
  endloop
endfacet
facet normal -1.0 -1.4327873859195474e-49 5.176380300816998e-18
  outer loop
    vertex -4667.25 -3276.6 2.712184166533922e-13
    vertex -4667.25 -228.6 228.60000000000025
    vertex -4667.25 -228.6 2.712184166533923e-13
  endloop
endfacet
facet normal 1.0 -2.5451379521218427e-36 -5.176380300816998e-18
  outer loop
    vertex -5556.25 -228.6 3.139854723305937e-13
    vertex -5556.25 -3124.2 228.6000000000003
    vertex -5556.25 -3124.2 3.15409189489281e-13
  endloop
endfacet
facet normal 1.0 -2.5451379521218427e-36 -5.176380300816998e-18
  outer loop
    vertex -5556.25 -3124.2 228.6000000000003
    vertex -5556.25 -228.6 3.139854723305937e-13
    vertex -5556.25 -228.6 228.6000000000003
  endloop
endfacet
facet normal 1.8198936579223235e-34 1.0 1.3134334889538694e-17
  outer loop
    vertex -6315.074999999995 -152.39999999999998 4.00741339852274e-29
    vertex -247.64999999999998 -152.39999999999998 304.7999999999999
    vertex -247.64999999999998 -152.39999999999998 -8.407025076095923e-14
  endloop
endfacet
facet normal 1.8198936579223235e-34 1.0 1.3134334889538694e-17
  outer loop
    vertex -247.64999999999998 -152.39999999999998 304.7999999999999
    vertex -6315.074999999995 -152.39999999999998 4.00741339852274e-29
    vertex -6315.074999999995 -152.39999999999998 304.79999999999995
  endloop
endfacet
facet normal -4.039955288915479e-34 -1.0 -1.179631725293516e-16
  outer loop
    vertex -4667.25 -228.6 228.60000000000025
    vertex -5073.65 -228.6 2.7261023902830067e-13
    vertex -4667.25 -228.6 2.712184166533923e-13
  endloop
endfacet
facet normal -4.039955288915479e-34 -1.0 -1.179631725293516e-16
  outer loop
    vertex -5073.65 -228.6 2.7261023902830067e-13
    vertex -4667.25 -228.6 228.60000000000025
    vertex -5073.65 -228.6 228.60000000000025
  endloop
endfacet
facet normal -1.0 0.0 5.176380300816998e-18
  outer loop
    vertex -323.84999999999997 -228.6 228.5999999999999
    vertex -323.84999999999997 -3276.6 -7.185306671264086e-14
    vertex -323.84999999999997 -3276.6 228.5999999999999
  endloop
endfacet
facet normal -1.0 0.0 5.176380300816998e-18
  outer loop
    vertex -323.84999999999997 -3276.6 -7.185306671264086e-14
    vertex -323.84999999999997 -228.6 228.5999999999999
    vertex -323.84999999999997 -228.6 -7.189053295365895e-14
  endloop
endfacet
facet normal -2.6491818210224926e-32 -1.0 2.3874115971803683e-17
  outer loop
    vertex -6115.049999999999 -228.6 1.3584814982517041e-13
    vertex -6238.874999999995 -228.6 228.6
    vertex -6238.874999999995 -228.6 -1.5537708890965788e-15
  endloop
endfacet
facet normal -2.6491818210224926e-32 -1.0 2.3874115971803683e-17
  outer loop
    vertex -6238.874999999995 -228.6 228.6
    vertex -6115.049999999999 -228.6 1.3584814982517041e-13
    vertex -6115.049999999999 -228.6 228.60000000000014
  endloop
endfacet
facet normal 1.0 -2.5451379521218427e-36 -5.176380300816998e-18
  outer loop
    vertex -5073.65 -228.6 2.7261023902830067e-13
    vertex -5073.65 -3124.2 228.60000000000025
    vertex -5073.65 -3124.2 2.740339561869879e-13
  endloop
endfacet
facet normal 1.0 -2.5451379521218427e-36 -5.176380300816998e-18
  outer loop
    vertex -5073.65 -3124.2 228.60000000000025
    vertex -5073.65 -228.6 2.7261023902830067e-13
    vertex -5073.65 -228.6 228.60000000000025
  endloop
endfacet
facet normal -5.176380300816998e-18 1.4423184230842902e-16 -1.0
  outer loop
    vertex -5632.45 -228.6 228.60000000000034
    vertex -6038.849999999999 -3124.2 228.60000000000034
    vertex -6038.849999999999 -228.6 228.60000000000034
  endloop
endfacet
facet normal -5.176380300816998e-18 1.4423184230842902e-16 -1.0
  outer loop
    vertex -6038.849999999999 -3124.2 228.60000000000034
    vertex -5632.45 -228.6 228.60000000000034
    vertex -5632.45 -3124.2 228.60000000000034
  endloop
endfacet
facet normal 0.0 0.0 -1.0
  outer loop
    vertex -4667.25 -228.6 228.60000000000025
    vertex -5073.65 -3124.2 228.60000000000025
    vertex -5073.65 -228.6 228.60000000000025
  endloop
endfacet
facet normal 0.0 0.0 -1.0
  outer loop
    vertex -5073.65 -3124.2 228.60000000000025
    vertex -4667.25 -228.6 228.60000000000025
    vertex -5013.325 -3124.2 228.60000000000025
  endloop
endfacet
facet normal 0.0 0.0 -1.0
  outer loop
    vertex -5013.325 -3124.2 228.60000000000025
    vertex -4667.25 -228.6 228.60000000000025
    vertex -5013.325 -3276.6 228.60000000000025
  endloop
endfacet
facet normal 0.0 0.0 -1.0
  outer loop
    vertex -5013.325 -3276.6 228.60000000000025
    vertex -4667.25 -228.6 228.60000000000025
    vertex -4667.25 -3276.6 228.60000000000025
  endloop
endfacet
facet normal 9.992383219063097e-34 1.0 1.4423184230842902e-16
  outer loop
    vertex -6038.849999999999 -3124.2 3.5376487777413445e-13
    vertex -5632.45 -3124.2 228.60000000000034
    vertex -5632.45 -3124.2 3.5094933824053875e-13
  endloop
endfacet
facet normal 9.992383219063097e-34 1.0 1.4423184230842902e-16
  outer loop
    vertex -5632.45 -3124.2 228.60000000000034
    vertex -6038.849999999999 -3124.2 3.5376487777413445e-13
    vertex -6038.849999999999 -3124.2 228.60000000000034
  endloop
endfacet
facet normal -1.0 -1.4327873859195474e-49 5.176380300816998e-18
  outer loop
    vertex -5632.45 -228.6 228.60000000000034
    vertex -5632.45 -3124.2 3.5094933824053875e-13
    vertex -5632.45 -3124.2 228.60000000000034
  endloop
endfacet
facet normal -1.0 -1.4327873859195474e-49 5.176380300816998e-18
  outer loop
    vertex -5632.45 -3124.2 3.5094933824053875e-13
    vertex -5632.45 -228.6 228.60000000000034
    vertex -5632.45 -228.6 3.5094933824053885e-13
  endloop
endfacet
facet normal -1.0 -0.0 -5.51359018827496e-16
  outer loop
    vertex -6115.049999999999 -228.6 228.60000000000014
    vertex -6115.049999999999 -3124.2 1.3584814982517041e-13
    vertex -6115.049999999999 -3124.2 228.60000000000014
  endloop
endfacet
facet normal -1.0 -0.0 -5.51359018827496e-16
  outer loop
    vertex -6115.049999999999 -3124.2 1.3584814982517041e-13
    vertex -6115.049999999999 -228.6 228.60000000000014
    vertex -6115.049999999999 -228.6 1.3584814982517041e-13
  endloop
endfacet
facet normal -1.703189950969099e-36 1.0 -2.45841476496644e-19
  outer loop
    vertex -730.25 -3276.6 -6.903752717904515e-14
    vertex -323.84999999999997 -3276.6 228.5999999999999
    vertex -323.84999999999997 -3276.6 -7.185306671264086e-14
  endloop
endfacet
facet normal -1.703189950969099e-36 1.0 -2.45841476496644e-19
  outer loop
    vertex -323.84999999999997 -3276.6 228.5999999999999
    vertex -730.25 -3276.6 -6.903752717904515e-14
    vertex -730.25 -3276.6 228.5999999999999
  endloop
endfacet
facet normal 4.532702245296154e-34 1.0 6.542583297119683e-17
  outer loop
    vertex -3143.25 -3276.6 9.856212603300506e-14
    vertex -2736.85 -3276.6 228.60000000000008
    vertex -2736.85 -3276.6 9.574658649940928e-14
  endloop
endfacet
facet normal 4.532702245296154e-34 1.0 6.542583297119683e-17
  outer loop
    vertex -2736.85 -3276.6 228.60000000000008
    vertex -3143.25 -3276.6 9.856212603300506e-14
    vertex -3143.25 -3276.6 228.60000000000008
  endloop
endfacet
facet normal -5.176380300816998e-18 2.6022828302580747e-17 -1.0
  outer loop
    vertex -1289.05 -228.6 228.6
    vertex -1695.4499999999998 -3276.6 228.6
    vertex -1695.4499999999998 -228.6 228.6
  endloop
endfacet
facet normal -5.176380300816998e-18 2.6022828302580747e-17 -1.0
  outer loop
    vertex -1695.4499999999998 -3276.6 228.6
    vertex -1289.05 -228.6 228.6
    vertex -1289.05 -3276.6 228.6
  endloop
endfacet
facet normal 1.0 -2.5451379521218427e-36 -5.176380300816998e-18
  outer loop
    vertex -6038.849999999999 -228.6 3.5234116061544715e-13
    vertex -6038.849999999999 -3124.2 228.60000000000034
    vertex -6038.849999999999 -3124.2 3.5376487777413445e-13
  endloop
endfacet
facet normal 1.0 -2.5451379521218427e-36 -5.176380300816998e-18
  outer loop
    vertex -6038.849999999999 -3124.2 228.60000000000034
    vertex -6038.849999999999 -228.6 3.5234116061544715e-13
    vertex -6038.849999999999 -228.6 228.60000000000034
  endloop
endfacet
facet normal 1.8028617584126404e-34 1.0 2.6022828302580747e-17
  outer loop
    vertex -1695.4499999999998 -3276.6 -1.9558555962377297e-14
    vertex -1289.05 -3276.6 228.6
    vertex -1289.05 -3276.6 -2.2374095495973018e-14
  endloop
endfacet
facet normal 1.8028617584126404e-34 1.0 2.6022828302580747e-17
  outer loop
    vertex -1289.05 -3276.6 228.6
    vertex -1695.4499999999998 -3276.6 -1.9558555962377297e-14
    vertex -1695.4499999999998 -3276.6 228.6
  endloop
endfacet
facet normal -1.0 -3.5819684647988684e-50 5.176380300816998e-18
  outer loop
    vertex -1289.05 -228.6 228.6
    vertex -1289.05 -3276.6 -2.2374095495973018e-14
    vertex -1289.05 -3276.6 228.6
  endloop
endfacet
facet normal -1.0 -3.5819684647988684e-50 5.176380300816998e-18
  outer loop
    vertex -1289.05 -3276.6 -2.2374095495973018e-14
    vertex -1289.05 -228.6 228.6
    vertex -1289.05 -228.6 -1.840821646265969e-14
  endloop
endfacet
facet normal -3.140316451376144e-34 -1.0 -9.169450275027422e-17
  outer loop
    vertex -3702.0499999999997 -228.6 228.60000000000016
    vertex -4108.45 -228.6 1.8985977242371436e-13
    vertex -3702.0499999999997 -228.6 1.88467950048806e-13
  endloop
endfacet
facet normal -3.140316451376144e-34 -1.0 -9.169450275027422e-17
  outer loop
    vertex -4108.45 -228.6 1.8985977242371436e-13
    vertex -3702.0499999999997 -228.6 228.60000000000016
    vertex -4108.45 -228.6 228.60000000000016
  endloop
endfacet
facet normal 1.0 0.0 0.0
  outer loop
    vertex -5013.325 -3124.2 -9.356208690774536e-14
    vertex -5013.325 -3276.6 228.60000000000025
    vertex -5013.325 -3276.6 -9.356208690774536e-14
  endloop
endfacet
facet normal 1.0 0.0 0.0
  outer loop
    vertex -5013.325 -3276.6 228.60000000000025
    vertex -5013.325 -3124.2 -9.356208690774536e-14
    vertex -5013.325 -3124.2 228.60000000000025
  endloop
endfacet
facet normal 0.0 1.0 0.0
  outer loop
    vertex -5013.325 -3276.6 228.60000000000025
    vertex -4667.25 -3276.6 2.712184166533922e-13
    vertex -5013.325 -3276.6 -9.356208690774536e-14
  endloop
endfacet
facet normal 0.0 1.0 0.0
  outer loop
    vertex -4667.25 -3276.6 2.712184166533922e-13
    vertex -5013.325 -3276.6 228.60000000000025
    vertex -4667.25 -3276.6 228.60000000000025
  endloop
endfacet
endsolid house assy
