solid garage east wall
facet normal 0.5328451513267879 -2.1783926844414764e-15 0.8462127656254855
  outer loop
    vertex -1257.2066165420283 19.049999999999997 3591.983333333332
    vertex -1808.4899627625152 0.0 3939.1166666666654
    vertex -1257.2066165420283 0.0 3591.983333333332
  endloop
endfacet
facet normal 2.1657749978479787e-17 0.9984975925186969 0.054795599589440726
  outer loop
    vertex -3485.5112562080326 19.049999999999997 3591.9833333333327
    vertex -1808.4899627625152 0.0 3939.1166666666654
    vertex -1257.2066165420283 19.049999999999997 3591.983333333332
  endloop
endfacet
facet normal 2.1657749978479787e-17 0.9984975925186969 0.054795599589440726
  outer loop
    vertex -1808.4899627625152 0.0 3939.1166666666654
    vertex -3485.5112562080326 19.049999999999997 3591.9833333333327
    vertex -2903.585635664912 0.0 3939.116666666666
  endloop
endfacet
facet normal -3.239733951460369e-16 0.0 -1.0
  outer loop
    vertex -1257.2066165420283 19.049999999999997 3591.983333333332
    vertex -3485.5112562080326 0.0 3591.9833333333327
    vertex -3485.5112562080326 19.049999999999997 3591.9833333333327
  endloop
endfacet
facet normal -3.239733951460369e-16 0.0 -1.0
  outer loop
    vertex -3485.5112562080326 0.0 3591.9833333333327
    vertex -1257.2066165420283 19.049999999999997 3591.983333333332
    vertex -1257.2066165420283 0.0 3591.983333333332
  endloop
endfacet
facet normal -0.5122998592680197 -1.984114737118565e-15 0.8588066454062679
  outer loop
    vertex -2903.585635664912 0.0 3939.116666666666
    vertex -3485.5112562080326 19.049999999999997 3591.9833333333327
    vertex -3485.5112562080326 0.0 3591.9833333333327
  endloop
endfacet
facet normal 0.0 -1.0 0.0
  outer loop
    vertex -1808.4899627625152 0.0 3939.1166666666654
    vertex -3485.5112562080326 0.0 3591.9833333333327
    vertex -1257.2066165420283 0.0 3591.983333333332
  endloop
endfacet
facet normal 0.0 -1.0 0.0
  outer loop
    vertex -3485.5112562080326 0.0 3591.9833333333327
    vertex -1808.4899627625152 0.0 3939.1166666666654
    vertex -2903.585635664912 0.0 3939.116666666666
  endloop
endfacet
facet normal -1.0 0.0 0.0
  outer loop
    vertex -6315.075 0.0 1784.35
    vertex -6315.075 -152.39999999999998 0.0
    vertex -6315.075 -152.39999999999998 1784.35
  endloop
endfacet
facet normal -1.0 0.0 0.0
  outer loop
    vertex -6315.075 -152.39999999999998 0.0
    vertex -6315.075 0.0 1784.35
    vertex -6315.075 0.0 0.0
  endloop
endfacet
facet normal -0.510583665434569 0.0 0.8598280761823263
  outer loop
    vertex -2330.45 -152.39999999999998 4387.849999999999
    vertex -6543.674999999999 0.0 1885.9499999999998
    vertex -6543.674999999999 -152.39999999999998 1885.9499999999998
  endloop
endfacet
facet normal -0.510583665434569 0.0 0.8598280761823263
  outer loop
    vertex -6543.674999999999 0.0 1885.9499999999998
    vertex -2330.45 -152.39999999999998 4387.849999999999
    vertex -2330.45 0.0 4387.849999999999
  endloop
endfacet
facet normal -1.0 0.0 0.0
  outer loop
    vertex -6543.674999999999 0.0 1885.9499999999998
    vertex -6543.674999999999 -152.39999999999998 1784.35
    vertex -6543.674999999999 -152.39999999999998 1885.9499999999998
  endloop
endfacet
facet normal -1.0 0.0 0.0
  outer loop
    vertex -6543.674999999999 -152.39999999999998 1784.35
    vertex -6543.674999999999 0.0 1885.9499999999998
    vertex -6543.674999999999 0.0 1784.35
  endloop
endfacet
facet normal 0.0 0.0 -1.0
  outer loop
    vertex -6315.075 0.0 1784.35
    vertex -6543.674999999999 -152.39999999999998 1784.35
    vertex -6543.674999999999 0.0 1784.35
  endloop
endfacet
facet normal 0.0 0.0 -1.0
  outer loop
    vertex -6543.674999999999 -152.39999999999998 1784.35
    vertex -6315.075 0.0 1784.35
    vertex -6315.075 -152.39999999999998 1784.35
  endloop
endfacet
facet normal 0.5328451513267882 0.0 0.8462127656254852
  outer loop
    vertex 127.0 -152.39999999999998 2840.4373748074077
    vertex -2330.45 0.0 4387.849999999999
    vertex -2330.45 -152.39999999999998 4387.849999999999
  endloop
endfacet
facet normal 0.5328451513267882 0.0 0.8462127656254852
  outer loop
    vertex -2330.45 0.0 4387.849999999999
    vertex 127.0 -152.39999999999998 2840.4373748074077
    vertex 127.0 0.0 2840.4373748074077
  endloop
endfacet
facet normal 0.0 0.0 1.0
  outer loop
    vertex -1920.875 -152.39999999999998 1022.3499999999999
    vertex -2943.225 0.0 1022.3499999999999
    vertex -2943.225 -152.39999999999998 1022.3499999999999
  endloop
endfacet
facet normal 0.0 0.0 1.0
  outer loop
    vertex -2943.225 0.0 1022.3499999999999
    vertex -1920.875 -152.39999999999998 1022.3499999999999
    vertex -1920.875 0.0 1022.3499999999999
  endloop
endfacet
facet normal -1.0 0.0 0.0
  outer loop
    vertex -1920.875 0.0 2743.2
    vertex -1920.875 -152.39999999999998 1022.3499999999999
    vertex -1920.875 -152.39999999999998 2743.2
  endloop
endfacet
facet normal -1.0 0.0 0.0
  outer loop
    vertex -1920.875 -152.39999999999998 1022.3499999999999
    vertex -1920.875 0.0 2743.2
    vertex -1920.875 0.0 1022.3499999999999
  endloop
endfacet
facet normal -0.0 -0.0 -1.0
  outer loop
    vertex -1920.875 0.0 2743.2
    vertex -2943.225 -152.39999999999998 2743.2
    vertex -2943.225 0.0 2743.2
  endloop
endfacet
facet normal -0.0 -0.0 -1.0
  outer loop
    vertex -2943.225 -152.39999999999998 2743.2
    vertex -1920.875 0.0 2743.2
    vertex -1920.875 -152.39999999999998 2743.2
  endloop
endfacet
facet normal 1.0 0.0 0.0
  outer loop
    vertex -2943.225 0.0 1022.3499999999999
    vertex -2943.225 -152.39999999999998 2743.2
    vertex -2943.225 -152.39999999999998 1022.3499999999999
  endloop
endfacet
facet normal 1.0 0.0 0.0
  outer loop
    vertex -2943.225 -152.39999999999998 2743.2
    vertex -2943.225 0.0 1022.3499999999999
    vertex -2943.225 0.0 2743.2
  endloop
endfacet
facet normal -6.326704001772526e-33 -0.0 -1.0
  outer loop
    vertex -82.55 0.0 -4.00741339852274e-29
    vertex -6315.075 -152.39999999999998 0.0
    vertex -6315.075 0.0 0.0
  endloop
endfacet
facet normal -6.326704001772526e-33 -0.0 -1.0
  outer loop
    vertex -6315.075 -152.39999999999998 0.0
    vertex -82.55 0.0 -4.00741339852274e-29
    vertex -82.55 -152.39999999999998 -4.00741339852274e-29
  endloop
endfacet
facet normal 0.0 -1.0 0.0
  outer loop
    vertex -82.55 -152.39999999999998 -4.00741339852274e-29
    vertex -1920.875 -152.39999999999998 1022.3499999999999
    vertex -6315.075 -152.39999999999998 0.0
  endloop
endfacet
facet normal 0.0 -1.0 0.0
  outer loop
    vertex -1920.875 -152.39999999999998 1022.3499999999999
    vertex -82.55 -152.39999999999998 -4.00741339852274e-29
    vertex -82.55 -152.39999999999998 2840.4373748074077
  endloop
endfacet
facet normal 0.0 -1.0 0.0
  outer loop
    vertex -1920.875 -152.39999999999998 1022.3499999999999
    vertex -82.55 -152.39999999999998 2840.4373748074077
    vertex -1920.875 -152.39999999999998 2743.2
  endloop
endfacet
facet normal 0.0 -1.0 0.0
  outer loop
    vertex -1920.875 -152.39999999999998 2743.2
    vertex -82.55 -152.39999999999998 2840.4373748074077
    vertex -2943.225 -152.39999999999998 2743.2
  endloop
endfacet
facet normal 0.0 -1.0 0.0
  outer loop
    vertex -2330.45 -152.39999999999998 4387.849999999999
    vertex -82.55 -152.39999999999998 2840.4373748074077
    vertex 127.0 -152.39999999999998 2840.4373748074077
  endloop
endfacet
facet normal 0.0 -1.0 0.0
  outer loop
    vertex -6315.075 -152.39999999999998 0.0
    vertex -2943.225 -152.39999999999998 1022.3499999999999
    vertex -6315.075 -152.39999999999998 1784.35
  endloop
endfacet
facet normal 0.0 -1.0 0.0
  outer loop
    vertex -2943.225 -152.39999999999998 1022.3499999999999
    vertex -6315.075 -152.39999999999998 0.0
    vertex -1920.875 -152.39999999999998 1022.3499999999999
  endloop
endfacet
facet normal 0.0 -1.0 0.0
  outer loop
    vertex -6315.075 -152.39999999999998 1784.35
    vertex -2943.225 -152.39999999999998 1022.3499999999999
    vertex -2943.225 -152.39999999999998 2743.2
  endloop
endfacet
facet normal 0.0 -1.0 0.0
  outer loop
    vertex -6315.075 -152.39999999999998 1784.35
    vertex -2943.225 -152.39999999999998 2743.2
    vertex -6543.674999999999 -152.39999999999998 1784.35
  endloop
endfacet
facet normal 0.0 -1.0 0.0
  outer loop
    vertex -6543.674999999999 -152.39999999999998 1784.35
    vertex -2943.225 -152.39999999999998 2743.2
    vertex -6543.674999999999 -152.39999999999998 1885.9499999999998
  endloop
endfacet
facet normal 0.0 -1.0 0.0
  outer loop
    vertex -6543.674999999999 -152.39999999999998 1885.9499999999998
    vertex -2943.225 -152.39999999999998 2743.2
    vertex -2330.45 -152.39999999999998 4387.849999999999
  endloop
endfacet
facet normal 0.0 -1.0 0.0
  outer loop
    vertex -2330.45 -152.39999999999998 4387.849999999999
    vertex -2943.225 -152.39999999999998 2743.2
    vertex -82.55 -152.39999999999998 2840.4373748074077
  endloop
endfacet
facet normal 1.0 0.0 0.0
  outer loop
    vertex -82.55 0.0 -4.00741339852274e-29
    vertex -82.55 -152.39999999999998 2840.4373748074077
    vertex -82.55 -152.39999999999998 -4.00741339852274e-29
  endloop
endfacet
facet normal 1.0 0.0 0.0
  outer loop
    vertex -82.55 -152.39999999999998 2840.4373748074077
    vertex -82.55 0.0 -4.00741339852274e-29
    vertex -82.55 0.0 2840.4373748074077
  endloop
endfacet
facet normal 0.0 1.0 0.0
  outer loop
    vertex -6543.674999999999 0.0 1885.9499999999998
    vertex -6315.075 0.0 1784.35
    vertex -6543.674999999999 0.0 1784.35
  endloop
endfacet
facet normal 0.0 1.0 0.0
  outer loop
    vertex -6315.075 0.0 1784.35
    vertex -2943.225 0.0 1022.3499999999999
    vertex -6315.075 0.0 0.0
  endloop
endfacet
facet normal 0.0 1.0 0.0
  outer loop
    vertex -2943.225 0.0 1022.3499999999999
    vertex -6315.075 0.0 1784.35
    vertex -2943.225 0.0 2743.2
  endloop
endfacet
facet normal 0.0 1.0 0.0
  outer loop
    vertex -2943.225 0.0 2743.2
    vertex -6315.075 0.0 1784.35
    vertex -6543.674999999999 0.0 1885.9499999999998
  endloop
endfacet
facet normal 0.0 1.0 0.0
  outer loop
    vertex -2943.225 0.0 2743.2
    vertex -6543.674999999999 0.0 1885.9499999999998
    vertex -2330.45 0.0 4387.849999999999
  endloop
endfacet
facet normal 0.0 1.0 0.0
  outer loop
    vertex -2943.225 0.0 2743.2
    vertex -2330.45 0.0 4387.849999999999
    vertex -1920.875 0.0 2743.2
  endloop
endfacet
facet normal 0.0 1.0 0.0
  outer loop
    vertex -1920.875 0.0 2743.2
    vertex -2330.45 0.0 4387.849999999999
    vertex -82.55 0.0 2840.4373748074077
  endloop
endfacet
facet normal 0.0 1.0 0.0
  outer loop
    vertex -82.55 0.0 2840.4373748074077
    vertex -2330.45 0.0 4387.849999999999
    vertex 127.0 0.0 2840.4373748074077
  endloop
endfacet
facet normal 0.0 1.0 0.0
  outer loop
    vertex -82.55 0.0 -4.00741339852274e-29
    vertex -1920.875 0.0 1022.3499999999999
    vertex -82.55 0.0 2840.4373748074077
  endloop
endfacet
facet normal 0.0 1.0 0.0
  outer loop
    vertex -1920.875 0.0 1022.3499999999999
    vertex -82.55 0.0 -4.00741339852274e-29
    vertex -6315.075 0.0 0.0
  endloop
endfacet
facet normal 0.0 1.0 0.0
  outer loop
    vertex -1920.875 0.0 1022.3499999999999
    vertex -6315.075 0.0 0.0
    vertex -2943.225 0.0 1022.3499999999999
  endloop
endfacet
facet normal 0.0 1.0 0.0
  outer loop
    vertex -82.55 0.0 2840.4373748074077
    vertex -1920.875 0.0 1022.3499999999999
    vertex -1920.875 0.0 2743.2
  endloop
endfacet
facet normal -0.0 -0.0 -1.0
  outer loop
    vertex 127.0 0.0 2840.4373748074077
    vertex -82.55 -152.39999999999998 2840.4373748074077
    vertex -82.55 0.0 2840.4373748074077
  endloop
endfacet
facet normal -0.0 -0.0 -1.0
  outer loop
    vertex -82.55 -152.39999999999998 2840.4373748074077
    vertex 127.0 0.0 2840.4373748074077
    vertex 127.0 -152.39999999999998 2840.4373748074077
  endloop
endfacet
facet normal 0.5328451513267882 0.0 0.8462127656254853
  outer loop
    vertex 127.0 0.0 2840.4373748074077
    vertex -2330.45 19.049999999999997 4387.849999999999
    vertex -2330.45 0.0 4387.849999999999
  endloop
endfacet
facet normal 0.5328451513267882 0.0 0.8462127656254853
  outer loop
    vertex -2330.45 19.049999999999997 4387.849999999999
    vertex 127.0 0.0 2840.4373748074077
    vertex 127.0 19.049999999999997 2840.4373748074077
  endloop
endfacet
facet normal -1.0 0.0 0.0
  outer loop
    vertex -82.55 19.049999999999997 2852.3229216451396
    vertex -82.55 0.0 2840.4373748074077
    vertex -82.55 0.0 2852.3229216451396
  endloop
endfacet
facet normal -1.0 0.0 0.0
  outer loop
    vertex -82.55 0.0 2840.4373748074077
    vertex -82.55 19.049999999999997 2852.3229216451396
    vertex -82.55 19.049999999999997 2840.4373748074077
  endloop
endfacet
facet normal 0.0 1.0 0.0
  outer loop
    vertex -6543.674999999999 19.049999999999997 1885.9499999999998
    vertex -6315.075 19.049999999999997 1784.35
    vertex -6543.674999999999 19.049999999999997 1784.35
  endloop
endfacet
facet normal 0.0 1.0 0.0
  outer loop
    vertex -6315.075 19.049999999999997 1784.35
    vertex -6543.674999999999 19.049999999999997 1885.9499999999998
    vertex -6315.075 19.049999999999997 1904.0770793606832
  endloop
endfacet
facet normal 0.0 1.0 0.0
  outer loop
    vertex -6315.075 19.049999999999997 1904.0770793606832
    vertex -6543.674999999999 19.049999999999997 1885.9499999999998
    vertex -2330.45 19.049999999999997 4387.849999999999
  endloop
endfacet
facet normal 0.0 1.0 0.0
  outer loop
    vertex -6315.075 19.049999999999997 1904.0770793606832
    vertex -2330.45 19.049999999999997 4387.849999999999
    vertex -2341.2319588952946 19.049999999999997 4274.5748411101595
  endloop
endfacet
facet normal 0.0 1.0 0.0
  outer loop
    vertex -82.55 19.049999999999997 2852.3229216451396
    vertex 127.0 19.049999999999997 2840.4373748074077
    vertex -82.55 19.049999999999997 2840.4373748074077
  endloop
endfacet
facet normal 0.0 1.0 0.0
  outer loop
    vertex 127.0 19.049999999999997 2840.4373748074077
    vertex -82.55 19.049999999999997 2852.3229216451396
    vertex -2330.45 19.049999999999997 4387.849999999999
  endloop
endfacet
facet normal 0.0 1.0 0.0
  outer loop
    vertex -2330.45 19.049999999999997 4387.849999999999
    vertex -82.55 19.049999999999997 2852.3229216451396
    vertex -2341.2319588952946 19.049999999999997 4274.5748411101595
  endloop
endfacet
facet normal 0.0 -1.0 0.0
  outer loop
    vertex 127.0 0.0 2840.4373748074077
    vertex -82.55 0.0 2852.3229216451396
    vertex -82.55 0.0 2840.4373748074077
  endloop
endfacet
facet normal 0.0 -1.0 0.0
  outer loop
    vertex -82.55 0.0 2852.3229216451396
    vertex 127.0 0.0 2840.4373748074077
    vertex -2330.45 0.0 4387.849999999999
  endloop
endfacet
facet normal 0.0 -1.0 0.0
  outer loop
    vertex -82.55 0.0 2852.3229216451396
    vertex -2330.45 0.0 4387.849999999999
    vertex -2341.2319588952946 0.0 4274.5748411101595
  endloop
endfacet
facet normal 0.0 -1.0 0.0
  outer loop
    vertex -6315.075 0.0 1904.0770793606832
    vertex -6543.674999999999 0.0 1784.35
    vertex -6315.075 0.0 1784.35
  endloop
endfacet
facet normal 0.0 -1.0 0.0
  outer loop
    vertex -6543.674999999999 0.0 1784.35
    vertex -6315.075 0.0 1904.0770793606832
    vertex -6543.674999999999 0.0 1885.9499999999998
  endloop
endfacet
facet normal 0.0 -1.0 0.0
  outer loop
    vertex -6543.674999999999 0.0 1885.9499999999998
    vertex -6315.075 0.0 1904.0770793606832
    vertex -2330.45 0.0 4387.849999999999
  endloop
endfacet
facet normal 0.0 -1.0 0.0
  outer loop
    vertex -2330.45 0.0 4387.849999999999
    vertex -6315.075 0.0 1904.0770793606832
    vertex -2341.2319588952946 0.0 4274.5748411101595
  endloop
endfacet
facet normal 0.5122998592680187 0.0 -0.8588066454062685
  outer loop
    vertex -2341.2319588952946 19.049999999999997 4274.5748411101595
    vertex -6315.075 0.0 1904.0770793606832
    vertex -6315.075 19.049999999999997 1904.0770793606832
  endloop
endfacet
facet normal 0.5122998592680187 0.0 -0.8588066454062685
  outer loop
    vertex -6315.075 0.0 1904.0770793606832
    vertex -2341.2319588952946 19.049999999999997 4274.5748411101595
    vertex -2341.2319588952946 0.0 4274.5748411101595
  endloop
endfacet
facet normal 1.0 0.0 0.0
  outer loop
    vertex -6315.075 19.049999999999997 1784.35
    vertex -6315.075 0.0 1904.0770793606832
    vertex -6315.075 0.0 1784.35
  endloop
endfacet
facet normal 1.0 0.0 0.0
  outer loop
    vertex -6315.075 0.0 1904.0770793606832
    vertex -6315.075 19.049999999999997 1784.35
    vertex -6315.075 19.049999999999997 1904.0770793606832
  endloop
endfacet
facet normal -0.0 -0.0 -1.0
  outer loop
    vertex -6315.075 19.049999999999997 1784.35
    vertex -6543.674999999999 0.0 1784.35
    vertex -6543.674999999999 19.049999999999997 1784.35
  endloop
endfacet
facet normal -0.0 -0.0 -1.0
  outer loop
    vertex -6543.674999999999 0.0 1784.35
    vertex -6315.075 19.049999999999997 1784.35
    vertex -6315.075 0.0 1784.35
  endloop
endfacet
facet normal -1.0 0.0 0.0
  outer loop
    vertex -6543.674999999999 19.049999999999997 1885.9499999999998
    vertex -6543.674999999999 0.0 1784.35
    vertex -6543.674999999999 0.0 1885.9499999999998
  endloop
endfacet
facet normal -1.0 0.0 0.0
  outer loop
    vertex -6543.674999999999 0.0 1784.35
    vertex -6543.674999999999 19.049999999999997 1885.9499999999998
    vertex -6543.674999999999 19.049999999999997 1784.35
  endloop
endfacet
facet normal -0.5105836654345689 0.0 0.8598280761823262
  outer loop
    vertex -2330.45 0.0 4387.849999999999
    vertex -6543.674999999999 19.049999999999997 1885.9499999999998
    vertex -6543.674999999999 0.0 1885.9499999999998
  endloop
endfacet
facet normal -0.5105836654345689 0.0 0.8598280761823262
  outer loop
    vertex -6543.674999999999 19.049999999999997 1885.9499999999998
    vertex -2330.45 0.0 4387.849999999999
    vertex -2330.45 19.049999999999997 4387.849999999999
  endloop
endfacet
facet normal -0.0 -0.0 -1.0
  outer loop
    vertex 127.0 19.049999999999997 2840.4373748074077
    vertex -82.55 0.0 2840.4373748074077
    vertex -82.55 19.049999999999997 2840.4373748074077
  endloop
endfacet
facet normal -0.0 -0.0 -1.0
  outer loop
    vertex -82.55 0.0 2840.4373748074077
    vertex 127.0 19.049999999999997 2840.4373748074077
    vertex 127.0 0.0 2840.4373748074077
  endloop
endfacet
facet normal -0.5328451513267881 -0.0 -0.8462127656254852
  outer loop
    vertex -82.55 19.049999999999997 2852.3229216451396
    vertex -2341.2319588952946 0.0 4274.5748411101595
    vertex -2341.2319588952946 19.049999999999997 4274.5748411101595
  endloop
endfacet
facet normal -0.5328451513267881 -0.0 -0.8462127656254852
  outer loop
    vertex -2341.2319588952946 0.0 4274.5748411101595
    vertex -82.55 19.049999999999997 2852.3229216451396
    vertex -82.55 0.0 2852.3229216451396
  endloop
endfacet
facet normal 2.6137923586568096e-18 0.9984975925186969 0.054795599589440684
  outer loop
    vertex -6315.075 16.429001742401518 1904.0770793606832
    vertex -2943.225 19.049999999999997 1856.3166666666664
    vertex -6315.075 19.049999999999997 1856.3166666666664
  endloop
endfacet
facet normal 2.6137923586568096e-18 0.9984975925186969 0.054795599589440684
  outer loop
    vertex -2943.225 19.049999999999997 1856.3166666666664
    vertex -6315.075 16.429001742401518 1904.0770793606832
    vertex -2943.225 0.0 2203.4499999999994
  endloop
endfacet
facet normal 2.6137923586568096e-18 0.9984975925186969 0.054795599589440684
  outer loop
    vertex -2943.225 0.0 2203.4499999999994
    vertex -6315.075 16.429001742401518 1904.0770793606832
    vertex -5813.213738380522 0.0 2203.45
  endloop
endfacet
facet normal -0.5122998592680185 1.7933786885661047e-15 0.8588066454062686
  outer loop
    vertex -5813.213738380522 0.0 2203.45
    vertex -6315.075 16.429001742401518 1904.0770793606832
    vertex -6315.075 0.0 1904.0770793606832
  endloop
endfacet
facet normal 1.0 0.0 0.0
  outer loop
    vertex -2943.225 19.049999999999997 1856.3166666666664
    vertex -2943.225 0.0 2203.4499999999994
    vertex -2943.225 0.0 1856.3166666666664
  endloop
endfacet
facet normal 0.0 0.0 -1.0
  outer loop
    vertex -2943.225 19.049999999999997 1856.3166666666664
    vertex -6315.075 0.0 1856.3166666666664
    vertex -6315.075 19.049999999999997 1856.3166666666664
  endloop
endfacet
facet normal 0.0 0.0 -1.0
  outer loop
    vertex -6315.075 0.0 1856.3166666666664
    vertex -2943.225 19.049999999999997 1856.3166666666664
    vertex -2943.225 0.0 1856.3166666666664
  endloop
endfacet
facet normal -1.0 0.0 0.0
  outer loop
    vertex -6315.075 16.429001742401518 1904.0770793606832
    vertex -6315.075 0.0 1856.3166666666664
    vertex -6315.075 0.0 1904.0770793606832
  endloop
endfacet
facet normal -1.0 0.0 0.0
  outer loop
    vertex -6315.075 0.0 1856.3166666666664
    vertex -6315.075 16.429001742401518 1904.0770793606832
    vertex -6315.075 19.049999999999997 1856.3166666666664
  endloop
endfacet
facet normal 0.0 -1.0 0.0
  outer loop
    vertex -2943.225 0.0 2203.4499999999994
    vertex -6315.075 0.0 1856.3166666666664
    vertex -2943.225 0.0 1856.3166666666664
  endloop
endfacet
facet normal 0.0 -1.0 0.0
  outer loop
    vertex -6315.075 0.0 1856.3166666666664
    vertex -2943.225 0.0 2203.4499999999994
    vertex -6315.075 0.0 1904.0770793606832
  endloop
endfacet
facet normal 0.0 -1.0 0.0
  outer loop
    vertex -6315.075 0.0 1904.0770793606832
    vertex -2943.225 0.0 2203.4499999999994
    vertex -5813.213738380522 0.0 2203.45
  endloop
endfacet
facet normal -0.5122998592680187 0.0 0.8588066454062686
  outer loop
    vertex -4067.4368767511564 0.0 3244.849999999999
    vertex -4649.362497294278 19.049999999999997 2897.7166666666662
    vertex -4649.362497294278 0.0036161024955536636 2897.7166666666662
  endloop
endfacet
facet normal -5.159424889587768e-07 -0.9999999999864209 -5.185749247488744e-06
  outer loop
    vertex -705.9232703215429 0.0 3244.849999999999
    vertex -4649.362497294278 0.0036161024955536636 2897.7166666666662
    vertex -154.63992410105666 0.0 2897.7166666666662
  endloop
endfacet
facet normal -5.159424889587768e-07 -0.9999999999864209 -5.185749247488744e-06
  outer loop
    vertex -4649.362497294278 0.0036161024955536636 2897.7166666666662
    vertex -705.9232703215429 0.0 3244.849999999999
    vertex -4067.4368767511564 0.0 3244.849999999999
  endloop
endfacet
facet normal -4.0149468491141666e-17 9.47570166610906e-15 -1.0
  outer loop
    vertex -154.63992410105666 19.049999999999997 2897.7166666666662
    vertex -4649.362497294278 0.0036161024955536636 2897.7166666666662
    vertex -4649.362497294278 19.049999999999997 2897.7166666666662
  endloop
endfacet
facet normal -4.0149468491141666e-17 9.47570166610906e-15 -1.0
  outer loop
    vertex -4649.362497294278 0.0036161024955536636 2897.7166666666662
    vertex -154.63992410105666 19.049999999999997 2897.7166666666662
    vertex -154.63992410105666 0.0 2897.7166666666662
  endloop
endfacet
facet normal 0.5328451513267882 -6.5351780533244415e-15 0.8462127656254852
  outer loop
    vertex -154.63992410105666 19.049999999999997 2897.7166666666662
    vertex -705.9232703215429 0.0 3244.849999999999
    vertex -154.63992410105666 0.0 2897.7166666666662
  endloop
endfacet
facet normal 2.1781869819858536e-19 0.9984975925186969 0.05479559958944077
  outer loop
    vertex -4067.4368767511564 0.0 3244.849999999999
    vertex -154.63992410105666 19.049999999999997 2897.7166666666662
    vertex -4649.362497294278 19.049999999999997 2897.7166666666662
  endloop
endfacet
facet normal 2.1781869819858536e-19 0.9984975925186969 0.05479559958944077
  outer loop
    vertex -154.63992410105666 19.049999999999997 2897.7166666666662
    vertex -4067.4368767511564 0.0 3244.849999999999
    vertex -705.9232703215429 0.0 3244.849999999999
  endloop
endfacet
facet normal 0.5328451513267888 -6.535178053324459e-15 0.8462127656254849
  outer loop
    vertex -705.9232703215429 19.049999999999997 3244.849999999999
    vertex -1257.2066165420283 0.0 3591.983333333332
    vertex -705.9232703215429 0.0 3244.849999999999
  endloop
endfacet
facet normal -5.368946135986567e-17 9.473903143468002e-15 -1.0
  outer loop
    vertex -705.9232703215429 19.049999999999997 3244.849999999999
    vertex -4067.4368767511564 0.0 3244.849999999999
    vertex -4067.4368767511564 19.049999999999997 3244.8499999999995
  endloop
endfacet
facet normal -5.368946135986567e-17 9.473903143468002e-15 -1.0
  outer loop
    vertex -4067.4368767511564 0.0 3244.849999999999
    vertex -705.9232703215429 19.049999999999997 3244.849999999999
    vertex -705.9232703215429 0.0 3244.849999999999
  endloop
endfacet
facet normal 9.570459691531327e-18 0.9984975925186969 0.0547955995894407
  outer loop
    vertex -4067.4368767511564 19.049999999999997 3244.8499999999995
    vertex -1257.2066165420283 0.0 3591.983333333332
    vertex -705.9232703215429 19.049999999999997 3244.849999999999
  endloop
endfacet
facet normal 9.570459691531327e-18 0.9984975925186969 0.0547955995894407
  outer loop
    vertex -1257.2066165420283 0.0 3591.983333333332
    vertex -4067.4368767511564 19.049999999999997 3244.8499999999995
    vertex -3485.5112562080326 0.0 3591.9833333333327
  endloop
endfacet
facet normal 1.0 0.0 0.0
  outer loop
    vertex -2943.225 19.049999999999997 2203.45
    vertex -2943.225 0.0 2550.583333333333
    vertex -2943.225 0.0 2203.45
  endloop
endfacet
facet normal 3.1433223526761124e-18 0.9984975925186969 0.05479559958944069
  outer loop
    vertex -5231.2881178374 0.0 2550.5833333333335
    vertex -2943.225 19.049999999999997 2203.45
    vertex -5813.213738380522 19.049999999999997 2203.45
  endloop
endfacet
facet normal 3.1433223526761124e-18 0.9984975925186969 0.05479559958944069
  outer loop
    vertex -2943.225 19.049999999999997 2203.45
    vertex -5231.2881178374 0.0 2550.5833333333335
    vertex -2943.225 0.0 2550.583333333333
  endloop
endfacet
facet normal 0.0 0.0 -1.0
  outer loop
    vertex -2943.225 19.049999999999997 2203.45
    vertex -5813.213738380522 0.0 2203.45
    vertex -5813.213738380522 19.049999999999997 2203.45
  endloop
endfacet
facet normal 0.0 0.0 -1.0
  outer loop
    vertex -5813.213738380522 0.0 2203.45
    vertex -2943.225 19.049999999999997 2203.45
    vertex -2943.225 0.0 2203.45
  endloop
endfacet
facet normal -0.5122998592680189 0.0 0.8588066454062684
  outer loop
    vertex -5231.2881178374 0.0 2550.5833333333335
    vertex -5813.213738380522 19.049999999999997 2203.45
    vertex -5813.213738380522 0.0 2203.45
  endloop
endfacet
facet normal 0.0 -1.0 0.0
  outer loop
    vertex -2943.225 0.0 2550.583333333333
    vertex -5813.213738380522 0.0 2203.45
    vertex -2943.225 0.0 2203.45
  endloop
endfacet
facet normal 0.0 -1.0 0.0
  outer loop
    vertex -5813.213738380522 0.0 2203.45
    vertex -2943.225 0.0 2550.583333333333
    vertex -5231.2881178374 0.0 2550.5833333333335
  endloop
endfacet
facet normal 1.0 0.0 0.0
  outer loop
    vertex -1920.875 19.049999999999997 814.9166666666665
    vertex -1920.875 0.0 1022.3499999999999
    vertex -1920.875 0.0 814.9166666666665
  endloop
endfacet
facet normal 1.0 0.0 0.0
  outer loop
    vertex -1920.875 0.0 1022.3499999999999
    vertex -1920.875 19.049999999999997 814.9166666666665
    vertex -1920.875 7.666463414634127 1022.3499999999999
  endloop
endfacet
facet normal 0.0 0.998497592518697 0.05479559958944075
  outer loop
    vertex -2943.225 7.666463414634127 1022.3499999999999
    vertex -1920.875 19.049999999999997 814.9166666666665
    vertex -2943.225 19.049999999999997 814.9166666666665
  endloop
endfacet
facet normal 0.0 0.998497592518697 0.05479559958944075
  outer loop
    vertex -1920.875 19.049999999999997 814.9166666666665
    vertex -2943.225 7.666463414634127 1022.3499999999999
    vertex -1920.875 7.666463414634127 1022.3499999999999
  endloop
endfacet
facet normal 0.0 0.0 1.0
  outer loop
    vertex -1920.875 0.0 1022.3499999999999
    vertex -2943.225 7.666463414634127 1022.3499999999999
    vertex -2943.225 0.0 1022.3499999999999
  endloop
endfacet
facet normal 0.0 0.0 1.0
  outer loop
    vertex -2943.225 7.666463414634127 1022.3499999999999
    vertex -1920.875 0.0 1022.3499999999999
    vertex -1920.875 7.666463414634127 1022.3499999999999
  endloop
endfacet
facet normal -1.0 0.0 0.0
  outer loop
    vertex -2943.225 7.666463414634127 1022.3499999999999
    vertex -2943.225 0.0 814.9166666666665
    vertex -2943.225 0.0 1022.3499999999999
  endloop
endfacet
facet normal -1.0 0.0 0.0
  outer loop
    vertex -2943.225 0.0 814.9166666666665
    vertex -2943.225 7.666463414634127 1022.3499999999999
    vertex -2943.225 19.049999999999997 814.9166666666665
  endloop
endfacet
facet normal 0.0 -1.0 0.0
  outer loop
    vertex -1920.875 0.0 1022.3499999999999
    vertex -2943.225 0.0 814.9166666666665
    vertex -1920.875 0.0 814.9166666666665
  endloop
endfacet
facet normal 0.0 -1.0 0.0
  outer loop
    vertex -2943.225 0.0 814.9166666666665
    vertex -1920.875 0.0 1022.3499999999999
    vertex -2943.225 0.0 1022.3499999999999
  endloop
endfacet
facet normal -0.0 -0.0 -1.0
  outer loop
    vertex -1920.875 19.049999999999997 814.9166666666665
    vertex -2943.225 0.0 814.9166666666665
    vertex -2943.225 19.049999999999997 814.9166666666665
  endloop
endfacet
facet normal -0.0 -0.0 -1.0
  outer loop
    vertex -2943.225 0.0 814.9166666666665
    vertex -1920.875 19.049999999999997 814.9166666666665
    vertex -1920.875 0.0 814.9166666666665
  endloop
endfacet
facet normal 0.0 0.0 -1.0
  outer loop
    vertex -1920.875 38.099999999999994 2724.1499999999996
    vertex -2943.225 19.049999999999997 2724.1499999999996
    vertex -2943.225 38.099999999999994 2724.1499999999996
  endloop
endfacet
facet normal 0.0 0.0 -1.0
  outer loop
    vertex -2943.225 19.049999999999997 2724.1499999999996
    vertex -1920.875 38.099999999999994 2724.1499999999996
    vertex -1920.875 19.049999999999997 2724.1499999999996
  endloop
endfacet
facet normal -1.0 -0.0 -0.0
  outer loop
    vertex -2943.225 38.099999999999994 2743.2
    vertex -2943.225 19.049999999999997 2724.1499999999996
    vertex -2943.225 19.049999999999997 2743.2
  endloop
endfacet
facet normal -1.0 -0.0 -0.0
  outer loop
    vertex -2943.225 19.049999999999997 2724.1499999999996
    vertex -2943.225 38.099999999999994 2743.2
    vertex -2943.225 38.099999999999994 2724.1499999999996
  endloop
endfacet
facet normal 1.0 0.0 0.0
  outer loop
    vertex -1920.875 38.099999999999994 2724.1499999999996
    vertex -1920.875 19.049999999999997 2743.2
    vertex -1920.875 19.049999999999997 2724.1499999999996
  endloop
endfacet
facet normal 1.0 0.0 0.0
  outer loop
    vertex -1920.875 19.049999999999997 2743.2
    vertex -1920.875 38.099999999999994 2724.1499999999996
    vertex -1920.875 38.099999999999994 2743.2
  endloop
endfacet
facet normal 0.0 0.0 1.0
  outer loop
    vertex -1920.875 19.049999999999997 2743.2
    vertex -2943.225 38.099999999999994 2743.2
    vertex -2943.225 19.049999999999997 2743.2
  endloop
endfacet
facet normal 0.0 0.0 1.0
  outer loop
    vertex -2943.225 38.099999999999994 2743.2
    vertex -1920.875 19.049999999999997 2743.2
    vertex -1920.875 38.099999999999994 2743.2
  endloop
endfacet
facet normal 0.0 1.0 0.0
  outer loop
    vertex -2943.225 38.099999999999994 2743.2
    vertex -1920.875 38.099999999999994 2724.1499999999996
    vertex -2943.225 38.099999999999994 2724.1499999999996
  endloop
endfacet
facet normal 0.0 1.0 0.0
  outer loop
    vertex -1920.875 38.099999999999994 2724.1499999999996
    vertex -2943.225 38.099999999999994 2743.2
    vertex -1920.875 38.099999999999994 2743.2
  endloop
endfacet
facet normal 0.0 -1.0 0.0
  outer loop
    vertex -1920.875 19.049999999999997 2743.2
    vertex -2943.225 19.049999999999997 2724.1499999999996
    vertex -1920.875 19.049999999999997 2724.1499999999996
  endloop
endfacet
facet normal 0.0 -1.0 0.0
  outer loop
    vertex -2943.225 19.049999999999997 2724.1499999999996
    vertex -1920.875 19.049999999999997 2743.2
    vertex -2943.225 19.049999999999997 2743.2
  endloop
endfacet
facet normal 0.0 0.998497592518697 0.05479559958944072
  outer loop
    vertex -6315.075 0.0 1856.3166666666662
    vertex -2943.225 19.049999999999997 1509.183333333333
    vertex -6315.075 19.049999999999997 1509.183333333333
  endloop
endfacet
facet normal 0.0 0.998497592518697 0.05479559958944072
  outer loop
    vertex -2943.225 19.049999999999997 1509.183333333333
    vertex -6315.075 0.0 1856.3166666666662
    vertex -2943.225 0.0 1856.3166666666662
  endloop
endfacet
facet normal 1.0 0.0 0.0
  outer loop
    vertex -2943.225 19.049999999999997 1509.183333333333
    vertex -2943.225 0.0 1856.3166666666662
    vertex -2943.225 0.0 1509.183333333333
  endloop
endfacet
facet normal -1.0 -0.0 -0.0
  outer loop
    vertex -6315.075 19.049999999999997 1509.183333333333
    vertex -6315.075 0.0 1509.183333333333
    vertex -6315.075 0.0 1856.3166666666662
  endloop
endfacet
facet normal -0.0 -1.0 -0.0
  outer loop
    vertex -2943.225 0.0 1856.3166666666662
    vertex -6315.075 0.0 1509.183333333333
    vertex -2943.225 0.0 1509.183333333333
  endloop
endfacet
facet normal -0.0 -1.0 -0.0
  outer loop
    vertex -6315.075 0.0 1509.183333333333
    vertex -2943.225 0.0 1856.3166666666662
    vertex -6315.075 0.0 1856.3166666666662
  endloop
endfacet
facet normal 0.0 0.0 -1.0
  outer loop
    vertex -2943.225 19.049999999999997 1509.183333333333
    vertex -6315.075 0.0 1509.183333333333
    vertex -6315.075 19.049999999999997 1509.183333333333
  endloop
endfacet
facet normal 0.0 0.0 -1.0
  outer loop
    vertex -6315.075 0.0 1509.183333333333
    vertex -2943.225 19.049999999999997 1509.183333333333
    vertex -2943.225 0.0 1509.183333333333
  endloop
endfacet
facet normal 1.0 0.0 0.0
  outer loop
    vertex -82.55 19.049999999999997 467.78333333333325
    vertex -82.55 0.0 814.9166666666665
    vertex -82.55 0.0 467.78333333333325
  endloop
endfacet
facet normal -1.0 -0.0 -0.0
  outer loop
    vertex -6315.075 19.049999999999997 467.78333333333325
    vertex -6315.075 0.0 467.78333333333325
    vertex -6315.075 0.0 814.9166666666665
  endloop
endfacet
facet normal 0.0 0.998497592518697 0.05479559958944072
  outer loop
    vertex -6315.075 0.0 814.9166666666665
    vertex -82.55 19.049999999999997 467.78333333333325
    vertex -6315.075 19.049999999999997 467.78333333333325
  endloop
endfacet
facet normal 0.0 0.998497592518697 0.05479559958944072
  outer loop
    vertex -82.55 19.049999999999997 467.78333333333325
    vertex -6315.075 0.0 814.9166666666665
    vertex -82.55 0.0 814.9166666666665
  endloop
endfacet
facet normal 0.0 0.0 -1.0
  outer loop
    vertex -82.55 19.049999999999997 467.78333333333325
    vertex -6315.075 0.0 467.78333333333325
    vertex -6315.075 19.049999999999997 467.78333333333325
  endloop
endfacet
facet normal 0.0 0.0 -1.0
  outer loop
    vertex -6315.075 0.0 467.78333333333325
    vertex -82.55 19.049999999999997 467.78333333333325
    vertex -82.55 0.0 467.78333333333325
  endloop
endfacet
facet normal -0.0 -1.0 -0.0
  outer loop
    vertex -82.55 0.0 814.9166666666665
    vertex -6315.075 0.0 467.78333333333325
    vertex -82.55 0.0 467.78333333333325
  endloop
endfacet
facet normal -0.0 -1.0 -0.0
  outer loop
    vertex -6315.075 0.0 467.78333333333325
    vertex -82.55 0.0 814.9166666666665
    vertex -6315.075 0.0 814.9166666666665
  endloop
endfacet
facet normal 0.0 0.0 -1.0
  outer loop
    vertex -82.55 19.049999999999997 1509.183333333333
    vertex -1920.875 0.0 1509.183333333333
    vertex -1920.875 19.049999999999997 1509.183333333333
  endloop
endfacet
facet normal 0.0 0.0 -1.0
  outer loop
    vertex -1920.875 0.0 1509.183333333333
    vertex -82.55 19.049999999999997 1509.183333333333
    vertex -82.55 0.0 1509.183333333333
  endloop
endfacet
facet normal -0.0 -1.0 -0.0
  outer loop
    vertex -82.55 0.0 1856.3166666666662
    vertex -1920.875 0.0 1509.183333333333
    vertex -82.55 0.0 1509.183333333333
  endloop
endfacet
facet normal -0.0 -1.0 -0.0
  outer loop
    vertex -1920.875 0.0 1509.183333333333
    vertex -82.55 0.0 1856.3166666666662
    vertex -1920.875 0.0 1856.3166666666662
  endloop
endfacet
facet normal -1.0 -0.0 -0.0
  outer loop
    vertex -1920.875 19.049999999999997 1509.183333333333
    vertex -1920.875 0.0 1509.183333333333
    vertex -1920.875 0.0 1856.3166666666662
  endloop
endfacet
facet normal 1.0 0.0 0.0
  outer loop
    vertex -82.55 19.049999999999997 1509.183333333333
    vertex -82.55 0.0 1856.3166666666662
    vertex -82.55 0.0 1509.183333333333
  endloop
endfacet
facet normal 0.0 0.998497592518697 0.05479559958944072
  outer loop
    vertex -1920.875 0.0 1856.3166666666662
    vertex -82.55 19.049999999999997 1509.183333333333
    vertex -1920.875 19.049999999999997 1509.183333333333
  endloop
endfacet
facet normal 0.0 0.998497592518697 0.05479559958944072
  outer loop
    vertex -82.55 19.049999999999997 1509.183333333333
    vertex -1920.875 0.0 1856.3166666666662
    vertex -82.55 0.0 1856.3166666666662
  endloop
endfacet
facet normal 0.0 0.998497592518697 0.05479559958944072
  outer loop
    vertex -6315.075 0.0 1509.183333333333
    vertex -2943.225 19.049999999999997 1162.0499999999997
    vertex -6315.075 19.049999999999997 1162.0499999999997
  endloop
endfacet
facet normal 0.0 0.998497592518697 0.05479559958944072
  outer loop
    vertex -2943.225 19.049999999999997 1162.0499999999997
    vertex -6315.075 0.0 1509.183333333333
    vertex -2943.225 0.0 1509.183333333333
  endloop
endfacet
facet normal 1.0 0.0 0.0
  outer loop
    vertex -2943.225 19.049999999999997 1162.0499999999997
    vertex -2943.225 0.0 1509.183333333333
    vertex -2943.225 0.0 1162.0499999999997
  endloop
endfacet
facet normal -1.0 -0.0 -0.0
  outer loop
    vertex -6315.075 19.049999999999997 1162.0499999999997
    vertex -6315.075 0.0 1162.0499999999997
    vertex -6315.075 0.0 1509.183333333333
  endloop
endfacet
facet normal -0.0 -1.0 -0.0
  outer loop
    vertex -2943.225 0.0 1509.183333333333
    vertex -6315.075 0.0 1162.0499999999997
    vertex -2943.225 0.0 1162.0499999999997
  endloop
endfacet
facet normal -0.0 -1.0 -0.0
  outer loop
    vertex -6315.075 0.0 1162.0499999999997
    vertex -2943.225 0.0 1509.183333333333
    vertex -6315.075 0.0 1509.183333333333
  endloop
endfacet
facet normal 0.0 0.0 -1.0
  outer loop
    vertex -2943.225 19.049999999999997 1162.0499999999997
    vertex -6315.075 0.0 1162.0499999999997
    vertex -6315.075 19.049999999999997 1162.0499999999997
  endloop
endfacet
facet normal 0.0 0.0 -1.0
  outer loop
    vertex -6315.075 0.0 1162.0499999999997
    vertex -2943.225 19.049999999999997 1162.0499999999997
    vertex -2943.225 0.0 1162.0499999999997
  endloop
endfacet
facet normal -1.0 -0.0 -0.0
  outer loop
    vertex -1920.875 19.049999999999997 2550.5833333333335
    vertex -1920.875 0.0 2550.5833333333335
    vertex -1920.875 0.0 2897.7166666666662
  endloop
endfacet
facet normal 0.0 0.0 -1.0
  outer loop
    vertex -82.55 19.049999999999997 2550.5833333333335
    vertex -1920.875 0.0 2550.5833333333335
    vertex -1920.875 19.049999999999997 2550.5833333333335
  endloop
endfacet
facet normal 0.0 0.0 -1.0
  outer loop
    vertex -1920.875 0.0 2550.5833333333335
    vertex -82.55 19.049999999999997 2550.5833333333335
    vertex -82.55 0.0 2550.5833333333335
  endloop
endfacet
facet normal 3.262478279561286e-18 0.9984975925186969 0.05479559958944074
  outer loop
    vertex -1920.875 0.0 2897.7166666666662
    vertex -82.55 19.049999999999997 2550.5833333333335
    vertex -1920.875 19.049999999999997 2550.5833333333335
  endloop
endfacet
facet normal 3.262478279561286e-18 0.9984975925186969 0.05479559958944074
  outer loop
    vertex -82.55 19.049999999999997 2550.5833333333335
    vertex -1920.875 0.0 2897.7166666666662
    vertex -82.55 2.4911201536203675 2852.3229216451396
  endloop
endfacet
facet normal 3.262478279561286e-18 0.9984975925186969 0.05479559958944074
  outer loop
    vertex -82.55 2.4911201536203675 2852.3229216451396
    vertex -1920.875 0.0 2897.7166666666662
    vertex -154.6399241010563 0.0 2897.7166666666662
  endloop
endfacet
facet normal 1.0 0.0 0.0
  outer loop
    vertex -82.55 19.049999999999997 2550.5833333333335
    vertex -82.55 0.0 2852.3229216451396
    vertex -82.55 0.0 2550.5833333333335
  endloop
endfacet
facet normal 1.0 0.0 0.0
  outer loop
    vertex -82.55 0.0 2852.3229216451396
    vertex -82.55 19.049999999999997 2550.5833333333335
    vertex -82.55 2.4911201536203675 2852.3229216451396
  endloop
endfacet
facet normal 0.0 -1.0 0.0
  outer loop
    vertex -82.55 0.0 2852.3229216451396
    vertex -1920.875 0.0 2550.5833333333335
    vertex -82.55 0.0 2550.5833333333335
  endloop
endfacet
facet normal 0.0 -1.0 0.0
  outer loop
    vertex -1920.875 0.0 2550.5833333333335
    vertex -82.55 0.0 2852.3229216451396
    vertex -1920.875 0.0 2897.7166666666662
  endloop
endfacet
facet normal 0.0 -1.0 0.0
  outer loop
    vertex -1920.875 0.0 2897.7166666666662
    vertex -82.55 0.0 2852.3229216451396
    vertex -154.6399241010563 0.0 2897.7166666666662
  endloop
endfacet
facet normal 0.5328451513267871 0.0 0.8462127656254859
  outer loop
    vertex -82.55 2.4911201536203675 2852.3229216451396
    vertex -154.6399241010563 0.0 2897.7166666666662
    vertex -82.55 0.0 2852.3229216451396
  endloop
endfacet
facet normal 0.0 0.0 -1.0
  outer loop
    vertex -82.55 19.049999999999997 1856.3166666666664
    vertex -1920.875 0.0 1856.3166666666664
    vertex -1920.875 19.049999999999997 1856.3166666666664
  endloop
endfacet
facet normal 0.0 0.0 -1.0
  outer loop
    vertex -1920.875 0.0 1856.3166666666664
    vertex -82.55 19.049999999999997 1856.3166666666664
    vertex -82.55 0.0 1856.3166666666664
  endloop
endfacet
facet normal -0.0 -1.0 -0.0
  outer loop
    vertex -82.55 0.0 2203.4499999999994
    vertex -1920.875 0.0 1856.3166666666664
    vertex -82.55 0.0 1856.3166666666664
  endloop
endfacet
facet normal -0.0 -1.0 -0.0
  outer loop
    vertex -1920.875 0.0 1856.3166666666664
    vertex -82.55 0.0 2203.4499999999994
    vertex -1920.875 0.0 2203.4499999999994
  endloop
endfacet
facet normal -1.0 -0.0 -0.0
  outer loop
    vertex -1920.875 19.049999999999997 1856.3166666666664
    vertex -1920.875 0.0 1856.3166666666664
    vertex -1920.875 0.0 2203.4499999999994
  endloop
endfacet
facet normal 1.0 0.0 0.0
  outer loop
    vertex -82.55 19.049999999999997 1856.3166666666664
    vertex -82.55 0.0 2203.4499999999994
    vertex -82.55 0.0 1856.3166666666664
  endloop
endfacet
facet normal 0.0 0.998497592518697 0.05479559958944072
  outer loop
    vertex -1920.875 0.0 2203.4499999999994
    vertex -82.55 19.049999999999997 1856.3166666666664
    vertex -1920.875 19.049999999999997 1856.3166666666664
  endloop
endfacet
facet normal 0.0 0.998497592518697 0.05479559958944072
  outer loop
    vertex -82.55 19.049999999999997 1856.3166666666664
    vertex -1920.875 0.0 2203.4499999999994
    vertex -82.55 0.0 2203.4499999999994
  endloop
endfacet
facet normal 1.0 0.0 0.0
  outer loop
    vertex -1920.875 8.479573170731696 2743.2
    vertex -1920.875 0.0 2897.7166666666662
    vertex -1920.875 0.0 2743.2
  endloop
endfacet
facet normal -1.0 0.0 0.0
  outer loop
    vertex -2943.225 8.479573170731696 2743.2
    vertex -2943.225 0.0 2743.2
    vertex -2943.225 0.0 2897.7166666666662
  endloop
endfacet
facet normal 0.0 -1.0 0.0
  outer loop
    vertex -1920.875 0.0 2897.7166666666662
    vertex -2943.225 0.0 2743.2
    vertex -1920.875 0.0 2743.2
  endloop
endfacet
facet normal 0.0 -1.0 0.0
  outer loop
    vertex -2943.225 0.0 2743.2
    vertex -1920.875 0.0 2897.7166666666662
    vertex -2943.225 0.0 2897.7166666666662
  endloop
endfacet
facet normal -0.0 -0.0 -1.0
  outer loop
    vertex -1920.875 8.479573170731696 2743.2
    vertex -2943.225 0.0 2743.2
    vertex -2943.225 8.479573170731696 2743.2
  endloop
endfacet
facet normal -0.0 -0.0 -1.0
  outer loop
    vertex -2943.225 0.0 2743.2
    vertex -1920.875 8.479573170731696 2743.2
    vertex -1920.875 0.0 2743.2
  endloop
endfacet
facet normal 0.0 0.998497592518697 0.05479559958944066
  outer loop
    vertex -2943.225 0.0 2897.7166666666662
    vertex -1920.875 8.479573170731696 2743.2
    vertex -2943.225 8.479573170731696 2743.2
  endloop
endfacet
facet normal 0.0 0.998497592518697 0.05479559958944066
  outer loop
    vertex -1920.875 8.479573170731696 2743.2
    vertex -2943.225 0.0 2897.7166666666662
    vertex -1920.875 0.0 2897.7166666666662
  endloop
endfacet
facet normal 0.0 0.0 -1.0
  outer loop
    vertex -82.55 19.049999999999997 814.9166666666665
    vertex -1920.875 0.0 814.9166666666665
    vertex -1920.875 19.049999999999997 814.9166666666665
  endloop
endfacet
facet normal 0.0 0.0 -1.0
  outer loop
    vertex -1920.875 0.0 814.9166666666665
    vertex -82.55 19.049999999999997 814.9166666666665
    vertex -82.55 0.0 814.9166666666665
  endloop
endfacet
facet normal -0.0 -1.0 -0.0
  outer loop
    vertex -82.55 0.0 1162.0499999999995
    vertex -1920.875 0.0 814.9166666666665
    vertex -82.55 0.0 814.9166666666665
  endloop
endfacet
facet normal -0.0 -1.0 -0.0
  outer loop
    vertex -1920.875 0.0 814.9166666666665
    vertex -82.55 0.0 1162.0499999999995
    vertex -1920.875 0.0 1162.0499999999995
  endloop
endfacet
facet normal -1.0 -0.0 -0.0
  outer loop
    vertex -1920.875 19.049999999999997 814.9166666666665
    vertex -1920.875 0.0 814.9166666666665
    vertex -1920.875 0.0 1162.0499999999995
  endloop
endfacet
facet normal 1.0 0.0 0.0
  outer loop
    vertex -82.55 19.049999999999997 814.9166666666665
    vertex -82.55 0.0 1162.0499999999995
    vertex -82.55 0.0 814.9166666666665
  endloop
endfacet
facet normal 0.0 0.998497592518697 0.05479559958944072
  outer loop
    vertex -1920.875 0.0 1162.0499999999995
    vertex -82.55 19.049999999999997 814.9166666666665
    vertex -1920.875 19.049999999999997 814.9166666666665
  endloop
endfacet
facet normal 0.0 0.998497592518697 0.05479559958944072
  outer loop
    vertex -82.55 19.049999999999997 814.9166666666665
    vertex -1920.875 0.0 1162.0499999999995
    vertex -82.55 0.0 1162.0499999999995
  endloop
endfacet
facet normal 0.0 0.0 -1.0
  outer loop
    vertex -82.55 19.049999999999997 2203.45
    vertex -1920.875 0.0 2203.45
    vertex -1920.875 19.049999999999997 2203.45
  endloop
endfacet
facet normal 0.0 0.0 -1.0
  outer loop
    vertex -1920.875 0.0 2203.45
    vertex -82.55 19.049999999999997 2203.45
    vertex -82.55 0.0 2203.45
  endloop
endfacet
facet normal -0.0 -1.0 -0.0
  outer loop
    vertex -82.55 0.0 2550.583333333333
    vertex -1920.875 0.0 2203.45
    vertex -82.55 0.0 2203.45
  endloop
endfacet
facet normal -0.0 -1.0 -0.0
  outer loop
    vertex -1920.875 0.0 2203.45
    vertex -82.55 0.0 2550.583333333333
    vertex -1920.875 0.0 2550.583333333333
  endloop
endfacet
facet normal -1.0 -0.0 -0.0
  outer loop
    vertex -1920.875 19.049999999999997 2203.45
    vertex -1920.875 0.0 2203.45
    vertex -1920.875 0.0 2550.583333333333
  endloop
endfacet
facet normal 1.0 0.0 0.0
  outer loop
    vertex -82.55 19.049999999999997 2203.45
    vertex -82.55 0.0 2550.583333333333
    vertex -82.55 0.0 2203.45
  endloop
endfacet
facet normal 0.0 0.998497592518697 0.05479559958944072
  outer loop
    vertex -1920.875 0.0 2550.583333333333
    vertex -82.55 19.049999999999997 2203.45
    vertex -1920.875 19.049999999999997 2203.45
  endloop
endfacet
facet normal 0.0 0.998497592518697 0.05479559958944072
  outer loop
    vertex -82.55 19.049999999999997 2203.45
    vertex -1920.875 0.0 2550.583333333333
    vertex -82.55 0.0 2550.583333333333
  endloop
endfacet
facet normal 1.0 0.0 0.0
  outer loop
    vertex -82.55 19.049999999999997 120.64999999999999
    vertex -82.55 0.0 467.78333333333313
    vertex -82.55 0.0 120.64999999999999
  endloop
endfacet
facet normal -1.0 -0.0 -0.0
  outer loop
    vertex -6315.075 19.049999999999997 120.64999999999999
    vertex -6315.075 0.0 120.64999999999999
    vertex -6315.075 0.0 467.78333333333313
  endloop
endfacet
facet normal 0.0 0.998497592518697 0.05479559958944072
  outer loop
    vertex -6315.075 0.0 467.78333333333313
    vertex -82.55 19.049999999999997 120.64999999999999
    vertex -6315.075 19.049999999999997 120.64999999999999
  endloop
endfacet
facet normal 0.0 0.998497592518697 0.05479559958944072
  outer loop
    vertex -82.55 19.049999999999997 120.64999999999999
    vertex -6315.075 0.0 467.78333333333313
    vertex -82.55 0.0 467.78333333333313
  endloop
endfacet
facet normal 0.0 0.0 -1.0
  outer loop
    vertex -82.55 19.049999999999997 120.64999999999999
    vertex -6315.075 0.0 120.64999999999999
    vertex -6315.075 19.049999999999997 120.64999999999999
  endloop
endfacet
facet normal 0.0 0.0 -1.0
  outer loop
    vertex -6315.075 0.0 120.64999999999999
    vertex -82.55 19.049999999999997 120.64999999999999
    vertex -82.55 0.0 120.64999999999999
  endloop
endfacet
facet normal -0.0 -1.0 -0.0
  outer loop
    vertex -82.55 0.0 467.78333333333313
    vertex -6315.075 0.0 120.64999999999999
    vertex -82.55 0.0 120.64999999999999
  endloop
endfacet
facet normal -0.0 -1.0 -0.0
  outer loop
    vertex -6315.075 0.0 120.64999999999999
    vertex -82.55 0.0 467.78333333333313
    vertex -6315.075 0.0 467.78333333333313
  endloop
endfacet
facet normal 0.0 0.0 -1.0
  outer loop
    vertex -82.55 19.049999999999997 1162.0499999999997
    vertex -1920.875 0.0 1162.0499999999997
    vertex -1920.875 19.049999999999997 1162.0499999999997
  endloop
endfacet
facet normal 0.0 0.0 -1.0
  outer loop
    vertex -1920.875 0.0 1162.0499999999997
    vertex -82.55 19.049999999999997 1162.0499999999997
    vertex -82.55 0.0 1162.0499999999997
  endloop
endfacet
facet normal -0.0 -1.0 -0.0
  outer loop
    vertex -82.55 0.0 1509.183333333333
    vertex -1920.875 0.0 1162.0499999999997
    vertex -82.55 0.0 1162.0499999999997
  endloop
endfacet
facet normal -0.0 -1.0 -0.0
  outer loop
    vertex -1920.875 0.0 1162.0499999999997
    vertex -82.55 0.0 1509.183333333333
    vertex -1920.875 0.0 1509.183333333333
  endloop
endfacet
facet normal -1.0 -0.0 -0.0
  outer loop
    vertex -1920.875 19.049999999999997 1162.0499999999997
    vertex -1920.875 0.0 1162.0499999999997
    vertex -1920.875 0.0 1509.183333333333
  endloop
endfacet
facet normal 1.0 0.0 0.0
  outer loop
    vertex -82.55 19.049999999999997 1162.0499999999997
    vertex -82.55 0.0 1509.183333333333
    vertex -82.55 0.0 1162.0499999999997
  endloop
endfacet
facet normal 0.0 0.998497592518697 0.05479559958944072
  outer loop
    vertex -1920.875 0.0 1509.183333333333
    vertex -82.55 19.049999999999997 1162.0499999999997
    vertex -1920.875 19.049999999999997 1162.0499999999997
  endloop
endfacet
facet normal 0.0 0.998497592518697 0.05479559958944072
  outer loop
    vertex -82.55 19.049999999999997 1162.0499999999997
    vertex -1920.875 0.0 1509.183333333333
    vertex -82.55 0.0 1509.183333333333
  endloop
endfacet
facet normal 0.0 0.998497592518697 0.05479559958944072
  outer loop
    vertex -6315.075 0.0 1162.0499999999995
    vertex -2943.225 19.049999999999997 814.9166666666665
    vertex -6315.075 19.049999999999997 814.9166666666665
  endloop
endfacet
facet normal 0.0 0.998497592518697 0.05479559958944072
  outer loop
    vertex -2943.225 19.049999999999997 814.9166666666665
    vertex -6315.075 0.0 1162.0499999999995
    vertex -2943.225 0.0 1162.0499999999995
  endloop
endfacet
facet normal 1.0 0.0 0.0
  outer loop
    vertex -2943.225 19.049999999999997 814.9166666666665
    vertex -2943.225 0.0 1162.0499999999995
    vertex -2943.225 0.0 814.9166666666665
  endloop
endfacet
facet normal -1.0 -0.0 -0.0
  outer loop
    vertex -6315.075 19.049999999999997 814.9166666666665
    vertex -6315.075 0.0 814.9166666666665
    vertex -6315.075 0.0 1162.0499999999995
  endloop
endfacet
facet normal -0.0 -1.0 -0.0
  outer loop
    vertex -2943.225 0.0 1162.0499999999995
    vertex -6315.075 0.0 814.9166666666665
    vertex -2943.225 0.0 814.9166666666665
  endloop
endfacet
facet normal -0.0 -1.0 -0.0
  outer loop
    vertex -6315.075 0.0 814.9166666666665
    vertex -2943.225 0.0 1162.0499999999995
    vertex -6315.075 0.0 1162.0499999999995
  endloop
endfacet
facet normal 0.0 0.0 -1.0
  outer loop
    vertex -2943.225 19.049999999999997 814.9166666666665
    vertex -6315.075 0.0 814.9166666666665
    vertex -6315.075 19.049999999999997 814.9166666666665
  endloop
endfacet
facet normal 0.0 0.0 -1.0
  outer loop
    vertex -6315.075 0.0 814.9166666666665
    vertex -2943.225 19.049999999999997 814.9166666666665
    vertex -2943.225 0.0 814.9166666666665
  endloop
endfacet
facet normal 0.0 -1.0 0.0
  outer loop
    vertex -1920.875 -152.39999999999998 1022.3499999999999
    vertex -2035.175 -152.39999999999998 1123.95
    vertex -2943.225 -152.39999999999998 1022.3499999999999
  endloop
endfacet
facet normal 0.0 -1.0 0.0
  outer loop
    vertex -2035.175 -152.39999999999998 1123.95
    vertex -1920.875 -152.39999999999998 1022.3499999999999
    vertex -1920.875 -152.39999999999998 2743.2
  endloop
endfacet
facet normal 0.0 -1.0 0.0
  outer loop
    vertex -2035.175 -152.39999999999998 1123.95
    vertex -1920.875 -152.39999999999998 2743.2
    vertex -2035.175 -152.39999999999998 1847.85
  endloop
endfacet
facet normal 0.0 -1.0 0.0
  outer loop
    vertex -2035.175 -152.39999999999998 1847.85
    vertex -1920.875 -152.39999999999998 2743.2
    vertex -2035.175 -152.39999999999998 1898.6499999999999
  endloop
endfacet
facet normal 0.0 -1.0 0.0
  outer loop
    vertex -2035.175 -152.39999999999998 1847.85
    vertex -2035.175 -152.39999999999998 1898.6499999999999
    vertex -2828.9249999999997 -152.39999999999998 1847.85
  endloop
endfacet
facet normal 0.0 -1.0 0.0
  outer loop
    vertex -2035.175 -152.39999999999998 1898.6499999999999
    vertex -1920.875 -152.39999999999998 2743.2
    vertex -2035.175 -152.39999999999998 2628.8999999999996
  endloop
endfacet
facet normal 0.0 -1.0 0.0
  outer loop
    vertex -2035.175 -152.39999999999998 2628.8999999999996
    vertex -1920.875 -152.39999999999998 2743.2
    vertex -2828.9249999999997 -152.39999999999998 2628.8999999999996
  endloop
endfacet
facet normal 0.0 -1.0 0.0
  outer loop
    vertex -2943.225 -152.39999999999998 1022.3499999999999
    vertex -2828.9249999999997 -152.39999999999998 1123.95
    vertex -2943.225 -152.39999999999998 2743.2
  endloop
endfacet
facet normal 0.0 -1.0 0.0
  outer loop
    vertex -2828.9249999999997 -152.39999999999998 1123.95
    vertex -2943.225 -152.39999999999998 1022.3499999999999
    vertex -2035.175 -152.39999999999998 1123.95
  endloop
endfacet
facet normal 0.0 -1.0 0.0
  outer loop
    vertex -2943.225 -152.39999999999998 2743.2
    vertex -2828.9249999999997 -152.39999999999998 1123.95
    vertex -2828.9249999999997 -152.39999999999998 1847.85
  endloop
endfacet
facet normal 0.0 -1.0 0.0
  outer loop
    vertex -2943.225 -152.39999999999998 2743.2
    vertex -2828.9249999999997 -152.39999999999998 1847.85
    vertex -2828.9249999999997 -152.39999999999998 1898.6499999999999
  endloop
endfacet
facet normal 0.0 -1.0 0.0
  outer loop
    vertex -2828.9249999999997 -152.39999999999998 1898.6499999999999
    vertex -2828.9249999999997 -152.39999999999998 1847.85
    vertex -2035.175 -152.39999999999998 1898.6499999999999
  endloop
endfacet
facet normal 0.0 -1.0 0.0
  outer loop
    vertex -2943.225 -152.39999999999998 2743.2
    vertex -2828.9249999999997 -152.39999999999998 1898.6499999999999
    vertex -2828.9249999999997 -152.39999999999998 2628.8999999999996
  endloop
endfacet
facet normal 0.0 -1.0 0.0
  outer loop
    vertex -2943.225 -152.39999999999998 2743.2
    vertex -2828.9249999999997 -152.39999999999998 2628.8999999999996
    vertex -1920.875 -152.39999999999998 2743.2
  endloop
endfacet
facet normal 0.0 0.0 -1.0
  outer loop
    vertex -1920.875 19.049999999999997 1022.3499999999999
    vertex -2943.225 -152.39999999999998 1022.3499999999999
    vertex -2943.225 19.049999999999997 1022.3499999999999
  endloop
endfacet
facet normal 0.0 0.0 -1.0
  outer loop
    vertex -2943.225 -152.39999999999998 1022.3499999999999
    vertex -1920.875 19.049999999999997 1022.3499999999999
    vertex -1920.875 -152.39999999999998 1022.3499999999999
  endloop
endfacet
facet normal 1.0 0.0 0.0
  outer loop
    vertex -1920.875 19.049999999999997 1022.3499999999999
    vertex -1920.875 -152.39999999999998 2743.2
    vertex -1920.875 -152.39999999999998 1022.3499999999999
  endloop
endfacet
facet normal 1.0 0.0 0.0
  outer loop
    vertex -1920.875 -152.39999999999998 2743.2
    vertex -1920.875 19.049999999999997 1022.3499999999999
    vertex -1920.875 19.049999999999997 2743.2
  endloop
endfacet
facet normal -1.0 -0.0 -0.0
  outer loop
    vertex -2035.175 19.049999999999997 1847.85
    vertex -2035.175 -152.39999999999998 1123.95
    vertex -2035.175 -152.39999999999998 1847.85
  endloop
endfacet
facet normal -1.0 -0.0 -0.0
  outer loop
    vertex -2035.175 -152.39999999999998 1123.95
    vertex -2035.175 19.049999999999997 1847.85
    vertex -2035.175 19.049999999999997 1123.95
  endloop
endfacet
facet normal -1.0 -0.0 -0.0
  outer loop
    vertex -2943.225 19.049999999999997 2743.2
    vertex -2943.225 -152.39999999999998 1022.3499999999999
    vertex -2943.225 -152.39999999999998 2743.2
  endloop
endfacet
facet normal -1.0 -0.0 -0.0
  outer loop
    vertex -2943.225 -152.39999999999998 1022.3499999999999
    vertex -2943.225 19.049999999999997 2743.2
    vertex -2943.225 19.049999999999997 1022.3499999999999
  endloop
endfacet
facet normal 1.0 0.0 0.0
  outer loop
    vertex -2828.9249999999997 19.049999999999997 1123.95
    vertex -2828.9249999999997 -152.39999999999998 1847.85
    vertex -2828.9249999999997 -152.39999999999998 1123.95
  endloop
endfacet
facet normal 1.0 0.0 0.0
  outer loop
    vertex -2828.9249999999997 -152.39999999999998 1847.85
    vertex -2828.9249999999997 19.049999999999997 1123.95
    vertex -2828.9249999999997 19.049999999999997 1847.85
  endloop
endfacet
facet normal 0.0 0.0 -1.0
  outer loop
    vertex -2035.175 19.049999999999997 1847.85
    vertex -2828.9249999999997 -152.39999999999998 1847.85
    vertex -2828.9249999999997 19.049999999999997 1847.85
  endloop
endfacet
facet normal 0.0 0.0 -1.0
  outer loop
    vertex -2828.9249999999997 -152.39999999999998 1847.85
    vertex -2035.175 19.049999999999997 1847.85
    vertex -2035.175 -152.39999999999998 1847.85
  endloop
endfacet
facet normal 0.0 0.0 1.0
  outer loop
    vertex -2035.175 -152.39999999999998 1123.95
    vertex -2828.9249999999997 19.049999999999997 1123.95
    vertex -2828.9249999999997 -152.39999999999998 1123.95
  endloop
endfacet
facet normal 0.0 0.0 1.0
  outer loop
    vertex -2828.9249999999997 19.049999999999997 1123.95
    vertex -2035.175 -152.39999999999998 1123.95
    vertex -2035.175 19.049999999999997 1123.95
  endloop
endfacet
facet normal 0.0 0.0 1.0
  outer loop
    vertex -2035.175 -152.39999999999998 1898.6499999999999
    vertex -2828.9249999999997 19.049999999999997 1898.6499999999999
    vertex -2828.9249999999997 -152.39999999999998 1898.6499999999999
  endloop
endfacet
facet normal 0.0 0.0 1.0
  outer loop
    vertex -2828.9249999999997 19.049999999999997 1898.6499999999999
    vertex -2035.175 -152.39999999999998 1898.6499999999999
    vertex -2035.175 19.049999999999997 1898.6499999999999
  endloop
endfacet
facet normal -1.0 -0.0 -0.0
  outer loop
    vertex -2035.175 19.049999999999997 2628.8999999999996
    vertex -2035.175 -152.39999999999998 1898.6499999999999
    vertex -2035.175 -152.39999999999998 2628.8999999999996
  endloop
endfacet
facet normal -1.0 -0.0 -0.0
  outer loop
    vertex -2035.175 -152.39999999999998 1898.6499999999999
    vertex -2035.175 19.049999999999997 2628.8999999999996
    vertex -2035.175 19.049999999999997 1898.6499999999999
  endloop
endfacet
facet normal 0.0 1.0 0.0
  outer loop
    vertex -2943.225 19.049999999999997 1022.3499999999999
    vertex -2828.9249999999997 19.049999999999997 1123.95
    vertex -1920.875 19.049999999999997 1022.3499999999999
  endloop
endfacet
facet normal 0.0 1.0 0.0
  outer loop
    vertex -2828.9249999999997 19.049999999999997 1123.95
    vertex -2943.225 19.049999999999997 1022.3499999999999
    vertex -2943.225 19.049999999999997 2743.2
  endloop
endfacet
facet normal 0.0 1.0 0.0
  outer loop
    vertex -2828.9249999999997 19.049999999999997 1123.95
    vertex -2943.225 19.049999999999997 2743.2
    vertex -2828.9249999999997 19.049999999999997 1847.85
  endloop
endfacet
facet normal 0.0 1.0 0.0
  outer loop
    vertex -2828.9249999999997 19.049999999999997 1847.85
    vertex -2943.225 19.049999999999997 2743.2
    vertex -2828.9249999999997 19.049999999999997 1898.6499999999999
  endloop
endfacet
facet normal 0.0 1.0 0.0
  outer loop
    vertex -2828.9249999999997 19.049999999999997 1847.85
    vertex -2828.9249999999997 19.049999999999997 1898.6499999999999
    vertex -2035.175 19.049999999999997 1847.85
  endloop
endfacet
facet normal 0.0 1.0 0.0
  outer loop
    vertex -2828.9249999999997 19.049999999999997 1898.6499999999999
    vertex -2943.225 19.049999999999997 2743.2
    vertex -2828.9249999999997 19.049999999999997 2628.8999999999996
  endloop
endfacet
facet normal 0.0 1.0 0.0
  outer loop
    vertex -2828.9249999999997 19.049999999999997 2628.8999999999996
    vertex -2943.225 19.049999999999997 2743.2
    vertex -2035.175 19.049999999999997 2628.8999999999996
  endloop
endfacet
facet normal 0.0 1.0 0.0
  outer loop
    vertex -1920.875 19.049999999999997 1022.3499999999999
    vertex -2035.175 19.049999999999997 1123.95
    vertex -1920.875 19.049999999999997 2743.2
  endloop
endfacet
facet normal 0.0 1.0 0.0
  outer loop
    vertex -2035.175 19.049999999999997 1123.95
    vertex -1920.875 19.049999999999997 1022.3499999999999
    vertex -2828.9249999999997 19.049999999999997 1123.95
  endloop
endfacet
facet normal 0.0 1.0 0.0
  outer loop
    vertex -1920.875 19.049999999999997 2743.2
    vertex -2035.175 19.049999999999997 1123.95
    vertex -2035.175 19.049999999999997 1847.85
  endloop
endfacet
facet normal 0.0 1.0 0.0
  outer loop
    vertex -1920.875 19.049999999999997 2743.2
    vertex -2035.175 19.049999999999997 1847.85
    vertex -2035.175 19.049999999999997 1898.6499999999999
  endloop
endfacet
facet normal 0.0 1.0 0.0
  outer loop
    vertex -2035.175 19.049999999999997 1898.6499999999999
    vertex -2035.175 19.049999999999997 1847.85
    vertex -2828.9249999999997 19.049999999999997 1898.6499999999999
  endloop
endfacet
facet normal 0.0 1.0 0.0
  outer loop
    vertex -1920.875 19.049999999999997 2743.2
    vertex -2035.175 19.049999999999997 1898.6499999999999
    vertex -2035.175 19.049999999999997 2628.8999999999996
  endloop
endfacet
facet normal 0.0 1.0 0.0
  outer loop
    vertex -1920.875 19.049999999999997 2743.2
    vertex -2035.175 19.049999999999997 2628.8999999999996
    vertex -2943.225 19.049999999999997 2743.2
  endloop
endfacet
facet normal 0.0 0.0 1.0
  outer loop
    vertex -1920.875 -152.39999999999998 2743.2
    vertex -2943.225 19.049999999999997 2743.2
    vertex -2943.225 -152.39999999999998 2743.2
  endloop
endfacet
facet normal 0.0 0.0 1.0
  outer loop
    vertex -2943.225 19.049999999999997 2743.2
    vertex -1920.875 -152.39999999999998 2743.2
    vertex -1920.875 19.049999999999997 2743.2
  endloop
endfacet
facet normal 0.0 0.0 -1.0
  outer loop
    vertex -2035.175 19.049999999999997 2628.8999999999996
    vertex -2828.9249999999997 -152.39999999999998 2628.8999999999996
    vertex -2828.9249999999997 19.049999999999997 2628.8999999999996
  endloop
endfacet
facet normal 0.0 0.0 -1.0
  outer loop
    vertex -2828.9249999999997 -152.39999999999998 2628.8999999999996
    vertex -2035.175 19.049999999999997 2628.8999999999996
    vertex -2035.175 -152.39999999999998 2628.8999999999996
  endloop
endfacet
facet normal 1.0 0.0 0.0
  outer loop
    vertex -2828.9249999999997 19.049999999999997 1898.6499999999999
    vertex -2828.9249999999997 -152.39999999999998 2628.8999999999996
    vertex -2828.9249999999997 -152.39999999999998 1898.6499999999999
  endloop
endfacet
facet normal 1.0 0.0 0.0
  outer loop
    vertex -2828.9249999999997 -152.39999999999998 2628.8999999999996
    vertex -2828.9249999999997 19.049999999999997 1898.6499999999999
    vertex -2828.9249999999997 19.049999999999997 2628.8999999999996
  endloop
endfacet
facet normal 1.2594332208238671e-18 -0.9999981760413862 0.0019099512823350438
  outer loop
    vertex -2341.231958895294 0.6407099390765368 4274.5748411101595
    vertex -2903.585635664912 0.0 3939.116666666666
    vertex -1808.4899627625148 0.0 3939.1166666666654
  endloop
endfacet
facet normal -0.5122998592680187 -2.1246268307935986e-15 0.8588066454062686
  outer loop
    vertex -2341.231958895294 0.6407099390765368 4274.5748411101595
    vertex -2903.585635664912 19.049999999999997 3939.116666666666
    vertex -2903.585635664912 0.0 3939.116666666666
  endloop
endfacet
facet normal -6.592222372853845e-16 0.0 -1.0
  outer loop
    vertex -1808.4899627625148 19.049999999999997 3939.1166666666654
    vertex -2903.585635664912 0.0 3939.116666666666
    vertex -2903.585635664912 19.049999999999997 3939.116666666666
  endloop
endfacet
facet normal -6.592222372853845e-16 0.0 -1.0
  outer loop
    vertex -2903.585635664912 0.0 3939.116666666666
    vertex -1808.4899627625148 19.049999999999997 3939.1166666666654
    vertex -1808.4899627625148 0.0 3939.1166666666654
  endloop
endfacet
facet normal 0.5328451513267881 -2.332663257211766e-15 0.8462127656254852
  outer loop
    vertex -1808.4899627625148 19.049999999999997 3939.1166666666654
    vertex -2341.231958895294 0.6407099390765368 4274.5748411101595
    vertex -1808.4899627625148 0.0 3939.1166666666654
  endloop
endfacet
facet normal 3.551482899612357e-17 0.9984975925186969 0.05479559958944067
  outer loop
    vertex -2341.231958895294 0.6407099390765368 4274.5748411101595
    vertex -1808.4899627625148 19.049999999999997 3939.1166666666654
    vertex -2903.585635664912 19.049999999999997 3939.116666666666
  endloop
endfacet
facet normal -7.573606300427501e-07 -0.999999999982641 5.8433323743902e-06
  outer loop
    vertex -2943.225 0.0 2897.7166666666662
    vertex -5231.2881178374 0.0 2550.5833333333335
    vertex -2943.225 0.0 2550.5833333333335
  endloop
endfacet
facet normal -7.573606300427501e-07 -0.999999999982641 5.8433323743902e-06
  outer loop
    vertex -5231.2881178374 0.0 2550.5833333333335
    vertex -2943.225 0.0 2897.7166666666662
    vertex -4649.36183358721 0.0036161024955534975 2897.7170625498593
  endloop
endfacet
facet normal -0.5122998592300966 0.0 0.85880664542889
  outer loop
    vertex -4649.36183358721 0.0036161024955534975 2897.7170625498593
    vertex -5231.2881178374 19.049999999999997 2550.5833333333335
    vertex -5231.2881178374 0.0 2550.5833333333335
  endloop
endfacet
facet normal 0.0 0.0 -1.0
  outer loop
    vertex -2943.225 19.049999999999997 2550.5833333333335
    vertex -5231.2881178374 0.0 2550.5833333333335
    vertex -5231.2881178374 19.049999999999997 2550.5833333333335
  endloop
endfacet
facet normal 0.0 0.0 -1.0
  outer loop
    vertex -5231.2881178374 0.0 2550.5833333333335
    vertex -2943.225 19.049999999999997 2550.5833333333335
    vertex -2943.225 0.0 2550.5833333333335
  endloop
endfacet
facet normal 7.607663452536482e-07 0.9984979136467752 0.05478974760352876
  outer loop
    vertex -4649.36183358721 0.0036161024955534975 2897.7170625498593
    vertex -2943.225 19.049999999999997 2550.5833333333335
    vertex -5231.2881178374 19.049999999999997 2550.5833333333335
  endloop
endfacet
facet normal 7.607663452536482e-07 0.9984979136467752 0.05478974760352876
  outer loop
    vertex -2943.225 19.049999999999997 2550.5833333333335
    vertex -4649.36183358721 0.0036161024955534975 2897.7170625498593
    vertex -2943.225 0.0 2897.7166666666662
  endloop
endfacet
facet normal 1.0 0.0 0.0
  outer loop
    vertex -2943.225 19.049999999999997 2550.5833333333335
    vertex -2943.225 0.0 2897.7166666666662
    vertex -2943.225 0.0 2550.5833333333335
  endloop
endfacet
endsolid garage east wall
