solid house assy
facet normal 0.0 -1.0 -1.8947806286936004e-14
  outer loop
    vertex -537.3104387302877 -26947.778699490576 1449.4883062500005
    vertex 1967.2562964470499 -26947.778699490576 1449.4883062500005
    vertex -537.3104387302877 -26947.778699490576 1491.5278462500003
  endloop
endfacet
facet normal 0.0 -1.0 -1.8947806286936004e-14
  outer loop
    vertex 1967.2562964470499 -26947.778699490576 1491.5278462500003
    vertex -537.3104387302877 -26947.778699490576 1491.5278462500003
    vertex 1967.2562964470499 -26947.778699490576 1449.4883062500005
  endloop
endfacet
facet normal -0.0 1.0 -0.0
  outer loop
    vertex 1967.2562964470499 -26905.739159490575 1449.4883062500005
    vertex -537.3104387302877 -26905.739159490575 1449.4883062500005
    vertex 1967.2562964470499 -26905.739159490575 1574.806032722651
  endloop
endfacet
facet normal -0.0 1.0 -0.0
  outer loop
    vertex -537.3104387302877 -26905.739159490575 1574.806032722651
    vertex 1967.2562964470499 -26905.739159490575 1574.806032722651
    vertex -537.3104387302877 -26905.739159490575 1449.4883062500005
  endloop
endfacet
facet normal 0.0 0.0 -1.0
  outer loop
    vertex -537.3104387302877 -27031.85777949058 1491.5278462500003
    vertex -537.3104387302877 -26947.778699490576 1491.5278462500003
    vertex 1967.2562964470499 -27031.85777949058 1491.5278462500003
  endloop
endfacet
facet normal 0.0 0.0 -1.0
  outer loop
    vertex 1967.2562964470499 -26947.778699490576 1491.5278462500003
    vertex 1967.2562964470499 -27031.85777949058 1491.5278462500003
    vertex -537.3104387302877 -26947.778699490576 1491.5278462500003
  endloop
endfacet
facet normal 1.0 0.0 0.0
  outer loop
    vertex 1967.2562964470499 -26905.739159490575 1449.4883062500005
    vertex 1967.2562964470499 -26905.739159490575 1574.806032722651
    vertex 1967.2562964470499 -26947.778699490576 1449.4883062500005
  endloop
endfacet
facet normal 1.0 0.0 0.0
  outer loop
    vertex 1967.2562964470499 -26947.778699490576 1491.5278462500003
    vertex 1967.2562964470499 -26947.778699490576 1449.4883062500005
    vertex 1967.2562964470499 -26905.739159490575 1574.806032722651
  endloop
endfacet
facet normal 1.0 0.0 0.0
  outer loop
    vertex 1967.2562964470499 -27031.85777949058 1530.7175810606598
    vertex 1967.2562964470499 -26947.778699490576 1491.5278462500003
    vertex 1967.2562964470499 -26905.739159490575 1574.806032722651
  endloop
endfacet
facet normal 1.0 0.0 0.0
  outer loop
    vertex 1967.2562964470499 -27031.85777949058 1491.5278462500003
    vertex 1967.2562964470499 -26947.778699490576 1491.5278462500003
    vertex 1967.2562964470499 -27031.85777949058 1530.7175810606598
  endloop
endfacet
facet normal 0.0 0.0 -1.0
  outer loop
    vertex -537.3104387302877 -26947.778699490576 1449.4883062500005
    vertex -537.3104387302877 -26905.739159490575 1449.4883062500005
    vertex 1967.2562964470499 -26947.778699490576 1449.4883062500005
  endloop
endfacet
facet normal 0.0 0.0 -1.0
  outer loop
    vertex 1967.2562964470499 -26905.739159490575 1449.4883062500005
    vertex 1967.2562964470499 -26947.778699490576 1449.4883062500005
    vertex -537.3104387302877 -26905.739159490575 1449.4883062500005
  endloop
endfacet
facet normal 0.0 -1.0 0.0
  outer loop
    vertex -537.3104387302877 -27031.85777949058 1491.5278462500003
    vertex 1967.2562964470499 -27031.85777949058 1491.5278462500003
    vertex -537.3104387302877 -27031.85777949058 1530.7175810606598
  endloop
endfacet
facet normal 0.0 -1.0 0.0
  outer loop
    vertex 1967.2562964470499 -27031.85777949058 1530.7175810606598
    vertex -537.3104387302877 -27031.85777949058 1530.7175810606598
    vertex 1967.2562964470499 -27031.85777949058 1491.5278462500003
  endloop
endfacet
facet normal 0.0 -0.32999655970215175 0.9439821346745626
  outer loop
    vertex -537.3104387302877 -26905.739159490575 1574.806032722651
    vertex -537.3104387302877 -27031.85777949058 1530.7175810606598
    vertex 1967.2562964470499 -26905.739159490575 1574.806032722651
  endloop
endfacet
facet normal 0.0 -0.32999655970215175 0.9439821346745626
  outer loop
    vertex 1967.2562964470499 -27031.85777949058 1530.7175810606598
    vertex 1967.2562964470499 -26905.739159490575 1574.806032722651
    vertex -537.3104387302877 -27031.85777949058 1530.7175810606598
  endloop
endfacet
facet normal -1.0 0.0 0.0
  outer loop
    vertex -537.3104387302877 -26905.739159490575 1449.4883062500005
    vertex -537.3104387302877 -26947.778699490576 1491.5278462500003
    vertex -537.3104387302877 -26905.739159490575 1574.806032722651
  endloop
endfacet
facet normal -1.0 0.0 0.0
  outer loop
    vertex -537.3104387302877 -27031.85777949058 1530.7175810606598
    vertex -537.3104387302877 -26905.739159490575 1574.806032722651
    vertex -537.3104387302877 -26947.778699490576 1491.5278462500003
  endloop
endfacet
facet normal -1.0 0.0 0.0
  outer loop
    vertex -537.3104387302877 -26947.778699490576 1449.4883062500005
    vertex -537.3104387302877 -26947.778699490576 1491.5278462500003
    vertex -537.3104387302877 -26905.739159490575 1449.4883062500005
  endloop
endfacet
facet normal -1.0 0.0 0.0
  outer loop
    vertex -537.3104387302877 -27031.85777949058 1491.5278462500003
    vertex -537.3104387302877 -27031.85777949058 1530.7175810606598
    vertex -537.3104387302877 -26947.778699490576 1491.5278462500003
  endloop
endfacet
facet normal 1.0 0.0 0.0
  outer loop
    vertex 3433.5031500389614 -24646.113884490576 2364.724125
    vertex 3433.5031500389614 -24646.113884490576 2409.25837883362
    vertex 3433.5031500389614 -24659.986788062037 2404.408699709936
  endloop
endfacet
facet normal 0.0 1.0 0.0
  outer loop
    vertex 3433.5031500389614 -24646.113884490576 2364.724125
    vertex -659.9257637302877 -24646.113884490576 2364.724125
    vertex 3433.5031500389614 -24646.113884490576 2409.25837883362
  endloop
endfacet
facet normal 0.0 1.0 0.0
  outer loop
    vertex -659.9257637302877 -24646.113884490576 2409.25837883362
    vertex 3433.5031500389614 -24646.113884490576 2409.25837883362
    vertex -659.9257637302877 -24646.113884490576 2364.724125
  endloop
endfacet
facet normal 0.0 -0.32999655970215236 0.9439821346745626
  outer loop
    vertex -659.9257637302877 -24646.113884490576 2409.25837883362
    vertex -659.9257637302877 -27157.836123062036 1531.212420959937
    vertex 3433.5031500389614 -24646.113884490576 2409.25837883362
  endloop
endfacet
facet normal 0.0 -0.32999655970215236 0.9439821346745626
  outer loop
    vertex 1967.2562964470494 -27157.836123062036 1531.212420959937
    vertex 3433.5031500389614 -24646.113884490576 2409.25837883362
    vertex -659.9257637302877 -27157.836123062036 1531.212420959937
  endloop
endfacet
facet normal 0.0 -0.32999655970215236 0.9439821346745626
  outer loop
    vertex 3433.5031500389614 -24659.986788062037 2404.408699709936
    vertex 3433.5031500389614 -24646.113884490576 2409.25837883362
    vertex 1967.2562964470494 -27157.836123062036 1531.212420959937
  endloop
endfacet
facet normal 0.8746894349511386 -0.4575328544009013 -0.15994398872299567
  outer loop
    vertex 3433.5031500389614 -24646.113884490576 2364.724125
    vertex 3433.5031500389614 -24659.986788062037 2404.408699709936
    vertex 1967.2562964470494 -27143.963219490575 1491.5278462500003
  endloop
endfacet
facet normal 0.8746894349511386 -0.4575328544009013 -0.15994398872299567
  outer loop
    vertex 1967.2562964470494 -27157.836123062036 1531.212420959937
    vertex 1967.2562964470494 -27143.963219490575 1491.5278462500003
    vertex 3433.5031500389614 -24659.986788062037 2404.408699709936
  endloop
endfacet
facet normal 1.4698589554621562e-17 0.32999655970215236 -0.9439821346745626
  outer loop
    vertex -659.9257637302877 -27143.963219490575 1491.5278462500003
    vertex -659.9257637302877 -24646.113884490576 2364.724125
    vertex 1967.2562964470494 -27143.963219490575 1491.5278462500003
  endloop
endfacet
facet normal 1.4698589554621562e-17 0.32999655970215236 -0.9439821346745626
  outer loop
    vertex 3433.5031500389614 -24646.113884490576 2364.724125
    vertex 1967.2562964470494 -27143.963219490575 1491.5278462500003
    vertex -659.9257637302877 -24646.113884490576 2364.724125
  endloop
endfacet
facet normal -1.0 0.0 0.0
  outer loop
    vertex -659.9257637302877 -24646.113884490576 2409.25837883362
    vertex -659.9257637302877 -24646.113884490576 2364.724125
    vertex -659.9257637302877 -27157.836123062036 1531.212420959937
  endloop
endfacet
facet normal -1.0 0.0 0.0
  outer loop
    vertex -659.9257637302877 -27143.963219490575 1491.5278462500003
    vertex -659.9257637302877 -27157.836123062036 1531.212420959937
    vertex -659.9257637302877 -24646.113884490576 2364.724125
  endloop
endfacet
facet normal 0.0 -0.9439821346745626 -0.32999655970215225
  outer loop
    vertex -659.9257637302877 -27143.963219490575 1491.5278462500003
    vertex 1967.2562964470494 -27143.963219490575 1491.5278462500003
    vertex -659.9257637302877 -27157.836123062036 1531.212420959937
  endloop
endfacet
facet normal 0.0 -0.9439821346745626 -0.32999655970215225
  outer loop
    vertex 1967.2562964470494 -27157.836123062036 1531.212420959937
    vertex -659.9257637302877 -27157.836123062036 1531.212420959937
    vertex 1967.2562964470494 -27143.963219490575 1491.5278462500003
  endloop
endfacet
endsolid house assy
