solid house assy
facet normal -0.8462127656254548 -9.41065691010816e-16 0.5328451513268364
  outer loop
    vertex 3623.772903805057 -19482.25705449058 2444.493108606015
    vertex 3608.8391937697197 -21331.996814490583 2420.776845000004
    vertex 3623.772903805056 -21331.996814490583 2444.493108606015
  endloop
endfacet
facet normal -0.8462127656254548 -9.41065691010816e-16 0.5328451513268364
  outer loop
    vertex 3608.8391937697197 -21331.996814490583 2420.776845000004
    vertex 3623.772903805057 -19482.25705449058 2444.493108606015
    vertex 3608.839193769717 -21286.45397949058 2420.7768449999994
  endloop
endfacet
facet normal -0.8462127656254548 -9.41065691010816e-16 0.5328451513268364
  outer loop
    vertex 3608.839193769717 -21286.45397949058 2420.7768449999994
    vertex 3623.772903805057 -19482.25705449058 2444.493108606015
    vertex 3608.8391937697143 -19604.87237949058 2420.776845
  endloop
endfacet
facet normal -0.8462127656254548 -9.41065691010816e-16 0.5328451513268364
  outer loop
    vertex 3608.8391937697143 -19604.87237949058 2420.776845
    vertex 3623.772903805057 -19482.25705449058 2444.493108606015
    vertex 3608.8391937697143 -19482.25705449058 2420.776845
  endloop
endfacet
facet normal 0.5328451513267894 -3.212374085574322e-16 0.8462127656254844
  outer loop
    vertex 5015.122464214074 -21370.53305949058 1568.384998234254
    vertex 3657.00455500497 -21331.996814490583 2423.5677279786405
    vertex 3657.004555004969 -21370.53305949058 2423.567727978641
  endloop
endfacet
facet normal 0.5328451513267894 -3.212374085574322e-16 0.8462127656254844
  outer loop
    vertex 3657.00455500497 -21331.996814490583 2423.5677279786405
    vertex 3623.772903805057 -19482.25705449058 2444.493108606015
    vertex 3623.772903805056 -21331.996814490583 2444.493108606015
  endloop
endfacet
facet normal 0.5328451513267894 -3.212374085574322e-16 0.8462127656254844
  outer loop
    vertex 3623.772903805057 -19482.25705449058 2444.493108606015
    vertex 3657.00455500497 -21331.996814490583 2423.5677279786405
    vertex 5015.122464214076 -19482.25705449058 1568.384998234254
  endloop
endfacet
facet normal 0.5328451513267894 -3.212374085574322e-16 0.8462127656254844
  outer loop
    vertex 5015.122464214076 -19482.25705449058 1568.384998234254
    vertex 3657.00455500497 -21331.996814490583 2423.5677279786405
    vertex 5015.122464214074 -21370.53305949058 1568.384998234254
  endloop
endfacet
facet normal 0.0 1.0 0.0
  outer loop
    vertex 3608.8391937697143 -19482.25705449058 2420.776845
    vertex 5014.293992199642 -19482.25705449058 1567.069299681247
    vertex 4964.614358769714 -19482.25705449058 1567.069299681247
  endloop
endfacet
facet normal 0.0 1.0 0.0
  outer loop
    vertex 5014.293992199642 -19482.25705449058 1567.069299681247
    vertex 3608.8391937697143 -19482.25705449058 2420.776845
    vertex 5015.122464214076 -19482.25705449058 1568.384998234254
  endloop
endfacet
facet normal 0.0 1.0 0.0
  outer loop
    vertex 5015.122464214076 -19482.25705449058 1568.384998234254
    vertex 3608.8391937697143 -19482.25705449058 2420.776845
    vertex 3623.772903805057 -19482.25705449058 2444.493108606015
  endloop
endfacet
facet normal 0.0 -1.0 0.0
  outer loop
    vertex 3657.00455500497 -21331.996814490583 2423.5677279786405
    vertex 3608.8391937697197 -21331.996814490583 2420.776845000004
    vertex 3642.070844969633 -21331.996814490583 2399.8514643726294
  endloop
endfacet
facet normal 0.0 -1.0 0.0
  outer loop
    vertex 3608.8391937697197 -21331.996814490583 2420.776845000004
    vertex 3657.00455500497 -21331.996814490583 2423.5677279786405
    vertex 3623.772903805056 -21331.996814490583 2444.493108606015
  endloop
endfacet
facet normal -0.8462127656254808 2.299854427062991e-14 0.5328451513267953
  outer loop
    vertex 3657.00455500497 -21331.996814490583 2423.5677279786405
    vertex 3642.070844969632 -21370.53305949058 2399.85146437263
    vertex 3657.004555004969 -21370.53305949058 2423.567727978641
  endloop
endfacet
facet normal -0.8462127656254808 2.299854427062991e-14 0.5328451513267953
  outer loop
    vertex 3642.070844969632 -21370.53305949058 2399.85146437263
    vertex 3657.00455500497 -21331.996814490583 2423.5677279786405
    vertex 3642.070844969633 -21331.996814490583 2399.8514643726294
  endloop
endfacet
facet normal 0.8462127656258337 -5.38451044945881e-16 -0.5328451513262348
  outer loop
    vertex 5014.293992199642 -19482.25705449058 1567.069299681247
    vertex 5015.122464214074 -21370.53305949058 1568.384998234254
    vertex 5014.293992199642 -21370.53305949058 1567.069299681247
  endloop
endfacet
facet normal 0.8462127656258337 -5.38451044945881e-16 -0.5328451513262348
  outer loop
    vertex 5015.122464214074 -21370.53305949058 1568.384998234254
    vertex 5014.293992199642 -19482.25705449058 1567.069299681247
    vertex 5015.122464214076 -19482.25705449058 1568.384998234254
  endloop
endfacet
facet normal -0.5328451513267911 -3.751630179095329e-14 -0.8462127656254833
  outer loop
    vertex 4964.614358769713 -21286.45397949058 1567.0692996812465
    vertex 3608.8391937697197 -21331.996814490583 2420.776845000004
    vertex 3608.839193769717 -21286.45397949058 2420.7768449999994
  endloop
endfacet
facet normal -0.5328451513267911 -3.751630179095329e-14 -0.8462127656254833
  outer loop
    vertex 3608.8391937697197 -21331.996814490583 2420.776845000004
    vertex 4964.614358769713 -21286.45397949058 1567.0692996812465
    vertex 3642.070844969633 -21331.996814490583 2399.8514643726294
  endloop
endfacet
facet normal -0.5328451513267911 -3.751630179095329e-14 -0.8462127656254833
  outer loop
    vertex 3642.070844969633 -21331.996814490583 2399.8514643726294
    vertex 4964.614358769714 -21370.53305949058 1567.069299681247
    vertex 3642.070844969632 -21370.53305949058 2399.85146437263
  endloop
endfacet
facet normal -0.5328451513267911 -3.751630179095329e-14 -0.8462127656254833
  outer loop
    vertex 4964.614358769714 -21370.53305949058 1567.069299681247
    vertex 3642.070844969633 -21331.996814490583 2399.8514643726294
    vertex 4964.614358769713 -21286.45397949058 1567.0692996812465
  endloop
endfacet
facet normal -0.5328451513267881 1.5073691276308634e-16 -0.8462127656254852
  outer loop
    vertex 4964.614358769714 -19482.25705449058 1567.069299681247
    vertex 3608.8391937697143 -19604.87237949058 2420.776845
    vertex 3608.8391937697143 -19482.25705449058 2420.776845
  endloop
endfacet
facet normal -0.5328451513267881 1.5073691276308634e-16 -0.8462127656254852
  outer loop
    vertex 3608.8391937697143 -19604.87237949058 2420.776845
    vertex 4964.614358769714 -19482.25705449058 1567.069299681247
    vertex 4964.614358769714 -19604.87237949058 1567.0692996812465
  endloop
endfacet
facet normal -0.5328451513267884 3.9056422734076814e-16 -0.8462127656254849
  outer loop
    vertex 3608.839193769722 -19604.87237949058 2371.097211570068
    vertex 4885.718004180917 -21286.45397949058 1567.0692996812465
    vertex 3608.8391937697143 -21286.45397949058 2371.0972115700715
  endloop
endfacet
facet normal -0.5328451513267884 3.9056422734076814e-16 -0.8462127656254849
  outer loop
    vertex 4885.718004180917 -21286.45397949058 1567.0692996812465
    vertex 3608.839193769722 -19604.87237949058 2371.097211570068
    vertex 4885.718004180917 -19604.87237949058 1567.0692996812465
  endloop
endfacet
facet normal 3.0195566805079135e-15 9.00485062806389e-19 -1.0
  outer loop
    vertex 5014.293992199642 -19482.25705449058 1567.069299681247
    vertex 4964.614358769714 -19604.87237949058 1567.0692996812465
    vertex 4964.614358769714 -19482.25705449058 1567.069299681247
  endloop
endfacet
facet normal 3.0195566805079135e-15 9.00485062806389e-19 -1.0
  outer loop
    vertex 4885.718004180917 -19604.87237949058 1567.0692996812465
    vertex 4964.614358769713 -21286.45397949058 1567.0692996812465
    vertex 4885.718004180917 -21286.45397949058 1567.0692996812465
  endloop
endfacet
facet normal 3.0195566805079135e-15 9.00485062806389e-19 -1.0
  outer loop
    vertex 4964.614358769713 -21286.45397949058 1567.0692996812465
    vertex 4885.718004180917 -19604.87237949058 1567.0692996812465
    vertex 4964.614358769714 -19604.87237949058 1567.0692996812465
  endloop
endfacet
facet normal 3.0195566805079135e-15 9.00485062806389e-19 -1.0
  outer loop
    vertex 4964.614358769713 -21286.45397949058 1567.0692996812465
    vertex 4964.614358769714 -19604.87237949058 1567.0692996812465
    vertex 4964.614358769714 -21370.53305949058 1567.069299681247
  endloop
endfacet
facet normal 3.0195566805079135e-15 9.00485062806389e-19 -1.0
  outer loop
    vertex 4964.614358769714 -21370.53305949058 1567.069299681247
    vertex 4964.614358769714 -19604.87237949058 1567.0692996812465
    vertex 5014.293992199642 -21370.53305949058 1567.069299681247
  endloop
endfacet
facet normal 3.0195566805079135e-15 9.00485062806389e-19 -1.0
  outer loop
    vertex 5014.293992199642 -21370.53305949058 1567.069299681247
    vertex 4964.614358769714 -19604.87237949058 1567.0692996812465
    vertex 5014.293992199642 -19482.25705449058 1567.069299681247
  endloop
endfacet
facet normal -2.5217968428983908e-15 1.0 -4.01206567916513e-15
  outer loop
    vertex 3608.839193769722 -19604.87237949058 2371.097211570068
    vertex 4964.614358769714 -19604.87237949058 1567.0692996812465
    vertex 4885.718004180917 -19604.87237949058 1567.0692996812465
  endloop
endfacet
facet normal -2.5217968428983908e-15 1.0 -4.01206567916513e-15
  outer loop
    vertex 4964.614358769714 -19604.87237949058 1567.0692996812465
    vertex 3608.839193769722 -19604.87237949058 2371.097211570068
    vertex 3608.8391937697143 -19604.87237949058 2420.776845
  endloop
endfacet
facet normal 1.2231113480668696e-15 -1.0 2.0660425887416145e-15
  outer loop
    vertex 3608.839193769717 -21286.45397949058 2420.7768449999994
    vertex 4885.718004180917 -21286.45397949058 1567.0692996812465
    vertex 4964.614358769713 -21286.45397949058 1567.0692996812465
  endloop
endfacet
facet normal 1.2231113480668696e-15 -1.0 2.0660425887416145e-15
  outer loop
    vertex 4885.718004180917 -21286.45397949058 1567.0692996812465
    vertex 3608.839193769717 -21286.45397949058 2420.7768449999994
    vertex 3608.8391937697143 -21286.45397949058 2371.0972115700715
  endloop
endfacet
facet normal -1.0 1.4802973661668356e-15 -4.2088923346588915e-14
  outer loop
    vertex 3608.839193769717 -21286.45397949058 2420.7768449999994
    vertex 3608.839193769722 -19604.87237949058 2371.097211570068
    vertex 3608.8391937697143 -21286.45397949058 2371.0972115700715
  endloop
endfacet
facet normal -1.0 1.4802973661668356e-15 -4.2088923346588915e-14
  outer loop
    vertex 3608.839193769722 -19604.87237949058 2371.097211570068
    vertex 3608.839193769717 -21286.45397949058 2420.7768449999994
    vertex 3608.8391937697143 -19604.87237949058 2420.776845
  endloop
endfacet
facet normal 0.0 -1.0 0.0
  outer loop
    vertex 5015.122464214074 -21370.53305949058 1568.384998234254
    vertex 4964.614358769714 -21370.53305949058 1567.069299681247
    vertex 5014.293992199642 -21370.53305949058 1567.069299681247
  endloop
endfacet
facet normal 0.0 -1.0 0.0
  outer loop
    vertex 4964.614358769714 -21370.53305949058 1567.069299681247
    vertex 5015.122464214074 -21370.53305949058 1568.384998234254
    vertex 3642.070844969632 -21370.53305949058 2399.85146437263
  endloop
endfacet
facet normal 0.0 -1.0 0.0
  outer loop
    vertex 3642.070844969632 -21370.53305949058 2399.85146437263
    vertex 5015.122464214074 -21370.53305949058 1568.384998234254
    vertex 3657.004555004969 -21370.53305949058 2423.567727978641
  endloop
endfacet
endsolid house assy
