solid house assy
facet normal -0.9967639550118503 1.9142746545181628e-15 0.08038418992024643
  outer loop
    vertex 6489.371928581057 -21358.13094406584 1443.622355809027
    vertex 6485.7653502333305 -21535.187924490572 1398.9007842971994
    vertex 6494.116122561444 -21535.187924490572 1502.450361165898
  endloop
endfacet
facet normal -0.9967639550118503 1.9142746545181628e-15 0.08038418992024643
  outer loop
    vertex 6485.7653502333305 -21535.187924490572 1398.9007842971994
    vertex 6489.371928581057 -21358.13094406584 1443.622355809027
    vertex 6481.314412988807 -21360.023174490576 1343.7091624650675
  endloop
endfacet
facet normal -0.08038418992027958 -3.309027849779127e-14 -0.9967639550118474
  outer loop
    vertex 6485.7653502333305 -21535.187924490572 1398.9007842971994
    vertex 7932.781047519711 -22890.96308949058 1282.2059700000002
    vertex 6485.765350233326 -22890.96308949058 1398.9007842972896
  endloop
endfacet
facet normal -0.08038418992027958 -3.309027849779127e-14 -0.9967639550118474
  outer loop
    vertex 7932.781047519711 -22890.96308949058 1282.2059700000002
    vertex 6485.7653502333305 -21535.187924490572 1398.9007842971994
    vertex 7932.781047519711 -21535.187924490576 1282.2059700000002
  endloop
endfacet
facet normal 0.0015171788400718663 -0.9998218684028222 0.018813017616987834
  outer loop
    vertex 6489.371928581057 -21358.13094406584 1443.622355809027
    vertex 6313.700420359692 -21360.023174490576 1357.2264199351478
    vertex 6481.314412988807 -21360.023174490576 1343.7091624650675
  endloop
endfacet
facet normal 0.0015171788400718663 -0.9998218684028222 0.018813017616987834
  outer loop
    vertex 6313.700420359692 -21360.023174490576 1357.2264199351478
    vertex 6489.371928581057 -21358.13094406584 1443.622355809027
    vertex 6321.75793595194 -21358.13094406584 1457.1396132791074
  endloop
endfacet
facet normal 0.0 -1.0 0.0
  outer loop
    vertex 7941.131819847824 -22890.96308949058 1385.755546868699
    vertex 6485.765350233326 -22890.96308949058 1398.9007842972896
    vertex 7932.781047519711 -22890.96308949058 1282.2059700000002
  endloop
endfacet
facet normal 0.0 -1.0 0.0
  outer loop
    vertex 6485.765350233326 -22890.96308949058 1398.9007842972896
    vertex 7941.131819847824 -22890.96308949058 1385.755546868699
    vertex 6485.765350233326 -22890.96308949058 1503.1238105472896
  endloop
endfacet
facet normal -0.9967639550118498 6.6920443734769034e-15 0.08038418992025295
  outer loop
    vertex 6321.75793595194 -21358.13094406584 1457.1396132791074
    vertex 6309.60555809473 -21198.87160449057 1306.4501278495839
    vertex 6313.700420359692 -21360.023174490576 1357.2264199351478
  endloop
endfacet
facet normal -0.9967639550118498 6.6920443734769034e-15 0.08038418992025295
  outer loop
    vertex 6309.60555809473 -21198.87160449057 1306.4501278495839
    vertex 6321.75793595194 -21358.13094406584 1457.1396132791074
    vertex 6317.490624952278 -21198.87160449057 1404.2249568832344
  endloop
endfacet
facet normal 4.693255415238692e-15 1.0 -3.784883399383406e-16
  outer loop
    vertex 6309.60555809473 -21198.87160449057 1306.4501278495839
    vertex 7932.120314867774 -21198.871604490578 1274.0128851159554
    vertex 7924.235248010227 -21198.871604490578 1176.2380560823046
  endloop
endfacet
facet normal 4.693255415238692e-15 1.0 -3.784883399383406e-16
  outer loop
    vertex 7932.120314867774 -21198.871604490578 1274.0128851159554
    vertex 6309.60555809473 -21198.87160449057 1306.4501278495839
    vertex 6317.490624952278 -21198.87160449057 1404.2249568832344
  endloop
endfacet
facet normal 0.0 1.0 0.0
  outer loop
    vertex 6485.765350233326 -21535.187924490572 1503.1238105472896
    vertex 6494.116122561444 -21535.187924490572 1502.450361165898
    vertex 6485.7653502333305 -21535.187924490572 1398.9007842971994
  endloop
endfacet
facet normal 0.0762591384046616 0.31622776601683583 0.9456133162185165
  outer loop
    vertex 6321.75793595194 -21358.13094406584 1457.1396132791074
    vertex 7932.120314867774 -21198.871604490578 1274.0128851159554
    vertex 6317.490624952278 -21198.87160449057 1404.2249568832344
  endloop
endfacet
facet normal 0.0762591384046616 0.31622776601683583 0.9456133162185165
  outer loop
    vertex 7932.120314867774 -21198.871604490578 1274.0128851159554
    vertex 6321.75793595194 -21358.13094406584 1457.1396132791074
    vertex 6489.371928581057 -21358.13094406584 1443.622355809027
  endloop
endfacet
facet normal 0.0762591384046616 0.31622776601683583 0.9456133162185165
  outer loop
    vertex 7932.120314867774 -21198.871604490578 1274.0128851159554
    vertex 6489.371928581057 -21358.13094406584 1443.622355809027
    vertex 6494.116122561444 -21535.187924490572 1502.450361165898
  endloop
endfacet
facet normal 0.0762591384046616 0.31622776601683583 0.9456133162185165
  outer loop
    vertex 7932.120314867774 -21198.871604490578 1274.0128851159554
    vertex 6494.116122561444 -21535.187924490572 1502.450361165898
    vertex 7941.131819847826 -21535.187924490576 1385.755546868699
  endloop
endfacet
facet normal -0.07664597829508468 -0.30140666411065276 -0.950410130859766
  outer loop
    vertex 7924.235248010227 -21198.871604490578 1176.2380560823046
    vertex 6313.700420359692 -21360.023174490576 1357.2264199351478
    vertex 6309.60555809473 -21198.87160449057 1306.4501278495839
  endloop
endfacet
facet normal -0.07664597829508468 -0.30140666411065276 -0.950410130859766
  outer loop
    vertex 6313.700420359692 -21360.023174490576 1357.2264199351478
    vertex 7924.235248010227 -21198.871604490578 1176.2380560823046
    vertex 6481.314412988807 -21360.023174490576 1343.7091624650675
  endloop
endfacet
facet normal -0.07664597829508468 -0.30140666411065276 -0.950410130859766
  outer loop
    vertex 6481.314412988807 -21360.023174490576 1343.7091624650675
    vertex 7924.235248010227 -21198.871604490578 1176.2380560823046
    vertex 6485.7653502333305 -21535.187924490572 1398.9007842971994
  endloop
endfacet
facet normal -0.07664597829508468 -0.30140666411065276 -0.950410130859766
  outer loop
    vertex 6485.7653502333305 -21535.187924490572 1398.9007842971994
    vertex 7924.235248010227 -21198.871604490578 1176.2380560823046
    vertex 7932.781047519711 -21535.187924490576 1282.2059700000002
  endloop
endfacet
facet normal -1.0 1.7625866313421156e-15 -2.2928437859821718e-14
  outer loop
    vertex 6485.765350233326 -21535.187924490572 1503.1238105472896
    vertex 6485.765350233326 -22890.96308949058 1398.9007842972896
    vertex 6485.765350233326 -22890.96308949058 1503.1238105472896
  endloop
endfacet
facet normal -1.0 1.7625866313421156e-15 -2.2928437859821718e-14
  outer loop
    vertex 6485.765350233326 -22890.96308949058 1398.9007842972896
    vertex 6485.765350233326 -21535.187924490572 1503.1238105472896
    vertex 6485.7653502333305 -21535.187924490572 1398.9007842971994
  endloop
endfacet
facet normal 0.0803841899202958 2.2268656141255032e-14 0.9967639550118463
  outer loop
    vertex 7941.131819847824 -22890.96308949058 1385.755546868699
    vertex 6485.765350233326 -21535.187924490572 1503.1238105472896
    vertex 6485.765350233326 -22890.96308949058 1503.1238105472896
  endloop
endfacet
facet normal 0.0803841899202958 2.2268656141255032e-14 0.9967639550118463
  outer loop
    vertex 6485.765350233326 -21535.187924490572 1503.1238105472896
    vertex 7941.131819847824 -22890.96308949058 1385.755546868699
    vertex 6494.116122561444 -21535.187924490572 1502.450361165898
  endloop
endfacet
facet normal 0.0803841899202958 2.2268656141255032e-14 0.9967639550118463
  outer loop
    vertex 6494.116122561444 -21535.187924490572 1502.450361165898
    vertex 7941.131819847824 -22890.96308949058 1385.755546868699
    vertex 7941.131819847826 -21535.187924490576 1385.755546868699
  endloop
endfacet
facet normal 0.9967639550118508 -5.891454807174713e-16 -0.08038418992024045
  outer loop
    vertex 7932.781047519711 -21535.187924490576 1282.2059700000002
    vertex 7941.131819847824 -22890.96308949058 1385.755546868699
    vertex 7932.781047519711 -22890.96308949058 1282.2059700000002
  endloop
endfacet
facet normal 0.9967639550118508 -5.891454807174713e-16 -0.08038418992024045
  outer loop
    vertex 7941.131819847824 -22890.96308949058 1385.755546868699
    vertex 7932.781047519711 -21535.187924490576 1282.2059700000002
    vertex 7941.131819847826 -21535.187924490576 1385.755546868699
  endloop
endfacet
facet normal 0.9967639550118508 -5.891454807174713e-16 -0.08038418992024045
  outer loop
    vertex 7941.131819847826 -21535.187924490576 1385.755546868699
    vertex 7932.781047519711 -21535.187924490576 1282.2059700000002
    vertex 7924.235248010227 -21198.871604490578 1176.2380560823046
  endloop
endfacet
facet normal 0.9967639550118508 -5.891454807174713e-16 -0.08038418992024045
  outer loop
    vertex 7941.131819847826 -21535.187924490576 1385.755546868699
    vertex 7924.235248010227 -21198.871604490578 1176.2380560823046
    vertex 7932.120314867774 -21198.871604490578 1274.0128851159554
  endloop
endfacet
endsolid house assy
