solid house assy
facet normal -1.0 0.0 -1.0021204149256662e-14
  outer loop
    vertex 4376.877441275131 -21454.61213949058 2876.8538148826433
    vertex 4376.877441275132 -27221.035709490578 2827.174339713797
    vertex 4376.877441275131 -27221.035709490578 2876.8538148826433
  endloop
endfacet
facet normal -1.0 0.0 -1.0021204149256662e-14
  outer loop
    vertex 4376.877441275132 -27221.035709490578 2827.174339713797
    vertex 4376.877441275131 -21454.61213949058 2876.8538148826433
    vertex 4376.877441275132 -21454.61213949058 2827.174339713797
  endloop
endfacet
facet normal -6.418758048502649e-16 1.0 2.588981335209311e-16
  outer loop
    vertex 4376.877441275132 -21454.61213949058 2827.174339713797
    vertex 6362.429063769712 -21454.612139490575 1626.60124603024
    vertex 6340.028678693141 -21454.612139490575 1591.0267372938856
  endloop
endfacet
facet normal -6.418758048502649e-16 1.0 2.588981335209311e-16
  outer loop
    vertex 6362.429063769712 -21454.612139490575 1626.60124603024
    vertex 4376.877441275132 -21454.61213949058 2827.174339713797
    vertex 4376.877441275131 -21454.61213949058 2876.8538148826433
  endloop
endfacet
facet normal -0.5328408702038848 -7.741398026177689e-18 -0.8462154613574292
  outer loop
    vertex 6340.028678693141 -21454.612139490575 1591.0267372938856
    vertex 4376.877441275132 -27221.035709490578 2827.174339713797
    vertex 4376.877441275132 -21454.61213949058 2827.174339713797
  endloop
endfacet
facet normal -0.5328408702038848 -7.741398026177689e-18 -0.8462154613574292
  outer loop
    vertex 4376.877441275132 -27221.035709490578 2827.174339713797
    vertex 6340.028678693141 -21454.612139490575 1591.0267372938856
    vertex 6340.028678693141 -27221.035709490578 1591.0267372938858
  endloop
endfacet
facet normal 0.8462154613574294 -1.840127385854001e-17 -0.5328408702038848
  outer loop
    vertex 6340.028678693141 -21454.612139490575 1591.0267372938856
    vertex 6362.429063769712 -27221.035709490578 1626.60124603024
    vertex 6340.028678693141 -27221.035709490578 1591.0267372938858
  endloop
endfacet
facet normal 0.8462154613574294 -1.840127385854001e-17 -0.5328408702038848
  outer loop
    vertex 6362.429063769712 -27221.035709490578 1626.60124603024
    vertex 6340.028678693141 -21454.612139490575 1591.0267372938856
    vertex 6362.429063769712 -21454.612139490575 1626.60124603024
  endloop
endfacet
facet normal 0.0 -1.0 0.0
  outer loop
    vertex 6362.429063769712 -27221.035709490578 1626.60124603024
    vertex 4376.877441275132 -27221.035709490578 2827.174339713797
    vertex 6340.028678693141 -27221.035709490578 1591.0267372938858
  endloop
endfacet
facet normal 0.0 -1.0 0.0
  outer loop
    vertex 4376.877441275132 -27221.035709490578 2827.174339713797
    vertex 6362.429063769712 -27221.035709490578 1626.60124603024
    vertex 4376.877441275131 -27221.035709490578 2876.8538148826433
  endloop
endfacet
facet normal 0.5328408702038848 7.74139802617771e-18 0.8462154613574293
  outer loop
    vertex 6362.429063769712 -27221.035709490578 1626.60124603024
    vertex 4376.877441275131 -21454.61213949058 2876.8538148826433
    vertex 4376.877441275131 -27221.035709490578 2876.8538148826433
  endloop
endfacet
facet normal 0.5328408702038848 7.74139802617771e-18 0.8462154613574293
  outer loop
    vertex 4376.877441275131 -21454.61213949058 2876.8538148826433
    vertex 6362.429063769712 -27221.035709490578 1626.60124603024
    vertex 6362.429063769712 -21454.612139490575 1626.60124603024
  endloop
endfacet
endsolid house assy
