solid house assy
facet normal 0.0 1.0 -1.8947806286936004e-14
  outer loop
    vertex -537.3104387302877 -22344.449069490576 1491.5278462500003
    vertex 1967.2562964470499 -22344.449069490576 1449.4883062500005
    vertex -537.3104387302877 -22344.449069490576 1449.4883062500005
  endloop
endfacet
facet normal 0.0 1.0 -1.8947806286936004e-14
  outer loop
    vertex 1967.2562964470499 -22344.449069490576 1449.4883062500005
    vertex -537.3104387302877 -22344.449069490576 1491.5278462500003
    vertex 1967.2562964470499 -22344.449069490576 1491.5278462500003
  endloop
endfacet
facet normal -0.0 -1.0 -0.0
  outer loop
    vertex 1967.2562964470499 -22386.488609490574 1574.806032722651
    vertex -537.3104387302877 -22386.488609490574 1449.4883062500005
    vertex 1967.2562964470499 -22386.488609490574 1449.4883062500005
  endloop
endfacet
facet normal -0.0 -1.0 -0.0
  outer loop
    vertex -537.3104387302877 -22386.488609490574 1449.4883062500005
    vertex 1967.2562964470499 -22386.488609490574 1574.806032722651
    vertex -537.3104387302877 -22386.488609490574 1574.806032722651
  endloop
endfacet
facet normal 0.0 0.0 -1.0
  outer loop
    vertex 1967.2562964470499 -22260.369989490577 1491.5278462500003
    vertex -537.3104387302877 -22344.449069490576 1491.5278462500003
    vertex -537.3104387302877 -22260.369989490577 1491.5278462500003
  endloop
endfacet
facet normal 0.0 0.0 -1.0
  outer loop
    vertex -537.3104387302877 -22344.449069490576 1491.5278462500003
    vertex 1967.2562964470499 -22260.369989490577 1491.5278462500003
    vertex 1967.2562964470499 -22344.449069490576 1491.5278462500003
  endloop
endfacet
facet normal 1.0 0.0 0.0
  outer loop
    vertex 1967.2562964470499 -22344.449069490576 1449.4883062500005
    vertex 1967.2562964470499 -22386.488609490574 1574.806032722651
    vertex 1967.2562964470499 -22386.488609490574 1449.4883062500005
  endloop
endfacet
facet normal 1.0 0.0 0.0
  outer loop
    vertex 1967.2562964470499 -22386.488609490574 1574.806032722651
    vertex 1967.2562964470499 -22344.449069490576 1449.4883062500005
    vertex 1967.2562964470499 -22344.449069490576 1491.5278462500003
  endloop
endfacet
facet normal 1.0 0.0 0.0
  outer loop
    vertex 1967.2562964470499 -22386.488609490574 1574.806032722651
    vertex 1967.2562964470499 -22344.449069490576 1491.5278462500003
    vertex 1967.2562964470499 -22260.369989490577 1530.7175810606598
  endloop
endfacet
facet normal 1.0 0.0 0.0
  outer loop
    vertex 1967.2562964470499 -22260.369989490577 1530.7175810606598
    vertex 1967.2562964470499 -22344.449069490576 1491.5278462500003
    vertex 1967.2562964470499 -22260.369989490577 1491.5278462500003
  endloop
endfacet
facet normal 0.0 0.0 -1.0
  outer loop
    vertex 1967.2562964470499 -22344.449069490576 1449.4883062500005
    vertex -537.3104387302877 -22386.488609490574 1449.4883062500005
    vertex -537.3104387302877 -22344.449069490576 1449.4883062500005
  endloop
endfacet
facet normal 0.0 0.0 -1.0
  outer loop
    vertex -537.3104387302877 -22386.488609490574 1449.4883062500005
    vertex 1967.2562964470499 -22344.449069490576 1449.4883062500005
    vertex 1967.2562964470499 -22386.488609490574 1449.4883062500005
  endloop
endfacet
facet normal 0.0 1.0 0.0
  outer loop
    vertex -537.3104387302877 -22260.369989490577 1530.7175810606598
    vertex 1967.2562964470499 -22260.369989490577 1491.5278462500003
    vertex -537.3104387302877 -22260.369989490577 1491.5278462500003
  endloop
endfacet
facet normal 0.0 1.0 0.0
  outer loop
    vertex 1967.2562964470499 -22260.369989490577 1491.5278462500003
    vertex -537.3104387302877 -22260.369989490577 1530.7175810606598
    vertex 1967.2562964470499 -22260.369989490577 1530.7175810606598
  endloop
endfacet
facet normal 0.0 0.32999655970215175 0.9439821346745626
  outer loop
    vertex 1967.2562964470499 -22386.488609490574 1574.806032722651
    vertex -537.3104387302877 -22260.369989490577 1530.7175810606598
    vertex -537.3104387302877 -22386.488609490574 1574.806032722651
  endloop
endfacet
facet normal 0.0 0.32999655970215175 0.9439821346745626
  outer loop
    vertex -537.3104387302877 -22260.369989490577 1530.7175810606598
    vertex 1967.2562964470499 -22386.488609490574 1574.806032722651
    vertex 1967.2562964470499 -22260.369989490577 1530.7175810606598
  endloop
endfacet
facet normal -1.0 0.0 0.0
  outer loop
    vertex -537.3104387302877 -22386.488609490574 1574.806032722651
    vertex -537.3104387302877 -22344.449069490576 1491.5278462500003
    vertex -537.3104387302877 -22386.488609490574 1449.4883062500005
  endloop
endfacet
facet normal -1.0 0.0 0.0
  outer loop
    vertex -537.3104387302877 -22344.449069490576 1491.5278462500003
    vertex -537.3104387302877 -22386.488609490574 1574.806032722651
    vertex -537.3104387302877 -22260.369989490577 1530.7175810606598
  endloop
endfacet
facet normal -1.0 0.0 0.0
  outer loop
    vertex -537.3104387302877 -22386.488609490574 1449.4883062500005
    vertex -537.3104387302877 -22344.449069490576 1491.5278462500003
    vertex -537.3104387302877 -22344.449069490576 1449.4883062500005
  endloop
endfacet
facet normal -1.0 0.0 0.0
  outer loop
    vertex -537.3104387302877 -22344.449069490576 1491.5278462500003
    vertex -537.3104387302877 -22260.369989490577 1530.7175810606598
    vertex -537.3104387302877 -22260.369989490577 1491.5278462500003
  endloop
endfacet
facet normal 1.0 0.0 0.0
  outer loop
    vertex 3433.5031500389614 -24632.240980919116 2404.408699709936
    vertex 3433.5031500389614 -24646.113884490576 2409.25837883362
    vertex 3433.5031500389614 -24646.113884490576 2364.724125
  endloop
endfacet
facet normal 0.0 -1.0 0.0
  outer loop
    vertex 3433.5031500389614 -24646.113884490576 2409.25837883362
    vertex -659.9257637302877 -24646.113884490576 2364.724125
    vertex 3433.5031500389614 -24646.113884490576 2364.724125
  endloop
endfacet
facet normal 0.0 -1.0 0.0
  outer loop
    vertex -659.9257637302877 -24646.113884490576 2364.724125
    vertex 3433.5031500389614 -24646.113884490576 2409.25837883362
    vertex -659.9257637302877 -24646.113884490576 2409.25837883362
  endloop
endfacet
facet normal 0.0 0.32999655970215236 0.9439821346745626
  outer loop
    vertex 3433.5031500389614 -24646.113884490576 2409.25837883362
    vertex -659.9257637302877 -22134.391645919117 1531.212420959937
    vertex -659.9257637302877 -24646.113884490576 2409.25837883362
  endloop
endfacet
facet normal 0.0 0.32999655970215236 0.9439821346745626
  outer loop
    vertex -659.9257637302877 -22134.391645919117 1531.212420959937
    vertex 3433.5031500389614 -24646.113884490576 2409.25837883362
    vertex 1967.2562964470494 -22134.391645919117 1531.212420959937
  endloop
endfacet
facet normal 0.0 0.32999655970215236 0.9439821346745626
  outer loop
    vertex 1967.2562964470494 -22134.391645919117 1531.212420959937
    vertex 3433.5031500389614 -24646.113884490576 2409.25837883362
    vertex 3433.5031500389614 -24632.240980919116 2404.408699709936
  endloop
endfacet
facet normal 0.8746894349511386 0.4575328544009013 -0.15994398872299567
  outer loop
    vertex 1967.2562964470494 -22148.264549490577 1491.5278462500003
    vertex 3433.5031500389614 -24632.240980919116 2404.408699709936
    vertex 3433.5031500389614 -24646.113884490576 2364.724125
  endloop
endfacet
facet normal 0.8746894349511386 0.4575328544009013 -0.15994398872299567
  outer loop
    vertex 3433.5031500389614 -24632.240980919116 2404.408699709936
    vertex 1967.2562964470494 -22148.264549490577 1491.5278462500003
    vertex 1967.2562964470494 -22134.391645919117 1531.212420959937
  endloop
endfacet
facet normal 1.4698589554621562e-17 -0.32999655970215236 -0.9439821346745626
  outer loop
    vertex 1967.2562964470494 -22148.264549490577 1491.5278462500003
    vertex -659.9257637302877 -24646.113884490576 2364.724125
    vertex -659.9257637302877 -22148.264549490577 1491.5278462500003
  endloop
endfacet
facet normal 1.4698589554621562e-17 -0.32999655970215236 -0.9439821346745626
  outer loop
    vertex -659.9257637302877 -24646.113884490576 2364.724125
    vertex 1967.2562964470494 -22148.264549490577 1491.5278462500003
    vertex 3433.5031500389614 -24646.113884490576 2364.724125
  endloop
endfacet
facet normal -1.0 0.0 0.0
  outer loop
    vertex -659.9257637302877 -22134.391645919117 1531.212420959937
    vertex -659.9257637302877 -24646.113884490576 2364.724125
    vertex -659.9257637302877 -24646.113884490576 2409.25837883362
  endloop
endfacet
facet normal -1.0 0.0 0.0
  outer loop
    vertex -659.9257637302877 -24646.113884490576 2364.724125
    vertex -659.9257637302877 -22134.391645919117 1531.212420959937
    vertex -659.9257637302877 -22148.264549490577 1491.5278462500003
  endloop
endfacet
facet normal 0.0 0.9439821346745626 -0.32999655970215225
  outer loop
    vertex -659.9257637302877 -22134.391645919117 1531.212420959937
    vertex 1967.2562964470494 -22148.264549490577 1491.5278462500003
    vertex -659.9257637302877 -22148.264549490577 1491.5278462500003
  endloop
endfacet
facet normal 0.0 0.9439821346745626 -0.32999655970215225
  outer loop
    vertex 1967.2562964470494 -22148.264549490577 1491.5278462500003
    vertex -659.9257637302877 -22134.391645919117 1531.212420959937
    vertex 1967.2562964470494 -22134.391645919117 1531.212420959937
  endloop
endfacet
facet normal 0.0 -1.0 -1.8947806286936004e-14
  outer loop
    vertex -537.3104387302877 -26947.778699490576 1449.4883062500005
    vertex 1967.2562964470499 -26947.778699490576 1449.4883062500005
    vertex -537.3104387302877 -26947.778699490576 1491.5278462500003
  endloop
endfacet
facet normal 0.0 -1.0 -1.8947806286936004e-14
  outer loop
    vertex 1967.2562964470499 -26947.778699490576 1491.5278462500003
    vertex -537.3104387302877 -26947.778699490576 1491.5278462500003
    vertex 1967.2562964470499 -26947.778699490576 1449.4883062500005
  endloop
endfacet
facet normal -0.0 1.0 -0.0
  outer loop
    vertex 1967.2562964470499 -26905.739159490575 1449.4883062500005
    vertex -537.3104387302877 -26905.739159490575 1449.4883062500005
    vertex 1967.2562964470499 -26905.739159490575 1574.806032722651
  endloop
endfacet
facet normal -0.0 1.0 -0.0
  outer loop
    vertex -537.3104387302877 -26905.739159490575 1574.806032722651
    vertex 1967.2562964470499 -26905.739159490575 1574.806032722651
    vertex -537.3104387302877 -26905.739159490575 1449.4883062500005
  endloop
endfacet
facet normal 0.0 0.0 -1.0
  outer loop
    vertex -537.3104387302877 -27031.85777949058 1491.5278462500003
    vertex -537.3104387302877 -26947.778699490576 1491.5278462500003
    vertex 1967.2562964470499 -27031.85777949058 1491.5278462500003
  endloop
endfacet
facet normal 0.0 0.0 -1.0
  outer loop
    vertex 1967.2562964470499 -26947.778699490576 1491.5278462500003
    vertex 1967.2562964470499 -27031.85777949058 1491.5278462500003
    vertex -537.3104387302877 -26947.778699490576 1491.5278462500003
  endloop
endfacet
facet normal 1.0 0.0 0.0
  outer loop
    vertex 1967.2562964470499 -26905.739159490575 1449.4883062500005
    vertex 1967.2562964470499 -26905.739159490575 1574.806032722651
    vertex 1967.2562964470499 -26947.778699490576 1449.4883062500005
  endloop
endfacet
facet normal 1.0 0.0 0.0
  outer loop
    vertex 1967.2562964470499 -26947.778699490576 1491.5278462500003
    vertex 1967.2562964470499 -26947.778699490576 1449.4883062500005
    vertex 1967.2562964470499 -26905.739159490575 1574.806032722651
  endloop
endfacet
facet normal 1.0 0.0 0.0
  outer loop
    vertex 1967.2562964470499 -27031.85777949058 1530.7175810606598
    vertex 1967.2562964470499 -26947.778699490576 1491.5278462500003
    vertex 1967.2562964470499 -26905.739159490575 1574.806032722651
  endloop
endfacet
facet normal 1.0 0.0 0.0
  outer loop
    vertex 1967.2562964470499 -27031.85777949058 1491.5278462500003
    vertex 1967.2562964470499 -26947.778699490576 1491.5278462500003
    vertex 1967.2562964470499 -27031.85777949058 1530.7175810606598
  endloop
endfacet
facet normal 0.0 0.0 -1.0
  outer loop
    vertex -537.3104387302877 -26947.778699490576 1449.4883062500005
    vertex -537.3104387302877 -26905.739159490575 1449.4883062500005
    vertex 1967.2562964470499 -26947.778699490576 1449.4883062500005
  endloop
endfacet
facet normal 0.0 0.0 -1.0
  outer loop
    vertex 1967.2562964470499 -26905.739159490575 1449.4883062500005
    vertex 1967.2562964470499 -26947.778699490576 1449.4883062500005
    vertex -537.3104387302877 -26905.739159490575 1449.4883062500005
  endloop
endfacet
facet normal 0.0 -1.0 0.0
  outer loop
    vertex -537.3104387302877 -27031.85777949058 1491.5278462500003
    vertex 1967.2562964470499 -27031.85777949058 1491.5278462500003
    vertex -537.3104387302877 -27031.85777949058 1530.7175810606598
  endloop
endfacet
facet normal 0.0 -1.0 0.0
  outer loop
    vertex 1967.2562964470499 -27031.85777949058 1530.7175810606598
    vertex -537.3104387302877 -27031.85777949058 1530.7175810606598
    vertex 1967.2562964470499 -27031.85777949058 1491.5278462500003
  endloop
endfacet
facet normal 0.0 -0.32999655970215175 0.9439821346745626
  outer loop
    vertex -537.3104387302877 -26905.739159490575 1574.806032722651
    vertex -537.3104387302877 -27031.85777949058 1530.7175810606598
    vertex 1967.2562964470499 -26905.739159490575 1574.806032722651
  endloop
endfacet
facet normal 0.0 -0.32999655970215175 0.9439821346745626
  outer loop
    vertex 1967.2562964470499 -27031.85777949058 1530.7175810606598
    vertex 1967.2562964470499 -26905.739159490575 1574.806032722651
    vertex -537.3104387302877 -27031.85777949058 1530.7175810606598
  endloop
endfacet
facet normal -1.0 0.0 0.0
  outer loop
    vertex -537.3104387302877 -26905.739159490575 1449.4883062500005
    vertex -537.3104387302877 -26947.778699490576 1491.5278462500003
    vertex -537.3104387302877 -26905.739159490575 1574.806032722651
  endloop
endfacet
facet normal -1.0 0.0 0.0
  outer loop
    vertex -537.3104387302877 -27031.85777949058 1530.7175810606598
    vertex -537.3104387302877 -26905.739159490575 1574.806032722651
    vertex -537.3104387302877 -26947.778699490576 1491.5278462500003
  endloop
endfacet
facet normal -1.0 0.0 0.0
  outer loop
    vertex -537.3104387302877 -26947.778699490576 1449.4883062500005
    vertex -537.3104387302877 -26947.778699490576 1491.5278462500003
    vertex -537.3104387302877 -26905.739159490575 1449.4883062500005
  endloop
endfacet
facet normal -1.0 0.0 0.0
  outer loop
    vertex -537.3104387302877 -27031.85777949058 1491.5278462500003
    vertex -537.3104387302877 -27031.85777949058 1530.7175810606598
    vertex -537.3104387302877 -26947.778699490576 1491.5278462500003
  endloop
endfacet
facet normal 1.0 0.0 0.0
  outer loop
    vertex 3433.5031500389614 -24646.113884490576 2364.724125
    vertex 3433.5031500389614 -24646.113884490576 2409.25837883362
    vertex 3433.5031500389614 -24659.986788062037 2404.408699709936
  endloop
endfacet
facet normal 0.0 1.0 0.0
  outer loop
    vertex 3433.5031500389614 -24646.113884490576 2364.724125
    vertex -659.9257637302877 -24646.113884490576 2364.724125
    vertex 3433.5031500389614 -24646.113884490576 2409.25837883362
  endloop
endfacet
facet normal 0.0 1.0 0.0
  outer loop
    vertex -659.9257637302877 -24646.113884490576 2409.25837883362
    vertex 3433.5031500389614 -24646.113884490576 2409.25837883362
    vertex -659.9257637302877 -24646.113884490576 2364.724125
  endloop
endfacet
facet normal 0.0 -0.32999655970215236 0.9439821346745626
  outer loop
    vertex -659.9257637302877 -24646.113884490576 2409.25837883362
    vertex -659.9257637302877 -27157.836123062036 1531.212420959937
    vertex 3433.5031500389614 -24646.113884490576 2409.25837883362
  endloop
endfacet
facet normal 0.0 -0.32999655970215236 0.9439821346745626
  outer loop
    vertex 1967.2562964470494 -27157.836123062036 1531.212420959937
    vertex 3433.5031500389614 -24646.113884490576 2409.25837883362
    vertex -659.9257637302877 -27157.836123062036 1531.212420959937
  endloop
endfacet
facet normal 0.0 -0.32999655970215236 0.9439821346745626
  outer loop
    vertex 3433.5031500389614 -24659.986788062037 2404.408699709936
    vertex 3433.5031500389614 -24646.113884490576 2409.25837883362
    vertex 1967.2562964470494 -27157.836123062036 1531.212420959937
  endloop
endfacet
facet normal 0.8746894349511386 -0.4575328544009013 -0.15994398872299567
  outer loop
    vertex 3433.5031500389614 -24646.113884490576 2364.724125
    vertex 3433.5031500389614 -24659.986788062037 2404.408699709936
    vertex 1967.2562964470494 -27143.963219490575 1491.5278462500003
  endloop
endfacet
facet normal 0.8746894349511386 -0.4575328544009013 -0.15994398872299567
  outer loop
    vertex 1967.2562964470494 -27157.836123062036 1531.212420959937
    vertex 1967.2562964470494 -27143.963219490575 1491.5278462500003
    vertex 3433.5031500389614 -24659.986788062037 2404.408699709936
  endloop
endfacet
facet normal 1.4698589554621562e-17 0.32999655970215236 -0.9439821346745626
  outer loop
    vertex -659.9257637302877 -27143.963219490575 1491.5278462500003
    vertex -659.9257637302877 -24646.113884490576 2364.724125
    vertex 1967.2562964470494 -27143.963219490575 1491.5278462500003
  endloop
endfacet
facet normal 1.4698589554621562e-17 0.32999655970215236 -0.9439821346745626
  outer loop
    vertex 3433.5031500389614 -24646.113884490576 2364.724125
    vertex 1967.2562964470494 -27143.963219490575 1491.5278462500003
    vertex -659.9257637302877 -24646.113884490576 2364.724125
  endloop
endfacet
facet normal -1.0 0.0 0.0
  outer loop
    vertex -659.9257637302877 -24646.113884490576 2409.25837883362
    vertex -659.9257637302877 -24646.113884490576 2364.724125
    vertex -659.9257637302877 -27157.836123062036 1531.212420959937
  endloop
endfacet
facet normal -1.0 0.0 0.0
  outer loop
    vertex -659.9257637302877 -27143.963219490575 1491.5278462500003
    vertex -659.9257637302877 -27157.836123062036 1531.212420959937
    vertex -659.9257637302877 -24646.113884490576 2364.724125
  endloop
endfacet
facet normal 0.0 -0.9439821346745626 -0.32999655970215225
  outer loop
    vertex -659.9257637302877 -27143.963219490575 1491.5278462500003
    vertex 1967.2562964470494 -27143.963219490575 1491.5278462500003
    vertex -659.9257637302877 -27157.836123062036 1531.212420959937
  endloop
endfacet
facet normal 0.0 -0.9439821346745626 -0.32999655970215225
  outer loop
    vertex 1967.2562964470494 -27157.836123062036 1531.212420959937
    vertex -659.9257637302877 -27157.836123062036 1531.212420959937
    vertex 1967.2562964470494 -27143.963219490575 1491.5278462500003
  endloop
endfacet
facet normal 3.0272341777367168e-15 1.0 -3.581217813284112e-15
  outer loop
    vertex 1228.7693652142639 -19482.257054490576 1051.7355707008464
    vertex 3608.2706745803093 -19482.257054490576 2419.873978202058
    vertex 1250.2797376918613 -19482.257054490576 1015.6159527725425
  endloop
endfacet
facet normal 3.0272341777367168e-15 1.0 -3.581217813284112e-15
  outer loop
    vertex 3608.2706745803093 -19482.257054490576 2419.873978202058
    vertex 1228.7693652142639 -19482.257054490576 1051.7355707008464
    vertex 3596.395918724358 -19482.257054490576 2461.7319099462593
  endloop
endfacet
facet normal 3.0272341777367168e-15 1.0 -3.581217813284112e-15
  outer loop
    vertex 3608.2706745803093 -19482.257054490576 2419.873978202058
    vertex 3596.395918724358 -19482.257054490576 2461.7319099462593
    vertex 3623.772903805057 -19482.25705449058 2444.493108606015
  endloop
endfacet
facet normal 0.5116700248765087 2.497933613646281e-16 -0.8591820445300711
  outer loop
    vertex 1250.2797376918613 -19482.257054490576 1015.6159527725425
    vertex 1326.4425012697122 -19594.36249449058 1060.973282319458
    vertex 1250.2797376918613 -21375.937181750804 1015.6159527725425
  endloop
endfacet
facet normal 0.5116700248765087 2.497933613646281e-16 -0.8591820445300711
  outer loop
    vertex 1326.4425012697122 -19594.36249449058 1060.973282319458
    vertex 1250.2797376918613 -19482.257054490576 1015.6159527725425
    vertex 3608.2706745803093 -19482.257054490576 2419.873978202058
  endloop
endfacet
facet normal 0.5116700248765087 2.497933613646281e-16 -0.8591820445300711
  outer loop
    vertex 1326.4425012697122 -19594.36249449058 1060.973282319458
    vertex 3608.2706745803093 -19482.257054490576 2419.873978202058
    vertex 1452.5611212697117 -19594.36249449058 1136.0809010640812
  endloop
endfacet
facet normal 0.5116700248765087 2.497933613646281e-16 -0.8591820445300711
  outer loop
    vertex 1452.5611212697117 -19594.36249449058 1136.0809010640812
    vertex 3608.2706745803093 -19482.257054490576 2419.873978202058
    vertex 1452.5611212697117 -21286.453979490576 1136.0809010640812
  endloop
endfacet
facet normal 0.5116700248765087 2.497933613646281e-16 -0.8591820445300711
  outer loop
    vertex 1452.5611212697117 -21286.453979490576 1136.0809010640812
    vertex 3608.2706745803093 -19482.257054490576 2419.873978202058
    vertex 1876.7045146277947 -21375.937181750804 1388.671678551096
  endloop
endfacet
facet normal 0.5116700248765087 2.497933613646281e-16 -0.8591820445300711
  outer loop
    vertex 1876.7045146277947 -21375.937181750804 1388.671678551096
    vertex 3608.2706745803093 -19482.257054490576 2419.873978202058
    vertex 1876.7045146277947 -22260.36998949058 1388.6716785510964
  endloop
endfacet
facet normal 0.5116700248765087 2.497933613646281e-16 -0.8591820445300711
  outer loop
    vertex 1876.7045146277947 -22260.36998949058 1388.6716785510964
    vertex 3608.2706745803093 -19482.257054490576 2419.873978202058
    vertex 2049.4177246255854 -22260.36998949058 1491.5278462499996
  endloop
endfacet
facet normal 0.5116700248765087 2.497933613646281e-16 -0.8591820445300711
  outer loop
    vertex 2049.4177246255854 -22260.36998949058 1491.5278462499996
    vertex 3608.2706745803093 -19482.257054490576 2419.873978202058
    vertex 2049.4177246255854 -27343.65103449058 1491.5278462499996
  endloop
endfacet
facet normal 0.5116700248765087 2.497933613646281e-16 -0.8591820445300711
  outer loop
    vertex 2049.4177246255854 -27343.65103449058 1491.5278462499996
    vertex 3608.2706745803093 -19482.257054490576 2419.873978202058
    vertex 3608.2706745803093 -21331.996814490583 2419.8739782020607
  endloop
endfacet
facet normal 0.5116700248765087 2.497933613646281e-16 -0.8591820445300711
  outer loop
    vertex 2049.4177246255854 -27343.65103449058 1491.5278462499996
    vertex 3608.2706745803093 -21331.996814490583 2419.8739782020607
    vertex 4375.644186949366 -27343.65103449058 2876.8691245312657
  endloop
endfacet
facet normal 0.5116700248765087 2.497933613646281e-16 -0.8591820445300711
  outer loop
    vertex 4375.644186949366 -27343.65103449058 2876.8691245312657
    vertex 3608.2706745803093 -21331.996814490583 2419.8739782020607
    vertex 4375.644186949366 -21331.99681449058 2876.8691245312684
  endloop
endfacet
facet normal 0.5116700248765087 2.497933613646281e-16 -0.8591820445300711
  outer loop
    vertex 1250.2797376918613 -21375.937181750804 1015.6159527725425
    vertex 1326.4425012697122 -21286.453979490583 1060.973282319458
    vertex 1876.7045146277947 -21375.937181750804 1388.671678551096
  endloop
endfacet
facet normal 0.5116700248765087 2.497933613646281e-16 -0.8591820445300711
  outer loop
    vertex 1326.4425012697122 -21286.453979490583 1060.973282319458
    vertex 1250.2797376918613 -21375.937181750804 1015.6159527725425
    vertex 1326.4425012697122 -19594.36249449058 1060.973282319458
  endloop
endfacet
facet normal 0.5116700248765087 2.497933613646281e-16 -0.8591820445300711
  outer loop
    vertex 1876.7045146277947 -21375.937181750804 1388.671678551096
    vertex 1326.4425012697122 -21286.453979490583 1060.973282319458
    vertex 1452.5611212697117 -21286.453979490576 1136.0809010640812
  endloop
endfacet
facet normal 0.5328451513267946 3.780338149659596e-15 0.8462127656254811
  outer loop
    vertex 3623.772903805057 -21331.996814490583 2444.493108606017
    vertex 3596.395918724358 -19482.257054490576 2461.7319099462593
    vertex 3596.395918724358 -21331.996814490583 2461.731909946261
  endloop
endfacet
facet normal 0.5328451513267946 3.780338149659596e-15 0.8462127656254811
  outer loop
    vertex 3596.395918724358 -19482.257054490576 2461.7319099462593
    vertex 3623.772903805057 -21331.996814490583 2444.493108606017
    vertex 3623.772903805057 -19482.25705449058 2444.493108606015
  endloop
endfacet
facet normal -0.8591820445300729 -7.435850469548569e-17 -0.5116700248765057
  outer loop
    vertex 1855.1941421501976 -21375.937181750804 1424.7912964794011
    vertex 1876.7045146277947 -22260.36998949058 1388.6716785510964
    vertex 1855.1941421501988 -22260.36998949058 1424.7912964794014
  endloop
endfacet
facet normal -0.8591820445300729 -7.435850469548569e-17 -0.5116700248765057
  outer loop
    vertex 1876.7045146277947 -22260.36998949058 1388.6716785510964
    vertex 1855.1941421501976 -21375.937181750804 1424.7912964794011
    vertex 1876.7045146277947 -21375.937181750804 1388.671678551096
  endloop
endfacet
facet normal 0.0 1.0 0.0
  outer loop
    vertex 1326.4425012697122 -19594.36249449058 1060.973282319458
    vertex 1410.5215812697122 -19594.36249449058 984.425895
    vertex 1326.4425012697122 -19594.36249449058 984.425895
  endloop
endfacet
facet normal 0.0 1.0 0.0
  outer loop
    vertex 1410.5215812697122 -19594.36249449058 984.425895
    vertex 1452.5611212697127 -19594.36249449058 942.3863550000001
    vertex 1410.5215812697122 -19594.36249449058 942.3863550000001
  endloop
endfacet
facet normal 0.0 1.0 0.0
  outer loop
    vertex 1452.5611212697127 -19594.36249449058 942.3863550000001
    vertex 1410.5215812697122 -19594.36249449058 984.425895
    vertex 1452.5611212697117 -19594.36249449058 1136.0809010640812
  endloop
endfacet
facet normal 0.0 1.0 0.0
  outer loop
    vertex 1452.5611212697117 -19594.36249449058 1136.0809010640812
    vertex 1410.5215812697122 -19594.36249449058 984.425895
    vertex 1326.4425012697122 -19594.36249449058 1060.973282319458
  endloop
endfacet
facet normal 0.0 0.0 -1.0
  outer loop
    vertex 1410.5215812697122 -19594.36249449058 984.425895
    vertex 1326.4425012697122 -21286.453979490583 984.425895
    vertex 1326.4425012697122 -19594.36249449058 984.425895
  endloop
endfacet
facet normal 0.0 0.0 -1.0
  outer loop
    vertex 1326.4425012697122 -21286.453979490583 984.425895
    vertex 1410.5215812697122 -19594.36249449058 984.425895
    vertex 1410.5215812697122 -21286.453979490583 984.425895
  endloop
endfacet
facet normal -0.5116700248765081 -1.4719872992262614e-16 0.8591820445300714
  outer loop
    vertex 4376.877441275132 -27343.65103449058 2926.5332900514873
    vertex 1967.2562964470499 -22260.36998949058 1491.5278462499998
    vertex 1967.2562964470499 -27343.65103449058 1491.5278462499998
  endloop
endfacet
facet normal -0.5116700248765081 -1.4719872992262614e-16 0.8591820445300714
  outer loop
    vertex 1967.2562964470499 -22260.36998949058 1491.5278462499998
    vertex 4376.877441275132 -27343.65103449058 2926.5332900514873
    vertex 3596.395918724358 -21331.996814490583 2461.731909946261
  endloop
endfacet
facet normal -0.5116700248765081 -1.4719872992262614e-16 0.8591820445300714
  outer loop
    vertex 3596.395918724358 -21331.996814490583 2461.731909946261
    vertex 4376.877441275132 -27343.65103449058 2926.5332900514873
    vertex 4376.877441275132 -21331.99681449058 2926.5332900514895
  endloop
endfacet
facet normal -0.5116700248765081 -1.4719872992262614e-16 0.8591820445300714
  outer loop
    vertex 1855.1941421501976 -21375.937181750804 1424.7912964794011
    vertex 1228.7693652142639 -19482.257054490576 1051.7355707008464
    vertex 1228.7693652142639 -21375.937181750804 1051.7355707008464
  endloop
endfacet
facet normal -0.5116700248765081 -1.4719872992262614e-16 0.8591820445300714
  outer loop
    vertex 1228.7693652142639 -19482.257054490576 1051.7355707008464
    vertex 1855.1941421501976 -21375.937181750804 1424.7912964794011
    vertex 3596.395918724358 -19482.257054490576 2461.7319099462593
  endloop
endfacet
facet normal -0.5116700248765081 -1.4719872992262614e-16 0.8591820445300714
  outer loop
    vertex 3596.395918724358 -19482.257054490576 2461.7319099462593
    vertex 1855.1941421501976 -21375.937181750804 1424.7912964794011
    vertex 1855.1941421501988 -22260.36998949058 1424.7912964794014
  endloop
endfacet
facet normal -0.5116700248765081 -1.4719872992262614e-16 0.8591820445300714
  outer loop
    vertex 3596.395918724358 -19482.257054490576 2461.7319099462593
    vertex 1855.1941421501988 -22260.36998949058 1424.7912964794014
    vertex 1967.2562964470499 -22260.36998949058 1491.5278462499998
  endloop
endfacet
facet normal -0.5116700248765081 -1.4719872992262614e-16 0.8591820445300714
  outer loop
    vertex 3596.395918724358 -19482.257054490576 2461.7319099462593
    vertex 1967.2562964470499 -22260.36998949058 1491.5278462499998
    vertex 3596.395918724358 -21331.996814490583 2461.731909946261
  endloop
endfacet
facet normal 0.0 0.0 -1.0
  outer loop
    vertex 1452.5611212697127 -19594.36249449058 942.3863550000001
    vertex 1410.5215812697122 -21286.453979490576 942.3863550000001
    vertex 1410.5215812697122 -19594.36249449058 942.3863550000001
  endloop
endfacet
facet normal 0.0 0.0 -1.0
  outer loop
    vertex 1410.5215812697122 -21286.453979490576 942.3863550000001
    vertex 1452.5611212697127 -19594.36249449058 942.3863550000001
    vertex 1452.5611212697127 -21286.453979490576 942.3863550000001
  endloop
endfacet
facet normal 0.0 -1.0 0.0
  outer loop
    vertex 4375.644186949366 -27343.65103449058 2876.8691245312657
    vertex 1967.2562964470499 -27343.65103449058 1491.5278462499998
    vertex 2049.4177246255854 -27343.65103449058 1491.5278462499996
  endloop
endfacet
facet normal 0.0 -1.0 0.0
  outer loop
    vertex 1967.2562964470499 -27343.65103449058 1491.5278462499998
    vertex 4375.644186949366 -27343.65103449058 2876.8691245312657
    vertex 4376.877441275132 -27343.65103449058 2926.5332900514873
  endloop
endfacet
facet normal 0.0 -1.0 0.0
  outer loop
    vertex 2049.4177246255854 -22260.36998949058 1491.5278462499996
    vertex 1855.1941421501988 -22260.36998949058 1424.7912964794014
    vertex 1876.7045146277947 -22260.36998949058 1388.6716785510964
  endloop
endfacet
facet normal 0.0 -1.0 0.0
  outer loop
    vertex 1855.1941421501988 -22260.36998949058 1424.7912964794014
    vertex 2049.4177246255854 -22260.36998949058 1491.5278462499996
    vertex 1967.2562964470499 -22260.36998949058 1491.5278462499998
  endloop
endfacet
facet normal -1.0 1.183042649609148e-16 0.0
  outer loop
    vertex 1326.4425012697122 -19594.36249449058 1060.973282319458
    vertex 1326.4425012697122 -21286.453979490583 984.425895
    vertex 1326.4425012697122 -21286.453979490583 1060.973282319458
  endloop
endfacet
facet normal -1.0 1.183042649609148e-16 0.0
  outer loop
    vertex 1326.4425012697122 -21286.453979490583 984.425895
    vertex 1326.4425012697122 -19594.36249449058 1060.973282319458
    vertex 1326.4425012697122 -19594.36249449058 984.425895
  endloop
endfacet
facet normal 0.9996918315144755 6.229138875017711e-18 -0.02482422210731535
  outer loop
    vertex 4375.644186949366 -21331.99681449058 2876.8691245312684
    vertex 4376.877441275132 -27343.65103449058 2926.5332900514873
    vertex 4375.644186949366 -27343.65103449058 2876.8691245312657
  endloop
endfacet
facet normal 0.9996918315144755 6.229138875017711e-18 -0.02482422210731535
  outer loop
    vertex 4376.877441275132 -27343.65103449058 2926.5332900514873
    vertex 4375.644186949366 -21331.99681449058 2876.8691245312684
    vertex 4376.877441275132 -21331.99681449058 2926.5332900514895
  endloop
endfacet
facet normal -2.4237561285479083e-15 -0.0 -1.0
  outer loop
    vertex 2049.4177246255854 -22260.36998949058 1491.5278462499996
    vertex 1967.2562964470499 -27343.65103449058 1491.5278462499998
    vertex 1967.2562964470499 -22260.36998949058 1491.5278462499998
  endloop
endfacet
facet normal -2.4237561285479083e-15 -0.0 -1.0
  outer loop
    vertex 1967.2562964470499 -27343.65103449058 1491.5278462499998
    vertex 2049.4177246255854 -22260.36998949058 1491.5278462499996
    vertex 2049.4177246255854 -27343.65103449058 1491.5278462499996
  endloop
endfacet
facet normal 1.0 0.0 4.112439283904088e-15
  outer loop
    vertex 1452.5611212697127 -19594.36249449058 942.3863550000001
    vertex 1452.5611212697117 -21286.453979490576 1136.0809010640812
    vertex 1452.5611212697127 -21286.453979490576 942.3863550000001
  endloop
endfacet
facet normal 1.0 0.0 4.112439283904088e-15
  outer loop
    vertex 1452.5611212697117 -21286.453979490576 1136.0809010640812
    vertex 1452.5611212697127 -19594.36249449058 942.3863550000001
    vertex 1452.5611212697117 -19594.36249449058 1136.0809010640812
  endloop
endfacet
facet normal 6.38874920924661e-17 -1.0 3.804701794731945e-17
  outer loop
    vertex 1876.7045146277947 -21375.937181750804 1388.671678551096
    vertex 1228.7693652142639 -21375.937181750804 1051.7355707008464
    vertex 1250.2797376918613 -21375.937181750804 1015.6159527725425
  endloop
endfacet
facet normal 6.38874920924661e-17 -1.0 3.804701794731945e-17
  outer loop
    vertex 1228.7693652142639 -21375.937181750804 1051.7355707008464
    vertex 1876.7045146277947 -21375.937181750804 1388.671678551096
    vertex 1855.1941421501976 -21375.937181750804 1424.7912964794011
  endloop
endfacet
facet normal -1.0 -6.116221245185258e-32 -2.5430122312756104e-15
  outer loop
    vertex 1410.5215812697122 -19594.36249449058 984.425895
    vertex 1410.5215812697122 -21286.453979490576 942.3863550000001
    vertex 1410.5215812697122 -21286.453979490583 984.425895
  endloop
endfacet
facet normal -1.0 -6.116221245185258e-32 -2.5430122312756104e-15
  outer loop
    vertex 1410.5215812697122 -21286.453979490576 942.3863550000001
    vertex 1410.5215812697122 -19594.36249449058 984.425895
    vertex 1410.5215812697122 -19594.36249449058 942.3863550000001
  endloop
endfacet
facet normal 0.8462127656254288 -2.2649158095905426e-15 -0.5328451513268777
  outer loop
    vertex 3608.2706745803093 -21331.996814490583 2419.8739782020607
    vertex 3623.772903805057 -19482.25705449058 2444.493108606015
    vertex 3623.772903805057 -21331.996814490583 2444.493108606017
  endloop
endfacet
facet normal 0.8462127656254288 -2.2649158095905426e-15 -0.5328451513268777
  outer loop
    vertex 3623.772903805057 -19482.25705449058 2444.493108606015
    vertex 3608.2706745803093 -21331.996814490583 2419.8739782020607
    vertex 3608.2706745803093 -19482.257054490576 2419.873978202058
  endloop
endfacet
facet normal 4.6779406767090014e-14 -1.0 -9.891055370662948e-15
  outer loop
    vertex 1452.5611212697117 -21286.453979490576 1136.0809010640812
    vertex 1410.5215812697122 -21286.453979490576 942.3863550000001
    vertex 1452.5611212697127 -21286.453979490576 942.3863550000001
  endloop
endfacet
facet normal 4.6779406767090014e-14 -1.0 -9.891055370662948e-15
  outer loop
    vertex 1410.5215812697122 -21286.453979490576 942.3863550000001
    vertex 1452.5611212697117 -21286.453979490576 1136.0809010640812
    vertex 1410.5215812697122 -21286.453979490583 984.425895
  endloop
endfacet
facet normal 4.6779406767090014e-14 -1.0 -9.891055370662948e-15
  outer loop
    vertex 1410.5215812697122 -21286.453979490583 984.425895
    vertex 1452.5611212697117 -21286.453979490576 1136.0809010640812
    vertex 1326.4425012697122 -21286.453979490583 984.425895
  endloop
endfacet
facet normal 4.6779406767090014e-14 -1.0 -9.891055370662948e-15
  outer loop
    vertex 1326.4425012697122 -21286.453979490583 984.425895
    vertex 1452.5611212697117 -21286.453979490576 1136.0809010640812
    vertex 1326.4425012697122 -21286.453979490583 1060.973282319458
  endloop
endfacet
facet normal -9.773418227964779e-17 1.0 -4.405819807926485e-15
  outer loop
    vertex 3623.772903805057 -21331.996814490583 2444.493108606017
    vertex 4375.644186949366 -21331.99681449058 2876.8691245312684
    vertex 3608.2706745803093 -21331.996814490583 2419.8739782020607
  endloop
endfacet
facet normal -9.773418227964779e-17 1.0 -4.405819807926485e-15
  outer loop
    vertex 4375.644186949366 -21331.99681449058 2876.8691245312684
    vertex 3623.772903805057 -21331.996814490583 2444.493108606017
    vertex 3596.395918724358 -21331.996814490583 2461.731909946261
  endloop
endfacet
facet normal -9.773418227964779e-17 1.0 -4.405819807926485e-15
  outer loop
    vertex 4375.644186949366 -21331.99681449058 2876.8691245312684
    vertex 3596.395918724358 -21331.996814490583 2461.731909946261
    vertex 4376.877441275132 -21331.99681449058 2926.5332900514895
  endloop
endfacet
facet normal -0.8591820445300685 0.0 -0.5116700248765127
  outer loop
    vertex 1228.7693652142639 -19482.257054490576 1051.7355707008464
    vertex 1250.2797376918613 -21375.937181750804 1015.6159527725425
    vertex 1228.7693652142639 -21375.937181750804 1051.7355707008464
  endloop
endfacet
facet normal -0.8591820445300685 0.0 -0.5116700248765127
  outer loop
    vertex 1250.2797376918613 -21375.937181750804 1015.6159527725425
    vertex 1228.7693652142639 -19482.257054490576 1051.7355707008464
    vertex 1250.2797376918613 -19482.257054490576 1015.6159527725425
  endloop
endfacet
facet normal -1.0 0.0 -1.0021204149256662e-14
  outer loop
    vertex 4376.877441275131 -21454.61213949058 2876.8538148826433
    vertex 4376.877441275132 -27221.035709490578 2827.174339713797
    vertex 4376.877441275131 -27221.035709490578 2876.8538148826433
  endloop
endfacet
facet normal -1.0 0.0 -1.0021204149256662e-14
  outer loop
    vertex 4376.877441275132 -27221.035709490578 2827.174339713797
    vertex 4376.877441275131 -21454.61213949058 2876.8538148826433
    vertex 4376.877441275132 -21454.61213949058 2827.174339713797
  endloop
endfacet
facet normal -6.418758048502649e-16 1.0 2.588981335209311e-16
  outer loop
    vertex 4376.877441275132 -21454.61213949058 2827.174339713797
    vertex 6362.429063769712 -21454.612139490575 1626.60124603024
    vertex 6340.028678693141 -21454.612139490575 1591.0267372938856
  endloop
endfacet
facet normal -6.418758048502649e-16 1.0 2.588981335209311e-16
  outer loop
    vertex 6362.429063769712 -21454.612139490575 1626.60124603024
    vertex 4376.877441275132 -21454.61213949058 2827.174339713797
    vertex 4376.877441275131 -21454.61213949058 2876.8538148826433
  endloop
endfacet
facet normal -0.5328408702038848 -7.741398026177689e-18 -0.8462154613574292
  outer loop
    vertex 6340.028678693141 -21454.612139490575 1591.0267372938856
    vertex 4376.877441275132 -27221.035709490578 2827.174339713797
    vertex 4376.877441275132 -21454.61213949058 2827.174339713797
  endloop
endfacet
facet normal -0.5328408702038848 -7.741398026177689e-18 -0.8462154613574292
  outer loop
    vertex 4376.877441275132 -27221.035709490578 2827.174339713797
    vertex 6340.028678693141 -21454.612139490575 1591.0267372938856
    vertex 6340.028678693141 -27221.035709490578 1591.0267372938858
  endloop
endfacet
facet normal 0.8462154613574294 -1.840127385854001e-17 -0.5328408702038848
  outer loop
    vertex 6340.028678693141 -21454.612139490575 1591.0267372938856
    vertex 6362.429063769712 -27221.035709490578 1626.60124603024
    vertex 6340.028678693141 -27221.035709490578 1591.0267372938858
  endloop
endfacet
facet normal 0.8462154613574294 -1.840127385854001e-17 -0.5328408702038848
  outer loop
    vertex 6362.429063769712 -27221.035709490578 1626.60124603024
    vertex 6340.028678693141 -21454.612139490575 1591.0267372938856
    vertex 6362.429063769712 -21454.612139490575 1626.60124603024
  endloop
endfacet
facet normal 0.0 -1.0 0.0
  outer loop
    vertex 6362.429063769712 -27221.035709490578 1626.60124603024
    vertex 4376.877441275132 -27221.035709490578 2827.174339713797
    vertex 6340.028678693141 -27221.035709490578 1591.0267372938858
  endloop
endfacet
facet normal 0.0 -1.0 0.0
  outer loop
    vertex 4376.877441275132 -27221.035709490578 2827.174339713797
    vertex 6362.429063769712 -27221.035709490578 1626.60124603024
    vertex 4376.877441275131 -27221.035709490578 2876.8538148826433
  endloop
endfacet
facet normal 0.5328408702038848 7.74139802617771e-18 0.8462154613574293
  outer loop
    vertex 6362.429063769712 -27221.035709490578 1626.60124603024
    vertex 4376.877441275131 -21454.61213949058 2876.8538148826433
    vertex 4376.877441275131 -27221.035709490578 2876.8538148826433
  endloop
endfacet
facet normal 0.5328408702038848 7.74139802617771e-18 0.8462154613574293
  outer loop
    vertex 4376.877441275131 -21454.61213949058 2876.8538148826433
    vertex 6362.429063769712 -27221.035709490578 1626.60124603024
    vertex 6362.429063769712 -21454.612139490575 1626.60124603024
  endloop
endfacet
facet normal -0.9967639550118503 1.9142746545181628e-15 0.08038418992024643
  outer loop
    vertex 6489.371928581057 -21358.13094406584 1443.622355809027
    vertex 6485.7653502333305 -21535.187924490572 1398.9007842971994
    vertex 6494.116122561444 -21535.187924490572 1502.450361165898
  endloop
endfacet
facet normal -0.9967639550118503 1.9142746545181628e-15 0.08038418992024643
  outer loop
    vertex 6485.7653502333305 -21535.187924490572 1398.9007842971994
    vertex 6489.371928581057 -21358.13094406584 1443.622355809027
    vertex 6481.314412988807 -21360.023174490576 1343.7091624650675
  endloop
endfacet
facet normal -0.08038418992027958 -3.309027849779127e-14 -0.9967639550118474
  outer loop
    vertex 6485.7653502333305 -21535.187924490572 1398.9007842971994
    vertex 7932.781047519711 -22890.96308949058 1282.2059700000002
    vertex 6485.765350233326 -22890.96308949058 1398.9007842972896
  endloop
endfacet
facet normal -0.08038418992027958 -3.309027849779127e-14 -0.9967639550118474
  outer loop
    vertex 7932.781047519711 -22890.96308949058 1282.2059700000002
    vertex 6485.7653502333305 -21535.187924490572 1398.9007842971994
    vertex 7932.781047519711 -21535.187924490576 1282.2059700000002
  endloop
endfacet
facet normal 0.0015171788400718663 -0.9998218684028222 0.018813017616987834
  outer loop
    vertex 6489.371928581057 -21358.13094406584 1443.622355809027
    vertex 6313.700420359692 -21360.023174490576 1357.2264199351478
    vertex 6481.314412988807 -21360.023174490576 1343.7091624650675
  endloop
endfacet
facet normal 0.0015171788400718663 -0.9998218684028222 0.018813017616987834
  outer loop
    vertex 6313.700420359692 -21360.023174490576 1357.2264199351478
    vertex 6489.371928581057 -21358.13094406584 1443.622355809027
    vertex 6321.75793595194 -21358.13094406584 1457.1396132791074
  endloop
endfacet
facet normal 0.0 -1.0 0.0
  outer loop
    vertex 7941.131819847824 -22890.96308949058 1385.755546868699
    vertex 6485.765350233326 -22890.96308949058 1398.9007842972896
    vertex 7932.781047519711 -22890.96308949058 1282.2059700000002
  endloop
endfacet
facet normal 0.0 -1.0 0.0
  outer loop
    vertex 6485.765350233326 -22890.96308949058 1398.9007842972896
    vertex 7941.131819847824 -22890.96308949058 1385.755546868699
    vertex 6485.765350233326 -22890.96308949058 1503.1238105472896
  endloop
endfacet
facet normal -0.9967639550118498 6.6920443734769034e-15 0.08038418992025295
  outer loop
    vertex 6321.75793595194 -21358.13094406584 1457.1396132791074
    vertex 6309.60555809473 -21198.87160449057 1306.4501278495839
    vertex 6313.700420359692 -21360.023174490576 1357.2264199351478
  endloop
endfacet
facet normal -0.9967639550118498 6.6920443734769034e-15 0.08038418992025295
  outer loop
    vertex 6309.60555809473 -21198.87160449057 1306.4501278495839
    vertex 6321.75793595194 -21358.13094406584 1457.1396132791074
    vertex 6317.490624952278 -21198.87160449057 1404.2249568832344
  endloop
endfacet
facet normal 4.693255415238692e-15 1.0 -3.784883399383406e-16
  outer loop
    vertex 6309.60555809473 -21198.87160449057 1306.4501278495839
    vertex 7932.120314867774 -21198.871604490578 1274.0128851159554
    vertex 7924.235248010227 -21198.871604490578 1176.2380560823046
  endloop
endfacet
facet normal 4.693255415238692e-15 1.0 -3.784883399383406e-16
  outer loop
    vertex 7932.120314867774 -21198.871604490578 1274.0128851159554
    vertex 6309.60555809473 -21198.87160449057 1306.4501278495839
    vertex 6317.490624952278 -21198.87160449057 1404.2249568832344
  endloop
endfacet
facet normal 0.0 1.0 0.0
  outer loop
    vertex 6485.765350233326 -21535.187924490572 1503.1238105472896
    vertex 6494.116122561444 -21535.187924490572 1502.450361165898
    vertex 6485.7653502333305 -21535.187924490572 1398.9007842971994
  endloop
endfacet
facet normal 0.0762591384046616 0.31622776601683583 0.9456133162185165
  outer loop
    vertex 6321.75793595194 -21358.13094406584 1457.1396132791074
    vertex 7932.120314867774 -21198.871604490578 1274.0128851159554
    vertex 6317.490624952278 -21198.87160449057 1404.2249568832344
  endloop
endfacet
facet normal 0.0762591384046616 0.31622776601683583 0.9456133162185165
  outer loop
    vertex 7932.120314867774 -21198.871604490578 1274.0128851159554
    vertex 6321.75793595194 -21358.13094406584 1457.1396132791074
    vertex 6489.371928581057 -21358.13094406584 1443.622355809027
  endloop
endfacet
facet normal 0.0762591384046616 0.31622776601683583 0.9456133162185165
  outer loop
    vertex 7932.120314867774 -21198.871604490578 1274.0128851159554
    vertex 6489.371928581057 -21358.13094406584 1443.622355809027
    vertex 6494.116122561444 -21535.187924490572 1502.450361165898
  endloop
endfacet
facet normal 0.0762591384046616 0.31622776601683583 0.9456133162185165
  outer loop
    vertex 7932.120314867774 -21198.871604490578 1274.0128851159554
    vertex 6494.116122561444 -21535.187924490572 1502.450361165898
    vertex 7941.131819847826 -21535.187924490576 1385.755546868699
  endloop
endfacet
facet normal -0.07664597829508468 -0.30140666411065276 -0.950410130859766
  outer loop
    vertex 7924.235248010227 -21198.871604490578 1176.2380560823046
    vertex 6313.700420359692 -21360.023174490576 1357.2264199351478
    vertex 6309.60555809473 -21198.87160449057 1306.4501278495839
  endloop
endfacet
facet normal -0.07664597829508468 -0.30140666411065276 -0.950410130859766
  outer loop
    vertex 6313.700420359692 -21360.023174490576 1357.2264199351478
    vertex 7924.235248010227 -21198.871604490578 1176.2380560823046
    vertex 6481.314412988807 -21360.023174490576 1343.7091624650675
  endloop
endfacet
facet normal -0.07664597829508468 -0.30140666411065276 -0.950410130859766
  outer loop
    vertex 6481.314412988807 -21360.023174490576 1343.7091624650675
    vertex 7924.235248010227 -21198.871604490578 1176.2380560823046
    vertex 6485.7653502333305 -21535.187924490572 1398.9007842971994
  endloop
endfacet
facet normal -0.07664597829508468 -0.30140666411065276 -0.950410130859766
  outer loop
    vertex 6485.7653502333305 -21535.187924490572 1398.9007842971994
    vertex 7924.235248010227 -21198.871604490578 1176.2380560823046
    vertex 7932.781047519711 -21535.187924490576 1282.2059700000002
  endloop
endfacet
facet normal -1.0 1.7625866313421156e-15 -2.2928437859821718e-14
  outer loop
    vertex 6485.765350233326 -21535.187924490572 1503.1238105472896
    vertex 6485.765350233326 -22890.96308949058 1398.9007842972896
    vertex 6485.765350233326 -22890.96308949058 1503.1238105472896
  endloop
endfacet
facet normal -1.0 1.7625866313421156e-15 -2.2928437859821718e-14
  outer loop
    vertex 6485.765350233326 -22890.96308949058 1398.9007842972896
    vertex 6485.765350233326 -21535.187924490572 1503.1238105472896
    vertex 6485.7653502333305 -21535.187924490572 1398.9007842971994
  endloop
endfacet
facet normal 0.0803841899202958 2.2268656141255032e-14 0.9967639550118463
  outer loop
    vertex 7941.131819847824 -22890.96308949058 1385.755546868699
    vertex 6485.765350233326 -21535.187924490572 1503.1238105472896
    vertex 6485.765350233326 -22890.96308949058 1503.1238105472896
  endloop
endfacet
facet normal 0.0803841899202958 2.2268656141255032e-14 0.9967639550118463
  outer loop
    vertex 6485.765350233326 -21535.187924490572 1503.1238105472896
    vertex 7941.131819847824 -22890.96308949058 1385.755546868699
    vertex 6494.116122561444 -21535.187924490572 1502.450361165898
  endloop
endfacet
facet normal 0.0803841899202958 2.2268656141255032e-14 0.9967639550118463
  outer loop
    vertex 6494.116122561444 -21535.187924490572 1502.450361165898
    vertex 7941.131819847824 -22890.96308949058 1385.755546868699
    vertex 7941.131819847826 -21535.187924490576 1385.755546868699
  endloop
endfacet
facet normal 0.9967639550118508 -5.891454807174713e-16 -0.08038418992024045
  outer loop
    vertex 7932.781047519711 -21535.187924490576 1282.2059700000002
    vertex 7941.131819847824 -22890.96308949058 1385.755546868699
    vertex 7932.781047519711 -22890.96308949058 1282.2059700000002
  endloop
endfacet
facet normal 0.9967639550118508 -5.891454807174713e-16 -0.08038418992024045
  outer loop
    vertex 7941.131819847824 -22890.96308949058 1385.755546868699
    vertex 7932.781047519711 -21535.187924490576 1282.2059700000002
    vertex 7941.131819847826 -21535.187924490576 1385.755546868699
  endloop
endfacet
facet normal 0.9967639550118508 -5.891454807174713e-16 -0.08038418992024045
  outer loop
    vertex 7941.131819847826 -21535.187924490576 1385.755546868699
    vertex 7932.781047519711 -21535.187924490576 1282.2059700000002
    vertex 7924.235248010227 -21198.871604490578 1176.2380560823046
  endloop
endfacet
facet normal 0.9967639550118508 -5.891454807174713e-16 -0.08038418992024045
  outer loop
    vertex 7941.131819847826 -21535.187924490576 1385.755546868699
    vertex 7924.235248010227 -21198.871604490578 1176.2380560823046
    vertex 7932.120314867774 -21198.871604490578 1274.0128851159554
  endloop
endfacet
facet normal -0.8462127656254548 -9.41065691010816e-16 0.5328451513268364
  outer loop
    vertex 3623.772903805057 -19482.25705449058 2444.493108606015
    vertex 3608.8391937697197 -21331.996814490583 2420.776845000004
    vertex 3623.772903805056 -21331.996814490583 2444.493108606015
  endloop
endfacet
facet normal -0.8462127656254548 -9.41065691010816e-16 0.5328451513268364
  outer loop
    vertex 3608.8391937697197 -21331.996814490583 2420.776845000004
    vertex 3623.772903805057 -19482.25705449058 2444.493108606015
    vertex 3608.839193769717 -21286.45397949058 2420.7768449999994
  endloop
endfacet
facet normal -0.8462127656254548 -9.41065691010816e-16 0.5328451513268364
  outer loop
    vertex 3608.839193769717 -21286.45397949058 2420.7768449999994
    vertex 3623.772903805057 -19482.25705449058 2444.493108606015
    vertex 3608.8391937697143 -19604.87237949058 2420.776845
  endloop
endfacet
facet normal -0.8462127656254548 -9.41065691010816e-16 0.5328451513268364
  outer loop
    vertex 3608.8391937697143 -19604.87237949058 2420.776845
    vertex 3623.772903805057 -19482.25705449058 2444.493108606015
    vertex 3608.8391937697143 -19482.25705449058 2420.776845
  endloop
endfacet
facet normal 0.5328451513267894 -3.212374085574322e-16 0.8462127656254844
  outer loop
    vertex 5015.122464214074 -21370.53305949058 1568.384998234254
    vertex 3657.00455500497 -21331.996814490583 2423.5677279786405
    vertex 3657.004555004969 -21370.53305949058 2423.567727978641
  endloop
endfacet
facet normal 0.5328451513267894 -3.212374085574322e-16 0.8462127656254844
  outer loop
    vertex 3657.00455500497 -21331.996814490583 2423.5677279786405
    vertex 3623.772903805057 -19482.25705449058 2444.493108606015
    vertex 3623.772903805056 -21331.996814490583 2444.493108606015
  endloop
endfacet
facet normal 0.5328451513267894 -3.212374085574322e-16 0.8462127656254844
  outer loop
    vertex 3623.772903805057 -19482.25705449058 2444.493108606015
    vertex 3657.00455500497 -21331.996814490583 2423.5677279786405
    vertex 5015.122464214076 -19482.25705449058 1568.384998234254
  endloop
endfacet
facet normal 0.5328451513267894 -3.212374085574322e-16 0.8462127656254844
  outer loop
    vertex 5015.122464214076 -19482.25705449058 1568.384998234254
    vertex 3657.00455500497 -21331.996814490583 2423.5677279786405
    vertex 5015.122464214074 -21370.53305949058 1568.384998234254
  endloop
endfacet
facet normal 0.0 1.0 0.0
  outer loop
    vertex 3608.8391937697143 -19482.25705449058 2420.776845
    vertex 5014.293992199642 -19482.25705449058 1567.069299681247
    vertex 4964.614358769714 -19482.25705449058 1567.069299681247
  endloop
endfacet
facet normal 0.0 1.0 0.0
  outer loop
    vertex 5014.293992199642 -19482.25705449058 1567.069299681247
    vertex 3608.8391937697143 -19482.25705449058 2420.776845
    vertex 5015.122464214076 -19482.25705449058 1568.384998234254
  endloop
endfacet
facet normal 0.0 1.0 0.0
  outer loop
    vertex 5015.122464214076 -19482.25705449058 1568.384998234254
    vertex 3608.8391937697143 -19482.25705449058 2420.776845
    vertex 3623.772903805057 -19482.25705449058 2444.493108606015
  endloop
endfacet
facet normal 0.0 -1.0 0.0
  outer loop
    vertex 3657.00455500497 -21331.996814490583 2423.5677279786405
    vertex 3608.8391937697197 -21331.996814490583 2420.776845000004
    vertex 3642.070844969633 -21331.996814490583 2399.8514643726294
  endloop
endfacet
facet normal 0.0 -1.0 0.0
  outer loop
    vertex 3608.8391937697197 -21331.996814490583 2420.776845000004
    vertex 3657.00455500497 -21331.996814490583 2423.5677279786405
    vertex 3623.772903805056 -21331.996814490583 2444.493108606015
  endloop
endfacet
facet normal -0.8462127656254808 2.299854427062991e-14 0.5328451513267953
  outer loop
    vertex 3657.00455500497 -21331.996814490583 2423.5677279786405
    vertex 3642.070844969632 -21370.53305949058 2399.85146437263
    vertex 3657.004555004969 -21370.53305949058 2423.567727978641
  endloop
endfacet
facet normal -0.8462127656254808 2.299854427062991e-14 0.5328451513267953
  outer loop
    vertex 3642.070844969632 -21370.53305949058 2399.85146437263
    vertex 3657.00455500497 -21331.996814490583 2423.5677279786405
    vertex 3642.070844969633 -21331.996814490583 2399.8514643726294
  endloop
endfacet
facet normal 0.8462127656258337 -5.38451044945881e-16 -0.5328451513262348
  outer loop
    vertex 5014.293992199642 -19482.25705449058 1567.069299681247
    vertex 5015.122464214074 -21370.53305949058 1568.384998234254
    vertex 5014.293992199642 -21370.53305949058 1567.069299681247
  endloop
endfacet
facet normal 0.8462127656258337 -5.38451044945881e-16 -0.5328451513262348
  outer loop
    vertex 5015.122464214074 -21370.53305949058 1568.384998234254
    vertex 5014.293992199642 -19482.25705449058 1567.069299681247
    vertex 5015.122464214076 -19482.25705449058 1568.384998234254
  endloop
endfacet
facet normal -0.5328451513267911 -3.751630179095329e-14 -0.8462127656254833
  outer loop
    vertex 4964.614358769713 -21286.45397949058 1567.0692996812465
    vertex 3608.8391937697197 -21331.996814490583 2420.776845000004
    vertex 3608.839193769717 -21286.45397949058 2420.7768449999994
  endloop
endfacet
facet normal -0.5328451513267911 -3.751630179095329e-14 -0.8462127656254833
  outer loop
    vertex 3608.8391937697197 -21331.996814490583 2420.776845000004
    vertex 4964.614358769713 -21286.45397949058 1567.0692996812465
    vertex 3642.070844969633 -21331.996814490583 2399.8514643726294
  endloop
endfacet
facet normal -0.5328451513267911 -3.751630179095329e-14 -0.8462127656254833
  outer loop
    vertex 3642.070844969633 -21331.996814490583 2399.8514643726294
    vertex 4964.614358769714 -21370.53305949058 1567.069299681247
    vertex 3642.070844969632 -21370.53305949058 2399.85146437263
  endloop
endfacet
facet normal -0.5328451513267911 -3.751630179095329e-14 -0.8462127656254833
  outer loop
    vertex 4964.614358769714 -21370.53305949058 1567.069299681247
    vertex 3642.070844969633 -21331.996814490583 2399.8514643726294
    vertex 4964.614358769713 -21286.45397949058 1567.0692996812465
  endloop
endfacet
facet normal -0.5328451513267881 1.5073691276308634e-16 -0.8462127656254852
  outer loop
    vertex 4964.614358769714 -19482.25705449058 1567.069299681247
    vertex 3608.8391937697143 -19604.87237949058 2420.776845
    vertex 3608.8391937697143 -19482.25705449058 2420.776845
  endloop
endfacet
facet normal -0.5328451513267881 1.5073691276308634e-16 -0.8462127656254852
  outer loop
    vertex 3608.8391937697143 -19604.87237949058 2420.776845
    vertex 4964.614358769714 -19482.25705449058 1567.069299681247
    vertex 4964.614358769714 -19604.87237949058 1567.0692996812465
  endloop
endfacet
facet normal -0.5328451513267884 3.9056422734076814e-16 -0.8462127656254849
  outer loop
    vertex 3608.839193769722 -19604.87237949058 2371.097211570068
    vertex 4885.718004180917 -21286.45397949058 1567.0692996812465
    vertex 3608.8391937697143 -21286.45397949058 2371.0972115700715
  endloop
endfacet
facet normal -0.5328451513267884 3.9056422734076814e-16 -0.8462127656254849
  outer loop
    vertex 4885.718004180917 -21286.45397949058 1567.0692996812465
    vertex 3608.839193769722 -19604.87237949058 2371.097211570068
    vertex 4885.718004180917 -19604.87237949058 1567.0692996812465
  endloop
endfacet
facet normal 3.0195566805079135e-15 9.00485062806389e-19 -1.0
  outer loop
    vertex 5014.293992199642 -19482.25705449058 1567.069299681247
    vertex 4964.614358769714 -19604.87237949058 1567.0692996812465
    vertex 4964.614358769714 -19482.25705449058 1567.069299681247
  endloop
endfacet
facet normal 3.0195566805079135e-15 9.00485062806389e-19 -1.0
  outer loop
    vertex 4885.718004180917 -19604.87237949058 1567.0692996812465
    vertex 4964.614358769713 -21286.45397949058 1567.0692996812465
    vertex 4885.718004180917 -21286.45397949058 1567.0692996812465
  endloop
endfacet
facet normal 3.0195566805079135e-15 9.00485062806389e-19 -1.0
  outer loop
    vertex 4964.614358769713 -21286.45397949058 1567.0692996812465
    vertex 4885.718004180917 -19604.87237949058 1567.0692996812465
    vertex 4964.614358769714 -19604.87237949058 1567.0692996812465
  endloop
endfacet
facet normal 3.0195566805079135e-15 9.00485062806389e-19 -1.0
  outer loop
    vertex 4964.614358769713 -21286.45397949058 1567.0692996812465
    vertex 4964.614358769714 -19604.87237949058 1567.0692996812465
    vertex 4964.614358769714 -21370.53305949058 1567.069299681247
  endloop
endfacet
facet normal 3.0195566805079135e-15 9.00485062806389e-19 -1.0
  outer loop
    vertex 4964.614358769714 -21370.53305949058 1567.069299681247
    vertex 4964.614358769714 -19604.87237949058 1567.0692996812465
    vertex 5014.293992199642 -21370.53305949058 1567.069299681247
  endloop
endfacet
facet normal 3.0195566805079135e-15 9.00485062806389e-19 -1.0
  outer loop
    vertex 5014.293992199642 -21370.53305949058 1567.069299681247
    vertex 4964.614358769714 -19604.87237949058 1567.0692996812465
    vertex 5014.293992199642 -19482.25705449058 1567.069299681247
  endloop
endfacet
facet normal -2.5217968428983908e-15 1.0 -4.01206567916513e-15
  outer loop
    vertex 3608.839193769722 -19604.87237949058 2371.097211570068
    vertex 4964.614358769714 -19604.87237949058 1567.0692996812465
    vertex 4885.718004180917 -19604.87237949058 1567.0692996812465
  endloop
endfacet
facet normal -2.5217968428983908e-15 1.0 -4.01206567916513e-15
  outer loop
    vertex 4964.614358769714 -19604.87237949058 1567.0692996812465
    vertex 3608.839193769722 -19604.87237949058 2371.097211570068
    vertex 3608.8391937697143 -19604.87237949058 2420.776845
  endloop
endfacet
facet normal 1.2231113480668696e-15 -1.0 2.0660425887416145e-15
  outer loop
    vertex 3608.839193769717 -21286.45397949058 2420.7768449999994
    vertex 4885.718004180917 -21286.45397949058 1567.0692996812465
    vertex 4964.614358769713 -21286.45397949058 1567.0692996812465
  endloop
endfacet
facet normal 1.2231113480668696e-15 -1.0 2.0660425887416145e-15
  outer loop
    vertex 4885.718004180917 -21286.45397949058 1567.0692996812465
    vertex 3608.839193769717 -21286.45397949058 2420.7768449999994
    vertex 3608.8391937697143 -21286.45397949058 2371.0972115700715
  endloop
endfacet
facet normal -1.0 1.4802973661668356e-15 -4.2088923346588915e-14
  outer loop
    vertex 3608.839193769717 -21286.45397949058 2420.7768449999994
    vertex 3608.839193769722 -19604.87237949058 2371.097211570068
    vertex 3608.8391937697143 -21286.45397949058 2371.0972115700715
  endloop
endfacet
facet normal -1.0 1.4802973661668356e-15 -4.2088923346588915e-14
  outer loop
    vertex 3608.839193769722 -19604.87237949058 2371.097211570068
    vertex 3608.839193769717 -21286.45397949058 2420.7768449999994
    vertex 3608.8391937697143 -19604.87237949058 2420.776845
  endloop
endfacet
facet normal 0.0 -1.0 0.0
  outer loop
    vertex 5015.122464214074 -21370.53305949058 1568.384998234254
    vertex 4964.614358769714 -21370.53305949058 1567.069299681247
    vertex 5014.293992199642 -21370.53305949058 1567.069299681247
  endloop
endfacet
facet normal 0.0 -1.0 0.0
  outer loop
    vertex 4964.614358769714 -21370.53305949058 1567.069299681247
    vertex 5015.122464214074 -21370.53305949058 1568.384998234254
    vertex 3642.070844969632 -21370.53305949058 2399.85146437263
  endloop
endfacet
facet normal 0.0 -1.0 0.0
  outer loop
    vertex 3642.070844969632 -21370.53305949058 2399.85146437263
    vertex 5015.122464214074 -21370.53305949058 1568.384998234254
    vertex 3657.004555004969 -21370.53305949058 2423.567727978641
  endloop
endfacet
facet normal -1.0 -0.0 -0.0
  outer loop
    vertex 6362.429063769712 -21454.61213949057 1626.60124603024
    vertex 6362.429063769712 -27231.545594490573 1449.48830625
    vertex 6362.429063769712 -27231.545594490573 1626.60124603024
  endloop
endfacet
facet normal -1.0 -0.0 -0.0
  outer loop
    vertex 6362.429063769712 -27231.545594490573 1449.48830625
    vertex 6362.429063769712 -21454.61213949057 1626.60124603024
    vertex 6362.429063769712 -21454.61213949057 1449.48830625
  endloop
endfacet
facet normal -4.736951571734001e-15 -0.0 -1.0
  outer loop
    vertex 6404.468603769712 -21454.61213949057 1449.4883062499998
    vertex 6362.429063769712 -27231.545594490573 1449.48830625
    vertex 6362.429063769712 -21454.61213949057 1449.48830625
  endloop
endfacet
facet normal -4.736951571734001e-15 -0.0 -1.0
  outer loop
    vertex 6362.429063769712 -27231.545594490573 1449.48830625
    vertex 6404.468603769712 -21454.61213949057 1449.4883062499998
    vertex 6404.468603769712 -27231.545594490573 1449.4883062499998
  endloop
endfacet
facet normal 0.0 0.0 -1.0
  outer loop
    vertex 6488.547683769712 -21454.61213949057 1491.52784625
    vertex 6404.468603769712 -27231.545594490573 1491.52784625
    vertex 6404.468603769712 -21454.61213949057 1491.52784625
  endloop
endfacet
facet normal 0.0 0.0 -1.0
  outer loop
    vertex 6404.468603769712 -27231.545594490573 1491.52784625
    vertex 6488.547683769712 -21454.61213949057 1491.52784625
    vertex 6488.547683769712 -27231.545594490573 1491.52784625
  endloop
endfacet
facet normal 0.0 1.0 0.0
  outer loop
    vertex 6362.429063769712 -21454.61213949057 1449.48830625
    vertex 6404.468603769712 -21454.61213949057 1491.52784625
    vertex 6404.468603769712 -21454.61213949057 1449.4883062499998
  endloop
endfacet
facet normal 0.0 1.0 0.0
  outer loop
    vertex 6404.468603769712 -21454.61213949057 1491.52784625
    vertex 6362.429063769712 -21454.61213949057 1449.48830625
    vertex 6362.429063769712 -21454.61213949057 1626.60124603024
  endloop
endfacet
facet normal 0.0 1.0 0.0
  outer loop
    vertex 6404.468603769712 -21454.61213949057 1491.52784625
    vertex 6362.429063769712 -21454.61213949057 1626.60124603024
    vertex 6488.547683769712 -21454.61213949057 1491.52784625
  endloop
endfacet
facet normal 0.0 1.0 0.0
  outer loop
    vertex 6488.547683769712 -21454.61213949057 1491.52784625
    vertex 6362.429063769712 -21454.61213949057 1626.60124603024
    vertex 6488.547683769712 -21454.61213949057 1547.1874816895197
  endloop
endfacet
facet normal 0.5328408702038828 0.0 0.8462154613574304
  outer loop
    vertex 6488.547683769712 -27231.545594490573 1547.1874816895197
    vertex 6362.429063769712 -21454.61213949057 1626.60124603024
    vertex 6362.429063769712 -27231.545594490573 1626.60124603024
  endloop
endfacet
facet normal 0.5328408702038828 0.0 0.8462154613574304
  outer loop
    vertex 6362.429063769712 -21454.61213949057 1626.60124603024
    vertex 6488.547683769712 -27231.545594490573 1547.1874816895197
    vertex 6488.547683769712 -21454.61213949057 1547.1874816895197
  endloop
endfacet
facet normal 1.0 0.0 0.0
  outer loop
    vertex 6404.468603769712 -21454.61213949057 1449.4883062499998
    vertex 6404.468603769712 -27231.545594490573 1491.52784625
    vertex 6404.468603769712 -27231.545594490573 1449.4883062499998
  endloop
endfacet
facet normal 1.0 0.0 0.0
  outer loop
    vertex 6404.468603769712 -27231.545594490573 1491.52784625
    vertex 6404.468603769712 -21454.61213949057 1449.4883062499998
    vertex 6404.468603769712 -21454.61213949057 1491.52784625
  endloop
endfacet
facet normal 0.0 -1.0 0.0
  outer loop
    vertex 6488.547683769712 -27231.545594490573 1547.1874816895197
    vertex 6404.468603769712 -27231.545594490573 1491.52784625
    vertex 6488.547683769712 -27231.545594490573 1491.52784625
  endloop
endfacet
facet normal 0.0 -1.0 0.0
  outer loop
    vertex 6404.468603769712 -27231.545594490573 1491.52784625
    vertex 6362.429063769712 -27231.545594490573 1449.48830625
    vertex 6404.468603769712 -27231.545594490573 1449.4883062499998
  endloop
endfacet
facet normal 0.0 -1.0 0.0
  outer loop
    vertex 6362.429063769712 -27231.545594490573 1449.48830625
    vertex 6404.468603769712 -27231.545594490573 1491.52784625
    vertex 6362.429063769712 -27231.545594490573 1626.60124603024
  endloop
endfacet
facet normal 0.0 -1.0 0.0
  outer loop
    vertex 6362.429063769712 -27231.545594490573 1626.60124603024
    vertex 6404.468603769712 -27231.545594490573 1491.52784625
    vertex 6488.547683769712 -27231.545594490573 1547.1874816895197
  endloop
endfacet
facet normal 1.0 0.0 0.0
  outer loop
    vertex 6488.547683769712 -21454.61213949057 1491.52784625
    vertex 6488.547683769712 -27231.545594490573 1547.1874816895197
    vertex 6488.547683769712 -27231.545594490573 1491.52784625
  endloop
endfacet
facet normal 1.0 0.0 0.0
  outer loop
    vertex 6488.547683769712 -27231.545594490573 1547.1874816895197
    vertex 6488.547683769712 -21454.61213949057 1491.52784625
    vertex 6488.547683769712 -21454.61213949057 1547.1874816895197
  endloop
endfacet
facet normal 0.0 0.0 -1.0
  outer loop
    vertex 6565.29686899484 -21331.996814490576 1540.5696679944595
    vertex 6499.057568769712 -27343.651034490573 1540.5696679944595
    vertex 6499.057568769712 -21331.996814490576 1540.5696679944595
  endloop
endfacet
facet normal 0.0 0.0 -1.0
  outer loop
    vertex 6499.057568769712 -27343.651034490573 1540.5696679944595
    vertex 6565.29686899484 -21331.996814490576 1540.5696679944595
    vertex 6565.29686899484 -27343.651034490573 1540.5696679944595
  endloop
endfacet
facet normal -0.5328408702038848 0.0 -0.8462154613574293
  outer loop
    vertex 6499.057568769712 -21331.996814490576 1540.5696679944595
    vertex 4376.877441275131 -27343.651034490573 2876.8538148826433
    vertex 4376.877441275131 -21331.996814490576 2876.8538148826433
  endloop
endfacet
facet normal -0.5328408702038848 0.0 -0.8462154613574293
  outer loop
    vertex 4376.877441275131 -27343.651034490573 2876.8538148826433
    vertex 6499.057568769712 -21331.996814490576 1540.5696679944595
    vertex 6499.057568769712 -27343.651034490573 1540.5696679944595
  endloop
endfacet
facet normal 0.5328408702038847 2.7878877665408476e-18 0.8462154613574293
  outer loop
    vertex 6568.890632161421 -27343.651034490573 1546.276996628719
    vertex 4376.877441275131 -21331.996814490576 2926.5332900514895
    vertex 4376.877441275131 -27343.651034490573 2926.5332900514895
  endloop
endfacet
facet normal 0.5328408702038847 2.7878877665408476e-18 0.8462154613574293
  outer loop
    vertex 4376.877441275131 -21331.996814490576 2926.5332900514895
    vertex 6568.890632161421 -27343.651034490573 1546.276996628719
    vertex 6568.890632161421 -21331.996814490576 1546.276996628719
  endloop
endfacet
facet normal -1.0 0.0 0.0
  outer loop
    vertex 4376.877441275131 -21331.996814490576 2926.5332900514895
    vertex 4376.877441275131 -27343.651034490573 2876.8538148826433
    vertex 4376.877441275131 -27343.651034490573 2926.5332900514895
  endloop
endfacet
facet normal -1.0 0.0 0.0
  outer loop
    vertex 4376.877441275131 -27343.651034490573 2876.8538148826433
    vertex 4376.877441275131 -21331.996814490576 2926.5332900514895
    vertex 4376.877441275131 -21331.996814490576 2876.8538148826433
  endloop
endfacet
facet normal 0.0 -1.0 0.0
  outer loop
    vertex 6568.890632161421 -27343.651034490573 1546.276996628719
    vertex 6499.057568769712 -27343.651034490573 1540.5696679944595
    vertex 6565.29686899484 -27343.651034490573 1540.5696679944595
  endloop
endfacet
facet normal 0.0 -1.0 0.0
  outer loop
    vertex 6499.057568769712 -27343.651034490573 1540.5696679944595
    vertex 6568.890632161421 -27343.651034490573 1546.276996628719
    vertex 4376.877441275131 -27343.651034490573 2876.8538148826433
  endloop
endfacet
facet normal 0.0 -1.0 0.0
  outer loop
    vertex 4376.877441275131 -27343.651034490573 2876.8538148826433
    vertex 6568.890632161421 -27343.651034490573 1546.276996628719
    vertex 4376.877441275131 -27343.651034490573 2926.5332900514895
  endloop
endfacet
facet normal 0.8462154613574313 0.0 -0.5328408702038816
  outer loop
    vertex 6565.29686899484 -21331.996814490576 1540.5696679944595
    vertex 6568.890632161421 -27343.651034490573 1546.276996628719
    vertex 6565.29686899484 -27343.651034490573 1540.5696679944595
  endloop
endfacet
facet normal 0.8462154613574313 0.0 -0.5328408702038816
  outer loop
    vertex 6568.890632161421 -27343.651034490573 1546.276996628719
    vertex 6565.29686899484 -21331.996814490576 1540.5696679944595
    vertex 6568.890632161421 -21331.996814490576 1546.276996628719
  endloop
endfacet
facet normal 0.0 1.0 0.0
  outer loop
    vertex 4376.877441275131 -21331.996814490576 2876.8538148826433
    vertex 6565.29686899484 -21331.996814490576 1540.5696679944595
    vertex 6499.057568769712 -21331.996814490576 1540.5696679944595
  endloop
endfacet
facet normal 0.0 1.0 0.0
  outer loop
    vertex 6565.29686899484 -21331.996814490576 1540.5696679944595
    vertex 4376.877441275131 -21331.996814490576 2876.8538148826433
    vertex 6568.890632161421 -21331.996814490576 1546.276996628719
  endloop
endfacet
facet normal 0.0 1.0 0.0
  outer loop
    vertex 6568.890632161421 -21331.996814490576 1546.276996628719
    vertex 4376.877441275131 -21331.996814490576 2876.8538148826433
    vertex 4376.877441275131 -21331.996814490576 2926.5332900514895
  endloop
endfacet
endsolid house assy
