solid house assy
facet normal 3.0272341777367168e-15 1.0 -3.581217813284112e-15
  outer loop
    vertex 1228.7693652142639 -19482.257054490576 1051.7355707008464
    vertex 3608.2706745803093 -19482.257054490576 2419.873978202058
    vertex 1250.2797376918613 -19482.257054490576 1015.6159527725425
  endloop
endfacet
facet normal 3.0272341777367168e-15 1.0 -3.581217813284112e-15
  outer loop
    vertex 3608.2706745803093 -19482.257054490576 2419.873978202058
    vertex 1228.7693652142639 -19482.257054490576 1051.7355707008464
    vertex 3596.395918724358 -19482.257054490576 2461.7319099462593
  endloop
endfacet
facet normal 3.0272341777367168e-15 1.0 -3.581217813284112e-15
  outer loop
    vertex 3608.2706745803093 -19482.257054490576 2419.873978202058
    vertex 3596.395918724358 -19482.257054490576 2461.7319099462593
    vertex 3623.772903805057 -19482.25705449058 2444.493108606015
  endloop
endfacet
facet normal 0.5116700248765087 2.497933613646281e-16 -0.8591820445300711
  outer loop
    vertex 1250.2797376918613 -19482.257054490576 1015.6159527725425
    vertex 1326.4425012697122 -19594.36249449058 1060.973282319458
    vertex 1250.2797376918613 -21375.937181750804 1015.6159527725425
  endloop
endfacet
facet normal 0.5116700248765087 2.497933613646281e-16 -0.8591820445300711
  outer loop
    vertex 1326.4425012697122 -19594.36249449058 1060.973282319458
    vertex 1250.2797376918613 -19482.257054490576 1015.6159527725425
    vertex 3608.2706745803093 -19482.257054490576 2419.873978202058
  endloop
endfacet
facet normal 0.5116700248765087 2.497933613646281e-16 -0.8591820445300711
  outer loop
    vertex 1326.4425012697122 -19594.36249449058 1060.973282319458
    vertex 3608.2706745803093 -19482.257054490576 2419.873978202058
    vertex 1452.5611212697117 -19594.36249449058 1136.0809010640812
  endloop
endfacet
facet normal 0.5116700248765087 2.497933613646281e-16 -0.8591820445300711
  outer loop
    vertex 1452.5611212697117 -19594.36249449058 1136.0809010640812
    vertex 3608.2706745803093 -19482.257054490576 2419.873978202058
    vertex 1452.5611212697117 -21286.453979490576 1136.0809010640812
  endloop
endfacet
facet normal 0.5116700248765087 2.497933613646281e-16 -0.8591820445300711
  outer loop
    vertex 1452.5611212697117 -21286.453979490576 1136.0809010640812
    vertex 3608.2706745803093 -19482.257054490576 2419.873978202058
    vertex 1876.7045146277947 -21375.937181750804 1388.671678551096
  endloop
endfacet
facet normal 0.5116700248765087 2.497933613646281e-16 -0.8591820445300711
  outer loop
    vertex 1876.7045146277947 -21375.937181750804 1388.671678551096
    vertex 3608.2706745803093 -19482.257054490576 2419.873978202058
    vertex 1876.7045146277947 -22260.36998949058 1388.6716785510964
  endloop
endfacet
facet normal 0.5116700248765087 2.497933613646281e-16 -0.8591820445300711
  outer loop
    vertex 1876.7045146277947 -22260.36998949058 1388.6716785510964
    vertex 3608.2706745803093 -19482.257054490576 2419.873978202058
    vertex 2049.4177246255854 -22260.36998949058 1491.5278462499996
  endloop
endfacet
facet normal 0.5116700248765087 2.497933613646281e-16 -0.8591820445300711
  outer loop
    vertex 2049.4177246255854 -22260.36998949058 1491.5278462499996
    vertex 3608.2706745803093 -19482.257054490576 2419.873978202058
    vertex 2049.4177246255854 -27343.65103449058 1491.5278462499996
  endloop
endfacet
facet normal 0.5116700248765087 2.497933613646281e-16 -0.8591820445300711
  outer loop
    vertex 2049.4177246255854 -27343.65103449058 1491.5278462499996
    vertex 3608.2706745803093 -19482.257054490576 2419.873978202058
    vertex 3608.2706745803093 -21331.996814490583 2419.8739782020607
  endloop
endfacet
facet normal 0.5116700248765087 2.497933613646281e-16 -0.8591820445300711
  outer loop
    vertex 2049.4177246255854 -27343.65103449058 1491.5278462499996
    vertex 3608.2706745803093 -21331.996814490583 2419.8739782020607
    vertex 4375.644186949366 -27343.65103449058 2876.8691245312657
  endloop
endfacet
facet normal 0.5116700248765087 2.497933613646281e-16 -0.8591820445300711
  outer loop
    vertex 4375.644186949366 -27343.65103449058 2876.8691245312657
    vertex 3608.2706745803093 -21331.996814490583 2419.8739782020607
    vertex 4375.644186949366 -21331.99681449058 2876.8691245312684
  endloop
endfacet
facet normal 0.5116700248765087 2.497933613646281e-16 -0.8591820445300711
  outer loop
    vertex 1250.2797376918613 -21375.937181750804 1015.6159527725425
    vertex 1326.4425012697122 -21286.453979490583 1060.973282319458
    vertex 1876.7045146277947 -21375.937181750804 1388.671678551096
  endloop
endfacet
facet normal 0.5116700248765087 2.497933613646281e-16 -0.8591820445300711
  outer loop
    vertex 1326.4425012697122 -21286.453979490583 1060.973282319458
    vertex 1250.2797376918613 -21375.937181750804 1015.6159527725425
    vertex 1326.4425012697122 -19594.36249449058 1060.973282319458
  endloop
endfacet
facet normal 0.5116700248765087 2.497933613646281e-16 -0.8591820445300711
  outer loop
    vertex 1876.7045146277947 -21375.937181750804 1388.671678551096
    vertex 1326.4425012697122 -21286.453979490583 1060.973282319458
    vertex 1452.5611212697117 -21286.453979490576 1136.0809010640812
  endloop
endfacet
facet normal 0.5328451513267946 3.780338149659596e-15 0.8462127656254811
  outer loop
    vertex 3623.772903805057 -21331.996814490583 2444.493108606017
    vertex 3596.395918724358 -19482.257054490576 2461.7319099462593
    vertex 3596.395918724358 -21331.996814490583 2461.731909946261
  endloop
endfacet
facet normal 0.5328451513267946 3.780338149659596e-15 0.8462127656254811
  outer loop
    vertex 3596.395918724358 -19482.257054490576 2461.7319099462593
    vertex 3623.772903805057 -21331.996814490583 2444.493108606017
    vertex 3623.772903805057 -19482.25705449058 2444.493108606015
  endloop
endfacet
facet normal -0.8591820445300729 -7.435850469548569e-17 -0.5116700248765057
  outer loop
    vertex 1855.1941421501976 -21375.937181750804 1424.7912964794011
    vertex 1876.7045146277947 -22260.36998949058 1388.6716785510964
    vertex 1855.1941421501988 -22260.36998949058 1424.7912964794014
  endloop
endfacet
facet normal -0.8591820445300729 -7.435850469548569e-17 -0.5116700248765057
  outer loop
    vertex 1876.7045146277947 -22260.36998949058 1388.6716785510964
    vertex 1855.1941421501976 -21375.937181750804 1424.7912964794011
    vertex 1876.7045146277947 -21375.937181750804 1388.671678551096
  endloop
endfacet
facet normal 0.0 1.0 0.0
  outer loop
    vertex 1326.4425012697122 -19594.36249449058 1060.973282319458
    vertex 1410.5215812697122 -19594.36249449058 984.425895
    vertex 1326.4425012697122 -19594.36249449058 984.425895
  endloop
endfacet
facet normal 0.0 1.0 0.0
  outer loop
    vertex 1410.5215812697122 -19594.36249449058 984.425895
    vertex 1452.5611212697127 -19594.36249449058 942.3863550000001
    vertex 1410.5215812697122 -19594.36249449058 942.3863550000001
  endloop
endfacet
facet normal 0.0 1.0 0.0
  outer loop
    vertex 1452.5611212697127 -19594.36249449058 942.3863550000001
    vertex 1410.5215812697122 -19594.36249449058 984.425895
    vertex 1452.5611212697117 -19594.36249449058 1136.0809010640812
  endloop
endfacet
facet normal 0.0 1.0 0.0
  outer loop
    vertex 1452.5611212697117 -19594.36249449058 1136.0809010640812
    vertex 1410.5215812697122 -19594.36249449058 984.425895
    vertex 1326.4425012697122 -19594.36249449058 1060.973282319458
  endloop
endfacet
facet normal 0.0 0.0 -1.0
  outer loop
    vertex 1410.5215812697122 -19594.36249449058 984.425895
    vertex 1326.4425012697122 -21286.453979490583 984.425895
    vertex 1326.4425012697122 -19594.36249449058 984.425895
  endloop
endfacet
facet normal 0.0 0.0 -1.0
  outer loop
    vertex 1326.4425012697122 -21286.453979490583 984.425895
    vertex 1410.5215812697122 -19594.36249449058 984.425895
    vertex 1410.5215812697122 -21286.453979490583 984.425895
  endloop
endfacet
facet normal -0.5116700248765081 -1.4719872992262614e-16 0.8591820445300714
  outer loop
    vertex 4376.877441275132 -27343.65103449058 2926.5332900514873
    vertex 1967.2562964470499 -22260.36998949058 1491.5278462499998
    vertex 1967.2562964470499 -27343.65103449058 1491.5278462499998
  endloop
endfacet
facet normal -0.5116700248765081 -1.4719872992262614e-16 0.8591820445300714
  outer loop
    vertex 1967.2562964470499 -22260.36998949058 1491.5278462499998
    vertex 4376.877441275132 -27343.65103449058 2926.5332900514873
    vertex 3596.395918724358 -21331.996814490583 2461.731909946261
  endloop
endfacet
facet normal -0.5116700248765081 -1.4719872992262614e-16 0.8591820445300714
  outer loop
    vertex 3596.395918724358 -21331.996814490583 2461.731909946261
    vertex 4376.877441275132 -27343.65103449058 2926.5332900514873
    vertex 4376.877441275132 -21331.99681449058 2926.5332900514895
  endloop
endfacet
facet normal -0.5116700248765081 -1.4719872992262614e-16 0.8591820445300714
  outer loop
    vertex 1855.1941421501976 -21375.937181750804 1424.7912964794011
    vertex 1228.7693652142639 -19482.257054490576 1051.7355707008464
    vertex 1228.7693652142639 -21375.937181750804 1051.7355707008464
  endloop
endfacet
facet normal -0.5116700248765081 -1.4719872992262614e-16 0.8591820445300714
  outer loop
    vertex 1228.7693652142639 -19482.257054490576 1051.7355707008464
    vertex 1855.1941421501976 -21375.937181750804 1424.7912964794011
    vertex 3596.395918724358 -19482.257054490576 2461.7319099462593
  endloop
endfacet
facet normal -0.5116700248765081 -1.4719872992262614e-16 0.8591820445300714
  outer loop
    vertex 3596.395918724358 -19482.257054490576 2461.7319099462593
    vertex 1855.1941421501976 -21375.937181750804 1424.7912964794011
    vertex 1855.1941421501988 -22260.36998949058 1424.7912964794014
  endloop
endfacet
facet normal -0.5116700248765081 -1.4719872992262614e-16 0.8591820445300714
  outer loop
    vertex 3596.395918724358 -19482.257054490576 2461.7319099462593
    vertex 1855.1941421501988 -22260.36998949058 1424.7912964794014
    vertex 1967.2562964470499 -22260.36998949058 1491.5278462499998
  endloop
endfacet
facet normal -0.5116700248765081 -1.4719872992262614e-16 0.8591820445300714
  outer loop
    vertex 3596.395918724358 -19482.257054490576 2461.7319099462593
    vertex 1967.2562964470499 -22260.36998949058 1491.5278462499998
    vertex 3596.395918724358 -21331.996814490583 2461.731909946261
  endloop
endfacet
facet normal 0.0 0.0 -1.0
  outer loop
    vertex 1452.5611212697127 -19594.36249449058 942.3863550000001
    vertex 1410.5215812697122 -21286.453979490576 942.3863550000001
    vertex 1410.5215812697122 -19594.36249449058 942.3863550000001
  endloop
endfacet
facet normal 0.0 0.0 -1.0
  outer loop
    vertex 1410.5215812697122 -21286.453979490576 942.3863550000001
    vertex 1452.5611212697127 -19594.36249449058 942.3863550000001
    vertex 1452.5611212697127 -21286.453979490576 942.3863550000001
  endloop
endfacet
facet normal 0.0 -1.0 0.0
  outer loop
    vertex 4375.644186949366 -27343.65103449058 2876.8691245312657
    vertex 1967.2562964470499 -27343.65103449058 1491.5278462499998
    vertex 2049.4177246255854 -27343.65103449058 1491.5278462499996
  endloop
endfacet
facet normal 0.0 -1.0 0.0
  outer loop
    vertex 1967.2562964470499 -27343.65103449058 1491.5278462499998
    vertex 4375.644186949366 -27343.65103449058 2876.8691245312657
    vertex 4376.877441275132 -27343.65103449058 2926.5332900514873
  endloop
endfacet
facet normal 0.0 -1.0 0.0
  outer loop
    vertex 2049.4177246255854 -22260.36998949058 1491.5278462499996
    vertex 1855.1941421501988 -22260.36998949058 1424.7912964794014
    vertex 1876.7045146277947 -22260.36998949058 1388.6716785510964
  endloop
endfacet
facet normal 0.0 -1.0 0.0
  outer loop
    vertex 1855.1941421501988 -22260.36998949058 1424.7912964794014
    vertex 2049.4177246255854 -22260.36998949058 1491.5278462499996
    vertex 1967.2562964470499 -22260.36998949058 1491.5278462499998
  endloop
endfacet
facet normal -1.0 1.183042649609148e-16 0.0
  outer loop
    vertex 1326.4425012697122 -19594.36249449058 1060.973282319458
    vertex 1326.4425012697122 -21286.453979490583 984.425895
    vertex 1326.4425012697122 -21286.453979490583 1060.973282319458
  endloop
endfacet
facet normal -1.0 1.183042649609148e-16 0.0
  outer loop
    vertex 1326.4425012697122 -21286.453979490583 984.425895
    vertex 1326.4425012697122 -19594.36249449058 1060.973282319458
    vertex 1326.4425012697122 -19594.36249449058 984.425895
  endloop
endfacet
facet normal 0.9996918315144755 6.229138875017711e-18 -0.02482422210731535
  outer loop
    vertex 4375.644186949366 -21331.99681449058 2876.8691245312684
    vertex 4376.877441275132 -27343.65103449058 2926.5332900514873
    vertex 4375.644186949366 -27343.65103449058 2876.8691245312657
  endloop
endfacet
facet normal 0.9996918315144755 6.229138875017711e-18 -0.02482422210731535
  outer loop
    vertex 4376.877441275132 -27343.65103449058 2926.5332900514873
    vertex 4375.644186949366 -21331.99681449058 2876.8691245312684
    vertex 4376.877441275132 -21331.99681449058 2926.5332900514895
  endloop
endfacet
facet normal -2.4237561285479083e-15 -0.0 -1.0
  outer loop
    vertex 2049.4177246255854 -22260.36998949058 1491.5278462499996
    vertex 1967.2562964470499 -27343.65103449058 1491.5278462499998
    vertex 1967.2562964470499 -22260.36998949058 1491.5278462499998
  endloop
endfacet
facet normal -2.4237561285479083e-15 -0.0 -1.0
  outer loop
    vertex 1967.2562964470499 -27343.65103449058 1491.5278462499998
    vertex 2049.4177246255854 -22260.36998949058 1491.5278462499996
    vertex 2049.4177246255854 -27343.65103449058 1491.5278462499996
  endloop
endfacet
facet normal 1.0 0.0 4.112439283904088e-15
  outer loop
    vertex 1452.5611212697127 -19594.36249449058 942.3863550000001
    vertex 1452.5611212697117 -21286.453979490576 1136.0809010640812
    vertex 1452.5611212697127 -21286.453979490576 942.3863550000001
  endloop
endfacet
facet normal 1.0 0.0 4.112439283904088e-15
  outer loop
    vertex 1452.5611212697117 -21286.453979490576 1136.0809010640812
    vertex 1452.5611212697127 -19594.36249449058 942.3863550000001
    vertex 1452.5611212697117 -19594.36249449058 1136.0809010640812
  endloop
endfacet
facet normal 6.38874920924661e-17 -1.0 3.804701794731945e-17
  outer loop
    vertex 1876.7045146277947 -21375.937181750804 1388.671678551096
    vertex 1228.7693652142639 -21375.937181750804 1051.7355707008464
    vertex 1250.2797376918613 -21375.937181750804 1015.6159527725425
  endloop
endfacet
facet normal 6.38874920924661e-17 -1.0 3.804701794731945e-17
  outer loop
    vertex 1228.7693652142639 -21375.937181750804 1051.7355707008464
    vertex 1876.7045146277947 -21375.937181750804 1388.671678551096
    vertex 1855.1941421501976 -21375.937181750804 1424.7912964794011
  endloop
endfacet
facet normal -1.0 -6.116221245185258e-32 -2.5430122312756104e-15
  outer loop
    vertex 1410.5215812697122 -19594.36249449058 984.425895
    vertex 1410.5215812697122 -21286.453979490576 942.3863550000001
    vertex 1410.5215812697122 -21286.453979490583 984.425895
  endloop
endfacet
facet normal -1.0 -6.116221245185258e-32 -2.5430122312756104e-15
  outer loop
    vertex 1410.5215812697122 -21286.453979490576 942.3863550000001
    vertex 1410.5215812697122 -19594.36249449058 984.425895
    vertex 1410.5215812697122 -19594.36249449058 942.3863550000001
  endloop
endfacet
facet normal 0.8462127656254288 -2.2649158095905426e-15 -0.5328451513268777
  outer loop
    vertex 3608.2706745803093 -21331.996814490583 2419.8739782020607
    vertex 3623.772903805057 -19482.25705449058 2444.493108606015
    vertex 3623.772903805057 -21331.996814490583 2444.493108606017
  endloop
endfacet
facet normal 0.8462127656254288 -2.2649158095905426e-15 -0.5328451513268777
  outer loop
    vertex 3623.772903805057 -19482.25705449058 2444.493108606015
    vertex 3608.2706745803093 -21331.996814490583 2419.8739782020607
    vertex 3608.2706745803093 -19482.257054490576 2419.873978202058
  endloop
endfacet
facet normal 4.6779406767090014e-14 -1.0 -9.891055370662948e-15
  outer loop
    vertex 1452.5611212697117 -21286.453979490576 1136.0809010640812
    vertex 1410.5215812697122 -21286.453979490576 942.3863550000001
    vertex 1452.5611212697127 -21286.453979490576 942.3863550000001
  endloop
endfacet
facet normal 4.6779406767090014e-14 -1.0 -9.891055370662948e-15
  outer loop
    vertex 1410.5215812697122 -21286.453979490576 942.3863550000001
    vertex 1452.5611212697117 -21286.453979490576 1136.0809010640812
    vertex 1410.5215812697122 -21286.453979490583 984.425895
  endloop
endfacet
facet normal 4.6779406767090014e-14 -1.0 -9.891055370662948e-15
  outer loop
    vertex 1410.5215812697122 -21286.453979490583 984.425895
    vertex 1452.5611212697117 -21286.453979490576 1136.0809010640812
    vertex 1326.4425012697122 -21286.453979490583 984.425895
  endloop
endfacet
facet normal 4.6779406767090014e-14 -1.0 -9.891055370662948e-15
  outer loop
    vertex 1326.4425012697122 -21286.453979490583 984.425895
    vertex 1452.5611212697117 -21286.453979490576 1136.0809010640812
    vertex 1326.4425012697122 -21286.453979490583 1060.973282319458
  endloop
endfacet
facet normal -9.773418227964779e-17 1.0 -4.405819807926485e-15
  outer loop
    vertex 3623.772903805057 -21331.996814490583 2444.493108606017
    vertex 4375.644186949366 -21331.99681449058 2876.8691245312684
    vertex 3608.2706745803093 -21331.996814490583 2419.8739782020607
  endloop
endfacet
facet normal -9.773418227964779e-17 1.0 -4.405819807926485e-15
  outer loop
    vertex 4375.644186949366 -21331.99681449058 2876.8691245312684
    vertex 3623.772903805057 -21331.996814490583 2444.493108606017
    vertex 3596.395918724358 -21331.996814490583 2461.731909946261
  endloop
endfacet
facet normal -9.773418227964779e-17 1.0 -4.405819807926485e-15
  outer loop
    vertex 4375.644186949366 -21331.99681449058 2876.8691245312684
    vertex 3596.395918724358 -21331.996814490583 2461.731909946261
    vertex 4376.877441275132 -21331.99681449058 2926.5332900514895
  endloop
endfacet
facet normal -0.8591820445300685 0.0 -0.5116700248765127
  outer loop
    vertex 1228.7693652142639 -19482.257054490576 1051.7355707008464
    vertex 1250.2797376918613 -21375.937181750804 1015.6159527725425
    vertex 1228.7693652142639 -21375.937181750804 1051.7355707008464
  endloop
endfacet
facet normal -0.8591820445300685 0.0 -0.5116700248765127
  outer loop
    vertex 1250.2797376918613 -21375.937181750804 1015.6159527725425
    vertex 1228.7693652142639 -19482.257054490576 1051.7355707008464
    vertex 1250.2797376918613 -19482.257054490576 1015.6159527725425
  endloop
endfacet
endsolid house assy
