solid house assy
facet normal -0.9967639550118502 1.9142746545181624e-15 0.0803841899202464
  outer loop
    vertex 6899.9809213485605 -7184.579098787639 484.65524692173733
    vertex 6893.443712090403 -7505.508916486994 403.59385212052683
    vertex 6908.58014915423 -7505.508916486994 591.2856717121504
  endloop
endfacet
facet normal -0.9967639550118502 1.9142746545181624e-15 0.0803841899202464
  outer loop
    vertex 6893.443712090403 -7505.508916486994 403.59385212052683
    vertex 6899.9809213485605 -7184.579098787639 484.65524692173733
    vertex 6885.376035373847 -7188.008916487 303.55466083516916
  endloop
endfacet
facet normal -0.0766459782950847 -0.3014066641106528 -0.9504101308597661
  outer loop
    vertex 9500.784472969317 -6895.908916486999 0.0
    vertex 6581.562381886236 -7188.008916486997 328.0557619228621
    vertex 6574.140119307006 -6895.908916486988 236.01970594032846
  endloop
endfacet
facet normal -0.0766459782950847 -0.3014066641106528 -0.9504101308597661
  outer loop
    vertex 6581.562381886236 -7188.008916486997 328.0557619228621
    vertex 9500.784472969317 -6895.908916486999 0.0
    vertex 6885.376035373847 -7188.008916487 303.55466083516916
  endloop
endfacet
facet normal -0.0766459782950847 -0.3014066641106528 -0.9504101308597661
  outer loop
    vertex 6885.376035373847 -7188.008916487 303.55466083516916
    vertex 9500.784472969317 -6895.908916486999 0.0
    vertex 6893.443712090403 -7505.508916486994 403.59385212052683
  endloop
endfacet
facet normal -0.0766459782950847 -0.3014066641106528 -0.9504101308597661
  outer loop
    vertex 6893.443712090403 -7505.508916486994 403.59385212052683
    vertex 9500.784472969317 -6895.908916486999 0.0
    vertex 9516.2744122651 -7505.508916487 192.07524726789094
  endloop
endfacet
facet normal 0.0762591384046616 0.31622776601683583 0.9456133162185166
  outer loop
    vertex 6596.167267860948 -7184.579098787637 509.15634800943025
    vertex 9515.076781937138 -6895.908916486999 177.22463120110683
    vertex 6588.4324282748275 -6895.908916486988 413.2443371414353
  endloop
endfacet
facet normal 0.0762591384046616 0.31622776601683583 0.9456133162185166
  outer loop
    vertex 9515.076781937138 -6895.908916486999 177.22463120110683
    vertex 6596.167267860948 -7184.579098787637 509.15634800943025
    vertex 6899.9809213485605 -7184.579098787639 484.65524692173733
  endloop
endfacet
facet normal 0.0762591384046616 0.31622776601683583 0.9456133162185166
  outer loop
    vertex 9515.076781937138 -6895.908916486999 177.22463120110683
    vertex 6899.9809213485605 -7184.579098787639 484.65524692173733
    vertex 6908.58014915423 -7505.508916486994 591.2856717121504
  endloop
endfacet
facet normal 0.0762591384046616 0.31622776601683583 0.9456133162185166
  outer loop
    vertex 9515.076781937138 -6895.908916486999 177.22463120110683
    vertex 6908.58014915423 -7505.508916486994 591.2856717121504
    vertex 9531.41084932893 -7505.508916487 379.76706685951484
  endloop
endfacet
facet normal 4.693255415238692e-15 1.0 -3.784883399383406e-16
  outer loop
    vertex 6574.140119307006 -6895.908916486988 236.01970594032846
    vertex 9515.076781937138 -6895.908916486999 177.22463120110683
    vertex 9500.784472969317 -6895.908916486999 0.0
  endloop
endfacet
facet normal 4.693255415238692e-15 1.0 -3.784883399383406e-16
  outer loop
    vertex 9515.076781937138 -6895.908916486999 177.22463120110683
    vertex 6574.140119307006 -6895.908916486988 236.01970594032846
    vertex 6588.4324282748275 -6895.908916486988 413.2443371414353
  endloop
endfacet
facet normal -0.9967639550118498 6.692044373476903e-15 0.08038418992025295
  outer loop
    vertex 6596.167267860948 -7184.579098787637 509.15634800943025
    vertex 6574.140119307006 -6895.908916486988 236.01970594032846
    vertex 6581.562381886236 -7188.008916486997 328.0557619228621
  endloop
endfacet
facet normal -0.9967639550118498 6.692044373476903e-15 0.08038418992025295
  outer loop
    vertex 6574.140119307006 -6895.908916486988 236.01970594032846
    vertex 6596.167267860948 -7184.579098787637 509.15634800943025
    vertex 6588.4324282748275 -6895.908916486988 413.2443371414353
  endloop
endfacet
facet normal 0.0015171788400718663 -0.9998218684028222 0.018813017616987834
  outer loop
    vertex 6899.9809213485605 -7184.579098787639 484.65524692173733
    vertex 6581.562381886236 -7188.008916486997 328.0557619228621
    vertex 6885.376035373847 -7188.008916487 303.55466083516916
  endloop
endfacet
facet normal 0.0015171788400718663 -0.9998218684028222 0.018813017616987834
  outer loop
    vertex 6581.562381886236 -7188.008916486997 328.0557619228621
    vertex 6899.9809213485605 -7184.579098787639 484.65524692173733
    vertex 6596.167267860948 -7184.579098787637 509.15634800943025
  endloop
endfacet
facet normal 0.0 1.0 0.0
  outer loop
    vertex 6893.443712090395 -7505.508916486994 592.5063521206907
    vertex 6908.58014915423 -7505.508916486994 591.2856717121504
    vertex 6893.443712090403 -7505.508916486994 403.59385212052683
  endloop
endfacet
facet normal 0.0 -1.0 0.0
  outer loop
    vertex 9531.410849328928 -9962.958916487 379.76706685951484
    vertex 6893.443712090395 -9962.958916487 403.5938521206907
    vertex 9516.2744122651 -9962.958916487 192.07524726789094
  endloop
endfacet
facet normal 0.0 -1.0 0.0
  outer loop
    vertex 6893.443712090395 -9962.958916487 403.5938521206907
    vertex 9531.410849328928 -9962.958916487 379.76706685951484
    vertex 6893.443712090395 -9962.958916487 592.5063521206907
  endloop
endfacet
facet normal -1.0 1.7625866313421156e-15 -2.2928437859821718e-14
  outer loop
    vertex 6893.443712090395 -7505.508916486994 592.5063521206907
    vertex 6893.443712090395 -9962.958916487 403.5938521206907
    vertex 6893.443712090395 -9962.958916487 592.5063521206907
  endloop
endfacet
facet normal -1.0 1.7625866313421156e-15 -2.2928437859821718e-14
  outer loop
    vertex 6893.443712090395 -9962.958916487 403.5938521206907
    vertex 6893.443712090395 -7505.508916486994 592.5063521206907
    vertex 6893.443712090403 -7505.508916486994 403.59385212052683
  endloop
endfacet
facet normal 0.9967639550118507 -5.891454807174713e-16 -0.08038418992024045
  outer loop
    vertex 9516.2744122651 -7505.508916487 192.07524726789094
    vertex 9531.410849328928 -9962.958916487 379.76706685951484
    vertex 9516.2744122651 -9962.958916487 192.07524726789094
  endloop
endfacet
facet normal 0.9967639550118507 -5.891454807174713e-16 -0.08038418992024045
  outer loop
    vertex 9531.410849328928 -9962.958916487 379.76706685951484
    vertex 9516.2744122651 -7505.508916487 192.07524726789094
    vertex 9531.41084932893 -7505.508916487 379.76706685951484
  endloop
endfacet
facet normal 0.9967639550118507 -5.891454807174713e-16 -0.08038418992024045
  outer loop
    vertex 9531.41084932893 -7505.508916487 379.76706685951484
    vertex 9516.2744122651 -7505.508916487 192.07524726789094
    vertex 9500.784472969317 -6895.908916486999 0.0
  endloop
endfacet
facet normal 0.9967639550118507 -5.891454807174713e-16 -0.08038418992024045
  outer loop
    vertex 9531.41084932893 -7505.508916487 379.76706685951484
    vertex 9500.784472969317 -6895.908916486999 0.0
    vertex 9515.076781937138 -6895.908916486999 177.22463120110683
  endloop
endfacet
facet normal -0.08038418992027961 -3.309027849779128e-14 -0.9967639550118477
  outer loop
    vertex 6893.443712090403 -7505.508916486994 403.59385212052683
    vertex 9516.2744122651 -9962.958916487 192.07524726789094
    vertex 6893.443712090395 -9962.958916487 403.5938521206907
  endloop
endfacet
facet normal -0.08038418992027961 -3.309027849779128e-14 -0.9967639550118477
  outer loop
    vertex 9516.2744122651 -9962.958916487 192.07524726789094
    vertex 6893.443712090403 -7505.508916486994 403.59385212052683
    vertex 9516.2744122651 -7505.508916487 192.07524726789094
  endloop
endfacet
facet normal 0.0803841899202958 2.2268656141255032e-14 0.9967639550118463
  outer loop
    vertex 9531.410849328928 -9962.958916487 379.76706685951484
    vertex 6893.443712090395 -7505.508916486994 592.5063521206907
    vertex 6893.443712090395 -9962.958916487 592.5063521206907
  endloop
endfacet
facet normal 0.0803841899202958 2.2268656141255032e-14 0.9967639550118463
  outer loop
    vertex 6893.443712090395 -7505.508916486994 592.5063521206907
    vertex 9531.410849328928 -9962.958916487 379.76706685951484
    vertex 6908.58014915423 -7505.508916486994 591.2856717121504
  endloop
endfacet
facet normal 0.0803841899202958 2.2268656141255032e-14 0.9967639550118463
  outer loop
    vertex 6908.58014915423 -7505.508916486994 591.2856717121504
    vertex 9531.410849328928 -9962.958916487 379.76706685951484
    vertex 9531.41084932893 -7505.508916487 379.76706685951484
  endloop
endfacet
endsolid house assy
