solid house assy
facet normal 0.0 1.0 0.0
  outer loop
    vertex 6026.4784783284085 -3040.089790076791 127.0
    vertex 8185.4784783284085 -3040.089790076791 7.43019400696136e-15
    vertex 6026.4784783284085 -3040.089790076791 0.0
  endloop
endfacet
facet normal 0.0 1.0 0.0
  outer loop
    vertex 8185.4784783284085 -3040.089790076791 7.43019400696136e-15
    vertex 6026.4784783284085 -3040.089790076791 127.0
    vertex 8185.4784783284085 -3040.089790076791 127.0
  endloop
endfacet
facet normal -1.0 0.0 0.0
  outer loop
    vertex 8363.278478328408 -5491.189790076791 2324.1
    vertex 8363.278478328408 -5643.58979007679 330.2
    vertex 8363.278478328408 -5643.58979007679 2324.1
  endloop
endfacet
facet normal -1.0 0.0 0.0
  outer loop
    vertex 8363.278478328408 -5643.58979007679 330.2
    vertex 8363.278478328408 -5491.189790076791 2324.1
    vertex 8363.278478328408 -5491.189790076791 330.2
  endloop
endfacet
facet normal 0.0 1.0 0.0
  outer loop
    vertex 8363.278478328408 -5491.189790076791 2324.1
    vertex 8490.278478328408 -5491.189790076791 330.2
    vertex 8363.278478328408 -5491.189790076791 330.2
  endloop
endfacet
facet normal 0.0 1.0 0.0
  outer loop
    vertex 8490.278478328408 -5491.189790076791 330.2
    vertex 8363.278478328408 -5491.189790076791 2324.1
    vertex 8490.278478328408 -5491.189790076791 2324.1
  endloop
endfacet
facet normal -1.0 0.0 0.0
  outer loop
    vertex 8363.278478328408 -3338.539790076791 2324.1
    vertex 8363.278478328408 -3503.639790076791 330.2
    vertex 8363.278478328408 -3503.639790076791 2324.1
  endloop
endfacet
facet normal -1.0 0.0 0.0
  outer loop
    vertex 8363.278478328408 -3503.639790076791 330.2
    vertex 8363.278478328408 -3338.539790076791 2324.1
    vertex 8363.278478328408 -3338.539790076791 330.2
  endloop
endfacet
facet normal 0.0 7.558965274043619e-17 1.0
  outer loop
    vertex 8185.4784783284085 -3338.539790076791 127.00000000000001
    vertex 6026.4784783284085 -3040.089790076791 127.0
    vertex 6026.4784783284085 -3338.539790076791 127.00000000000001
  endloop
endfacet
facet normal 0.0 7.558965274043619e-17 1.0
  outer loop
    vertex 6026.4784783284085 -3040.089790076791 127.0
    vertex 8185.4784783284085 -3338.539790076791 127.00000000000001
    vertex 8185.4784783284085 -3040.089790076791 127.0
  endloop
endfacet
facet normal 2.0486270291403492e-18 -1.7312820645841902e-19 -1.0
  outer loop
    vertex 8185.4784783284085 -3040.089790076791 7.43019400696136e-15
    vertex 6026.4784783284085 -5643.58979007679 0.0
    vertex 6026.4784783284085 -3040.089790076791 0.0
  endloop
endfacet
facet normal 2.0486270291403492e-18 -1.7312820645841902e-19 -1.0
  outer loop
    vertex 6026.4784783284085 -5643.58979007679 0.0
    vertex 8185.4784783284085 -3040.089790076791 7.43019400696136e-15
    vertex 8185.4784783284085 -3338.539790076791 1.6733064572178495e-15
  endloop
endfacet
facet normal 2.0486270291403492e-18 -1.7312820645841902e-19 -1.0
  outer loop
    vertex 6026.4784783284085 -5643.58979007679 0.0
    vertex 8185.4784783284085 -3338.539790076791 1.6733064572178495e-15
    vertex 8490.278478328408 -5643.58979007679 5.865021829469035e-15
  endloop
endfacet
facet normal 2.0486270291403492e-18 -1.7312820645841902e-19 -1.0
  outer loop
    vertex 8490.278478328408 -5643.58979007679 5.865021829469035e-15
    vertex 8185.4784783284085 -3338.539790076791 1.6733064572178495e-15
    vertex 8490.278478328408 -3338.539790076791 1.6733064572178495e-15
  endloop
endfacet
facet normal -1.0 0.0 0.0
  outer loop
    vertex 6026.4784783284085 -3338.539790076791 330.2
    vertex 6026.4784783284085 -5643.58979007679 0.0
    vertex 6026.4784783284085 -5643.58979007679 330.2
  endloop
endfacet
facet normal -1.0 0.0 0.0
  outer loop
    vertex 6026.4784783284085 -5643.58979007679 0.0
    vertex 6026.4784783284085 -3338.539790076791 330.2
    vertex 6026.4784783284085 -3338.539790076791 127.00000000000001
  endloop
endfacet
facet normal -1.0 0.0 0.0
  outer loop
    vertex 6026.4784783284085 -5643.58979007679 0.0
    vertex 6026.4784783284085 -3338.539790076791 127.00000000000001
    vertex 6026.4784783284085 -3040.089790076791 0.0
  endloop
endfacet
facet normal -1.0 0.0 0.0
  outer loop
    vertex 6026.4784783284085 -3040.089790076791 0.0
    vertex 6026.4784783284085 -3338.539790076791 127.00000000000001
    vertex 6026.4784783284085 -3040.089790076791 127.0
  endloop
endfacet
facet normal 1.0 0.0 0.0
  outer loop
    vertex 8490.278478328408 -5643.58979007679 5.865021829469035e-15
    vertex 8490.278478328408 -5491.189790076791 330.2
    vertex 8490.278478328408 -5643.58979007679 2324.1
  endloop
endfacet
facet normal 1.0 0.0 0.0
  outer loop
    vertex 8490.278478328408 -5491.189790076791 330.2
    vertex 8490.278478328408 -5643.58979007679 5.865021829469035e-15
    vertex 8490.278478328408 -3338.539790076791 1.6733064572178495e-15
  endloop
endfacet
facet normal 1.0 0.0 0.0
  outer loop
    vertex 8490.278478328408 -5491.189790076791 330.2
    vertex 8490.278478328408 -3338.539790076791 1.6733064572178495e-15
    vertex 8490.278478328408 -3503.639790076791 330.2
  endloop
endfacet
facet normal 1.0 0.0 0.0
  outer loop
    vertex 8490.278478328408 -3503.639790076791 330.2
    vertex 8490.278478328408 -3338.539790076791 1.6733064572178495e-15
    vertex 8490.278478328408 -3503.639790076791 2324.1
  endloop
endfacet
facet normal 1.0 0.0 0.0
  outer loop
    vertex 8490.278478328408 -3503.639790076791 2324.1
    vertex 8490.278478328408 -3338.539790076791 1.6733064572178495e-15
    vertex 8490.278478328408 -3338.539790076791 2324.1
  endloop
endfacet
facet normal 1.0 0.0 0.0
  outer loop
    vertex 8490.278478328408 -5491.189790076791 2324.1
    vertex 8490.278478328408 -5643.58979007679 2324.1
    vertex 8490.278478328408 -5491.189790076791 330.2
  endloop
endfacet
facet normal 0.0 0.0 1.0
  outer loop
    vertex 8490.278478328408 -3503.639790076791 2324.1
    vertex 8363.278478328408 -3338.539790076791 2324.1
    vertex 8363.278478328408 -3503.639790076791 2324.1
  endloop
endfacet
facet normal 0.0 0.0 1.0
  outer loop
    vertex 8363.278478328408 -3338.539790076791 2324.1
    vertex 8490.278478328408 -3503.639790076791 2324.1
    vertex 8490.278478328408 -3338.539790076791 2324.1
  endloop
endfacet
facet normal 0.0 0.0 1.0
  outer loop
    vertex 8490.278478328408 -5643.58979007679 2324.1
    vertex 8363.278478328408 -5491.189790076791 2324.1
    vertex 8363.278478328408 -5643.58979007679 2324.1
  endloop
endfacet
facet normal 0.0 0.0 1.0
  outer loop
    vertex 8363.278478328408 -5491.189790076791 2324.1
    vertex 8490.278478328408 -5643.58979007679 2324.1
    vertex 8490.278478328408 -5491.189790076791 2324.1
  endloop
endfacet
facet normal 0.0 -1.0 0.0
  outer loop
    vertex 8490.278478328408 -5643.58979007679 2324.1
    vertex 8363.278478328408 -5643.58979007679 330.2
    vertex 8490.278478328408 -5643.58979007679 5.865021829469035e-15
  endloop
endfacet
facet normal 0.0 -1.0 0.0
  outer loop
    vertex 8363.278478328408 -5643.58979007679 330.2
    vertex 8490.278478328408 -5643.58979007679 2324.1
    vertex 8363.278478328408 -5643.58979007679 2324.1
  endloop
endfacet
facet normal 0.0 -1.0 0.0
  outer loop
    vertex 8490.278478328408 -5643.58979007679 5.865021829469035e-15
    vertex 6026.4784783284085 -5643.58979007679 330.2
    vertex 6026.4784783284085 -5643.58979007679 0.0
  endloop
endfacet
facet normal 0.0 -1.0 0.0
  outer loop
    vertex 6026.4784783284085 -5643.58979007679 330.2
    vertex 8490.278478328408 -5643.58979007679 5.865021829469035e-15
    vertex 8363.278478328408 -5643.58979007679 330.2
  endloop
endfacet
facet normal 1.0 0.0 0.0
  outer loop
    vertex 8185.4784783284085 -3040.089790076791 7.43019400696136e-15
    vertex 8185.4784783284085 -3338.539790076791 127.00000000000001
    vertex 8185.4784783284085 -3338.539790076791 1.6733064572178495e-15
  endloop
endfacet
facet normal 1.0 0.0 0.0
  outer loop
    vertex 8185.4784783284085 -3338.539790076791 127.00000000000001
    vertex 8185.4784783284085 -3040.089790076791 7.43019400696136e-15
    vertex 8185.4784783284085 -3040.089790076791 127.0
  endloop
endfacet
facet normal 0.0 1.0 0.0
  outer loop
    vertex 6026.4784783284085 -3338.539790076791 330.2
    vertex 8185.4784783284085 -3338.539790076791 127.00000000000001
    vertex 6026.4784783284085 -3338.539790076791 127.00000000000001
  endloop
endfacet
facet normal 0.0 1.0 0.0
  outer loop
    vertex 8185.4784783284085 -3338.539790076791 127.00000000000001
    vertex 8490.278478328408 -3338.539790076791 1.6733064572178495e-15
    vertex 8185.4784783284085 -3338.539790076791 1.6733064572178495e-15
  endloop
endfacet
facet normal 0.0 1.0 0.0
  outer loop
    vertex 8490.278478328408 -3338.539790076791 1.6733064572178495e-15
    vertex 8185.4784783284085 -3338.539790076791 127.00000000000001
    vertex 8363.278478328408 -3338.539790076791 330.2
  endloop
endfacet
facet normal 0.0 1.0 0.0
  outer loop
    vertex 8490.278478328408 -3338.539790076791 1.6733064572178495e-15
    vertex 8363.278478328408 -3338.539790076791 330.2
    vertex 8490.278478328408 -3338.539790076791 2324.1
  endloop
endfacet
facet normal 0.0 1.0 0.0
  outer loop
    vertex 8363.278478328408 -3338.539790076791 330.2
    vertex 8185.4784783284085 -3338.539790076791 127.00000000000001
    vertex 6026.4784783284085 -3338.539790076791 330.2
  endloop
endfacet
facet normal 0.0 1.0 0.0
  outer loop
    vertex 8490.278478328408 -3338.539790076791 2324.1
    vertex 8363.278478328408 -3338.539790076791 330.2
    vertex 8363.278478328408 -3338.539790076791 2324.1
  endloop
endfacet
facet normal 0.0 -1.0 0.0
  outer loop
    vertex 8490.278478328408 -3503.639790076791 2324.1
    vertex 8363.278478328408 -3503.639790076791 330.2
    vertex 8490.278478328408 -3503.639790076791 330.2
  endloop
endfacet
facet normal 0.0 -1.0 0.0
  outer loop
    vertex 8363.278478328408 -3503.639790076791 330.2
    vertex 8490.278478328408 -3503.639790076791 2324.1
    vertex 8363.278478328408 -3503.639790076791 2324.1
  endloop
endfacet
facet normal 0.0 0.0 1.0
  outer loop
    vertex 8490.278478328408 -5491.189790076791 330.2
    vertex 8363.278478328408 -3503.639790076791 330.2
    vertex 8363.278478328408 -5491.189790076791 330.2
  endloop
endfacet
facet normal 0.0 0.0 1.0
  outer loop
    vertex 8363.278478328408 -3503.639790076791 330.2
    vertex 8490.278478328408 -5491.189790076791 330.2
    vertex 8490.278478328408 -3503.639790076791 330.2
  endloop
endfacet
facet normal 0.0 0.0 1.0
  outer loop
    vertex 8363.278478328408 -5643.58979007679 330.2
    vertex 6026.4784783284085 -3338.539790076791 330.2
    vertex 6026.4784783284085 -5643.58979007679 330.2
  endloop
endfacet
facet normal 0.0 0.0 1.0
  outer loop
    vertex 6026.4784783284085 -3338.539790076791 330.2
    vertex 8363.278478328408 -5643.58979007679 330.2
    vertex 8363.278478328408 -3338.539790076791 330.2
  endloop
endfacet
facet normal 0.0 0.0 1.0
  outer loop
    vertex 8363.278478328408 -3338.539790076791 330.2
    vertex 8363.278478328408 -5643.58979007679 330.2
    vertex 8363.278478328408 -5491.189790076791 330.2
  endloop
endfacet
facet normal 0.0 0.0 1.0
  outer loop
    vertex 8363.278478328408 -3338.539790076791 330.2
    vertex 8363.278478328408 -5491.189790076791 330.2
    vertex 8363.278478328408 -3503.639790076791 330.2
  endloop
endfacet
endsolid house assy
