solid house assy
facet normal -0.8462127656254548 -9.41065691010816e-16 0.5328451513268364
  outer loop
    vertex -2303.381466312589 69.85 4430.837608493774
    vertex -2330.4499999999857 -3282.9500000000057 4387.850000000007
    vertex -2303.3814663125895 -3282.9500000000057 4430.837608493774
  endloop
endfacet
facet normal -0.8462127656254548 -9.41065691010816e-16 0.5328451513268364
  outer loop
    vertex -2330.4499999999857 -3282.9500000000057 4387.850000000007
    vertex -2303.381466312589 69.85 4430.837608493774
    vertex -2330.4499999999903 -3200.3999999999996 4387.849999999999
  endloop
endfacet
facet normal -0.8462127656254548 -9.41065691010816e-16 0.5328451513268364
  outer loop
    vertex -2330.4499999999903 -3200.3999999999996 4387.849999999999
    vertex -2303.381466312589 69.85 4430.837608493774
    vertex -2330.4499999999957 -152.39999999999998 4387.849999999999
  endloop
endfacet
facet normal -0.8462127656254548 -9.41065691010816e-16 0.5328451513268364
  outer loop
    vertex -2330.4499999999957 -152.39999999999998 4387.849999999999
    vertex -2303.381466312589 69.85 4430.837608493774
    vertex -2330.4499999999957 69.85 4387.849999999999
  endloop
endfacet
facet normal 0.5328451513267894 -3.212374085574322e-16 0.8462127656254844
  outer loop
    vertex 218.54994642806216 -3352.7999999999997 2842.8221827700813
    vertex -2243.1464632313614 -3282.9500000000057 4392.908696716767
    vertex -2243.146463231363 -3352.7999999999997 4392.908696716768
  endloop
endfacet
facet normal 0.5328451513267894 -3.212374085574322e-16 0.8462127656254844
  outer loop
    vertex -2243.1464632313614 -3282.9500000000057 4392.908696716767
    vertex -2303.381466312589 69.85 4430.837608493774
    vertex -2303.3814663125895 -3282.9500000000057 4430.837608493774
  endloop
endfacet
facet normal 0.5328451513267894 -3.212374085574322e-16 0.8462127656254844
  outer loop
    vertex -2303.381466312589 69.85 4430.837608493774
    vertex -2243.1464632313614 -3282.9500000000057 4392.908696716767
    vertex 218.54994642806648 69.85 2842.8221827700813
  endloop
endfacet
facet normal 0.5328451513267894 -3.212374085574322e-16 0.8462127656254844
  outer loop
    vertex 218.54994642806648 69.85 2842.8221827700813
    vertex -2243.1464632313614 -3282.9500000000057 4392.908696716767
    vertex 218.54994642806216 -3352.7999999999997 2842.8221827700813
  endloop
endfacet
facet normal 0.0 1.0 0.0
  outer loop
    vertex -2330.4499999999957 69.85 4387.849999999999
    vertex 217.048275203789 69.85 2840.4373748074077
    vertex 127.00000000000396 69.85 2840.4373748074077
  endloop
endfacet
facet normal 0.0 1.0 0.0
  outer loop
    vertex 217.048275203789 69.85 2840.4373748074077
    vertex -2330.4499999999957 69.85 4387.849999999999
    vertex 218.54994642806648 69.85 2842.8221827700813
  endloop
endfacet
facet normal 0.0 1.0 0.0
  outer loop
    vertex 218.54994642806648 69.85 2842.8221827700813
    vertex -2330.4499999999957 69.85 4387.849999999999
    vertex -2303.381466312589 69.85 4430.837608493774
  endloop
endfacet
facet normal 0.0 -1.0 0.0
  outer loop
    vertex -2243.1464632313614 -3282.9500000000057 4392.908696716767
    vertex -2330.4499999999857 -3282.9500000000057 4387.850000000007
    vertex -2270.2149969187576 -3282.9500000000057 4349.921088223001
  endloop
endfacet
facet normal 0.0 -1.0 0.0
  outer loop
    vertex -2330.4499999999857 -3282.9500000000057 4387.850000000007
    vertex -2243.1464632313614 -3282.9500000000057 4392.908696716767
    vertex -2303.3814663125895 -3282.9500000000057 4430.837608493774
  endloop
endfacet
facet normal -0.8462127656254808 2.299854427062991e-14 0.5328451513267953
  outer loop
    vertex -2243.1464632313614 -3282.9500000000057 4392.908696716767
    vertex -2270.2149969187594 -3352.7999999999997 4349.921088223001
    vertex -2243.146463231363 -3352.7999999999997 4392.908696716768
  endloop
endfacet
facet normal -0.8462127656254808 2.299854427062991e-14 0.5328451513267953
  outer loop
    vertex -2270.2149969187594 -3352.7999999999997 4349.921088223001
    vertex -2243.1464632313614 -3282.9500000000057 4392.908696716767
    vertex -2270.2149969187576 -3282.9500000000057 4349.921088223001
  endloop
endfacet
facet normal 0.8462127656258337 -5.38451044945881e-16 -0.5328451513262348
  outer loop
    vertex 217.048275203789 69.85 2840.4373748074077
    vertex 218.54994642806216 -3352.7999999999997 2842.8221827700813
    vertex 217.048275203789 -3352.7999999999997 2840.4373748074077
  endloop
endfacet
facet normal 0.8462127656258337 -5.38451044945881e-16 -0.5328451513262348
  outer loop
    vertex 218.54994642806216 -3352.7999999999997 2842.8221827700813
    vertex 217.048275203789 69.85 2840.4373748074077
    vertex 218.54994642806648 69.85 2842.8221827700813
  endloop
endfacet
facet normal -0.5328451513267911 -3.751630179095329e-14 -0.8462127656254833
  outer loop
    vertex 127.0000000000036 -3200.3999999999996 2840.437374807407
    vertex -2330.4499999999857 -3282.9500000000057 4387.850000000007
    vertex -2330.4499999999903 -3200.3999999999996 4387.849999999999
  endloop
endfacet
facet normal -0.5328451513267911 -3.751630179095329e-14 -0.8462127656254833
  outer loop
    vertex -2330.4499999999857 -3282.9500000000057 4387.850000000007
    vertex 127.0000000000036 -3200.3999999999996 2840.437374807407
    vertex -2270.2149969187576 -3282.9500000000057 4349.921088223001
  endloop
endfacet
facet normal -0.5328451513267911 -3.751630179095329e-14 -0.8462127656254833
  outer loop
    vertex -2270.2149969187576 -3282.9500000000057 4349.921088223001
    vertex 127.00000000000396 -3352.7999999999997 2840.4373748074077
    vertex -2270.2149969187594 -3352.7999999999997 4349.921088223001
  endloop
endfacet
facet normal -0.5328451513267911 -3.751630179095329e-14 -0.8462127656254833
  outer loop
    vertex 127.00000000000396 -3352.7999999999997 2840.4373748074077
    vertex -2270.2149969187576 -3282.9500000000057 4349.921088223001
    vertex 127.0000000000036 -3200.3999999999996 2840.437374807407
  endloop
endfacet
facet normal -0.5328451513267881 1.5073691276308634e-16 -0.8462127656254852
  outer loop
    vertex 127.00000000000396 69.85 2840.4373748074077
    vertex -2330.4499999999957 -152.39999999999998 4387.849999999999
    vertex -2330.4499999999957 69.85 4387.849999999999
  endloop
endfacet
facet normal -0.5328451513267881 1.5073691276308634e-16 -0.8462127656254852
  outer loop
    vertex -2330.4499999999957 -152.39999999999998 4387.849999999999
    vertex 127.00000000000396 69.85 2840.4373748074077
    vertex 127.00000000000504 -152.40000000000035 2840.437374807407
  endloop
endfacet
facet normal -0.5328451513267884 3.9056422734076814e-16 -0.8462127656254849
  outer loop
    vertex -2330.449999999982 -152.40000000000072 4297.801724796208
    vertex -16.00589920028173 -3200.3999999999996 2840.437374807407
    vertex -2330.4499999999966 -3200.3999999999996 4297.801724796214
  endloop
endfacet
facet normal -0.5328451513267884 3.9056422734076814e-16 -0.8462127656254849
  outer loop
    vertex -16.00589920028173 -3200.3999999999996 2840.437374807407
    vertex -2330.449999999982 -152.40000000000072 4297.801724796208
    vertex -16.005899200281366 -152.40000000000035 2840.437374807407
  endloop
endfacet
facet normal 3.0195566805079135e-15 9.00485062806389e-19 -1.0
  outer loop
    vertex 217.048275203789 69.85 2840.4373748074077
    vertex 127.00000000000504 -152.40000000000035 2840.437374807407
    vertex 127.00000000000396 69.85 2840.4373748074077
  endloop
endfacet
facet normal 3.0195566805079135e-15 9.00485062806389e-19 -1.0
  outer loop
    vertex -16.005899200281366 -152.40000000000035 2840.437374807407
    vertex 127.0000000000036 -3200.3999999999996 2840.437374807407
    vertex -16.00589920028173 -3200.3999999999996 2840.437374807407
  endloop
endfacet
facet normal 3.0195566805079135e-15 9.00485062806389e-19 -1.0
  outer loop
    vertex 127.0000000000036 -3200.3999999999996 2840.437374807407
    vertex -16.005899200281366 -152.40000000000035 2840.437374807407
    vertex 127.00000000000504 -152.40000000000035 2840.437374807407
  endloop
endfacet
facet normal 3.0195566805079135e-15 9.00485062806389e-19 -1.0
  outer loop
    vertex 127.0000000000036 -3200.3999999999996 2840.437374807407
    vertex 127.00000000000504 -152.40000000000035 2840.437374807407
    vertex 127.00000000000396 -3352.7999999999997 2840.4373748074077
  endloop
endfacet
facet normal 3.0195566805079135e-15 9.00485062806389e-19 -1.0
  outer loop
    vertex 127.00000000000396 -3352.7999999999997 2840.4373748074077
    vertex 127.00000000000504 -152.40000000000035 2840.437374807407
    vertex 217.048275203789 -3352.7999999999997 2840.4373748074077
  endloop
endfacet
facet normal 3.0195566805079135e-15 9.00485062806389e-19 -1.0
  outer loop
    vertex 217.048275203789 -3352.7999999999997 2840.4373748074077
    vertex 127.00000000000504 -152.40000000000035 2840.437374807407
    vertex 217.048275203789 69.85 2840.4373748074077
  endloop
endfacet
facet normal -2.5217968428983908e-15 1.0 -4.01206567916513e-15
  outer loop
    vertex -2330.449999999982 -152.40000000000072 4297.801724796208
    vertex 127.00000000000504 -152.40000000000035 2840.437374807407
    vertex -16.005899200281366 -152.40000000000035 2840.437374807407
  endloop
endfacet
facet normal -2.5217968428983908e-15 1.0 -4.01206567916513e-15
  outer loop
    vertex 127.00000000000504 -152.40000000000035 2840.437374807407
    vertex -2330.449999999982 -152.40000000000072 4297.801724796208
    vertex -2330.4499999999957 -152.39999999999998 4387.849999999999
  endloop
endfacet
facet normal 1.2231113480668696e-15 -1.0 2.0660425887416145e-15
  outer loop
    vertex -2330.4499999999903 -3200.3999999999996 4387.849999999999
    vertex -16.00589920028173 -3200.3999999999996 2840.437374807407
    vertex 127.0000000000036 -3200.3999999999996 2840.437374807407
  endloop
endfacet
facet normal 1.2231113480668696e-15 -1.0 2.0660425887416145e-15
  outer loop
    vertex -16.00589920028173 -3200.3999999999996 2840.437374807407
    vertex -2330.4499999999903 -3200.3999999999996 4387.849999999999
    vertex -2330.4499999999966 -3200.3999999999996 4297.801724796214
  endloop
endfacet
facet normal -1.0 1.4802973661668356e-15 -4.2088923346588915e-14
  outer loop
    vertex -2330.4499999999903 -3200.3999999999996 4387.849999999999
    vertex -2330.449999999982 -152.40000000000072 4297.801724796208
    vertex -2330.4499999999966 -3200.3999999999996 4297.801724796214
  endloop
endfacet
facet normal -1.0 1.4802973661668356e-15 -4.2088923346588915e-14
  outer loop
    vertex -2330.449999999982 -152.40000000000072 4297.801724796208
    vertex -2330.4499999999903 -3200.3999999999996 4387.849999999999
    vertex -2330.4499999999957 -152.39999999999998 4387.849999999999
  endloop
endfacet
facet normal 0.0 -1.0 0.0
  outer loop
    vertex 218.54994642806216 -3352.7999999999997 2842.8221827700813
    vertex 127.00000000000396 -3352.7999999999997 2840.4373748074077
    vertex 217.048275203789 -3352.7999999999997 2840.4373748074077
  endloop
endfacet
facet normal 0.0 -1.0 0.0
  outer loop
    vertex 127.00000000000396 -3352.7999999999997 2840.4373748074077
    vertex 218.54994642806216 -3352.7999999999997 2842.8221827700813
    vertex -2270.2149969187594 -3352.7999999999997 4349.921088223001
  endloop
endfacet
facet normal 0.0 -1.0 0.0
  outer loop
    vertex -2270.2149969187594 -3352.7999999999997 4349.921088223001
    vertex 218.54994642806216 -3352.7999999999997 2842.8221827700813
    vertex -2243.146463231363 -3352.7999999999997 4392.908696716768
  endloop
endfacet
endsolid house assy
