solid house assy
facet normal 0.0 -1.0 -1.8947806286936004e-14
  outer loop
    vertex -9845.675 -13462.0 2627.3125000000005
    vertex -5305.949179486428 -13462.0 2627.3125000000005
    vertex -9845.675 -13462.0 2703.5125000000007
  endloop
endfacet
facet normal 0.0 -1.0 -1.8947806286936004e-14
  outer loop
    vertex -5305.949179486428 -13462.0 2703.5125000000007
    vertex -9845.675 -13462.0 2703.5125000000007
    vertex -5305.949179486428 -13462.0 2627.3125000000005
  endloop
endfacet
facet normal -0.0 1.0 -0.0
  outer loop
    vertex -5305.949179486428 -13385.8 2627.3125000000005
    vertex -9845.675 -13385.8 2627.3125000000005
    vertex -5305.949179486428 -13385.8 2854.4608169705475
  endloop
endfacet
facet normal -0.0 1.0 -0.0
  outer loop
    vertex -9845.675 -13385.8 2854.4608169705475
    vertex -5305.949179486428 -13385.8 2854.4608169705475
    vertex -9845.675 -13385.8 2627.3125000000005
  endloop
endfacet
facet normal 0.0 0.0 -1.0
  outer loop
    vertex -9845.675 -13614.4 2703.5125000000007
    vertex -9845.675 -13462.0 2703.5125000000007
    vertex -5305.949179486428 -13614.4 2703.5125000000007
  endloop
endfacet
facet normal 0.0 0.0 -1.0
  outer loop
    vertex -5305.949179486428 -13462.0 2703.5125000000007
    vertex -5305.949179486428 -13614.4 2703.5125000000007
    vertex -9845.675 -13462.0 2703.5125000000007
  endloop
endfacet
facet normal 1.0 0.0 0.0
  outer loop
    vertex -5305.949179486428 -13385.8 2627.3125000000005
    vertex -5305.949179486428 -13385.8 2854.4608169705475
    vertex -5305.949179486428 -13462.0 2627.3125000000005
  endloop
endfacet
facet normal 1.0 0.0 0.0
  outer loop
    vertex -5305.949179486428 -13462.0 2703.5125000000007
    vertex -5305.949179486428 -13462.0 2627.3125000000005
    vertex -5305.949179486428 -13385.8 2854.4608169705475
  endloop
endfacet
facet normal 1.0 0.0 0.0
  outer loop
    vertex -5305.949179486428 -13614.4 2774.5470021037877
    vertex -5305.949179486428 -13462.0 2703.5125000000007
    vertex -5305.949179486428 -13385.8 2854.4608169705475
  endloop
endfacet
facet normal 1.0 0.0 0.0
  outer loop
    vertex -5305.949179486428 -13614.4 2703.5125000000007
    vertex -5305.949179486428 -13462.0 2703.5125000000007
    vertex -5305.949179486428 -13614.4 2774.5470021037877
  endloop
endfacet
facet normal 0.0 0.0 -1.0
  outer loop
    vertex -9845.675 -13462.0 2627.3125000000005
    vertex -9845.675 -13385.8 2627.3125000000005
    vertex -5305.949179486428 -13462.0 2627.3125000000005
  endloop
endfacet
facet normal 0.0 0.0 -1.0
  outer loop
    vertex -5305.949179486428 -13385.8 2627.3125000000005
    vertex -5305.949179486428 -13462.0 2627.3125000000005
    vertex -9845.675 -13385.8 2627.3125000000005
  endloop
endfacet
facet normal 0.0 -1.0 0.0
  outer loop
    vertex -9845.675 -13614.4 2703.5125000000007
    vertex -5305.949179486428 -13614.4 2703.5125000000007
    vertex -9845.675 -13614.4 2774.5470021037877
  endloop
endfacet
facet normal 0.0 -1.0 0.0
  outer loop
    vertex -5305.949179486428 -13614.4 2774.5470021037877
    vertex -9845.675 -13614.4 2774.5470021037877
    vertex -5305.949179486428 -13614.4 2703.5125000000007
  endloop
endfacet
facet normal 0.0 -0.32999655970215186 0.9439821346745628
  outer loop
    vertex -9845.675 -13385.8 2854.4608169705475
    vertex -9845.675 -13614.4 2774.5470021037877
    vertex -5305.949179486428 -13385.8 2854.4608169705475
  endloop
endfacet
facet normal 0.0 -0.32999655970215186 0.9439821346745628
  outer loop
    vertex -5305.949179486428 -13614.4 2774.5470021037877
    vertex -5305.949179486428 -13385.8 2854.4608169705475
    vertex -9845.675 -13614.4 2774.5470021037877
  endloop
endfacet
facet normal -1.0 0.0 0.0
  outer loop
    vertex -9845.675 -13385.8 2627.3125000000005
    vertex -9845.675 -13462.0 2703.5125000000007
    vertex -9845.675 -13385.8 2854.4608169705475
  endloop
endfacet
facet normal -1.0 0.0 0.0
  outer loop
    vertex -9845.675 -13614.4 2774.5470021037877
    vertex -9845.675 -13385.8 2854.4608169705475
    vertex -9845.675 -13462.0 2703.5125000000007
  endloop
endfacet
facet normal -1.0 0.0 0.0
  outer loop
    vertex -9845.675 -13462.0 2627.3125000000005
    vertex -9845.675 -13462.0 2703.5125000000007
    vertex -9845.675 -13385.8 2627.3125000000005
  endloop
endfacet
facet normal -1.0 0.0 0.0
  outer loop
    vertex -9845.675 -13614.4 2703.5125000000007
    vertex -9845.675 -13614.4 2774.5470021037877
    vertex -9845.675 -13462.0 2703.5125000000007
  endloop
endfacet
facet normal 1.0 0.0 0.0
  outer loop
    vertex -2648.260483470637 -9290.05 4286.25
    vertex -2648.260483470637 -9290.05 4366.9718666551025
    vertex -2648.260483470637 -9315.195737849303 4358.181438662201
  endloop
endfacet
facet normal 0.0 1.0 0.0
  outer loop
    vertex -2648.260483470637 -9290.05 4286.25
    vertex -10067.925 -9290.05 4286.25
    vertex -2648.260483470637 -9290.05 4366.9718666551025
  endloop
endfacet
facet normal 0.0 1.0 0.0
  outer loop
    vertex -10067.925 -9290.05 4366.9718666551025
    vertex -2648.260483470637 -9290.05 4366.9718666551025
    vertex -10067.925 -9290.05 4286.25
  endloop
endfacet
facet normal 0.0 -0.32999655970215225 0.9439821346745625
  outer loop
    vertex -10067.925 -9290.05 4366.9718666551025
    vertex -10067.925 -13842.745737849302 2775.443938662202
    vertex -2648.260483470637 -9290.05 4366.9718666551025
  endloop
endfacet
facet normal 0.0 -0.32999655970215225 0.9439821346745625
  outer loop
    vertex -5305.949179486428 -13842.745737849302 2775.443938662202
    vertex -2648.260483470637 -9290.05 4366.9718666551025
    vertex -10067.925 -13842.745737849302 2775.443938662202
  endloop
endfacet
facet normal 0.0 -0.32999655970215225 0.9439821346745625
  outer loop
    vertex -2648.260483470637 -9315.195737849303 4358.181438662201
    vertex -2648.260483470637 -9290.05 4366.9718666551025
    vertex -5305.949179486428 -13842.745737849302 2775.443938662202
  endloop
endfacet
facet normal 0.8746894349511386 -0.4575328544009013 -0.15994398872299567
  outer loop
    vertex -2648.260483470637 -9290.05 4286.25
    vertex -2648.260483470637 -9315.195737849303 4358.181438662201
    vertex -5305.949179486428 -13817.599999999999 2703.5125000000007
  endloop
endfacet
facet normal 0.8746894349511386 -0.4575328544009013 -0.15994398872299567
  outer loop
    vertex -5305.949179486428 -13842.745737849302 2775.443938662202
    vertex -5305.949179486428 -13817.599999999999 2703.5125000000007
    vertex -2648.260483470637 -9315.195737849303 4358.181438662201
  endloop
endfacet
facet normal 1.469858955462156e-17 0.32999655970215225 -0.9439821346745625
  outer loop
    vertex -10067.925 -13817.599999999999 2703.5125000000007
    vertex -10067.925 -9290.05 4286.25
    vertex -5305.949179486428 -13817.599999999999 2703.5125000000007
  endloop
endfacet
facet normal 1.469858955462156e-17 0.32999655970215225 -0.9439821346745625
  outer loop
    vertex -2648.260483470637 -9290.05 4286.25
    vertex -5305.949179486428 -13817.599999999999 2703.5125000000007
    vertex -10067.925 -9290.05 4286.25
  endloop
endfacet
facet normal -1.0 0.0 0.0
  outer loop
    vertex -10067.925 -9290.05 4366.9718666551025
    vertex -10067.925 -9290.05 4286.25
    vertex -10067.925 -13842.745737849302 2775.443938662202
  endloop
endfacet
facet normal -1.0 0.0 0.0
  outer loop
    vertex -10067.925 -13817.599999999999 2703.5125000000007
    vertex -10067.925 -13842.745737849302 2775.443938662202
    vertex -10067.925 -9290.05 4286.25
  endloop
endfacet
facet normal 0.0 -0.9439821346745626 -0.32999655970215225
  outer loop
    vertex -10067.925 -13817.599999999999 2703.5125000000007
    vertex -5305.949179486428 -13817.599999999999 2703.5125000000007
    vertex -10067.925 -13842.745737849302 2775.443938662202
  endloop
endfacet
facet normal 0.0 -0.9439821346745626 -0.32999655970215225
  outer loop
    vertex -5305.949179486428 -13842.745737849302 2775.443938662202
    vertex -10067.925 -13842.745737849302 2775.443938662202
    vertex -5305.949179486428 -13817.599999999999 2703.5125000000007
  endloop
endfacet
endsolid house assy
