solid house assy
facet normal 0.0 -1.0 0.0
  outer loop
    vertex 2889.25 -14128.75 2804.400003062388
    vertex 2736.85 -14128.75 2703.5125
    vertex 2889.25 -14128.75 2703.5125
  endloop
endfacet
facet normal 0.0 -1.0 0.0
  outer loop
    vertex 2736.85 -14128.75 2703.5125
    vertex 2660.6499999999996 -14128.75 2627.3125
    vertex 2736.85 -14128.75 2627.3124999999995
  endloop
endfacet
facet normal 0.0 -1.0 0.0
  outer loop
    vertex 2660.6499999999996 -14128.75 2627.3125
    vertex 2736.85 -14128.75 2703.5125
    vertex 2660.6499999999996 -14128.75 2948.3437484688047
  endloop
endfacet
facet normal 0.0 -1.0 0.0
  outer loop
    vertex 2660.6499999999996 -14128.75 2948.3437484688047
    vertex 2736.85 -14128.75 2703.5125
    vertex 2889.25 -14128.75 2804.400003062388
  endloop
endfacet
facet normal 0.0 1.0 0.0
  outer loop
    vertex 2660.6499999999996 -3505.199999999997 2627.3125
    vertex 2736.85 -3505.199999999997 2703.5125
    vertex 2736.85 -3505.199999999997 2627.3124999999995
  endloop
endfacet
facet normal 0.0 1.0 0.0
  outer loop
    vertex 2736.85 -3505.199999999997 2703.5125
    vertex 2660.6499999999996 -3505.199999999997 2627.3125
    vertex 2660.6499999999996 -3505.199999999997 2948.3437484688047
  endloop
endfacet
facet normal 0.0 1.0 0.0
  outer loop
    vertex 2736.85 -3505.199999999997 2703.5125
    vertex 2660.6499999999996 -3505.199999999997 2948.3437484688047
    vertex 2889.25 -3505.199999999997 2703.5125
  endloop
endfacet
facet normal 0.0 1.0 0.0
  outer loop
    vertex 2889.25 -3505.199999999997 2703.5125
    vertex 2660.6499999999996 -3505.199999999997 2948.3437484688047
    vertex 2889.25 -3505.199999999997 2804.400003062388
  endloop
endfacet
facet normal 0.5328408702038828 0.0 0.8462154613574304
  outer loop
    vertex 2889.25 -14128.75 2804.400003062388
    vertex 2660.6499999999996 -3505.199999999997 2948.3437484688047
    vertex 2660.6499999999996 -14128.75 2948.3437484688047
  endloop
endfacet
facet normal 0.5328408702038828 0.0 0.8462154613574304
  outer loop
    vertex 2660.6499999999996 -3505.199999999997 2948.3437484688047
    vertex 2889.25 -14128.75 2804.400003062388
    vertex 2889.25 -3505.199999999997 2804.400003062388
  endloop
endfacet
facet normal 1.0 0.0 0.0
  outer loop
    vertex 2889.25 -3505.199999999997 2703.5125
    vertex 2889.25 -14128.75 2804.400003062388
    vertex 2889.25 -14128.75 2703.5125
  endloop
endfacet
facet normal 1.0 0.0 0.0
  outer loop
    vertex 2889.25 -14128.75 2804.400003062388
    vertex 2889.25 -3505.199999999997 2703.5125
    vertex 2889.25 -3505.199999999997 2804.400003062388
  endloop
endfacet
facet normal 0.0 0.0 -1.0
  outer loop
    vertex 2889.25 -3505.199999999997 2703.5125
    vertex 2736.85 -14128.75 2703.5125
    vertex 2736.85 -3505.199999999997 2703.5125
  endloop
endfacet
facet normal 0.0 0.0 -1.0
  outer loop
    vertex 2736.85 -14128.75 2703.5125
    vertex 2889.25 -3505.199999999997 2703.5125
    vertex 2889.25 -14128.75 2703.5125
  endloop
endfacet
facet normal 1.0 0.0 0.0
  outer loop
    vertex 2736.85 -3505.199999999997 2627.3124999999995
    vertex 2736.85 -14128.75 2703.5125
    vertex 2736.85 -14128.75 2627.3124999999995
  endloop
endfacet
facet normal 1.0 0.0 0.0
  outer loop
    vertex 2736.85 -14128.75 2703.5125
    vertex 2736.85 -3505.199999999997 2627.3124999999995
    vertex 2736.85 -3505.199999999997 2703.5125
  endloop
endfacet
facet normal -4.736951571734001e-15 -0.0 -1.0
  outer loop
    vertex 2736.85 -3505.199999999997 2627.3124999999995
    vertex 2660.6499999999996 -14128.75 2627.3125
    vertex 2660.6499999999996 -3505.199999999997 2627.3125
  endloop
endfacet
facet normal -4.736951571734001e-15 -0.0 -1.0
  outer loop
    vertex 2660.6499999999996 -14128.75 2627.3125
    vertex 2736.85 -3505.199999999997 2627.3124999999995
    vertex 2736.85 -14128.75 2627.3124999999995
  endloop
endfacet
facet normal -1.0 -0.0 -0.0
  outer loop
    vertex 2660.6499999999996 -3505.199999999997 2948.3437484688047
    vertex 2660.6499999999996 -14128.75 2627.3125
    vertex 2660.6499999999996 -14128.75 2948.3437484688047
  endloop
endfacet
facet normal -1.0 -0.0 -0.0
  outer loop
    vertex 2660.6499999999996 -14128.75 2627.3125
    vertex 2660.6499999999996 -3505.199999999997 2948.3437484688047
    vertex 2660.6499999999996 -3505.199999999997 2627.3125
  endloop
endfacet
facet normal 0.0 0.0 -1.0
  outer loop
    vertex 3028.363984457365 -3282.95 2792.4046909451863
    vertex 2908.2999999999997 -14179.55 2792.4046909451863
    vertex 2908.2999999999997 -3282.95 2792.4046909451863
  endloop
endfacet
facet normal 0.0 0.0 -1.0
  outer loop
    vertex 2908.2999999999997 -14179.55 2792.4046909451863
    vertex 3028.363984457365 -3282.95 2792.4046909451863
    vertex 3028.363984457365 -14179.55 2792.4046909451863
  endloop
endfacet
facet normal -0.5328408702038848 0.0 -0.8462154613574293
  outer loop
    vertex 2908.2999999999997 -3282.95 2792.4046909451863
    vertex -938.3197706988963 -14179.55 5214.525674973072
    vertex -938.3197706988963 -3282.95 5214.525674973072
  endloop
endfacet
facet normal -0.5328408702038848 0.0 -0.8462154613574293
  outer loop
    vertex -938.3197706988963 -14179.55 5214.525674973072
    vertex 2908.2999999999997 -3282.95 2792.4046909451863
    vertex 2908.2999999999997 -14179.55 2792.4046909451863
  endloop
endfacet
facet normal 0.5328408702038847 2.7878877665408476e-18 0.8462154613574293
  outer loop
    vertex 3034.8779651834507 -14179.55 2802.749676687908
    vertex -938.3197706988963 -3282.95 5304.573663316094
    vertex -938.3197706988963 -14179.55 5304.573663316094
  endloop
endfacet
facet normal 0.5328408702038847 2.7878877665408476e-18 0.8462154613574293
  outer loop
    vertex -938.3197706988963 -3282.95 5304.573663316094
    vertex 3034.8779651834507 -14179.55 2802.749676687908
    vertex 3034.8779651834507 -3282.95 2802.749676687908
  endloop
endfacet
facet normal -1.0 0.0 0.0
  outer loop
    vertex -938.3197706988963 -3282.95 5304.573663316094
    vertex -938.3197706988963 -14179.55 5214.525674973072
    vertex -938.3197706988963 -14179.55 5304.573663316094
  endloop
endfacet
facet normal -1.0 0.0 0.0
  outer loop
    vertex -938.3197706988963 -14179.55 5214.525674973072
    vertex -938.3197706988963 -3282.95 5304.573663316094
    vertex -938.3197706988963 -3282.95 5214.525674973072
  endloop
endfacet
facet normal 0.0 -1.0 0.0
  outer loop
    vertex 3034.8779651834507 -14179.55 2802.749676687908
    vertex 2908.2999999999997 -14179.55 2792.4046909451863
    vertex 3028.363984457365 -14179.55 2792.4046909451863
  endloop
endfacet
facet normal 0.0 -1.0 0.0
  outer loop
    vertex 2908.2999999999997 -14179.55 2792.4046909451863
    vertex 3034.8779651834507 -14179.55 2802.749676687908
    vertex -938.3197706988963 -14179.55 5214.525674973072
  endloop
endfacet
facet normal 0.0 -1.0 0.0
  outer loop
    vertex -938.3197706988963 -14179.55 5214.525674973072
    vertex 3034.8779651834507 -14179.55 2802.749676687908
    vertex -938.3197706988963 -14179.55 5304.573663316094
  endloop
endfacet
facet normal 0.8462154613574313 0.0 -0.5328408702038816
  outer loop
    vertex 3028.363984457365 -3282.95 2792.4046909451863
    vertex 3034.8779651834507 -14179.55 2802.749676687908
    vertex 3028.363984457365 -14179.55 2792.4046909451863
  endloop
endfacet
facet normal 0.8462154613574313 0.0 -0.5328408702038816
  outer loop
    vertex 3034.8779651834507 -14179.55 2802.749676687908
    vertex 3028.363984457365 -3282.95 2792.4046909451863
    vertex 3034.8779651834507 -3282.95 2802.749676687908
  endloop
endfacet
facet normal 0.0 1.0 0.0
  outer loop
    vertex -938.3197706988963 -3282.95 5214.525674973072
    vertex 3028.363984457365 -3282.95 2792.4046909451863
    vertex 2908.2999999999997 -3282.95 2792.4046909451863
  endloop
endfacet
facet normal 0.0 1.0 0.0
  outer loop
    vertex 3028.363984457365 -3282.95 2792.4046909451863
    vertex -938.3197706988963 -3282.95 5214.525674973072
    vertex 3034.8779651834507 -3282.95 2802.749676687908
  endloop
endfacet
facet normal 0.0 1.0 0.0
  outer loop
    vertex 3034.8779651834507 -3282.95 2802.749676687908
    vertex -938.3197706988963 -3282.95 5214.525674973072
    vertex -938.3197706988963 -3282.95 5304.573663316094
  endloop
endfacet
facet normal -1.0 0.0 -1.0021204149256662e-14
  outer loop
    vertex -938.3197706988963 -3505.2 5214.525674973072
    vertex -938.3197706988954 -13957.3 5124.477686630047
    vertex -938.3197706988963 -13957.3 5214.525674973072
  endloop
endfacet
facet normal -1.0 0.0 -1.0021204149256662e-14
  outer loop
    vertex -938.3197706988954 -13957.3 5124.477686630047
    vertex -938.3197706988963 -3505.2 5214.525674973072
    vertex -938.3197706988954 -3505.2 5124.477686630047
  endloop
endfacet
facet normal -6.418758048502649e-16 1.0 2.588981335209311e-16
  outer loop
    vertex -938.3197706988954 -3505.2 5124.477686630047
    vertex 2660.6499999999996 -3505.199999999997 2948.3437484688047
    vertex 2620.047525690464 -3505.199999999997 2883.8621303133687
  endloop
endfacet
facet normal -6.418758048502649e-16 1.0 2.588981335209311e-16
  outer loop
    vertex 2660.6499999999996 -3505.199999999997 2948.3437484688047
    vertex -938.3197706988954 -3505.2 5124.477686630047
    vertex -938.3197706988963 -3505.2 5214.525674973072
  endloop
endfacet
facet normal -0.5328408702038848 -7.741398026177689e-18 -0.8462154613574292
  outer loop
    vertex 2620.047525690464 -3505.199999999997 2883.8621303133687
    vertex -938.3197706988954 -13957.3 5124.477686630047
    vertex -938.3197706988954 -3505.2 5124.477686630047
  endloop
endfacet
facet normal -0.5328408702038848 -7.741398026177689e-18 -0.8462154613574292
  outer loop
    vertex -938.3197706988954 -13957.3 5124.477686630047
    vertex 2620.047525690464 -3505.199999999997 2883.8621303133687
    vertex 2620.047525690464 -13957.3 2883.862130313369
  endloop
endfacet
facet normal 0.8462154613574292 -1.8401273858540006e-17 -0.5328408702038847
  outer loop
    vertex 2620.047525690464 -3505.199999999997 2883.8621303133687
    vertex 2660.6499999999996 -13957.3 2948.343748468805
    vertex 2620.047525690464 -13957.3 2883.862130313369
  endloop
endfacet
facet normal 0.8462154613574292 -1.8401273858540006e-17 -0.5328408702038847
  outer loop
    vertex 2660.6499999999996 -13957.3 2948.343748468805
    vertex 2620.047525690464 -3505.199999999997 2883.8621303133687
    vertex 2660.6499999999996 -3505.199999999997 2948.3437484688047
  endloop
endfacet
facet normal 0.0 -1.0 0.0
  outer loop
    vertex 2660.6499999999996 -13957.3 2948.343748468805
    vertex -938.3197706988954 -13957.3 5124.477686630047
    vertex 2620.047525690464 -13957.3 2883.862130313369
  endloop
endfacet
facet normal 0.0 -1.0 0.0
  outer loop
    vertex -938.3197706988954 -13957.3 5124.477686630047
    vertex 2660.6499999999996 -13957.3 2948.343748468805
    vertex -938.3197706988963 -13957.3 5214.525674973072
  endloop
endfacet
facet normal 0.5328408702038848 7.74139802617771e-18 0.8462154613574293
  outer loop
    vertex 2660.6499999999996 -13957.3 2948.343748468805
    vertex -938.3197706988963 -3505.2 5214.525674973072
    vertex -938.3197706988963 -13957.3 5214.525674973072
  endloop
endfacet
facet normal 0.5328408702038848 7.74139802617771e-18 0.8462154613574293
  outer loop
    vertex -938.3197706988963 -3505.2 5214.525674973072
    vertex 2660.6499999999996 -13957.3 2948.343748468805
    vertex 2660.6499999999996 -3505.199999999997 2948.3437484688047
  endloop
endfacet
endsolid house assy
