solid house assy
facet normal 0.0 1.0 0.0
  outer loop
    vertex -5241.924999999999 -3200.3999999999996 2652.822308720002
    vertex -5089.525 -3200.3999999999996 2463.7999999999997
    vertex -5241.924999999999 -3200.3999999999996 2463.7999999999997
  endloop
endfacet
facet normal 0.0 1.0 0.0
  outer loop
    vertex -5089.525 -3200.3999999999996 2463.7999999999997
    vertex -5013.325 -3200.3999999999996 2387.6
    vertex -5089.525 -3200.3999999999996 2387.6
  endloop
endfacet
facet normal 0.0 1.0 0.0
  outer loop
    vertex -5013.325 -3200.3999999999996 2387.6
    vertex -5089.525 -3200.3999999999996 2463.7999999999997
    vertex -5013.325 -3200.3999999999996 2788.5697088707175
  endloop
endfacet
facet normal 0.0 1.0 0.0
  outer loop
    vertex -5013.325 -3200.3999999999996 2788.5697088707175
    vertex -5089.525 -3200.3999999999996 2463.7999999999997
    vertex -5241.924999999999 -3200.3999999999996 2652.822308720002
  endloop
endfacet
facet normal 0.0 1.0 0.0
  outer loop
    vertex -5013.325 -3200.3999999999996 2788.5697088707175
    vertex -5241.924999999999 -3200.3999999999996 2652.822308720002
    vertex -5089.525 -3200.3999999999996 2743.7109253763015
  endloop
endfacet
facet normal -0.0 -0.0 -1.0
  outer loop
    vertex -5013.325 -3200.3999999999996 2387.6
    vertex -5089.525 -5118.099999999999 2387.6
    vertex -5089.525 -3200.3999999999996 2387.6
  endloop
endfacet
facet normal -0.0 -0.0 -1.0
  outer loop
    vertex -5089.525 -5118.099999999999 2387.6
    vertex -5013.325 -3200.3999999999996 2387.6
    vertex -5013.325 -5118.099999999999 2387.6
  endloop
endfacet
facet normal 1.0 0.0 0.0
  outer loop
    vertex -5013.325 -3200.3999999999996 2387.6
    vertex -5013.325 -5118.099999999999 2788.5697088707175
    vertex -5013.325 -5118.099999999999 2387.6
  endloop
endfacet
facet normal 1.0 0.0 0.0
  outer loop
    vertex -5013.325 -5118.099999999999 2788.5697088707175
    vertex -5013.325 -3200.3999999999996 2387.6
    vertex -5013.325 -3200.3999999999996 2788.5697088707175
  endloop
endfacet
facet normal -0.0 -1.0 -0.0
  outer loop
    vertex -5013.325 -5118.099999999999 2788.5697088707175
    vertex -5089.525 -5118.099999999999 2387.6
    vertex -5013.325 -5118.099999999999 2387.6
  endloop
endfacet
facet normal -0.0 -1.0 -0.0
  outer loop
    vertex -5089.525 -5118.099999999999 2387.6
    vertex -5013.325 -5118.099999999999 2788.5697088707175
    vertex -5089.525 -5118.099999999999 2743.7109253763015
  endloop
endfacet
facet normal -0.5073162993052103 -1.0676732056150825e-18 0.8617599273923487
  outer loop
    vertex -5013.325 -5118.099999999999 2788.5697088707175
    vertex -5089.525 -4965.7 2743.7109253763015
    vertex -5089.525 -5118.099999999999 2743.7109253763015
  endloop
endfacet
facet normal -0.5073162993052103 -1.0676732056150825e-18 0.8617599273923487
  outer loop
    vertex -5089.525 -4965.7 2743.7109253763015
    vertex -5013.325 -5118.099999999999 2788.5697088707175
    vertex -5089.525 -3200.3999999999996 2743.7109253763015
  endloop
endfacet
facet normal -0.5073162993052103 -1.0676732056150825e-18 0.8617599273923487
  outer loop
    vertex -5089.525 -3200.3999999999996 2743.7109253763015
    vertex -5013.325 -5118.099999999999 2788.5697088707175
    vertex -5013.325 -3200.3999999999996 2788.5697088707175
  endloop
endfacet
facet normal -1.0 0.0 0.0
  outer loop
    vertex -5089.525 -4965.7 2743.7109253763015
    vertex -5089.525 -5118.099999999999 2387.6
    vertex -5089.525 -5118.099999999999 2743.7109253763015
  endloop
endfacet
facet normal -1.0 0.0 0.0
  outer loop
    vertex -5089.525 -5118.099999999999 2387.6
    vertex -5089.525 -4965.7 2743.7109253763015
    vertex -5089.525 -4965.7 2463.7999999999997
  endloop
endfacet
facet normal -1.0 0.0 0.0
  outer loop
    vertex -5089.525 -5118.099999999999 2387.6
    vertex -5089.525 -4965.7 2463.7999999999997
    vertex -5089.525 -3200.3999999999996 2387.6
  endloop
endfacet
facet normal -1.0 0.0 0.0
  outer loop
    vertex -5089.525 -3200.3999999999996 2387.6
    vertex -5089.525 -4965.7 2463.7999999999997
    vertex -5089.525 -3200.3999999999996 2463.7999999999997
  endloop
endfacet
facet normal -0.8591820445300685 0.0 -0.5116700248765127
  outer loop
    vertex -6644.515304613827 69.85000000000578 1906.354124888248
    vertex -6605.526048718236 -3362.595400145414 1840.884453095056
    vertex -6644.515304613827 -3362.595400145414 1906.354124888248
  endloop
endfacet
facet normal -0.8591820445300685 0.0 -0.5116700248765127
  outer loop
    vertex -6605.526048718236 -3362.595400145414 1840.884453095056
    vertex -6644.515304613827 69.85000000000578 1906.354124888248
    vertex -6605.526048718236 69.85000000000578 1840.884453095056
  endloop
endfacet
facet normal -0.5116700248765081 -1.4719872992262614e-16 0.8591820445300714
  outer loop
    vertex -938.3197706988941 -14179.550000000005 5304.5736633160905
    vertex -5305.949179486428 -4965.700000000005 2703.5124999999994
    vertex -5305.949179486428 -14179.550000000005 2703.5124999999994
  endloop
endfacet
facet normal -0.5116700248765081 -1.4719872992262614e-16 0.8591820445300714
  outer loop
    vertex -5305.949179486428 -4965.700000000005 2703.5124999999994
    vertex -938.3197706988941 -14179.550000000005 5304.5736633160905
    vertex -2353.0044227757003 -3282.9500000000085 4462.084302965854
  endloop
endfacet
facet normal -0.5116700248765081 -1.4719872992262614e-16 0.8591820445300714
  outer loop
    vertex -2353.0044227757003 -3282.9500000000085 4462.084302965854
    vertex -938.3197706988941 -14179.550000000005 5304.5736633160905
    vertex -938.3197706988941 -3282.9500000000057 5304.573663316095
  endloop
endfacet
facet normal -0.5116700248765081 -1.4719872992262614e-16 0.8591820445300714
  outer loop
    vertex -5509.070720716901 -3362.595400145414 2582.547211309409
    vertex -6644.515304613827 69.85000000000578 1906.354124888248
    vertex -6644.515304613827 -3362.595400145414 1906.354124888248
  endloop
endfacet
facet normal -0.5116700248765081 -1.4719872992262614e-16 0.8591820445300714
  outer loop
    vertex -6644.515304613827 69.85000000000578 1906.354124888248
    vertex -5509.070720716901 -3362.595400145414 2582.547211309409
    vertex -2353.0044227757003 69.85000000000288 4462.084302965849
  endloop
endfacet
facet normal -0.5116700248765081 -1.4719872992262614e-16 0.8591820445300714
  outer loop
    vertex -2353.0044227757003 69.85000000000288 4462.084302965849
    vertex -5509.070720716901 -3362.595400145414 2582.547211309409
    vertex -5509.0707207169 -4965.700000000005 2582.5472113094097
  endloop
endfacet
facet normal -0.5116700248765081 -1.4719872992262614e-16 0.8591820445300714
  outer loop
    vertex -2353.0044227757003 69.85000000000288 4462.084302965849
    vertex -5509.0707207169 -4965.700000000005 2582.5472113094097
    vertex -5305.949179486428 -4965.700000000005 2703.5124999999994
  endloop
endfacet
facet normal -0.5116700248765081 -1.4719872992262614e-16 0.8591820445300714
  outer loop
    vertex -2353.0044227757003 69.85000000000288 4462.084302965849
    vertex -5305.949179486428 -4965.700000000005 2703.5124999999994
    vertex -2353.0044227757003 -3282.9500000000085 4462.084302965854
  endloop
endfacet
facet normal -2.4237561285479083e-15 -0.0 -1.0
  outer loop
    vertex -5157.025075483282 -4965.700000000005 2703.512499999999
    vertex -5305.949179486428 -14179.550000000005 2703.5124999999994
    vertex -5305.949179486428 -4965.700000000005 2703.5124999999994
  endloop
endfacet
facet normal -2.4237561285479083e-15 -0.0 -1.0
  outer loop
    vertex -5305.949179486428 -14179.550000000005 2703.5124999999994
    vertex -5157.025075483282 -4965.700000000005 2703.512499999999
    vertex -5157.025075483282 -14179.550000000005 2703.512499999999
  endloop
endfacet
facet normal 0.0 0.0 -1.0
  outer loop
    vertex -6315.075 19.049999999999997 1784.35
    vertex -6467.474999999999 -3200.4000000000115 1784.35
    vertex -6467.474999999999 19.049999999999997 1784.35
  endloop
endfacet
facet normal 0.0 0.0 -1.0
  outer loop
    vertex -6467.474999999999 -3200.4000000000115 1784.35
    vertex -6315.075 19.049999999999997 1784.35
    vertex -6315.075 -3200.4000000000115 1784.35
  endloop
endfacet
facet normal -1.0 1.183042649609148e-16 0.0
  outer loop
    vertex -6467.474999999999 19.049999999999997 1923.098209750694
    vertex -6467.474999999999 -3200.4000000000115 1784.35
    vertex -6467.474999999999 -3200.4000000000115 1923.098209750694
  endloop
endfacet
facet normal -1.0 1.183042649609148e-16 0.0
  outer loop
    vertex -6467.474999999999 -3200.4000000000115 1784.35
    vertex -6467.474999999999 19.049999999999997 1923.098209750694
    vertex -6467.474999999999 19.049999999999997 1784.35
  endloop
endfacet
facet normal 0.0 -1.0 0.0
  outer loop
    vertex -5089.525 -4965.7 2743.7109253763015
    vertex -5241.924999999999 -4965.7 2463.7999999999997
    vertex -5089.525 -4965.7 2463.7999999999997
  endloop
endfacet
facet normal 0.0 -1.0 0.0
  outer loop
    vertex -5241.924999999999 -4965.7 2463.7999999999997
    vertex -5089.525 -4965.7 2743.7109253763015
    vertex -5241.924999999999 -4965.7 2652.822308720002
  endloop
endfacet
facet normal -9.773418227964779e-17 1.0 -4.405819807926485e-15
  outer loop
    vertex -2303.3814663125886 -3282.950000000011 4430.837608493778
    vertex -940.5551419618383 -3282.9500000000057 5214.553424925264
    vertex -2331.4804861145585 -3282.9500000000085 4386.213482331087
  endloop
endfacet
facet normal -9.773418227964779e-17 1.0 -4.405819807926485e-15
  outer loop
    vertex -940.5551419618383 -3282.9500000000057 5214.553424925264
    vertex -2303.3814663125886 -3282.950000000011 4430.837608493778
    vertex -2353.0044227757003 -3282.9500000000085 4462.084302965854
  endloop
endfacet
facet normal -9.773418227964779e-17 1.0 -4.405819807926485e-15
  outer loop
    vertex -940.5551419618383 -3282.9500000000057 5214.553424925264
    vertex -2353.0044227757003 -3282.9500000000085 4462.084302965854
    vertex -938.3197706988941 -3282.9500000000057 5304.573663316095
  endloop
endfacet
facet normal -0.512209106160568 0.0 0.8588607754264902
  outer loop
    vertex -5089.525 -4965.7 2743.7109253763015
    vertex -5241.924999999999 -3200.3999999999996 2652.822308720002
    vertex -5241.924999999999 -4965.7 2652.822308720002
  endloop
endfacet
facet normal -0.512209106160568 0.0 0.8588607754264902
  outer loop
    vertex -5241.924999999999 -3200.3999999999996 2652.822308720002
    vertex -5089.525 -4965.7 2743.7109253763015
    vertex -5089.525 -3200.3999999999996 2743.7109253763015
  endloop
endfacet
facet normal -1.0 -0.0 -0.0
  outer loop
    vertex -5241.924999999999 -3200.3999999999996 2652.822308720002
    vertex -5241.924999999999 -4965.7 2463.7999999999997
    vertex -5241.924999999999 -4965.7 2652.822308720002
  endloop
endfacet
facet normal -1.0 -0.0 -0.0
  outer loop
    vertex -5241.924999999999 -4965.7 2463.7999999999997
    vertex -5241.924999999999 -3200.3999999999996 2652.822308720002
    vertex -5241.924999999999 -3200.3999999999996 2463.7999999999997
  endloop
endfacet
facet normal 6.38874920924661e-17 -1.0 3.804701794731945e-17
  outer loop
    vertex -5470.081464821311 -3362.595400145414 2517.077539516215
    vertex -6644.515304613827 -3362.595400145414 1906.354124888248
    vertex -6605.526048718236 -3362.595400145414 1840.884453095056
  endloop
endfacet
facet normal 6.38874920924661e-17 -1.0 3.804701794731945e-17
  outer loop
    vertex -6644.515304613827 -3362.595400145414 1906.354124888248
    vertex -5470.081464821311 -3362.595400145414 2517.077539516215
    vertex -5509.070720716901 -3362.595400145414 2582.547211309409
  endloop
endfacet
facet normal 0.0 0.0 -1.0
  outer loop
    vertex -5089.525 -3200.3999999999996 2463.7999999999997
    vertex -5241.924999999999 -4965.7 2463.7999999999997
    vertex -5241.924999999999 -3200.3999999999996 2463.7999999999997
  endloop
endfacet
facet normal 0.0 0.0 -1.0
  outer loop
    vertex -5241.924999999999 -4965.7 2463.7999999999997
    vertex -5089.525 -3200.3999999999996 2463.7999999999997
    vertex -5089.525 -4965.7 2463.7999999999997
  endloop
endfacet
facet normal 0.8462127656254288 -2.2649158095905426e-15 -0.5328451513268777
  outer loop
    vertex -2331.4804861145585 -3282.9500000000085 4386.213482331087
    vertex -2303.3814663125886 69.85 4430.837608493774
    vertex -2303.3814663125886 -3282.950000000011 4430.837608493778
  endloop
endfacet
facet normal 0.8462127656254288 -2.2649158095905426e-15 -0.5328451513268777
  outer loop
    vertex -2303.3814663125886 69.85 4430.837608493774
    vertex -2331.4804861145585 -3282.9500000000085 4386.213482331087
    vertex -2331.4804861145585 69.85000000000288 4386.213482331083
  endloop
endfacet
facet normal 0.5328451513267946 3.780338149659596e-15 0.8462127656254811
  outer loop
    vertex -2303.3814663125886 -3282.950000000011 4430.837608493778
    vertex -2353.0044227757003 69.85000000000288 4462.084302965849
    vertex -2353.0044227757003 -3282.9500000000085 4462.084302965854
  endloop
endfacet
facet normal 0.5328451513267946 3.780338149659596e-15 0.8462127656254811
  outer loop
    vertex -2353.0044227757003 69.85000000000288 4462.084302965849
    vertex -2303.3814663125886 -3282.950000000011 4430.837608493778
    vertex -2303.3814663125886 69.85 4430.837608493774
  endloop
endfacet
facet normal 0.0 -1.0 0.0
  outer loop
    vertex -940.5551419618383 -14179.550000000005 5214.55342492526
    vertex -5305.949179486428 -14179.550000000005 2703.5124999999994
    vertex -5157.025075483282 -14179.550000000005 2703.512499999999
  endloop
endfacet
facet normal 0.0 -1.0 0.0
  outer loop
    vertex -5305.949179486428 -14179.550000000005 2703.5124999999994
    vertex -940.5551419618383 -14179.550000000005 5214.55342492526
    vertex -938.3197706988941 -14179.550000000005 5304.5736633160905
  endloop
endfacet
facet normal 0.0 -1.0 0.0
  outer loop
    vertex -5157.025075483282 -4965.700000000005 2703.512499999999
    vertex -5509.0707207169 -4965.700000000005 2582.5472113094097
    vertex -5470.081464821311 -4965.700000000005 2517.077539516216
  endloop
endfacet
facet normal 0.0 -1.0 0.0
  outer loop
    vertex -5509.0707207169 -4965.700000000005 2582.5472113094097
    vertex -5157.025075483282 -4965.700000000005 2703.512499999999
    vertex -5305.949179486428 -4965.700000000005 2703.5124999999994
  endloop
endfacet
facet normal 3.0272341777367168e-15 1.0 -3.581217813284112e-15
  outer loop
    vertex -6644.515304613827 69.85000000000578 1906.354124888248
    vertex -2331.4804861145585 69.85000000000288 4386.213482331083
    vertex -6605.526048718236 69.85000000000578 1840.884453095056
  endloop
endfacet
facet normal 3.0272341777367168e-15 1.0 -3.581217813284112e-15
  outer loop
    vertex -2331.4804861145585 69.85000000000288 4386.213482331083
    vertex -6644.515304613827 69.85000000000578 1906.354124888248
    vertex -2353.0044227757003 69.85000000000288 4462.084302965849
  endloop
endfacet
facet normal 3.0272341777367168e-15 1.0 -3.581217813284112e-15
  outer loop
    vertex -2331.4804861145585 69.85000000000288 4386.213482331083
    vertex -2353.0044227757003 69.85000000000288 4462.084302965849
    vertex -2303.3814663125886 69.85 4430.837608493774
  endloop
endfacet
facet normal 0.5116700248765087 2.497933613646281e-16 -0.8591820445300711
  outer loop
    vertex -6605.526048718236 69.85000000000578 1840.884453095056
    vertex -6467.474999999999 19.049999999999997 1923.098209750694
    vertex -6605.526048718236 -3362.595400145414 1840.884453095056
  endloop
endfacet
facet normal 0.5116700248765087 2.497933613646281e-16 -0.8591820445300711
  outer loop
    vertex -6467.474999999999 19.049999999999997 1923.098209750694
    vertex -6605.526048718236 69.85000000000578 1840.884453095056
    vertex -2331.4804861145585 69.85000000000288 4386.213482331083
  endloop
endfacet
facet normal 0.5116700248765087 2.497933613646281e-16 -0.8591820445300711
  outer loop
    vertex -6467.474999999999 19.049999999999997 1923.098209750694
    vertex -2331.4804861145585 69.85000000000288 4386.213482331083
    vertex -6238.875 19.049999999999997 2059.2367247853567
  endloop
endfacet
facet normal 0.5116700248765087 2.497933613646281e-16 -0.8591820445300711
  outer loop
    vertex -6238.875 19.049999999999997 2059.2367247853567
    vertex -2331.4804861145585 69.85000000000288 4386.213482331083
    vertex -6238.875 -3200.3999999999996 2059.2367247853567
  endloop
endfacet
facet normal 0.5116700248765087 2.497933613646281e-16 -0.8591820445300711
  outer loop
    vertex -6238.875 -3200.3999999999996 2059.2367247853567
    vertex -2331.4804861145585 69.85000000000288 4386.213482331083
    vertex -5470.081464821311 -3362.595400145414 2517.077539516215
  endloop
endfacet
facet normal 0.5116700248765087 2.497933613646281e-16 -0.8591820445300711
  outer loop
    vertex -5470.081464821311 -3362.595400145414 2517.077539516215
    vertex -2331.4804861145585 69.85000000000288 4386.213482331083
    vertex -5470.081464821311 -4965.700000000005 2517.077539516216
  endloop
endfacet
facet normal 0.5116700248765087 2.497933613646281e-16 -0.8591820445300711
  outer loop
    vertex -5470.081464821311 -4965.700000000005 2517.077539516216
    vertex -2331.4804861145585 69.85000000000288 4386.213482331083
    vertex -5157.025075483282 -4965.700000000005 2703.512499999999
  endloop
endfacet
facet normal 0.5116700248765087 2.497933613646281e-16 -0.8591820445300711
  outer loop
    vertex -5157.025075483282 -4965.700000000005 2703.512499999999
    vertex -2331.4804861145585 69.85000000000288 4386.213482331083
    vertex -5157.025075483282 -14179.550000000005 2703.512499999999
  endloop
endfacet
facet normal 0.5116700248765087 2.497933613646281e-16 -0.8591820445300711
  outer loop
    vertex -5157.025075483282 -14179.550000000005 2703.512499999999
    vertex -2331.4804861145585 69.85000000000288 4386.213482331083
    vertex -2331.4804861145585 -3282.9500000000085 4386.213482331087
  endloop
endfacet
facet normal 0.5116700248765087 2.497933613646281e-16 -0.8591820445300711
  outer loop
    vertex -5157.025075483282 -14179.550000000005 2703.512499999999
    vertex -2331.4804861145585 -3282.9500000000085 4386.213482331087
    vertex -940.5551419618383 -14179.550000000005 5214.55342492526
  endloop
endfacet
facet normal 0.5116700248765087 2.497933613646281e-16 -0.8591820445300711
  outer loop
    vertex -940.5551419618383 -14179.550000000005 5214.55342492526
    vertex -2331.4804861145585 -3282.9500000000085 4386.213482331087
    vertex -940.5551419618383 -3282.9500000000057 5214.553424925264
  endloop
endfacet
facet normal 0.5116700248765087 2.497933613646281e-16 -0.8591820445300711
  outer loop
    vertex -6605.526048718236 -3362.595400145414 1840.884453095056
    vertex -6467.474999999999 -3200.4000000000115 1923.098209750694
    vertex -5470.081464821311 -3362.595400145414 2517.077539516215
  endloop
endfacet
facet normal 0.5116700248765087 2.497933613646281e-16 -0.8591820445300711
  outer loop
    vertex -6467.474999999999 -3200.4000000000115 1923.098209750694
    vertex -6605.526048718236 -3362.595400145414 1840.884453095056
    vertex -6467.474999999999 19.049999999999997 1923.098209750694
  endloop
endfacet
facet normal 0.5116700248765087 2.497933613646281e-16 -0.8591820445300711
  outer loop
    vertex -5470.081464821311 -3362.595400145414 2517.077539516215
    vertex -6467.474999999999 -3200.4000000000115 1923.098209750694
    vertex -6238.875 -3200.3999999999996 2059.2367247853567
  endloop
endfacet
facet normal 0.9996918315144757 6.229138875017713e-18 -0.024824222107315358
  outer loop
    vertex -940.5551419618383 -3282.9500000000057 5214.553424925264
    vertex -938.3197706988941 -14179.550000000005 5304.5736633160905
    vertex -940.5551419618383 -14179.550000000005 5214.55342492526
  endloop
endfacet
facet normal 0.9996918315144757 6.229138875017713e-18 -0.024824222107315358
  outer loop
    vertex -938.3197706988941 -14179.550000000005 5304.5736633160905
    vertex -940.5551419618383 -3282.9500000000057 5214.553424925264
    vertex -938.3197706988941 -3282.9500000000057 5304.573663316095
  endloop
endfacet
facet normal -0.8591820445300729 -7.435850469548569e-17 -0.5116700248765057
  outer loop
    vertex -5509.070720716901 -3362.595400145414 2582.547211309409
    vertex -5470.081464821311 -4965.700000000005 2517.077539516216
    vertex -5509.0707207169 -4965.700000000005 2582.5472113094097
  endloop
endfacet
facet normal -0.8591820445300729 -7.435850469548569e-17 -0.5116700248765057
  outer loop
    vertex -5470.081464821311 -4965.700000000005 2517.077539516216
    vertex -5509.070720716901 -3362.595400145414 2582.547211309409
    vertex -5470.081464821311 -3362.595400145414 2517.077539516215
  endloop
endfacet
facet normal 0.0 1.0 0.0
  outer loop
    vertex -6467.474999999999 19.049999999999997 1923.098209750694
    vertex -6315.075 19.049999999999997 1784.35
    vertex -6467.474999999999 19.049999999999997 1784.35
  endloop
endfacet
facet normal 0.0 1.0 0.0
  outer loop
    vertex -6315.075 19.049999999999997 1784.35
    vertex -6238.874999999999 19.049999999999997 1708.1499999999999
    vertex -6315.075 19.049999999999997 1708.1499999999999
  endloop
endfacet
facet normal 0.0 1.0 0.0
  outer loop
    vertex -6238.874999999999 19.049999999999997 1708.1499999999999
    vertex -6315.075 19.049999999999997 1784.35
    vertex -6238.875 19.049999999999997 2059.2367247853567
  endloop
endfacet
facet normal 0.0 1.0 0.0
  outer loop
    vertex -6238.875 19.049999999999997 2059.2367247853567
    vertex -6315.075 19.049999999999997 1784.35
    vertex -6467.474999999999 19.049999999999997 1923.098209750694
  endloop
endfacet
facet normal 4.6779406767090014e-14 -1.0 -9.891055370662948e-15
  outer loop
    vertex -6238.875 -3200.3999999999996 2059.2367247853567
    vertex -6315.075 -3200.3999999999996 1708.1499999999999
    vertex -6238.874999999999 -3200.3999999999996 1708.1499999999999
  endloop
endfacet
facet normal 4.6779406767090014e-14 -1.0 -9.891055370662948e-15
  outer loop
    vertex -6315.075 -3200.3999999999996 1708.1499999999999
    vertex -6238.875 -3200.3999999999996 2059.2367247853567
    vertex -6315.075 -3200.4000000000115 1784.35
  endloop
endfacet
facet normal 4.6779406767090014e-14 -1.0 -9.891055370662948e-15
  outer loop
    vertex -6315.075 -3200.4000000000115 1784.35
    vertex -6238.875 -3200.3999999999996 2059.2367247853567
    vertex -6467.474999999999 -3200.4000000000115 1784.35
  endloop
endfacet
facet normal 4.6779406767090014e-14 -1.0 -9.891055370662948e-15
  outer loop
    vertex -6467.474999999999 -3200.4000000000115 1784.35
    vertex -6238.875 -3200.3999999999996 2059.2367247853567
    vertex -6467.474999999999 -3200.4000000000115 1923.098209750694
  endloop
endfacet
facet normal 1.0 0.0 4.112439283904088e-15
  outer loop
    vertex -6238.874999999999 19.049999999999997 1708.1499999999999
    vertex -6238.875 -3200.3999999999996 2059.2367247853567
    vertex -6238.874999999999 -3200.3999999999996 1708.1499999999999
  endloop
endfacet
facet normal 1.0 0.0 4.112439283904088e-15
  outer loop
    vertex -6238.875 -3200.3999999999996 2059.2367247853567
    vertex -6238.874999999999 19.049999999999997 1708.1499999999999
    vertex -6238.875 19.049999999999997 2059.2367247853567
  endloop
endfacet
facet normal -1.0 -6.116221245185258e-32 -2.5430122312756104e-15
  outer loop
    vertex -6315.075 19.049999999999997 1784.35
    vertex -6315.075 -3200.3999999999996 1708.1499999999999
    vertex -6315.075 -3200.4000000000115 1784.35
  endloop
endfacet
facet normal -1.0 -6.116221245185258e-32 -2.5430122312756104e-15
  outer loop
    vertex -6315.075 -3200.3999999999996 1708.1499999999999
    vertex -6315.075 19.049999999999997 1784.35
    vertex -6315.075 19.049999999999997 1708.1499999999999
  endloop
endfacet
facet normal 0.0 0.0 -1.0
  outer loop
    vertex -6238.874999999999 19.049999999999997 1708.1499999999999
    vertex -6315.075 -3200.3999999999996 1708.1499999999999
    vertex -6315.075 19.049999999999997 1708.1499999999999
  endloop
endfacet
facet normal 0.0 0.0 -1.0
  outer loop
    vertex -6315.075 -3200.3999999999996 1708.1499999999999
    vertex -6238.874999999999 19.049999999999997 1708.1499999999999
    vertex -6238.874999999999 -3200.3999999999996 1708.1499999999999
  endloop
endfacet
endsolid house assy
