solid worthington-tower
facet normal -1.0 -0.0 -0.0
  outer loop
    vertex 2577.651747423642 519.9379999999478 4714.1447500000095
    vertex 2577.651747423642 494.5379999999478 4028.3447500000098
    vertex 2577.651747423642 494.5379999999478 4714.1447500000095
  endloop
endfacet
facet normal -1.0 -0.0 -0.0
  outer loop
    vertex 2577.651747423642 494.5379999999478 4028.3447500000098
    vertex 2577.651747423642 519.9379999999478 4714.1447500000095
    vertex 2577.651747423642 519.9379999999478 4028.3447500000098
  endloop
endfacet
facet normal 0.0 3.330669073875468e-16 1.0
  outer loop
    vertex 2577.651747423642 494.5379999999478 4764.94475000001
    vertex 2222.051747423642 519.9379999999478 4764.94475000001
    vertex 2222.051747423642 494.5379999999478 4764.94475000001
  endloop
endfacet
facet normal 0.0 3.330669073875468e-16 1.0
  outer loop
    vertex 2222.051747423642 519.9379999999478 4764.94475000001
    vertex 2577.651747423642 494.5379999999478 4764.94475000001
    vertex 2577.651747423642 519.9379999999478 4764.94475000001
  endloop
endfacet
facet normal 0.0 1.0 -4.817238886509154e-16
  outer loop
    vertex 2171.251747423642 519.937999999947 3977.54475000001
    vertex 2222.051747423642 519.937999999947 4028.3447500000098
    vertex 3085.651747423642 519.937999999947 3977.54475000001
  endloop
endfacet
facet normal 0.0 1.0 -4.817238886509154e-16
  outer loop
    vertex 2222.051747423642 519.937999999947 4028.3447500000098
    vertex 2171.251747423642 519.937999999947 3977.54475000001
    vertex 2171.251747423642 519.9379999999478 5476.1447500000095
  endloop
endfacet
facet normal 0.0 1.0 -4.817238886509154e-16
  outer loop
    vertex 2222.051747423642 519.937999999947 4028.3447500000098
    vertex 2171.251747423642 519.9379999999478 5476.1447500000095
    vertex 2222.051747423642 519.9379999999478 4714.1447500000095
  endloop
endfacet
facet normal 0.0 1.0 -4.817238886509154e-16
  outer loop
    vertex 2222.051747423642 519.9379999999478 4714.1447500000095
    vertex 2171.251747423642 519.9379999999478 5476.1447500000095
    vertex 2222.051747423642 519.9379999999478 4764.94475000001
  endloop
endfacet
facet normal 0.0 1.0 -4.817238886509154e-16
  outer loop
    vertex 2222.051747423642 519.9379999999478 4714.1447500000095
    vertex 2222.051747423642 519.9379999999478 4764.94475000001
    vertex 2577.651747423642 519.9379999999478 4714.1447500000095
  endloop
endfacet
facet normal 0.0 1.0 -4.817238886509154e-16
  outer loop
    vertex 2577.651747423642 519.9379999999478 4714.1447500000095
    vertex 2222.051747423642 519.9379999999478 4764.94475000001
    vertex 2679.251747423642 519.9379999999478 4714.1447500000095
  endloop
endfacet
facet normal 0.0 1.0 -4.817238886509154e-16
  outer loop
    vertex 2679.251747423642 519.9379999999478 4714.1447500000095
    vertex 2222.051747423642 519.9379999999478 4764.94475000001
    vertex 3034.851747423642 519.9379999999478 4714.1447500000095
  endloop
endfacet
facet normal 0.0 1.0 -4.817238886509154e-16
  outer loop
    vertex 2222.051747423642 519.9379999999478 4764.94475000001
    vertex 2171.251747423642 519.9379999999478 5476.1447500000095
    vertex 2222.051747423642 519.9379999999478 5450.74475000001
  endloop
endfacet
facet normal 0.0 1.0 -4.817238886509154e-16
  outer loop
    vertex 2222.051747423642 519.9379999999478 5450.74475000001
    vertex 2171.251747423642 519.9379999999478 5476.1447500000095
    vertex 2577.651747423642 519.9379999999478 5450.74475000001
  endloop
endfacet
facet normal 0.0 1.0 -4.817238886509154e-16
  outer loop
    vertex 2577.651747423642 519.9379999999478 5450.74475000001
    vertex 2171.251747423642 519.9379999999478 5476.1447500000095
    vertex 2679.251747423642 519.9379999999478 5450.74475000001
  endloop
endfacet
facet normal 0.0 1.0 -4.817238886509154e-16
  outer loop
    vertex 2679.251747423642 519.9379999999478 5450.74475000001
    vertex 2171.251747423642 519.9379999999478 5476.1447500000095
    vertex 3034.851747423642 519.9379999999478 5450.74475000001
  endloop
endfacet
facet normal 0.0 1.0 -4.817238886509154e-16
  outer loop
    vertex 3085.651747423642 519.937999999947 3977.54475000001
    vertex 3034.851747423642 519.9379999999478 4028.3447500000098
    vertex 3085.651747423642 519.9379999999478 5476.1447500000095
  endloop
endfacet
facet normal 0.0 1.0 -4.817238886509154e-16
  outer loop
    vertex 3034.851747423642 519.9379999999478 4028.3447500000098
    vertex 3085.651747423642 519.937999999947 3977.54475000001
    vertex 2222.051747423642 519.937999999947 4028.3447500000098
  endloop
endfacet
facet normal 0.0 1.0 -4.817238886509154e-16
  outer loop
    vertex 3034.851747423642 519.9379999999478 4028.3447500000098
    vertex 2222.051747423642 519.937999999947 4028.3447500000098
    vertex 2577.651747423642 519.9379999999478 4028.3447500000098
  endloop
endfacet
facet normal 0.0 1.0 -4.817238886509154e-16
  outer loop
    vertex 3034.851747423642 519.9379999999478 4028.3447500000098
    vertex 2577.651747423642 519.9379999999478 4028.3447500000098
    vertex 2679.251747423642 519.937999999947 4028.3447500000098
  endloop
endfacet
facet normal 0.0 1.0 -4.817238886509154e-16
  outer loop
    vertex 3085.651747423642 519.9379999999478 5476.1447500000095
    vertex 3034.851747423642 519.9379999999478 4028.3447500000098
    vertex 3034.851747423642 519.9379999999478 4714.1447500000095
  endloop
endfacet
facet normal 0.0 1.0 -4.817238886509154e-16
  outer loop
    vertex 3085.651747423642 519.9379999999478 5476.1447500000095
    vertex 3034.851747423642 519.9379999999478 4714.1447500000095
    vertex 3034.851747423642 519.9379999999478 4764.94475000001
  endloop
endfacet
facet normal 0.0 1.0 -4.817238886509154e-16
  outer loop
    vertex 3034.851747423642 519.9379999999478 4764.94475000001
    vertex 3034.851747423642 519.9379999999478 4714.1447500000095
    vertex 2222.051747423642 519.9379999999478 4764.94475000001
  endloop
endfacet
facet normal 0.0 1.0 -4.817238886509154e-16
  outer loop
    vertex 3034.851747423642 519.9379999999478 4764.94475000001
    vertex 2222.051747423642 519.9379999999478 4764.94475000001
    vertex 2577.651747423642 519.9379999999478 4764.94475000001
  endloop
endfacet
facet normal 0.0 1.0 -4.817238886509154e-16
  outer loop
    vertex 3034.851747423642 519.9379999999478 4764.94475000001
    vertex 2577.651747423642 519.9379999999478 4764.94475000001
    vertex 2679.251747423642 519.9379999999478 4764.94475000001
  endloop
endfacet
facet normal 0.0 1.0 -4.817238886509154e-16
  outer loop
    vertex 3085.651747423642 519.9379999999478 5476.1447500000095
    vertex 3034.851747423642 519.9379999999478 4764.94475000001
    vertex 3034.851747423642 519.9379999999478 5450.74475000001
  endloop
endfacet
facet normal 0.0 1.0 -4.817238886509154e-16
  outer loop
    vertex 3085.651747423642 519.9379999999478 5476.1447500000095
    vertex 3034.851747423642 519.9379999999478 5450.74475000001
    vertex 2171.251747423642 519.9379999999478 5476.1447500000095
  endloop
endfacet
facet normal 0.0 1.0 -4.817238886509154e-16
  outer loop
    vertex 2577.651747423642 519.9379999999478 5450.74475000001
    vertex 2679.251747423642 519.9379999999478 4764.94475000001
    vertex 2577.651747423642 519.9379999999478 4764.94475000001
  endloop
endfacet
facet normal 0.0 1.0 -4.817238886509154e-16
  outer loop
    vertex 2679.251747423642 519.9379999999478 4764.94475000001
    vertex 2577.651747423642 519.9379999999478 5450.74475000001
    vertex 2679.251747423642 519.9379999999478 5450.74475000001
  endloop
endfacet
facet normal 0.0 1.0 -4.817238886509154e-16
  outer loop
    vertex 2577.651747423642 519.9379999999478 4714.1447500000095
    vertex 2679.251747423642 519.937999999947 4028.3447500000098
    vertex 2577.651747423642 519.9379999999478 4028.3447500000098
  endloop
endfacet
facet normal 0.0 1.0 -4.817238886509154e-16
  outer loop
    vertex 2679.251747423642 519.937999999947 4028.3447500000098
    vertex 2577.651747423642 519.9379999999478 4714.1447500000095
    vertex 2679.251747423642 519.9379999999478 4714.1447500000095
  endloop
endfacet
facet normal 0.0 3.330669073875468e-16 1.0
  outer loop
    vertex 3034.851747423642 494.5379999999478 4764.94475000001
    vertex 2679.251747423642 519.9379999999478 4764.94475000001
    vertex 2679.251747423642 494.5379999999478 4764.94475000001
  endloop
endfacet
facet normal 0.0 3.330669073875468e-16 1.0
  outer loop
    vertex 2679.251747423642 519.9379999999478 4764.94475000001
    vertex 3034.851747423642 494.5379999999478 4764.94475000001
    vertex 3034.851747423642 519.9379999999478 4764.94475000001
  endloop
endfacet
facet normal -1.0 -0.0 -0.0
  outer loop
    vertex 2577.651747423642 519.9379999999478 5450.74475000001
    vertex 2577.651747423642 494.5379999999478 4764.94475000001
    vertex 2577.651747423642 494.5379999999478 5450.74475000001
  endloop
endfacet
facet normal -1.0 -0.0 -0.0
  outer loop
    vertex 2577.651747423642 494.5379999999478 4764.94475000001
    vertex 2577.651747423642 519.9379999999478 5450.74475000001
    vertex 2577.651747423642 519.9379999999478 4764.94475000001
  endloop
endfacet
facet normal -0.0 -3.330669073875468e-16 -1.0
  outer loop
    vertex 3034.851747423642 519.9379999999478 5450.74475000001
    vertex 2679.251747423642 494.5379999999478 5450.74475000001
    vertex 2679.251747423642 519.9379999999478 5450.74475000001
  endloop
endfacet
facet normal -0.0 -3.330669073875468e-16 -1.0
  outer loop
    vertex 2679.251747423642 494.5379999999478 5450.74475000001
    vertex 3034.851747423642 519.9379999999478 5450.74475000001
    vertex 3034.851747423642 494.5379999999478 5450.74475000001
  endloop
endfacet
facet normal 1.0 0.0 0.0
  outer loop
    vertex 2679.251747423642 519.9379999999478 4764.94475000001
    vertex 2679.251747423642 494.5379999999478 5450.74475000001
    vertex 2679.251747423642 494.5379999999478 4764.94475000001
  endloop
endfacet
facet normal 1.0 0.0 0.0
  outer loop
    vertex 2679.251747423642 494.5379999999478 5450.74475000001
    vertex 2679.251747423642 519.9379999999478 4764.94475000001
    vertex 2679.251747423642 519.9379999999478 5450.74475000001
  endloop
endfacet
facet normal -1.0 -0.0 -0.0
  outer loop
    vertex 3034.851747423642 519.9379999999478 5450.74475000001
    vertex 3034.851747423642 494.5379999999478 4764.94475000001
    vertex 3034.851747423642 494.5379999999478 5450.74475000001
  endloop
endfacet
facet normal -1.0 -0.0 -0.0
  outer loop
    vertex 3034.851747423642 494.5379999999478 4764.94475000001
    vertex 3034.851747423642 519.9379999999478 5450.74475000001
    vertex 3034.851747423642 519.9379999999478 4764.94475000001
  endloop
endfacet
facet normal 1.0 0.0 0.0
  outer loop
    vertex 2222.051747423642 519.9379999999478 4764.94475000001
    vertex 2222.051747423642 494.5379999999478 5450.74475000001
    vertex 2222.051747423642 494.5379999999478 4764.94475000001
  endloop
endfacet
facet normal 1.0 0.0 0.0
  outer loop
    vertex 2222.051747423642 494.5379999999478 5450.74475000001
    vertex 2222.051747423642 519.9379999999478 4764.94475000001
    vertex 2222.051747423642 519.9379999999478 5450.74475000001
  endloop
endfacet
facet normal -6.761664901894385e-31 3.330669073875468e-16 1.0
  outer loop
    vertex 3034.851747423642 494.5379999999478 4028.3447500000098
    vertex 2679.251747423642 519.937999999947 4028.3447500000098
    vertex 2679.251747423642 494.5379999999471 4028.3447500000098
  endloop
endfacet
facet normal -6.761664901894385e-31 3.330669073875468e-16 1.0
  outer loop
    vertex 2679.251747423642 519.937999999947 4028.3447500000098
    vertex 3034.851747423642 494.5379999999478 4028.3447500000098
    vertex 3034.851747423642 519.9379999999478 4028.3447500000098
  endloop
endfacet
facet normal -0.0 -3.330669073875468e-16 -1.0
  outer loop
    vertex 2577.651747423642 519.9379999999478 4714.1447500000095
    vertex 2222.051747423642 494.5379999999478 4714.1447500000095
    vertex 2222.051747423642 519.9379999999478 4714.1447500000095
  endloop
endfacet
facet normal -0.0 -3.330669073875468e-16 -1.0
  outer loop
    vertex 2222.051747423642 494.5379999999478 4714.1447500000095
    vertex 2577.651747423642 519.9379999999478 4714.1447500000095
    vertex 2577.651747423642 494.5379999999478 4714.1447500000095
  endloop
endfacet
facet normal 1.0 0.0 0.0
  outer loop
    vertex 2222.051747423642 519.937999999947 4028.3447500000098
    vertex 2222.051747423642 494.5379999999478 4714.1447500000095
    vertex 2222.051747423642 494.5379999999471 4028.3447500000098
  endloop
endfacet
facet normal 1.0 0.0 0.0
  outer loop
    vertex 2222.051747423642 494.5379999999478 4714.1447500000095
    vertex 2222.051747423642 519.937999999947 4028.3447500000098
    vertex 2222.051747423642 519.9379999999478 4714.1447500000095
  endloop
endfacet
facet normal -0.0 -3.330669073875468e-16 -1.0
  outer loop
    vertex 3034.851747423642 519.9379999999478 4714.1447500000095
    vertex 2679.251747423642 494.5379999999478 4714.1447500000095
    vertex 2679.251747423642 519.9379999999478 4714.1447500000095
  endloop
endfacet
facet normal -0.0 -3.330669073875468e-16 -1.0
  outer loop
    vertex 2679.251747423642 494.5379999999478 4714.1447500000095
    vertex 3034.851747423642 519.9379999999478 4714.1447500000095
    vertex 3034.851747423642 494.5379999999478 4714.1447500000095
  endloop
endfacet
facet normal -0.0 -3.330669073875468e-16 -1.0
  outer loop
    vertex 2577.651747423642 519.9379999999478 5450.74475000001
    vertex 2222.051747423642 494.5379999999478 5450.74475000001
    vertex 2222.051747423642 519.9379999999478 5450.74475000001
  endloop
endfacet
facet normal -0.0 -3.330669073875468e-16 -1.0
  outer loop
    vertex 2222.051747423642 494.5379999999478 5450.74475000001
    vertex 2577.651747423642 519.9379999999478 5450.74475000001
    vertex 2577.651747423642 494.5379999999478 5450.74475000001
  endloop
endfacet
facet normal -1.0 -0.0 -0.0
  outer loop
    vertex 3034.851747423642 519.9379999999478 4714.1447500000095
    vertex 3034.851747423642 494.5379999999478 4028.3447500000098
    vertex 3034.851747423642 494.5379999999478 4714.1447500000095
  endloop
endfacet
facet normal -1.0 -0.0 -0.0
  outer loop
    vertex 3034.851747423642 494.5379999999478 4028.3447500000098
    vertex 3034.851747423642 519.9379999999478 4714.1447500000095
    vertex 3034.851747423642 519.9379999999478 4028.3447500000098
  endloop
endfacet
facet normal -6.761664901894385e-31 3.330669073875468e-16 1.0
  outer loop
    vertex 2577.651747423642 494.5379999999478 4028.3447500000098
    vertex 2222.051747423642 519.937999999947 4028.3447500000098
    vertex 2222.051747423642 494.5379999999471 4028.3447500000098
  endloop
endfacet
facet normal -6.761664901894385e-31 3.330669073875468e-16 1.0
  outer loop
    vertex 2222.051747423642 519.937999999947 4028.3447500000098
    vertex 2577.651747423642 494.5379999999478 4028.3447500000098
    vertex 2577.651747423642 519.9379999999478 4028.3447500000098
  endloop
endfacet
facet normal 1.0 0.0 0.0
  outer loop
    vertex 2679.251747423642 519.937999999947 4028.3447500000098
    vertex 2679.251747423642 494.5379999999478 4714.1447500000095
    vertex 2679.251747423642 494.5379999999471 4028.3447500000098
  endloop
endfacet
facet normal 1.0 0.0 0.0
  outer loop
    vertex 2679.251747423642 494.5379999999478 4714.1447500000095
    vertex 2679.251747423642 519.937999999947 4028.3447500000098
    vertex 2679.251747423642 519.9379999999478 4714.1447500000095
  endloop
endfacet
facet normal -0.0 -0.0 -1.0
  outer loop
    vertex 3085.651747423642 558.0379999999478 5476.1447500000095
    vertex 2171.251747423642 519.9379999999478 5476.1447500000095
    vertex 2171.251747423642 558.0379999999478 5476.1447500000095
  endloop
endfacet
facet normal -0.0 -0.0 -1.0
  outer loop
    vertex 2171.251747423642 519.9379999999478 5476.1447500000095
    vertex 3085.651747423642 558.0379999999478 5476.1447500000095
    vertex 3085.651747423642 519.9379999999478 5476.1447500000095
  endloop
endfacet
facet normal 0.0 1.0 0.0
  outer loop
    vertex 2171.251747423642 558.0379999999478 5501.54475000001
    vertex 3085.651747423642 558.0379999999478 5476.1447500000095
    vertex 2171.251747423642 558.0379999999478 5476.1447500000095
  endloop
endfacet
facet normal 0.0 1.0 0.0
  outer loop
    vertex 3085.651747423642 558.0379999999478 5476.1447500000095
    vertex 2171.251747423642 558.0379999999478 5501.54475000001
    vertex 3085.651747423642 558.0379999999478 5501.54475000001
  endloop
endfacet
facet normal 0.0 1.0 0.0
  outer loop
    vertex 2679.251747423642 494.5379999999478 5450.74475000001
    vertex 3034.851747423642 494.5379999999478 4764.94475000001
    vertex 2679.251747423642 494.5379999999478 4764.94475000001
  endloop
endfacet
facet normal 0.0 1.0 0.0
  outer loop
    vertex 3034.851747423642 494.5379999999478 4764.94475000001
    vertex 2679.251747423642 494.5379999999478 5450.74475000001
    vertex 3034.851747423642 494.5379999999478 5450.74475000001
  endloop
endfacet
facet normal 0.0 1.0 0.0
  outer loop
    vertex 2222.051747423642 494.5379999999478 5450.74475000001
    vertex 2577.651747423642 494.5379999999478 4764.94475000001
    vertex 2222.051747423642 494.5379999999478 4764.94475000001
  endloop
endfacet
facet normal 0.0 1.0 0.0
  outer loop
    vertex 2577.651747423642 494.5379999999478 4764.94475000001
    vertex 2222.051747423642 494.5379999999478 5450.74475000001
    vertex 2577.651747423642 494.5379999999478 5450.74475000001
  endloop
endfacet
facet normal -1.0150610510858574e-15 1.0 -5.26327952414889e-16
  outer loop
    vertex 2679.251747423642 494.5379999999478 4714.1447500000095
    vertex 3034.851747423642 494.5379999999478 4028.3447500000098
    vertex 2679.251747423642 494.5379999999471 4028.3447500000098
  endloop
endfacet
facet normal -1.0150610510858574e-15 1.0 -5.26327952414889e-16
  outer loop
    vertex 3034.851747423642 494.5379999999478 4028.3447500000098
    vertex 2679.251747423642 494.5379999999478 4714.1447500000095
    vertex 3034.851747423642 494.5379999999478 4714.1447500000095
  endloop
endfacet
facet normal 0.0 -3.3306690738754686e-16 -1.0
  outer loop
    vertex 3085.651747423642 519.937999999947 3977.54475000001
    vertex 2171.251747423642 189.73799999994708 3977.54475000001
    vertex 2171.251747423642 519.937999999947 3977.54475000001
  endloop
endfacet
facet normal 0.0 -3.3306690738754686e-16 -1.0
  outer loop
    vertex 2171.251747423642 189.73799999994708 3977.54475000001
    vertex 3085.651747423642 519.937999999947 3977.54475000001
    vertex 3085.651747423642 189.73799999994708 3977.54475000001
  endloop
endfacet
facet normal 1.0 0.0 0.0
  outer loop
    vertex 3085.651747423642 519.937999999947 3977.54475000001
    vertex 3085.651747423642 189.7379999999478 5501.54475000001
    vertex 3085.651747423642 189.73799999994708 3977.54475000001
  endloop
endfacet
facet normal 1.0 0.0 0.0
  outer loop
    vertex 3085.651747423642 189.7379999999478 5501.54475000001
    vertex 3085.651747423642 519.937999999947 3977.54475000001
    vertex 3085.651747423642 519.9379999999478 5476.1447500000095
  endloop
endfacet
facet normal 1.0 0.0 0.0
  outer loop
    vertex 3085.651747423642 189.7379999999478 5501.54475000001
    vertex 3085.651747423642 519.9379999999478 5476.1447500000095
    vertex 3085.651747423642 558.0379999999478 5501.54475000001
  endloop
endfacet
facet normal 1.0 0.0 0.0
  outer loop
    vertex 3085.651747423642 558.0379999999478 5501.54475000001
    vertex 3085.651747423642 519.9379999999478 5476.1447500000095
    vertex 3085.651747423642 558.0379999999478 5476.1447500000095
  endloop
endfacet
facet normal 0.0 3.3306690738754686e-16 1.0
  outer loop
    vertex 3085.651747423642 189.7379999999478 5501.54475000001
    vertex 2171.251747423642 558.0379999999478 5501.54475000001
    vertex 2171.251747423642 189.7379999999478 5501.54475000001
  endloop
endfacet
facet normal 0.0 3.3306690738754686e-16 1.0
  outer loop
    vertex 2171.251747423642 558.0379999999478 5501.54475000001
    vertex 3085.651747423642 189.7379999999478 5501.54475000001
    vertex 3085.651747423642 558.0379999999478 5501.54475000001
  endloop
endfacet
facet normal -1.0150610510858574e-15 1.0 -5.26327952414889e-16
  outer loop
    vertex 2222.051747423642 494.5379999999478 4714.1447500000095
    vertex 2577.651747423642 494.5379999999478 4028.3447500000098
    vertex 2222.051747423642 494.5379999999471 4028.3447500000098
  endloop
endfacet
facet normal -1.0150610510858574e-15 1.0 -5.26327952414889e-16
  outer loop
    vertex 2577.651747423642 494.5379999999478 4028.3447500000098
    vertex 2222.051747423642 494.5379999999478 4714.1447500000095
    vertex 2577.651747423642 494.5379999999478 4714.1447500000095
  endloop
endfacet
facet normal -1.0 0.0 0.0
  outer loop
    vertex 2171.251747423642 189.7379999999478 5501.54475000001
    vertex 2171.251747423642 519.937999999947 3977.54475000001
    vertex 2171.251747423642 189.73799999994708 3977.54475000001
  endloop
endfacet
facet normal -1.0 0.0 0.0
  outer loop
    vertex 2171.251747423642 519.937999999947 3977.54475000001
    vertex 2171.251747423642 189.7379999999478 5501.54475000001
    vertex 2171.251747423642 519.9379999999478 5476.1447500000095
  endloop
endfacet
facet normal -1.0 0.0 0.0
  outer loop
    vertex 2171.251747423642 519.9379999999478 5476.1447500000095
    vertex 2171.251747423642 189.7379999999478 5501.54475000001
    vertex 2171.251747423642 558.0379999999478 5501.54475000001
  endloop
endfacet
facet normal -1.0 0.0 0.0
  outer loop
    vertex 2171.251747423642 519.9379999999478 5476.1447500000095
    vertex 2171.251747423642 558.0379999999478 5501.54475000001
    vertex 2171.251747423642 558.0379999999478 5476.1447500000095
  endloop
endfacet
facet normal 0.0 -1.0 3.3306690738754686e-16
  outer loop
    vertex 3085.651747423642 189.7379999999478 5501.54475000001
    vertex 2171.251747423642 189.73799999994708 3977.54475000001
    vertex 3085.651747423642 189.73799999994708 3977.54475000001
  endloop
endfacet
facet normal 0.0 -1.0 3.3306690738754686e-16
  outer loop
    vertex 2171.251747423642 189.73799999994708 3977.54475000001
    vertex 3085.651747423642 189.7379999999478 5501.54475000001
    vertex 2171.251747423642 189.7379999999478 5501.54475000001
  endloop
endfacet
endsolid worthington-tower
