solid worthington-tower
facet normal -1.0 0.0 4.512084609965286e-14
  outer loop
    vertex 3154.537125 189.73800000066962 3920.331249998594
    vertex 3154.537124999996 265.9380000006696 3844.1312499985943
    vertex 3154.537124999981 189.73800000066964 3512.3437499988036
  endloop
endfacet
facet normal -1.0 0.0 4.512084609965286e-14
  outer loop
    vertex 3154.537124999996 265.9380000006696 3844.1312499985943
    vertex 3154.537125 189.73800000066962 3920.331249998594
    vertex 3154.537125 951.7380000006694 3920.331249998594
  endloop
endfacet
facet normal -1.0 0.0 4.512084609965286e-14
  outer loop
    vertex 3154.537124999996 265.9380000006696 3844.1312499985943
    vertex 3154.537125 951.7380000006694 3920.331249998594
    vertex 3154.537124999996 647.9842517388249 3844.1312499985943
  endloop
endfacet
facet normal -1.0 0.0 4.512084609965286e-14
  outer loop
    vertex 3154.537124999981 189.73800000066964 3512.3437499988036
    vertex 3154.537124999987 265.9380000006696 3639.577319380561
    vertex 3154.537125 951.7380000006694 3920.331249998594
  endloop
endfacet
facet normal -1.0 0.0 4.512084609965286e-14
  outer loop
    vertex 3154.537124999987 265.9380000006696 3639.577319380561
    vertex 3154.537124999981 189.73800000066964 3512.3437499988036
    vertex 3154.537124999996 265.9380000006696 3844.1312499985943
  endloop
endfacet
facet normal -1.0 0.0 4.512084609965286e-14
  outer loop
    vertex 3154.537125 951.7380000006694 3920.331249998594
    vertex 3154.537124999987 265.9380000006696 3639.577319380561
    vertex 3154.537124999996 647.9842517388249 3844.1312499985943
  endloop
endfacet
facet normal 1.0 0.0 -4.512084609965286e-14
  outer loop
    vertex 3230.7371249999997 951.7380000006694 3920.3312499985905
    vertex 3230.737124999987 265.9380000006696 3639.5773193805576
    vertex 3230.7371249999815 189.73800000066964 3512.3437499988
  endloop
endfacet
facet normal 1.0 0.0 -4.512084609965286e-14
  outer loop
    vertex 3230.737124999987 265.9380000006696 3639.5773193805576
    vertex 3230.7371249999997 951.7380000006694 3920.3312499985905
    vertex 3230.737124999996 647.9842517388249 3844.1312499985906
  endloop
endfacet
facet normal 1.0 0.0 -4.512084609965286e-14
  outer loop
    vertex 3230.7371249999997 189.73800000066962 3920.3312499985905
    vertex 3230.737124999996 265.9380000006696 3844.1312499985906
    vertex 3230.7371249999997 951.7380000006694 3920.3312499985905
  endloop
endfacet
facet normal 1.0 0.0 -4.512084609965286e-14
  outer loop
    vertex 3230.737124999996 265.9380000006696 3844.1312499985906
    vertex 3230.7371249999997 189.73800000066962 3920.3312499985905
    vertex 3230.7371249999815 189.73800000066964 3512.3437499988
  endloop
endfacet
facet normal 1.0 0.0 -4.512084609965286e-14
  outer loop
    vertex 3230.737124999996 265.9380000006696 3844.1312499985906
    vertex 3230.7371249999815 189.73800000066964 3512.3437499988
    vertex 3230.737124999987 265.9380000006696 3639.5773193805576
  endloop
endfacet
facet normal 1.0 0.0 -4.512084609965286e-14
  outer loop
    vertex 3230.7371249999997 951.7380000006694 3920.3312499985905
    vertex 3230.737124999996 265.9380000006696 3844.1312499985906
    vertex 3230.737124999996 647.9842517388249 3844.1312499985906
  endloop
endfacet
facet normal -4.5120846099652854e-14 0.0 -1.0
  outer loop
    vertex 3230.737124999996 647.9842517388249 3844.1312499985906
    vertex 3154.537124999996 265.9380000006696 3844.1312499985943
    vertex 3154.537124999996 647.9842517388249 3844.1312499985943
  endloop
endfacet
facet normal -4.5120846099652854e-14 0.0 -1.0
  outer loop
    vertex 3154.537124999996 265.9380000006696 3844.1312499985943
    vertex 3230.737124999996 647.9842517388249 3844.1312499985906
    vertex 3230.737124999996 265.9380000006696 3844.1312499985906
  endloop
endfacet
facet normal -3.9778048908821304e-14 0.4720175305714773 -0.881589162157297
  outer loop
    vertex 3154.537125 951.7380000006694 3920.331249998594
    vertex 3230.7371249999815 189.73800000066964 3512.3437499988
    vertex 3154.537124999981 189.73800000066964 3512.3437499988036
  endloop
endfacet
facet normal -3.9778048908821304e-14 0.4720175305714773 -0.881589162157297
  outer loop
    vertex 3230.7371249999815 189.73800000066964 3512.3437499988
    vertex 3154.537125 951.7380000006694 3920.331249998594
    vertex 3230.7371249999997 951.7380000006694 3920.3312499985905
  endloop
endfacet
facet normal 0.0 1.0 0.0
  outer loop
    vertex 3154.537124999987 265.9380000006696 3639.577319380561
    vertex 3230.737124999996 265.9380000006696 3844.1312499985906
    vertex 3230.737124999987 265.9380000006696 3639.5773193805576
  endloop
endfacet
facet normal 0.0 1.0 0.0
  outer loop
    vertex 3230.737124999996 265.9380000006696 3844.1312499985906
    vertex 3154.537124999987 265.9380000006696 3639.577319380561
    vertex 3154.537124999996 265.9380000006696 3844.1312499985943
  endloop
endfacet
facet normal 3.977804890882128e-14 -0.47201753057147816 0.8815891621572964
  outer loop
    vertex 3230.737124999987 265.9380000006696 3639.5773193805576
    vertex 3154.537124999996 647.9842517388249 3844.1312499985943
    vertex 3154.537124999987 265.9380000006696 3639.577319380561
  endloop
endfacet
facet normal 3.977804890882128e-14 -0.47201753057147816 0.8815891621572964
  outer loop
    vertex 3154.537124999996 647.9842517388249 3844.1312499985943
    vertex 3230.737124999987 265.9380000006696 3639.5773193805576
    vertex 3230.737124999996 647.9842517388249 3844.1312499985906
  endloop
endfacet
facet normal -2.4949641577800967e-30 -1.0 -5.529515453388831e-17
  outer loop
    vertex 3230.7371249999997 189.73800000066962 3920.3312499985905
    vertex 3154.537124999981 189.73800000066964 3512.3437499988036
    vertex 3230.7371249999815 189.73800000066964 3512.3437499988
  endloop
endfacet
facet normal -2.4949641577800967e-30 -1.0 -5.529515453388831e-17
  outer loop
    vertex 3154.537124999981 189.73800000066964 3512.3437499988036
    vertex 3230.7371249999997 189.73800000066962 3920.3312499985905
    vertex 3154.537125 189.73800000066962 3920.331249998594
  endloop
endfacet
facet normal 4.512084609965286e-14 0.0 1.0
  outer loop
    vertex 3230.7371249999997 189.73800000066962 3920.3312499985905
    vertex 3154.537125 951.7380000006694 3920.331249998594
    vertex 3154.537125 189.73800000066962 3920.331249998594
  endloop
endfacet
facet normal 4.512084609965286e-14 0.0 1.0
  outer loop
    vertex 3154.537125 951.7380000006694 3920.331249998594
    vertex 3230.7371249999997 189.73800000066962 3920.3312499985905
    vertex 3230.7371249999997 951.7380000006694 3920.3312499985905
  endloop
endfacet
facet normal 0.0 0.0 -1.0
  outer loop
    vertex 7771.352249999963 951.7380000006694 3920.331249998594
    vertex 3154.537125 189.73800000066962 3920.331249998594
    vertex 3154.537125 951.7380000006694 3920.331249998594
  endloop
endfacet
facet normal 0.0 0.0 -1.0
  outer loop
    vertex 3154.537125 189.73800000066962 3920.331249998594
    vertex 7771.352249999963 951.7380000006694 3920.331249998594
    vertex 7771.352249999963 189.73800000066962 3920.331249998594
  endloop
endfacet
facet normal -0.0 -1.0 -0.0
  outer loop
    vertex 7771.352249999963 189.73800000066962 4020.3437499985944
    vertex 3154.537125 189.73800000066962 3920.331249998594
    vertex 7771.352249999963 189.73800000066962 3920.331249998594
  endloop
endfacet
facet normal -0.0 -1.0 -0.0
  outer loop
    vertex 3154.537125 189.73800000066962 3920.331249998594
    vertex 7771.352249999963 189.73800000066962 4020.3437499985944
    vertex 3154.537125 189.73800000066962 4020.3437499985944
  endloop
endfacet
facet normal 1.0 0.0 0.0
  outer loop
    vertex 7771.352249999963 951.7380000006694 3920.331249998594
    vertex 7771.352249999963 189.73800000066962 4020.3437499985944
    vertex 7771.352249999963 189.73800000066962 3920.331249998594
  endloop
endfacet
facet normal 1.0 0.0 0.0
  outer loop
    vertex 7771.352249999963 189.73800000066962 4020.3437499985944
    vertex 7771.352249999963 951.7380000006694 3920.331249998594
    vertex 7771.352249999963 951.7380000006694 4020.3437499985944
  endloop
endfacet
facet normal -1.0 0.0 0.0
  outer loop
    vertex 3154.537125 951.7380000006694 4020.3437499985944
    vertex 3154.537125 189.73800000066962 3920.331249998594
    vertex 3154.537125 189.73800000066962 4020.3437499985944
  endloop
endfacet
facet normal -1.0 0.0 0.0
  outer loop
    vertex 3154.537125 189.73800000066962 3920.331249998594
    vertex 3154.537125 951.7380000006694 4020.3437499985944
    vertex 3154.537125 951.7380000006694 3920.331249998594
  endloop
endfacet
facet normal 0.0 1.0 0.0
  outer loop
    vertex 3154.537125 951.7380000006694 4020.3437499985944
    vertex 7771.352249999963 951.7380000006694 3920.331249998594
    vertex 3154.537125 951.7380000006694 3920.331249998594
  endloop
endfacet
facet normal 0.0 1.0 0.0
  outer loop
    vertex 7771.352249999963 951.7380000006694 3920.331249998594
    vertex 3154.537125 951.7380000006694 4020.3437499985944
    vertex 7771.352249999963 951.7380000006694 4020.3437499985944
  endloop
endfacet
facet normal 0.0 0.0 1.0
  outer loop
    vertex 7771.352249999963 189.73800000066962 4020.3437499985944
    vertex 3154.537125 951.7380000006694 4020.3437499985944
    vertex 3154.537125 189.73800000066962 4020.3437499985944
  endloop
endfacet
facet normal 0.0 0.0 1.0
  outer loop
    vertex 3154.537125 951.7380000006694 4020.3437499985944
    vertex 7771.352249999963 189.73800000066962 4020.3437499985944
    vertex 7771.352249999963 951.7380000006694 4020.3437499985944
  endloop
endfacet
facet normal -1.0 0.0 4.512084609965286e-14
  outer loop
    vertex 7695.152249999962 189.73800000066962 3920.3312499985977
    vertex 7695.152249999958 265.9380000006696 3844.131249998598
    vertex 7695.152249999944 189.73800000066964 3512.343749998807
  endloop
endfacet
facet normal -1.0 0.0 4.512084609965286e-14
  outer loop
    vertex 7695.152249999958 265.9380000006696 3844.131249998598
    vertex 7695.152249999962 189.73800000066962 3920.3312499985977
    vertex 7695.152249999962 951.7380000006694 3920.3312499985977
  endloop
endfacet
facet normal -1.0 0.0 4.512084609965286e-14
  outer loop
    vertex 7695.152249999958 265.9380000006696 3844.131249998598
    vertex 7695.152249999962 951.7380000006694 3920.3312499985977
    vertex 7695.152249999958 647.9842517388249 3844.131249998598
  endloop
endfacet
facet normal -1.0 0.0 4.512084609965286e-14
  outer loop
    vertex 7695.152249999944 189.73800000066964 3512.343749998807
    vertex 7695.152249999949 265.9380000006696 3639.577319380565
    vertex 7695.152249999962 951.7380000006694 3920.3312499985977
  endloop
endfacet
facet normal -1.0 0.0 4.512084609965286e-14
  outer loop
    vertex 7695.152249999949 265.9380000006696 3639.577319380565
    vertex 7695.152249999944 189.73800000066964 3512.343749998807
    vertex 7695.152249999958 265.9380000006696 3844.131249998598
  endloop
endfacet
facet normal -1.0 0.0 4.512084609965286e-14
  outer loop
    vertex 7695.152249999962 951.7380000006694 3920.3312499985977
    vertex 7695.152249999949 265.9380000006696 3639.577319380565
    vertex 7695.152249999958 647.9842517388249 3844.131249998598
  endloop
endfacet
facet normal 1.0 0.0 -4.512084609965286e-14
  outer loop
    vertex 7771.352249999963 951.7380000006694 3920.331249998594
    vertex 7771.352249999949 265.9380000006696 3639.577319380561
    vertex 7771.3522499999435 189.73800000066964 3512.3437499988036
  endloop
endfacet
facet normal 1.0 0.0 -4.512084609965286e-14
  outer loop
    vertex 7771.352249999949 265.9380000006696 3639.577319380561
    vertex 7771.352249999963 951.7380000006694 3920.331249998594
    vertex 7771.352249999958 647.9842517388249 3844.1312499985943
  endloop
endfacet
facet normal 1.0 0.0 -4.512084609965286e-14
  outer loop
    vertex 7771.352249999963 189.73800000066962 3920.331249998594
    vertex 7771.352249999958 265.9380000006696 3844.1312499985943
    vertex 7771.352249999963 951.7380000006694 3920.331249998594
  endloop
endfacet
facet normal 1.0 0.0 -4.512084609965286e-14
  outer loop
    vertex 7771.352249999958 265.9380000006696 3844.1312499985943
    vertex 7771.352249999963 189.73800000066962 3920.331249998594
    vertex 7771.3522499999435 189.73800000066964 3512.3437499988036
  endloop
endfacet
facet normal 1.0 0.0 -4.512084609965286e-14
  outer loop
    vertex 7771.352249999958 265.9380000006696 3844.1312499985943
    vertex 7771.3522499999435 189.73800000066964 3512.3437499988036
    vertex 7771.352249999949 265.9380000006696 3639.577319380561
  endloop
endfacet
facet normal 1.0 0.0 -4.512084609965286e-14
  outer loop
    vertex 7771.352249999963 951.7380000006694 3920.331249998594
    vertex 7771.352249999958 265.9380000006696 3844.1312499985943
    vertex 7771.352249999958 647.9842517388249 3844.1312499985943
  endloop
endfacet
facet normal -4.5120846099652854e-14 0.0 -1.0
  outer loop
    vertex 7771.352249999958 647.9842517388249 3844.1312499985943
    vertex 7695.152249999958 265.9380000006696 3844.131249998598
    vertex 7695.152249999958 647.9842517388249 3844.131249998598
  endloop
endfacet
facet normal -4.5120846099652854e-14 0.0 -1.0
  outer loop
    vertex 7695.152249999958 265.9380000006696 3844.131249998598
    vertex 7771.352249999958 647.9842517388249 3844.1312499985943
    vertex 7771.352249999958 265.9380000006696 3844.1312499985943
  endloop
endfacet
facet normal -3.9778048908821304e-14 0.4720175305714773 -0.881589162157297
  outer loop
    vertex 7695.152249999962 951.7380000006694 3920.3312499985977
    vertex 7771.3522499999435 189.73800000066964 3512.3437499988036
    vertex 7695.152249999944 189.73800000066964 3512.343749998807
  endloop
endfacet
facet normal -3.9778048908821304e-14 0.4720175305714773 -0.881589162157297
  outer loop
    vertex 7771.3522499999435 189.73800000066964 3512.3437499988036
    vertex 7695.152249999962 951.7380000006694 3920.3312499985977
    vertex 7771.352249999963 951.7380000006694 3920.331249998594
  endloop
endfacet
facet normal 0.0 1.0 0.0
  outer loop
    vertex 7695.152249999949 265.9380000006696 3639.577319380565
    vertex 7771.352249999958 265.9380000006696 3844.1312499985943
    vertex 7771.352249999949 265.9380000006696 3639.577319380561
  endloop
endfacet
facet normal 0.0 1.0 0.0
  outer loop
    vertex 7771.352249999958 265.9380000006696 3844.1312499985943
    vertex 7695.152249999949 265.9380000006696 3639.577319380565
    vertex 7695.152249999958 265.9380000006696 3844.131249998598
  endloop
endfacet
facet normal 3.977804890882128e-14 -0.47201753057147816 0.8815891621572964
  outer loop
    vertex 7771.352249999949 265.9380000006696 3639.577319380561
    vertex 7695.152249999958 647.9842517388249 3844.131249998598
    vertex 7695.152249999949 265.9380000006696 3639.577319380565
  endloop
endfacet
facet normal 3.977804890882128e-14 -0.47201753057147816 0.8815891621572964
  outer loop
    vertex 7695.152249999958 647.9842517388249 3844.131249998598
    vertex 7771.352249999949 265.9380000006696 3639.577319380561
    vertex 7771.352249999958 647.9842517388249 3844.1312499985943
  endloop
endfacet
facet normal -2.4949641577800967e-30 -1.0 -5.529515453388831e-17
  outer loop
    vertex 7771.352249999963 189.73800000066962 3920.331249998594
    vertex 7695.152249999944 189.73800000066964 3512.343749998807
    vertex 7771.3522499999435 189.73800000066964 3512.3437499988036
  endloop
endfacet
facet normal -2.4949641577800967e-30 -1.0 -5.529515453388831e-17
  outer loop
    vertex 7695.152249999944 189.73800000066964 3512.343749998807
    vertex 7771.352249999963 189.73800000066962 3920.331249998594
    vertex 7695.152249999962 189.73800000066962 3920.3312499985977
  endloop
endfacet
facet normal 4.512084609965286e-14 0.0 1.0
  outer loop
    vertex 7771.352249999963 189.73800000066962 3920.331249998594
    vertex 7695.152249999962 951.7380000006694 3920.3312499985977
    vertex 7695.152249999962 189.73800000066962 3920.3312499985977
  endloop
endfacet
facet normal 4.512084609965286e-14 0.0 1.0
  outer loop
    vertex 7695.152249999962 951.7380000006694 3920.3312499985977
    vertex 7771.352249999963 189.73800000066962 3920.331249998594
    vertex 7771.352249999963 951.7380000006694 3920.331249998594
  endloop
endfacet
facet normal -1.0 0.0 4.512084609965286e-14
  outer loop
    vertex 5424.844687499982 189.73800000066962 3920.3312499985977
    vertex 5424.844687499977 265.9380000006696 3844.131249998598
    vertex 5424.844687499963 189.73800000066964 3512.343749998807
  endloop
endfacet
facet normal -1.0 0.0 4.512084609965286e-14
  outer loop
    vertex 5424.844687499977 265.9380000006696 3844.131249998598
    vertex 5424.844687499982 189.73800000066962 3920.3312499985977
    vertex 5424.844687499982 951.7380000006694 3920.3312499985977
  endloop
endfacet
facet normal -1.0 0.0 4.512084609965286e-14
  outer loop
    vertex 5424.844687499977 265.9380000006696 3844.131249998598
    vertex 5424.844687499982 951.7380000006694 3920.3312499985977
    vertex 5424.844687499977 647.9842517388249 3844.131249998598
  endloop
endfacet
facet normal -1.0 0.0 4.512084609965286e-14
  outer loop
    vertex 5424.844687499963 189.73800000066964 3512.343749998807
    vertex 5424.844687499968 265.9380000006696 3639.577319380565
    vertex 5424.844687499982 951.7380000006694 3920.3312499985977
  endloop
endfacet
facet normal -1.0 0.0 4.512084609965286e-14
  outer loop
    vertex 5424.844687499968 265.9380000006696 3639.577319380565
    vertex 5424.844687499963 189.73800000066964 3512.343749998807
    vertex 5424.844687499977 265.9380000006696 3844.131249998598
  endloop
endfacet
facet normal -1.0 0.0 4.512084609965286e-14
  outer loop
    vertex 5424.844687499982 951.7380000006694 3920.3312499985977
    vertex 5424.844687499968 265.9380000006696 3639.577319380565
    vertex 5424.844687499977 647.9842517388249 3844.131249998598
  endloop
endfacet
facet normal 1.0 0.0 -4.512084609965286e-14
  outer loop
    vertex 5501.044687499982 951.7380000006694 3920.331249998594
    vertex 5501.044687499969 265.9380000006696 3639.577319380561
    vertex 5501.0446874999625 189.73800000066964 3512.3437499988036
  endloop
endfacet
facet normal 1.0 0.0 -4.512084609965286e-14
  outer loop
    vertex 5501.044687499969 265.9380000006696 3639.577319380561
    vertex 5501.044687499982 951.7380000006694 3920.331249998594
    vertex 5501.044687499977 647.9842517388249 3844.1312499985943
  endloop
endfacet
facet normal 1.0 0.0 -4.512084609965286e-14
  outer loop
    vertex 5501.044687499982 189.73800000066962 3920.331249998594
    vertex 5501.044687499977 265.9380000006696 3844.1312499985943
    vertex 5501.044687499982 951.7380000006694 3920.331249998594
  endloop
endfacet
facet normal 1.0 0.0 -4.512084609965286e-14
  outer loop
    vertex 5501.044687499977 265.9380000006696 3844.1312499985943
    vertex 5501.044687499982 189.73800000066962 3920.331249998594
    vertex 5501.0446874999625 189.73800000066964 3512.3437499988036
  endloop
endfacet
facet normal 1.0 0.0 -4.512084609965286e-14
  outer loop
    vertex 5501.044687499977 265.9380000006696 3844.1312499985943
    vertex 5501.0446874999625 189.73800000066964 3512.3437499988036
    vertex 5501.044687499969 265.9380000006696 3639.577319380561
  endloop
endfacet
facet normal 1.0 0.0 -4.512084609965286e-14
  outer loop
    vertex 5501.044687499982 951.7380000006694 3920.331249998594
    vertex 5501.044687499977 265.9380000006696 3844.1312499985943
    vertex 5501.044687499977 647.9842517388249 3844.1312499985943
  endloop
endfacet
facet normal -4.5120846099652854e-14 0.0 -1.0
  outer loop
    vertex 5501.044687499977 647.9842517388249 3844.1312499985943
    vertex 5424.844687499977 265.9380000006696 3844.131249998598
    vertex 5424.844687499977 647.9842517388249 3844.131249998598
  endloop
endfacet
facet normal -4.5120846099652854e-14 0.0 -1.0
  outer loop
    vertex 5424.844687499977 265.9380000006696 3844.131249998598
    vertex 5501.044687499977 647.9842517388249 3844.1312499985943
    vertex 5501.044687499977 265.9380000006696 3844.1312499985943
  endloop
endfacet
facet normal -3.9778048908821304e-14 0.4720175305714773 -0.881589162157297
  outer loop
    vertex 5424.844687499982 951.7380000006694 3920.3312499985977
    vertex 5501.0446874999625 189.73800000066964 3512.3437499988036
    vertex 5424.844687499963 189.73800000066964 3512.343749998807
  endloop
endfacet
facet normal -3.9778048908821304e-14 0.4720175305714773 -0.881589162157297
  outer loop
    vertex 5501.0446874999625 189.73800000066964 3512.3437499988036
    vertex 5424.844687499982 951.7380000006694 3920.3312499985977
    vertex 5501.044687499982 951.7380000006694 3920.331249998594
  endloop
endfacet
facet normal 0.0 1.0 0.0
  outer loop
    vertex 5424.844687499968 265.9380000006696 3639.577319380565
    vertex 5501.044687499977 265.9380000006696 3844.1312499985943
    vertex 5501.044687499969 265.9380000006696 3639.577319380561
  endloop
endfacet
facet normal 0.0 1.0 0.0
  outer loop
    vertex 5501.044687499977 265.9380000006696 3844.1312499985943
    vertex 5424.844687499968 265.9380000006696 3639.577319380565
    vertex 5424.844687499977 265.9380000006696 3844.131249998598
  endloop
endfacet
facet normal 3.977804890882128e-14 -0.47201753057147816 0.8815891621572964
  outer loop
    vertex 5501.044687499969 265.9380000006696 3639.577319380561
    vertex 5424.844687499977 647.9842517388249 3844.131249998598
    vertex 5424.844687499968 265.9380000006696 3639.577319380565
  endloop
endfacet
facet normal 3.977804890882128e-14 -0.47201753057147816 0.8815891621572964
  outer loop
    vertex 5424.844687499977 647.9842517388249 3844.131249998598
    vertex 5501.044687499969 265.9380000006696 3639.577319380561
    vertex 5501.044687499977 647.9842517388249 3844.1312499985943
  endloop
endfacet
facet normal -2.4949641577800967e-30 -1.0 -5.529515453388831e-17
  outer loop
    vertex 5501.044687499982 189.73800000066962 3920.331249998594
    vertex 5424.844687499963 189.73800000066964 3512.343749998807
    vertex 5501.0446874999625 189.73800000066964 3512.3437499988036
  endloop
endfacet
facet normal -2.4949641577800967e-30 -1.0 -5.529515453388831e-17
  outer loop
    vertex 5424.844687499963 189.73800000066964 3512.343749998807
    vertex 5501.044687499982 189.73800000066962 3920.331249998594
    vertex 5424.844687499982 189.73800000066962 3920.3312499985977
  endloop
endfacet
facet normal 4.512084609965286e-14 0.0 1.0
  outer loop
    vertex 5501.044687499982 189.73800000066962 3920.331249998594
    vertex 5424.844687499982 951.7380000006694 3920.3312499985977
    vertex 5424.844687499982 189.73800000066962 3920.3312499985977
  endloop
endfacet
facet normal 4.512084609965286e-14 0.0 1.0
  outer loop
    vertex 5424.844687499982 951.7380000006694 3920.3312499985977
    vertex 5501.044687499982 189.73800000066962 3920.331249998594
    vertex 5501.044687499982 951.7380000006694 3920.331249998594
  endloop
endfacet
endsolid worthington-tower
