solid worthington-tower
facet normal 2.690070388666715e-13 -1.0 -2.668084404699364e-13
  outer loop
    vertex 2042.1129233892761 189.7379999999478 5145.94475000001
    vertex 1127.7129233892763 189.7380000000272 3926.74475000001
    vertex 2042.1129233892761 189.7380000002734 3926.74475000001
  endloop
endfacet
facet normal 2.690070388666715e-13 -1.0 -2.668084404699364e-13
  outer loop
    vertex 1127.7129233892763 189.7380000000272 3926.74475000001
    vertex 2042.1129233892761 189.7379999999478 5145.94475000001
    vertex 1127.7129233892763 189.73799999970163 5145.94475000001
  endloop
endfacet
facet normal 1.0 2.6900703886667154e-13 -1.6653345369363186e-16
  outer loop
    vertex 2042.1129233892761 189.7380000002734 3926.74475000001
    vertex 2042.1129233892214 392.9379999999478 5145.944750000064
    vertex 2042.1129233892761 189.7379999999478 5145.94475000001
  endloop
endfacet
facet normal 1.0 2.6900703886667154e-13 -1.6653345369363186e-16
  outer loop
    vertex 2042.1129233892214 392.9379999999478 5145.944750000064
    vertex 2042.1129233892761 189.7380000002734 3926.74475000001
    vertex 2042.1129233892214 392.93800000027335 3926.744750000064
  endloop
endfacet
facet normal -2.690070388666715e-13 1.0 2.668084404699364e-13
  outer loop
    vertex 1127.7129233892213 392.9380000000272 3926.744750000064
    vertex 1178.5129233892214 392.9380000000272 3977.544750000064
    vertex 2042.1129233892214 392.93800000027335 3926.744750000064
  endloop
endfacet
facet normal -2.690070388666715e-13 1.0 2.668084404699364e-13
  outer loop
    vertex 1178.5129233892214 392.9380000000272 3977.544750000064
    vertex 1127.7129233892213 392.9380000000272 3926.744750000064
    vertex 1127.7129233892213 392.9379999997016 5145.944750000064
  endloop
endfacet
facet normal -2.690070388666715e-13 1.0 2.668084404699364e-13
  outer loop
    vertex 1178.5129233892214 392.9380000000272 3977.544750000064
    vertex 1127.7129233892213 392.9379999997016 5145.944750000064
    vertex 1178.5129233892214 392.9379999997291 5095.144750000064
  endloop
endfacet
facet normal -2.690070388666715e-13 1.0 2.668084404699364e-13
  outer loop
    vertex 1178.5129233892214 392.9379999997291 5095.144750000064
    vertex 1127.7129233892213 392.9379999997016 5145.944750000064
    vertex 1991.3129233892214 392.9379999999478 5095.144750000064
  endloop
endfacet
facet normal -2.690070388666715e-13 1.0 2.668084404699364e-13
  outer loop
    vertex 2042.1129233892214 392.93800000027335 3926.744750000064
    vertex 1991.3129233892214 392.93800000024595 3977.544750000064
    vertex 2042.1129233892214 392.9379999999478 5145.944750000064
  endloop
endfacet
facet normal -2.690070388666715e-13 1.0 2.668084404699364e-13
  outer loop
    vertex 1991.3129233892214 392.93800000024595 3977.544750000064
    vertex 2042.1129233892214 392.93800000027335 3926.744750000064
    vertex 1178.5129233892214 392.9380000000272 3977.544750000064
  endloop
endfacet
facet normal -2.690070388666715e-13 1.0 2.668084404699364e-13
  outer loop
    vertex 2042.1129233892214 392.9379999999478 5145.944750000064
    vertex 1991.3129233892214 392.93800000024595 3977.544750000064
    vertex 1991.3129233892214 392.9379999999478 5095.144750000064
  endloop
endfacet
facet normal -2.690070388666715e-13 1.0 2.668084404699364e-13
  outer loop
    vertex 2042.1129233892214 392.9379999999478 5145.944750000064
    vertex 1991.3129233892214 392.9379999999478 5095.144750000064
    vertex 1127.7129233892213 392.9379999997016 5145.944750000064
  endloop
endfacet
facet normal -1.0 -2.6900703886667154e-13 1.6653345369363186e-16
  outer loop
    vertex 1127.7129233892213 392.9379999997016 5145.944750000064
    vertex 1127.7129233892763 189.7380000000272 3926.74475000001
    vertex 1127.7129233892763 189.73799999970163 5145.94475000001
  endloop
endfacet
facet normal -1.0 -2.6900703886667154e-13 1.6653345369363186e-16
  outer loop
    vertex 1127.7129233892763 189.7380000000272 3926.74475000001
    vertex 1127.7129233892213 392.9379999997016 5145.944750000064
    vertex 1127.7129233892213 392.9380000000272 3926.744750000064
  endloop
endfacet
facet normal 1.665334537654052e-16 -2.6680844046993636e-13 1.0
  outer loop
    vertex 1127.7129233892763 189.73799999970163 5145.94475000001
    vertex 2042.1129233892214 392.9379999999478 5145.944750000064
    vertex 1127.7129233892213 392.9379999997016 5145.944750000064
  endloop
endfacet
facet normal 1.665334537654052e-16 -2.6680844046993636e-13 1.0
  outer loop
    vertex 2042.1129233892214 392.9379999999478 5145.944750000064
    vertex 1127.7129233892763 189.73799999970163 5145.94475000001
    vertex 2042.1129233892761 189.7379999999478 5145.94475000001
  endloop
endfacet
facet normal -1.665334537654052e-16 2.6680844046993636e-13 -1.0
  outer loop
    vertex 2042.1129233892214 392.93800000027335 3926.744750000064
    vertex 1127.7129233892763 189.7380000000272 3926.74475000001
    vertex 1127.7129233892213 392.9380000000272 3926.744750000064
  endloop
endfacet
facet normal -1.665334537654052e-16 2.6680844046993636e-13 -1.0
  outer loop
    vertex 1127.7129233892763 189.7380000000272 3926.74475000001
    vertex 2042.1129233892214 392.93800000027335 3926.744750000064
    vertex 2042.1129233892761 189.7380000002734 3926.74475000001
  endloop
endfacet
facet normal -1.0 -2.6911806116913795e-13 -7.179437441341978e-26
  outer loop
    vertex 1178.5129233892148 418.33799999972905 5095.14475000007
    vertex 1178.5129233892214 392.9380000000272 3977.544750000064
    vertex 1178.5129233892214 392.9379999997291 5095.144750000064
  endloop
endfacet
facet normal -1.0 -2.6911806116913795e-13 -7.179437441341978e-26
  outer loop
    vertex 1178.5129233892214 392.9380000000272 3977.544750000064
    vertex 1178.5129233892148 418.33799999972905 5095.14475000007
    vertex 1178.5129233892148 418.3380000000272 3977.5447500000705
  endloop
endfacet
facet normal -2.6911806116913795e-13 1.0 2.667764998808376e-13
  outer loop
    vertex 1178.5129233892148 418.33799999972905 5095.14475000007
    vertex 1991.3129233892148 418.3380000002459 3977.5447500000705
    vertex 1178.5129233892148 418.3380000000272 3977.5447500000705
  endloop
endfacet
facet normal -2.6911806116913795e-13 1.0 2.667764998808376e-13
  outer loop
    vertex 1991.3129233892148 418.3380000002459 3977.5447500000705
    vertex 1178.5129233892148 418.33799999972905 5095.14475000007
    vertex 1991.3129233892148 418.3379999999478 5095.14475000007
  endloop
endfacet
facet normal 1.0 2.6911806116913795e-13 7.179437441341978e-26
  outer loop
    vertex 1991.3129233892214 392.93800000024595 3977.544750000064
    vertex 1991.3129233892148 418.3379999999478 5095.14475000007
    vertex 1991.3129233892214 392.9379999999478 5095.144750000064
  endloop
endfacet
facet normal 1.0 2.6911806116913795e-13 7.179437441341978e-26
  outer loop
    vertex 1991.3129233892148 418.3379999999478 5095.14475000007
    vertex 1991.3129233892214 392.93800000024595 3977.544750000064
    vertex 1991.3129233892148 418.3380000002459 3977.5447500000705
  endloop
endfacet
facet normal 7.179437441341978e-26 -2.667764998808376e-13 1.0
  outer loop
    vertex 1178.5129233892214 392.9379999997291 5095.144750000064
    vertex 1991.3129233892148 418.3379999999478 5095.14475000007
    vertex 1178.5129233892148 418.33799999972905 5095.14475000007
  endloop
endfacet
facet normal 7.179437441341978e-26 -2.667764998808376e-13 1.0
  outer loop
    vertex 1991.3129233892148 418.3379999999478 5095.14475000007
    vertex 1178.5129233892214 392.9379999997291 5095.144750000064
    vertex 1991.3129233892214 392.9379999999478 5095.144750000064
  endloop
endfacet
facet normal -7.179437441341978e-26 2.667764998808376e-13 -1.0
  outer loop
    vertex 1991.3129233892148 418.3380000002459 3977.5447500000705
    vertex 1178.5129233892214 392.9380000000272 3977.544750000064
    vertex 1178.5129233892148 418.3380000000272 3977.5447500000705
  endloop
endfacet
facet normal -7.179437441341978e-26 2.667764998808376e-13 -1.0
  outer loop
    vertex 1178.5129233892214 392.9380000000272 3977.544750000064
    vertex 1991.3129233892148 418.3380000002459 3977.5447500000705
    vertex 1991.3129233892214 392.93800000024595 3977.544750000064
  endloop
endfacet
endsolid worthington-tower
