solid worthington-tower
facet normal -0.0 -0.0 -1.0
  outer loop
    vertex 1032.8513166779428 456.4379999999478 5098.31975000001
    vertex 270.85131667794286 431.0379999999478 5098.31975000001
    vertex 270.85131667794286 456.4379999999478 5098.31975000001
  endloop
endfacet
facet normal -0.0 -0.0 -1.0
  outer loop
    vertex 270.85131667794286 431.0379999999478 5098.31975000001
    vertex 1032.8513166779428 456.4379999999478 5098.31975000001
    vertex 1032.8513166779428 431.0379999999478 5098.31975000001
  endloop
endfacet
facet normal -0.6087614290087814 0.0 0.7933533402911886
  outer loop
    vertex 894.6885475773877 392.9379999999478 4776.818682715648
    vertex 891.4007274260514 418.3379999999478 4774.295849581906
    vertex 891.4007274260514 392.9379999999478 4774.295849581906
  endloop
endfacet
facet normal -0.6087614290087814 0.0 0.7933533402911886
  outer loop
    vertex 891.4007274260514 418.3379999999478 4774.295849581906
    vertex 894.6885475773877 392.9379999999478 4776.818682715648
    vertex 894.6885475773877 418.3379999999478 4776.818682715648
  endloop
endfacet
facet normal -0.7933533402911934 0.0 0.608761429008775
  outer loop
    vertex 891.4007274260514 418.3379999999478 4774.295849581906
    vertex 888.8778942923096 392.9379999999478 4771.00802943057
    vertex 891.4007274260514 392.9379999999478 4774.295849581906
  endloop
endfacet
facet normal -0.7933533402911934 0.0 0.608761429008775
  outer loop
    vertex 888.8778942923096 392.9379999999478 4771.00802943057
    vertex 891.4007274260514 418.3379999999478 4774.295849581906
    vertex 888.8778942923096 418.3379999999478 4771.00802943057
  endloop
endfacet
facet normal 0.38268343236501084 0.0 0.9238795325113194
  outer loop
    vertex 910.5635475773877 392.9379999999478 4776.818682715648
    vertex 906.7347999183902 418.3379999999478 4778.404601922908
    vertex 906.7347999183902 392.9379999999478 4778.404601922908
  endloop
endfacet
facet normal 0.38268343236501084 0.0 0.9238795325113194
  outer loop
    vertex 906.7347999183902 418.3379999999478 4778.404601922908
    vertex 910.5635475773877 392.9379999999478 4776.818682715648
    vertex 910.5635475773877 418.3379999999478 4776.818682715648
  endloop
endfacet
facet normal 0.6087614290087604 0.0 0.7933533402912047
  outer loop
    vertex 913.8513677287242 392.9379999999478 4774.295849581906
    vertex 910.5635475773877 418.3379999999478 4776.818682715648
    vertex 910.5635475773877 392.9379999999478 4776.818682715648
  endloop
endfacet
facet normal 0.6087614290087604 0.0 0.7933533402912047
  outer loop
    vertex 910.5635475773877 418.3379999999478 4776.818682715648
    vertex 913.8513677287242 392.9379999999478 4774.295849581906
    vertex 913.8513677287242 418.3379999999478 4774.295849581906
  endloop
endfacet
facet normal 0.7933533402912145 0.0 0.6087614290087475
  outer loop
    vertex 916.3742008624657 418.3379999999478 4771.00802943057
    vertex 913.8513677287242 392.9379999999478 4774.295849581906
    vertex 916.3742008624657 392.9379999999478 4771.00802943057
  endloop
endfacet
facet normal 0.7933533402912145 0.0 0.6087614290087475
  outer loop
    vertex 913.8513677287242 392.9379999999478 4774.295849581906
    vertex 916.3742008624657 418.3379999999478 4771.00802943057
    vertex 913.8513677287242 418.3379999999478 4774.295849581906
  endloop
endfacet
facet normal 0.9238795325112886 0.0 0.3826834323650852
  outer loop
    vertex 917.9601200697267 418.3379999999478 4767.179281771572
    vertex 916.3742008624657 392.9379999999478 4771.00802943057
    vertex 917.9601200697267 392.9379999999478 4767.179281771572
  endloop
endfacet
facet normal 0.9238795325112886 0.0 0.3826834323650852
  outer loop
    vertex 916.3742008624657 392.9379999999478 4771.00802943057
    vertex 917.9601200697267 418.3379999999478 4767.179281771572
    vertex 916.3742008624657 418.3379999999478 4771.00802943057
  endloop
endfacet
facet normal 0.991444861373812 0.0 0.13052619222004005
  outer loop
    vertex 918.5010475773877 418.3379999999478 4763.07052943057
    vertex 917.9601200697267 392.9379999999478 4767.179281771572
    vertex 918.5010475773877 392.9379999999478 4763.07052943057
  endloop
endfacet
facet normal 0.991444861373812 0.0 0.13052619222004005
  outer loop
    vertex 917.9601200697267 392.9379999999478 4767.179281771572
    vertex 918.5010475773877 418.3379999999478 4763.07052943057
    vertex 917.9601200697267 418.3379999999478 4767.179281771572
  endloop
endfacet
facet normal 0.991444861373812 0.0 -0.13052619222004005
  outer loop
    vertex 917.9601200697267 418.3379999999478 4758.9617770895675
    vertex 918.5010475773877 392.9379999999478 4763.07052943057
    vertex 917.9601200697267 392.9379999999478 4758.9617770895675
  endloop
endfacet
facet normal 0.991444861373812 0.0 -0.13052619222004005
  outer loop
    vertex 918.5010475773877 392.9379999999478 4763.07052943057
    vertex 917.9601200697267 418.3379999999478 4758.9617770895675
    vertex 918.5010475773877 418.3379999999478 4763.07052943057
  endloop
endfacet
facet normal 0.9238795325112886 0.0 -0.3826834323650852
  outer loop
    vertex 916.3742008624657 418.3379999999478 4755.13302943057
    vertex 917.9601200697267 392.9379999999478 4758.9617770895675
    vertex 916.3742008624657 392.9379999999478 4755.13302943057
  endloop
endfacet
facet normal 0.9238795325112886 0.0 -0.3826834323650852
  outer loop
    vertex 917.9601200697267 392.9379999999478 4758.9617770895675
    vertex 916.3742008624657 418.3379999999478 4755.13302943057
    vertex 917.9601200697267 418.3379999999478 4758.9617770895675
  endloop
endfacet
facet normal 0.7933533402911934 0.0 -0.608761429008775
  outer loop
    vertex 913.8513677287241 418.3379999999478 4751.845209279233
    vertex 916.3742008624657 392.9379999999478 4755.13302943057
    vertex 913.8513677287241 392.9379999999478 4751.845209279233
  endloop
endfacet
facet normal 0.7933533402911934 0.0 -0.608761429008775
  outer loop
    vertex 916.3742008624657 392.9379999999478 4755.13302943057
    vertex 913.8513677287241 418.3379999999478 4751.845209279233
    vertex 916.3742008624657 418.3379999999478 4755.13302943057
  endloop
endfacet
facet normal 0.6087614290087814 0.0 -0.7933533402911886
  outer loop
    vertex 913.8513677287241 418.3379999999478 4751.845209279233
    vertex 910.5635475773877 392.9379999999478 4749.322376145492
    vertex 910.5635475773877 418.3379999999478 4749.322376145492
  endloop
endfacet
facet normal 0.6087614290087814 0.0 -0.7933533402911886
  outer loop
    vertex 910.5635475773877 392.9379999999478 4749.322376145492
    vertex 913.8513677287241 418.3379999999478 4751.845209279233
    vertex 913.8513677287241 392.9379999999478 4751.845209279233
  endloop
endfacet
facet normal 0.38268343236501084 0.0 -0.9238795325113194
  outer loop
    vertex 910.5635475773877 418.3379999999478 4749.322376145492
    vertex 906.7347999183902 392.9379999999478 4747.736456938231
    vertex 906.7347999183902 418.3379999999478 4747.736456938231
  endloop
endfacet
facet normal 0.38268343236501084 0.0 -0.9238795325113194
  outer loop
    vertex 906.7347999183902 392.9379999999478 4747.736456938231
    vertex 910.5635475773877 418.3379999999478 4749.322376145492
    vertex 910.5635475773877 392.9379999999478 4749.322376145492
  endloop
endfacet
facet normal 0.13052619222012568 0.0 -0.9914448613738008
  outer loop
    vertex 906.7347999183902 418.3379999999478 4747.736456938231
    vertex 902.6260475773877 392.9379999999478 4747.19552943057
    vertex 902.6260475773877 418.3379999999478 4747.19552943057
  endloop
endfacet
facet normal 0.13052619222012568 0.0 -0.9914448613738008
  outer loop
    vertex 902.6260475773877 392.9379999999478 4747.19552943057
    vertex 906.7347999183902 418.3379999999478 4747.736456938231
    vertex 906.7347999183902 392.9379999999478 4747.736456938231
  endloop
endfacet
facet normal -0.13052619222012568 -0.0 -0.9914448613738008
  outer loop
    vertex 902.6260475773877 418.3379999999478 4747.19552943057
    vertex 898.5172952363853 392.9379999999478 4747.736456938231
    vertex 898.5172952363853 418.3379999999478 4747.736456938231
  endloop
endfacet
facet normal -0.13052619222012568 -0.0 -0.9914448613738008
  outer loop
    vertex 898.5172952363853 392.9379999999478 4747.736456938231
    vertex 902.6260475773877 418.3379999999478 4747.19552943057
    vertex 902.6260475773877 392.9379999999478 4747.19552943057
  endloop
endfacet
facet normal -0.38268343236501084 -0.0 -0.9238795325113194
  outer loop
    vertex 898.5172952363853 418.3379999999478 4747.736456938231
    vertex 894.6885475773877 392.9379999999478 4749.322376145492
    vertex 894.6885475773877 418.3379999999478 4749.322376145492
  endloop
endfacet
facet normal -0.38268343236501084 -0.0 -0.9238795325113194
  outer loop
    vertex 894.6885475773877 392.9379999999478 4749.322376145492
    vertex 898.5172952363853 418.3379999999478 4747.736456938231
    vertex 898.5172952363853 392.9379999999478 4747.736456938231
  endloop
endfacet
facet normal -0.6087614290087604 -0.0 -0.7933533402912047
  outer loop
    vertex 894.6885475773877 418.3379999999478 4749.322376145492
    vertex 891.4007274260512 392.9379999999478 4751.845209279233
    vertex 891.4007274260512 418.3379999999478 4751.845209279233
  endloop
endfacet
facet normal -0.6087614290087604 -0.0 -0.7933533402912047
  outer loop
    vertex 891.4007274260512 392.9379999999478 4751.845209279233
    vertex 894.6885475773877 418.3379999999478 4749.322376145492
    vertex 894.6885475773877 392.9379999999478 4749.322376145492
  endloop
endfacet
facet normal -0.991444861373812 -0.0 -0.13052619222004005
  outer loop
    vertex 886.7510475773877 418.3379999999478 4763.07052943057
    vertex 887.2919750850486 392.9379999999478 4758.9617770895675
    vertex 886.7510475773877 392.9379999999478 4763.07052943057
  endloop
endfacet
facet normal -0.991444861373812 -0.0 -0.13052619222004005
  outer loop
    vertex 887.2919750850486 392.9379999999478 4758.9617770895675
    vertex 886.7510475773877 418.3379999999478 4763.07052943057
    vertex 887.2919750850486 418.3379999999478 4758.9617770895675
  endloop
endfacet
facet normal -0.7933533402912145 -0.0 -0.6087614290087475
  outer loop
    vertex 888.8778942923096 418.3379999999478 4755.13302943057
    vertex 891.4007274260512 392.9379999999478 4751.845209279233
    vertex 888.8778942923096 392.9379999999478 4755.13302943057
  endloop
endfacet
facet normal -0.7933533402912145 -0.0 -0.6087614290087475
  outer loop
    vertex 891.4007274260512 392.9379999999478 4751.845209279233
    vertex 888.8778942923096 418.3379999999478 4755.13302943057
    vertex 891.4007274260512 418.3379999999478 4751.845209279233
  endloop
endfacet
facet normal -0.9238795325112886 -0.0 -0.3826834323650852
  outer loop
    vertex 887.2919750850486 418.3379999999478 4758.9617770895675
    vertex 888.8778942923096 392.9379999999478 4755.13302943057
    vertex 887.2919750850486 392.9379999999478 4758.9617770895675
  endloop
endfacet
facet normal -0.9238795325112886 -0.0 -0.3826834323650852
  outer loop
    vertex 888.8778942923096 392.9379999999478 4755.13302943057
    vertex 887.2919750850486 418.3379999999478 4758.9617770895675
    vertex 888.8778942923096 418.3379999999478 4755.13302943057
  endloop
endfacet
facet normal -9.473903143468004e-16 -1.4917702067337327e-31 1.0
  outer loop
    vertex 270.851316677943 189.7379999999478 5149.119750000009
    vertex 1032.8513166779428 469.1379999999478 5149.11975000001
    vertex 270.85131667794286 469.1379999999478 5149.119750000009
  endloop
endfacet
facet normal -9.473903143468004e-16 -1.4917702067337327e-31 1.0
  outer loop
    vertex 1032.8513166779428 469.1379999999478 5149.11975000001
    vertex 270.851316677943 189.7379999999478 5149.119750000009
    vertex 1032.8513166779428 189.7379999999478 5149.11975000001
  endloop
endfacet
facet normal -0.9238795325112886 0.0 0.3826834323650852
  outer loop
    vertex 888.8778942923096 418.3379999999478 4771.00802943057
    vertex 887.2919750850486 392.9379999999478 4767.179281771572
    vertex 888.8778942923096 392.9379999999478 4771.00802943057
  endloop
endfacet
facet normal -0.9238795325112886 0.0 0.3826834323650852
  outer loop
    vertex 887.2919750850486 392.9379999999478 4767.179281771572
    vertex 888.8778942923096 418.3379999999478 4771.00802943057
    vertex 887.2919750850486 418.3379999999478 4767.179281771572
  endloop
endfacet
facet normal 0.13052619222012568 0.0 0.9914448613738008
  outer loop
    vertex 906.7347999183902 392.9379999999478 4778.404601922908
    vertex 902.6260475773877 418.3379999999478 4778.94552943057
    vertex 902.6260475773877 392.9379999999478 4778.94552943057
  endloop
endfacet
facet normal 0.13052619222012568 0.0 0.9914448613738008
  outer loop
    vertex 902.6260475773877 418.3379999999478 4778.94552943057
    vertex 906.7347999183902 392.9379999999478 4778.404601922908
    vertex 906.7347999183902 418.3379999999478 4778.404601922908
  endloop
endfacet
facet normal -0.13052619222012568 0.0 0.9914448613738008
  outer loop
    vertex 902.6260475773877 392.9379999999478 4778.94552943057
    vertex 898.5172952363853 418.3379999999478 4778.404601922908
    vertex 898.5172952363853 392.9379999999478 4778.404601922908
  endloop
endfacet
facet normal -0.13052619222012568 0.0 0.9914448613738008
  outer loop
    vertex 898.5172952363853 418.3379999999478 4778.404601922908
    vertex 902.6260475773877 392.9379999999478 4778.94552943057
    vertex 902.6260475773877 418.3379999999478 4778.94552943057
  endloop
endfacet
facet normal 0.0 1.0 0.0
  outer loop
    vertex 898.5172952363853 418.3379999999478 4747.736456938231
    vertex 906.7347999183902 418.3379999999478 4747.736456938231
    vertex 902.6260475773877 418.3379999999478 4747.19552943057
  endloop
endfacet
facet normal 0.0 1.0 0.0
  outer loop
    vertex 906.7347999183902 418.3379999999478 4747.736456938231
    vertex 898.5172952363853 418.3379999999478 4747.736456938231
    vertex 894.6885475773877 418.3379999999478 4749.322376145492
  endloop
endfacet
facet normal 0.0 1.0 0.0
  outer loop
    vertex 906.7347999183902 418.3379999999478 4747.736456938231
    vertex 894.6885475773877 418.3379999999478 4749.322376145492
    vertex 910.5635475773877 418.3379999999478 4749.322376145492
  endloop
endfacet
facet normal 0.0 1.0 0.0
  outer loop
    vertex 910.5635475773877 418.3379999999478 4749.322376145492
    vertex 894.6885475773877 418.3379999999478 4749.322376145492
    vertex 891.4007274260512 418.3379999999478 4751.845209279233
  endloop
endfacet
facet normal 0.0 1.0 0.0
  outer loop
    vertex 910.5635475773877 418.3379999999478 4749.322376145492
    vertex 891.4007274260512 418.3379999999478 4751.845209279233
    vertex 913.8513677287241 418.3379999999478 4751.845209279233
  endloop
endfacet
facet normal 0.0 1.0 0.0
  outer loop
    vertex 913.8513677287241 418.3379999999478 4751.845209279233
    vertex 891.4007274260512 418.3379999999478 4751.845209279233
    vertex 888.8778942923096 418.3379999999478 4755.13302943057
  endloop
endfacet
facet normal 0.0 1.0 0.0
  outer loop
    vertex 913.8513677287241 418.3379999999478 4751.845209279233
    vertex 888.8778942923096 418.3379999999478 4755.13302943057
    vertex 916.3742008624657 418.3379999999478 4755.13302943057
  endloop
endfacet
facet normal 0.0 1.0 0.0
  outer loop
    vertex 916.3742008624657 418.3379999999478 4755.13302943057
    vertex 888.8778942923096 418.3379999999478 4755.13302943057
    vertex 887.2919750850486 418.3379999999478 4758.9617770895675
  endloop
endfacet
facet normal 0.0 1.0 0.0
  outer loop
    vertex 916.3742008624657 418.3379999999478 4755.13302943057
    vertex 887.2919750850486 418.3379999999478 4758.9617770895675
    vertex 917.9601200697267 418.3379999999478 4758.9617770895675
  endloop
endfacet
facet normal 0.0 1.0 0.0
  outer loop
    vertex 917.9601200697267 418.3379999999478 4758.9617770895675
    vertex 887.2919750850486 418.3379999999478 4758.9617770895675
    vertex 886.7510475773877 418.3379999999478 4763.07052943057
  endloop
endfacet
facet normal 0.0 1.0 0.0
  outer loop
    vertex 917.9601200697267 418.3379999999478 4758.9617770895675
    vertex 886.7510475773877 418.3379999999478 4763.07052943057
    vertex 918.5010475773877 418.3379999999478 4763.07052943057
  endloop
endfacet
facet normal 0.0 1.0 0.0
  outer loop
    vertex 918.5010475773877 418.3379999999478 4763.07052943057
    vertex 886.7510475773877 418.3379999999478 4763.07052943057
    vertex 887.2919750850486 418.3379999999478 4767.179281771572
  endloop
endfacet
facet normal 0.0 1.0 0.0
  outer loop
    vertex 918.5010475773877 418.3379999999478 4763.07052943057
    vertex 887.2919750850486 418.3379999999478 4767.179281771572
    vertex 917.9601200697267 418.3379999999478 4767.179281771572
  endloop
endfacet
facet normal 0.0 1.0 0.0
  outer loop
    vertex 917.9601200697267 418.3379999999478 4767.179281771572
    vertex 887.2919750850486 418.3379999999478 4767.179281771572
    vertex 888.8778942923096 418.3379999999478 4771.00802943057
  endloop
endfacet
facet normal 0.0 1.0 0.0
  outer loop
    vertex 917.9601200697267 418.3379999999478 4767.179281771572
    vertex 888.8778942923096 418.3379999999478 4771.00802943057
    vertex 916.3742008624657 418.3379999999478 4771.00802943057
  endloop
endfacet
facet normal 0.0 1.0 0.0
  outer loop
    vertex 916.3742008624657 418.3379999999478 4771.00802943057
    vertex 888.8778942923096 418.3379999999478 4771.00802943057
    vertex 891.4007274260514 418.3379999999478 4774.295849581906
  endloop
endfacet
facet normal 0.0 1.0 0.0
  outer loop
    vertex 916.3742008624657 418.3379999999478 4771.00802943057
    vertex 891.4007274260514 418.3379999999478 4774.295849581906
    vertex 913.8513677287242 418.3379999999478 4774.295849581906
  endloop
endfacet
facet normal 0.0 1.0 0.0
  outer loop
    vertex 913.8513677287242 418.3379999999478 4774.295849581906
    vertex 891.4007274260514 418.3379999999478 4774.295849581906
    vertex 894.6885475773877 418.3379999999478 4776.818682715648
  endloop
endfacet
facet normal 0.0 1.0 0.0
  outer loop
    vertex 913.8513677287242 418.3379999999478 4774.295849581906
    vertex 894.6885475773877 418.3379999999478 4776.818682715648
    vertex 910.5635475773877 418.3379999999478 4776.818682715648
  endloop
endfacet
facet normal 0.0 1.0 0.0
  outer loop
    vertex 910.5635475773877 418.3379999999478 4776.818682715648
    vertex 894.6885475773877 418.3379999999478 4776.818682715648
    vertex 898.5172952363853 418.3379999999478 4778.404601922908
  endloop
endfacet
facet normal 0.0 1.0 0.0
  outer loop
    vertex 910.5635475773877 418.3379999999478 4776.818682715648
    vertex 898.5172952363853 418.3379999999478 4778.404601922908
    vertex 906.7347999183902 418.3379999999478 4778.404601922908
  endloop
endfacet
facet normal 0.0 1.0 0.0
  outer loop
    vertex 906.7347999183902 418.3379999999478 4778.404601922908
    vertex 898.5172952363853 418.3379999999478 4778.404601922908
    vertex 902.6260475773877 418.3379999999478 4778.94552943057
  endloop
endfacet
facet normal 3.3306690738754706e-16 -1.0 1.97215226305253e-31
  outer loop
    vertex 1032.8513166779433 189.7379999999478 4387.11975000001
    vertex 270.851316677943 189.7379999999478 5149.119750000009
    vertex 270.8513166779433 189.7379999999478 4387.119750000009
  endloop
endfacet
facet normal 3.3306690738754706e-16 -1.0 1.97215226305253e-31
  outer loop
    vertex 270.851316677943 189.7379999999478 5149.119750000009
    vertex 1032.8513166779433 189.7379999999478 4387.11975000001
    vertex 1032.8513166779428 189.7379999999478 5149.11975000001
  endloop
endfacet
facet normal 1.0 2.95433728184096e-17 4.818031717135638e-16
  outer loop
    vertex 1032.8513166779433 431.0379999999478 4387.11975000001
    vertex 1032.8513166779428 189.7379999999478 5149.11975000001
    vertex 1032.8513166779433 189.7379999999478 4387.11975000001
  endloop
endfacet
facet normal 1.0 2.95433728184096e-17 4.818031717135638e-16
  outer loop
    vertex 1032.8513166779428 189.7379999999478 5149.11975000001
    vertex 1032.8513166779433 431.0379999999478 4387.11975000001
    vertex 1032.8513166779428 431.0379999999478 5098.31975000001
  endloop
endfacet
facet normal 1.0 2.95433728184096e-17 4.818031717135638e-16
  outer loop
    vertex 1032.8513166779428 189.7379999999478 5149.11975000001
    vertex 1032.8513166779428 431.0379999999478 5098.31975000001
    vertex 1032.8513166779428 469.1379999999478 5149.11975000001
  endloop
endfacet
facet normal 1.0 2.95433728184096e-17 4.818031717135638e-16
  outer loop
    vertex 1032.8513166779428 469.1379999999478 5149.11975000001
    vertex 1032.8513166779428 431.0379999999478 5098.31975000001
    vertex 1032.8513166779428 456.4379999999478 5123.71975000001
  endloop
endfacet
facet normal 1.0 2.95433728184096e-17 4.818031717135638e-16
  outer loop
    vertex 1032.8513166779428 456.4379999999478 5123.71975000001
    vertex 1032.8513166779428 431.0379999999478 5098.31975000001
    vertex 1032.8513166779428 456.4379999999478 5098.31975000001
  endloop
endfacet
facet normal 1.0 2.95433728184096e-17 4.818031717135638e-16
  outer loop
    vertex 1032.8513166779428 469.1379999999478 5149.11975000001
    vertex 1032.8513166779428 456.4379999999478 5123.71975000001
    vertex 1032.8513166779428 469.1379999999478 5123.71975000001
  endloop
endfacet
facet normal -0.991444861373812 0.0 0.13052619222004005
  outer loop
    vertex 887.2919750850486 418.3379999999478 4767.179281771572
    vertex 886.7510475773877 392.9379999999478 4763.07052943057
    vertex 887.2919750850486 392.9379999999478 4767.179281771572
  endloop
endfacet
facet normal -0.991444861373812 0.0 0.13052619222004005
  outer loop
    vertex 886.7510475773877 392.9379999999478 4763.07052943057
    vertex 887.2919750850486 418.3379999999478 4767.179281771572
    vertex 886.7510475773877 418.3379999999478 4763.07052943057
  endloop
endfacet
facet normal 0.0 1.0 0.0
  outer loop
    vertex 347.05131667794285 392.9379999999478 5072.919750000009
    vertex 956.6513166779432 392.9379999999478 4463.31975000001
    vertex 347.05131667794325 392.9379999999478 4463.319750000009
  endloop
endfacet
facet normal 0.0 1.0 0.0
  outer loop
    vertex 956.6513166779432 392.9379999999478 4463.31975000001
    vertex 347.05131667794285 392.9379999999478 5072.919750000009
    vertex 894.6885475773877 392.9379999999478 4749.322376145492
  endloop
endfacet
facet normal 0.0 1.0 0.0
  outer loop
    vertex 956.6513166779432 392.9379999999478 4463.31975000001
    vertex 894.6885475773877 392.9379999999478 4749.322376145492
    vertex 898.5172952363853 392.9379999999478 4747.736456938231
  endloop
endfacet
facet normal 0.0 1.0 0.0
  outer loop
    vertex 956.6513166779432 392.9379999999478 4463.31975000001
    vertex 898.5172952363853 392.9379999999478 4747.736456938231
    vertex 902.6260475773877 392.9379999999478 4747.19552943057
  endloop
endfacet
facet normal 0.0 1.0 0.0
  outer loop
    vertex 894.6885475773877 392.9379999999478 4749.322376145492
    vertex 347.05131667794285 392.9379999999478 5072.919750000009
    vertex 891.4007274260512 392.9379999999478 4751.845209279233
  endloop
endfacet
facet normal 0.0 1.0 0.0
  outer loop
    vertex 891.4007274260512 392.9379999999478 4751.845209279233
    vertex 347.05131667794285 392.9379999999478 5072.919750000009
    vertex 888.8778942923096 392.9379999999478 4755.13302943057
  endloop
endfacet
facet normal 0.0 1.0 0.0
  outer loop
    vertex 888.8778942923096 392.9379999999478 4755.13302943057
    vertex 347.05131667794285 392.9379999999478 5072.919750000009
    vertex 887.2919750850486 392.9379999999478 4758.9617770895675
  endloop
endfacet
facet normal 0.0 1.0 0.0
  outer loop
    vertex 887.2919750850486 392.9379999999478 4758.9617770895675
    vertex 347.05131667794285 392.9379999999478 5072.919750000009
    vertex 886.7510475773877 392.9379999999478 4763.07052943057
  endloop
endfacet
facet normal 0.0 1.0 0.0
  outer loop
    vertex 886.7510475773877 392.9379999999478 4763.07052943057
    vertex 347.05131667794285 392.9379999999478 5072.919750000009
    vertex 887.2919750850486 392.9379999999478 4767.179281771572
  endloop
endfacet
facet normal 0.0 1.0 0.0
  outer loop
    vertex 887.2919750850486 392.9379999999478 4767.179281771572
    vertex 347.05131667794285 392.9379999999478 5072.919750000009
    vertex 888.8778942923096 392.9379999999478 4771.00802943057
  endloop
endfacet
facet normal 0.0 1.0 0.0
  outer loop
    vertex 888.8778942923096 392.9379999999478 4771.00802943057
    vertex 347.05131667794285 392.9379999999478 5072.919750000009
    vertex 891.4007274260514 392.9379999999478 4774.295849581906
  endloop
endfacet
facet normal 0.0 1.0 0.0
  outer loop
    vertex 891.4007274260514 392.9379999999478 4774.295849581906
    vertex 347.05131667794285 392.9379999999478 5072.919750000009
    vertex 894.6885475773877 392.9379999999478 4776.818682715648
  endloop
endfacet
facet normal 0.0 1.0 0.0
  outer loop
    vertex 894.6885475773877 392.9379999999478 4776.818682715648
    vertex 347.05131667794285 392.9379999999478 5072.919750000009
    vertex 898.5172952363853 392.9379999999478 4778.404601922908
  endloop
endfacet
facet normal 0.0 1.0 0.0
  outer loop
    vertex 898.5172952363853 392.9379999999478 4778.404601922908
    vertex 347.05131667794285 392.9379999999478 5072.919750000009
    vertex 902.6260475773877 392.9379999999478 4778.94552943057
  endloop
endfacet
facet normal 0.0 1.0 0.0
  outer loop
    vertex 956.6513166779432 392.9379999999478 4463.31975000001
    vertex 918.5010475773877 392.9379999999478 4763.07052943057
    vertex 956.6513166779429 392.9379999999478 5072.91975000001
  endloop
endfacet
facet normal 0.0 1.0 0.0
  outer loop
    vertex 918.5010475773877 392.9379999999478 4763.07052943057
    vertex 956.6513166779432 392.9379999999478 4463.31975000001
    vertex 917.9601200697267 392.9379999999478 4758.9617770895675
  endloop
endfacet
facet normal 0.0 1.0 0.0
  outer loop
    vertex 917.9601200697267 392.9379999999478 4758.9617770895675
    vertex 956.6513166779432 392.9379999999478 4463.31975000001
    vertex 916.3742008624657 392.9379999999478 4755.13302943057
  endloop
endfacet
facet normal 0.0 1.0 0.0
  outer loop
    vertex 916.3742008624657 392.9379999999478 4755.13302943057
    vertex 956.6513166779432 392.9379999999478 4463.31975000001
    vertex 913.8513677287241 392.9379999999478 4751.845209279233
  endloop
endfacet
facet normal 0.0 1.0 0.0
  outer loop
    vertex 913.8513677287241 392.9379999999478 4751.845209279233
    vertex 956.6513166779432 392.9379999999478 4463.31975000001
    vertex 910.5635475773877 392.9379999999478 4749.322376145492
  endloop
endfacet
facet normal 0.0 1.0 0.0
  outer loop
    vertex 910.5635475773877 392.9379999999478 4749.322376145492
    vertex 956.6513166779432 392.9379999999478 4463.31975000001
    vertex 906.7347999183902 392.9379999999478 4747.736456938231
  endloop
endfacet
facet normal 0.0 1.0 0.0
  outer loop
    vertex 906.7347999183902 392.9379999999478 4747.736456938231
    vertex 956.6513166779432 392.9379999999478 4463.31975000001
    vertex 902.6260475773877 392.9379999999478 4747.19552943057
  endloop
endfacet
facet normal 0.0 1.0 0.0
  outer loop
    vertex 956.6513166779429 392.9379999999478 5072.91975000001
    vertex 918.5010475773877 392.9379999999478 4763.07052943057
    vertex 917.9601200697267 392.9379999999478 4767.179281771572
  endloop
endfacet
facet normal 0.0 1.0 0.0
  outer loop
    vertex 956.6513166779429 392.9379999999478 5072.91975000001
    vertex 917.9601200697267 392.9379999999478 4767.179281771572
    vertex 916.3742008624657 392.9379999999478 4771.00802943057
  endloop
endfacet
facet normal 0.0 1.0 0.0
  outer loop
    vertex 956.6513166779429 392.9379999999478 5072.91975000001
    vertex 916.3742008624657 392.9379999999478 4771.00802943057
    vertex 913.8513677287242 392.9379999999478 4774.295849581906
  endloop
endfacet
facet normal 0.0 1.0 0.0
  outer loop
    vertex 956.6513166779429 392.9379999999478 5072.91975000001
    vertex 913.8513677287242 392.9379999999478 4774.295849581906
    vertex 910.5635475773877 392.9379999999478 4776.818682715648
  endloop
endfacet
facet normal 0.0 1.0 0.0
  outer loop
    vertex 956.6513166779429 392.9379999999478 5072.91975000001
    vertex 910.5635475773877 392.9379999999478 4776.818682715648
    vertex 906.7347999183902 392.9379999999478 4778.404601922908
  endloop
endfacet
facet normal 0.0 1.0 0.0
  outer loop
    vertex 956.6513166779429 392.9379999999478 5072.91975000001
    vertex 906.7347999183902 392.9379999999478 4778.404601922908
    vertex 902.6260475773877 392.9379999999478 4778.94552943057
  endloop
endfacet
facet normal 0.0 1.0 0.0
  outer loop
    vertex 956.6513166779429 392.9379999999478 5072.91975000001
    vertex 902.6260475773877 392.9379999999478 4778.94552943057
    vertex 347.05131667794285 392.9379999999478 5072.919750000009
  endloop
endfacet
facet normal -1.0 -4.035132337447777e-16 -4.818031717135635e-16
  outer loop
    vertex 270.851316677943 189.7379999999478 5149.119750000009
    vertex 270.85131667794286 431.0379999999478 5098.31975000001
    vertex 270.8513166779433 189.7379999999478 4387.119750000009
  endloop
endfacet
facet normal -1.0 -4.035132337447777e-16 -4.818031717135635e-16
  outer loop
    vertex 270.85131667794286 431.0379999999478 5098.31975000001
    vertex 270.851316677943 189.7379999999478 5149.119750000009
    vertex 270.85131667794286 469.1379999999478 5149.119750000009
  endloop
endfacet
facet normal -1.0 -4.035132337447777e-16 -4.818031717135635e-16
  outer loop
    vertex 270.85131667794286 431.0379999999478 5098.31975000001
    vertex 270.85131667794286 469.1379999999478 5149.119750000009
    vertex 270.85131667794286 456.4379999999478 5123.719750000009
  endloop
endfacet
facet normal -1.0 -4.035132337447777e-16 -4.818031717135635e-16
  outer loop
    vertex 270.85131667794286 456.4379999999478 5123.719750000009
    vertex 270.85131667794286 469.1379999999478 5149.119750000009
    vertex 270.85131667794286 469.1379999999478 5123.719750000009
  endloop
endfacet
facet normal -1.0 -4.035132337447777e-16 -4.818031717135635e-16
  outer loop
    vertex 270.85131667794286 456.4379999999478 5098.31975000001
    vertex 270.85131667794286 431.0379999999478 5098.31975000001
    vertex 270.85131667794286 456.4379999999478 5123.719750000009
  endloop
endfacet
facet normal -1.0 -4.035132337447777e-16 -4.818031717135635e-16
  outer loop
    vertex 270.8513166779432 431.0379999999478 4387.119750000009
    vertex 270.8513166779433 189.7379999999478 4387.119750000009
    vertex 270.85131667794286 431.0379999999478 5098.31975000001
  endloop
endfacet
facet normal 4.996003610813206e-16 -3.081487911019571e-32 -1.0
  outer loop
    vertex 1032.8513166779433 431.0379999999478 4387.11975000001
    vertex 270.8513166779433 189.7379999999478 4387.119750000009
    vertex 270.8513166779432 431.0379999999478 4387.119750000009
  endloop
endfacet
facet normal 4.996003610813206e-16 -3.081487911019571e-32 -1.0
  outer loop
    vertex 270.8513166779433 189.7379999999478 4387.119750000009
    vertex 1032.8513166779433 431.0379999999478 4387.11975000001
    vertex 1032.8513166779433 189.7379999999478 4387.11975000001
  endloop
endfacet
facet normal -0.38268343236501084 0.0 0.9238795325113194
  outer loop
    vertex 898.5172952363853 392.9379999999478 4778.404601922908
    vertex 894.6885475773877 418.3379999999478 4776.818682715648
    vertex 894.6885475773877 392.9379999999478 4776.818682715648
  endloop
endfacet
facet normal -0.38268343236501084 0.0 0.9238795325113194
  outer loop
    vertex 894.6885475773877 418.3379999999478 4776.818682715648
    vertex 898.5172952363853 392.9379999999478 4778.404601922908
    vertex 898.5172952363853 418.3379999999478 4778.404601922908
  endloop
endfacet
facet normal -1.0 -3.3306690738754706e-16 -5.921189464667501e-16
  outer loop
    vertex 956.6513166779429 431.0379999999478 5072.91975000001
    vertex 956.6513166779432 392.9379999999478 4463.31975000001
    vertex 956.6513166779429 392.9379999999478 5072.91975000001
  endloop
endfacet
facet normal -1.0 -3.3306690738754706e-16 -5.921189464667501e-16
  outer loop
    vertex 956.6513166779432 392.9379999999478 4463.31975000001
    vertex 956.6513166779429 431.0379999999478 5072.91975000001
    vertex 956.6513166779432 431.0379999999478 4463.31975000001
  endloop
endfacet
facet normal -1.1842378929335002e-15 -1.97215226305253e-31 1.0
  outer loop
    vertex 956.6513166779432 392.9379999999478 4463.31975000001
    vertex 347.05131667794325 431.0379999999478 4463.319750000009
    vertex 347.05131667794325 392.9379999999478 4463.319750000009
  endloop
endfacet
facet normal -1.1842378929335002e-15 -1.97215226305253e-31 1.0
  outer loop
    vertex 347.05131667794325 431.0379999999478 4463.319750000009
    vertex 956.6513166779432 392.9379999999478 4463.31975000001
    vertex 956.6513166779432 431.0379999999478 4463.31975000001
  endloop
endfacet
facet normal 1.0 3.3306690738754706e-16 5.921189464667501e-16
  outer loop
    vertex 347.05131667794325 431.0379999999478 4463.319750000009
    vertex 347.05131667794285 392.9379999999478 5072.919750000009
    vertex 347.05131667794325 392.9379999999478 4463.319750000009
  endloop
endfacet
facet normal 1.0 3.3306690738754706e-16 5.921189464667501e-16
  outer loop
    vertex 347.05131667794285 392.9379999999478 5072.919750000009
    vertex 347.05131667794325 431.0379999999478 4463.319750000009
    vertex 347.05131667794285 431.0379999999478 5072.919750000009
  endloop
endfacet
facet normal 1.1842378929335002e-15 1.97215226305253e-31 -1.0
  outer loop
    vertex 956.6513166779429 431.0379999999478 5072.91975000001
    vertex 347.05131667794285 392.9379999999478 5072.919750000009
    vertex 347.05131667794285 431.0379999999478 5072.919750000009
  endloop
endfacet
facet normal 1.1842378929335002e-15 1.97215226305253e-31 -1.0
  outer loop
    vertex 347.05131667794285 392.9379999999478 5072.919750000009
    vertex 956.6513166779429 431.0379999999478 5072.91975000001
    vertex 956.6513166779429 392.9379999999478 5072.91975000001
  endloop
endfacet
facet normal 0.0 1.0 0.0
  outer loop
    vertex 270.8513166779432 431.0379999999478 4387.119750000009
    vertex 347.05131667794325 431.0379999999478 4463.319750000009
    vertex 1032.8513166779433 431.0379999999478 4387.11975000001
  endloop
endfacet
facet normal 0.0 1.0 0.0
  outer loop
    vertex 347.05131667794325 431.0379999999478 4463.319750000009
    vertex 270.8513166779432 431.0379999999478 4387.119750000009
    vertex 270.85131667794286 431.0379999999478 5098.31975000001
  endloop
endfacet
facet normal 0.0 1.0 0.0
  outer loop
    vertex 347.05131667794325 431.0379999999478 4463.319750000009
    vertex 270.85131667794286 431.0379999999478 5098.31975000001
    vertex 347.05131667794285 431.0379999999478 5072.919750000009
  endloop
endfacet
facet normal 0.0 1.0 0.0
  outer loop
    vertex 347.05131667794285 431.0379999999478 5072.919750000009
    vertex 270.85131667794286 431.0379999999478 5098.31975000001
    vertex 956.6513166779429 431.0379999999478 5072.91975000001
  endloop
endfacet
facet normal 0.0 1.0 0.0
  outer loop
    vertex 1032.8513166779433 431.0379999999478 4387.11975000001
    vertex 956.6513166779432 431.0379999999478 4463.31975000001
    vertex 1032.8513166779428 431.0379999999478 5098.31975000001
  endloop
endfacet
facet normal 0.0 1.0 0.0
  outer loop
    vertex 956.6513166779432 431.0379999999478 4463.31975000001
    vertex 1032.8513166779433 431.0379999999478 4387.11975000001
    vertex 347.05131667794325 431.0379999999478 4463.319750000009
  endloop
endfacet
facet normal 0.0 1.0 0.0
  outer loop
    vertex 1032.8513166779428 431.0379999999478 5098.31975000001
    vertex 956.6513166779432 431.0379999999478 4463.31975000001
    vertex 956.6513166779429 431.0379999999478 5072.91975000001
  endloop
endfacet
facet normal 0.0 1.0 0.0
  outer loop
    vertex 1032.8513166779428 431.0379999999478 5098.31975000001
    vertex 956.6513166779429 431.0379999999478 5072.91975000001
    vertex 270.85131667794286 431.0379999999478 5098.31975000001
  endloop
endfacet
facet normal 0.0 1.0 0.0
  outer loop
    vertex 270.85131667794286 456.4379999999478 5123.719750000009
    vertex 1032.8513166779428 456.4379999999478 5098.31975000001
    vertex 270.85131667794286 456.4379999999478 5098.31975000001
  endloop
endfacet
facet normal 0.0 1.0 0.0
  outer loop
    vertex 1032.8513166779428 456.4379999999478 5098.31975000001
    vertex 270.85131667794286 456.4379999999478 5123.719750000009
    vertex 1032.8513166779428 456.4379999999478 5123.71975000001
  endloop
endfacet
facet normal 9.473903143468002e-16 0.0 -1.0
  outer loop
    vertex 1032.8513166779428 469.1379999999478 5123.71975000001
    vertex 270.85131667794286 456.4379999999478 5123.719750000009
    vertex 270.85131667794286 469.1379999999478 5123.719750000009
  endloop
endfacet
facet normal 9.473903143468002e-16 0.0 -1.0
  outer loop
    vertex 270.85131667794286 456.4379999999478 5123.719750000009
    vertex 1032.8513166779428 469.1379999999478 5123.71975000001
    vertex 1032.8513166779428 456.4379999999478 5123.71975000001
  endloop
endfacet
facet normal 0.0 1.0 0.0
  outer loop
    vertex 270.85131667794286 469.1379999999478 5149.119750000009
    vertex 1032.8513166779428 469.1379999999478 5123.71975000001
    vertex 270.85131667794286 469.1379999999478 5123.719750000009
  endloop
endfacet
facet normal 0.0 1.0 0.0
  outer loop
    vertex 1032.8513166779428 469.1379999999478 5123.71975000001
    vertex 270.85131667794286 469.1379999999478 5149.119750000009
    vertex 1032.8513166779428 469.1379999999478 5149.11975000001
  endloop
endfacet
endsolid worthington-tower
