solid early worthington tower 2
facet normal 0.0 -1.0 0.0
  outer loop
    vertex 6246.8125 -304.8 8251.824999999999
    vertex 2625.7249999999995 -304.8 8048.625
    vertex 6246.8125 -304.8 8048.625
  endloop
endfacet
facet normal 0.0 -1.0 0.0
  outer loop
    vertex 2625.7249999999995 -304.8 8048.625
    vertex 6246.8125 -304.8 8251.824999999999
    vertex 2625.7249999999995 -304.8 8251.824999999999
  endloop
endfacet
facet normal -1.0 -0.0 -0.0
  outer loop
    vertex 2625.7249999999995 3316.2875 8251.824999999999
    vertex 2625.7249999999995 -304.8 8048.625
    vertex 2625.7249999999995 -304.8 8251.824999999999
  endloop
endfacet
facet normal -1.0 -0.0 -0.0
  outer loop
    vertex 2625.7249999999995 -304.8 8048.625
    vertex 2625.7249999999995 3316.2875 8251.824999999999
    vertex 2625.7249999999995 3316.2875 8048.625
  endloop
endfacet
facet normal 0.0 0.0 1.0
  outer loop
    vertex 6246.8125 -304.8 8251.824999999999
    vertex 2625.7249999999995 3316.2875 8251.824999999999
    vertex 2625.7249999999995 -304.8 8251.824999999999
  endloop
endfacet
facet normal 0.0 0.0 1.0
  outer loop
    vertex 2625.7249999999995 3316.2875 8251.824999999999
    vertex 6246.8125 -304.8 8251.824999999999
    vertex 6246.8125 3316.2875 8251.824999999999
  endloop
endfacet
facet normal 1.0 0.0 0.0
  outer loop
    vertex 6246.8125 3316.2875 8048.625
    vertex 6246.8125 -304.8 8251.824999999999
    vertex 6246.8125 -304.8 8048.625
  endloop
endfacet
facet normal 1.0 0.0 0.0
  outer loop
    vertex 6246.8125 -304.8 8251.824999999999
    vertex 6246.8125 3316.2875 8048.625
    vertex 6246.8125 3316.2875 8251.824999999999
  endloop
endfacet
facet normal 0.0 1.0 0.0
  outer loop
    vertex 2625.7249999999995 3316.2875 8251.824999999999
    vertex 6246.8125 3316.2875 8048.625
    vertex 2625.7249999999995 3316.2875 8048.625
  endloop
endfacet
facet normal 0.0 1.0 0.0
  outer loop
    vertex 6246.8125 3316.2875 8048.625
    vertex 2625.7249999999995 3316.2875 8251.824999999999
    vertex 6246.8125 3316.2875 8251.824999999999
  endloop
endfacet
facet normal 0.0 0.0 -1.0
  outer loop
    vertex 6246.8125 3316.2875 8048.625
    vertex 2625.7249999999995 -304.8 8048.625
    vertex 2625.7249999999995 3316.2875 8048.625
  endloop
endfacet
facet normal 0.0 0.0 -1.0
  outer loop
    vertex 2625.7249999999995 -304.8 8048.625
    vertex 6246.8125 3316.2875 8048.625
    vertex 6246.8125 -304.8 8048.625
  endloop
endfacet
facet normal 0.0 0.0 1.0
  outer loop
    vertex 5392.340625 773.653929019689 8759.824999999999
    vertex 5354.240624999999 2237.8335709803105 8759.824999999999
    vertex 5354.240624999999 773.653929019689 8759.824999999999
  endloop
endfacet
facet normal 0.0 0.0 1.0
  outer loop
    vertex 5354.240624999999 2237.8335709803105 8759.824999999999
    vertex 5392.340625 773.653929019689 8759.824999999999
    vertex 5392.340625 2237.8335709803105 8759.824999999999
  endloop
endfacet
facet normal -1.0 -0.0 -0.0
  outer loop
    vertex 3518.296875 2237.833570980311 8759.824999999999
    vertex 3518.296875 773.6539290196896 8759.824999999999
    vertex 3518.296875 1505.7437499999999 9109.915275537283
  endloop
endfacet
facet normal 0.0 0.0 1.0
  outer loop
    vertex 3518.296875 773.6539290196896 8759.824999999999
    vertex 3480.1968749999996 2237.833570980311 8759.824999999999
    vertex 3480.1968749999996 773.6539290196896 8759.824999999999
  endloop
endfacet
facet normal 0.0 0.0 1.0
  outer loop
    vertex 3480.1968749999996 2237.833570980311 8759.824999999999
    vertex 3518.296875 773.6539290196896 8759.824999999999
    vertex 3518.296875 2237.833570980311 8759.824999999999
  endloop
endfacet
facet normal 1.0 0.0 0.0
  outer loop
    vertex 5354.240624999999 2237.8335709803105 8759.824999999999
    vertex 5354.240624999999 1505.7437499999999 9109.915275537283
    vertex 5354.240624999999 773.653929019689 8759.824999999999
  endloop
endfacet
facet normal -0.4314157430305673 -6.310435603202425e-19 0.9021532334727751
  outer loop
    vertex 3480.1968749999996 549.6718750000003 8709.025
    vertex 2524.1249999999995 3417.8875 8251.824999999999
    vertex 2524.1249999999995 -406.4 8251.824999999999
  endloop
endfacet
facet normal -0.4314157430305673 -6.310435603202425e-19 0.9021532334727751
  outer loop
    vertex 2524.1249999999995 3417.8875 8251.824999999999
    vertex 3480.1968749999996 549.6718750000003 8709.025
    vertex 3480.1968749999996 2461.815625 8709.025
  endloop
endfacet
facet normal 1.0 0.0 0.0
  outer loop
    vertex 6348.412499999999 3417.8875 8201.025
    vertex 6348.412499999999 -406.4 8251.824999999999
    vertex 6348.412499999999 -406.4 8201.025
  endloop
endfacet
facet normal 1.0 0.0 0.0
  outer loop
    vertex 6348.412499999999 -406.4 8251.824999999999
    vertex 6348.412499999999 3417.8875 8201.025
    vertex 6348.412499999999 3417.8875 8251.824999999999
  endloop
endfacet
facet normal -0.0 -0.0 -1.0
  outer loop
    vertex 6348.412499999999 3417.8875 8201.025
    vertex 2524.1249999999995 -406.4 8201.025
    vertex 2524.1249999999995 3417.8875 8201.025
  endloop
endfacet
facet normal -0.0 -0.0 -1.0
  outer loop
    vertex 2524.1249999999995 -406.4 8201.025
    vertex 6348.412499999999 3417.8875 8201.025
    vertex 6348.412499999999 -406.4 8201.025
  endloop
endfacet
facet normal 0.0 0.4314157430305665 -0.9021532334727755
  outer loop
    vertex 3518.296875 1505.7437499999999 9109.915275537283
    vertex 3480.1968749999996 773.6539290196896 8759.824999999999
    vertex 3480.1968749999996 1505.7437499999999 9109.915275537283
  endloop
endfacet
facet normal 0.0 0.4314157430305665 -0.9021532334727755
  outer loop
    vertex 3480.1968749999996 773.6539290196896 8759.824999999999
    vertex 3518.296875 1505.7437499999999 9109.915275537283
    vertex 3518.296875 773.6539290196896 8759.824999999999
  endloop
endfacet
facet normal 0.0 1.0 0.0
  outer loop
    vertex 2524.1249999999995 3417.8875 8251.824999999999
    vertex 6348.412499999999 3417.8875 8201.025
    vertex 2524.1249999999995 3417.8875 8201.025
  endloop
endfacet
facet normal 0.0 1.0 0.0
  outer loop
    vertex 6348.412499999999 3417.8875 8201.025
    vertex 2524.1249999999995 3417.8875 8251.824999999999
    vertex 6348.412499999999 3417.8875 8251.824999999999
  endloop
endfacet
facet normal -0.0 -1.0 -0.0
  outer loop
    vertex 6348.412499999999 -406.4 8251.824999999999
    vertex 2524.1249999999995 -406.4 8201.025
    vertex 6348.412499999999 -406.4 8201.025
  endloop
endfacet
facet normal -0.0 -1.0 -0.0
  outer loop
    vertex 2524.1249999999995 -406.4 8201.025
    vertex 6348.412499999999 -406.4 8251.824999999999
    vertex 2524.1249999999995 -406.4 8251.824999999999
  endloop
endfacet
facet normal -1.0 -0.0 -0.0
  outer loop
    vertex 2524.1249999999995 3417.8875 8251.824999999999
    vertex 2524.1249999999995 -406.4 8201.025
    vertex 2524.1249999999995 -406.4 8251.824999999999
  endloop
endfacet
facet normal -1.0 -0.0 -0.0
  outer loop
    vertex 2524.1249999999995 -406.4 8201.025
    vertex 2524.1249999999995 3417.8875 8251.824999999999
    vertex 2524.1249999999995 3417.8875 8201.025
  endloop
endfacet
facet normal 0.0 0.43141574303056623 -0.9021532334727757
  outer loop
    vertex 5392.340625 1505.7437499999999 9109.915275537283
    vertex 5354.240624999999 773.653929019689 8759.824999999999
    vertex 5354.240624999999 1505.7437499999999 9109.915275537283
  endloop
endfacet
facet normal 0.0 0.43141574303056623 -0.9021532334727757
  outer loop
    vertex 5354.240624999999 773.653929019689 8759.824999999999
    vertex 5392.340625 1505.7437499999999 9109.915275537283
    vertex 5392.340625 773.653929019689 8759.824999999999
  endloop
endfacet
facet normal 4.327155842195967e-17 0.43141574303056734 0.9021532334727751
  outer loop
    vertex 5392.340625 1505.7437499999999 9166.225
    vertex 3480.1968749999996 2461.815625 8709.025
    vertex 3480.1968749999996 1505.7437499999999 9166.225
  endloop
endfacet
facet normal 4.327155842195967e-17 0.43141574303056734 0.9021532334727751
  outer loop
    vertex 3480.1968749999996 2461.815625 8709.025
    vertex 5392.340625 1505.7437499999999 9166.225
    vertex 5392.340625 2461.8156249999997 8709.025
  endloop
endfacet
facet normal -8.654311684391936e-17 -0.43141574303056746 0.9021532334727751
  outer loop
    vertex 5392.340625 549.6718749999997 8709.025
    vertex 3480.1968749999996 1505.7437499999999 9166.225
    vertex 3480.1968749999996 549.6718750000003 8709.025
  endloop
endfacet
facet normal -8.654311684391936e-17 -0.43141574303056746 0.9021532334727751
  outer loop
    vertex 3480.1968749999996 1505.7437499999999 9166.225
    vertex 5392.340625 549.6718749999997 8709.025
    vertex 5392.340625 1505.7437499999999 9166.225
  endloop
endfacet
facet normal 1.699310158862375e-17 0.4314157430305675 0.9021532334727751
  outer loop
    vertex 3480.1968749999996 2461.815625 8709.025
    vertex 6348.412499999999 3417.8875 8251.824999999999
    vertex 2524.1249999999995 3417.8875 8251.824999999999
  endloop
endfacet
facet normal 1.699310158862375e-17 0.4314157430305675 0.9021532334727751
  outer loop
    vertex 6348.412499999999 3417.8875 8251.824999999999
    vertex 3480.1968749999996 2461.815625 8709.025
    vertex 5392.340625 2461.8156249999997 8709.025
  endloop
endfacet
facet normal 1.0 0.0 0.0
  outer loop
    vertex 5392.340625 2461.8156249999997 8709.025
    vertex 5392.340625 773.653929019689 8759.824999999999
    vertex 5392.340625 549.6718749999997 8709.025
  endloop
endfacet
facet normal 1.0 0.0 0.0
  outer loop
    vertex 5392.340625 773.653929019689 8759.824999999999
    vertex 5392.340625 2461.8156249999997 8709.025
    vertex 5392.340625 2237.8335709803105 8759.824999999999
  endloop
endfacet
facet normal 1.0 0.0 0.0
  outer loop
    vertex 5392.340625 773.653929019689 8759.824999999999
    vertex 5392.340625 1505.7437499999999 9166.225
    vertex 5392.340625 549.6718749999997 8709.025
  endloop
endfacet
facet normal 1.0 0.0 0.0
  outer loop
    vertex 5392.340625 1505.7437499999999 9166.225
    vertex 5392.340625 773.653929019689 8759.824999999999
    vertex 5392.340625 1505.7437499999999 9109.915275537283
  endloop
endfacet
facet normal 1.0 0.0 0.0
  outer loop
    vertex 5392.340625 1505.7437499999999 9166.225
    vertex 5392.340625 1505.7437499999999 9109.915275537283
    vertex 5392.340625 2237.8335709803105 8759.824999999999
  endloop
endfacet
facet normal 1.0 0.0 0.0
  outer loop
    vertex 5392.340625 1505.7437499999999 9166.225
    vertex 5392.340625 2237.8335709803105 8759.824999999999
    vertex 5392.340625 2461.8156249999997 8709.025
  endloop
endfacet
facet normal -1.0 -0.0 -0.0
  outer loop
    vertex 3480.1968749999996 1505.7437499999999 9166.225
    vertex 3480.1968749999996 773.6539290196896 8759.824999999999
    vertex 3480.1968749999996 549.6718750000003 8709.025
  endloop
endfacet
facet normal -1.0 -0.0 -0.0
  outer loop
    vertex 3480.1968749999996 773.6539290196896 8759.824999999999
    vertex 3480.1968749999996 1505.7437499999999 9166.225
    vertex 3480.1968749999996 1505.7437499999999 9109.915275537283
  endloop
endfacet
facet normal -1.0 -0.0 -0.0
  outer loop
    vertex 3480.1968749999996 1505.7437499999999 9109.915275537283
    vertex 3480.1968749999996 1505.7437499999999 9166.225
    vertex 3480.1968749999996 2461.815625 8709.025
  endloop
endfacet
facet normal -1.0 -0.0 -0.0
  outer loop
    vertex 3480.1968749999996 1505.7437499999999 9109.915275537283
    vertex 3480.1968749999996 2461.815625 8709.025
    vertex 3480.1968749999996 2237.833570980311 8759.824999999999
  endloop
endfacet
facet normal -1.0 -0.0 -0.0
  outer loop
    vertex 3480.1968749999996 773.6539290196896 8759.824999999999
    vertex 3480.1968749999996 2461.815625 8709.025
    vertex 3480.1968749999996 549.6718750000003 8709.025
  endloop
endfacet
facet normal -1.0 -0.0 -0.0
  outer loop
    vertex 3480.1968749999996 2461.815625 8709.025
    vertex 3480.1968749999996 773.6539290196896 8759.824999999999
    vertex 3480.1968749999996 2237.833570980311 8759.824999999999
  endloop
endfacet
facet normal -0.0 -0.43141574303056623 -0.9021532334727757
  outer loop
    vertex 3518.296875 2237.833570980311 8759.824999999999
    vertex 3480.1968749999996 1505.7437499999999 9109.915275537283
    vertex 3480.1968749999996 2237.833570980311 8759.824999999999
  endloop
endfacet
facet normal -0.0 -0.43141574303056623 -0.9021532334727757
  outer loop
    vertex 3480.1968749999996 1505.7437499999999 9109.915275537283
    vertex 3518.296875 2237.833570980311 8759.824999999999
    vertex 3518.296875 1505.7437499999999 9109.915275537283
  endloop
endfacet
facet normal -3.493276851772786e-17 -0.43141574303056746 0.9021532334727751
  outer loop
    vertex 6348.412499999999 -406.4 8251.824999999999
    vertex 3480.1968749999996 549.6718750000003 8709.025
    vertex 2524.1249999999995 -406.4 8251.824999999999
  endloop
endfacet
facet normal -3.493276851772786e-17 -0.43141574303056746 0.9021532334727751
  outer loop
    vertex 3480.1968749999996 549.6718750000003 8709.025
    vertex 6348.412499999999 -406.4 8251.824999999999
    vertex 5392.340625 549.6718749999997 8709.025
  endloop
endfacet
facet normal 0.43141574303056746 3.1552178016012263e-19 0.9021532334727751
  outer loop
    vertex 6348.412499999999 -406.4 8251.824999999999
    vertex 5392.340625 2461.8156249999997 8709.025
    vertex 5392.340625 549.6718749999997 8709.025
  endloop
endfacet
facet normal 0.43141574303056746 3.1552178016012263e-19 0.9021532334727751
  outer loop
    vertex 5392.340625 2461.8156249999997 8709.025
    vertex 6348.412499999999 -406.4 8251.824999999999
    vertex 6348.412499999999 3417.8875 8251.824999999999
  endloop
endfacet
facet normal -0.0 -0.43141574303056646 -0.9021532334727755
  outer loop
    vertex 5392.340625 2237.8335709803105 8759.824999999999
    vertex 5354.240624999999 1505.7437499999999 9109.915275537283
    vertex 5354.240624999999 2237.8335709803105 8759.824999999999
  endloop
endfacet
facet normal -0.0 -0.43141574303056646 -0.9021532334727755
  outer loop
    vertex 5354.240624999999 1505.7437499999999 9109.915275537283
    vertex 5392.340625 2237.8335709803105 8759.824999999999
    vertex 5392.340625 1505.7437499999999 9109.915275537283
  endloop
endfacet
endsolid early worthington tower 2
