solid early worthington tower 2
facet normal -1.0 -0.0 -0.0
  outer loop
    vertex 5738.812500000003 965.1999999999996 5483.224999999999
    vertex 5738.812500000003 609.5999999999996 5280.025
    vertex 5738.812500000003 609.5999999999996 5483.224999999999
  endloop
endfacet
facet normal -1.0 -0.0 -0.0
  outer loop
    vertex 5738.812500000003 609.5999999999996 5280.025
    vertex 5738.812500000003 965.1999999999996 5483.224999999999
    vertex 5738.812500000003 965.1999999999996 5280.025
  endloop
endfacet
facet normal 0.0 0.0 -1.0
  outer loop
    vertex 5738.812500000003 965.1999999999996 5483.224999999999
    vertex 3133.725 609.5999999999996 5483.224999999999
    vertex 3133.725 965.1999999999996 5483.224999999999
  endloop
endfacet
facet normal 0.0 0.0 -1.0
  outer loop
    vertex 3133.725 609.5999999999996 5483.224999999999
    vertex 5738.812500000003 965.1999999999996 5483.224999999999
    vertex 5738.812500000003 609.5999999999996 5483.224999999999
  endloop
endfacet
facet normal -1.0 -0.0 -0.0
  outer loop
    vertex 5738.812500000003 2808.2874999999985 5483.224999999999
    vertex 5738.812500000003 2641.6 5280.025
    vertex 5738.812500000003 2641.6 5483.224999999999
  endloop
endfacet
facet normal -1.0 -0.0 -0.0
  outer loop
    vertex 5738.812500000003 2641.6 5280.025
    vertex 5738.812500000003 2808.2874999999985 5483.224999999999
    vertex 5738.812500000003 2808.2874999999985 5280.025
  endloop
endfacet
facet normal 0.0 0.0 -1.0
  outer loop
    vertex 5738.812500000003 1777.9999999999995 5483.224999999999
    vertex 3133.725 1422.3999999999996 5483.224999999999
    vertex 3133.725 1777.9999999999995 5483.224999999999
  endloop
endfacet
facet normal 0.0 0.0 -1.0
  outer loop
    vertex 3133.725 1422.3999999999996 5483.224999999999
    vertex 5738.812500000003 1777.9999999999995 5483.224999999999
    vertex 5738.812500000003 1422.3999999999996 5483.224999999999
  endloop
endfacet
facet normal 0.0 -1.0 0.0
  outer loop
    vertex 5738.812500000003 2184.3999999999996 5483.224999999999
    vertex 3133.725 2184.3999999999996 5280.025
    vertex 5738.812500000003 2184.3999999999996 5280.025
  endloop
endfacet
facet normal 0.0 -1.0 0.0
  outer loop
    vertex 3133.725 2184.3999999999996 5280.025
    vertex 5738.812500000003 2184.3999999999996 5483.224999999999
    vertex 3133.725 2184.3999999999996 5483.224999999999
  endloop
endfacet
facet normal 0.0 1.0 0.0
  outer loop
    vertex 3133.725 1828.7999999999995 5483.224999999999
    vertex 5738.812500000003 1828.7999999999995 5280.025
    vertex 3133.725 1828.7999999999995 5280.025
  endloop
endfacet
facet normal 0.0 1.0 0.0
  outer loop
    vertex 5738.812500000003 1828.7999999999995 5280.025
    vertex 3133.725 1828.7999999999995 5483.224999999999
    vertex 5738.812500000003 1828.7999999999995 5483.224999999999
  endloop
endfacet
facet normal 0.0 -1.0 0.0
  outer loop
    vertex 5738.812500000003 1371.5999999999995 5483.224999999999
    vertex 3133.725 1371.5999999999995 5280.025
    vertex 5738.812500000003 1371.5999999999995 5280.025
  endloop
endfacet
facet normal 0.0 -1.0 0.0
  outer loop
    vertex 3133.725 1371.5999999999995 5280.025
    vertex 5738.812500000003 1371.5999999999995 5483.224999999999
    vertex 3133.725 1371.5999999999995 5483.224999999999
  endloop
endfacet
facet normal 1.0 0.0 0.0
  outer loop
    vertex 3133.725 558.7999999999996 5280.025
    vertex 3133.725 203.19999999999962 5483.224999999999
    vertex 3133.725 203.19999999999962 5280.025
  endloop
endfacet
facet normal 1.0 0.0 0.0
  outer loop
    vertex 3133.725 203.19999999999962 5483.224999999999
    vertex 3133.725 558.7999999999996 5280.025
    vertex 3133.725 558.7999999999996 5483.224999999999
  endloop
endfacet
facet normal 1.0 0.0 0.0
  outer loop
    vertex 3133.725 2184.3999999999996 5280.025
    vertex 3133.725 1828.7999999999995 5483.224999999999
    vertex 3133.725 1828.7999999999995 5280.025
  endloop
endfacet
facet normal 1.0 0.0 0.0
  outer loop
    vertex 3133.725 1828.7999999999995 5483.224999999999
    vertex 3133.725 2184.3999999999996 5280.025
    vertex 3133.725 2184.3999999999996 5483.224999999999
  endloop
endfacet
facet normal 0.0 1.0 0.0
  outer loop
    vertex 3133.725 1422.3999999999996 5483.224999999999
    vertex 5738.812500000003 1422.3999999999996 5280.025
    vertex 3133.725 1422.3999999999996 5280.025
  endloop
endfacet
facet normal 0.0 1.0 0.0
  outer loop
    vertex 5738.812500000003 1422.3999999999996 5280.025
    vertex 3133.725 1422.3999999999996 5483.224999999999
    vertex 5738.812500000003 1422.3999999999996 5483.224999999999
  endloop
endfacet
facet normal 0.0 1.0 0.0
  outer loop
    vertex 3133.725 1015.9999999999995 5483.224999999999
    vertex 5738.812500000003 1015.9999999999995 5280.025
    vertex 3133.725 1015.9999999999995 5280.025
  endloop
endfacet
facet normal 0.0 1.0 0.0
  outer loop
    vertex 5738.812500000003 1015.9999999999995 5280.025
    vertex 3133.725 1015.9999999999995 5483.224999999999
    vertex 5738.812500000003 1015.9999999999995 5483.224999999999
  endloop
endfacet
facet normal 0.0 0.0 -1.0
  outer loop
    vertex 5738.812500000003 1371.5999999999995 5483.224999999999
    vertex 3133.725 1015.9999999999995 5483.224999999999
    vertex 3133.725 1371.5999999999995 5483.224999999999
  endloop
endfacet
facet normal 0.0 0.0 -1.0
  outer loop
    vertex 3133.725 1015.9999999999995 5483.224999999999
    vertex 5738.812500000003 1371.5999999999995 5483.224999999999
    vertex 5738.812500000003 1015.9999999999995 5483.224999999999
  endloop
endfacet
facet normal 1.0 0.0 0.0
  outer loop
    vertex 3133.725 1371.5999999999995 5280.025
    vertex 3133.725 1015.9999999999995 5483.224999999999
    vertex 3133.725 1015.9999999999995 5280.025
  endloop
endfacet
facet normal 1.0 0.0 0.0
  outer loop
    vertex 3133.725 1015.9999999999995 5483.224999999999
    vertex 3133.725 1371.5999999999995 5280.025
    vertex 3133.725 1371.5999999999995 5483.224999999999
  endloop
endfacet
facet normal -1.0 -0.0 -0.0
  outer loop
    vertex 5738.812500000003 1371.5999999999995 5483.224999999999
    vertex 5738.812500000003 1015.9999999999995 5280.025
    vertex 5738.812500000003 1015.9999999999995 5483.224999999999
  endloop
endfacet
facet normal -1.0 -0.0 -0.0
  outer loop
    vertex 5738.812500000003 1015.9999999999995 5280.025
    vertex 5738.812500000003 1371.5999999999995 5483.224999999999
    vertex 5738.812500000003 1371.5999999999995 5280.025
  endloop
endfacet
facet normal 0.0 1.0 0.0
  outer loop
    vertex 3133.725 2641.6 5483.224999999999
    vertex 5738.812500000003 2641.6 5280.025
    vertex 3133.725 2641.6 5280.025
  endloop
endfacet
facet normal 0.0 1.0 0.0
  outer loop
    vertex 5738.812500000003 2641.6 5280.025
    vertex 3133.725 2641.6 5483.224999999999
    vertex 5738.812500000003 2641.6 5483.224999999999
  endloop
endfacet
facet normal 1.0 0.0 0.0
  outer loop
    vertex 3133.725 2808.2874999999985 5280.025
    vertex 3133.725 2641.6 5483.224999999999
    vertex 3133.725 2641.6 5280.025
  endloop
endfacet
facet normal 1.0 0.0 0.0
  outer loop
    vertex 3133.725 2641.6 5483.224999999999
    vertex 3133.725 2808.2874999999985 5280.025
    vertex 3133.725 2808.2874999999985 5483.224999999999
  endloop
endfacet
facet normal 0.0 -1.0 0.0
  outer loop
    vertex 5738.812500000003 2808.2874999999985 5483.224999999999
    vertex 3133.725 2808.2874999999985 5280.025
    vertex 5738.812500000003 2808.2874999999985 5280.025
  endloop
endfacet
facet normal 0.0 -1.0 0.0
  outer loop
    vertex 3133.725 2808.2874999999985 5280.025
    vertex 5738.812500000003 2808.2874999999985 5483.224999999999
    vertex 3133.725 2808.2874999999985 5483.224999999999
  endloop
endfacet
facet normal 0.0 1.0 0.0
  outer loop
    vertex 3133.725 203.19999999999962 5483.224999999999
    vertex 5738.812500000003 203.19999999999962 5280.025
    vertex 3133.725 203.19999999999962 5280.025
  endloop
endfacet
facet normal 0.0 1.0 0.0
  outer loop
    vertex 5738.812500000003 203.19999999999962 5280.025
    vertex 3133.725 203.19999999999962 5483.224999999999
    vertex 5738.812500000003 203.19999999999962 5483.224999999999
  endloop
endfacet
facet normal 0.0 0.0 -1.0
  outer loop
    vertex 5738.812500000003 2184.3999999999996 5483.224999999999
    vertex 3133.725 1828.7999999999995 5483.224999999999
    vertex 3133.725 2184.3999999999996 5483.224999999999
  endloop
endfacet
facet normal 0.0 0.0 -1.0
  outer loop
    vertex 3133.725 1828.7999999999995 5483.224999999999
    vertex 5738.812500000003 2184.3999999999996 5483.224999999999
    vertex 5738.812500000003 1828.7999999999995 5483.224999999999
  endloop
endfacet
facet normal 1.0 0.0 0.0
  outer loop
    vertex 3133.725 965.1999999999996 5280.025
    vertex 3133.725 609.5999999999996 5483.224999999999
    vertex 3133.725 609.5999999999996 5280.025
  endloop
endfacet
facet normal 1.0 0.0 0.0
  outer loop
    vertex 3133.725 609.5999999999996 5483.224999999999
    vertex 3133.725 965.1999999999996 5280.025
    vertex 3133.725 965.1999999999996 5483.224999999999
  endloop
endfacet
facet normal 0.0 1.0 0.0
  outer loop
    vertex 3133.725 609.5999999999996 5483.224999999999
    vertex 5738.812500000003 609.5999999999996 5280.025
    vertex 3133.725 609.5999999999996 5280.025
  endloop
endfacet
facet normal 0.0 1.0 0.0
  outer loop
    vertex 5738.812500000003 609.5999999999996 5280.025
    vertex 3133.725 609.5999999999996 5483.224999999999
    vertex 5738.812500000003 609.5999999999996 5483.224999999999
  endloop
endfacet
facet normal -1.0 -0.0 -0.0
  outer loop
    vertex 5738.812500000003 1777.9999999999995 5483.224999999999
    vertex 5738.812500000003 1422.3999999999996 5280.025
    vertex 5738.812500000003 1422.3999999999996 5483.224999999999
  endloop
endfacet
facet normal -1.0 -0.0 -0.0
  outer loop
    vertex 5738.812500000003 1422.3999999999996 5280.025
    vertex 5738.812500000003 1777.9999999999995 5483.224999999999
    vertex 5738.812500000003 1777.9999999999995 5280.025
  endloop
endfacet
facet normal 0.0 -1.0 0.0
  outer loop
    vertex 5738.812500000003 1777.9999999999995 5483.224999999999
    vertex 3133.725 1777.9999999999995 5280.025
    vertex 5738.812500000003 1777.9999999999995 5280.025
  endloop
endfacet
facet normal 0.0 -1.0 0.0
  outer loop
    vertex 3133.725 1777.9999999999995 5280.025
    vertex 5738.812500000003 1777.9999999999995 5483.224999999999
    vertex 3133.725 1777.9999999999995 5483.224999999999
  endloop
endfacet
facet normal 1.0 0.0 0.0
  outer loop
    vertex 3133.725 1777.9999999999995 5280.025
    vertex 3133.725 1422.3999999999996 5483.224999999999
    vertex 3133.725 1422.3999999999996 5280.025
  endloop
endfacet
facet normal 1.0 0.0 0.0
  outer loop
    vertex 3133.725 1422.3999999999996 5483.224999999999
    vertex 3133.725 1777.9999999999995 5280.025
    vertex 3133.725 1777.9999999999995 5483.224999999999
  endloop
endfacet
facet normal -1.0 -0.0 -0.0
  outer loop
    vertex 5738.812500000003 2184.3999999999996 5483.224999999999
    vertex 5738.812500000003 1828.7999999999995 5280.025
    vertex 5738.812500000003 1828.7999999999995 5483.224999999999
  endloop
endfacet
facet normal -1.0 -0.0 -0.0
  outer loop
    vertex 5738.812500000003 1828.7999999999995 5280.025
    vertex 5738.812500000003 2184.3999999999996 5483.224999999999
    vertex 5738.812500000003 2184.3999999999996 5280.025
  endloop
endfacet
facet normal 0.0 0.0 -1.0
  outer loop
    vertex 5738.812500000003 2808.2874999999985 5483.224999999999
    vertex 3133.725 2641.6 5483.224999999999
    vertex 3133.725 2808.2874999999985 5483.224999999999
  endloop
endfacet
facet normal 0.0 0.0 -1.0
  outer loop
    vertex 3133.725 2641.6 5483.224999999999
    vertex 5738.812500000003 2808.2874999999985 5483.224999999999
    vertex 5738.812500000003 2641.6 5483.224999999999
  endloop
endfacet
facet normal 0.0 0.0 -1.0
  outer loop
    vertex 5738.812500000003 558.7999999999996 5483.224999999999
    vertex 3133.725 203.19999999999962 5483.224999999999
    vertex 3133.725 558.7999999999996 5483.224999999999
  endloop
endfacet
facet normal 0.0 0.0 -1.0
  outer loop
    vertex 3133.725 203.19999999999962 5483.224999999999
    vertex 5738.812500000003 558.7999999999996 5483.224999999999
    vertex 5738.812500000003 203.19999999999962 5483.224999999999
  endloop
endfacet
facet normal 0.0 -1.0 0.0
  outer loop
    vertex 5738.812500000003 558.7999999999996 5483.224999999999
    vertex 3133.725 558.7999999999996 5280.025
    vertex 5738.812500000003 558.7999999999996 5280.025
  endloop
endfacet
facet normal 0.0 -1.0 0.0
  outer loop
    vertex 3133.725 558.7999999999996 5280.025
    vertex 5738.812500000003 558.7999999999996 5483.224999999999
    vertex 3133.725 558.7999999999996 5483.224999999999
  endloop
endfacet
facet normal -1.0 -0.0 -0.0
  outer loop
    vertex 5738.812500000003 558.7999999999996 5483.224999999999
    vertex 5738.812500000003 203.19999999999962 5280.025
    vertex 5738.812500000003 203.19999999999962 5483.224999999999
  endloop
endfacet
facet normal -1.0 -0.0 -0.0
  outer loop
    vertex 5738.812500000003 203.19999999999962 5280.025
    vertex 5738.812500000003 558.7999999999996 5483.224999999999
    vertex 5738.812500000003 558.7999999999996 5280.025
  endloop
endfacet
facet normal 0.0 -1.0 0.0
  outer loop
    vertex 5738.812500000003 965.1999999999996 5483.224999999999
    vertex 3133.725 965.1999999999996 5280.025
    vertex 5738.812500000003 965.1999999999996 5280.025
  endloop
endfacet
facet normal 0.0 -1.0 0.0
  outer loop
    vertex 3133.725 965.1999999999996 5280.025
    vertex 5738.812500000003 965.1999999999996 5483.224999999999
    vertex 3133.725 965.1999999999996 5483.224999999999
  endloop
endfacet
facet normal 0.0 -1.0 0.0
  outer loop
    vertex 5738.812500000003 2590.7999999999993 5483.224999999999
    vertex 3133.725 2590.7999999999993 5280.025
    vertex 5738.812500000003 2590.7999999999993 5280.025
  endloop
endfacet
facet normal 0.0 -1.0 0.0
  outer loop
    vertex 3133.725 2590.7999999999993 5280.025
    vertex 5738.812500000003 2590.7999999999993 5483.224999999999
    vertex 3133.725 2590.7999999999993 5483.224999999999
  endloop
endfacet
facet normal 0.0 0.0 -1.0
  outer loop
    vertex 5738.812500000003 2590.7999999999993 5483.224999999999
    vertex 3133.725 2235.1999999999994 5483.224999999999
    vertex 3133.725 2590.7999999999993 5483.224999999999
  endloop
endfacet
facet normal 0.0 0.0 -1.0
  outer loop
    vertex 3133.725 2235.1999999999994 5483.224999999999
    vertex 5738.812500000003 2590.7999999999993 5483.224999999999
    vertex 5738.812500000003 2235.1999999999994 5483.224999999999
  endloop
endfacet
facet normal 0.0 0.0 1.0
  outer loop
    vertex 5789.612500000003 152.39999999999964 5584.825
    vertex 3082.9249999999997 2859.0874999999983 5584.825
    vertex 3082.9249999999997 152.39999999999964 5584.825
  endloop
endfacet
facet normal 0.0 0.0 1.0
  outer loop
    vertex 3082.9249999999997 2859.0874999999983 5584.825
    vertex 5789.612500000003 152.39999999999964 5584.825
    vertex 5789.612500000003 2859.0874999999983 5584.825
  endloop
endfacet
facet normal 1.0 0.0 0.0
  outer loop
    vertex 3133.725 2590.7999999999993 5280.025
    vertex 3133.725 2235.1999999999994 5483.224999999999
    vertex 3133.725 2235.1999999999994 5280.025
  endloop
endfacet
facet normal 1.0 0.0 0.0
  outer loop
    vertex 3133.725 2235.1999999999994 5483.224999999999
    vertex 3133.725 2590.7999999999993 5280.025
    vertex 3133.725 2590.7999999999993 5483.224999999999
  endloop
endfacet
facet normal 0.0 1.0 0.0
  outer loop
    vertex 3133.725 2235.1999999999994 5483.224999999999
    vertex 5738.812500000003 2235.1999999999994 5280.025
    vertex 3133.725 2235.1999999999994 5280.025
  endloop
endfacet
facet normal 0.0 1.0 0.0
  outer loop
    vertex 5738.812500000003 2235.1999999999994 5280.025
    vertex 3133.725 2235.1999999999994 5483.224999999999
    vertex 5738.812500000003 2235.1999999999994 5483.224999999999
  endloop
endfacet
facet normal -1.0 -0.0 -0.0
  outer loop
    vertex 5738.812500000003 2590.7999999999993 5483.224999999999
    vertex 5738.812500000003 2235.1999999999994 5280.025
    vertex 5738.812500000003 2235.1999999999994 5483.224999999999
  endloop
endfacet
facet normal -1.0 -0.0 -0.0
  outer loop
    vertex 5738.812500000003 2235.1999999999994 5280.025
    vertex 5738.812500000003 2590.7999999999993 5483.224999999999
    vertex 5738.812500000003 2590.7999999999993 5280.025
  endloop
endfacet
facet normal 0.0 1.0 0.0
  outer loop
    vertex 3082.9249999999997 2859.0874999999983 5584.825
    vertex 5789.612500000003 2859.0874999999983 5280.025
    vertex 3082.9249999999997 2859.0874999999983 5280.025
  endloop
endfacet
facet normal 0.0 1.0 0.0
  outer loop
    vertex 5789.612500000003 2859.0874999999983 5280.025
    vertex 3082.9249999999997 2859.0874999999983 5584.825
    vertex 5789.612500000003 2859.0874999999983 5584.825
  endloop
endfacet
facet normal 1.0 0.0 0.0
  outer loop
    vertex 5789.612500000003 2859.0874999999983 5280.025
    vertex 5789.612500000003 152.39999999999964 5584.825
    vertex 5789.612500000003 152.39999999999964 5280.025
  endloop
endfacet
facet normal 1.0 0.0 0.0
  outer loop
    vertex 5789.612500000003 152.39999999999964 5584.825
    vertex 5789.612500000003 2859.0874999999983 5280.025
    vertex 5789.612500000003 2859.0874999999983 5584.825
  endloop
endfacet
facet normal -0.0 -1.0 -0.0
  outer loop
    vertex 5789.612500000003 152.39999999999964 5584.825
    vertex 3082.9249999999997 152.39999999999964 5280.025
    vertex 5789.612500000003 152.39999999999964 5280.025
  endloop
endfacet
facet normal -0.0 -1.0 -0.0
  outer loop
    vertex 3082.9249999999997 152.39999999999964 5280.025
    vertex 5789.612500000003 152.39999999999964 5584.825
    vertex 3082.9249999999997 152.39999999999964 5584.825
  endloop
endfacet
facet normal 0.0 0.0 -1.0
  outer loop
    vertex 3082.9249999999997 2859.0874999999983 5280.025
    vertex 3133.725 2808.2874999999985 5280.025
    vertex 3082.9249999999997 152.39999999999964 5280.025
  endloop
endfacet
facet normal 0.0 0.0 -1.0
  outer loop
    vertex 3133.725 2808.2874999999985 5280.025
    vertex 3082.9249999999997 2859.0874999999983 5280.025
    vertex 5789.612500000003 2859.0874999999983 5280.025
  endloop
endfacet
facet normal 0.0 0.0 -1.0
  outer loop
    vertex 3133.725 2808.2874999999985 5280.025
    vertex 5789.612500000003 2859.0874999999983 5280.025
    vertex 5738.812500000003 2808.2874999999985 5280.025
  endloop
endfacet
facet normal 0.0 0.0 -1.0
  outer loop
    vertex 5738.812500000003 2808.2874999999985 5280.025
    vertex 5789.612500000003 2859.0874999999983 5280.025
    vertex 5738.812500000003 2641.6 5280.025
  endloop
endfacet
facet normal 0.0 0.0 -1.0
  outer loop
    vertex 5738.812500000003 2641.6 5280.025
    vertex 5789.612500000003 2859.0874999999983 5280.025
    vertex 5738.812500000003 2590.7999999999993 5280.025
  endloop
endfacet
facet normal 0.0 0.0 -1.0
  outer loop
    vertex 5738.812500000003 2590.7999999999993 5280.025
    vertex 5789.612500000003 2859.0874999999983 5280.025
    vertex 5738.812500000003 2235.1999999999994 5280.025
  endloop
endfacet
facet normal 0.0 0.0 -1.0
  outer loop
    vertex 5738.812500000003 2235.1999999999994 5280.025
    vertex 5789.612500000003 2859.0874999999983 5280.025
    vertex 5738.812500000003 2184.3999999999996 5280.025
  endloop
endfacet
facet normal 0.0 0.0 -1.0
  outer loop
    vertex 5738.812500000003 2184.3999999999996 5280.025
    vertex 5789.612500000003 2859.0874999999983 5280.025
    vertex 5738.812500000003 1828.7999999999995 5280.025
  endloop
endfacet
facet normal 0.0 0.0 -1.0
  outer loop
    vertex 5738.812500000003 1828.7999999999995 5280.025
    vertex 5789.612500000003 2859.0874999999983 5280.025
    vertex 5738.812500000003 1777.9999999999995 5280.025
  endloop
endfacet
facet normal 0.0 0.0 -1.0
  outer loop
    vertex 5738.812500000003 1777.9999999999995 5280.025
    vertex 5789.612500000003 2859.0874999999983 5280.025
    vertex 5738.812500000003 1422.3999999999996 5280.025
  endloop
endfacet
facet normal 0.0 0.0 -1.0
  outer loop
    vertex 5738.812500000003 1422.3999999999996 5280.025
    vertex 5789.612500000003 2859.0874999999983 5280.025
    vertex 5738.812500000003 1371.5999999999995 5280.025
  endloop
endfacet
facet normal 0.0 0.0 -1.0
  outer loop
    vertex 5738.812500000003 1371.5999999999995 5280.025
    vertex 5789.612500000003 2859.0874999999983 5280.025
    vertex 5738.812500000003 1015.9999999999995 5280.025
  endloop
endfacet
facet normal 0.0 0.0 -1.0
  outer loop
    vertex 5738.812500000003 1015.9999999999995 5280.025
    vertex 5789.612500000003 2859.0874999999983 5280.025
    vertex 5738.812500000003 965.1999999999996 5280.025
  endloop
endfacet
facet normal 0.0 0.0 -1.0
  outer loop
    vertex 5738.812500000003 965.1999999999996 5280.025
    vertex 5789.612500000003 2859.0874999999983 5280.025
    vertex 5738.812500000003 609.5999999999996 5280.025
  endloop
endfacet
facet normal 0.0 0.0 -1.0
  outer loop
    vertex 5738.812500000003 609.5999999999996 5280.025
    vertex 5789.612500000003 2859.0874999999983 5280.025
    vertex 5738.812500000003 558.7999999999996 5280.025
  endloop
endfacet
facet normal 0.0 0.0 -1.0
  outer loop
    vertex 5738.812500000003 558.7999999999996 5280.025
    vertex 5789.612500000003 2859.0874999999983 5280.025
    vertex 5738.812500000003 203.19999999999962 5280.025
  endloop
endfacet
facet normal 0.0 0.0 -1.0
  outer loop
    vertex 3082.9249999999997 152.39999999999964 5280.025
    vertex 3133.725 203.19999999999962 5280.025
    vertex 5789.612500000003 152.39999999999964 5280.025
  endloop
endfacet
facet normal 0.0 0.0 -1.0
  outer loop
    vertex 3133.725 203.19999999999962 5280.025
    vertex 3082.9249999999997 152.39999999999964 5280.025
    vertex 3133.725 2808.2874999999985 5280.025
  endloop
endfacet
facet normal 0.0 0.0 -1.0
  outer loop
    vertex 3133.725 203.19999999999962 5280.025
    vertex 3133.725 2808.2874999999985 5280.025
    vertex 3133.725 2641.6 5280.025
  endloop
endfacet
facet normal 0.0 0.0 -1.0
  outer loop
    vertex 3133.725 203.19999999999962 5280.025
    vertex 3133.725 2641.6 5280.025
    vertex 3133.725 2590.7999999999993 5280.025
  endloop
endfacet
facet normal 0.0 0.0 -1.0
  outer loop
    vertex 3133.725 203.19999999999962 5280.025
    vertex 3133.725 2590.7999999999993 5280.025
    vertex 3133.725 2235.1999999999994 5280.025
  endloop
endfacet
facet normal 0.0 0.0 -1.0
  outer loop
    vertex 3133.725 203.19999999999962 5280.025
    vertex 3133.725 2235.1999999999994 5280.025
    vertex 3133.725 2184.3999999999996 5280.025
  endloop
endfacet
facet normal 0.0 0.0 -1.0
  outer loop
    vertex 3133.725 203.19999999999962 5280.025
    vertex 3133.725 2184.3999999999996 5280.025
    vertex 3133.725 1828.7999999999995 5280.025
  endloop
endfacet
facet normal 0.0 0.0 -1.0
  outer loop
    vertex 3133.725 203.19999999999962 5280.025
    vertex 3133.725 1828.7999999999995 5280.025
    vertex 3133.725 1777.9999999999995 5280.025
  endloop
endfacet
facet normal 0.0 0.0 -1.0
  outer loop
    vertex 3133.725 203.19999999999962 5280.025
    vertex 3133.725 1777.9999999999995 5280.025
    vertex 3133.725 1422.3999999999996 5280.025
  endloop
endfacet
facet normal 0.0 0.0 -1.0
  outer loop
    vertex 3133.725 203.19999999999962 5280.025
    vertex 3133.725 1422.3999999999996 5280.025
    vertex 3133.725 1371.5999999999995 5280.025
  endloop
endfacet
facet normal 0.0 0.0 -1.0
  outer loop
    vertex 3133.725 203.19999999999962 5280.025
    vertex 3133.725 1371.5999999999995 5280.025
    vertex 3133.725 1015.9999999999995 5280.025
  endloop
endfacet
facet normal 0.0 0.0 -1.0
  outer loop
    vertex 3133.725 203.19999999999962 5280.025
    vertex 3133.725 1015.9999999999995 5280.025
    vertex 3133.725 965.1999999999996 5280.025
  endloop
endfacet
facet normal 0.0 0.0 -1.0
  outer loop
    vertex 3133.725 203.19999999999962 5280.025
    vertex 3133.725 965.1999999999996 5280.025
    vertex 3133.725 609.5999999999996 5280.025
  endloop
endfacet
facet normal 0.0 0.0 -1.0
  outer loop
    vertex 3133.725 203.19999999999962 5280.025
    vertex 3133.725 609.5999999999996 5280.025
    vertex 3133.725 558.7999999999996 5280.025
  endloop
endfacet
facet normal 0.0 0.0 -1.0
  outer loop
    vertex 5789.612500000003 152.39999999999964 5280.025
    vertex 3133.725 203.19999999999962 5280.025
    vertex 5738.812500000003 203.19999999999962 5280.025
  endloop
endfacet
facet normal 0.0 0.0 -1.0
  outer loop
    vertex 5789.612500000003 152.39999999999964 5280.025
    vertex 5738.812500000003 203.19999999999962 5280.025
    vertex 5789.612500000003 2859.0874999999983 5280.025
  endloop
endfacet
facet normal 0.0 0.0 -1.0
  outer loop
    vertex 5738.812500000003 609.5999999999996 5280.025
    vertex 3133.725 558.7999999999996 5280.025
    vertex 3133.725 609.5999999999996 5280.025
  endloop
endfacet
facet normal 0.0 0.0 -1.0
  outer loop
    vertex 3133.725 558.7999999999996 5280.025
    vertex 5738.812500000003 609.5999999999996 5280.025
    vertex 5738.812500000003 558.7999999999996 5280.025
  endloop
endfacet
facet normal 0.0 0.0 -1.0
  outer loop
    vertex 5738.812500000003 1015.9999999999995 5280.025
    vertex 3133.725 965.1999999999996 5280.025
    vertex 3133.725 1015.9999999999995 5280.025
  endloop
endfacet
facet normal 0.0 0.0 -1.0
  outer loop
    vertex 3133.725 965.1999999999996 5280.025
    vertex 5738.812500000003 1015.9999999999995 5280.025
    vertex 5738.812500000003 965.1999999999996 5280.025
  endloop
endfacet
facet normal 0.0 0.0 -1.0
  outer loop
    vertex 5738.812500000003 1422.3999999999996 5280.025
    vertex 3133.725 1371.5999999999995 5280.025
    vertex 3133.725 1422.3999999999996 5280.025
  endloop
endfacet
facet normal 0.0 0.0 -1.0
  outer loop
    vertex 3133.725 1371.5999999999995 5280.025
    vertex 5738.812500000003 1422.3999999999996 5280.025
    vertex 5738.812500000003 1371.5999999999995 5280.025
  endloop
endfacet
facet normal 0.0 0.0 -1.0
  outer loop
    vertex 5738.812500000003 1828.7999999999995 5280.025
    vertex 3133.725 1777.9999999999995 5280.025
    vertex 3133.725 1828.7999999999995 5280.025
  endloop
endfacet
facet normal 0.0 0.0 -1.0
  outer loop
    vertex 3133.725 1777.9999999999995 5280.025
    vertex 5738.812500000003 1828.7999999999995 5280.025
    vertex 5738.812500000003 1777.9999999999995 5280.025
  endloop
endfacet
facet normal 0.0 0.0 -1.0
  outer loop
    vertex 5738.812500000003 2235.1999999999994 5280.025
    vertex 3133.725 2184.3999999999996 5280.025
    vertex 3133.725 2235.1999999999994 5280.025
  endloop
endfacet
facet normal 0.0 0.0 -1.0
  outer loop
    vertex 3133.725 2184.3999999999996 5280.025
    vertex 5738.812500000003 2235.1999999999994 5280.025
    vertex 5738.812500000003 2184.3999999999996 5280.025
  endloop
endfacet
facet normal 0.0 0.0 -1.0
  outer loop
    vertex 5738.812500000003 2641.6 5280.025
    vertex 3133.725 2590.7999999999993 5280.025
    vertex 3133.725 2641.6 5280.025
  endloop
endfacet
facet normal 0.0 0.0 -1.0
  outer loop
    vertex 3133.725 2590.7999999999993 5280.025
    vertex 5738.812500000003 2641.6 5280.025
    vertex 5738.812500000003 2590.7999999999993 5280.025
  endloop
endfacet
facet normal -1.0 0.0 0.0
  outer loop
    vertex 3082.9249999999997 2859.0874999999983 5584.825
    vertex 3082.9249999999997 152.39999999999964 5280.025
    vertex 3082.9249999999997 152.39999999999964 5584.825
  endloop
endfacet
facet normal -1.0 0.0 0.0
  outer loop
    vertex 3082.9249999999997 152.39999999999964 5280.025
    vertex 3082.9249999999997 2859.0874999999983 5584.825
    vertex 3082.9249999999997 2859.0874999999983 5280.025
  endloop
endfacet
endsolid early worthington tower 2
