solid worthington-tower
facet normal -0.6164268572583341 0.6904763787895796 -0.3784974240126905
  outer loop
    vertex -98.6142502843438 4720.08353057403 6030.420837247437
    vertex -98.61425028434384 4707.87412499999 6008.147750000076
    vertex -111.8904907019016 4707.891793038986 6029.801874970057
  endloop
endfacet
facet normal 0.9999991144850271 0.0013308001960602377 -7.779333491861359e-16
  outer loop
    vertex 8066.530109297044 -105.41000000009502 5855.747750000007
    vertex 8066.460010777297 -52.73608405020331 6008.147750000007
    vertex 8066.530109297044 -105.41000000009699 6008.147750000006
  endloop
endfacet
facet normal 0.9999991144850271 0.0013308001960602377 -7.779333491861359e-16
  outer loop
    vertex 8066.460010777297 -52.73608405020331 6008.147750000007
    vertex 8066.530109297044 -105.41000000009502 5855.747750000007
    vertex 8060.124584167612 4707.874124999993 5855.747750000062
  endloop
endfacet
facet normal 0.9999991144850271 0.0013308001960602377 -7.779333491861359e-16
  outer loop
    vertex 8066.460010777297 -52.73608405020331 6008.147750000007
    vertex 8060.124584167612 4707.874124999993 5855.747750000062
    vertex 8060.1946032927435 4655.259868302516 6008.147750000062
  endloop
endfacet
facet normal 0.9999991144850271 0.0013308001960602377 -7.779333491861359e-16
  outer loop
    vertex 8060.1946032927435 4655.259868302516 6008.147750000062
    vertex 8060.124584167612 4707.874124999993 5855.747750000062
    vertex 8060.124584167612 4707.87412499999 6008.147750000062
  endloop
endfacet
facet normal -0.9999991144850271 0.0013308001960602516 8.122641327835167e-16
  outer loop
    vertex -104.94967689402964 -52.73608405020287 6008.147750000007
    vertex -105.01977541377617 -105.41000000009502 5855.747750000007
    vertex -105.01977541377606 -105.41000000009699 6008.147750000006
  endloop
endfacet
facet normal -0.9999991144850271 0.0013308001960602516 8.122641327835167e-16
  outer loop
    vertex -105.01977541377617 -105.41000000009502 5855.747750000007
    vertex -104.94967689402964 -52.73608405020287 6008.147750000007
    vertex -98.61425028434397 4707.874124999993 5855.747750000075
  endloop
endfacet
facet normal -0.9999991144850271 0.0013308001960602516 8.122641327835167e-16
  outer loop
    vertex -98.61425028434397 4707.874124999993 5855.747750000075
    vertex -104.94967689402964 -52.73608405020287 6008.147750000007
    vertex -98.68426940947546 4655.259868302517 6008.147750000075
  endloop
endfacet
facet normal -0.9999991144850271 0.0013308001960602516 8.122641327835167e-16
  outer loop
    vertex -98.61425028434397 4707.874124999993 5855.747750000075
    vertex -98.68426940947546 4655.259868302517 6008.147750000075
    vertex -98.61425028434384 4707.87412499999 6008.147750000076
  endloop
endfacet
facet normal -0.0 -1.0 -1.2898549195820302e-14
  outer loop
    vertex 8066.530109297044 -105.41000000009699 6008.147750000006
    vertex -105.01977541377617 -105.41000000009502 5855.747750000007
    vertex 8066.530109297044 -105.41000000009502 5855.747750000007
  endloop
endfacet
facet normal -0.0 -1.0 -1.2898549195820302e-14
  outer loop
    vertex -105.01977541377617 -105.41000000009502 5855.747750000007
    vertex 8066.530109297044 -105.41000000009699 6008.147750000006
    vertex -105.01977541377606 -105.41000000009699 6008.147750000006
  endloop
endfacet
facet normal -0.0 -1.0 -1.2898549195820302e-14
  outer loop
    vertex -105.01977541377606 -105.41000000009699 6008.147750000006
    vertex 8066.530109297044 -105.41000000009699 6008.147750000006
    vertex 8018.08889531039 -105.41000000009697 6008.147750000006
  endloop
endfacet
facet normal -0.0 -1.0 -1.2898549195820302e-14
  outer loop
    vertex -105.01977541377606 -105.41000000009699 6008.147750000006
    vertex 8018.08889531039 -105.41000000009697 6008.147750000006
    vertex -56.578561427122786 -105.4100000000971 6008.147750000006
  endloop
endfacet
facet normal -7.950994450572897e-16 1.2898549195820302e-14 -1.0
  outer loop
    vertex -98.61425028434397 4707.874124999993 5855.747750000075
    vertex 8066.530109297044 -105.41000000009502 5855.747750000007
    vertex -105.01977541377617 -105.41000000009502 5855.747750000007
  endloop
endfacet
facet normal -7.950994450572897e-16 1.2898549195820302e-14 -1.0
  outer loop
    vertex 8066.530109297044 -105.41000000009502 5855.747750000007
    vertex -98.61425028434397 4707.874124999993 5855.747750000075
    vertex 8060.124584167612 4707.874124999993 5855.747750000062
  endloop
endfacet
facet normal 2.0543491179021543e-29 1.0 1.2898549195820304e-14
  outer loop
    vertex -98.61425028434397 4707.874124999993 5855.747750000075
    vertex -50.22790152957557 4707.874124999991 6008.147750000075
    vertex 8011.738235412842 4707.87412499999 6008.147750000062
  endloop
endfacet
facet normal 2.0543491179021543e-29 1.0 1.2898549195820304e-14
  outer loop
    vertex -50.22790152957557 4707.874124999991 6008.147750000075
    vertex -98.61425028434397 4707.874124999993 5855.747750000075
    vertex -98.61425028434384 4707.87412499999 6008.147750000076
  endloop
endfacet
facet normal 2.0543491179021543e-29 1.0 1.2898549195820304e-14
  outer loop
    vertex -98.61425028434397 4707.874124999993 5855.747750000075
    vertex 8060.124584167612 4707.87412499999 6008.147750000062
    vertex 8060.124584167612 4707.874124999993 5855.747750000062
  endloop
endfacet
facet normal 2.0543491179021543e-29 1.0 1.2898549195820304e-14
  outer loop
    vertex 8060.124584167612 4707.87412499999 6008.147750000062
    vertex -98.61425028434397 4707.874124999993 5855.747750000075
    vertex 8011.738235412842 4707.87412499999 6008.147750000062
  endloop
endfacet
facet normal -0.2795549488563327 0.2574628683303717 0.9249658923447022
  outer loop
    vertex 2036.6533968287083 2301.249730538941 7349.047325152888
    vertex -98.6142502843438 4720.08353057403 6030.420837247437
    vertex -111.8904907019016 4707.891793038986 6029.801874970057
  endloop
endfacet
facet normal -0.2795549488563327 0.2574628683303717 0.9249658923447022
  outer loop
    vertex -98.6142502843438 4720.08353057403 6030.420837247437
    vertex 2036.6533968287083 2301.249730538941 7349.047325152888
    vertex 2049.9296372462663 2313.4414680739856 7349.666287430267
  endloop
endfacet
facet normal 0.6175643754659139 -0.6896943350810155 -0.37806873225982585
  outer loop
    vertex 8066.530109297044 -117.61940557413756 6030.420837247368
    vertex 8066.530109297044 -105.41000000009699 6008.147750000006
    vertex 8079.806349714601 -105.3923319611013 6029.801874969989
  endloop
endfacet
facet normal -0.6175643754659028 -0.6896943350810233 -0.37806873225982934
  outer loop
    vertex -105.01977541377605 -117.61940557413756 6030.420837247368
    vertex -118.29601583133382 -105.39233196110135 6029.801874969989
    vertex -105.01977541377606 -105.41000000009699 6008.147750000006
  endloop
endfacet
facet normal 1.6137369118116684e-15 0.4806852588204776 0.8768931987150378
  outer loop
    vertex 2068.4893411039275 2334.6416933709884 7309.079091821845
    vertex 8011.738235412842 4707.87412499999 6008.147750000062
    vertex -50.22790152957557 4707.874124999991 6008.147750000075
  endloop
endfacet
facet normal 1.6137369118116684e-15 0.4806852588204776 0.8768931987150378
  outer loop
    vertex 8011.738235412842 4707.87412499999 6008.147750000062
    vertex 2068.4893411039275 2334.6416933709884 7309.079091821845
    vertex 5893.02099277934 2334.6416933709884 7309.079091821833
  endloop
endfacet
facet normal -0.5226866306125103 0.0006955920864422434 0.8525246051174069
  outer loop
    vertex -72.42011408167443 -16.4071504432117 6028.0621282608245
    vertex -98.68426940947546 4655.259868302517 6008.147750000075
    vertex -104.94967689402964 -52.73608405020287 6008.147750000007
  endloop
endfacet
facet normal -0.5226866306125103 0.0006955920864422434 0.8525246051174069
  outer loop
    vertex -98.68426940947546 4655.259868302517 6008.147750000075
    vertex -72.42011408167443 -16.4071504432117 6028.0621282608245
    vertex 2002.8612997389293 2301.261892126156 7298.535368582719
  endloop
endfacet
facet normal -2.025470854130737e-14 0.8768931987150378 -0.48068525882047747
  outer loop
    vertex -98.61425028434384 4707.87412499999 6008.147750000076
    vertex -50.227901529575526 4720.083530574031 6030.420837247437
    vertex -50.22790152957557 4707.874124999991 6008.147750000075
  endloop
endfacet
facet normal -2.025470854130737e-14 0.8768931987150378 -0.48068525882047747
  outer loop
    vertex -50.227901529575526 4720.083530574031 6030.420837247437
    vertex -98.61425028434384 4707.87412499999 6008.147750000076
    vertex -98.6142502843438 4720.08353057403 6030.420837247437
  endloop
endfacet
facet normal 0.787412172658395 0.5405405186351177 -0.2963073034251168
  outer loop
    vertex -50.22790152957557 4707.874124999991 6008.147750000075
    vertex 2068.4893411039275 2346.8510989450283 7331.3521790692075
    vertex 2068.4893411039275 2334.6416933709884 7309.079091821845
  endloop
endfacet
facet normal 0.787412172658395 0.5405405186351177 -0.2963073034251168
  outer loop
    vertex 2068.4893411039275 2346.8510989450283 7331.3521790692075
    vertex -50.22790152957557 4707.874124999991 6008.147750000075
    vertex -50.227901529575526 4720.083530574031 6030.420837247437
  endloop
endfacet
facet normal -1.6331984579192964e-15 0.8768931987150377 -0.4806852588204774
  outer loop
    vertex 2068.4893411039275 2334.6416933709884 7309.079091821845
    vertex 5893.02099277934 2346.8510989450283 7331.352179069195
    vertex 5893.02099277934 2334.6416933709884 7309.079091821833
  endloop
endfacet
facet normal -1.6331984579192964e-15 0.8768931987150377 -0.4806852588204774
  outer loop
    vertex 5893.02099277934 2346.8510989450283 7331.352179069195
    vertex 2068.4893411039275 2334.6416933709884 7309.079091821845
    vertex 2068.4893411039275 2346.8510989450283 7331.3521790692075
  endloop
endfacet
facet normal -0.787412172658384 0.5405405186352825 -0.29630730342484496
  outer loop
    vertex 5893.02099277934 2346.8510989450283 7331.352179069195
    vertex 8011.738235412842 4707.87412499999 6008.147750000062
    vertex 5893.02099277934 2334.6416933709884 7309.079091821833
  endloop
endfacet
facet normal -0.787412172658384 0.5405405186352825 -0.29630730342484496
  outer loop
    vertex 8011.738235412842 4707.87412499999 6008.147750000062
    vertex 5893.02099277934 2346.8510989450283 7331.352179069195
    vertex 8011.738235412842 4720.08353057403 6030.420837247424
  endloop
endfacet
facet normal 0.0 0.8768931987150377 -0.48068525882047747
  outer loop
    vertex 8011.738235412842 4720.08353057403 6030.420837247424
    vertex 8060.124584167612 4707.87412499999 6008.147750000062
    vertex 8011.738235412842 4707.87412499999 6008.147750000062
  endloop
endfacet
facet normal 0.0 0.8768931987150377 -0.48068525882047747
  outer loop
    vertex 8060.124584167612 4707.87412499999 6008.147750000062
    vertex 8011.738235412842 4720.08353057403 6030.420837247424
    vertex 8060.124584167612 4720.08353057403 6030.420837247424
  endloop
endfacet
facet normal 1.650851948652949e-15 0.48068525882047747 0.8768931987150378
  outer loop
    vertex 2049.9296372462663 2313.4414680739856 7349.666287430267
    vertex -50.227901529575526 4720.083530574031 6030.420837247437
    vertex -98.6142502843438 4720.08353057403 6030.420837247437
  endloop
endfacet
facet normal 1.650851948652949e-15 0.48068525882047747 0.8768931987150378
  outer loop
    vertex -50.227901529575526 4720.083530574031 6030.420837247437
    vertex 2049.9296372462663 2313.4414680739856 7349.666287430267
    vertex 2068.4893411039275 2346.8510989450283 7331.3521790692075
  endloop
endfacet
facet normal 1.650851948652949e-15 0.48068525882047747 0.8768931987150378
  outer loop
    vertex 2068.4893411039275 2346.8510989450283 7331.3521790692075
    vertex 2049.9296372462663 2313.4414680739856 7349.666287430267
    vertex 5911.580696637001 2313.4414680739856 7349.666287430255
  endloop
endfacet
facet normal 1.650851948652949e-15 0.48068525882047747 0.8768931987150378
  outer loop
    vertex 2068.4893411039275 2346.8510989450283 7331.3521790692075
    vertex 5911.580696637001 2313.4414680739856 7349.666287430255
    vertex 5893.02099277934 2346.8510989450283 7331.352179069195
  endloop
endfacet
facet normal 1.650851948652949e-15 0.48068525882047747 0.8768931987150378
  outer loop
    vertex 5893.02099277934 2346.8510989450283 7331.352179069195
    vertex 5911.580696637001 2313.4414680739856 7349.666287430255
    vertex 8011.738235412842 4720.08353057403 6030.420837247424
  endloop
endfacet
facet normal 1.650851948652949e-15 0.48068525882047747 0.8768931987150378
  outer loop
    vertex 8011.738235412842 4720.08353057403 6030.420837247424
    vertex 5911.580696637001 2313.4414680739856 7349.666287430255
    vertex 8060.124584167612 4720.08353057403 6030.420837247424
  endloop
endfacet
facet normal -4.0838108307226395e-16 -0.8768931987150282 -0.48068525882049506
  outer loop
    vertex 8066.530109297044 -117.61940557413756 6030.420837247368
    vertex 8018.08889531039 -105.41000000009697 6008.147750000006
    vertex 8066.530109297044 -105.41000000009699 6008.147750000006
  endloop
endfacet
facet normal -4.0838108307226395e-16 -0.8768931987150282 -0.48068525882049506
  outer loop
    vertex 8018.08889531039 -105.41000000009697 6008.147750000006
    vertex 8066.530109297044 -117.61940557413756 6030.420837247368
    vertex 8018.08889531039 -117.61940557413755 6030.420837247368
  endloop
endfacet
facet normal -0.786520338043054 -0.5415380006147396 -0.29685409165923654
  outer loop
    vertex 5893.0550507128255 2255.6130260548625 7331.352179069193
    vertex 8018.08889531039 -105.41000000009697 6008.147750000006
    vertex 8018.08889531039 -117.61940557413755 6030.420837247368
  endloop
endfacet
facet normal -0.786520338043054 -0.5415380006147396 -0.29685409165923654
  outer loop
    vertex 8018.08889531039 -105.41000000009697 6008.147750000006
    vertex 5893.0550507128255 2255.6130260548625 7331.352179069193
    vertex 5893.0550507128255 2267.822431628903 7309.079091821831
  endloop
endfacet
facet normal -1.6331693707636639e-15 -0.876893198715028 -0.480685258820495
  outer loop
    vertex 5893.0550507128255 2255.6130260548625 7331.352179069193
    vertex 2068.455283170442 2267.822431628903 7309.079091821844
    vertex 5893.0550507128255 2267.822431628903 7309.079091821831
  endloop
endfacet
facet normal -1.6331693707636639e-15 -0.876893198715028 -0.480685258820495
  outer loop
    vertex 2068.455283170442 2267.822431628903 7309.079091821844
    vertex 5893.0550507128255 2255.6130260548625 7331.352179069193
    vertex 2068.455283170442 2255.6130260548625 7331.352179069206
  endloop
endfacet
facet normal 0.7865203380430849 -0.5415380006147447 -0.29685409165914556
  outer loop
    vertex -56.578561427122786 -105.4100000000971 6008.147750000006
    vertex 2068.455283170442 2255.6130260548625 7331.352179069206
    vertex -56.57856142712278 -117.61940557413767 6030.420837247368
  endloop
endfacet
facet normal 0.7865203380430849 -0.5415380006147447 -0.29685409165914556
  outer loop
    vertex 2068.455283170442 2255.6130260548625 7331.352179069206
    vertex -56.578561427122786 -105.4100000000971 6008.147750000006
    vertex 2068.455283170442 2267.822431628903 7309.079091821844
  endloop
endfacet
facet normal -2.0419054153613166e-15 -0.876893198715028 -0.48068525882049506
  outer loop
    vertex -56.57856142712278 -117.61940557413767 6030.420837247368
    vertex -105.01977541377606 -105.41000000009699 6008.147750000006
    vertex -56.578561427122786 -105.4100000000971 6008.147750000006
  endloop
endfacet
facet normal -2.0419054153613166e-15 -0.876893198715028 -0.48068525882049506
  outer loop
    vertex -105.01977541377606 -105.41000000009699 6008.147750000006
    vertex -56.57856142712278 -117.61940557413767 6030.420837247368
    vertex -105.01977541377605 -117.61940557413756 6030.420837247368
  endloop
endfacet
facet normal 4.783090790141326e-16 -0.4806852588204951 0.8768931987150282
  outer loop
    vertex -56.57856142712278 -117.61940557413767 6030.420837247368
    vertex 2049.9296372462663 2289.0226569259053 7349.666287430267
    vertex -105.01977541377605 -117.61940557413756 6030.420837247368
  endloop
endfacet
facet normal 4.783090790141326e-16 -0.4806852588204951 0.8768931987150282
  outer loop
    vertex 2049.9296372462663 2289.0226569259053 7349.666287430267
    vertex -56.57856142712278 -117.61940557413767 6030.420837247368
    vertex 2068.455283170442 2255.6130260548625 7331.352179069206
  endloop
endfacet
facet normal 4.783090790141326e-16 -0.4806852588204951 0.8768931987150282
  outer loop
    vertex 2049.9296372462663 2289.0226569259053 7349.666287430267
    vertex 2068.455283170442 2255.6130260548625 7331.352179069206
    vertex 5911.580696637001 2289.0226569259053 7349.666287430255
  endloop
endfacet
facet normal 4.783090790141326e-16 -0.4806852588204951 0.8768931987150282
  outer loop
    vertex 5911.580696637001 2289.0226569259053 7349.666287430255
    vertex 2068.455283170442 2255.6130260548625 7331.352179069206
    vertex 5893.0550507128255 2255.6130260548625 7331.352179069193
  endloop
endfacet
facet normal 4.783090790141326e-16 -0.4806852588204951 0.8768931987150282
  outer loop
    vertex 5911.580696637001 2289.0226569259053 7349.666287430255
    vertex 5893.0550507128255 2255.6130260548625 7331.352179069193
    vertex 8018.08889531039 -117.61940557413755 6030.420837247368
  endloop
endfacet
facet normal 4.783090790141326e-16 -0.4806852588204951 0.8768931987150282
  outer loop
    vertex 5911.580696637001 2289.0226569259053 7349.666287430255
    vertex 8018.08889531039 -117.61940557413755 6030.420837247368
    vertex 8066.530109297044 -117.61940557413756 6030.420837247368
  endloop
endfacet
facet normal -0.8525238501941044 0.0011345399116396758 -0.5226870934597577
  outer loop
    vertex -118.29601583133382 -105.39233196110135 6029.801874969989
    vertex -104.94967689402964 -52.73608405020287 6008.147750000007
    vertex -105.01977541377606 -105.41000000009699 6008.147750000006
  endloop
endfacet
facet normal -0.8525238501941044 0.0011345399116396758 -0.5226870934597577
  outer loop
    vertex -104.94967689402964 -52.73608405020287 6008.147750000007
    vertex -118.29601583133382 -105.39233196110135 6029.801874969989
    vertex -118.2259173115874 -52.71841601120724 6029.8018749699895
  endloop
endfacet
facet normal -0.587718409048372 0.7241002971334789 -0.3609235810484792
  outer loop
    vertex -85.69635449923219 -16.389482404216064 6049.716253230807
    vertex 2002.8612997389293 2301.261892126156 7298.535368582719
    vertex -72.42011408167443 -16.4071504432117 6028.0621282608245
  endloop
endfacet
facet normal -0.587718409048372 0.7241002971334789 -0.3609235810484792
  outer loop
    vertex 2002.8612997389293 2301.261892126156 7298.535368582719
    vertex -85.69635449923219 -16.389482404216064 6049.716253230807
    vertex 1989.5850593213715 2301.279560165152 7320.189493552701
  endloop
endfacet
facet normal 0.5226866306125082 0.0006955920864444518 0.852524605117408
  outer loop
    vertex 8066.460010777297 -52.73608405020331 6008.147750000007
    vertex 8060.1946032927435 4655.259868302516 6008.147750000062
    vertex 5958.649034144338 2301.261892126156 7298.535368582706
  endloop
endfacet
facet normal -0.587718409048373 0.7241002971334777 -0.36092358104847977
  outer loop
    vertex -118.2259173115874 -52.71841601120724 6029.8018749699895
    vertex -72.42011408167443 -16.4071504432117 6028.0621282608245
    vertex -104.94967689402964 -52.73608405020287 6008.147750000007
  endloop
endfacet
facet normal -0.587718409048373 0.7241002971334777 -0.36092358104847977
  outer loop
    vertex -72.42011408167443 -16.4071504432117 6028.0621282608245
    vertex -118.2259173115874 -52.71841601120724 6029.8018749699895
    vertex -85.69635449923219 -16.389482404216064 6049.716253230807
  endloop
endfacet
facet normal -0.5889113819833637 -0.7233546063206352 -0.3604739903032722
  outer loop
    vertex 2002.8612997389293 2301.261892126156 7298.535368582719
    vertex -111.9605098270332 4655.277536341513 6029.801874970056
    vertex -98.68426940947546 4655.259868302517 6008.147750000075
  endloop
endfacet
facet normal -0.5889113819833637 -0.7233546063206352 -0.3604739903032722
  outer loop
    vertex -111.9605098270332 4655.277536341513 6029.801874970056
    vertex 2002.8612997389293 2301.261892126156 7298.535368582719
    vertex 1989.5850593213715 2301.279560165152 7320.189493552701
  endloop
endfacet
facet normal -0.5226866306125102 0.0006955920864422444 0.8525246051174069
  outer loop
    vertex 2036.6533968287083 2301.249730538941 7349.047325152888
    vertex -118.2259173115874 -52.71841601120724 6029.8018749699895
    vertex -118.29601583133382 -105.39233196110135 6029.801874969989
  endloop
endfacet
facet normal -0.5226866306125102 0.0006955920864422444 0.8525246051174069
  outer loop
    vertex -118.2259173115874 -52.71841601120724 6029.8018749699895
    vertex 2036.6533968287083 2301.249730538941 7349.047325152888
    vertex -85.69635449923219 -16.389482404216064 6049.716253230807
  endloop
endfacet
facet normal -0.5226866306125102 0.0006955920864422444 0.8525246051174069
  outer loop
    vertex -85.69635449923219 -16.389482404216064 6049.716253230807
    vertex 2036.6533968287083 2301.249730538941 7349.047325152888
    vertex 1989.5850593213715 2301.279560165152 7320.189493552701
  endloop
endfacet
facet normal -0.5226866306125102 0.0006955920864422444 0.8525246051174069
  outer loop
    vertex 1989.5850593213715 2301.279560165152 7320.189493552701
    vertex -111.8904907019016 4707.891793038986 6029.801874970057
    vertex -111.9605098270332 4655.277536341513 6029.801874970056
  endloop
endfacet
facet normal -0.5226866306125102 0.0006955920864422444 0.8525246051174069
  outer loop
    vertex -111.8904907019016 4707.891793038986 6029.801874970057
    vertex 1989.5850593213715 2301.279560165152 7320.189493552701
    vertex 2036.6533968287083 2301.249730538941 7349.047325152888
  endloop
endfacet
facet normal -0.8525238501941044 0.0011345399116447707 -0.5226870934597576
  outer loop
    vertex -111.9605098270332 4655.277536341513 6029.801874970056
    vertex -98.61425028434384 4707.87412499999 6008.147750000076
    vertex -98.68426940947546 4655.259868302517 6008.147750000075
  endloop
endfacet
facet normal -0.8525238501941044 0.0011345399116447707 -0.5226870934597576
  outer loop
    vertex -98.61425028434384 4707.87412499999 6008.147750000076
    vertex -111.9605098270332 4655.277536341513 6029.801874970056
    vertex -111.8904907019016 4707.891793038986 6029.801874970057
  endloop
endfacet
facet normal 0.8525238501941055 0.0011345399116509554 -0.5226870934597558
  outer loop
    vertex 8060.124584167612 4707.87412499999 6008.147750000062
    vertex 8073.470843710301 4655.277536341512 6029.801874970043
    vertex 8060.1946032927435 4655.259868302516 6008.147750000062
  endloop
endfacet
facet normal 0.8525238501941055 0.0011345399116509554 -0.5226870934597558
  outer loop
    vertex 8073.470843710301 4655.277536341512 6029.801874970043
    vertex 8060.124584167612 4707.87412499999 6008.147750000062
    vertex 8073.400824585169 4707.891793038986 6029.801874970044
  endloop
endfacet
facet normal 0.587718409048373 0.7241002971334777 -0.3609235810484798
  outer loop
    vertex 5958.649034144338 2301.261892126156 7298.535368582706
    vertex 8079.736251194854 -52.718416011207616 6029.8018749699895
    vertex 8066.460010777297 -52.73608405020331 6008.147750000007
  endloop
endfacet
facet normal 0.587718409048373 0.7241002971334777 -0.3609235810484798
  outer loop
    vertex 8079.736251194854 -52.718416011207616 6029.8018749699895
    vertex 5958.649034144338 2301.261892126156 7298.535368582706
    vertex 5971.925274561895 2301.279560165152 7320.189493552688
  endloop
endfacet
facet normal 0.5889113819833693 -0.7233546063207189 -0.3604739903030951
  outer loop
    vertex 8073.470843710301 4655.277536341512 6029.801874970043
    vertex 5958.649034144338 2301.261892126156 7298.535368582706
    vertex 8060.1946032927435 4655.259868302516 6008.147750000062
  endloop
endfacet
facet normal 0.5889113819833693 -0.7233546063207189 -0.3604739903030951
  outer loop
    vertex 5958.649034144338 2301.261892126156 7298.535368582706
    vertex 8073.470843710301 4655.277536341512 6029.801874970043
    vertex 5971.925274561895 2301.279560165152 7320.189493552688
  endloop
endfacet
facet normal 0.8525238501941054 0.0011345399116524661 -0.5226870934597558
  outer loop
    vertex 8066.460010777297 -52.73608405020331 6008.147750000007
    vertex 8079.806349714601 -105.3923319611013 6029.801874969989
    vertex 8066.530109297044 -105.41000000009699 6008.147750000006
  endloop
endfacet
facet normal 0.8525238501941054 0.0011345399116524661 -0.5226870934597558
  outer loop
    vertex 8079.806349714601 -105.3923319611013 6029.801874969989
    vertex 8066.460010777297 -52.73608405020331 6008.147750000007
    vertex 8079.736251194854 -52.718416011207616 6029.8018749699895
  endloop
endfacet
facet normal -0.2796084408560227 -0.2567679264840101 0.9251428817924104
  outer loop
    vertex -105.01977541377605 -117.61940557413756 6030.420837247368
    vertex 2036.6533968287083 2301.249730538941 7349.047325152888
    vertex -118.29601583133382 -105.39233196110135 6029.801874969989
  endloop
endfacet
facet normal -0.2796084408560227 -0.2567679264840101 0.9251428817924104
  outer loop
    vertex 2036.6533968287083 2301.249730538941 7349.047325152888
    vertex -105.01977541377605 -117.61940557413756 6030.420837247368
    vertex 2049.9296372462663 2289.0226569259053 7349.666287430267
  endloop
endfacet
facet normal 0.6164268572583209 0.6904763787895881 -0.37849742401269626
  outer loop
    vertex 8060.124584167612 4720.08353057403 6030.420837247424
    vertex 8073.400824585169 4707.891793038986 6029.801874970044
    vertex 8060.124584167612 4707.87412499999 6008.147750000062
  endloop
endfacet
facet normal 4.3637811395636783e-16 -0.480685258820495 0.876893198715028
  outer loop
    vertex 8018.08889531039 -105.41000000009697 6008.147750000006
    vertex 2068.455283170442 2267.822431628903 7309.079091821844
    vertex -56.578561427122786 -105.4100000000971 6008.147750000006
  endloop
endfacet
facet normal 4.3637811395636783e-16 -0.480685258820495 0.876893198715028
  outer loop
    vertex 2068.455283170442 2267.822431628903 7309.079091821844
    vertex 8018.08889531039 -105.41000000009697 6008.147750000006
    vertex 5893.0550507128255 2267.822431628903 7309.079091821831
  endloop
endfacet
facet normal 3.3649869839950997e-15 -2.5869735805351676e-29 1.0
  outer loop
    vertex 5911.580696637001 2289.0226569259053 7349.666287430255
    vertex 2049.9296372462663 2313.4414680739856 7349.666287430267
    vertex 2049.9296372462663 2289.0226569259053 7349.666287430267
  endloop
endfacet
facet normal 3.3649869839950997e-15 -2.5869735805351676e-29 1.0
  outer loop
    vertex 2049.9296372462663 2313.4414680739856 7349.666287430267
    vertex 5911.580696637001 2289.0226569259053 7349.666287430255
    vertex 5911.580696637001 2313.4414680739856 7349.666287430255
  endloop
endfacet
facet normal 0.2795549488552091 0.25746286833181503 0.9249658923446399
  outer loop
    vertex 5924.856937054558 2301.249730538941 7349.047325152875
    vertex 8060.124584167612 4720.08353057403 6030.420837247424
    vertex 5911.580696637001 2313.4414680739856 7349.666287430255
  endloop
endfacet
facet normal 0.2795549488552091 0.25746286833181503 0.9249658923446399
  outer loop
    vertex 8060.124584167612 4720.08353057403 6030.420837247424
    vertex 5924.856937054558 2301.249730538941 7349.047325152875
    vertex 8073.400824585169 4707.891793038986 6029.801874970044
  endloop
endfacet
facet normal 0.2796084408579185 -0.25676792648251257 0.9251428817922533
  outer loop
    vertex 8066.530109297044 -117.61940557413756 6030.420837247368
    vertex 5924.856937054558 2301.249730538941 7349.047325152875
    vertex 5911.580696637001 2289.0226569259053 7349.666287430255
  endloop
endfacet
facet normal 0.2796084408579185 -0.25676792648251257 0.9251428817922533
  outer loop
    vertex 5924.856937054558 2301.249730538941 7349.047325152875
    vertex 8066.530109297044 -117.61940557413756 6030.420837247368
    vertex 8079.806349714601 -105.3923319611013 6029.801874969989
  endloop
endfacet
facet normal -0.046571217953784626 4.372954466605102e-19 0.9989149721864725
  outer loop
    vertex 2049.9296372462663 2313.4414680739856 7349.666287430267
    vertex 2036.6533968287083 2301.249730538941 7349.047325152888
    vertex 2049.9296372462663 2289.0226569259053 7349.666287430267
  endloop
endfacet
facet normal 0.5226866306125083 0.0006955920864444838 0.852524605117408
  outer loop
    vertex 8079.806349714601 -105.3923319611013 6029.801874969989
    vertex 5971.925274561895 2301.279560165152 7320.189493552688
    vertex 5924.856937054558 2301.249730538941 7349.047325152875
  endloop
endfacet
facet normal 0.5226866306125083 0.0006955920864444838 0.852524605117408
  outer loop
    vertex 5971.925274561895 2301.279560165152 7320.189493552688
    vertex 8079.806349714601 -105.3923319611013 6029.801874969989
    vertex 8079.736251194854 -52.718416011207616 6029.8018749699895
  endloop
endfacet
facet normal 0.5226866306125083 0.0006955920864444838 0.852524605117408
  outer loop
    vertex 5971.925274561895 2301.279560165152 7320.189493552688
    vertex 8073.400824585169 4707.891793038986 6029.801874970044
    vertex 5924.856937054558 2301.249730538941 7349.047325152875
  endloop
endfacet
facet normal 0.5226866306125083 0.0006955920864444838 0.852524605117408
  outer loop
    vertex 8073.400824585169 4707.891793038986 6029.801874970044
    vertex 5971.925274561895 2301.279560165152 7320.189493552688
    vertex 8073.470843710301 4655.277536341512 6029.801874970043
  endloop
endfacet
facet normal 0.04657121795378591 8.293534333217026e-19 0.9989149721864725
  outer loop
    vertex 5924.856937054558 2301.249730538941 7349.047325152875
    vertex 5911.580696637001 2313.4414680739856 7349.666287430255
    vertex 5911.580696637001 2289.0226569259053 7349.666287430255
  endloop
endfacet
endsolid worthington-tower
