solid worthington-tower
facet normal 0.7525396430926269 -0.007467729906142215 -0.658504607868518
  outer loop
    vertex -4486.0811932272945 -89.2413125000004 2922.5874999999996
    vertex -4468.773993450633 -30.757231141658846 2941.7029480455544
    vertex -4469.35599965956 -89.40728279716436 2941.7029480455544
  endloop
endfacet
facet normal 0.7525396430926269 -0.007467729906142215 -0.658504607868518
  outer loop
    vertex -4468.773993450633 -30.757231141658846 2941.7029480455544
    vertex -4486.0811932272945 -89.2413125000004 2922.5874999999996
    vertex -4485.499187018366 -30.59126084449491 2922.5874999999996
  endloop
endfacet
facet normal 5.667602562200159e-18 -0.4879918351188847 0.872848193477711
  outer loop
    vertex -8222.376711682973 -101.63630511202007 2944.7578441143337
    vertex -7046.801375000005 1806.4990073879812 4011.557844114334
    vertex -8266.001375000005 -101.63630511202007 2944.7578441143337
  endloop
endfacet
facet normal 5.667602562200159e-18 -0.4879918351188847 0.872848193477711
  outer loop
    vertex -7046.801375000005 1806.4990073879812 4011.557844114334
    vertex -8222.376711682973 -101.63630511202007 2944.7578441143337
    vertex -7024.425270446437 1773.2434912164804 3992.9653551963047
  endloop
endfacet
facet normal 5.667602562200159e-18 -0.4879918351188847 0.872848193477711
  outer loop
    vertex -7046.801375000005 1806.4990073879812 4011.557844114334
    vertex -7024.425270446437 1773.2434912164804 3992.9653551963047
    vertex -5686.406086858615 1806.4990073879812 4011.557844114334
  endloop
endfacet
facet normal 5.667602562200159e-18 -0.4879918351188847 0.872848193477711
  outer loop
    vertex -5686.406086858615 1806.4990073879812 4011.557844114334
    vertex -7024.425270446437 1773.2434912164804 3992.9653551963047
    vertex -5708.951872495632 1773.2434912164804 3992.9653551963047
  endloop
endfacet
facet normal 5.667602562200159e-18 -0.4879918351188847 0.872848193477711
  outer loop
    vertex -5686.406086858615 1806.4990073879812 4011.557844114334
    vertex -5708.951872495632 1773.2434912164804 3992.9653551963047
    vertex -4529.54657699224 -101.63630511202011 2944.7578441143337
  endloop
endfacet
facet normal 5.667602562200159e-18 -0.4879918351188847 0.872848193477711
  outer loop
    vertex -5686.406086858615 1806.4990073879812 4011.557844114334
    vertex -4529.54657699224 -101.63630511202011 2944.7578441143337
    vertex -4486.0811932272945 -101.63630511202007 2944.7578441143337
  endloop
endfacet
facet normal 6.795483955518788e-16 -0.8728481934777108 -0.48799183511888466
  outer loop
    vertex -4486.0811932272945 -101.63630511202007 2944.7578441143337
    vertex -4529.54657699224 -89.24131250000045 2922.5874999999996
    vertex -4486.0811932272945 -89.2413125000004 2922.5874999999996
  endloop
endfacet
facet normal 6.795483955518788e-16 -0.8728481934777108 -0.48799183511888466
  outer loop
    vertex -4529.54657699224 -89.24131250000045 2922.5874999999996
    vertex -4486.0811932272945 -101.63630511202007 2944.7578441143337
    vertex -4529.54657699224 -101.63630511202011 2944.7578441143337
  endloop
endfacet
facet normal 0.6584721877060484 -0.006534263667871563 0.7525766947068779
  outer loop
    vertex -4448.797235705567 3667.945468373806 2922.587499999999
    vertex -5648.79344529453 1818.677103764654 3956.476175735641
    vertex -4485.499187018366 -30.59126084449491 2922.5874999999996
  endloop
endfacet
facet normal 0.0 -0.872848193477711 -0.4879918351188847
  outer loop
    vertex -8222.376711682973 -101.63630511202007 2944.7578441143337
    vertex -8266.001375000005 -89.2413125000004 2922.5874999999996
    vertex -8222.376711682973 -89.2413125000004 2922.5874999999996
  endloop
endfacet
facet normal 0.0 -0.872848193477711 -0.4879918351188847
  outer loop
    vertex -8266.001375000005 -89.2413125000004 2922.5874999999996
    vertex -8222.376711682973 -101.63630511202007 2944.7578441143337
    vertex -8266.001375000005 -101.63630511202007 2944.7578441143337
  endloop
endfacet
facet normal -0.6585046078685177 2.6149735871298767e-16 0.7525766947068784
  outer loop
    vertex -7084.414908684506 1818.894000000001 3956.4756580260596
    vertex -8266.001375000003 3668.1614386062133 2922.5874999999996
    vertex -8266.001375000005 -30.373438606211234 2922.5874999999996
  endloop
endfacet
facet normal -0.8765596136465379 -0.42009599024796546 -0.23486720226846036
  outer loop
    vertex -5708.951872495632 1773.2434912164804 3992.9653551963047
    vertex -4529.54657699224 -89.24131250000045 2922.5874999999996
    vertex -4529.54657699224 -101.63630511202011 2944.7578441143337
  endloop
endfacet
facet normal -0.8765596136465379 -0.42009599024796546 -0.23486720226846036
  outer loop
    vertex -4529.54657699224 -89.24131250000045 2922.5874999999996
    vertex -5708.951872495632 1773.2434912164804 3992.9653551963047
    vertex -5708.951872495632 1785.6384838285 3970.79501108197
  endloop
endfacet
facet normal 0.5785941015027531 0.6438741923415119 -0.5006544618225107
  outer loop
    vertex -5648.79344529453 1818.677103764654 3956.476175735641
    vertex -4468.773993450633 -30.757231141658846 2941.7029480455544
    vertex -4485.499187018366 -30.59126084449491 2922.5874999999996
  endloop
endfacet
facet normal 0.5785941015027531 0.6438741923415119 -0.5006544618225107
  outer loop
    vertex -4468.773993450633 -30.757231141658846 2941.7029480455544
    vertex -5648.79344529453 1818.677103764654 3956.476175735641
    vertex -5632.068251726796 1818.51113346749 3975.5916237811957
  endloop
endfacet
facet normal 0.8733591758202941 -0.4251440520218847 -0.23768947187645864
  outer loop
    vertex -8222.376711682973 -89.2413125000004 2922.5874999999996
    vertex -7024.425270446437 1773.2434912164804 3992.9653551963047
    vertex -8222.376711682973 -101.63630511202007 2944.7578441143337
  endloop
endfacet
facet normal 0.8733591758202941 -0.4251440520218847 -0.23768947187645864
  outer loop
    vertex -7024.425270446437 1773.2434912164804 3992.9653551963047
    vertex -8222.376711682973 -89.2413125000004 2922.5874999999996
    vertex -7024.425270446437 1785.6384838285 3970.79501108197
  endloop
endfacet
facet normal 0.0 -0.8728481934777109 -0.48799183511888466
  outer loop
    vertex -5708.951872495632 1773.2434912164804 3992.9653551963047
    vertex -7024.425270446437 1785.6384838285 3970.79501108197
    vertex -5708.951872495632 1785.6384838285 3970.79501108197
  endloop
endfacet
facet normal 0.0 -0.8728481934777109 -0.48799183511888466
  outer loop
    vertex -7024.425270446437 1785.6384838285 3970.79501108197
    vertex -5708.951872495632 1773.2434912164804 3992.9653551963047
    vertex -7024.425270446437 1773.2434912164804 3992.9653551963047
  endloop
endfacet
facet normal 0.6584721877060484 -0.006534263667871592 0.7525766947068782
  outer loop
    vertex -5632.068251726796 1818.51113346749 3975.5916237811957
    vertex -4431.485731245376 3726.8633422028383 2941.7029480455544
    vertex -5669.680893290882 1818.728029702837 4008.5029480455546
  endloop
endfacet
facet normal 0.6584721877060484 -0.006534263667871592 0.7525766947068782
  outer loop
    vertex -4431.485731245376 3726.8633422028383 2941.7029480455544
    vertex -5632.068251726796 1818.51113346749 3975.5916237811957
    vertex -4432.072042137833 3667.779498076642 2941.7029480455535
  endloop
endfacet
facet normal 0.6584721877060484 -0.006534263667871592 0.7525766947068782
  outer loop
    vertex -4469.35599965956 -89.40728279716436 2941.7029480455544
    vertex -5632.068251726796 1818.51113346749 3975.5916237811957
    vertex -5669.680893290882 1818.728029702837 4008.5029480455546
  endloop
endfacet
facet normal 0.6584721877060484 -0.006534263667871592 0.7525766947068782
  outer loop
    vertex -5632.068251726796 1818.51113346749 3975.5916237811957
    vertex -4469.35599965956 -89.40728279716436 2941.7029480455544
    vertex -4468.773993450633 -30.757231141658846 2941.7029480455544
  endloop
endfacet
facet normal 0.7525396430926271 -0.007467729906123638 -0.6585046078685179
  outer loop
    vertex -4448.797235705567 3667.945468373806 2922.587499999999
    vertex -4431.485731245376 3726.8633422028383 2941.7029480455544
    vertex -4432.072042137833 3667.779498076642 2941.7029480455535
  endloop
endfacet
facet normal 0.7525396430926271 -0.007467729906123638 -0.6585046078685179
  outer loop
    vertex -4431.485731245376 3726.8633422028383 2941.7029480455544
    vertex -4448.797235705567 3667.945468373806 2922.587499999999
    vertex -4448.21092481311 3727.029312500002 2922.5874999999996
  endloop
endfacet
facet normal 0.5687970030338954 -0.6504907127637877 -0.5033207744050693
  outer loop
    vertex -4432.072042137833 3667.779498076642 2941.7029480455535
    vertex -5648.79344529453 1818.677103764654 3956.476175735641
    vertex -4448.797235705567 3667.945468373806 2922.587499999999
  endloop
endfacet
facet normal 0.5687970030338954 -0.6504907127637877 -0.5033207744050693
  outer loop
    vertex -5648.79344529453 1818.677103764654 3956.476175735641
    vertex -4432.072042137833 3667.779498076642 2941.7029480455535
    vertex -5632.068251726796 1818.51113346749 3975.5916237811957
  endloop
endfacet
facet normal 0.49283298119877444 0.7594860999428312 -0.4246133731247241
  outer loop
    vertex -4448.21092481311 3739.424305112022 2944.7578441143337
    vertex -4431.485731245376 3726.8633422028383 2941.7029480455544
    vertex -4448.21092481311 3727.029312500002 2922.5874999999996
  endloop
endfacet
facet normal 0.3620716567819671 0.26473728704138105 0.893766347657558
  outer loop
    vertex -5669.680893290882 1818.728029702837 4008.5029480455546
    vertex -4448.21092481311 3739.424305112022 2944.7578441143337
    vertex -5686.406086858615 1831.2889926120208 4011.557844114334
  endloop
endfacet
facet normal 0.3620716567819671 0.26473728704138105 0.893766347657558
  outer loop
    vertex -4448.21092481311 3739.424305112022 2944.7578441143337
    vertex -5669.680893290882 1818.728029702837 4008.5029480455546
    vertex -4431.485731245376 3726.8633422028383 2941.7029480455544
  endloop
endfacet
facet normal -0.48707673934453305 -0.7623099788719231 -0.4261921469264613
  outer loop
    vertex -8266.001375000005 -101.63630511202007 2944.7578441143337
    vertex -8282.727392039866 -89.24131250000039 2941.7029480455544
    vertex -8266.001375000005 -89.2413125000004 2922.5874999999996
  endloop
endfacet
facet normal -0.1796711616578489 0.0 0.9837267271292974
  outer loop
    vertex -7046.801375000005 1831.2889926120208 4011.557844114334
    vertex -7063.527392039865 1818.894000000001 4008.5029480455546
    vertex -7046.801375000005 1806.4990073879812 4011.557844114334
  endloop
endfacet
facet normal 6.2411251970553194e-18 -0.4879918351188847 0.8728481934777108
  outer loop
    vertex -4529.54657699224 -89.24131250000045 2922.5874999999996
    vertex -7024.425270446437 1785.6384838285 3970.79501108197
    vertex -8222.376711682973 -89.2413125000004 2922.5874999999996
  endloop
endfacet
facet normal 6.2411251970553194e-18 -0.4879918351188847 0.8728481934777108
  outer loop
    vertex -7024.425270446437 1785.6384838285 3970.79501108197
    vertex -4529.54657699224 -89.24131250000045 2922.5874999999996
    vertex -5708.951872495632 1785.6384838285 3970.79501108197
  endloop
endfacet
facet normal 0.0 0.0 1.0
  outer loop
    vertex -4486.0811932272945 -89.2413125000004 2922.5874999999996
    vertex -8266.001375000003 3727.029312500002 2922.5874999999996
    vertex -8266.001375000005 -89.2413125000004 2922.5874999999996
  endloop
endfacet
facet normal 0.0 0.0 1.0
  outer loop
    vertex -8266.001375000003 3727.029312500002 2922.5874999999996
    vertex -4486.0811932272945 -89.2413125000004 2922.5874999999996
    vertex -4448.21092481311 3727.029312500002 2922.5874999999996
  endloop
endfacet
facet normal 0.17967972225446113 -5.616727320444352e-18 0.983725163554618
  outer loop
    vertex -5669.680893290882 1818.728029702837 4008.5029480455546
    vertex -5686.406086858615 1831.2889926120208 4011.557844114334
    vertex -5686.406086858615 1806.4990073879812 4011.557844114334
  endloop
endfacet
facet normal 0.0 0.8728481934777109 -0.4879918351188846
  outer loop
    vertex -8266.001375000003 3739.424305112022 2944.7578441143337
    vertex -8222.376711682973 3727.029312500002 2922.5874999999996
    vertex -8266.001375000003 3727.029312500002 2922.5874999999996
  endloop
endfacet
facet normal 0.0 0.8728481934777109 -0.4879918351188846
  outer loop
    vertex -8222.376711682973 3727.029312500002 2922.5874999999996
    vertex -8266.001375000003 3739.424305112022 2944.7578441143337
    vertex -8222.376711682973 3739.424305112022 2944.7578441143337
  endloop
endfacet
facet normal 0.0 0.0 1.0
  outer loop
    vertex -5686.406086858615 1806.4990073879812 4011.557844114334
    vertex -7046.801375000005 1831.2889926120208 4011.557844114334
    vertex -7046.801375000005 1806.4990073879812 4011.557844114334
  endloop
endfacet
facet normal 0.0 0.0 1.0
  outer loop
    vertex -7046.801375000005 1831.2889926120208 4011.557844114334
    vertex -5686.406086858615 1806.4990073879812 4011.557844114334
    vertex -5686.406086858615 1831.2889926120208 4011.557844114334
  endloop
endfacet
facet normal 0.36137552089558317 -0.2714004173324065 0.8920479507118672
  outer loop
    vertex -4486.0811932272945 -101.63630511202007 2944.7578441143337
    vertex -5669.680893290882 1818.728029702837 4008.5029480455546
    vertex -5686.406086858615 1806.4990073879812 4011.557844114334
  endloop
endfacet
facet normal 0.36137552089558317 -0.2714004173324065 0.8920479507118672
  outer loop
    vertex -5669.680893290882 1818.728029702837 4008.5029480455546
    vertex -4486.0811932272945 -101.63630511202007 2944.7578441143337
    vertex -4469.35599965956 -89.40728279716436 2941.7029480455544
  endloop
endfacet
facet normal 0.0 0.872848193477711 -0.48799183511888466
  outer loop
    vertex -7024.425270446437 1864.5445087835217 3992.9653551963047
    vertex -5708.613341206872 1852.1495161715018 3970.79501108197
    vertex -7024.425270446437 1852.1495161715018 3970.79501108197
  endloop
endfacet
facet normal 0.0 0.872848193477711 -0.48799183511888466
  outer loop
    vertex -5708.613341206872 1852.1495161715018 3970.79501108197
    vertex -7024.425270446437 1864.5445087835217 3992.9653551963047
    vertex -5708.613341206872 1864.5445087835217 3992.9653551963047
  endloop
endfacet
facet normal 0.0 0.872848193477711 -0.4879918351188847
  outer loop
    vertex -4491.997790924292 3739.424305112022 2944.7578441143337
    vertex -4448.21092481311 3727.029312500002 2922.5874999999996
    vertex -4491.997790924292 3727.029312500002 2922.5874999999996
  endloop
endfacet
facet normal 0.0 0.872848193477711 -0.4879918351188847
  outer loop
    vertex -4448.21092481311 3727.029312500002 2922.5874999999996
    vertex -4491.997790924292 3739.424305112022 2944.7578441143337
    vertex -4448.21092481311 3739.424305112022 2944.7578441143337
  endloop
endfacet
facet normal -0.3617408960398477 -0.26807193387336775 0.8929059090417539
  outer loop
    vertex -8266.001375000005 -101.63630511202007 2944.7578441143337
    vertex -7063.527392039865 1818.894000000001 4008.5029480455546
    vertex -8282.727392039866 -89.24131250000039 2941.7029480455544
  endloop
endfacet
facet normal -0.3617408960398477 -0.26807193387336775 0.8929059090417539
  outer loop
    vertex -7063.527392039865 1818.894000000001 4008.5029480455546
    vertex -8266.001375000005 -101.63630511202007 2944.7578441143337
    vertex -7046.801375000005 1806.4990073879812 4011.557844114334
  endloop
endfacet
facet normal 2.181805721169874e-17 0.4879918351188847 0.872848193477711
  outer loop
    vertex -7046.801375000005 1831.2889926120208 4011.557844114334
    vertex -8222.376711682973 3739.424305112022 2944.7578441143337
    vertex -8266.001375000003 3739.424305112022 2944.7578441143337
  endloop
endfacet
facet normal 2.181805721169874e-17 0.4879918351188847 0.872848193477711
  outer loop
    vertex -8222.376711682973 3739.424305112022 2944.7578441143337
    vertex -7046.801375000005 1831.2889926120208 4011.557844114334
    vertex -7024.425270446437 1864.5445087835217 3992.9653551963047
  endloop
endfacet
facet normal 2.181805721169874e-17 0.4879918351188847 0.872848193477711
  outer loop
    vertex -7024.425270446437 1864.5445087835217 3992.9653551963047
    vertex -7046.801375000005 1831.2889926120208 4011.557844114334
    vertex -5686.406086858615 1831.2889926120208 4011.557844114334
  endloop
endfacet
facet normal 2.181805721169874e-17 0.4879918351188847 0.872848193477711
  outer loop
    vertex -7024.425270446437 1864.5445087835217 3992.9653551963047
    vertex -5686.406086858615 1831.2889926120208 4011.557844114334
    vertex -5708.613341206872 1864.5445087835217 3992.9653551963047
  endloop
endfacet
facet normal 2.181805721169874e-17 0.4879918351188847 0.872848193477711
  outer loop
    vertex -5708.613341206872 1864.5445087835217 3992.9653551963047
    vertex -5686.406086858615 1831.2889926120208 4011.557844114334
    vertex -4491.997790924292 3739.424305112022 2944.7578441143337
  endloop
endfacet
facet normal 2.181805721169874e-17 0.4879918351188847 0.872848193477711
  outer loop
    vertex -4491.997790924292 3739.424305112022 2944.7578441143337
    vertex -5686.406086858615 1831.2889926120208 4011.557844114334
    vertex -4448.21092481311 3739.424305112022 2944.7578441143337
  endloop
endfacet
facet normal 0.8733591758202941 0.4251440520218847 -0.23768947187645864
  outer loop
    vertex -8222.376711682973 3727.029312500002 2922.5874999999996
    vertex -7024.425270446437 1864.5445087835217 3992.9653551963047
    vertex -7024.425270446437 1852.1495161715018 3970.79501108197
  endloop
endfacet
facet normal 0.8733591758202941 0.4251440520218847 -0.23768947187645864
  outer loop
    vertex -7024.425270446437 1864.5445087835217 3992.9653551963047
    vertex -8222.376711682973 3727.029312500002 2922.5874999999996
    vertex -8222.376711682973 3739.424305112022 2944.7578441143337
  endloop
endfacet
facet normal -0.8701239294736872 0.4301683773255833 -0.2404984709022998
  outer loop
    vertex -5708.613341206872 1864.5445087835217 3992.9653551963047
    vertex -4491.997790924292 3727.029312500002 2922.5874999999996
    vertex -5708.613341206872 1852.1495161715018 3970.79501108197
  endloop
endfacet
facet normal -0.8701239294736872 0.4301683773255833 -0.2404984709022998
  outer loop
    vertex -4491.997790924292 3727.029312500002 2922.5874999999996
    vertex -5708.613341206872 1864.5445087835217 3992.9653551963047
    vertex -4491.997790924292 3739.424305112022 2944.7578441143337
  endloop
endfacet
facet normal -0.6585046078685177 2.5548484855482953e-16 0.7525766947068782
  outer loop
    vertex -7063.527392039865 1818.894000000001 4008.5029480455546
    vertex -8282.727392039866 -30.373438606211234 2941.7029480455544
    vertex -8282.727392039866 -89.24131250000039 2941.7029480455544
  endloop
endfacet
facet normal -0.6585046078685177 2.5548484855482953e-16 0.7525766947068782
  outer loop
    vertex -8282.727392039866 -30.373438606211234 2941.7029480455544
    vertex -7063.527392039865 1818.894000000001 4008.5029480455546
    vertex -7101.140925724367 1818.894000000001 3975.591106071614
  endloop
endfacet
facet normal -0.6585046078685177 2.5548484855482953e-16 0.7525766947068782
  outer loop
    vertex -7101.140925724367 1818.894000000001 3975.591106071614
    vertex -8282.727392039864 3727.029312500002 2941.7029480455544
    vertex -8282.727392039864 3668.1614386062133 2941.7029480455544
  endloop
endfacet
facet normal -0.6585046078685177 2.5548484855482953e-16 0.7525766947068782
  outer loop
    vertex -8282.727392039864 3727.029312500002 2941.7029480455544
    vertex -7101.140925724367 1818.894000000001 3975.591106071614
    vertex -7063.527392039865 1818.894000000001 4008.5029480455546
  endloop
endfacet
facet normal -0.7525766947068782 -0.0 -0.6585046078685177
  outer loop
    vertex -8282.727392039864 3727.029312500002 2941.7029480455544
    vertex -8266.001375000003 3668.1614386062133 2922.5874999999996
    vertex -8282.727392039864 3668.1614386062133 2941.7029480455544
  endloop
endfacet
facet normal -0.7525766947068782 -0.0 -0.6585046078685177
  outer loop
    vertex -8266.001375000003 3668.1614386062133 2922.5874999999996
    vertex -8282.727392039864 3727.029312500002 2941.7029480455544
    vertex -8266.001375000003 3727.029312500002 2922.5874999999996
  endloop
endfacet
facet normal 0.0 0.0 -1.0
  outer loop
    vertex -8266.001375000003 3727.029312500002 2770.1875
    vertex -4486.0811932272945 -89.2413125000004 2770.1875
    vertex -8266.001375000005 -89.2413125000004 2770.1875
  endloop
endfacet
facet normal 0.0 0.0 -1.0
  outer loop
    vertex -4486.0811932272945 -89.2413125000004 2770.1875
    vertex -8266.001375000003 3727.029312500002 2770.1875
    vertex -4448.21092481311 3727.029312500002 2770.1875
  endloop
endfacet
facet normal -3.140350067054542e-18 0.4879918351188847 0.872848193477711
  outer loop
    vertex -7024.425270446437 1852.1495161715018 3970.79501108197
    vertex -4491.997790924292 3727.029312500002 2922.5874999999996
    vertex -8222.376711682973 3727.029312500002 2922.5874999999996
  endloop
endfacet
facet normal -3.140350067054542e-18 0.4879918351188847 0.872848193477711
  outer loop
    vertex -4491.997790924292 3727.029312500002 2922.5874999999996
    vertex -7024.425270446437 1852.1495161715018 3970.79501108197
    vertex -5708.613341206872 1852.1495161715018 3970.79501108197
  endloop
endfacet
facet normal -0.7525766947068782 -0.0 -0.6585046078685177
  outer loop
    vertex -8282.727392039866 -89.24131250000039 2941.7029480455544
    vertex -8266.001375000005 -30.373438606211234 2922.5874999999996
    vertex -8266.001375000005 -89.2413125000004 2922.5874999999996
  endloop
endfacet
facet normal -0.7525766947068782 -0.0 -0.6585046078685177
  outer loop
    vertex -8266.001375000005 -30.373438606211234 2922.5874999999996
    vertex -8282.727392039866 -89.24131250000039 2941.7029480455544
    vertex -8282.727392039866 -30.373438606211234 2941.7029480455544
  endloop
endfacet
facet normal 0.4812933032193871 -0.7651034752469018 -0.4277539344544763
  outer loop
    vertex -4486.0811932272945 -101.63630511202007 2944.7578441143337
    vertex -4486.0811932272945 -89.2413125000004 2922.5874999999996
    vertex -4469.35599965956 -89.40728279716436 2941.7029480455544
  endloop
endfacet
facet normal -0.5736967242415043 -0.6472120951529596 -0.5019846337113155
  outer loop
    vertex -7084.414908684506 1818.894000000001 3956.4756580260596
    vertex -8282.727392039864 3668.1614386062133 2941.7029480455544
    vertex -8266.001375000003 3668.1614386062133 2922.5874999999996
  endloop
endfacet
facet normal -0.5736967242415043 -0.6472120951529596 -0.5019846337113155
  outer loop
    vertex -8282.727392039864 3668.1614386062133 2941.7029480455544
    vertex -7084.414908684506 1818.894000000001 3956.4756580260596
    vertex -7101.140925724367 1818.894000000001 3975.591106071614
  endloop
endfacet
facet normal 0.0 1.0 0.0
  outer loop
    vertex -8266.001375000003 3727.029312500002 2922.5874999999996
    vertex -4448.21092481311 3727.029312500002 2770.1875
    vertex -8266.001375000003 3727.029312500002 2770.1875
  endloop
endfacet
facet normal 0.0 1.0 0.0
  outer loop
    vertex -4448.21092481311 3727.029312500002 2770.1875
    vertex -8266.001375000003 3727.029312500002 2922.5874999999996
    vertex -4448.21092481311 3727.029312500002 2922.5874999999996
  endloop
endfacet
facet normal 0.0 1.0 0.0
  outer loop
    vertex -4448.21092481311 3727.029312500002 2922.5874999999996
    vertex -8266.001375000003 3727.029312500002 2922.5874999999996
    vertex -8222.376711682973 3727.029312500002 2922.5874999999996
  endloop
endfacet
facet normal 0.0 1.0 0.0
  outer loop
    vertex -4448.21092481311 3727.029312500002 2922.5874999999996
    vertex -8222.376711682973 3727.029312500002 2922.5874999999996
    vertex -4491.997790924292 3727.029312500002 2922.5874999999996
  endloop
endfacet
facet normal -1.0 3.7833345193241443e-16 0.0
  outer loop
    vertex -8266.001375000005 -30.373438606211234 2922.5874999999996
    vertex -8266.001375000005 -89.2413125000004 2770.1875
    vertex -8266.001375000005 -89.2413125000004 2922.5874999999996
  endloop
endfacet
facet normal -1.0 3.7833345193241443e-16 0.0
  outer loop
    vertex -8266.001375000005 -89.2413125000004 2770.1875
    vertex -8266.001375000005 -30.373438606211234 2922.5874999999996
    vertex -8266.001375000003 3727.029312500002 2770.1875
  endloop
endfacet
facet normal -1.0 3.7833345193241443e-16 0.0
  outer loop
    vertex -8266.001375000003 3727.029312500002 2770.1875
    vertex -8266.001375000005 -30.373438606211234 2922.5874999999996
    vertex -8266.001375000003 3668.1614386062133 2922.5874999999996
  endloop
endfacet
facet normal -1.0 3.7833345193241443e-16 0.0
  outer loop
    vertex -8266.001375000003 3727.029312500002 2770.1875
    vertex -8266.001375000003 3668.1614386062133 2922.5874999999996
    vertex -8266.001375000003 3727.029312500002 2922.5874999999996
  endloop
endfacet
facet normal -0.573696724241504 0.64721209515296 -0.5019846337113157
  outer loop
    vertex -8282.727392039866 -30.373438606211234 2941.7029480455544
    vertex -7084.414908684506 1818.894000000001 3956.4756580260596
    vertex -8266.001375000005 -30.373438606211234 2922.5874999999996
  endloop
endfacet
facet normal -0.573696724241504 0.64721209515296 -0.5019846337113157
  outer loop
    vertex -7084.414908684506 1818.894000000001 3956.4756580260596
    vertex -8282.727392039866 -30.373438606211234 2941.7029480455544
    vertex -7101.140925724367 1818.894000000001 3975.591106071614
  endloop
endfacet
facet normal 0.9999507669922394 -0.009922882224047249 0.0
  outer loop
    vertex -4448.21092481311 3727.029312500002 2770.1875
    vertex -4486.0811932272945 -89.2413125000004 2922.5874999999996
    vertex -4486.0811932272945 -89.2413125000004 2770.1875
  endloop
endfacet
facet normal 0.9999507669922394 -0.009922882224047249 0.0
  outer loop
    vertex -4486.0811932272945 -89.2413125000004 2922.5874999999996
    vertex -4448.21092481311 3727.029312500002 2770.1875
    vertex -4485.499187018366 -30.59126084449491 2922.5874999999996
  endloop
endfacet
facet normal 0.9999507669922394 -0.009922882224047249 0.0
  outer loop
    vertex -4485.499187018366 -30.59126084449491 2922.5874999999996
    vertex -4448.21092481311 3727.029312500002 2770.1875
    vertex -4448.797235705567 3667.945468373806 2922.587499999999
  endloop
endfacet
facet normal 0.9999507669922394 -0.009922882224047249 0.0
  outer loop
    vertex -4448.797235705567 3667.945468373806 2922.587499999999
    vertex -4448.21092481311 3727.029312500002 2770.1875
    vertex -4448.21092481311 3727.029312500002 2922.5874999999996
  endloop
endfacet
facet normal -0.3617408960395453 0.26807193387368866 0.8929059090417801
  outer loop
    vertex -7063.527392039865 1818.894000000001 4008.5029480455546
    vertex -8266.001375000003 3739.424305112022 2944.7578441143337
    vertex -8282.727392039864 3727.029312500002 2941.7029480455544
  endloop
endfacet
facet normal -0.3617408960395453 0.26807193387368866 0.8929059090417801
  outer loop
    vertex -8266.001375000003 3739.424305112022 2944.7578441143337
    vertex -7063.527392039865 1818.894000000001 4008.5029480455546
    vertex -7046.801375000005 1831.2889926120208 4011.557844114334
  endloop
endfacet
facet normal 0.0 -1.0 0.0
  outer loop
    vertex -4486.0811932272945 -89.2413125000004 2922.5874999999996
    vertex -8266.001375000005 -89.2413125000004 2770.1875
    vertex -4486.0811932272945 -89.2413125000004 2770.1875
  endloop
endfacet
facet normal 0.0 -1.0 0.0
  outer loop
    vertex -8266.001375000005 -89.2413125000004 2770.1875
    vertex -4486.0811932272945 -89.2413125000004 2922.5874999999996
    vertex -8266.001375000005 -89.2413125000004 2922.5874999999996
  endloop
endfacet
facet normal 0.0 -1.0 0.0
  outer loop
    vertex -8266.001375000005 -89.2413125000004 2922.5874999999996
    vertex -4486.0811932272945 -89.2413125000004 2922.5874999999996
    vertex -4529.54657699224 -89.24131250000045 2922.5874999999996
  endloop
endfacet
facet normal 0.0 -1.0 0.0
  outer loop
    vertex -8266.001375000005 -89.2413125000004 2922.5874999999996
    vertex -4529.54657699224 -89.24131250000045 2922.5874999999996
    vertex -8222.376711682973 -89.2413125000004 2922.5874999999996
  endloop
endfacet
facet normal -0.48707673934453627 0.7623099788719192 -0.4261921469264646
  outer loop
    vertex -8266.001375000003 3739.424305112022 2944.7578441143337
    vertex -8266.001375000003 3727.029312500002 2922.5874999999996
    vertex -8282.727392039864 3727.029312500002 2941.7029480455544
  endloop
endfacet
endsolid worthington-tower
