solid worthington-tower
facet normal 0.0 1.0 0.0
  outer loop
    vertex -7910.401375000006 266.35868749999946 304.7999999999999
    vertex -7700.930750000094 266.35868749999946 101.59999999999992
    vertex -7910.401375000006 266.35868749999946 101.59999999999992
  endloop
endfacet
facet normal 0.0 1.0 0.0
  outer loop
    vertex -7700.930750000094 266.35868749999946 101.59999999999992
    vertex -7910.401375000006 266.35868749999946 304.7999999999999
    vertex -7700.930750000094 266.35868749999946 304.7999999999999
  endloop
endfacet
facet normal 1.0 0.0 0.0
  outer loop
    vertex -7910.401375000006 3371.429312499997 101.59999999999992
    vertex -7910.401375000006 266.35868749999946 304.7999999999999
    vertex -7910.401375000006 266.35868749999946 101.59999999999992
  endloop
endfacet
facet normal 1.0 0.0 0.0
  outer loop
    vertex -7910.401375000006 266.35868749999946 304.7999999999999
    vertex -7910.401375000006 3371.429312499997 101.59999999999992
    vertex -7910.401375000006 3371.429312499997 304.7999999999999
  endloop
endfacet
facet normal 1.0 -2.211505267945094e-32 -1.0515477326172687e-16
  outer loop
    vertex -4754.530750000094 3422.229312499997 101.59999999999926
    vertex -4754.530750000094 215.55868749999956 406.39999999999986
    vertex -4754.530750000094 215.55868749999954 101.59999999999992
  endloop
endfacet
facet normal 1.0 -2.211505267945094e-32 -1.0515477326172687e-16
  outer loop
    vertex -4754.530750000094 215.55868749999956 406.39999999999986
    vertex -4754.530750000094 3422.229312499997 101.59999999999926
    vertex -4754.530750000094 3422.229312499997 406.39999999999924
  endloop
endfacet
facet normal 1.0515477326172686e-16 1.0515477326172955e-16 1.0
  outer loop
    vertex -4754.530750000094 215.55868749999956 406.39999999999986
    vertex -7961.201375000006 3422.229312499997 406.39999999999986
    vertex -7961.201375000006 215.55868749999956 406.39999999999986
  endloop
endfacet
facet normal 1.0515477326172686e-16 1.0515477326172955e-16 1.0
  outer loop
    vertex -7961.201375000006 3422.229312499997 406.39999999999986
    vertex -4754.530750000094 215.55868749999956 406.39999999999986
    vertex -4754.530750000094 3422.229312499997 406.39999999999924
  endloop
endfacet
facet normal -2.2115052679451514e-32 1.0 -1.0515477326172955e-16
  outer loop
    vertex -7961.201375000006 3422.229312499997 101.59999999999992
    vertex -4754.530750000094 3422.229312499997 406.39999999999924
    vertex -4754.530750000094 3422.229312499997 101.59999999999926
  endloop
endfacet
facet normal -2.2115052679451514e-32 1.0 -1.0515477326172955e-16
  outer loop
    vertex -4754.530750000094 3422.229312499997 406.39999999999924
    vertex -7961.201375000006 3422.229312499997 101.59999999999992
    vertex -7961.201375000006 3422.229312499997 406.39999999999986
  endloop
endfacet
facet normal -1.0 -0.0 -0.0
  outer loop
    vertex -7700.930750000094 3371.429312499997 304.7999999999999
    vertex -7700.930750000094 266.35868749999946 101.59999999999992
    vertex -7700.930750000094 266.35868749999946 304.7999999999999
  endloop
endfacet
facet normal -1.0 -0.0 -0.0
  outer loop
    vertex -7700.930750000094 266.35868749999946 101.59999999999992
    vertex -7700.930750000094 3371.429312499997 304.7999999999999
    vertex -7700.930750000094 3371.429312499997 101.59999999999992
  endloop
endfacet
facet normal -0.0 -1.0 -0.0
  outer loop
    vertex -7700.930750000094 3371.429312499997 304.7999999999999
    vertex -7910.401375000006 3371.429312499997 101.59999999999992
    vertex -7700.930750000094 3371.429312499997 101.59999999999992
  endloop
endfacet
facet normal -0.0 -1.0 -0.0
  outer loop
    vertex -7910.401375000006 3371.429312499997 101.59999999999992
    vertex -7700.930750000094 3371.429312499997 304.7999999999999
    vertex -7910.401375000006 3371.429312499997 304.7999999999999
  endloop
endfacet
facet normal -1.0 1.318258757086017e-31 8.247371040072592e-16
  outer loop
    vertex -6075.330750000094 3371.429312499997 304.79999999999933
    vertex -6075.330750000094 266.3586874999996 101.59999999999988
    vertex -6075.330750000094 266.3586874999996 304.7999999999999
  endloop
endfacet
facet normal -1.0 1.318258757086017e-31 8.247371040072592e-16
  outer loop
    vertex -6075.330750000094 266.3586874999996 101.59999999999988
    vertex -6075.330750000094 3371.429312499997 304.79999999999933
    vertex -6075.330750000094 3371.429312499997 101.59999999999938
  endloop
endfacet
facet normal -8.247371040072591e-16 -7.991993755833337e-17 -1.0
  outer loop
    vertex -6075.330750000094 3371.429312499997 304.79999999999933
    vertex -6430.930750000093 266.3586874999996 304.7999999999999
    vertex -6430.930750000093 3371.429312499997 304.7999999999999
  endloop
endfacet
facet normal -8.247371040072591e-16 -7.991993755833337e-17 -1.0
  outer loop
    vertex -6430.930750000093 266.3586874999996 304.7999999999999
    vertex -6075.330750000094 3371.429312499997 304.79999999999933
    vertex -6075.330750000094 266.3586874999996 304.7999999999999
  endloop
endfacet
facet normal -0.0 -0.0 -1.0
  outer loop
    vertex -7700.930750000094 3371.429312499997 304.7999999999999
    vertex -7910.401375000006 266.35868749999946 304.7999999999999
    vertex -7910.401375000006 3371.429312499997 304.7999999999999
  endloop
endfacet
facet normal -0.0 -0.0 -1.0
  outer loop
    vertex -7910.401375000006 266.35868749999946 304.7999999999999
    vertex -7700.930750000094 3371.429312499997 304.7999999999999
    vertex -7700.930750000094 266.35868749999946 304.7999999999999
  endloop
endfacet
facet normal 1.2168542373101695e-31 -1.0 7.991993755833337e-17
  outer loop
    vertex -6075.330750000094 3371.429312499997 304.79999999999933
    vertex -6430.930750000093 3371.429312499997 101.59999999999992
    vertex -6075.330750000094 3371.429312499997 101.59999999999938
  endloop
endfacet
facet normal 1.2168542373101695e-31 -1.0 7.991993755833337e-17
  outer loop
    vertex -6430.930750000093 3371.429312499997 101.59999999999992
    vertex -6075.330750000094 3371.429312499997 304.79999999999933
    vertex -6430.930750000093 3371.429312499997 304.7999999999999
  endloop
endfacet
facet normal -1.0140451977584744e-32 1.0 -7.991993755833337e-17
  outer loop
    vertex -6430.930750000093 266.3586874999996 101.59999999999992
    vertex -6075.330750000094 266.3586874999996 304.7999999999999
    vertex -6075.330750000094 266.3586874999996 101.59999999999988
  endloop
endfacet
facet normal -1.0140451977584744e-32 1.0 -7.991993755833337e-17
  outer loop
    vertex -6075.330750000094 266.3586874999996 304.7999999999999
    vertex -6430.930750000093 266.3586874999996 101.59999999999992
    vertex -6430.930750000093 266.3586874999996 304.7999999999999
  endloop
endfacet
facet normal -1.0 0.0 1.0515477326172687e-16
  outer loop
    vertex -7961.201375000006 215.55868749999956 406.39999999999986
    vertex -7961.201375000006 3422.229312499997 101.59999999999992
    vertex -7961.201375000006 215.55868749999954 101.59999999999992
  endloop
endfacet
facet normal -1.0 0.0 1.0515477326172687e-16
  outer loop
    vertex -7961.201375000006 3422.229312499997 101.59999999999992
    vertex -7961.201375000006 215.55868749999956 406.39999999999986
    vertex -7961.201375000006 3422.229312499997 406.39999999999986
  endloop
endfacet
facet normal -1.0515477326172686e-16 -1.0515477326172955e-16 -1.0
  outer loop
    vertex -7961.201375000006 3422.229312499997 101.59999999999992
    vertex -7910.401375000006 3371.429312499997 101.59999999999992
    vertex -7961.201375000006 215.55868749999954 101.59999999999992
  endloop
endfacet
facet normal -1.0515477326172686e-16 -1.0515477326172955e-16 -1.0
  outer loop
    vertex -7910.401375000006 3371.429312499997 101.59999999999992
    vertex -7961.201375000006 3422.229312499997 101.59999999999992
    vertex -4754.530750000094 3422.229312499997 101.59999999999926
  endloop
endfacet
facet normal -1.0515477326172686e-16 -1.0515477326172955e-16 -1.0
  outer loop
    vertex -7910.401375000006 3371.429312499997 101.59999999999992
    vertex -4754.530750000094 3422.229312499997 101.59999999999926
    vertex -7700.930750000094 3371.429312499997 101.59999999999992
  endloop
endfacet
facet normal -1.0515477326172686e-16 -1.0515477326172955e-16 -1.0
  outer loop
    vertex -7700.930750000094 3371.429312499997 101.59999999999992
    vertex -4754.530750000094 3422.229312499997 101.59999999999926
    vertex -7650.130750000094 3371.429312499997 101.59999999999992
  endloop
endfacet
facet normal -1.0515477326172686e-16 -1.0515477326172955e-16 -1.0
  outer loop
    vertex -7700.930750000094 3371.429312499997 101.59999999999992
    vertex -7650.130750000094 3371.429312499997 101.59999999999992
    vertex -7700.930750000094 266.35868749999946 101.59999999999992
  endloop
endfacet
facet normal -1.0515477326172686e-16 -1.0515477326172955e-16 -1.0
  outer loop
    vertex -7650.130750000094 3371.429312499997 101.59999999999992
    vertex -4754.530750000094 3422.229312499997 101.59999999999926
    vertex -7294.5307500000945 3371.429312499997 101.59999999999953
  endloop
endfacet
facet normal -1.0515477326172686e-16 -1.0515477326172955e-16 -1.0
  outer loop
    vertex -7294.5307500000945 3371.429312499997 101.59999999999953
    vertex -4754.530750000094 3422.229312499997 101.59999999999926
    vertex -7243.730750000094 3371.429312499997 101.59999999999992
  endloop
endfacet
facet normal -1.0515477326172686e-16 -1.0515477326172955e-16 -1.0
  outer loop
    vertex -7294.5307500000945 3371.429312499997 101.59999999999953
    vertex -7243.730750000094 3371.429312499997 101.59999999999992
    vertex -7294.5307500000945 266.35868749999946 101.59999999999988
  endloop
endfacet
facet normal -1.0515477326172686e-16 -1.0515477326172955e-16 -1.0
  outer loop
    vertex -7243.730750000094 3371.429312499997 101.59999999999992
    vertex -4754.530750000094 3422.229312499997 101.59999999999926
    vertex -6888.130750000094 3371.429312499997 101.59999999999947
  endloop
endfacet
facet normal -1.0515477326172686e-16 -1.0515477326172955e-16 -1.0
  outer loop
    vertex -6888.130750000094 3371.429312499997 101.59999999999947
    vertex -4754.530750000094 3422.229312499997 101.59999999999926
    vertex -6837.330750000095 3371.429312499997 101.59999999999992
  endloop
endfacet
facet normal -1.0515477326172686e-16 -1.0515477326172955e-16 -1.0
  outer loop
    vertex -6888.130750000094 3371.429312499997 101.59999999999947
    vertex -6837.330750000095 3371.429312499997 101.59999999999992
    vertex -6888.130750000094 266.35868749999946 101.59999999999988
  endloop
endfacet
facet normal -1.0515477326172686e-16 -1.0515477326172955e-16 -1.0
  outer loop
    vertex -6837.330750000095 3371.429312499997 101.59999999999992
    vertex -4754.530750000094 3422.229312499997 101.59999999999926
    vertex -6481.730750000093 3371.429312499997 101.59999999999947
  endloop
endfacet
facet normal -1.0515477326172686e-16 -1.0515477326172955e-16 -1.0
  outer loop
    vertex -6481.730750000093 3371.429312499997 101.59999999999947
    vertex -4754.530750000094 3422.229312499997 101.59999999999926
    vertex -6430.930750000093 3371.429312499997 101.59999999999992
  endloop
endfacet
facet normal -1.0515477326172686e-16 -1.0515477326172955e-16 -1.0
  outer loop
    vertex -6481.730750000093 3371.429312499997 101.59999999999947
    vertex -6430.930750000093 3371.429312499997 101.59999999999992
    vertex -6481.730750000093 266.3586874999996 101.59999999999988
  endloop
endfacet
facet normal -1.0515477326172686e-16 -1.0515477326172955e-16 -1.0
  outer loop
    vertex -6430.930750000093 3371.429312499997 101.59999999999992
    vertex -4754.530750000094 3422.229312499997 101.59999999999926
    vertex -6075.330750000094 3371.429312499997 101.59999999999938
  endloop
endfacet
facet normal -1.0515477326172686e-16 -1.0515477326172955e-16 -1.0
  outer loop
    vertex -6075.330750000094 3371.429312499997 101.59999999999938
    vertex -4754.530750000094 3422.229312499997 101.59999999999926
    vertex -6024.530750000094 3371.429312499997 101.59999999999984
  endloop
endfacet
facet normal -1.0515477326172686e-16 -1.0515477326172955e-16 -1.0
  outer loop
    vertex -6075.330750000094 3371.429312499997 101.59999999999938
    vertex -6024.530750000094 3371.429312499997 101.59999999999984
    vertex -6075.330750000094 266.3586874999996 101.59999999999988
  endloop
endfacet
facet normal -1.0515477326172686e-16 -1.0515477326172955e-16 -1.0
  outer loop
    vertex -6024.530750000094 3371.429312499997 101.59999999999984
    vertex -4754.530750000094 3422.229312499997 101.59999999999926
    vertex -5668.930750000093 3371.429312499997 101.59999999999934
  endloop
endfacet
facet normal -1.0515477326172686e-16 -1.0515477326172955e-16 -1.0
  outer loop
    vertex -5668.930750000093 3371.429312499997 101.59999999999934
    vertex -4754.530750000094 3422.229312499997 101.59999999999926
    vertex -5618.130750000094 3371.429312499997 101.59999999999992
  endloop
endfacet
facet normal -1.0515477326172686e-16 -1.0515477326172955e-16 -1.0
  outer loop
    vertex -5668.930750000093 3371.429312499997 101.59999999999934
    vertex -5618.130750000094 3371.429312499997 101.59999999999992
    vertex -5668.930750000093 266.3586874999996 101.5999999999998
  endloop
endfacet
facet normal -1.0515477326172686e-16 -1.0515477326172955e-16 -1.0
  outer loop
    vertex -5618.130750000094 3371.429312499997 101.59999999999992
    vertex -4754.530750000094 3422.229312499997 101.59999999999926
    vertex -5262.530750000094 3371.429312499997 101.5999999999993
  endloop
endfacet
facet normal -1.0515477326172686e-16 -1.0515477326172955e-16 -1.0
  outer loop
    vertex -5262.530750000094 3371.429312499997 101.5999999999993
    vertex -4754.530750000094 3422.229312499997 101.59999999999926
    vertex -5211.730750000093 3371.429312499997 101.59999999999992
  endloop
endfacet
facet normal -1.0515477326172686e-16 -1.0515477326172955e-16 -1.0
  outer loop
    vertex -5262.530750000094 3371.429312499997 101.5999999999993
    vertex -5211.730750000093 3371.429312499997 101.59999999999992
    vertex -5262.530750000094 266.3586874999996 101.59999999999992
  endloop
endfacet
facet normal -1.0515477326172686e-16 -1.0515477326172955e-16 -1.0
  outer loop
    vertex -5211.730750000093 3371.429312499997 101.59999999999992
    vertex -4754.530750000094 3422.229312499997 101.59999999999926
    vertex -4805.330750000094 3371.429312499997 101.59999999999926
  endloop
endfacet
facet normal -1.0515477326172686e-16 -1.0515477326172955e-16 -1.0
  outer loop
    vertex -4805.330750000094 3371.429312499997 101.59999999999926
    vertex -4754.530750000094 3422.229312499997 101.59999999999926
    vertex -4805.330750000094 266.3586874999996 101.59999999999992
  endloop
endfacet
facet normal -1.0515477326172686e-16 -1.0515477326172955e-16 -1.0
  outer loop
    vertex -7961.201375000006 215.55868749999954 101.59999999999992
    vertex -7910.401375000006 266.35868749999946 101.59999999999992
    vertex -4754.530750000094 215.55868749999954 101.59999999999992
  endloop
endfacet
facet normal -1.0515477326172686e-16 -1.0515477326172955e-16 -1.0
  outer loop
    vertex -7910.401375000006 266.35868749999946 101.59999999999992
    vertex -7961.201375000006 215.55868749999954 101.59999999999992
    vertex -7910.401375000006 3371.429312499997 101.59999999999992
  endloop
endfacet
facet normal -1.0515477326172686e-16 -1.0515477326172955e-16 -1.0
  outer loop
    vertex -4754.530750000094 215.55868749999954 101.59999999999992
    vertex -7910.401375000006 266.35868749999946 101.59999999999992
    vertex -7700.930750000094 266.35868749999946 101.59999999999992
  endloop
endfacet
facet normal -1.0515477326172686e-16 -1.0515477326172955e-16 -1.0
  outer loop
    vertex -4754.530750000094 215.55868749999954 101.59999999999992
    vertex -7700.930750000094 266.35868749999946 101.59999999999992
    vertex -7650.130750000094 266.35868749999946 101.59999999999992
  endloop
endfacet
facet normal -1.0515477326172686e-16 -1.0515477326172955e-16 -1.0
  outer loop
    vertex -7650.130750000094 266.35868749999946 101.59999999999992
    vertex -7700.930750000094 266.35868749999946 101.59999999999992
    vertex -7650.130750000094 3371.429312499997 101.59999999999992
  endloop
endfacet
facet normal -1.0515477326172686e-16 -1.0515477326172955e-16 -1.0
  outer loop
    vertex -4754.530750000094 215.55868749999954 101.59999999999992
    vertex -7650.130750000094 266.35868749999946 101.59999999999992
    vertex -7294.5307500000945 266.35868749999946 101.59999999999988
  endloop
endfacet
facet normal -1.0515477326172686e-16 -1.0515477326172955e-16 -1.0
  outer loop
    vertex -4754.530750000094 215.55868749999954 101.59999999999992
    vertex -7294.5307500000945 266.35868749999946 101.59999999999988
    vertex -7243.730750000094 266.35868749999946 101.59999999999992
  endloop
endfacet
facet normal -1.0515477326172686e-16 -1.0515477326172955e-16 -1.0
  outer loop
    vertex -7243.730750000094 266.35868749999946 101.59999999999992
    vertex -7294.5307500000945 266.35868749999946 101.59999999999988
    vertex -7243.730750000094 3371.429312499997 101.59999999999992
  endloop
endfacet
facet normal -1.0515477326172686e-16 -1.0515477326172955e-16 -1.0
  outer loop
    vertex -4754.530750000094 215.55868749999954 101.59999999999992
    vertex -7243.730750000094 266.35868749999946 101.59999999999992
    vertex -6888.130750000094 266.35868749999946 101.59999999999988
  endloop
endfacet
facet normal -1.0515477326172686e-16 -1.0515477326172955e-16 -1.0
  outer loop
    vertex -4754.530750000094 215.55868749999954 101.59999999999992
    vertex -6888.130750000094 266.35868749999946 101.59999999999988
    vertex -6837.330750000095 266.3586874999996 101.59999999999992
  endloop
endfacet
facet normal -1.0515477326172686e-16 -1.0515477326172955e-16 -1.0
  outer loop
    vertex -6837.330750000095 266.3586874999996 101.59999999999992
    vertex -6888.130750000094 266.35868749999946 101.59999999999988
    vertex -6837.330750000095 3371.429312499997 101.59999999999992
  endloop
endfacet
facet normal -1.0515477326172686e-16 -1.0515477326172955e-16 -1.0
  outer loop
    vertex -4754.530750000094 215.55868749999954 101.59999999999992
    vertex -6837.330750000095 266.3586874999996 101.59999999999992
    vertex -6481.730750000093 266.3586874999996 101.59999999999988
  endloop
endfacet
facet normal -1.0515477326172686e-16 -1.0515477326172955e-16 -1.0
  outer loop
    vertex -4754.530750000094 215.55868749999954 101.59999999999992
    vertex -6481.730750000093 266.3586874999996 101.59999999999988
    vertex -6430.930750000093 266.3586874999996 101.59999999999992
  endloop
endfacet
facet normal -1.0515477326172686e-16 -1.0515477326172955e-16 -1.0
  outer loop
    vertex -6430.930750000093 266.3586874999996 101.59999999999992
    vertex -6481.730750000093 266.3586874999996 101.59999999999988
    vertex -6430.930750000093 3371.429312499997 101.59999999999992
  endloop
endfacet
facet normal -1.0515477326172686e-16 -1.0515477326172955e-16 -1.0
  outer loop
    vertex -4754.530750000094 215.55868749999954 101.59999999999992
    vertex -6430.930750000093 266.3586874999996 101.59999999999992
    vertex -6075.330750000094 266.3586874999996 101.59999999999988
  endloop
endfacet
facet normal -1.0515477326172686e-16 -1.0515477326172955e-16 -1.0
  outer loop
    vertex -4754.530750000094 215.55868749999954 101.59999999999992
    vertex -6075.330750000094 266.3586874999996 101.59999999999988
    vertex -6024.530750000094 266.3586874999996 101.59999999999984
  endloop
endfacet
facet normal -1.0515477326172686e-16 -1.0515477326172955e-16 -1.0
  outer loop
    vertex -6024.530750000094 266.3586874999996 101.59999999999984
    vertex -6075.330750000094 266.3586874999996 101.59999999999988
    vertex -6024.530750000094 3371.429312499997 101.59999999999984
  endloop
endfacet
facet normal -1.0515477326172686e-16 -1.0515477326172955e-16 -1.0
  outer loop
    vertex -4754.530750000094 215.55868749999954 101.59999999999992
    vertex -6024.530750000094 266.3586874999996 101.59999999999984
    vertex -5668.930750000093 266.3586874999996 101.5999999999998
  endloop
endfacet
facet normal -1.0515477326172686e-16 -1.0515477326172955e-16 -1.0
  outer loop
    vertex -4754.530750000094 215.55868749999954 101.59999999999992
    vertex -5668.930750000093 266.3586874999996 101.5999999999998
    vertex -5618.130750000094 266.3586874999996 101.59999999999992
  endloop
endfacet
facet normal -1.0515477326172686e-16 -1.0515477326172955e-16 -1.0
  outer loop
    vertex -5618.130750000094 266.3586874999996 101.59999999999992
    vertex -5668.930750000093 266.3586874999996 101.5999999999998
    vertex -5618.130750000094 3371.429312499997 101.59999999999992
  endloop
endfacet
facet normal -1.0515477326172686e-16 -1.0515477326172955e-16 -1.0
  outer loop
    vertex -4754.530750000094 215.55868749999954 101.59999999999992
    vertex -5618.130750000094 266.3586874999996 101.59999999999992
    vertex -5262.530750000094 266.3586874999996 101.59999999999992
  endloop
endfacet
facet normal -1.0515477326172686e-16 -1.0515477326172955e-16 -1.0
  outer loop
    vertex -4754.530750000094 215.55868749999954 101.59999999999992
    vertex -5262.530750000094 266.3586874999996 101.59999999999992
    vertex -5211.730750000093 266.3586874999996 101.59999999999992
  endloop
endfacet
facet normal -1.0515477326172686e-16 -1.0515477326172955e-16 -1.0
  outer loop
    vertex -5211.730750000093 266.3586874999996 101.59999999999992
    vertex -5262.530750000094 266.3586874999996 101.59999999999992
    vertex -5211.730750000093 3371.429312499997 101.59999999999992
  endloop
endfacet
facet normal -1.0515477326172686e-16 -1.0515477326172955e-16 -1.0
  outer loop
    vertex -4754.530750000094 215.55868749999954 101.59999999999992
    vertex -5211.730750000093 266.3586874999996 101.59999999999992
    vertex -4805.330750000094 266.3586874999996 101.59999999999992
  endloop
endfacet
facet normal -1.0515477326172686e-16 -1.0515477326172955e-16 -1.0
  outer loop
    vertex -4754.530750000094 215.55868749999954 101.59999999999992
    vertex -4805.330750000094 266.3586874999996 101.59999999999992
    vertex -4754.530750000094 3422.229312499997 101.59999999999926
  endloop
endfacet
facet normal 1.0 0.0 -8.247371040072592e-16
  outer loop
    vertex -6430.930750000093 3371.429312499997 101.59999999999992
    vertex -6430.930750000093 266.3586874999996 304.7999999999999
    vertex -6430.930750000093 266.3586874999996 101.59999999999992
  endloop
endfacet
facet normal 1.0 0.0 -8.247371040072592e-16
  outer loop
    vertex -6430.930750000093 266.3586874999996 304.7999999999999
    vertex -6430.930750000093 3371.429312499997 101.59999999999992
    vertex -6430.930750000093 3371.429312499997 304.7999999999999
  endloop
endfacet
facet normal -5.763877880803756e-46 -1.0 1.0515477326172955e-16
  outer loop
    vertex -4754.530750000094 215.55868749999956 406.39999999999986
    vertex -7961.201375000006 215.55868749999954 101.59999999999992
    vertex -4754.530750000094 215.55868749999954 101.59999999999992
  endloop
endfacet
facet normal -5.763877880803756e-46 -1.0 1.0515477326172955e-16
  outer loop
    vertex -7961.201375000006 215.55868749999954 101.59999999999992
    vertex -4754.530750000094 215.55868749999956 406.39999999999986
    vertex -7961.201375000006 215.55868749999956 406.39999999999986
  endloop
endfacet
facet normal -8.296733436205701e-33 1.0 -6.538903982045457e-17
  outer loop
    vertex -7243.730750000094 266.35868749999946 101.59999999999992
    vertex -6888.130750000094 266.35868749999946 304.7999999999999
    vertex -6888.130750000094 266.35868749999946 101.59999999999988
  endloop
endfacet
facet normal -8.296733436205701e-33 1.0 -6.538903982045457e-17
  outer loop
    vertex -6888.130750000094 266.35868749999946 304.7999999999999
    vertex -7243.730750000094 266.35868749999946 101.59999999999992
    vertex -7243.730750000094 266.35868749999946 304.7999999999999
  endloop
endfacet
facet normal 8.296733436205702e-32 -1.0 6.538903982045457e-17
  outer loop
    vertex -6888.130750000094 3371.429312499997 304.79999999999944
    vertex -7243.730750000094 3371.429312499997 101.59999999999992
    vertex -6888.130750000094 3371.429312499997 101.59999999999947
  endloop
endfacet
facet normal 8.296733436205702e-32 -1.0 6.538903982045457e-17
  outer loop
    vertex -7243.730750000094 3371.429312499997 101.59999999999992
    vertex -6888.130750000094 3371.429312499997 304.79999999999944
    vertex -7243.730750000094 3371.429312499997 304.7999999999999
  endloop
endfacet
facet normal 6.63738674896456e-32 -1.0 5.812359095151518e-17
  outer loop
    vertex -7294.5307500000945 3371.429312499997 304.79999999999956
    vertex -7650.130750000094 3371.429312499997 101.59999999999992
    vertex -7294.5307500000945 3371.429312499997 101.59999999999953
  endloop
endfacet
facet normal 6.63738674896456e-32 -1.0 5.812359095151518e-17
  outer loop
    vertex -7650.130750000094 3371.429312499997 101.59999999999992
    vertex -7294.5307500000945 3371.429312499997 304.79999999999956
    vertex -7650.130750000094 3371.429312499997 304.7999999999999
  endloop
endfacet
facet normal -7.374874165516178e-33 1.0 -5.812359095151518e-17
  outer loop
    vertex -7650.130750000094 266.35868749999946 101.59999999999992
    vertex -7294.5307500000945 266.35868749999946 304.7999999999999
    vertex -7294.5307500000945 266.35868749999946 101.59999999999988
  endloop
endfacet
facet normal -7.374874165516178e-33 1.0 -5.812359095151518e-17
  outer loop
    vertex -7294.5307500000945 266.35868749999946 304.7999999999999
    vertex -7650.130750000094 266.35868749999946 101.59999999999992
    vertex -7650.130750000094 266.35868749999946 304.7999999999999
  endloop
endfacet
facet normal -6.344131569286609e-16 -5.812359095151518e-17 -1.0
  outer loop
    vertex -7294.5307500000945 3371.429312499997 304.79999999999956
    vertex -7650.130750000094 266.35868749999946 304.7999999999999
    vertex -7650.130750000094 3371.429312499997 304.7999999999999
  endloop
endfacet
facet normal -6.344131569286609e-16 -5.812359095151518e-17 -1.0
  outer loop
    vertex -7650.130750000094 266.35868749999946 304.7999999999999
    vertex -7294.5307500000945 3371.429312499997 304.79999999999956
    vertex -7294.5307500000945 266.35868749999946 304.7999999999999
  endloop
endfacet
facet normal 1.0 0.0 -6.978544726215272e-16
  outer loop
    vertex -7243.730750000094 3371.429312499997 101.59999999999992
    vertex -7243.730750000094 266.35868749999946 304.7999999999999
    vertex -7243.730750000094 266.35868749999946 101.59999999999992
  endloop
endfacet
facet normal 1.0 0.0 -6.978544726215272e-16
  outer loop
    vertex -7243.730750000094 266.35868749999946 304.7999999999999
    vertex -7243.730750000094 3371.429312499997 101.59999999999992
    vertex -7243.730750000094 3371.429312499997 304.7999999999999
  endloop
endfacet
facet normal -1.0 7.374874165516178e-32 6.344131569286609e-16
  outer loop
    vertex -7294.5307500000945 3371.429312499997 304.79999999999956
    vertex -7294.5307500000945 266.35868749999946 101.59999999999988
    vertex -7294.5307500000945 266.35868749999946 304.7999999999999
  endloop
endfacet
facet normal -1.0 7.374874165516178e-32 6.344131569286609e-16
  outer loop
    vertex -7294.5307500000945 266.35868749999946 101.59999999999988
    vertex -7294.5307500000945 3371.429312499997 304.79999999999956
    vertex -7294.5307500000945 3371.429312499997 101.59999999999953
  endloop
endfacet
facet normal -8.881784197001252e-16 -1.0171628416515156e-16 -1.0
  outer loop
    vertex -5262.530750000094 3371.429312499997 304.7999999999993
    vertex -5618.130750000094 266.3586874999996 304.7999999999999
    vertex -5618.130750000094 3371.429312499997 304.7999999999999
  endloop
endfacet
facet normal -8.881784197001252e-16 -1.0171628416515156e-16 -1.0
  outer loop
    vertex -5618.130750000094 266.3586874999996 304.7999999999999
    vertex -5262.530750000094 3371.429312499997 304.7999999999993
    vertex -5262.530750000094 266.3586874999996 304.7999999999999
  endloop
endfacet
facet normal 0.0 1.0 -1.0171628416515156e-16
  outer loop
    vertex -5618.130750000094 266.3586874999996 304.7999999999999
    vertex -5262.530750000094 266.3586874999996 101.59999999999992
    vertex -5618.130750000094 266.3586874999996 101.59999999999992
  endloop
endfacet
facet normal 0.0 1.0 -1.0171628416515156e-16
  outer loop
    vertex -5262.530750000094 266.3586874999996 101.59999999999992
    vertex -5618.130750000094 266.3586874999996 304.7999999999999
    vertex -5262.530750000094 266.3586874999996 304.7999999999999
  endloop
endfacet
facet normal -9.218592706895222e-33 1.0 -7.265448868939397e-17
  outer loop
    vertex -6024.530750000094 266.3586874999996 101.59999999999984
    vertex -5668.930750000093 266.3586874999996 304.7999999999998
    vertex -5668.930750000093 266.3586874999996 101.5999999999998
  endloop
endfacet
facet normal -9.218592706895222e-33 1.0 -7.265448868939397e-17
  outer loop
    vertex -5668.930750000093 266.3586874999996 304.7999999999998
    vertex -6024.530750000094 266.3586874999996 101.59999999999984
    vertex -6024.530750000094 266.3586874999996 304.7999999999998
  endloop
endfacet
facet normal -1.0 1.106231124827427e-31 7.612957883143932e-16
  outer loop
    vertex -5668.930750000093 3371.429312499997 304.79999999999933
    vertex -5668.930750000093 266.3586874999996 101.5999999999998
    vertex -5668.930750000093 266.3586874999996 304.7999999999998
  endloop
endfacet
facet normal -1.0 1.106231124827427e-31 7.612957883143932e-16
  outer loop
    vertex -5668.930750000093 266.3586874999996 101.5999999999998
    vertex -5668.930750000093 3371.429312499997 304.79999999999933
    vertex -5668.930750000093 3371.429312499997 101.59999999999934
  endloop
endfacet
facet normal 1.0 0.0 -7.612957883143932e-16
  outer loop
    vertex -6024.530750000094 3371.429312499997 101.59999999999984
    vertex -6024.530750000094 266.3586874999996 304.7999999999998
    vertex -6024.530750000094 266.3586874999996 101.59999999999984
  endloop
endfacet
facet normal 1.0 0.0 -7.612957883143932e-16
  outer loop
    vertex -6024.530750000094 266.3586874999996 304.7999999999998
    vertex -6024.530750000094 3371.429312499997 101.59999999999984
    vertex -6024.530750000094 3371.429312499997 304.7999999999998
  endloop
endfacet
facet normal 1.0140451977584745e-31 -1.0 7.265448868939397e-17
  outer loop
    vertex -5668.930750000093 3371.429312499997 304.79999999999933
    vertex -6024.530750000094 3371.429312499997 101.59999999999984
    vertex -5668.930750000093 3371.429312499997 101.59999999999934
  endloop
endfacet
facet normal 1.0140451977584745e-31 -1.0 7.265448868939397e-17
  outer loop
    vertex -6024.530750000094 3371.429312499997 101.59999999999984
    vertex -5668.930750000093 3371.429312499997 304.79999999999933
    vertex -6024.530750000094 3371.429312499997 304.7999999999998
  endloop
endfacet
facet normal 1.0 0.0 -6.344131569286609e-16
  outer loop
    vertex -7650.130750000094 3371.429312499997 101.59999999999992
    vertex -7650.130750000094 266.35868749999946 304.7999999999999
    vertex -7650.130750000094 266.35868749999946 101.59999999999992
  endloop
endfacet
facet normal 1.0 0.0 -6.344131569286609e-16
  outer loop
    vertex -7650.130750000094 266.35868749999946 304.7999999999999
    vertex -7650.130750000094 3371.429312499997 101.59999999999992
    vertex -7650.130750000094 3371.429312499997 304.7999999999999
  endloop
endfacet
facet normal -1.0 1.806844170551464e-31 8.881784197001252e-16
  outer loop
    vertex -5262.530750000094 3371.429312499997 304.7999999999993
    vertex -5262.530750000094 266.3586874999996 101.59999999999992
    vertex -5262.530750000094 266.3586874999996 304.7999999999999
  endloop
endfacet
facet normal -1.0 1.806844170551464e-31 8.881784197001252e-16
  outer loop
    vertex -5262.530750000094 266.3586874999996 101.59999999999992
    vertex -5262.530750000094 3371.429312499997 304.7999999999993
    vertex -5262.530750000094 3371.429312499997 101.5999999999993
  endloop
endfacet
facet normal -7.61295788314393e-16 -7.265448868939397e-17 -1.0
  outer loop
    vertex -5668.930750000093 3371.429312499997 304.79999999999933
    vertex -6024.530750000094 266.3586874999996 304.7999999999998
    vertex -6024.530750000094 3371.429312499997 304.7999999999998
  endloop
endfacet
facet normal -7.61295788314393e-16 -7.265448868939397e-17 -1.0
  outer loop
    vertex -6024.530750000094 266.3586874999996 304.7999999999998
    vertex -5668.930750000093 3371.429312499997 304.79999999999933
    vertex -5668.930750000093 266.3586874999996 304.7999999999998
  endloop
endfacet
facet normal 1.0 0.0 -8.881784197001252e-16
  outer loop
    vertex -5618.130750000094 3371.429312499997 101.59999999999992
    vertex -5618.130750000094 266.3586874999996 304.7999999999999
    vertex -5618.130750000094 266.3586874999996 101.59999999999992
  endloop
endfacet
facet normal 1.0 0.0 -8.881784197001252e-16
  outer loop
    vertex -5618.130750000094 266.3586874999996 304.7999999999999
    vertex -5618.130750000094 3371.429312499997 101.59999999999992
    vertex -5618.130750000094 3371.429312499997 304.7999999999999
  endloop
endfacet
facet normal 1.8068441705514636e-31 -1.0 1.0171628416515156e-16
  outer loop
    vertex -5262.530750000094 3371.429312499997 304.7999999999993
    vertex -5618.130750000094 3371.429312499997 101.59999999999992
    vertex -5262.530750000094 3371.429312499997 101.5999999999993
  endloop
endfacet
facet normal 1.8068441705514636e-31 -1.0 1.0171628416515156e-16
  outer loop
    vertex -5618.130750000094 3371.429312499997 101.59999999999992
    vertex -5262.530750000094 3371.429312499997 304.7999999999993
    vertex -5618.130750000094 3371.429312499997 304.7999999999999
  endloop
endfacet
facet normal -1.0 9.126406779826271e-32 6.978544726215272e-16
  outer loop
    vertex -6888.130750000094 3371.429312499997 304.79999999999944
    vertex -6888.130750000094 266.35868749999946 101.59999999999988
    vertex -6888.130750000094 266.35868749999946 304.7999999999999
  endloop
endfacet
facet normal -1.0 9.126406779826271e-32 6.978544726215272e-16
  outer loop
    vertex -6888.130750000094 266.35868749999946 101.59999999999988
    vertex -6888.130750000094 3371.429312499997 304.79999999999944
    vertex -6888.130750000094 3371.429312499997 101.59999999999947
  endloop
endfacet
facet normal -6.978544726215271e-16 -6.538903982045458e-17 -1.0
  outer loop
    vertex -6888.130750000094 3371.429312499997 304.79999999999944
    vertex -7243.730750000094 266.35868749999946 304.7999999999999
    vertex -7243.730750000094 3371.429312499997 304.7999999999999
  endloop
endfacet
facet normal -6.978544726215271e-16 -6.538903982045458e-17 -1.0
  outer loop
    vertex -7243.730750000094 266.35868749999946 304.7999999999999
    vertex -6888.130750000094 3371.429312499997 304.79999999999944
    vertex -6888.130750000094 266.35868749999946 304.7999999999999
  endloop
endfacet
facet normal -8.296733436205683e-33 1.0 -6.538903982045457e-17
  outer loop
    vertex -6837.330750000095 266.3586874999996 101.59999999999992
    vertex -6481.730750000093 266.3586874999996 304.7999999999999
    vertex -6481.730750000093 266.3586874999996 101.59999999999988
  endloop
endfacet
facet normal -8.296733436205683e-33 1.0 -6.538903982045457e-17
  outer loop
    vertex -6481.730750000093 266.3586874999996 304.7999999999999
    vertex -6837.330750000095 266.3586874999996 101.59999999999992
    vertex -6837.330750000095 266.3586874999996 304.7999999999999
  endloop
endfacet
facet normal -6.978544726215257e-16 -6.538903982045457e-17 -1.0
  outer loop
    vertex -6481.730750000093 3371.429312499997 304.79999999999944
    vertex -6837.330750000095 266.3586874999996 304.7999999999999
    vertex -6837.330750000095 3371.429312499997 304.7999999999999
  endloop
endfacet
facet normal -6.978544726215257e-16 -6.538903982045457e-17 -1.0
  outer loop
    vertex -6837.330750000095 266.3586874999996 304.7999999999999
    vertex -6481.730750000093 3371.429312499997 304.79999999999944
    vertex -6481.730750000093 266.3586874999996 304.7999999999999
  endloop
endfacet
facet normal 1.0 0.0 -6.978544726215258e-16
  outer loop
    vertex -6837.330750000095 3371.429312499997 101.59999999999992
    vertex -6837.330750000095 266.3586874999996 304.7999999999999
    vertex -6837.330750000095 266.3586874999996 101.59999999999992
  endloop
endfacet
facet normal 1.0 0.0 -6.978544726215258e-16
  outer loop
    vertex -6837.330750000095 266.3586874999996 304.7999999999999
    vertex -6837.330750000095 3371.429312499997 101.59999999999992
    vertex -6837.330750000095 3371.429312499997 304.7999999999999
  endloop
endfacet
facet normal -8.326672684688674e-16 -1.0898173303409096e-16 -1.0
  outer loop
    vertex -4805.330750000094 3371.429312499997 304.7999999999993
    vertex -5211.730750000093 266.3586874999996 304.7999999999999
    vertex -5211.730750000093 3371.429312499997 304.7999999999999
  endloop
endfacet
facet normal -8.326672684688674e-16 -1.0898173303409096e-16 -1.0
  outer loop
    vertex -5211.730750000093 266.3586874999996 304.7999999999999
    vertex -4805.330750000094 3371.429312499997 304.7999999999993
    vertex -4805.330750000094 266.3586874999996 304.7999999999999
  endloop
endfacet
facet normal 8.296733436205683e-32 -1.0 6.538903982045457e-17
  outer loop
    vertex -6481.730750000093 3371.429312499997 304.79999999999944
    vertex -6837.330750000095 3371.429312499997 101.59999999999992
    vertex -6481.730750000093 3371.429312499997 101.59999999999947
  endloop
endfacet
facet normal 8.296733436205683e-32 -1.0 6.538903982045457e-17
  outer loop
    vertex -6837.330750000095 3371.429312499997 101.59999999999992
    vertex -6481.730750000093 3371.429312499997 304.79999999999944
    vertex -6837.330750000095 3371.429312499997 304.7999999999999
  endloop
endfacet
facet normal -1.0 1.8149104391699973e-31 8.326672684688676e-16
  outer loop
    vertex -4805.330750000094 3371.429312499997 304.7999999999993
    vertex -4805.330750000094 266.3586874999996 101.59999999999992
    vertex -4805.330750000094 266.3586874999996 304.7999999999999
  endloop
endfacet
facet normal -1.0 1.8149104391699973e-31 8.326672684688676e-16
  outer loop
    vertex -4805.330750000094 266.3586874999996 101.59999999999992
    vertex -4805.330750000094 3371.429312499997 304.7999999999993
    vertex -4805.330750000094 3371.429312499997 101.59999999999926
  endloop
endfacet
facet normal 1.8149104391699971e-31 -1.0 1.0898173303409096e-16
  outer loop
    vertex -4805.330750000094 3371.429312499997 304.7999999999993
    vertex -5211.730750000093 3371.429312499997 101.59999999999992
    vertex -4805.330750000094 3371.429312499997 101.59999999999926
  endloop
endfacet
facet normal 1.8149104391699971e-31 -1.0 1.0898173303409096e-16
  outer loop
    vertex -5211.730750000093 3371.429312499997 101.59999999999992
    vertex -4805.330750000094 3371.429312499997 304.7999999999993
    vertex -5211.730750000093 3371.429312499997 304.7999999999999
  endloop
endfacet
facet normal 0.0 1.0 -1.0898173303409096e-16
  outer loop
    vertex -5211.730750000093 266.3586874999996 304.7999999999999
    vertex -4805.330750000094 266.3586874999996 101.59999999999992
    vertex -5211.730750000093 266.3586874999996 101.59999999999992
  endloop
endfacet
facet normal 0.0 1.0 -1.0898173303409096e-16
  outer loop
    vertex -4805.330750000094 266.3586874999996 101.59999999999992
    vertex -5211.730750000093 266.3586874999996 304.7999999999999
    vertex -4805.330750000094 266.3586874999996 304.7999999999999
  endloop
endfacet
facet normal 1.0 0.0 -8.326672684688676e-16
  outer loop
    vertex -5211.730750000093 3371.429312499997 101.59999999999992
    vertex -5211.730750000093 266.3586874999996 304.7999999999999
    vertex -5211.730750000093 266.3586874999996 101.59999999999992
  endloop
endfacet
facet normal 1.0 0.0 -8.326672684688676e-16
  outer loop
    vertex -5211.730750000093 266.3586874999996 304.7999999999999
    vertex -5211.730750000093 3371.429312499997 101.59999999999992
    vertex -5211.730750000093 3371.429312499997 304.7999999999999
  endloop
endfacet
facet normal -1.0 9.126406779826256e-32 6.978544726215258e-16
  outer loop
    vertex -6481.730750000093 3371.429312499997 304.79999999999944
    vertex -6481.730750000093 266.3586874999996 101.59999999999988
    vertex -6481.730750000093 266.3586874999996 304.7999999999999
  endloop
endfacet
facet normal -1.0 9.126406779826256e-32 6.978544726215258e-16
  outer loop
    vertex -6481.730750000093 266.3586874999996 101.59999999999988
    vertex -6481.730750000093 3371.429312499997 304.79999999999944
    vertex -6481.730750000093 3371.429312499997 101.59999999999947
  endloop
endfacet
endsolid worthington-tower
