solid worthington-tower
facet normal -1.7763568394006544e-14 -1.7763568394000832e-14 1.0
  outer loop
    vertex 9485.090249998237 295.6877500000518 1449.3834775306082
    vertex 9383.49024999826 397.28775000006135 1449.3834775306082
    vertex 9383.49024999826 295.6877500000518 1449.3834775306082
  endloop
endfacet
facet normal -1.7763568394006544e-14 -1.7763568394000832e-14 1.0
  outer loop
    vertex 9383.49024999826 397.28775000006135 1449.3834775306082
    vertex 9485.090249998237 295.6877500000518 1449.3834775306082
    vertex 9485.090249998237 397.28775000006135 1449.3834775306118
  endloop
endfacet
facet normal 1.7763568394006544e-14 1.7763568394000832e-14 -1.0
  outer loop
    vertex 9485.090249998259 397.28775000008693 -0.004022469388081617
    vertex 9383.49024999828 295.6877500000774 -0.004022469391691174
    vertex 9383.49024999828 397.28775000008693 -0.004022469391691174
  endloop
endfacet
facet normal 1.7763568394006544e-14 1.7763568394000832e-14 -1.0
  outer loop
    vertex 9383.49024999828 295.6877500000774 -0.004022469391691174
    vertex 9485.090249998259 397.28775000008693 -0.004022469388081617
    vertex 9485.090249998259 295.6877500000774 -0.004022469391691174
  endloop
endfacet
facet normal 1.0 -6.310887241768935e-28 1.7763568394006544e-14
  outer loop
    vertex 9485.090249998259 295.6877500000774 -0.004022469391691174
    vertex 9485.090249998237 397.28775000006135 1449.3834775306118
    vertex 9485.090249998237 295.6877500000518 1449.3834775306082
  endloop
endfacet
facet normal 1.0 -6.310887241768935e-28 1.7763568394006544e-14
  outer loop
    vertex 9485.090249998237 397.28775000006135 1449.3834775306118
    vertex 9485.090249998259 295.6877500000774 -0.004022469391691174
    vertex 9485.090249998259 397.28775000008693 -0.004022469388081617
  endloop
endfacet
facet normal 0.0 -1.0 -1.7763568394000832e-14
  outer loop
    vertex 9485.090249998237 295.6877500000518 1449.3834775306082
    vertex 9383.49024999828 295.6877500000774 -0.004022469391691174
    vertex 9485.090249998259 295.6877500000774 -0.004022469391691174
  endloop
endfacet
facet normal 0.0 -1.0 -1.7763568394000832e-14
  outer loop
    vertex 9383.49024999828 295.6877500000774 -0.004022469391691174
    vertex 9485.090249998237 295.6877500000518 1449.3834775306082
    vertex 9383.49024999826 295.6877500000518 1449.3834775306082
  endloop
endfacet
facet normal -1.0 -0.0 -1.7763568394006544e-14
  outer loop
    vertex 9383.49024999826 397.28775000006135 1449.3834775306082
    vertex 9383.49024999828 295.6877500000774 -0.004022469391691174
    vertex 9383.49024999826 295.6877500000518 1449.3834775306082
  endloop
endfacet
facet normal -1.0 -0.0 -1.7763568394006544e-14
  outer loop
    vertex 9383.49024999828 295.6877500000774 -0.004022469391691174
    vertex 9383.49024999826 397.28775000006135 1449.3834775306082
    vertex 9383.49024999828 397.28775000008693 -0.004022469391691174
  endloop
endfacet
facet normal -6.310887241768936e-28 1.0 1.7763568394000832e-14
  outer loop
    vertex 9383.49024999826 397.28775000006135 1449.3834775306082
    vertex 9485.090249998259 397.28775000008693 -0.004022469388081617
    vertex 9383.49024999828 397.28775000008693 -0.004022469391691174
  endloop
endfacet
facet normal -6.310887241768936e-28 1.0 1.7763568394000832e-14
  outer loop
    vertex 9485.090249998259 397.28775000008693 -0.004022469388081617
    vertex 9383.49024999826 397.28775000006135 1449.3834775306082
    vertex 9485.090249998237 397.28775000006135 1449.3834775306118
  endloop
endfacet
facet normal 1.0 9.402235399418536e-14 4.7097610227727884e-14
  outer loop
    vertex 9485.090249998173 2556.287750000071 414.1095650087501
    vertex 9485.090249998186 2353.08775000007 494.2598033975388
    vertex 9485.090249998173 2276.887750000071 414.10956500874704
  endloop
endfacet
facet normal 1.0 9.402235399418536e-14 4.7097610227727884e-14
  outer loop
    vertex 9485.090249998186 2353.08775000007 494.2598033975388
    vertex 9485.090249998173 2556.287750000071 414.1095650087501
    vertex 9485.090249998184 2632.4877500000703 494.259803397542
  endloop
endfacet
facet normal 1.0 9.402235399418536e-14 4.7097610227727884e-14
  outer loop
    vertex 9485.090249998184 2632.4877500000703 494.259803397542
    vertex 9485.090249998173 2556.287750000071 414.1095650087501
    vertex 9485.090249998138 2556.287750000073 207.05478250437312
  endloop
endfacet
facet normal 1.0 9.402235399418536e-14 4.7097610227727884e-14
  outer loop
    vertex 9485.090249998184 2632.4877500000703 494.259803397542
    vertex 9485.090249998138 2556.287750000073 207.05478250437312
    vertex 9485.090249998175 2632.4877500000725 287.2050208931648
  endloop
endfacet
facet normal 1.0 9.402235399418536e-14 4.7097610227727884e-14
  outer loop
    vertex 9485.090249998175 2632.4877500000725 287.2050208931648
    vertex 9485.090249998138 2556.287750000073 207.05478250437312
    vertex 9485.090249998138 2835.6877500000733 207.0547825043762
  endloop
endfacet
facet normal 1.0 9.402235399418536e-14 4.7097610227727884e-14
  outer loop
    vertex 9485.090249998175 2632.4877500000725 287.2050208931648
    vertex 9485.090249998138 2835.6877500000733 207.0547825043762
    vertex 9485.090249998153 2911.887750000072 287.205020893168
  endloop
endfacet
facet normal 1.0 9.402235399418536e-14 4.7097610227727884e-14
  outer loop
    vertex 9485.090249998153 2911.887750000072 287.205020893168
    vertex 9485.090249998138 2835.6877500000733 207.0547825043762
    vertex 9485.090249998164 2835.687750000075 3.052361437243241e-12
  endloop
endfacet
facet normal 1.0 9.402235399418536e-14 4.7097610227727884e-14
  outer loop
    vertex 9485.090249998153 2911.887750000072 287.205020893168
    vertex 9485.090249998164 2835.687750000075 3.052361437243241e-12
    vertex 9485.090249998126 2911.8877500000744 80.15023838879131
  endloop
endfacet
facet normal 1.0 9.402235399418536e-14 4.7097610227727884e-14
  outer loop
    vertex 9485.090249998126 2911.8877500000744 80.15023838879131
    vertex 9485.090249998164 2835.687750000075 3.052361437243241e-12
    vertex 9485.090249998106 3191.2877500000754 3.0519980484878803e-12
  endloop
endfacet
facet normal 1.0 9.402235399418536e-14 4.7097610227727884e-14
  outer loop
    vertex 9485.090249998126 2911.8877500000744 80.15023838879131
    vertex 9485.090249998106 3191.2877500000754 3.0519980484878803e-12
    vertex 9485.090249998118 3191.2877500000745 80.15023838879411
  endloop
endfacet
facet normal 1.0 9.402235399418536e-14 4.7097610227727884e-14
  outer loop
    vertex 9485.090249998188 1997.4877500000673 828.2191300174978
    vertex 9485.090249998277 1794.2877500000666 908.3693684062866
    vertex 9485.090249998279 1718.0877500000674 828.2191300174946
  endloop
endfacet
facet normal 1.0 9.402235399418536e-14 4.7097610227727884e-14
  outer loop
    vertex 9485.090249998277 1794.2877500000666 908.3693684062866
    vertex 9485.090249998188 1997.4877500000673 828.2191300174978
    vertex 9485.090249998158 2073.6877500000664 908.3693684062898
  endloop
endfacet
facet normal 1.0 9.402235399418536e-14 4.7097610227727884e-14
  outer loop
    vertex 9485.090249998158 2073.6877500000664 908.3693684062898
    vertex 9485.090249998188 1997.4877500000673 828.2191300174978
    vertex 9485.090249998268 1997.4877500000696 621.1643475131211
  endloop
endfacet
facet normal 1.0 9.402235399418536e-14 4.7097610227727884e-14
  outer loop
    vertex 9485.090249998158 2073.6877500000664 908.3693684062898
    vertex 9485.090249998268 1997.4877500000696 621.1643475131211
    vertex 9485.090249998239 2073.6877500000687 701.3145859019158
  endloop
endfacet
facet normal 1.0 9.402235399418536e-14 4.7097610227727884e-14
  outer loop
    vertex 9485.090249998239 2073.6877500000687 701.3145859019158
    vertex 9485.090249998268 1997.4877500000696 621.1643475131211
    vertex 9485.09024999814 2276.887750000069 621.164347513124
  endloop
endfacet
facet normal 1.0 9.402235399418536e-14 4.7097610227727884e-14
  outer loop
    vertex 9485.090249998239 2073.6877500000687 701.3145859019158
    vertex 9485.09024999814 2276.887750000069 621.164347513124
    vertex 9485.090249998146 2353.08775000007 701.3145859019158
  endloop
endfacet
facet normal 1.0 9.402235399418536e-14 4.7097610227727884e-14
  outer loop
    vertex 9485.090249998146 2353.08775000007 701.3145859019158
    vertex 9485.09024999814 2276.887750000069 621.164347513124
    vertex 9485.090249998173 2276.887750000071 414.10956500874704
  endloop
endfacet
facet normal 1.0 9.402235399418536e-14 4.7097610227727884e-14
  outer loop
    vertex 9485.090249998146 2353.08775000007 701.3145859019158
    vertex 9485.090249998173 2276.887750000071 414.10956500874704
    vertex 9485.090249998186 2353.08775000007 494.2598033975388
  endloop
endfacet
facet normal 1.0 9.402235399418536e-14 4.7097610227727884e-14
  outer loop
    vertex 9485.09024999807 1159.2877500000618 1449.38347753062
    vertex 9485.09024999841 295.6877500000615 1529.5337159194116
    vertex 9485.090249998259 295.6877500000613 1449.3834775306107
  endloop
endfacet
facet normal 1.0 9.402235399418536e-14 4.7097610227727884e-14
  outer loop
    vertex 9485.09024999841 295.6877500000615 1529.5337159194116
    vertex 9485.09024999807 1159.2877500000618 1449.38347753062
    vertex 9485.090249998226 1235.4877500000612 1529.5337159194116
  endloop
endfacet
facet normal 1.0 9.402235399418536e-14 4.7097610227727884e-14
  outer loop
    vertex 9485.090249998226 1235.4877500000612 1529.5337159194116
    vertex 9485.09024999807 1159.2877500000618 1449.38347753062
    vertex 9485.09024999815 1159.287750000064 1242.3286950262427
  endloop
endfacet
facet normal 1.0 9.402235399418536e-14 4.7097610227727884e-14
  outer loop
    vertex 9485.090249998226 1235.4877500000612 1529.5337159194116
    vertex 9485.09024999815 1159.287750000064 1242.3286950262427
    vertex 9485.090249998344 1235.4877500000632 1322.4789334150348
  endloop
endfacet
facet normal 1.0 9.402235399418536e-14 4.7097610227727884e-14
  outer loop
    vertex 9485.090249998344 1235.4877500000632 1322.4789334150348
    vertex 9485.09024999815 1159.287750000064 1242.3286950262427
    vertex 9485.090249998306 1438.687750000064 1242.328695026246
  endloop
endfacet
facet normal 1.0 9.402235399418536e-14 4.7097610227727884e-14
  outer loop
    vertex 9485.090249998344 1235.4877500000632 1322.4789334150348
    vertex 9485.090249998306 1438.687750000064 1242.328695026246
    vertex 9485.090249998317 1514.8877500000633 1322.4789334150378
  endloop
endfacet
facet normal 1.0 9.402235399418536e-14 4.7097610227727884e-14
  outer loop
    vertex 9485.090249998317 1514.8877500000633 1322.4789334150378
    vertex 9485.090249998306 1438.687750000064 1242.328695026246
    vertex 9485.090249998271 1438.6877500000662 1035.2739125218689
  endloop
endfacet
facet normal 1.0 9.402235399418536e-14 4.7097610227727884e-14
  outer loop
    vertex 9485.090249998317 1514.8877500000633 1322.4789334150378
    vertex 9485.090249998271 1438.6877500000662 1035.2739125218689
    vertex 9485.090249998286 1514.8877500000654 1115.424150910661
  endloop
endfacet
facet normal 1.0 9.402235399418536e-14 4.7097610227727884e-14
  outer loop
    vertex 9485.090249998286 1514.8877500000654 1115.424150910661
    vertex 9485.090249998271 1438.6877500000662 1035.2739125218689
    vertex 9485.090249998193 1718.0877500000652 1035.273912521872
  endloop
endfacet
facet normal 1.0 9.402235399418536e-14 4.7097610227727884e-14
  outer loop
    vertex 9485.090249998286 1514.8877500000654 1115.424150910661
    vertex 9485.090249998193 1718.0877500000652 1035.273912521872
    vertex 9485.090249998193 1794.2877500000666 1115.424150910664
  endloop
endfacet
facet normal 1.0 9.402235399418536e-14 4.7097610227727884e-14
  outer loop
    vertex 9485.090249998193 1794.2877500000666 1115.424150910664
    vertex 9485.090249998193 1718.0877500000652 1035.273912521872
    vertex 9485.090249998279 1718.0877500000674 828.2191300174946
  endloop
endfacet
facet normal 1.0 9.402235399418536e-14 4.7097610227727884e-14
  outer loop
    vertex 9485.090249998193 1794.2877500000666 1115.424150910664
    vertex 9485.090249998279 1718.0877500000674 828.2191300174946
    vertex 9485.090249998277 1794.2877500000666 908.3693684062866
  endloop
endfacet
facet normal 4.256956154602838e-14 9.82579398677082e-15 -1.0
  outer loop
    vertex 9485.090249998138 2835.6877500000733 207.0547825043762
    vertex 8723.090249998138 2556.287750000002 207.05478250433725
    vertex 8723.090249998138 2835.6877500000014 207.05478250434032
  endloop
endfacet
facet normal 4.256956154602838e-14 9.82579398677082e-15 -1.0
  outer loop
    vertex 8723.090249998138 2556.287750000002 207.05478250433725
    vertex 9485.090249998138 2835.6877500000733 207.0547825043762
    vertex 9485.090249998138 2556.287750000073 207.05478250437312
  endloop
endfacet
facet normal 9.402235399418586e-14 -1.0 -1.157229761880339e-14
  outer loop
    vertex 9485.090249998164 2835.687750000075 3.052361437243241e-12
    vertex 8723.090249998138 2835.6877500000014 207.05478250434032
    vertex 8723.090249998164 2835.6877500000037 -3.2836017556285406e-11
  endloop
endfacet
facet normal 9.402235399418586e-14 -1.0 -1.157229761880339e-14
  outer loop
    vertex 8723.090249998138 2835.6877500000014 207.05478250434032
    vertex 9485.090249998164 2835.687750000075 3.052361437243241e-12
    vertex 9485.090249998138 2835.6877500000733 207.0547825043762
  endloop
endfacet
facet normal -9.402235399418536e-14 1.0 -1.9584983938362107e-26
  outer loop
    vertex 8723.090249998146 2353.087749999999 701.31458590188
    vertex 9485.090249998186 2353.08775000007 494.2598033975388
    vertex 8723.090249998186 2353.087749999999 494.259803397503
  endloop
endfacet
facet normal -9.402235399418536e-14 1.0 -1.9584983938362107e-26
  outer loop
    vertex 9485.090249998186 2353.08775000007 494.2598033975388
    vertex 8723.090249998146 2353.087749999999 701.31458590188
    vertex 9485.090249998146 2353.08775000007 701.3145859019158
  endloop
endfacet
facet normal -4.2569561546029316e-14 -1.4078832975603632e-26 1.0
  outer loop
    vertex 8723.090249998239 2073.6877499999973 701.31458590188
    vertex 9485.090249998146 2353.08775000007 701.3145859019158
    vertex 8723.090249998146 2353.087749999999 701.31458590188
  endloop
endfacet
facet normal -4.2569561546029316e-14 -1.4078832975603632e-26 1.0
  outer loop
    vertex 9485.090249998146 2353.08775000007 701.3145859019158
    vertex 8723.090249998239 2073.6877499999973 701.31458590188
    vertex 9485.090249998239 2073.6877500000687 701.3145859019158
  endloop
endfacet
facet normal -9.402235399418585e-14 1.0 1.157229761877505e-14
  outer loop
    vertex 8723.090249998158 2073.687749999995 908.3693684062539
    vertex 9485.090249998239 2073.6877500000687 701.3145859019158
    vertex 8723.090249998239 2073.6877499999973 701.31458590188
  endloop
endfacet
facet normal -9.402235399418585e-14 1.0 1.157229761877505e-14
  outer loop
    vertex 9485.090249998239 2073.6877500000687 701.3145859019158
    vertex 8723.090249998158 2073.687749999995 908.3693684062539
    vertex 9485.090249998158 2073.6877500000664 908.3693684062898
  endloop
endfacet
facet normal -4.256956154602833e-14 -1.0439906110962037e-14 1.0
  outer loop
    vertex 8723.090249998277 1794.2877499999952 908.3693684062508
    vertex 9485.090249998158 2073.6877500000664 908.3693684062898
    vertex 8723.090249998158 2073.687749999995 908.3693684062539
  endloop
endfacet
facet normal -4.256956154602833e-14 -1.0439906110962037e-14 1.0
  outer loop
    vertex 9485.090249998158 2073.6877500000664 908.3693684062898
    vertex 8723.090249998277 1794.2877499999952 908.3693684062508
    vertex 9485.090249998277 1794.2877500000666 908.3693684062866
  endloop
endfacet
facet normal -9.402235399418536e-14 1.0 -4.2071446978703775e-26
  outer loop
    vertex 8723.090249998193 1794.2877499999952 1115.424150910628
    vertex 9485.090249998277 1794.2877500000666 908.3693684062866
    vertex 8723.090249998277 1794.2877499999952 908.3693684062508
  endloop
endfacet
facet normal -9.402235399418536e-14 1.0 -4.2071446978703775e-26
  outer loop
    vertex 9485.090249998277 1794.2877500000666 908.3693684062866
    vertex 8723.090249998193 1794.2877499999952 1115.424150910628
    vertex 9485.090249998193 1794.2877500000666 1115.424150910664
  endloop
endfacet
facet normal -4.256956154602844e-14 -9.211681862611675e-15 1.0
  outer loop
    vertex 8723.090249998286 1514.8877499999937 1115.424150910625
    vertex 9485.090249998193 1794.2877500000666 1115.424150910664
    vertex 8723.090249998193 1794.2877499999952 1115.424150910628
  endloop
endfacet
facet normal -4.256956154602844e-14 -9.211681862611675e-15 1.0
  outer loop
    vertex 9485.090249998193 1794.2877500000666 1115.424150910664
    vertex 8723.090249998286 1514.8877499999937 1115.424150910625
    vertex 9485.090249998286 1514.8877500000654 1115.424150910661
  endloop
endfacet
facet normal -9.402235399418585e-14 1.0 1.1572297618831466e-14
  outer loop
    vertex 8723.090249998317 1514.8877499999917 1322.478933415002
    vertex 9485.090249998286 1514.8877500000654 1115.424150910661
    vertex 8723.090249998286 1514.8877499999937 1115.424150910625
  endloop
endfacet
facet normal -9.402235399418585e-14 1.0 1.1572297618831466e-14
  outer loop
    vertex 9485.090249998286 1514.8877500000654 1115.424150910661
    vertex 8723.090249998317 1514.8877499999917 1322.478933415002
    vertex 9485.090249998317 1514.8877500000633 1322.4789334150378
  endloop
endfacet
facet normal -4.256956154602838e-14 -9.825793986775e-15 1.0
  outer loop
    vertex 8723.090249998344 1235.4877499999916 1322.478933414999
    vertex 9485.090249998317 1514.8877500000633 1322.4789334150378
    vertex 8723.090249998317 1514.8877499999917 1322.478933415002
  endloop
endfacet
facet normal -4.256956154602838e-14 -9.825793986775e-15 1.0
  outer loop
    vertex 9485.090249998317 1514.8877500000633 1322.4789334150378
    vertex 8723.090249998344 1235.4877499999916 1322.478933414999
    vertex 9485.090249998344 1235.4877500000632 1322.4789334150348
  endloop
endfacet
facet normal -9.402235399418585e-14 1.0 1.1572297618756027e-14
  outer loop
    vertex 8723.090249998226 1235.4877499999895 1529.533715919376
    vertex 9485.090249998344 1235.4877500000632 1322.4789334150348
    vertex 8723.090249998344 1235.4877499999916 1322.478933414999
  endloop
endfacet
facet normal -9.402235399418585e-14 1.0 1.1572297618756027e-14
  outer loop
    vertex 9485.090249998344 1235.4877500000632 1322.4789334150348
    vertex 8723.090249998226 1235.4877499999895 1529.533715919376
    vertex 9485.090249998226 1235.4877500000612 1529.5337159194116
  endloop
endfacet
facet normal -4.256956154602931e-14 -8.305798001232438e-27 1.0
  outer loop
    vertex 8723.09024999841 295.6877499999899 1529.533715919376
    vertex 9485.090249998226 1235.4877500000612 1529.5337159194116
    vertex 8723.090249998226 1235.4877499999895 1529.533715919376
  endloop
endfacet
facet normal -4.256956154602931e-14 -8.305798001232438e-27 1.0
  outer loop
    vertex 9485.090249998226 1235.4877500000612 1529.5337159194116
    vertex 8723.09024999841 295.6877499999899 1529.533715919376
    vertex 9485.09024999841 295.6877500000615 1529.5337159194116
  endloop
endfacet
facet normal -9.402235399418577e-14 1.0 9.643581349017262e-15
  outer loop
    vertex 8723.090249998184 2632.487749999999 494.25980339750606
    vertex 9485.090249998175 2632.4877500000725 287.2050208931648
    vertex 8723.090249998175 2632.487750000001 287.2050208931289
  endloop
endfacet
facet normal -9.402235399418577e-14 1.0 9.643581349017262e-15
  outer loop
    vertex 9485.090249998175 2632.4877500000725 287.2050208931648
    vertex 8723.090249998184 2632.487749999999 494.25980339750606
    vertex 9485.090249998184 2632.4877500000703 494.259803397542
  endloop
endfacet
facet normal -4.256956154602845e-14 -9.05815383155545e-15 1.0
  outer loop
    vertex 8723.090249998126 2911.887750000003 80.15023838875543
    vertex 9485.090249998118 3191.2877500000745 80.15023838879411
    vertex 8723.090249998118 3191.287750000003 80.15023838875821
  endloop
endfacet
facet normal -4.256956154602845e-14 -9.05815383155545e-15 1.0
  outer loop
    vertex 9485.090249998118 3191.2877500000745 80.15023838879411
    vertex 8723.090249998126 2911.887750000003 80.15023838875543
    vertex 9485.090249998126 2911.8877500000744 80.15023838879131
  endloop
endfacet
facet normal 4.2569561546029304e-14 -9.236555300784146e-19 -1.0
  outer loop
    vertex 9485.090249998106 3191.2877500000754 3.0519980484878803e-12
    vertex 8723.090249998164 2835.6877500000037 -3.2836017556285406e-11
    vertex 8723.090249998106 3191.2877500000036 -3.283638094504077e-11
  endloop
endfacet
facet normal 4.2569561546029304e-14 -9.236555300784146e-19 -1.0
  outer loop
    vertex 8723.090249998164 2835.6877500000037 -3.2836017556285406e-11
    vertex 9485.090249998106 3191.2877500000754 3.0519980484878803e-12
    vertex 9485.090249998164 2835.687750000075 3.052361437243241e-12
  endloop
endfacet
facet normal 9.402235399418525e-14 -1.0 2.4912585149664766e-15
  outer loop
    vertex 9485.090249998259 295.6877500000613 1449.3834775306107
    vertex 8723.09024999841 295.6877499999899 1529.533715919376
    vertex 8723.090249998259 295.6877499999897 1449.3834775305747
  endloop
endfacet
facet normal 9.402235399418525e-14 -1.0 2.4912585149664766e-15
  outer loop
    vertex 8723.09024999841 295.6877499999899 1529.533715919376
    vertex 9485.090249998259 295.6877500000613 1449.3834775306107
    vertex 9485.09024999841 295.6877500000615 1529.5337159194116
  endloop
endfacet
facet normal -1.0 -9.402235399418536e-14 -4.7097610227727884e-14
  outer loop
    vertex 8723.09024999841 295.6877499999899 1529.533715919376
    vertex 8723.09024999807 1159.2877499999902 1449.383477530584
    vertex 8723.090249998259 295.6877499999897 1449.3834775305747
  endloop
endfacet
facet normal -1.0 -9.402235399418536e-14 -4.7097610227727884e-14
  outer loop
    vertex 8723.09024999807 1159.2877499999902 1449.383477530584
    vertex 8723.09024999841 295.6877499999899 1529.533715919376
    vertex 8723.090249998226 1235.4877499999895 1529.533715919376
  endloop
endfacet
facet normal -1.0 -9.402235399418536e-14 -4.7097610227727884e-14
  outer loop
    vertex 8723.09024999807 1159.2877499999902 1449.383477530584
    vertex 8723.090249998226 1235.4877499999895 1529.533715919376
    vertex 8723.09024999815 1159.2877499999922 1242.328695026207
  endloop
endfacet
facet normal -1.0 -9.402235399418536e-14 -4.7097610227727884e-14
  outer loop
    vertex 8723.09024999815 1159.2877499999922 1242.328695026207
    vertex 8723.090249998226 1235.4877499999895 1529.533715919376
    vertex 8723.090249998344 1235.4877499999916 1322.478933414999
  endloop
endfacet
facet normal -1.0 -9.402235399418536e-14 -4.7097610227727884e-14
  outer loop
    vertex 8723.09024999815 1159.2877499999922 1242.328695026207
    vertex 8723.090249998344 1235.4877499999916 1322.478933414999
    vertex 8723.090249998306 1438.6877499999923 1242.32869502621
  endloop
endfacet
facet normal -1.0 -9.402235399418536e-14 -4.7097610227727884e-14
  outer loop
    vertex 8723.090249998306 1438.6877499999923 1242.32869502621
    vertex 8723.090249998344 1235.4877499999916 1322.478933414999
    vertex 8723.090249998317 1514.8877499999917 1322.478933415002
  endloop
endfacet
facet normal -1.0 -9.402235399418536e-14 -4.7097610227727884e-14
  outer loop
    vertex 8723.090249998306 1438.6877499999923 1242.32869502621
    vertex 8723.090249998317 1514.8877499999917 1322.478933415002
    vertex 8723.090249998273 1438.6877499999946 1035.273912521833
  endloop
endfacet
facet normal -1.0 -9.402235399418536e-14 -4.7097610227727884e-14
  outer loop
    vertex 8723.090249998273 1438.6877499999946 1035.273912521833
    vertex 8723.090249998317 1514.8877499999917 1322.478933415002
    vertex 8723.090249998286 1514.8877499999937 1115.424150910625
  endloop
endfacet
facet normal -1.0 -9.402235399418536e-14 -4.7097610227727884e-14
  outer loop
    vertex 8723.090249998273 1438.6877499999946 1035.273912521833
    vertex 8723.090249998286 1514.8877499999937 1115.424150910625
    vertex 8723.090249998193 1718.0877499999938 1035.273912521836
  endloop
endfacet
facet normal -1.0 -9.402235399418536e-14 -4.7097610227727884e-14
  outer loop
    vertex 8723.090249998193 1718.0877499999938 1035.273912521836
    vertex 8723.090249998286 1514.8877499999937 1115.424150910625
    vertex 8723.090249998193 1794.2877499999952 1115.424150910628
  endloop
endfacet
facet normal -1.0 -9.402235399418536e-14 -4.7097610227727884e-14
  outer loop
    vertex 8723.090249998193 1718.0877499999938 1035.273912521836
    vertex 8723.090249998193 1794.2877499999952 1115.424150910628
    vertex 8723.090249998279 1718.0877499999958 828.2191300174587
  endloop
endfacet
facet normal -1.0 -9.402235399418536e-14 -4.7097610227727884e-14
  outer loop
    vertex 8723.090249998279 1718.0877499999958 828.2191300174587
    vertex 8723.090249998193 1794.2877499999952 1115.424150910628
    vertex 8723.090249998277 1794.2877499999952 908.3693684062508
  endloop
endfacet
facet normal -1.0 -9.402235399418536e-14 -4.7097610227727884e-14
  outer loop
    vertex 8723.090249998279 1718.0877499999958 828.2191300174587
    vertex 8723.090249998277 1794.2877499999952 908.3693684062508
    vertex 8723.090249998188 1997.487749999996 828.2191300174621
  endloop
endfacet
facet normal -1.0 -9.402235399418536e-14 -4.7097610227727884e-14
  outer loop
    vertex 8723.090249998188 1997.487749999996 828.2191300174621
    vertex 8723.090249998277 1794.2877499999952 908.3693684062508
    vertex 8723.090249998158 2073.687749999995 908.3693684062539
  endloop
endfacet
facet normal -1.0 -9.402235399418536e-14 -4.7097610227727884e-14
  outer loop
    vertex 8723.090249998188 1997.487749999996 828.2191300174621
    vertex 8723.090249998158 2073.687749999995 908.3693684062539
    vertex 8723.090249998268 1997.487749999998 621.1643475130853
  endloop
endfacet
facet normal -1.0 -9.402235399418536e-14 -4.7097610227727884e-14
  outer loop
    vertex 8723.090249998268 1997.487749999998 621.1643475130853
    vertex 8723.090249998158 2073.687749999995 908.3693684062539
    vertex 8723.090249998239 2073.6877499999973 701.31458590188
  endloop
endfacet
facet normal -1.0 -9.402235399418536e-14 -4.7097610227727884e-14
  outer loop
    vertex 8723.090249998268 1997.487749999998 621.1643475130853
    vertex 8723.090249998239 2073.6877499999973 701.31458590188
    vertex 8723.09024999814 2276.887749999997 621.164347513088
  endloop
endfacet
facet normal -1.0 -9.402235399418536e-14 -4.7097610227727884e-14
  outer loop
    vertex 8723.09024999814 2276.887749999997 621.164347513088
    vertex 8723.090249998239 2073.6877499999973 701.31458590188
    vertex 8723.090249998146 2353.087749999999 701.31458590188
  endloop
endfacet
facet normal -1.0 -9.402235399418536e-14 -4.7097610227727884e-14
  outer loop
    vertex 8723.09024999814 2276.887749999997 621.164347513088
    vertex 8723.090249998146 2353.087749999999 701.31458590188
    vertex 8723.090249998173 2276.8877499999994 414.10956500871123
  endloop
endfacet
facet normal -1.0 -9.402235399418536e-14 -4.7097610227727884e-14
  outer loop
    vertex 8723.090249998173 2276.8877499999994 414.10956500871123
    vertex 8723.090249998146 2353.087749999999 701.31458590188
    vertex 8723.090249998186 2353.087749999999 494.259803397503
  endloop
endfacet
facet normal -1.0 -9.402235399418536e-14 -4.7097610227727884e-14
  outer loop
    vertex 8723.090249998173 2276.8877499999994 414.10956500871123
    vertex 8723.090249998186 2353.087749999999 494.259803397503
    vertex 8723.090249998173 2556.2877499999995 414.1095650087142
  endloop
endfacet
facet normal -1.0 -9.402235399418536e-14 -4.7097610227727884e-14
  outer loop
    vertex 8723.090249998173 2556.2877499999995 414.1095650087142
    vertex 8723.090249998186 2353.087749999999 494.259803397503
    vertex 8723.090249998184 2632.487749999999 494.25980339750606
  endloop
endfacet
facet normal -1.0 -9.402235399418536e-14 -4.7097610227727884e-14
  outer loop
    vertex 8723.090249998173 2556.2877499999995 414.1095650087142
    vertex 8723.090249998184 2632.487749999999 494.25980339750606
    vertex 8723.090249998138 2556.287750000002 207.05478250433725
  endloop
endfacet
facet normal -1.0 -9.402235399418536e-14 -4.7097610227727884e-14
  outer loop
    vertex 8723.090249998138 2556.287750000002 207.05478250433725
    vertex 8723.090249998184 2632.487749999999 494.25980339750606
    vertex 8723.090249998175 2632.487750000001 287.2050208931289
  endloop
endfacet
facet normal -1.0 -9.402235399418536e-14 -4.7097610227727884e-14
  outer loop
    vertex 8723.090249998138 2556.287750000002 207.05478250433725
    vertex 8723.090249998175 2632.487750000001 287.2050208931289
    vertex 8723.090249998138 2835.6877500000014 207.05478250434032
  endloop
endfacet
facet normal -1.0 -9.402235399418536e-14 -4.7097610227727884e-14
  outer loop
    vertex 8723.090249998138 2835.6877500000014 207.05478250434032
    vertex 8723.090249998175 2632.487750000001 287.2050208931289
    vertex 8723.090249998153 2911.887750000001 287.2050208931321
  endloop
endfacet
facet normal -1.0 -9.402235399418536e-14 -4.7097610227727884e-14
  outer loop
    vertex 8723.090249998138 2835.6877500000014 207.05478250434032
    vertex 8723.090249998153 2911.887750000001 287.2050208931321
    vertex 8723.090249998164 2835.6877500000037 -3.2836017556285406e-11
  endloop
endfacet
facet normal -1.0 -9.402235399418536e-14 -4.7097610227727884e-14
  outer loop
    vertex 8723.090249998164 2835.6877500000037 -3.2836017556285406e-11
    vertex 8723.090249998153 2911.887750000001 287.2050208931321
    vertex 8723.090249998126 2911.887750000003 80.15023838875543
  endloop
endfacet
facet normal -1.0 -9.402235399418536e-14 -4.7097610227727884e-14
  outer loop
    vertex 8723.090249998164 2835.6877500000037 -3.2836017556285406e-11
    vertex 8723.090249998126 2911.887750000003 80.15023838875543
    vertex 8723.090249998106 3191.2877500000036 -3.283638094504077e-11
  endloop
endfacet
facet normal -1.0 -9.402235399418536e-14 -4.7097610227727884e-14
  outer loop
    vertex 8723.090249998106 3191.2877500000036 -3.283638094504077e-11
    vertex 8723.090249998126 2911.887750000003 80.15023838875543
    vertex 8723.090249998118 3191.287750000003 80.15023838875821
  endloop
endfacet
facet normal -4.256956154602833e-14 -1.0439906110947517e-14 1.0
  outer loop
    vertex 8723.090249998175 2632.487750000001 287.2050208931289
    vertex 9485.090249998153 2911.887750000072 287.205020893168
    vertex 8723.090249998153 2911.887750000001 287.2050208931321
  endloop
endfacet
facet normal -4.256956154602833e-14 -1.0439906110947517e-14 1.0
  outer loop
    vertex 9485.090249998153 2911.887750000072 287.205020893168
    vertex 8723.090249998175 2632.487750000001 287.2050208931289
    vertex 9485.090249998175 2632.4877500000725 287.2050208931648
  endloop
endfacet
facet normal -9.402235399418586e-14 1.0 1.1572297618828579e-14
  outer loop
    vertex 8723.090249998153 2911.887750000001 287.2050208931321
    vertex 9485.090249998126 2911.8877500000744 80.15023838879131
    vertex 8723.090249998126 2911.887750000003 80.15023838875543
  endloop
endfacet
facet normal -9.402235399418586e-14 1.0 1.1572297618828579e-14
  outer loop
    vertex 9485.090249998126 2911.8877500000744 80.15023838879131
    vertex 8723.090249998153 2911.887750000001 287.2050208931321
    vertex 9485.090249998153 2911.887750000072 287.205020893168
  endloop
endfacet
facet normal -4.256956154602836e-14 -1.0132850048857628e-14 1.0
  outer loop
    vertex 8723.090249998186 2353.087749999999 494.259803397503
    vertex 9485.090249998184 2632.4877500000703 494.259803397542
    vertex 8723.090249998184 2632.487749999999 494.25980339750606
  endloop
endfacet
facet normal -4.256956154602836e-14 -1.0132850048857628e-14 1.0
  outer loop
    vertex 9485.090249998184 2632.4877500000703 494.259803397542
    vertex 8723.090249998186 2353.087749999999 494.259803397503
    vertex 9485.090249998186 2353.08775000007 494.2598033975388
  endloop
endfacet
facet normal -9.402235399418577e-14 1.0 9.965034060663554e-15
  outer loop
    vertex 8723.090249998118 3191.287750000003 80.15023838875821
    vertex 9485.090249998106 3191.2877500000754 3.0519980484878803e-12
    vertex 8723.090249998106 3191.2877500000036 -3.283638094504077e-11
  endloop
endfacet
facet normal -9.402235399418577e-14 1.0 9.965034060663554e-15
  outer loop
    vertex 9485.090249998106 3191.2877500000754 3.0519980484878803e-12
    vertex 8723.090249998118 3191.287750000003 80.15023838875821
    vertex 9485.090249998118 3191.2877500000745 80.15023838879411
  endloop
endfacet
facet normal 9.402235399418576e-14 -1.0 -9.643581349029606e-15
  outer loop
    vertex 9485.090249998138 2556.287750000073 207.05478250437312
    vertex 8723.090249998173 2556.2877499999995 414.1095650087142
    vertex 8723.090249998138 2556.287750000002 207.05478250433725
  endloop
endfacet
facet normal 9.402235399418576e-14 -1.0 -9.643581349029606e-15
  outer loop
    vertex 8723.090249998173 2556.2877499999995 414.1095650087142
    vertex 9485.090249998138 2556.287750000073 207.05478250437312
    vertex 9485.090249998173 2556.287750000071 414.1095650087501
  endloop
endfacet
facet normal 4.25695615460284e-14 9.672265955727527e-15 -1.0
  outer loop
    vertex 9485.090249998173 2556.287750000071 414.1095650087501
    vertex 8723.090249998173 2276.8877499999994 414.10956500871123
    vertex 8723.090249998173 2556.2877499999995 414.1095650087142
  endloop
endfacet
facet normal 4.25695615460284e-14 9.672265955727527e-15 -1.0
  outer loop
    vertex 8723.090249998173 2276.8877499999994 414.10956500871123
    vertex 9485.090249998173 2556.287750000071 414.1095650087501
    vertex 9485.090249998173 2276.887750000071 414.10956500874704
  endloop
endfacet
facet normal 9.402235399418585e-14 -1.0 -1.157229761879955e-14
  outer loop
    vertex 9485.090249998173 2276.887750000071 414.10956500874704
    vertex 8723.09024999814 2276.887749999997 621.164347513088
    vertex 8723.090249998173 2276.8877499999994 414.10956500871123
  endloop
endfacet
facet normal 9.402235399418585e-14 -1.0 -1.157229761879955e-14
  outer loop
    vertex 8723.09024999814 2276.887749999997 621.164347513088
    vertex 9485.090249998173 2276.887750000071 414.10956500874704
    vertex 9485.09024999814 2276.887750000069 621.164347513124
  endloop
endfacet
facet normal 4.2569561546028445e-14 9.211681862617014e-15 -1.0
  outer loop
    vertex 9485.09024999814 2276.887750000069 621.164347513124
    vertex 8723.090249998268 1997.487749999998 621.1643475130853
    vertex 8723.09024999814 2276.887749999997 621.164347513088
  endloop
endfacet
facet normal 4.2569561546028445e-14 9.211681862617014e-15 -1.0
  outer loop
    vertex 8723.090249998268 1997.487749999998 621.1643475130853
    vertex 9485.09024999814 2276.887750000069 621.164347513124
    vertex 9485.090249998268 1997.4877500000696 621.1643475131211
  endloop
endfacet
facet normal 9.402235399418587e-14 -1.0 -1.1572297618774894e-14
  outer loop
    vertex 9485.090249998268 1997.4877500000696 621.1643475131211
    vertex 8723.090249998188 1997.487749999996 828.2191300174621
    vertex 8723.090249998268 1997.487749999998 621.1643475130853
  endloop
endfacet
facet normal 9.402235399418587e-14 -1.0 -1.1572297618774894e-14
  outer loop
    vertex 8723.090249998188 1997.487749999996 828.2191300174621
    vertex 9485.090249998268 1997.4877500000696 621.1643475131211
    vertex 9485.090249998188 1997.4877500000673 828.2191300174978
  endloop
endfacet
facet normal 4.2569561546028294e-14 1.0746962173044663e-14 -1.0
  outer loop
    vertex 9485.090249998188 1997.4877500000673 828.2191300174978
    vertex 8723.090249998279 1718.0877499999958 828.2191300174587
    vertex 8723.090249998188 1997.487749999996 828.2191300174621
  endloop
endfacet
facet normal 4.2569561546028294e-14 1.0746962173044663e-14 -1.0
  outer loop
    vertex 8723.090249998279 1718.0877499999958 828.2191300174587
    vertex 9485.090249998188 1997.4877500000673 828.2191300174978
    vertex 9485.090249998279 1718.0877500000674 828.2191300174946
  endloop
endfacet
facet normal 9.402235399418586e-14 -1.0 -1.1572297618771964e-14
  outer loop
    vertex 9485.090249998279 1718.0877500000674 828.2191300174946
    vertex 8723.090249998193 1718.0877499999938 1035.273912521836
    vertex 8723.090249998279 1718.0877499999958 828.2191300174587
  endloop
endfacet
facet normal 9.402235399418586e-14 -1.0 -1.1572297618771964e-14
  outer loop
    vertex 8723.090249998193 1718.0877499999938 1035.273912521836
    vertex 9485.090249998279 1718.0877500000674 828.2191300174946
    vertex 9485.090249998193 1718.0877500000652 1035.273912521872
  endloop
endfacet
facet normal 4.256956154602834e-14 1.0439906110956123e-14 -1.0
  outer loop
    vertex 9485.090249998193 1718.0877500000652 1035.273912521872
    vertex 8723.090249998273 1438.6877499999946 1035.273912521833
    vertex 8723.090249998193 1718.0877499999938 1035.273912521836
  endloop
endfacet
facet normal 4.256956154602834e-14 1.0439906110956123e-14 -1.0
  outer loop
    vertex 8723.090249998273 1438.6877499999946 1035.273912521833
    vertex 9485.090249998193 1718.0877500000652 1035.273912521872
    vertex 9485.090249998271 1438.6877500000662 1035.2739125218689
  endloop
endfacet
facet normal 9.402235399418586e-14 -1.0 -1.157229761883217e-14
  outer loop
    vertex 9485.090249998271 1438.6877500000662 1035.2739125218689
    vertex 8723.090249998306 1438.6877499999923 1242.32869502621
    vertex 8723.090249998273 1438.6877499999946 1035.273912521833
  endloop
endfacet
facet normal 9.402235399418586e-14 -1.0 -1.157229761883217e-14
  outer loop
    vertex 8723.090249998306 1438.6877499999923 1242.32869502621
    vertex 9485.090249998271 1438.6877500000662 1035.2739125218689
    vertex 9485.090249998306 1438.687750000064 1242.328695026246
  endloop
endfacet
facet normal 4.256956154602833e-14 1.043990611092024e-14 -1.0
  outer loop
    vertex 8723.090249998306 1438.6877499999923 1242.32869502621
    vertex 9485.09024999815 1159.287750000064 1242.3286950262427
    vertex 8723.09024999815 1159.2877499999922 1242.328695026207
  endloop
endfacet
facet normal 4.256956154602833e-14 1.043990611092024e-14 -1.0
  outer loop
    vertex 9485.09024999815 1159.287750000064 1242.3286950262427
    vertex 8723.090249998306 1438.6877499999923 1242.32869502621
    vertex 9485.090249998306 1438.687750000064 1242.328695026246
  endloop
endfacet
facet normal 9.402235399418585e-14 -1.0 -1.1572297618774875e-14
  outer loop
    vertex 9485.09024999815 1159.287750000064 1242.3286950262427
    vertex 8723.09024999807 1159.2877499999902 1449.383477530584
    vertex 8723.09024999815 1159.2877499999922 1242.328695026207
  endloop
endfacet
facet normal 9.402235399418585e-14 -1.0 -1.1572297618774875e-14
  outer loop
    vertex 8723.09024999807 1159.2877499999902 1449.383477530584
    vertex 9485.09024999815 1159.287750000064 1242.3286950262427
    vertex 9485.09024999807 1159.2877500000618 1449.38347753062
  endloop
endfacet
facet normal 4.256956154602839e-14 9.735483380284154e-15 -1.0
  outer loop
    vertex 9485.09024999807 1159.2877500000618 1449.38347753062
    vertex 8723.090249998259 295.6877499999897 1449.3834775305747
    vertex 8723.09024999807 1159.2877499999902 1449.383477530584
  endloop
endfacet
facet normal 4.256956154602839e-14 9.735483380284154e-15 -1.0
  outer loop
    vertex 8723.090249998259 295.6877499999897 1449.3834775305747
    vertex 9485.09024999807 1159.2877500000618 1449.38347753062
    vertex 9485.090249998259 295.6877500000613 1449.3834775306107
  endloop
endfacet
endsolid worthington-tower
