solid worthington-tower
facet normal -1.0125467974570816e-27 -1.0 -2.250051996573864e-14
  outer loop
    vertex 8723.090249998273 3038.887750000003 2898.7669550611927
    vertex 8570.690249998215 3038.8877500000654 -2.6800961450135216e-11
    vertex 8723.09024999822 3038.8877500000654 -3.36591199356917e-11
  endloop
endfacet
facet normal -1.0125467974570816e-27 -1.0 -2.250051996573864e-14
  outer loop
    vertex 8570.690249998215 3038.8877500000654 -2.6800961450135216e-11
    vertex 8723.090249998273 3038.887750000003 2898.7669550611927
    vertex 8570.69024999827 3038.887750000003 2898.7669550611995
  endloop
endfacet
facet normal 1.0 1.0125467974570812e-27 -2.2500519965735864e-14
  outer loop
    vertex 8723.09024999822 3038.8877500000654 -3.36591199356917e-11
    vertex 8723.090249998273 3191.2877499999886 2898.7669550611995
    vertex 8723.090249998273 3038.887750000003 2898.7669550611927
  endloop
endfacet
facet normal 1.0 1.0125467974570812e-27 -2.2500519965735864e-14
  outer loop
    vertex 8723.090249998273 3191.2877499999886 2898.7669550611995
    vertex 8723.09024999822 3038.8877500000654 -3.36591199356917e-11
    vertex 8723.09024999822 3191.287750000051 -2.6800961450135216e-11
  endloop
endfacet
facet normal 0.0 1.0 2.250051996573864e-14
  outer loop
    vertex 8570.69024999827 3191.2877499999886 2898.7669550611995
    vertex 8723.09024999822 3191.287750000051 -2.6800961450135216e-11
    vertex 8570.690249998215 3191.287750000051 -2.6800961450135216e-11
  endloop
endfacet
facet normal 0.0 1.0 2.250051996573864e-14
  outer loop
    vertex 8723.09024999822 3191.287750000051 -2.6800961450135216e-11
    vertex 8570.69024999827 3191.2877499999886 2898.7669550611995
    vertex 8723.090249998273 3191.2877499999886 2898.7669550611995
  endloop
endfacet
facet normal -1.0 0.0 2.2500519965735864e-14
  outer loop
    vertex 8570.69024999827 3191.2877499999886 2898.7669550611995
    vertex 8570.690249998215 3038.8877500000654 -2.6800961450135216e-11
    vertex 8570.69024999827 3038.887750000003 2898.7669550611995
  endloop
endfacet
facet normal -1.0 0.0 2.2500519965735864e-14
  outer loop
    vertex 8570.690249998215 3038.8877500000654 -2.6800961450135216e-11
    vertex 8570.69024999827 3191.2877499999886 2898.7669550611995
    vertex 8570.690249998215 3191.287750000051 -2.6800961450135216e-11
  endloop
endfacet
facet normal -2.2500519965735864e-14 2.2500519965738638e-14 -1.0
  outer loop
    vertex 8723.09024999822 3191.287750000051 -2.6800961450135216e-11
    vertex 8570.690249998215 3038.8877500000654 -2.6800961450135216e-11
    vertex 8570.690249998215 3191.287750000051 -2.6800961450135216e-11
  endloop
endfacet
facet normal -2.2500519965735864e-14 2.2500519965738638e-14 -1.0
  outer loop
    vertex 8570.690249998215 3038.8877500000654 -2.6800961450135216e-11
    vertex 8723.09024999822 3191.287750000051 -2.6800961450135216e-11
    vertex 8723.09024999822 3038.8877500000654 -3.36591199356917e-11
  endloop
endfacet
facet normal 2.2500519965735864e-14 -2.2500519965738638e-14 1.0
  outer loop
    vertex 8723.090249998273 3038.887750000003 2898.7669550611927
    vertex 8570.69024999827 3191.2877499999886 2898.7669550611995
    vertex 8570.69024999827 3038.887750000003 2898.7669550611995
  endloop
endfacet
facet normal 2.2500519965735864e-14 -2.2500519965738638e-14 1.0
  outer loop
    vertex 8570.69024999827 3191.2877499999886 2898.7669550611995
    vertex 8723.090249998273 3038.887750000003 2898.7669550611927
    vertex 8723.090249998273 3191.2877499999886 2898.7669550611995
  endloop
endfacet
facet normal 1.0 9.402235399418536e-14 -4.7097610227727884e-14
  outer loop
    vertex 8723.090249998322 2276.8877499999994 2564.807628441239
    vertex 8723.090249998335 2353.087749999999 2484.657390052447
    vertex 8723.090249998322 2556.2877499999995 2564.807628441236
  endloop
endfacet
facet normal 1.0 9.402235399418536e-14 -4.7097610227727884e-14
  outer loop
    vertex 8723.090249998335 2632.487749999999 2484.6573900524445
    vertex 8723.090249998322 2556.2877499999995 2564.807628441236
    vertex 8723.090249998335 2353.087749999999 2484.657390052447
  endloop
endfacet
facet normal 1.0 9.402235399418536e-14 -4.7097610227727884e-14
  outer loop
    vertex 8723.09024999829 2556.287750000002 2771.862410945613
    vertex 8723.090249998322 2556.2877499999995 2564.807628441236
    vertex 8723.090249998335 2632.487749999999 2484.6573900524445
  endloop
endfacet
facet normal 1.0 9.402235399418536e-14 -4.7097610227727884e-14
  outer loop
    vertex 8723.090249998326 2632.487750000001 2691.7121725568213
    vertex 8723.09024999829 2556.287750000002 2771.862410945613
    vertex 8723.090249998335 2632.487749999999 2484.6573900524445
  endloop
endfacet
facet normal 1.0 9.402235399418536e-14 -4.7097610227727884e-14
  outer loop
    vertex 8723.09024999829 2835.6877500000014 2771.86241094561
    vertex 8723.09024999829 2556.287750000002 2771.862410945613
    vertex 8723.090249998326 2632.487750000001 2691.7121725568213
  endloop
endfacet
facet normal 1.0 9.402235399418536e-14 -4.7097610227727884e-14
  outer loop
    vertex 8723.090249998302 2911.887750000001 2691.712172556818
    vertex 8723.09024999829 2835.6877500000014 2771.86241094561
    vertex 8723.090249998326 2632.487750000001 2691.7121725568213
  endloop
endfacet
facet normal 1.0 9.402235399418536e-14 -4.7097610227727884e-14
  outer loop
    vertex 8723.090249998315 2835.6877500000037 2978.917193449983
    vertex 8723.09024999829 2835.6877500000014 2771.86241094561
    vertex 8723.090249998302 2911.887750000001 2691.712172556818
  endloop
endfacet
facet normal 1.0 9.402235399418536e-14 -4.7097610227727884e-14
  outer loop
    vertex 8723.090249998277 2911.887750000003 2898.766955061195
    vertex 8723.090249998315 2835.6877500000037 2978.917193449983
    vertex 8723.090249998302 2911.887750000001 2691.712172556818
  endloop
endfacet
facet normal 1.0 9.402235399418536e-14 -4.7097610227727884e-14
  outer loop
    vertex 8723.090249998257 3191.2877500000036 2978.917193449983
    vertex 8723.090249998315 2835.6877500000037 2978.917193449983
    vertex 8723.090249998277 2911.887750000003 2898.766955061195
  endloop
endfacet
facet normal 1.0 9.402235399418536e-14 -4.7097610227727884e-14
  outer loop
    vertex 8723.09024999827 3191.287750000003 2898.766955061192
    vertex 8723.090249998257 3191.2877500000036 2978.917193449983
    vertex 8723.090249998277 2911.887750000003 2898.766955061195
  endloop
endfacet
facet normal 1.0 9.402235399418536e-14 -4.7097610227727884e-14
  outer loop
    vertex 8723.09024999843 1718.0877499999958 2150.6980634324914
    vertex 8723.090249998426 1794.2877499999952 2070.5478250436995
    vertex 8723.090249998337 1997.487749999996 2150.6980634324887
  endloop
endfacet
facet normal 1.0 9.402235399418536e-14 -4.7097610227727884e-14
  outer loop
    vertex 8723.090249998308 2073.687749999995 2070.5478250436963
    vertex 8723.090249998337 1997.487749999996 2150.6980634324887
    vertex 8723.090249998426 1794.2877499999952 2070.5478250436995
  endloop
endfacet
facet normal 1.0 9.402235399418536e-14 -4.7097610227727884e-14
  outer loop
    vertex 8723.090249998419 1997.487749999998 2357.752845936865
    vertex 8723.090249998337 1997.487749999996 2150.6980634324887
    vertex 8723.090249998308 2073.687749999995 2070.5478250436963
  endloop
endfacet
facet normal 1.0 9.402235399418536e-14 -4.7097610227727884e-14
  outer loop
    vertex 8723.09024999839 2073.6877499999973 2277.60260754807
    vertex 8723.090249998419 1997.487749999998 2357.752845936865
    vertex 8723.090249998308 2073.687749999995 2070.5478250436963
  endloop
endfacet
facet normal 1.0 9.402235399418536e-14 -4.7097610227727884e-14
  outer loop
    vertex 8723.090249998291 2276.887749999997 2357.7528459368623
    vertex 8723.090249998419 1997.487749999998 2357.752845936865
    vertex 8723.09024999839 2073.6877499999973 2277.60260754807
  endloop
endfacet
facet normal 1.0 9.402235399418536e-14 -4.7097610227727884e-14
  outer loop
    vertex 8723.090249998297 2353.087749999999 2277.60260754807
    vertex 8723.090249998291 2276.887749999997 2357.7528459368623
    vertex 8723.09024999839 2073.6877499999973 2277.60260754807
  endloop
endfacet
facet normal 1.0 9.402235399418536e-14 -4.7097610227727884e-14
  outer loop
    vertex 8723.090249998322 2276.8877499999994 2564.807628441239
    vertex 8723.090249998291 2276.887749999997 2357.7528459368623
    vertex 8723.090249998297 2353.087749999999 2277.60260754807
  endloop
endfacet
facet normal 1.0 9.402235399418536e-14 -4.7097610227727884e-14
  outer loop
    vertex 8723.090249998335 2353.087749999999 2484.657390052447
    vertex 8723.090249998322 2276.8877499999994 2564.807628441239
    vertex 8723.090249998297 2353.087749999999 2277.60260754807
  endloop
endfacet
facet normal 1.0 9.402235399418536e-14 -4.7097610227727884e-14
  outer loop
    vertex 8723.09024999841 295.6877499999899 1529.5337159193757
    vertex 8723.090249998559 295.68774999999005 1449.3834775305745
    vertex 8723.090249998218 1159.2877499999904 1529.5337159193662
  endloop
endfacet
facet normal 1.0 9.402235399418536e-14 -4.7097610227727884e-14
  outer loop
    vertex 8723.090249998377 1235.4877499999895 1449.3834775305745
    vertex 8723.090249998218 1159.2877499999904 1529.5337159193662
    vertex 8723.090249998559 295.68774999999005 1449.3834775305745
  endloop
endfacet
facet normal 1.0 9.402235399418536e-14 -4.7097610227727884e-14
  outer loop
    vertex 8723.0902499983 1159.2877499999925 1736.5884984237434
    vertex 8723.090249998218 1159.2877499999904 1529.5337159193662
    vertex 8723.090249998377 1235.4877499999895 1449.3834775305745
  endloop
endfacet
facet normal 1.0 9.402235399418536e-14 -4.7097610227727884e-14
  outer loop
    vertex 8723.090249998495 1235.4877499999918 1656.4382600349513
    vertex 8723.0902499983 1159.2877499999925 1736.5884984237434
    vertex 8723.090249998377 1235.4877499999895 1449.3834775305745
  endloop
endfacet
facet normal 1.0 9.402235399418536e-14 -4.7097610227727884e-14
  outer loop
    vertex 8723.090249998455 1438.6877499999925 1736.5884984237402
    vertex 8723.0902499983 1159.2877499999925 1736.5884984237434
    vertex 8723.090249998495 1235.4877499999918 1656.4382600349513
  endloop
endfacet
facet normal 1.0 9.402235399418536e-14 -4.7097610227727884e-14
  outer loop
    vertex 8723.090249998468 1514.8877499999917 1656.4382600349484
    vertex 8723.090249998455 1438.6877499999925 1736.5884984237402
    vertex 8723.090249998495 1235.4877499999918 1656.4382600349513
  endloop
endfacet
facet normal 1.0 9.402235399418536e-14 -4.7097610227727884e-14
  outer loop
    vertex 8723.090249998422 1438.6877499999946 1943.6432809281173
    vertex 8723.090249998455 1438.6877499999925 1736.5884984237402
    vertex 8723.090249998468 1514.8877499999917 1656.4382600349484
  endloop
endfacet
facet normal 1.0 9.402235399418536e-14 -4.7097610227727884e-14
  outer loop
    vertex 8723.090249998435 1514.887749999994 1863.4930425393254
    vertex 8723.090249998422 1438.6877499999946 1943.6432809281173
    vertex 8723.090249998468 1514.8877499999917 1656.4382600349484
  endloop
endfacet
facet normal 1.0 9.402235399418536e-14 -4.7097610227727884e-14
  outer loop
    vertex 8723.090249998342 1718.0877499999938 1943.6432809281143
    vertex 8723.090249998422 1438.6877499999946 1943.6432809281173
    vertex 8723.090249998435 1514.887749999994 1863.4930425393254
  endloop
endfacet
facet normal 1.0 9.402235399418536e-14 -4.7097610227727884e-14
  outer loop
    vertex 8723.090249998342 1794.2877499999952 1863.4930425393227
    vertex 8723.090249998342 1718.0877499999938 1943.6432809281143
    vertex 8723.090249998435 1514.887749999994 1863.4930425393254
  endloop
endfacet
facet normal 1.0 9.402235399418536e-14 -4.7097610227727884e-14
  outer loop
    vertex 8723.09024999843 1718.0877499999958 2150.6980634324914
    vertex 8723.090249998342 1718.0877499999938 1943.6432809281143
    vertex 8723.090249998342 1794.2877499999952 1863.4930425393227
  endloop
endfacet
facet normal 1.0 9.402235399418536e-14 -4.7097610227727884e-14
  outer loop
    vertex 8723.090249998426 1794.2877499999952 2070.5478250436995
    vertex 8723.09024999843 1718.0877499999958 2150.6980634324914
    vertex 8723.090249998342 1794.2877499999952 1863.4930425393227
  endloop
endfacet
facet normal 4.256956154602838e-14 9.82579398677082e-15 1.0
  outer loop
    vertex 7961.090249998289 2835.68774999993 2771.862410945646
    vertex 7961.090249998289 2556.2877499999304 2771.862410945649
    vertex 8723.09024999829 2835.6877500000014 2771.86241094561
  endloop
endfacet
facet normal 4.256956154602838e-14 9.82579398677082e-15 1.0
  outer loop
    vertex 8723.09024999829 2556.287750000002 2771.862410945613
    vertex 8723.09024999829 2835.6877500000014 2771.86241094561
    vertex 7961.090249998289 2556.2877499999304 2771.862410945649
  endloop
endfacet
facet normal 9.402235399418586e-14 -1.0 1.157229761880339e-14
  outer loop
    vertex 7961.090249998314 2835.6877499999323 2978.917193450019
    vertex 7961.090249998289 2835.68774999993 2771.862410945646
    vertex 8723.090249998315 2835.6877500000037 2978.917193449983
  endloop
endfacet
facet normal 9.402235399418586e-14 -1.0 1.157229761880339e-14
  outer loop
    vertex 8723.09024999829 2835.6877500000014 2771.86241094561
    vertex 8723.090249998315 2835.6877500000037 2978.917193449983
    vertex 7961.090249998289 2835.68774999993 2771.862410945646
  endloop
endfacet
facet normal -9.402235399418536e-14 1.0 1.9584983938362107e-26
  outer loop
    vertex 7961.090249998336 2353.0877499999274 2484.657390052483
    vertex 8723.090249998335 2353.087749999999 2484.657390052447
    vertex 7961.090249998297 2353.0877499999274 2277.6026075481063
  endloop
endfacet
facet normal -9.402235399418536e-14 1.0 1.9584983938362107e-26
  outer loop
    vertex 8723.090249998297 2353.087749999999 2277.60260754807
    vertex 7961.090249998297 2353.0877499999274 2277.6026075481063
    vertex 8723.090249998335 2353.087749999999 2484.657390052447
  endloop
endfacet
facet normal -4.2569561546029316e-14 -1.4078832975603632e-26 -1.0
  outer loop
    vertex 7961.090249998297 2353.0877499999274 2277.6026075481063
    vertex 8723.090249998297 2353.087749999999 2277.60260754807
    vertex 7961.0902499983895 2073.687749999926 2277.6026075481063
  endloop
endfacet
facet normal -4.2569561546029316e-14 -1.4078832975603632e-26 -1.0
  outer loop
    vertex 8723.09024999839 2073.6877499999973 2277.60260754807
    vertex 7961.0902499983895 2073.687749999926 2277.6026075481063
    vertex 8723.090249998297 2353.087749999999 2277.60260754807
  endloop
endfacet
facet normal -9.402235399418585e-14 1.0 -1.157229761877505e-14
  outer loop
    vertex 7961.0902499983895 2073.687749999926 2277.6026075481063
    vertex 8723.09024999839 2073.6877499999973 2277.60260754807
    vertex 7961.0902499983085 2073.6877499999237 2070.5478250437322
  endloop
endfacet
facet normal -9.402235399418585e-14 1.0 -1.157229761877505e-14
  outer loop
    vertex 8723.090249998308 2073.687749999995 2070.5478250436963
    vertex 7961.0902499983085 2073.6877499999237 2070.5478250437322
    vertex 8723.09024999839 2073.6877499999973 2277.60260754807
  endloop
endfacet
facet normal -4.256956154602833e-14 -1.0439906110962037e-14 -1.0
  outer loop
    vertex 7961.0902499983085 2073.6877499999237 2070.5478250437322
    vertex 8723.090249998308 2073.687749999995 2070.5478250436963
    vertex 7961.090249998427 1794.2877499999238 2070.5478250437354
  endloop
endfacet
facet normal -4.256956154602833e-14 -1.0439906110962037e-14 -1.0
  outer loop
    vertex 8723.090249998426 1794.2877499999952 2070.5478250436995
    vertex 7961.090249998427 1794.2877499999238 2070.5478250437354
    vertex 8723.090249998308 2073.687749999995 2070.5478250436963
  endloop
endfacet
facet normal -9.402235399418536e-14 1.0 4.2071446978703775e-26
  outer loop
    vertex 7961.090249998427 1794.2877499999238 2070.5478250437354
    vertex 8723.090249998426 1794.2877499999952 2070.5478250436995
    vertex 7961.090249998343 1794.2877499999238 1863.4930425393584
  endloop
endfacet
facet normal -9.402235399418536e-14 1.0 4.2071446978703775e-26
  outer loop
    vertex 8723.090249998342 1794.2877499999952 1863.4930425393227
    vertex 7961.090249998343 1794.2877499999238 1863.4930425393584
    vertex 8723.090249998426 1794.2877499999952 2070.5478250436995
  endloop
endfacet
facet normal -4.256956154602844e-14 -9.211681862611675e-15 -1.0
  outer loop
    vertex 7961.090249998343 1794.2877499999238 1863.4930425393584
    vertex 8723.090249998342 1794.2877499999952 1863.4930425393227
    vertex 7961.090249998435 1514.8877499999223 1863.493042539361
  endloop
endfacet
facet normal -4.256956154602844e-14 -9.211681862611675e-15 -1.0
  outer loop
    vertex 8723.090249998435 1514.887749999994 1863.4930425393254
    vertex 7961.090249998435 1514.8877499999223 1863.493042539361
    vertex 8723.090249998342 1794.2877499999952 1863.4930425393227
  endloop
endfacet
facet normal -9.402235399418585e-14 1.0 -1.1572297618831466e-14
  outer loop
    vertex 7961.090249998435 1514.8877499999223 1863.493042539361
    vertex 8723.090249998435 1514.887749999994 1863.4930425393254
    vertex 7961.090249998467 1514.88774999992 1656.4382600349843
  endloop
endfacet
facet normal -9.402235399418585e-14 1.0 -1.1572297618831466e-14
  outer loop
    vertex 8723.090249998468 1514.8877499999917 1656.4382600349484
    vertex 7961.090249998467 1514.88774999992 1656.4382600349843
    vertex 8723.090249998435 1514.887749999994 1863.4930425393254
  endloop
endfacet
facet normal -4.256956154602838e-14 -9.825793986775e-15 -1.0
  outer loop
    vertex 7961.090249998467 1514.88774999992 1656.4382600349843
    vertex 8723.090249998468 1514.8877499999917 1656.4382600349484
    vertex 7961.090249998495 1235.4877499999202 1656.4382600349875
  endloop
endfacet
facet normal -4.256956154602838e-14 -9.825793986775e-15 -1.0
  outer loop
    vertex 8723.090249998495 1235.4877499999918 1656.4382600349513
    vertex 7961.090249998495 1235.4877499999202 1656.4382600349875
    vertex 8723.090249998468 1514.8877499999917 1656.4382600349484
  endloop
endfacet
facet normal -9.402235399418585e-14 1.0 -1.1572297618756027e-14
  outer loop
    vertex 7961.090249998495 1235.4877499999202 1656.4382600349875
    vertex 8723.090249998495 1235.4877499999918 1656.4382600349513
    vertex 7961.090249998376 1235.487749999918 1449.3834775306104
  endloop
endfacet
facet normal -9.402235399418585e-14 1.0 -1.1572297618756027e-14
  outer loop
    vertex 8723.090249998377 1235.4877499999895 1449.3834775305745
    vertex 7961.090249998376 1235.487749999918 1449.3834775306104
    vertex 8723.090249998495 1235.4877499999918 1656.4382600349513
  endloop
endfacet
facet normal -4.256956154602931e-14 -8.305798001232438e-27 -1.0
  outer loop
    vertex 7961.090249998376 1235.487749999918 1449.3834775306104
    vertex 8723.090249998377 1235.4877499999895 1449.3834775305745
    vertex 7961.09024999856 295.68774999991837 1449.3834775306104
  endloop
endfacet
facet normal -4.256956154602931e-14 -8.305798001232438e-27 -1.0
  outer loop
    vertex 8723.090249998559 295.68774999999005 1449.3834775305745
    vertex 7961.09024999856 295.68774999991837 1449.3834775306104
    vertex 8723.090249998377 1235.4877499999895 1449.3834775305745
  endloop
endfacet
facet normal -9.402235399418577e-14 1.0 -9.643581349017262e-15
  outer loop
    vertex 7961.090249998326 2632.4877499999293 2691.7121725568572
    vertex 8723.090249998326 2632.487750000001 2691.7121725568213
    vertex 7961.090249998334 2632.4877499999275 2484.65739005248
  endloop
endfacet
facet normal -9.402235399418577e-14 1.0 -9.643581349017262e-15
  outer loop
    vertex 8723.090249998335 2632.487749999999 2484.6573900524445
    vertex 7961.090249998334 2632.4877499999275 2484.65739005248
    vertex 8723.090249998326 2632.487750000001 2691.7121725568213
  endloop
endfacet
facet normal -4.256956154602845e-14 -9.05815383155545e-15 -1.0
  outer loop
    vertex 7961.090249998269 3191.2877499999317 2898.766955061228
    vertex 8723.09024999827 3191.287750000003 2898.766955061192
    vertex 7961.090249998277 2911.8877499999317 2898.766955061231
  endloop
endfacet
facet normal -4.256956154602845e-14 -9.05815383155545e-15 -1.0
  outer loop
    vertex 8723.090249998277 2911.887750000003 2898.766955061195
    vertex 7961.090249998277 2911.8877499999317 2898.766955061231
    vertex 8723.09024999827 3191.287750000003 2898.766955061192
  endloop
endfacet
facet normal 4.2569561546029304e-14 -9.236555300784146e-19 1.0
  outer loop
    vertex 7961.090249998257 3191.287749999932 2978.917193450019
    vertex 7961.090249998314 2835.6877499999323 2978.917193450019
    vertex 8723.090249998257 3191.2877500000036 2978.917193449983
  endloop
endfacet
facet normal 4.2569561546029304e-14 -9.236555300784146e-19 1.0
  outer loop
    vertex 8723.090249998315 2835.6877500000037 2978.917193449983
    vertex 8723.090249998257 3191.2877500000036 2978.917193449983
    vertex 7961.090249998314 2835.6877499999323 2978.917193450019
  endloop
endfacet
facet normal 9.402235399418525e-14 -1.0 -2.4912585149664766e-15
  outer loop
    vertex 7961.0902499984095 295.6877499999182 1529.5337159194116
    vertex 7961.09024999856 295.68774999991837 1449.3834775306104
    vertex 8723.09024999841 295.6877499999899 1529.5337159193757
  endloop
endfacet
facet normal 9.402235399418525e-14 -1.0 -2.4912585149664766e-15
  outer loop
    vertex 8723.090249998559 295.68774999999005 1449.3834775305745
    vertex 8723.09024999841 295.6877499999899 1529.5337159193757
    vertex 7961.09024999856 295.68774999991837 1449.3834775306104
  endloop
endfacet
facet normal -1.0 -9.402235399418536e-14 4.7097610227727884e-14
  outer loop
    vertex 7961.0902499984095 295.6877499999182 1529.5337159194116
    vertex 7961.0902499982185 1159.2877499999188 1529.533715919402
    vertex 7961.09024999856 295.68774999991837 1449.3834775306104
  endloop
endfacet
facet normal -1.0 -9.402235399418536e-14 4.7097610227727884e-14
  outer loop
    vertex 7961.090249998376 1235.487749999918 1449.3834775306104
    vertex 7961.09024999856 295.68774999991837 1449.3834775306104
    vertex 7961.0902499982185 1159.2877499999188 1529.533715919402
  endloop
endfacet
facet normal -1.0 -9.402235399418536e-14 4.7097610227727884e-14
  outer loop
    vertex 7961.090249998299 1159.2877499999208 1736.5884984237791
    vertex 7961.090249998376 1235.487749999918 1449.3834775306104
    vertex 7961.0902499982185 1159.2877499999188 1529.533715919402
  endloop
endfacet
facet normal -1.0 -9.402235399418536e-14 4.7097610227727884e-14
  outer loop
    vertex 7961.090249998495 1235.4877499999202 1656.4382600349875
    vertex 7961.090249998376 1235.487749999918 1449.3834775306104
    vertex 7961.090249998299 1159.2877499999208 1736.5884984237791
  endloop
endfacet
facet normal -1.0 -9.402235399418536e-14 4.7097610227727884e-14
  outer loop
    vertex 7961.090249998456 1438.687749999921 1736.5884984237764
    vertex 7961.090249998495 1235.4877499999202 1656.4382600349875
    vertex 7961.090249998299 1159.2877499999208 1736.5884984237791
  endloop
endfacet
facet normal -1.0 -9.402235399418536e-14 4.7097610227727884e-14
  outer loop
    vertex 7961.090249998467 1514.88774999992 1656.4382600349843
    vertex 7961.090249998495 1235.4877499999202 1656.4382600349875
    vertex 7961.090249998456 1438.687749999921 1736.5884984237764
  endloop
endfacet
facet normal -1.0 -9.402235399418536e-14 4.7097610227727884e-14
  outer loop
    vertex 7961.090249998422 1438.687749999923 1943.6432809281534
    vertex 7961.090249998467 1514.88774999992 1656.4382600349843
    vertex 7961.090249998456 1438.687749999921 1736.5884984237764
  endloop
endfacet
facet normal -1.0 -9.402235399418536e-14 4.7097610227727884e-14
  outer loop
    vertex 7961.090249998435 1514.8877499999223 1863.493042539361
    vertex 7961.090249998467 1514.88774999992 1656.4382600349843
    vertex 7961.090249998422 1438.687749999923 1943.6432809281534
  endloop
endfacet
facet normal -1.0 -9.402235399418536e-14 4.7097610227727884e-14
  outer loop
    vertex 7961.090249998343 1718.0877499999224 1943.64328092815
    vertex 7961.090249998435 1514.8877499999223 1863.493042539361
    vertex 7961.090249998422 1438.687749999923 1943.6432809281534
  endloop
endfacet
facet normal -1.0 -9.402235399418536e-14 4.7097610227727884e-14
  outer loop
    vertex 7961.090249998343 1794.2877499999238 1863.4930425393584
    vertex 7961.090249998435 1514.8877499999223 1863.493042539361
    vertex 7961.090249998343 1718.0877499999224 1943.64328092815
  endloop
endfacet
facet normal -1.0 -9.402235399418536e-14 4.7097610227727884e-14
  outer loop
    vertex 7961.0902499984295 1718.0877499999244 2150.6980634325273
    vertex 7961.090249998343 1794.2877499999238 1863.4930425393584
    vertex 7961.090249998343 1718.0877499999224 1943.64328092815
  endloop
endfacet
facet normal -1.0 -9.402235399418536e-14 4.7097610227727884e-14
  outer loop
    vertex 7961.090249998427 1794.2877499999238 2070.5478250437354
    vertex 7961.090249998343 1794.2877499999238 1863.4930425393584
    vertex 7961.0902499984295 1718.0877499999244 2150.6980634325273
  endloop
endfacet
facet normal -1.0 -9.402235399418536e-14 4.7097610227727884e-14
  outer loop
    vertex 7961.090249998338 1997.4877499999245 2150.698063432524
    vertex 7961.090249998427 1794.2877499999238 2070.5478250437354
    vertex 7961.0902499984295 1718.0877499999244 2150.6980634325273
  endloop
endfacet
facet normal -1.0 -9.402235399418536e-14 4.7097610227727884e-14
  outer loop
    vertex 7961.0902499983085 2073.6877499999237 2070.5478250437322
    vertex 7961.090249998427 1794.2877499999238 2070.5478250437354
    vertex 7961.090249998338 1997.4877499999245 2150.698063432524
  endloop
endfacet
facet normal -1.0 -9.402235399418536e-14 4.7097610227727884e-14
  outer loop
    vertex 7961.090249998418 1997.4877499999266 2357.752845936901
    vertex 7961.0902499983085 2073.6877499999237 2070.5478250437322
    vertex 7961.090249998338 1997.4877499999245 2150.698063432524
  endloop
endfacet
facet normal -1.0 -9.402235399418536e-14 4.7097610227727884e-14
  outer loop
    vertex 7961.0902499983895 2073.687749999926 2277.6026075481063
    vertex 7961.0902499983085 2073.6877499999237 2070.5478250437322
    vertex 7961.090249998418 1997.4877499999266 2357.752845936901
  endloop
endfacet
facet normal -1.0 -9.402235399418536e-14 4.7097610227727884e-14
  outer loop
    vertex 7961.090249998291 2276.8877499999257 2357.752845936898
    vertex 7961.0902499983895 2073.687749999926 2277.6026075481063
    vertex 7961.090249998418 1997.4877499999266 2357.752845936901
  endloop
endfacet
facet normal -1.0 -9.402235399418536e-14 4.7097610227727884e-14
  outer loop
    vertex 7961.090249998297 2353.0877499999274 2277.6026075481063
    vertex 7961.0902499983895 2073.687749999926 2277.6026075481063
    vertex 7961.090249998291 2276.8877499999257 2357.752845936898
  endloop
endfacet
facet normal -1.0 -9.402235399418536e-14 4.7097610227727884e-14
  outer loop
    vertex 7961.090249998323 2276.887749999928 2564.807628441275
    vertex 7961.090249998297 2353.0877499999274 2277.6026075481063
    vertex 7961.090249998291 2276.8877499999257 2357.752845936898
  endloop
endfacet
facet normal -1.0 -9.402235399418536e-14 4.7097610227727884e-14
  outer loop
    vertex 7961.090249998336 2353.0877499999274 2484.657390052483
    vertex 7961.090249998297 2353.0877499999274 2277.6026075481063
    vertex 7961.090249998323 2276.887749999928 2564.807628441275
  endloop
endfacet
facet normal -1.0 -9.402235399418536e-14 4.7097610227727884e-14
  outer loop
    vertex 7961.090249998323 2556.287749999928 2564.8076284412723
    vertex 7961.090249998336 2353.0877499999274 2484.657390052483
    vertex 7961.090249998323 2276.887749999928 2564.807628441275
  endloop
endfacet
facet normal -1.0 -9.402235399418536e-14 4.7097610227727884e-14
  outer loop
    vertex 7961.090249998334 2632.4877499999275 2484.65739005248
    vertex 7961.090249998336 2353.0877499999274 2484.657390052483
    vertex 7961.090249998323 2556.287749999928 2564.8076284412723
  endloop
endfacet
facet normal -1.0 -9.402235399418536e-14 4.7097610227727884e-14
  outer loop
    vertex 7961.090249998289 2556.2877499999304 2771.862410945649
    vertex 7961.090249998334 2632.4877499999275 2484.65739005248
    vertex 7961.090249998323 2556.287749999928 2564.8076284412723
  endloop
endfacet
facet normal -1.0 -9.402235399418536e-14 4.7097610227727884e-14
  outer loop
    vertex 7961.090249998326 2632.4877499999293 2691.7121725568572
    vertex 7961.090249998334 2632.4877499999275 2484.65739005248
    vertex 7961.090249998289 2556.2877499999304 2771.862410945649
  endloop
endfacet
facet normal -1.0 -9.402235399418536e-14 4.7097610227727884e-14
  outer loop
    vertex 7961.090249998289 2835.68774999993 2771.862410945646
    vertex 7961.090249998326 2632.4877499999293 2691.7121725568572
    vertex 7961.090249998289 2556.2877499999304 2771.862410945649
  endloop
endfacet
facet normal -1.0 -9.402235399418536e-14 4.7097610227727884e-14
  outer loop
    vertex 7961.090249998302 2911.8877499999294 2691.712172556854
    vertex 7961.090249998326 2632.4877499999293 2691.7121725568572
    vertex 7961.090249998289 2835.68774999993 2771.862410945646
  endloop
endfacet
facet normal -1.0 -9.402235399418536e-14 4.7097610227727884e-14
  outer loop
    vertex 7961.090249998314 2835.6877499999323 2978.917193450019
    vertex 7961.090249998302 2911.8877499999294 2691.712172556854
    vertex 7961.090249998289 2835.68774999993 2771.862410945646
  endloop
endfacet
facet normal -1.0 -9.402235399418536e-14 4.7097610227727884e-14
  outer loop
    vertex 7961.090249998277 2911.8877499999317 2898.766955061231
    vertex 7961.090249998302 2911.8877499999294 2691.712172556854
    vertex 7961.090249998314 2835.6877499999323 2978.917193450019
  endloop
endfacet
facet normal -1.0 -9.402235399418536e-14 4.7097610227727884e-14
  outer loop
    vertex 7961.090249998257 3191.287749999932 2978.917193450019
    vertex 7961.090249998277 2911.8877499999317 2898.766955061231
    vertex 7961.090249998314 2835.6877499999323 2978.917193450019
  endloop
endfacet
facet normal -1.0 -9.402235399418536e-14 4.7097610227727884e-14
  outer loop
    vertex 7961.090249998269 3191.2877499999317 2898.766955061228
    vertex 7961.090249998277 2911.8877499999317 2898.766955061231
    vertex 7961.090249998257 3191.287749999932 2978.917193450019
  endloop
endfacet
facet normal -4.256956154602833e-14 -1.0439906110947517e-14 -1.0
  outer loop
    vertex 7961.090249998302 2911.8877499999294 2691.712172556854
    vertex 8723.090249998302 2911.887750000001 2691.712172556818
    vertex 7961.090249998326 2632.4877499999293 2691.7121725568572
  endloop
endfacet
facet normal -4.256956154602833e-14 -1.0439906110947517e-14 -1.0
  outer loop
    vertex 8723.090249998326 2632.487750000001 2691.7121725568213
    vertex 7961.090249998326 2632.4877499999293 2691.7121725568572
    vertex 8723.090249998302 2911.887750000001 2691.712172556818
  endloop
endfacet
facet normal -9.402235399418586e-14 1.0 -1.1572297618828579e-14
  outer loop
    vertex 7961.090249998277 2911.8877499999317 2898.766955061231
    vertex 8723.090249998277 2911.887750000003 2898.766955061195
    vertex 7961.090249998302 2911.8877499999294 2691.712172556854
  endloop
endfacet
facet normal -9.402235399418586e-14 1.0 -1.1572297618828579e-14
  outer loop
    vertex 8723.090249998302 2911.887750000001 2691.712172556818
    vertex 7961.090249998302 2911.8877499999294 2691.712172556854
    vertex 8723.090249998277 2911.887750000003 2898.766955061195
  endloop
endfacet
facet normal -4.256956154602836e-14 -1.0132850048857628e-14 -1.0
  outer loop
    vertex 7961.090249998334 2632.4877499999275 2484.65739005248
    vertex 8723.090249998335 2632.487749999999 2484.6573900524445
    vertex 7961.090249998336 2353.0877499999274 2484.657390052483
  endloop
endfacet
facet normal -4.256956154602836e-14 -1.0132850048857628e-14 -1.0
  outer loop
    vertex 8723.090249998335 2353.087749999999 2484.657390052447
    vertex 7961.090249998336 2353.0877499999274 2484.657390052483
    vertex 8723.090249998335 2632.487749999999 2484.6573900524445
  endloop
endfacet
facet normal -9.402235399418577e-14 1.0 -9.965034060663554e-15
  outer loop
    vertex 7961.090249998257 3191.287749999932 2978.917193450019
    vertex 8723.090249998257 3191.2877500000036 2978.917193449983
    vertex 7961.090249998269 3191.2877499999317 2898.766955061228
  endloop
endfacet
facet normal -9.402235399418577e-14 1.0 -9.965034060663554e-15
  outer loop
    vertex 8723.09024999827 3191.287750000003 2898.766955061192
    vertex 7961.090249998269 3191.2877499999317 2898.766955061228
    vertex 8723.090249998257 3191.2877500000036 2978.917193449983
  endloop
endfacet
facet normal 9.402235399418576e-14 -1.0 9.643581349029606e-15
  outer loop
    vertex 7961.090249998289 2556.2877499999304 2771.862410945649
    vertex 7961.090249998323 2556.287749999928 2564.8076284412723
    vertex 8723.09024999829 2556.287750000002 2771.862410945613
  endloop
endfacet
facet normal 9.402235399418576e-14 -1.0 9.643581349029606e-15
  outer loop
    vertex 8723.090249998322 2556.2877499999995 2564.807628441236
    vertex 8723.09024999829 2556.287750000002 2771.862410945613
    vertex 7961.090249998323 2556.287749999928 2564.8076284412723
  endloop
endfacet
facet normal 4.25695615460284e-14 9.672265955727527e-15 1.0
  outer loop
    vertex 7961.090249998323 2556.287749999928 2564.8076284412723
    vertex 7961.090249998323 2276.887749999928 2564.807628441275
    vertex 8723.090249998322 2556.2877499999995 2564.807628441236
  endloop
endfacet
facet normal 4.25695615460284e-14 9.672265955727527e-15 1.0
  outer loop
    vertex 8723.090249998322 2276.8877499999994 2564.807628441239
    vertex 8723.090249998322 2556.2877499999995 2564.807628441236
    vertex 7961.090249998323 2276.887749999928 2564.807628441275
  endloop
endfacet
facet normal 9.402235399418585e-14 -1.0 1.157229761879955e-14
  outer loop
    vertex 7961.090249998323 2276.887749999928 2564.807628441275
    vertex 7961.090249998291 2276.8877499999257 2357.752845936898
    vertex 8723.090249998322 2276.8877499999994 2564.807628441239
  endloop
endfacet
facet normal 9.402235399418585e-14 -1.0 1.157229761879955e-14
  outer loop
    vertex 8723.090249998291 2276.887749999997 2357.7528459368623
    vertex 8723.090249998322 2276.8877499999994 2564.807628441239
    vertex 7961.090249998291 2276.8877499999257 2357.752845936898
  endloop
endfacet
facet normal 4.2569561546028445e-14 9.211681862617014e-15 1.0
  outer loop
    vertex 7961.090249998291 2276.8877499999257 2357.752845936898
    vertex 7961.090249998418 1997.4877499999266 2357.752845936901
    vertex 8723.090249998291 2276.887749999997 2357.7528459368623
  endloop
endfacet
facet normal 4.2569561546028445e-14 9.211681862617014e-15 1.0
  outer loop
    vertex 8723.090249998419 1997.487749999998 2357.752845936865
    vertex 8723.090249998291 2276.887749999997 2357.7528459368623
    vertex 7961.090249998418 1997.4877499999266 2357.752845936901
  endloop
endfacet
facet normal 9.402235399418587e-14 -1.0 1.1572297618774894e-14
  outer loop
    vertex 7961.090249998418 1997.4877499999266 2357.752845936901
    vertex 7961.090249998338 1997.4877499999245 2150.698063432524
    vertex 8723.090249998419 1997.487749999998 2357.752845936865
  endloop
endfacet
facet normal 9.402235399418587e-14 -1.0 1.1572297618774894e-14
  outer loop
    vertex 8723.090249998337 1997.487749999996 2150.6980634324887
    vertex 8723.090249998419 1997.487749999998 2357.752845936865
    vertex 7961.090249998338 1997.4877499999245 2150.698063432524
  endloop
endfacet
facet normal 4.2569561546028294e-14 1.0746962173044663e-14 1.0
  outer loop
    vertex 7961.090249998338 1997.4877499999245 2150.698063432524
    vertex 7961.0902499984295 1718.0877499999244 2150.6980634325273
    vertex 8723.090249998337 1997.487749999996 2150.6980634324887
  endloop
endfacet
facet normal 4.2569561546028294e-14 1.0746962173044663e-14 1.0
  outer loop
    vertex 8723.09024999843 1718.0877499999958 2150.6980634324914
    vertex 8723.090249998337 1997.487749999996 2150.6980634324887
    vertex 7961.0902499984295 1718.0877499999244 2150.6980634325273
  endloop
endfacet
facet normal 9.402235399418586e-14 -1.0 1.1572297618771964e-14
  outer loop
    vertex 7961.0902499984295 1718.0877499999244 2150.6980634325273
    vertex 7961.090249998343 1718.0877499999224 1943.64328092815
    vertex 8723.09024999843 1718.0877499999958 2150.6980634324914
  endloop
endfacet
facet normal 9.402235399418586e-14 -1.0 1.1572297618771964e-14
  outer loop
    vertex 8723.090249998342 1718.0877499999938 1943.6432809281143
    vertex 8723.09024999843 1718.0877499999958 2150.6980634324914
    vertex 7961.090249998343 1718.0877499999224 1943.64328092815
  endloop
endfacet
facet normal 4.256956154602834e-14 1.0439906110956123e-14 1.0
  outer loop
    vertex 7961.090249998343 1718.0877499999224 1943.64328092815
    vertex 7961.090249998422 1438.687749999923 1943.6432809281534
    vertex 8723.090249998342 1718.0877499999938 1943.6432809281143
  endloop
endfacet
facet normal 4.256956154602834e-14 1.0439906110956123e-14 1.0
  outer loop
    vertex 8723.090249998422 1438.6877499999946 1943.6432809281173
    vertex 8723.090249998342 1718.0877499999938 1943.6432809281143
    vertex 7961.090249998422 1438.687749999923 1943.6432809281534
  endloop
endfacet
facet normal 9.402235399418586e-14 -1.0 1.157229761883217e-14
  outer loop
    vertex 7961.090249998422 1438.687749999923 1943.6432809281534
    vertex 7961.090249998456 1438.687749999921 1736.5884984237764
    vertex 8723.090249998422 1438.6877499999946 1943.6432809281173
  endloop
endfacet
facet normal 9.402235399418586e-14 -1.0 1.157229761883217e-14
  outer loop
    vertex 8723.090249998455 1438.6877499999925 1736.5884984237402
    vertex 8723.090249998422 1438.6877499999946 1943.6432809281173
    vertex 7961.090249998456 1438.687749999921 1736.5884984237764
  endloop
endfacet
facet normal 4.256956154602833e-14 1.043990611092024e-14 1.0
  outer loop
    vertex 7961.090249998299 1159.2877499999208 1736.5884984237791
    vertex 8723.0902499983 1159.2877499999925 1736.5884984237434
    vertex 7961.090249998456 1438.687749999921 1736.5884984237764
  endloop
endfacet
facet normal 4.256956154602833e-14 1.043990611092024e-14 1.0
  outer loop
    vertex 8723.090249998455 1438.6877499999925 1736.5884984237402
    vertex 7961.090249998456 1438.687749999921 1736.5884984237764
    vertex 8723.0902499983 1159.2877499999925 1736.5884984237434
  endloop
endfacet
facet normal 9.402235399418585e-14 -1.0 1.1572297618774875e-14
  outer loop
    vertex 7961.090249998299 1159.2877499999208 1736.5884984237791
    vertex 7961.0902499982185 1159.2877499999188 1529.533715919402
    vertex 8723.0902499983 1159.2877499999925 1736.5884984237434
  endloop
endfacet
facet normal 9.402235399418585e-14 -1.0 1.1572297618774875e-14
  outer loop
    vertex 8723.090249998218 1159.2877499999904 1529.5337159193662
    vertex 8723.0902499983 1159.2877499999925 1736.5884984237434
    vertex 7961.0902499982185 1159.2877499999188 1529.533715919402
  endloop
endfacet
facet normal 4.256956154602839e-14 9.735483380284154e-15 1.0
  outer loop
    vertex 7961.0902499982185 1159.2877499999188 1529.533715919402
    vertex 7961.0902499984095 295.6877499999182 1529.5337159194116
    vertex 8723.090249998218 1159.2877499999904 1529.5337159193662
  endloop
endfacet
facet normal 4.256956154602839e-14 9.735483380284154e-15 1.0
  outer loop
    vertex 8723.09024999841 295.6877499999899 1529.5337159193757
    vertex 8723.090249998218 1159.2877499999904 1529.5337159193662
    vertex 7961.0902499984095 295.6877499999182 1529.5337159194116
  endloop
endfacet
facet normal 1.0 5.849612385846815e-14 2.6644118626676736e-14
  outer loop
    vertex 8723.090249998257 3191.2877500000036 2978.917193449983
    vertex 8723.090249998239 3115.0877500000065 3266.122214343151
    vertex 8723.090249998262 3115.0877500000042 2978.917193449983
  endloop
endfacet
facet normal 1.0 5.849612385846815e-14 2.6644118626676736e-14
  outer loop
    vertex 8723.090249998239 3115.0877500000065 3266.122214343151
    vertex 8723.090249998257 3191.2877500000036 2978.917193449983
    vertex 8723.090249998257 3191.2877500000036 3185.97197595436
  endloop
endfacet
facet normal 1.0 5.849612385846815e-14 2.6644118626676736e-14
  outer loop
    vertex 8723.090249998239 3115.0877500000065 3266.122214343151
    vertex 8723.090249998257 3191.2877500000036 3185.97197595436
    vertex 8723.090249998224 4054.8877500000067 3266.122214343142
  endloop
endfacet
facet normal 1.0 5.849612385846815e-14 2.6644118626676736e-14
  outer loop
    vertex 8723.090249998224 4054.8877500000067 3266.122214343142
    vertex 8723.090249998257 3191.2877500000036 3185.97197595436
    vertex 8723.09024999817 4054.887750000006 3185.97197595436
  endloop
endfacet
facet normal -1.0 -5.849612385846815e-14 -2.6644118626676736e-14
  outer loop
    vertex 7961.090249998225 4054.8877499999617 3266.1222143431214
    vertex 7961.090249998257 3191.2877499999595 3185.97197595434
    vertex 7961.090249998239 3115.0877499999624 3266.122214343131
  endloop
endfacet
facet normal -1.0 -5.849612385846815e-14 -2.6644118626676736e-14
  outer loop
    vertex 7961.090249998257 3191.2877499999595 3185.97197595434
    vertex 7961.090249998225 4054.8877499999617 3266.1222143431214
    vertex 7961.090249998169 4054.887749999961 3185.97197595434
  endloop
endfacet
facet normal -1.0 -5.849612385846815e-14 -2.6644118626676736e-14
  outer loop
    vertex 7961.090249998239 3115.0877499999624 3266.122214343131
    vertex 7961.090249998257 3191.2877499999595 2978.9171934499627
    vertex 7961.090249998262 3115.0877499999597 2978.9171934499627
  endloop
endfacet
facet normal -1.0 -5.849612385846815e-14 -2.6644118626676736e-14
  outer loop
    vertex 7961.090249998257 3191.2877499999595 2978.9171934499627
    vertex 7961.090249998239 3115.0877499999624 3266.122214343131
    vertex 7961.090249998257 3191.2877499999595 3185.97197595434
  endloop
endfacet
facet normal -5.849612385846815e-14 1.0 0.0
  outer loop
    vertex 7961.090249998257 3191.2877499999595 3185.97197595434
    vertex 8723.090249998257 3191.2877500000036 2978.917193449983
    vertex 7961.090249998257 3191.2877499999595 2978.9171934499627
  endloop
endfacet
facet normal -5.849612385846815e-14 1.0 0.0
  outer loop
    vertex 8723.090249998257 3191.2877500000036 2978.917193449983
    vertex 7961.090249998257 3191.2877499999595 3185.97197595434
    vertex 8723.090249998257 3191.2877500000036 3185.97197595436
  endloop
endfacet
facet normal 2.4082505295571543e-14 1.8252425809784093e-27 -1.0
  outer loop
    vertex 8723.090249998257 3191.2877500000036 2978.917193449983
    vertex 7961.090249998262 3115.0877499999597 2978.9171934499627
    vertex 7961.090249998257 3191.2877499999595 2978.9171934499627
  endloop
endfacet
facet normal 2.4082505295571543e-14 1.8252425809784093e-27 -1.0
  outer loop
    vertex 7961.090249998262 3115.0877499999597 2978.9171934499627
    vertex 8723.090249998257 3191.2877500000036 2978.917193449983
    vertex 8723.090249998262 3115.0877500000042 2978.917193449983
  endloop
endfacet
facet normal 5.849612385846792e-14 -1.0 9.733289082497317e-15
  outer loop
    vertex 8723.090249998262 3115.0877500000042 2978.917193449983
    vertex 7961.090249998239 3115.0877499999624 3266.122214343131
    vertex 7961.090249998262 3115.0877499999597 2978.9171934499627
  endloop
endfacet
facet normal 5.849612385846792e-14 -1.0 9.733289082497317e-15
  outer loop
    vertex 7961.090249998239 3115.0877499999624 3266.122214343131
    vertex 8723.090249998262 3115.0877500000042 2978.917193449983
    vertex 8723.090249998239 3115.0877500000065 3266.122214343151
  endloop
endfacet
facet normal -2.4082505295572054e-14 8.763545988200633e-15 1.0
  outer loop
    vertex 7961.090249998239 3115.0877499999624 3266.122214343131
    vertex 8723.090249998224 4054.8877500000067 3266.122214343142
    vertex 7961.090249998225 4054.8877499999617 3266.1222143431214
  endloop
endfacet
facet normal -2.4082505295572054e-14 8.763545988200633e-15 1.0
  outer loop
    vertex 8723.090249998224 4054.8877500000067 3266.122214343142
    vertex 7961.090249998239 3115.0877499999624 3266.122214343131
    vertex 8723.090249998239 3115.0877500000065 3266.122214343151
  endloop
endfacet
facet normal 2.4082505295571543e-14 2.41576223953023e-27 -1.0
  outer loop
    vertex 8723.09024999817 4054.887750000006 3185.97197595436
    vertex 7961.090249998257 3191.2877499999595 3185.97197595434
    vertex 7961.090249998169 4054.887749999961 3185.97197595434
  endloop
endfacet
facet normal 2.4082505295571543e-14 2.41576223953023e-27 -1.0
  outer loop
    vertex 7961.090249998257 3191.2877499999595 3185.97197595434
    vertex 8723.09024999817 4054.887750000006 3185.97197595436
    vertex 8723.090249998257 3191.2877500000036 3185.97197595436
  endloop
endfacet
facet normal -5.849612385846791e-14 1.0 -9.96503406060352e-15
  outer loop
    vertex 7961.090249998225 4054.8877499999617 3266.1222143431214
    vertex 8723.09024999817 4054.887750000006 3185.97197595436
    vertex 7961.090249998169 4054.887749999961 3185.97197595434
  endloop
endfacet
facet normal -5.849612385846791e-14 1.0 -9.96503406060352e-15
  outer loop
    vertex 8723.09024999817 4054.887750000006 3185.97197595436
    vertex 7961.090249998225 4054.8877499999617 3266.1222143431214
    vertex 8723.090249998224 4054.8877500000067 3266.122214343142
  endloop
endfacet
endsolid worthington-tower
