solid shed
facet normal -1.0 -1.6148698540002277e-16 3.9474596431116675e-16
  outer loop
    vertex -2720.574098433874 2478.431726604324 1828.8000000000006
    vertex -2720.574098433874 1360.831726604324 1371.6000000000006
    vertex -2720.574098433874 1360.831726604324 1828.8000000000006
  endloop
endfacet
facet normal -1.0 -1.6148698540002277e-16 3.9474596431116675e-16
  outer loop
    vertex -2720.574098433874 1360.831726604324 1371.6000000000006
    vertex -2720.574098433874 2478.431726604324 1828.8000000000006
    vertex -2720.574098433874 2478.431726604324 1371.6000000000006
  endloop
endfacet
facet normal -1.0 -1.6148698540002277e-16 -3.9474596431116675e-16
  outer loop
    vertex -2771.374098433874 2478.431726604324 2286.0000000000005
    vertex -2771.3740984338738 1360.831726604324 1828.8000000000006
    vertex -2771.374098433874 1360.831726604324 2286.0000000000005
  endloop
endfacet
facet normal -1.0 -1.6148698540002277e-16 -3.9474596431116675e-16
  outer loop
    vertex -2771.3740984338738 1360.831726604324 1828.8000000000006
    vertex -2771.374098433874 2478.431726604324 2286.0000000000005
    vertex -2771.374098433874 2478.431726604324 1828.8000000000006
  endloop
endfacet
facet normal 3.9474596431116675e-16 1.2749267155087058e-31 -1.0
  outer loop
    vertex -2720.574098433874 2478.431726604324 1828.8000000000006
    vertex -2771.3740984338738 1360.831726604324 1828.8000000000006
    vertex -2771.374098433874 2478.431726604324 1828.8000000000006
  endloop
endfacet
facet normal 3.9474596431116675e-16 1.2749267155087058e-31 -1.0
  outer loop
    vertex -2771.3740984338738 1360.831726604324 1828.8000000000006
    vertex -2720.574098433874 2478.431726604324 1828.8000000000006
    vertex -2720.574098433874 1360.831726604324 1828.8000000000006
  endloop
endfacet
facet normal 0.0 1.0 0.0
  outer loop
    vertex 708.4259015661263 903.6317266043238 2607.3827467430106
    vertex 733.8259015661256 903.6317266043238 152.39999999999998
    vertex 708.4259015661256 903.6317266043238 152.39999999999998
  endloop
endfacet
facet normal 0.0 1.0 0.0
  outer loop
    vertex 733.8259015661256 903.6317266043238 152.39999999999998
    vertex 708.4259015661263 903.6317266043238 2607.3827467430106
    vertex 733.8259015661264 903.6317266043238 2607.3827467430106
  endloop
endfacet
facet normal 0.0 0.0 -1.0
  outer loop
    vertex 733.8259015661271 4548.531726604324 152.39999999999998
    vertex 683.0259015661271 4497.731726604324 152.39999999999998
    vertex 683.0259015661271 4548.531726604324 152.39999999999998
  endloop
endfacet
facet normal 0.0 0.0 -1.0
  outer loop
    vertex 683.0259015661271 4497.731726604324 152.39999999999998
    vertex 733.8259015661271 4548.531726604324 152.39999999999998
    vertex 683.0259015661271 4446.931726604324 152.39999999999998
  endloop
endfacet
facet normal 0.0 0.0 -1.0
  outer loop
    vertex 683.0259015661271 4446.931726604324 152.39999999999998
    vertex 733.8259015661271 4548.531726604324 152.39999999999998
    vertex 708.4259015661271 4446.931726604324 152.39999999999998
  endloop
endfacet
facet normal 0.0 0.0 -1.0
  outer loop
    vertex 708.4259015661271 4446.931726604324 152.39999999999998
    vertex 733.8259015661271 4548.531726604324 152.39999999999998
    vertex 733.8259015661271 4446.931726604324 152.39999999999998
  endloop
endfacet
facet normal 0.0 -1.0 0.0
  outer loop
    vertex -2822.1740984338744 802.031726604324 2477.207746743011
    vertex -2872.9740984338746 802.031726604324 152.40000000000066
    vertex -2822.1740984338744 802.031726604324 152.40000000000066
  endloop
endfacet
facet normal 0.0 -1.0 0.0
  outer loop
    vertex -2872.9740984338746 802.031726604324 152.40000000000066
    vertex -2822.1740984338744 802.031726604324 2477.207746743011
    vertex -2923.7740984338743 802.031726604324 152.40000000000072
  endloop
endfacet
facet normal 0.0 -1.0 0.0
  outer loop
    vertex -2923.7740984338743 802.031726604324 152.40000000000072
    vertex -2822.1740984338744 802.031726604324 2477.207746743011
    vertex -2923.7740984338743 802.031726604324 2477.207746743011
  endloop
endfacet
facet normal -1.0 2.293902333628885e-16 2.3684757858669997e-15
  outer loop
    vertex -2872.974098433874 903.6317266043242 152.40000000000066
    vertex -2872.974098433875 852.8317266043242 5.05881893467686e-13
    vertex -2872.9740984338746 852.8317266043242 152.4000000000006
  endloop
endfacet
facet normal -1.0 2.293902333628885e-16 2.3684757858669997e-15
  outer loop
    vertex -2872.974098433875 852.8317266043242 5.05881893467686e-13
    vertex -2872.974098433874 903.6317266043242 152.40000000000066
    vertex -2872.9740984338737 4497.731726604325 5.359615359481966e-13
  endloop
endfacet
facet normal -1.0 2.293902333628885e-16 2.3684757858669997e-15
  outer loop
    vertex -2872.9740984338737 4497.731726604325 5.359615359481966e-13
    vertex -2872.974098433874 903.6317266043242 152.40000000000066
    vertex -2872.9740984338737 4446.9317266043245 152.4000000000006
  endloop
endfacet
facet normal -1.0 2.293902333628885e-16 2.3684757858669997e-15
  outer loop
    vertex -2872.9740984338737 4497.731726604325 5.359615359481966e-13
    vertex -2872.9740984338737 4446.9317266043245 152.4000000000006
    vertex -2872.9740984338737 4497.731726604325 152.4000000000006
  endloop
endfacet
facet normal -1.0 0.0 0.0
  outer loop
    vertex -2923.7740984338743 1259.2317266043242 2387.6000000000004
    vertex -2923.7740984338743 1360.831726604324 2286.0000000000005
    vertex -2923.7740984338743 1259.2317266043242 1270.0000000000007
  endloop
endfacet
facet normal -1.0 0.0 0.0
  outer loop
    vertex -2923.7740984338743 1360.831726604324 2286.0000000000005
    vertex -2923.7740984338743 1259.2317266043242 2387.6000000000004
    vertex -2923.7740984338743 2580.031726604324 2387.6000000000004
  endloop
endfacet
facet normal -1.0 0.0 0.0
  outer loop
    vertex -2923.7740984338743 1360.831726604324 2286.0000000000005
    vertex -2923.7740984338743 2580.031726604324 2387.6000000000004
    vertex -2923.7740984338743 2478.431726604324 2286.0000000000005
  endloop
endfacet
facet normal -1.0 0.0 0.0
  outer loop
    vertex -2923.7740984338743 2478.431726604324 2286.0000000000005
    vertex -2923.7740984338743 2580.031726604324 2387.6000000000004
    vertex -2923.7740984338743 2478.431726604324 1371.6000000000006
  endloop
endfacet
facet normal -1.0 0.0 0.0
  outer loop
    vertex -2923.7740984338743 1259.2317266043242 1270.0000000000007
    vertex -2923.7740984338743 1360.831726604324 1371.6000000000006
    vertex -2923.7740984338743 2580.031726604324 1270.0000000000007
  endloop
endfacet
facet normal -1.0 0.0 0.0
  outer loop
    vertex -2923.7740984338743 1360.831726604324 1371.6000000000006
    vertex -2923.7740984338743 1259.2317266043242 1270.0000000000007
    vertex -2923.7740984338743 1360.831726604324 2286.0000000000005
  endloop
endfacet
facet normal -1.0 0.0 0.0
  outer loop
    vertex -2923.7740984338743 2580.031726604324 1270.0000000000007
    vertex -2923.7740984338743 1360.831726604324 1371.6000000000006
    vertex -2923.7740984338743 2478.431726604324 1371.6000000000006
  endloop
endfacet
facet normal -1.0 0.0 0.0
  outer loop
    vertex -2923.7740984338743 2580.031726604324 1270.0000000000007
    vertex -2923.7740984338743 2478.431726604324 1371.6000000000006
    vertex -2923.7740984338743 2580.031726604324 2387.6000000000004
  endloop
endfacet
facet normal -0.0 -0.0 -1.0
  outer loop
    vertex 683.0259015661271 4548.531726604324 152.39999999999998
    vertex 632.2259015661264 4523.131726604323 152.39999999999998
    vertex 632.2259015661264 4548.531726604324 152.39999999999998
  endloop
endfacet
facet normal -0.0 -0.0 -1.0
  outer loop
    vertex 632.2259015661264 4523.131726604323 152.39999999999998
    vertex 683.0259015661271 4548.531726604324 152.39999999999998
    vertex 632.2259015661264 4497.731726604324 152.39999999999998
  endloop
endfacet
facet normal -0.0 -0.0 -1.0
  outer loop
    vertex 632.2259015661264 4497.731726604324 152.39999999999998
    vertex 683.0259015661271 4548.531726604324 152.39999999999998
    vertex 683.0259015661271 4497.731726604324 152.39999999999998
  endloop
endfacet
facet normal 0.0 1.0 0.0
  outer loop
    vertex -637.7740984338736 4523.131726604323 2070.807746743003
    vertex -78.97409843387325 4523.131726604323 1563.3828363175637
    vertex -637.7740984338736 4523.131726604323 1563.3828363175637
  endloop
endfacet
facet normal 0.0 1.0 0.0
  outer loop
    vertex -78.97409843387325 4523.131726604323 1563.3828363175637
    vertex -637.7740984338736 4523.131726604323 2070.807746743003
    vertex -78.97409843387325 4523.131726604323 2070.807746743003
  endloop
endfacet
facet normal 0.0 0.0 1.0
  outer loop
    vertex -78.97409843387325 4523.131726604323 739.8968488707245
    vertex -637.7740984338736 4548.531726604324 739.8968488707245
    vertex -637.7740984338736 4523.131726604323 739.8968488707245
  endloop
endfacet
facet normal 0.0 0.0 1.0
  outer loop
    vertex -637.7740984338736 4548.531726604324 739.8968488707245
    vertex -78.97409843387325 4523.131726604323 739.8968488707245
    vertex -78.97409843387325 4548.531726604324 739.8968488707245
  endloop
endfacet
facet normal -0.0 -0.0 -1.0
  outer loop
    vertex -78.97409843387325 4548.531726604324 1461.7828363175638
    vertex -637.7740984338736 4523.131726604323 1461.7828363175638
    vertex -637.7740984338736 4548.531726604324 1461.7828363175638
  endloop
endfacet
facet normal -0.0 -0.0 -1.0
  outer loop
    vertex -637.7740984338736 4523.131726604323 1461.7828363175638
    vertex -78.97409843387325 4548.531726604324 1461.7828363175638
    vertex -78.97409843387325 4523.131726604323 1461.7828363175638
  endloop
endfacet
facet normal -2.3684757858669997e-15 -1.2733740784230704e-17 -1.0
  outer loop
    vertex -2898.3740984338733 4446.9317266043245 152.40000000000066
    vertex -2872.974098433874 903.6317266043242 152.40000000000066
    vertex -2898.374098433874 903.6317266043242 152.40000000000072
  endloop
endfacet
facet normal -2.3684757858669997e-15 -1.2733740784230704e-17 -1.0
  outer loop
    vertex -2872.974098433874 903.6317266043242 152.40000000000066
    vertex -2898.3740984338733 4446.9317266043245 152.40000000000066
    vertex -2872.9740984338737 4446.9317266043245 152.4000000000006
  endloop
endfacet
facet normal -1.0 0.0 0.0
  outer loop
    vertex -840.9740984338732 4548.531726604324 2070.8077467430035
    vertex -840.9740984338732 4523.131726604323 1563.382836317564
    vertex -840.9740984338732 4523.131726604323 2070.8077467430035
  endloop
endfacet
facet normal -1.0 0.0 0.0
  outer loop
    vertex -840.9740984338732 4523.131726604323 1563.382836317564
    vertex -840.9740984338732 4548.531726604324 2070.8077467430035
    vertex -840.9740984338732 4548.531726604324 1563.382836317564
  endloop
endfacet
facet normal 1.0 0.0 0.0
  outer loop
    vertex -637.7740984338736 4548.531726604324 1563.3828363175637
    vertex -637.7740984338736 4523.131726604323 2070.807746743003
    vertex -637.7740984338736 4523.131726604323 1563.3828363175637
  endloop
endfacet
facet normal 1.0 0.0 0.0
  outer loop
    vertex -637.7740984338736 4523.131726604323 2070.807746743003
    vertex -637.7740984338736 4548.531726604324 1563.3828363175637
    vertex -637.7740984338736 4548.531726604324 2070.807746743003
  endloop
endfacet
facet normal 1.0 0.0 0.0
  outer loop
    vertex -1399.7740984338734 4548.531726604324 739.8968488707246
    vertex -1399.7740984338734 4523.131726604323 1461.7828363175638
    vertex -1399.7740984338734 4523.131726604323 739.8968488707246
  endloop
endfacet
facet normal 1.0 0.0 0.0
  outer loop
    vertex -1399.7740984338734 4523.131726604323 1461.7828363175638
    vertex -1399.7740984338734 4548.531726604324 739.8968488707246
    vertex -1399.7740984338734 4548.531726604324 1461.7828363175638
  endloop
endfacet
facet normal 1.0 0.0 0.0
  outer loop
    vertex -1399.7740984338732 4548.531726604324 1563.382836317564
    vertex -1399.7740984338732 4523.131726604323 2070.8077467430035
    vertex -1399.7740984338732 4523.131726604323 1563.382836317564
  endloop
endfacet
facet normal 1.0 0.0 0.0
  outer loop
    vertex -1399.7740984338732 4523.131726604323 2070.8077467430035
    vertex -1399.7740984338732 4548.531726604324 1563.382836317564
    vertex -1399.7740984338732 4548.531726604324 2070.8077467430035
  endloop
endfacet
facet normal 1.0 0.0 0.0
  outer loop
    vertex -637.7740984338736 4548.531726604324 254.00000000000017
    vertex -637.7740984338736 4523.131726604323 638.2968488707245
    vertex -637.7740984338736 4523.131726604323 254.00000000000017
  endloop
endfacet
facet normal 1.0 0.0 0.0
  outer loop
    vertex -637.7740984338736 4523.131726604323 638.2968488707245
    vertex -637.7740984338736 4548.531726604324 254.00000000000017
    vertex -637.7740984338736 4548.531726604324 638.2968488707245
  endloop
endfacet
facet normal 0.0 0.0 -1.0
  outer loop
    vertex -2872.9740984338737 4548.531726604324 152.4000000000006
    vertex -2923.7740984338734 4446.9317266043245 152.40000000000066
    vertex -2923.7740984338734 4548.531726604324 152.40000000000066
  endloop
endfacet
facet normal 0.0 0.0 -1.0
  outer loop
    vertex -2923.7740984338734 4446.9317266043245 152.40000000000066
    vertex -2872.9740984338737 4548.531726604324 152.4000000000006
    vertex -2898.3740984338733 4446.9317266043245 152.40000000000066
  endloop
endfacet
facet normal 0.0 0.0 -1.0
  outer loop
    vertex -2898.3740984338733 4446.9317266043245 152.40000000000066
    vertex -2872.9740984338737 4548.531726604324 152.4000000000006
    vertex -2872.9740984338737 4497.731726604325 152.4000000000006
  endloop
endfacet
facet normal 0.0 0.0 -1.0
  outer loop
    vertex -2898.3740984338733 4446.9317266043245 152.40000000000066
    vertex -2872.9740984338737 4497.731726604325 152.4000000000006
    vertex -2872.9740984338737 4446.9317266043245 152.4000000000006
  endloop
endfacet
facet normal 0.0 0.0 1.0
  outer loop
    vertex -840.9740984338732 4523.131726604323 739.8968488707246
    vertex -1399.7740984338734 4548.531726604324 739.8968488707246
    vertex -1399.7740984338734 4523.131726604323 739.8968488707246
  endloop
endfacet
facet normal 0.0 0.0 1.0
  outer loop
    vertex -1399.7740984338734 4548.531726604324 739.8968488707246
    vertex -840.9740984338732 4523.131726604323 739.8968488707246
    vertex -840.9740984338732 4548.531726604324 739.8968488707246
  endloop
endfacet
facet normal 1.0 0.0 0.0
  outer loop
    vertex -1399.7740984338734 4548.531726604324 254.00000000000034
    vertex -1399.7740984338734 4523.131726604323 638.2968488707245
    vertex -1399.7740984338734 4523.131726604323 254.00000000000034
  endloop
endfacet
facet normal 1.0 0.0 0.0
  outer loop
    vertex -1399.7740984338734 4523.131726604323 638.2968488707245
    vertex -1399.7740984338734 4548.531726604324 254.00000000000034
    vertex -1399.7740984338734 4548.531726604324 638.2968488707245
  endloop
endfacet
facet normal -1.0 0.0 0.0
  outer loop
    vertex -840.9740984338732 4548.531726604324 638.2968488707245
    vertex -840.9740984338732 4523.131726604323 254.00000000000034
    vertex -840.9740984338732 4523.131726604323 638.2968488707245
  endloop
endfacet
facet normal -1.0 0.0 0.0
  outer loop
    vertex -840.9740984338732 4523.131726604323 254.00000000000034
    vertex -840.9740984338732 4548.531726604324 638.2968488707245
    vertex -840.9740984338732 4548.531726604324 254.00000000000034
  endloop
endfacet
facet normal 0.0 0.0 1.0
  outer loop
    vertex -840.9740984338732 4523.131726604323 1563.382836317564
    vertex -1399.7740984338732 4548.531726604324 1563.382836317564
    vertex -1399.7740984338732 4523.131726604323 1563.382836317564
  endloop
endfacet
facet normal 0.0 0.0 1.0
  outer loop
    vertex -1399.7740984338732 4548.531726604324 1563.382836317564
    vertex -840.9740984338732 4523.131726604323 1563.382836317564
    vertex -840.9740984338732 4548.531726604324 1563.382836317564
  endloop
endfacet
facet normal -1.0 0.0 0.0
  outer loop
    vertex -78.97409843387325 4548.531726604324 2070.807746743003
    vertex -78.97409843387325 4523.131726604323 1563.3828363175637
    vertex -78.97409843387325 4523.131726604323 2070.807746743003
  endloop
endfacet
facet normal -1.0 0.0 0.0
  outer loop
    vertex -78.97409843387325 4523.131726604323 1563.3828363175637
    vertex -78.97409843387325 4548.531726604324 2070.807746743003
    vertex -78.97409843387325 4548.531726604324 1563.3828363175637
  endloop
endfacet
facet normal 0.0 0.0 1.0
  outer loop
    vertex -78.97409843387325 4523.131726604323 1563.3828363175637
    vertex -637.7740984338736 4548.531726604324 1563.3828363175637
    vertex -637.7740984338736 4523.131726604323 1563.3828363175637
  endloop
endfacet
facet normal 0.0 0.0 1.0
  outer loop
    vertex -637.7740984338736 4548.531726604324 1563.3828363175637
    vertex -78.97409843387325 4523.131726604323 1563.3828363175637
    vertex -78.97409843387325 4548.531726604324 1563.3828363175637
  endloop
endfacet
facet normal -0.0 -0.0 -1.0
  outer loop
    vertex -78.97409843387362 4548.531726604324 638.2968488707245
    vertex -637.7740984338736 4523.131726604323 638.2968488707245
    vertex -637.7740984338736 4548.531726604324 638.2968488707245
  endloop
endfacet
facet normal -0.0 -0.0 -1.0
  outer loop
    vertex -637.7740984338736 4523.131726604323 638.2968488707245
    vertex -78.97409843387362 4548.531726604324 638.2968488707245
    vertex -78.97409843387362 4523.131726604323 638.2968488707245
  endloop
endfacet
facet normal -0.0 -0.0 -1.0
  outer loop
    vertex -840.9740984338732 4548.531726604324 1461.7828363175638
    vertex -1399.7740984338734 4523.131726604323 1461.7828363175638
    vertex -1399.7740984338734 4548.531726604324 1461.7828363175638
  endloop
endfacet
facet normal -0.0 -0.0 -1.0
  outer loop
    vertex -1399.7740984338734 4523.131726604323 1461.7828363175638
    vertex -840.9740984338732 4548.531726604324 1461.7828363175638
    vertex -840.9740984338732 4523.131726604323 1461.7828363175638
  endloop
endfacet
facet normal -0.0 -0.0 -1.0
  outer loop
    vertex -840.9740984338732 4548.531726604324 2070.8077467430035
    vertex -1399.7740984338732 4523.131726604323 2070.8077467430035
    vertex -1399.7740984338732 4548.531726604324 2070.8077467430035
  endloop
endfacet
facet normal -0.0 -0.0 -1.0
  outer loop
    vertex -1399.7740984338732 4523.131726604323 2070.8077467430035
    vertex -840.9740984338732 4548.531726604324 2070.8077467430035
    vertex -840.9740984338732 4523.131726604323 2070.8077467430035
  endloop
endfacet
facet normal -1.0 0.0 8.934513007391294e-17
  outer loop
    vertex -1501.374098433873 4548.531726604324 2172.407746743004
    vertex -1501.374098433873 4523.131726604323 152.40000000000032
    vertex -1501.374098433873 4523.131726604323 2172.407746743004
  endloop
endfacet
facet normal -1.0 0.0 8.934513007391294e-17
  outer loop
    vertex -1501.374098433873 4523.131726604323 152.40000000000032
    vertex -1501.374098433873 4548.531726604324 2172.407746743004
    vertex -1501.374098433873 4548.531726604324 152.40000000000032
  endloop
endfacet
facet normal 0.0 1.0 0.0
  outer loop
    vertex -637.7740984338736 4523.131726604323 638.2968488707245
    vertex -78.97409843387362 4523.131726604323 254.00000000000017
    vertex -637.7740984338736 4523.131726604323 254.00000000000017
  endloop
endfacet
facet normal 0.0 1.0 0.0
  outer loop
    vertex -78.97409843387362 4523.131726604323 254.00000000000017
    vertex -637.7740984338736 4523.131726604323 638.2968488707245
    vertex -78.97409843387362 4523.131726604323 638.2968488707245
  endloop
endfacet
facet normal 0.0 1.0 0.0
  outer loop
    vertex -637.7740984338736 4523.131726604323 1461.7828363175638
    vertex -78.97409843387325 4523.131726604323 739.8968488707245
    vertex -637.7740984338736 4523.131726604323 739.8968488707245
  endloop
endfacet
facet normal 0.0 1.0 0.0
  outer loop
    vertex -78.97409843387325 4523.131726604323 739.8968488707245
    vertex -637.7740984338736 4523.131726604323 1461.7828363175638
    vertex -78.97409843387325 4523.131726604323 1461.7828363175638
  endloop
endfacet
facet normal 1.0 0.0 -5.863274161100537e-17
  outer loop
    vertex 22.625901566126377 4548.531726604324 152.4000000000001
    vertex 22.62590156612674 4523.131726604323 2172.4077467430034
    vertex 22.625901566126377 4523.131726604323 152.4000000000001
  endloop
endfacet
facet normal 1.0 0.0 -5.863274161100537e-17
  outer loop
    vertex 22.62590156612674 4523.131726604323 2172.4077467430034
    vertex 22.625901566126377 4548.531726604324 152.4000000000001
    vertex 22.62590156612674 4548.531726604324 2172.4077467430034
  endloop
endfacet
facet normal 0.0 1.0 0.0
  outer loop
    vertex -1399.7740984338734 4523.131726604323 638.2968488707245
    vertex -840.9740984338732 4523.131726604323 254.00000000000034
    vertex -1399.7740984338734 4523.131726604323 254.00000000000034
  endloop
endfacet
facet normal 0.0 1.0 0.0
  outer loop
    vertex -840.9740984338732 4523.131726604323 254.00000000000034
    vertex -1399.7740984338734 4523.131726604323 638.2968488707245
    vertex -840.9740984338732 4523.131726604323 638.2968488707245
  endloop
endfacet
facet normal 0.0 0.0 1.0
  outer loop
    vertex -2898.374098433874 1259.2317266043242 2387.6000000000004
    vertex -2923.7740984338743 2580.031726604324 2387.6000000000004
    vertex -2923.7740984338743 1259.2317266043242 2387.6000000000004
  endloop
endfacet
facet normal 0.0 0.0 1.0
  outer loop
    vertex -2923.7740984338743 2580.031726604324 2387.6000000000004
    vertex -2898.374098433874 1259.2317266043242 2387.6000000000004
    vertex -2898.374098433874 2580.031726604324 2387.6000000000004
  endloop
endfacet
facet normal 0.0 -1.0 0.0
  outer loop
    vertex -2898.374098433874 1259.2317266043242 2387.6000000000004
    vertex -2923.7740984338743 1259.2317266043242 1270.0000000000007
    vertex -2898.374098433874 1259.2317266043242 1270.0000000000007
  endloop
endfacet
facet normal 0.0 -1.0 0.0
  outer loop
    vertex -2923.7740984338743 1259.2317266043242 1270.0000000000007
    vertex -2898.374098433874 1259.2317266043242 2387.6000000000004
    vertex -2923.7740984338743 1259.2317266043242 2387.6000000000004
  endloop
endfacet
facet normal 0.0 1.0 0.0
  outer loop
    vertex -2923.7740984338743 2580.031726604324 2387.6000000000004
    vertex -2898.374098433874 2580.031726604324 1270.0000000000007
    vertex -2923.7740984338743 2580.031726604324 1270.0000000000007
  endloop
endfacet
facet normal 0.0 1.0 0.0
  outer loop
    vertex -2898.374098433874 2580.031726604324 1270.0000000000007
    vertex -2923.7740984338743 2580.031726604324 2387.6000000000004
    vertex -2898.374098433874 2580.031726604324 2387.6000000000004
  endloop
endfacet
facet normal 0.0 -1.0 0.0
  outer loop
    vertex 733.8259015661271 4446.931726604324 2607.382746743011
    vertex 708.4259015661271 4446.931726604324 152.39999999999998
    vertex 733.8259015661271 4446.931726604324 152.39999999999998
  endloop
endfacet
facet normal 0.0 -1.0 0.0
  outer loop
    vertex 708.4259015661271 4446.931726604324 152.39999999999998
    vertex 733.8259015661271 4446.931726604324 2607.382746743011
    vertex 708.4259015661271 4446.931726604324 2607.382746743011
  endloop
endfacet
facet normal 0.0 -1.0 0.0
  outer loop
    vertex -2720.574098433874 2478.431726604324 1828.8000000000006
    vertex -2923.7740984338743 2478.431726604324 1371.6000000000006
    vertex -2720.574098433874 2478.431726604324 1371.6000000000006
  endloop
endfacet
facet normal 0.0 -1.0 0.0
  outer loop
    vertex -2923.7740984338743 2478.431726604324 1371.6000000000006
    vertex -2720.574098433874 2478.431726604324 1828.8000000000006
    vertex -2771.374098433874 2478.431726604324 1828.8000000000006
  endloop
endfacet
facet normal 0.0 -1.0 0.0
  outer loop
    vertex -2923.7740984338743 2478.431726604324 1371.6000000000006
    vertex -2771.374098433874 2478.431726604324 1828.8000000000006
    vertex -2923.7740984338743 2478.431726604324 2286.0000000000005
  endloop
endfacet
facet normal 0.0 -1.0 0.0
  outer loop
    vertex -2923.7740984338743 2478.431726604324 2286.0000000000005
    vertex -2771.374098433874 2478.431726604324 1828.8000000000006
    vertex -2771.374098433874 2478.431726604324 2286.0000000000005
  endloop
endfacet
facet normal 0.0 0.0 1.0
  outer loop
    vertex -2720.574098433874 1360.831726604324 1371.6000000000006
    vertex -2923.7740984338743 2478.431726604324 1371.6000000000006
    vertex -2923.7740984338743 1360.831726604324 1371.6000000000006
  endloop
endfacet
facet normal 0.0 0.0 1.0
  outer loop
    vertex -2923.7740984338743 2478.431726604324 1371.6000000000006
    vertex -2720.574098433874 1360.831726604324 1371.6000000000006
    vertex -2720.574098433874 2478.431726604324 1371.6000000000006
  endloop
endfacet
facet normal 0.0 1.0 0.0
  outer loop
    vertex -2872.9740984338737 4548.531726604324 152.4000000000006
    vertex -2822.1740984338735 4548.531726604324 2477.207746743004
    vertex -2822.1740984338735 4548.531726604324 152.40000000000043
  endloop
endfacet
facet normal 0.0 1.0 0.0
  outer loop
    vertex -2822.1740984338735 4548.531726604324 2477.207746743004
    vertex -2872.9740984338737 4548.531726604324 152.4000000000006
    vertex -2923.7740984338734 4548.531726604324 152.40000000000066
  endloop
endfacet
facet normal 0.0 1.0 0.0
  outer loop
    vertex -2822.1740984338735 4548.531726604324 2477.207746743004
    vertex -2923.7740984338734 4548.531726604324 152.40000000000066
    vertex -2923.7740984338734 4548.531726604324 2477.207746743004
  endloop
endfacet
facet normal 0.0 -1.0 0.0
  outer loop
    vertex -2898.3740984338733 4446.9317266043245 2607.3827467430115
    vertex -2923.7740984338734 4446.9317266043245 152.40000000000066
    vertex -2898.3740984338733 4446.9317266043245 152.40000000000066
  endloop
endfacet
facet normal 0.0 -1.0 0.0
  outer loop
    vertex -2923.7740984338734 4446.9317266043245 152.40000000000066
    vertex -2898.3740984338733 4446.9317266043245 2607.3827467430115
    vertex -2923.7740984338734 4446.9317266043245 2607.3827467430115
  endloop
endfacet
facet normal -0.0 -0.0 -1.0
  outer loop
    vertex -78.97409843387325 4548.531726604324 2070.807746743003
    vertex -637.7740984338736 4523.131726604323 2070.807746743003
    vertex -637.7740984338736 4548.531726604324 2070.807746743003
  endloop
endfacet
facet normal -0.0 -0.0 -1.0
  outer loop
    vertex -637.7740984338736 4523.131726604323 2070.807746743003
    vertex -78.97409843387325 4548.531726604324 2070.807746743003
    vertex -78.97409843387325 4523.131726604323 2070.807746743003
  endloop
endfacet
facet normal -1.5437386818597431e-16 8.252528870616699e-18 -1.0
  outer loop
    vertex 683.0259015661271 4497.731726604324 -1.2991939321128326e-14
    vertex -2720.574098433874 4345.331726604324 5.166493017377727e-13
    vertex -2872.9740984338737 4497.731726604325 5.359615359481966e-13
  endloop
endfacet
facet normal -1.5437386818597431e-16 8.252528870616699e-18 -1.0
  outer loop
    vertex -2720.574098433874 4345.331726604324 5.166493017377727e-13
    vertex 683.0259015661271 4497.731726604324 -1.2991939321128326e-14
    vertex 530.6259015661257 4345.331726604324 -4.307158180163894e-14
  endloop
endfacet
facet normal -1.5437386818597431e-16 8.252528870616699e-18 -1.0
  outer loop
    vertex 530.6259015661257 4345.331726604324 -4.307158180163894e-14
    vertex 683.0259015661271 4497.731726604324 -1.2991939321128326e-14
    vertex 530.6259015661257 1005.2317266043236 -1.281529018921388e-14
  endloop
endfacet
facet normal -1.5437386818597431e-16 8.252528870616699e-18 -1.0
  outer loop
    vertex 530.6259015661257 1005.2317266043236 -1.281529018921388e-14
    vertex 683.0259015661271 4497.731726604324 -1.2991939321128326e-14
    vertex 683.0259015661256 852.8317266043236 -4.307158180163894e-14
  endloop
endfacet
facet normal -1.5437386818597431e-16 8.252528870616699e-18 -1.0
  outer loop
    vertex -2872.974098433875 852.8317266043242 5.05881893467686e-13
    vertex -2720.574098433874 1005.2317266043239 5.166493017377727e-13
    vertex 683.0259015661256 852.8317266043236 -4.307158180163894e-14
  endloop
endfacet
facet normal -1.5437386818597431e-16 8.252528870616699e-18 -1.0
  outer loop
    vertex -2720.574098433874 1005.2317266043239 5.166493017377727e-13
    vertex -2872.974098433875 852.8317266043242 5.05881893467686e-13
    vertex -2872.9740984338737 4497.731726604325 5.359615359481966e-13
  endloop
endfacet
facet normal -1.5437386818597431e-16 8.252528870616699e-18 -1.0
  outer loop
    vertex -2720.574098433874 1005.2317266043239 5.166493017377727e-13
    vertex -2872.9740984338737 4497.731726604325 5.359615359481966e-13
    vertex -2720.574098433874 4345.331726604324 5.166493017377727e-13
  endloop
endfacet
facet normal -1.5437386818597431e-16 8.252528870616699e-18 -1.0
  outer loop
    vertex 683.0259015661256 852.8317266043236 -4.307158180163894e-14
    vertex -2720.574098433874 1005.2317266043239 5.166493017377727e-13
    vertex 530.6259015661257 1005.2317266043236 -1.281529018921388e-14
  endloop
endfacet
facet normal 1.0 0.0 0.0
  outer loop
    vertex -637.7740984338736 4548.531726604324 739.8968488707245
    vertex -637.7740984338736 4523.131726604323 1461.7828363175638
    vertex -637.7740984338736 4523.131726604323 739.8968488707245
  endloop
endfacet
facet normal 1.0 0.0 0.0
  outer loop
    vertex -637.7740984338736 4523.131726604323 1461.7828363175638
    vertex -637.7740984338736 4548.531726604324 739.8968488707245
    vertex -637.7740984338736 4548.531726604324 1461.7828363175638
  endloop
endfacet
facet normal 0.0 -1.0 0.0
  outer loop
    vertex -2898.3740984338733 2770.5317266043244 2387.6000000000004
    vertex -2923.7740984338734 2770.5317266043244 1270.0000000000007
    vertex -2898.3740984338733 2770.5317266043244 1270.0000000000007
  endloop
endfacet
facet normal 0.0 -1.0 0.0
  outer loop
    vertex -2923.7740984338734 2770.5317266043244 1270.0000000000007
    vertex -2898.3740984338733 2770.5317266043244 2387.6000000000004
    vertex -2923.7740984338734 2770.5317266043244 2387.6000000000004
  endloop
endfacet
facet normal 3.4257426843401303e-17 0.4472135954999593 -0.8944271909999152
  outer loop
    vertex -2923.7740984338734 2675.281726604324 3493.207746743015
    vertex -2898.374098433874 903.6317266043242 2607.382746743012
    vertex -2923.7740984338743 903.6317266043242 2607.382746743012
  endloop
endfacet
facet normal 3.4257426843401303e-17 0.4472135954999593 -0.8944271909999152
  outer loop
    vertex -2898.374098433874 903.6317266043242 2607.382746743012
    vertex -2923.7740984338734 2675.281726604324 3493.207746743015
    vertex -2898.3740984338733 2675.281726604324 3493.207746743015
  endloop
endfacet
facet normal -1.0 1.3909586679550882e-16 8.244032962269989e-17
  outer loop
    vertex -2923.7740984338734 4548.531726604324 152.40000000000066
    vertex -2923.7740984338734 4446.9317266043245 152.40000000000066
    vertex -2923.7740984338734 4548.531726604324 2477.207746743004
  endloop
endfacet
facet normal -1.0 1.3909586679550882e-16 8.244032962269989e-17
  outer loop
    vertex -2923.7740984338734 2675.2817266043235 3606.8000000000047
    vertex -2923.774098433874 643.2817266043243 2477.207746743011
    vertex -2923.7740984338734 643.2817266043243 2590.800000000001
  endloop
endfacet
facet normal -1.0 1.3909586679550882e-16 8.244032962269989e-17
  outer loop
    vertex -2923.774098433874 643.2817266043243 2477.207746743011
    vertex -2923.7740984338734 2675.2817266043235 3606.8000000000047
    vertex -2923.7740984338743 903.6317266043242 2607.382746743012
  endloop
endfacet
facet normal -1.0 1.3909586679550882e-16 8.244032962269989e-17
  outer loop
    vertex -2923.774098433874 643.2817266043243 2477.207746743011
    vertex -2923.7740984338743 903.6317266043242 2607.382746743012
    vertex -2923.7740984338743 802.031726604324 2477.207746743011
  endloop
endfacet
facet normal -1.0 1.3909586679550882e-16 8.244032962269989e-17
  outer loop
    vertex -2923.7740984338743 802.031726604324 2477.207746743011
    vertex -2923.7740984338743 903.6317266043242 2607.382746743012
    vertex -2923.7740984338743 802.031726604324 152.40000000000072
  endloop
endfacet
facet normal -1.0 1.3909586679550882e-16 8.244032962269989e-17
  outer loop
    vertex -2923.7740984338743 903.6317266043242 2607.382746743012
    vertex -2923.7740984338734 2675.2817266043235 3606.8000000000047
    vertex -2923.7740984338734 2675.281726604324 3493.207746743015
  endloop
endfacet
facet normal -1.0 1.3909586679550882e-16 8.244032962269989e-17
  outer loop
    vertex -2923.7740984338734 2675.281726604324 3493.207746743015
    vertex -2923.7740984338734 2675.2817266043235 3606.8000000000047
    vertex -2923.7740984338734 4707.281726604324 2590.800000000001
  endloop
endfacet
facet normal -1.0 1.3909586679550882e-16 8.244032962269989e-17
  outer loop
    vertex -2923.7740984338734 2675.281726604324 3493.207746743015
    vertex -2923.7740984338734 4707.281726604324 2590.800000000001
    vertex -2923.7740984338734 4446.9317266043245 2607.3827467430115
  endloop
endfacet
facet normal -1.0 1.3909586679550882e-16 8.244032962269989e-17
  outer loop
    vertex -2923.7740984338734 4446.9317266043245 2607.3827467430115
    vertex -2923.7740984338734 4707.281726604324 2590.800000000001
    vertex -2923.7740984338734 4548.531726604324 2477.207746743004
  endloop
endfacet
facet normal -1.0 1.3909586679550882e-16 8.244032962269989e-17
  outer loop
    vertex -2923.7740984338734 4446.9317266043245 2607.3827467430115
    vertex -2923.7740984338734 4548.531726604324 2477.207746743004
    vertex -2923.7740984338734 4446.9317266043245 152.40000000000066
  endloop
endfacet
facet normal -1.0 1.3909586679550882e-16 8.244032962269989e-17
  outer loop
    vertex -2923.7740984338734 4548.531726604324 2477.207746743004
    vertex -2923.7740984338734 4707.281726604324 2590.800000000001
    vertex -2923.7740984338734 4707.281726604324 2477.207746743004
  endloop
endfacet
facet normal -1.0 1.3909586679550882e-16 8.244032962269989e-17
  outer loop
    vertex -2923.7740984338743 903.6317266043242 152.40000000000072
    vertex -2923.7740984338743 802.031726604324 152.40000000000072
    vertex -2923.7740984338743 903.6317266043242 2607.382746743012
  endloop
endfacet
facet normal 0.0 0.0 -1.0
  outer loop
    vertex -2771.3740984338733 3989.731726604324 2286.0000000000005
    vertex -2923.7740984338734 2872.1317266043243 2286.0000000000005
    vertex -2923.7740984338734 3989.731726604324 2286.0000000000005
  endloop
endfacet
facet normal 0.0 0.0 -1.0
  outer loop
    vertex -2923.7740984338734 2872.1317266043243 2286.0000000000005
    vertex -2771.3740984338733 3989.731726604324 2286.0000000000005
    vertex -2771.3740984338733 2872.1317266043243 2286.0000000000005
  endloop
endfacet
facet normal 2.1462539055567867e-16 0.4472135954999593 0.8944271909999152
  outer loop
    vertex 733.8259015661271 2675.281726604323 3606.8000000000043
    vertex -2923.7740984338734 4707.281726604324 2590.800000000001
    vertex -2923.7740984338734 2675.2817266043235 3606.8000000000047
  endloop
endfacet
facet normal 2.1462539055567867e-16 0.4472135954999593 0.8944271909999152
  outer loop
    vertex -2923.7740984338734 4707.281726604324 2590.800000000001
    vertex 733.8259015661271 2675.281726604323 3606.8000000000043
    vertex 733.8259015661271 4707.281726604323 2590.8
  endloop
endfacet
facet normal 9.334063897689189e-17 -0.4472135954999595 0.8944271909999152
  outer loop
    vertex 733.8259015661271 643.2817266043238 2590.8
    vertex -2923.7740984338734 2675.2817266043235 3606.8000000000047
    vertex -2923.7740984338734 643.2817266043243 2590.800000000001
  endloop
endfacet
facet normal 9.334063897689189e-17 -0.4472135954999595 0.8944271909999152
  outer loop
    vertex -2923.7740984338734 2675.2817266043235 3606.8000000000047
    vertex 733.8259015661271 643.2817266043238 2590.8
    vertex 733.8259015661271 2675.281726604323 3606.8000000000043
  endloop
endfacet
facet normal -8.452834975261839e-17 0.4472135954999594 -0.8944271909999151
  outer loop
    vertex 708.4259015661271 2675.2817266043235 3493.2077467430145
    vertex 733.8259015661264 903.6317266043238 2607.3827467430106
    vertex 708.4259015661263 903.6317266043238 2607.3827467430106
  endloop
endfacet
facet normal -8.452834975261839e-17 0.4472135954999594 -0.8944271909999151
  outer loop
    vertex 733.8259015661264 903.6317266043238 2607.3827467430106
    vertex 708.4259015661271 2675.2817266043235 3493.2077467430145
    vertex 733.8259015661271 2675.2817266043235 3493.2077467430145
  endloop
endfacet
facet normal 2.368475785867001e-16 0.0 1.0
  outer loop
    vertex 22.62590156612674 4523.131726604323 2172.4077467430034
    vertex -1501.374098433873 4548.531726604324 2172.407746743004
    vertex -1501.374098433873 4523.131726604323 2172.407746743004
  endloop
endfacet
facet normal 2.368475785867001e-16 0.0 1.0
  outer loop
    vertex -1501.374098433873 4548.531726604324 2172.407746743004
    vertex 22.62590156612674 4523.131726604323 2172.4077467430034
    vertex 22.62590156612674 4548.531726604324 2172.4077467430034
  endloop
endfacet
facet normal 0.0 0.0 1.0
  outer loop
    vertex -840.9740984338732 4523.131726604323 254.00000000000034
    vertex -1399.7740984338734 4548.531726604324 254.00000000000034
    vertex -1399.7740984338734 4523.131726604323 254.00000000000034
  endloop
endfacet
facet normal 0.0 0.0 1.0
  outer loop
    vertex -1399.7740984338734 4548.531726604324 254.00000000000034
    vertex -840.9740984338732 4523.131726604323 254.00000000000034
    vertex -840.9740984338732 4548.531726604324 254.00000000000034
  endloop
endfacet
facet normal 1.895090402553215e-16 1.0 -9.387602969829036e-18
  outer loop
    vertex -2822.1740984338735 4523.131726604324 152.40000000000043
    vertex -1501.374098433873 4523.131726604323 2172.407746743004
    vertex -1501.374098433873 4523.131726604323 152.40000000000032
  endloop
endfacet
facet normal 1.895090402553215e-16 1.0 -9.387602969829036e-18
  outer loop
    vertex -1501.374098433873 4523.131726604323 2172.407746743004
    vertex -2822.1740984338735 4523.131726604324 152.40000000000043
    vertex -2822.1740984338735 4523.131726604324 2477.207746743004
  endloop
endfacet
facet normal 1.895090402553215e-16 1.0 -9.387602969829036e-18
  outer loop
    vertex -1501.374098433873 4523.131726604323 2172.407746743004
    vertex -2822.1740984338735 4523.131726604324 2477.207746743004
    vertex 632.225901566127 4523.131726604323 2477.207746743003
  endloop
endfacet
facet normal 1.895090402553215e-16 1.0 -9.387602969829036e-18
  outer loop
    vertex 22.625901566126377 4523.131726604323 152.4000000000001
    vertex 632.225901566127 4523.131726604323 2477.207746743003
    vertex 632.2259015661264 4523.131726604323 152.39999999999998
  endloop
endfacet
facet normal 1.895090402553215e-16 1.0 -9.387602969829036e-18
  outer loop
    vertex 632.225901566127 4523.131726604323 2477.207746743003
    vertex 22.625901566126377 4523.131726604323 152.4000000000001
    vertex 22.62590156612674 4523.131726604323 2172.4077467430034
  endloop
endfacet
facet normal 1.895090402553215e-16 1.0 -9.387602969829036e-18
  outer loop
    vertex 632.225901566127 4523.131726604323 2477.207746743003
    vertex 22.62590156612674 4523.131726604323 2172.4077467430034
    vertex -1501.374098433873 4523.131726604323 2172.407746743004
  endloop
endfacet
facet normal 0.0 1.0 0.0
  outer loop
    vertex -2923.7740984338734 2872.1317266043243 2286.0000000000005
    vertex -2720.5740984338736 2872.1317266043243 1371.6000000000006
    vertex -2923.7740984338734 2872.1317266043243 1371.6000000000006
  endloop
endfacet
facet normal 0.0 1.0 0.0
  outer loop
    vertex -2720.5740984338736 2872.1317266043243 1371.6000000000006
    vertex -2923.7740984338734 2872.1317266043243 2286.0000000000005
    vertex -2771.3740984338733 2872.1317266043243 1828.8000000000006
  endloop
endfacet
facet normal 0.0 1.0 0.0
  outer loop
    vertex -2771.3740984338733 2872.1317266043243 1828.8000000000006
    vertex -2923.7740984338734 2872.1317266043243 2286.0000000000005
    vertex -2771.3740984338733 2872.1317266043243 2286.0000000000005
  endloop
endfacet
facet normal 0.0 1.0 0.0
  outer loop
    vertex -2720.5740984338736 2872.1317266043243 1828.8000000000006
    vertex -2720.5740984338736 2872.1317266043243 1371.6000000000006
    vertex -2771.3740984338733 2872.1317266043243 1828.8000000000006
  endloop
endfacet
facet normal 1.0 -3.922087807030991e-16 2.9605947323337506e-16
  outer loop
    vertex 683.0259015661271 4497.731726604324 -1.2991939321128326e-14
    vertex 683.0259015661256 852.8317266043238 152.39999999999992
    vertex 683.0259015661256 852.8317266043236 -4.307158180163894e-14
  endloop
endfacet
facet normal 1.0 -3.922087807030991e-16 2.9605947323337506e-16
  outer loop
    vertex 683.0259015661256 852.8317266043238 152.39999999999992
    vertex 683.0259015661271 4497.731726604324 -1.2991939321128326e-14
    vertex 683.0259015661256 903.6317266043238 152.39999999999998
  endloop
endfacet
facet normal 1.0 -3.922087807030991e-16 2.9605947323337506e-16
  outer loop
    vertex 683.0259015661256 903.6317266043238 152.39999999999998
    vertex 683.0259015661271 4497.731726604324 -1.2991939321128326e-14
    vertex 683.0259015661271 4446.931726604324 152.39999999999998
  endloop
endfacet
facet normal 1.0 -3.922087807030991e-16 2.9605947323337506e-16
  outer loop
    vertex 683.0259015661271 4446.931726604324 152.39999999999998
    vertex 683.0259015661271 4497.731726604324 -1.2991939321128326e-14
    vertex 683.0259015661271 4497.731726604324 152.39999999999998
  endloop
endfacet
facet normal 0.0 0.0 -1.0
  outer loop
    vertex -2872.974098433874 903.6317266043242 152.40000000000066
    vertex -2872.9740984338746 852.8317266043242 152.4000000000006
    vertex -2898.374098433874 903.6317266043242 152.40000000000072
  endloop
endfacet
facet normal 0.0 0.0 -1.0
  outer loop
    vertex -2898.374098433874 903.6317266043242 152.40000000000072
    vertex -2923.7740984338743 802.031726604324 152.40000000000072
    vertex -2923.7740984338743 903.6317266043242 152.40000000000072
  endloop
endfacet
facet normal 0.0 0.0 -1.0
  outer loop
    vertex -2923.7740984338743 802.031726604324 152.40000000000072
    vertex -2898.374098433874 903.6317266043242 152.40000000000072
    vertex -2872.9740984338746 802.031726604324 152.40000000000066
  endloop
endfacet
facet normal 0.0 0.0 -1.0
  outer loop
    vertex -2872.9740984338746 802.031726604324 152.40000000000066
    vertex -2898.374098433874 903.6317266043242 152.40000000000072
    vertex -2872.9740984338746 852.8317266043242 152.4000000000006
  endloop
endfacet
facet normal -1.7215824419888408e-16 -1.9572126370676898e-31 -1.0
  outer loop
    vertex 632.2259015661256 827.4317266043237 2477.207746743011
    vertex -2822.1740984338744 802.031726604324 2477.207746743011
    vertex -2822.1740984338744 827.4317266043241 2477.207746743011
  endloop
endfacet
facet normal -1.7215824419888408e-16 -1.9572126370676898e-31 -1.0
  outer loop
    vertex -2822.1740984338744 802.031726604324 2477.207746743011
    vertex -2923.774098433874 643.2817266043243 2477.207746743011
    vertex -2923.7740984338743 802.031726604324 2477.207746743011
  endloop
endfacet
facet normal -1.7215824419888408e-16 -1.9572126370676898e-31 -1.0
  outer loop
    vertex -2923.774098433874 643.2817266043243 2477.207746743011
    vertex -2822.1740984338744 802.031726604324 2477.207746743011
    vertex 733.8259015661256 643.2817266043238 2477.20774674301
  endloop
endfacet
facet normal -1.7215824419888408e-16 -1.9572126370676898e-31 -1.0
  outer loop
    vertex 733.8259015661256 643.2817266043238 2477.20774674301
    vertex -2822.1740984338744 802.031726604324 2477.207746743011
    vertex 632.2259015661256 802.0317266043236 2477.207746743011
  endloop
endfacet
facet normal -1.7215824419888408e-16 -1.9572126370676898e-31 -1.0
  outer loop
    vertex 632.2259015661256 802.0317266043236 2477.207746743011
    vertex -2822.1740984338744 802.031726604324 2477.207746743011
    vertex 632.2259015661256 827.4317266043237 2477.207746743011
  endloop
endfacet
facet normal -1.7215824419888408e-16 -1.9572126370676898e-31 -1.0
  outer loop
    vertex 733.8259015661256 643.2817266043238 2477.20774674301
    vertex 632.2259015661256 802.0317266043236 2477.207746743011
    vertex 733.8259015661256 802.0317266043236 2477.20774674301
  endloop
endfacet
facet normal 0.0 1.0 0.0
  outer loop
    vertex 632.225901566127 4548.531726604324 2477.207746743003
    vertex 683.0259015661271 4548.531726604324 152.39999999999998
    vertex 632.2259015661264 4548.531726604324 152.39999999999998
  endloop
endfacet
facet normal 0.0 1.0 0.0
  outer loop
    vertex 683.0259015661271 4548.531726604324 152.39999999999998
    vertex 632.225901566127 4548.531726604324 2477.207746743003
    vertex 733.8259015661271 4548.531726604324 152.39999999999998
  endloop
endfacet
facet normal 0.0 1.0 0.0
  outer loop
    vertex 733.8259015661271 4548.531726604324 152.39999999999998
    vertex 632.225901566127 4548.531726604324 2477.207746743003
    vertex 733.8259015661271 4548.531726604324 2477.207746743003
  endloop
endfacet
facet normal 0.0 -1.0 0.0
  outer loop
    vertex -2720.5740984338736 3989.731726604324 1828.8000000000006
    vertex -2923.7740984338734 3989.731726604324 1371.6000000000006
    vertex -2720.5740984338736 3989.731726604324 1371.6000000000006
  endloop
endfacet
facet normal 0.0 -1.0 0.0
  outer loop
    vertex -2923.7740984338734 3989.731726604324 1371.6000000000006
    vertex -2720.5740984338736 3989.731726604324 1828.8000000000006
    vertex -2771.3740984338733 3989.731726604324 1828.8000000000006
  endloop
endfacet
facet normal 0.0 -1.0 0.0
  outer loop
    vertex -2923.7740984338734 3989.731726604324 1371.6000000000006
    vertex -2771.3740984338733 3989.731726604324 1828.8000000000006
    vertex -2923.7740984338734 3989.731726604324 2286.0000000000005
  endloop
endfacet
facet normal 0.0 -1.0 0.0
  outer loop
    vertex -2923.7740984338734 3989.731726604324 2286.0000000000005
    vertex -2771.3740984338733 3989.731726604324 1828.8000000000006
    vertex -2771.3740984338733 3989.731726604324 2286.0000000000005
  endloop
endfacet
facet normal -1.1970457902780357e-16 -1.0 5.921189464667505e-16
  outer loop
    vertex 683.0259015661256 852.8317266043238 152.39999999999992
    vertex -2872.974098433875 852.8317266043242 5.05881893467686e-13
    vertex 683.0259015661256 852.8317266043236 -4.307158180163894e-14
  endloop
endfacet
facet normal -1.1970457902780357e-16 -1.0 5.921189464667505e-16
  outer loop
    vertex -2872.974098433875 852.8317266043242 5.05881893467686e-13
    vertex 683.0259015661256 852.8317266043238 152.39999999999992
    vertex 632.2259015661256 852.8317266043238 152.39999999999597
  endloop
endfacet
facet normal -1.1970457902780357e-16 -1.0 5.921189464667505e-16
  outer loop
    vertex 632.2259015661256 852.8317266043238 152.39999999999597
    vertex -2872.9740984338746 852.8317266043242 152.4000000000006
    vertex -2872.974098433875 852.8317266043242 5.05881893467686e-13
  endloop
endfacet
facet normal -1.1970457902780357e-16 -1.0 5.921189464667505e-16
  outer loop
    vertex -2872.9740984338746 852.8317266043242 152.4000000000006
    vertex 632.2259015661256 852.8317266043238 152.39999999999597
    vertex -2822.1740984338744 852.8317266043242 152.40000000000063
  endloop
endfacet
facet normal -1.0 6.510797134566411e-31 1.5526260623994346e-16
  outer loop
    vertex 632.2259015661256 827.4317266043237 2477.207746743011
    vertex 632.2259015661256 802.0317266043239 152.399999999996
    vertex 632.2259015661256 802.0317266043236 2477.207746743011
  endloop
endfacet
facet normal -1.0 6.510797134566411e-31 1.5526260623994346e-16
  outer loop
    vertex 632.2259015661256 802.0317266043239 152.399999999996
    vertex 632.2259015661256 827.4317266043237 2477.207746743011
    vertex 632.2259015661256 827.4317266043238 152.399999999996
  endloop
endfacet
facet normal -1.0 0.0 0.0
  outer loop
    vertex -78.97409843387362 4548.531726604324 638.2968488707245
    vertex -78.97409843387362 4523.131726604323 254.00000000000017
    vertex -78.97409843387362 4523.131726604323 638.2968488707245
  endloop
endfacet
facet normal -1.0 0.0 0.0
  outer loop
    vertex -78.97409843387362 4523.131726604323 254.00000000000017
    vertex -78.97409843387362 4548.531726604324 638.2968488707245
    vertex -78.97409843387362 4548.531726604324 254.00000000000017
  endloop
endfacet
facet normal -0.0 -0.0 -1.0
  outer loop
    vertex -2898.374098433874 2580.031726604324 1270.0000000000007
    vertex -2923.7740984338743 1259.2317266043242 1270.0000000000007
    vertex -2923.7740984338743 2580.031726604324 1270.0000000000007
  endloop
endfacet
facet normal -0.0 -0.0 -1.0
  outer loop
    vertex -2923.7740984338743 1259.2317266043242 1270.0000000000007
    vertex -2898.374098433874 2580.031726604324 1270.0000000000007
    vertex -2898.374098433874 1259.2317266043242 1270.0000000000007
  endloop
endfacet
facet normal -1.298980443022288e-16 6.87241705190563e-16 -1.0
  outer loop
    vertex 22.625901566126377 4548.531726604324 152.4000000000001
    vertex -1501.374098433873 4523.131726604323 152.40000000000032
    vertex -1501.374098433873 4548.531726604324 152.40000000000032
  endloop
endfacet
facet normal -1.298980443022288e-16 6.87241705190563e-16 -1.0
  outer loop
    vertex -1501.374098433873 4523.131726604323 152.40000000000032
    vertex -2822.1740984338735 4497.731726604325 152.40000000000043
    vertex -2822.1740984338735 4523.131726604324 152.40000000000043
  endloop
endfacet
facet normal -1.298980443022288e-16 6.87241705190563e-16 -1.0
  outer loop
    vertex -2822.1740984338735 4497.731726604325 152.40000000000043
    vertex -1501.374098433873 4523.131726604323 152.40000000000032
    vertex 632.2259015661264 4497.731726604324 152.39999999999998
  endloop
endfacet
facet normal -1.298980443022288e-16 6.87241705190563e-16 -1.0
  outer loop
    vertex 632.2259015661264 4497.731726604324 152.39999999999998
    vertex -1501.374098433873 4523.131726604323 152.40000000000032
    vertex 22.625901566126377 4523.131726604323 152.4000000000001
  endloop
endfacet
facet normal -1.298980443022288e-16 6.87241705190563e-16 -1.0
  outer loop
    vertex 22.625901566126377 4523.131726604323 152.4000000000001
    vertex -1501.374098433873 4523.131726604323 152.40000000000032
    vertex 22.625901566126377 4548.531726604324 152.4000000000001
  endloop
endfacet
facet normal -1.298980443022288e-16 6.87241705190563e-16 -1.0
  outer loop
    vertex 632.2259015661264 4497.731726604324 152.39999999999998
    vertex 22.625901566126377 4523.131726604323 152.4000000000001
    vertex 632.2259015661264 4523.131726604323 152.39999999999998
  endloop
endfacet
facet normal -1.0 0.0 0.0
  outer loop
    vertex -840.9740984338732 4548.531726604324 1461.7828363175638
    vertex -840.9740984338732 4523.131726604323 739.8968488707246
    vertex -840.9740984338732 4523.131726604323 1461.7828363175638
  endloop
endfacet
facet normal -1.0 0.0 0.0
  outer loop
    vertex -840.9740984338732 4523.131726604323 739.8968488707246
    vertex -840.9740984338732 4548.531726604324 1461.7828363175638
    vertex -840.9740984338732 4548.531726604324 739.8968488707246
  endloop
endfacet
facet normal 0.0 0.0 -1.0
  outer loop
    vertex -2771.374098433874 2478.431726604324 2286.0000000000005
    vertex -2923.7740984338743 1360.831726604324 2286.0000000000005
    vertex -2923.7740984338743 2478.431726604324 2286.0000000000005
  endloop
endfacet
facet normal 0.0 0.0 -1.0
  outer loop
    vertex -2923.7740984338743 1360.831726604324 2286.0000000000005
    vertex -2771.374098433874 2478.431726604324 2286.0000000000005
    vertex -2771.374098433874 1360.831726604324 2286.0000000000005
  endloop
endfacet
facet normal 0.0 1.0 0.0
  outer loop
    vertex -1399.7740984338734 4523.131726604323 1461.7828363175638
    vertex -840.9740984338732 4523.131726604323 739.8968488707246
    vertex -1399.7740984338734 4523.131726604323 739.8968488707246
  endloop
endfacet
facet normal 0.0 1.0 0.0
  outer loop
    vertex -840.9740984338732 4523.131726604323 739.8968488707246
    vertex -1399.7740984338734 4523.131726604323 1461.7828363175638
    vertex -840.9740984338732 4523.131726604323 1461.7828363175638
  endloop
endfacet
facet normal 2.2204460492502973e-16 -4.4408920985006104e-16 -1.0
  outer loop
    vertex -2822.1740984338744 852.8317266043242 152.40000000000063
    vertex -2872.9740984338746 802.031726604324 152.40000000000066
    vertex -2872.9740984338746 852.8317266043242 152.4000000000006
  endloop
endfacet
facet normal 2.2204460492502973e-16 -4.4408920985006104e-16 -1.0
  outer loop
    vertex -2872.9740984338746 802.031726604324 152.40000000000066
    vertex -2822.1740984338744 852.8317266043242 152.40000000000063
    vertex -2822.1740984338744 802.031726604324 152.40000000000066
  endloop
endfacet
facet normal 2.2204460492502973e-16 -4.4408920985006104e-16 -1.0
  outer loop
    vertex -2822.1740984338744 802.031726604324 152.40000000000066
    vertex -2822.1740984338744 852.8317266043242 152.40000000000063
    vertex -2822.1740984338744 827.4317266043241 152.40000000000066
  endloop
endfacet
facet normal 1.0 0.0 0.0
  outer loop
    vertex -2822.1740984338744 827.4317266043241 152.40000000000066
    vertex -2822.1740984338744 802.031726604324 2477.207746743011
    vertex -2822.1740984338744 802.031726604324 152.40000000000066
  endloop
endfacet
facet normal 1.0 0.0 0.0
  outer loop
    vertex -2822.1740984338744 802.031726604324 2477.207746743011
    vertex -2822.1740984338744 827.4317266043241 152.40000000000066
    vertex -2822.1740984338744 827.4317266043241 2477.207746743011
  endloop
endfacet
facet normal -1.4797303716557468e-16 -0.44721359549995926 -0.8944271909999152
  outer loop
    vertex -2898.3740984338733 4446.9317266043245 2607.3827467430115
    vertex -2923.7740984338734 2675.281726604324 3493.207746743015
    vertex -2923.7740984338734 4446.9317266043245 2607.3827467430115
  endloop
endfacet
facet normal -1.4797303716557468e-16 -0.44721359549995926 -0.8944271909999152
  outer loop
    vertex -2923.7740984338734 2675.281726604324 3493.207746743015
    vertex -2898.3740984338733 4446.9317266043245 2607.3827467430115
    vertex -2898.3740984338733 2675.281726604324 3493.207746743015
  endloop
endfacet
facet normal 0.0 1.0 0.0
  outer loop
    vertex -2923.7740984338743 1360.831726604324 2286.0000000000005
    vertex -2720.574098433874 1360.831726604324 1371.6000000000006
    vertex -2923.7740984338743 1360.831726604324 1371.6000000000006
  endloop
endfacet
facet normal 0.0 1.0 0.0
  outer loop
    vertex -2720.574098433874 1360.831726604324 1371.6000000000006
    vertex -2923.7740984338743 1360.831726604324 2286.0000000000005
    vertex -2771.3740984338738 1360.831726604324 1828.8000000000006
  endloop
endfacet
facet normal 0.0 1.0 0.0
  outer loop
    vertex -2771.3740984338738 1360.831726604324 1828.8000000000006
    vertex -2923.7740984338743 1360.831726604324 2286.0000000000005
    vertex -2771.374098433874 1360.831726604324 2286.0000000000005
  endloop
endfacet
facet normal 0.0 1.0 0.0
  outer loop
    vertex -2720.574098433874 1360.831726604324 1828.8000000000006
    vertex -2720.574098433874 1360.831726604324 1371.6000000000006
    vertex -2771.3740984338738 1360.831726604324 1828.8000000000006
  endloop
endfacet
facet normal 0.0 1.0 0.0
  outer loop
    vertex -2923.7740984338734 4091.3317266043246 2387.6000000000004
    vertex -2898.3740984338733 4091.3317266043246 1270.0000000000007
    vertex -2923.7740984338734 4091.3317266043246 1270.0000000000007
  endloop
endfacet
facet normal 0.0 1.0 0.0
  outer loop
    vertex -2898.3740984338733 4091.3317266043246 1270.0000000000007
    vertex -2923.7740984338734 4091.3317266043246 2387.6000000000004
    vertex -2898.3740984338733 4091.3317266043246 2387.6000000000004
  endloop
endfacet
facet normal 1.0 0.0 0.0
  outer loop
    vertex -2822.1740984338735 4548.531726604324 152.40000000000043
    vertex -2822.1740984338735 4523.131726604324 2477.207746743004
    vertex -2822.1740984338735 4523.131726604324 152.40000000000043
  endloop
endfacet
facet normal 1.0 0.0 0.0
  outer loop
    vertex -2822.1740984338735 4523.131726604324 2477.207746743004
    vertex -2822.1740984338735 4548.531726604324 152.40000000000043
    vertex -2822.1740984338735 4548.531726604324 2477.207746743004
  endloop
endfacet
facet normal 0.0 0.0 1.0
  outer loop
    vertex -2898.3740984338733 2770.5317266043244 2387.6000000000004
    vertex -2923.7740984338734 4091.3317266043246 2387.6000000000004
    vertex -2923.7740984338734 2770.5317266043244 2387.6000000000004
  endloop
endfacet
facet normal 0.0 0.0 1.0
  outer loop
    vertex -2923.7740984338734 4091.3317266043246 2387.6000000000004
    vertex -2898.3740984338733 2770.5317266043244 2387.6000000000004
    vertex -2898.3740984338733 4091.3317266043246 2387.6000000000004
  endloop
endfacet
facet normal -3.1086244689504162e-15 -0.0 -1.0
  outer loop
    vertex -2822.1740984338735 4548.531726604324 152.40000000000043
    vertex -2872.9740984338737 4497.731726604325 152.4000000000006
    vertex -2872.9740984338737 4548.531726604324 152.4000000000006
  endloop
endfacet
facet normal -3.1086244689504162e-15 -0.0 -1.0
  outer loop
    vertex -2872.9740984338737 4497.731726604325 152.4000000000006
    vertex -2822.1740984338735 4548.531726604324 152.40000000000043
    vertex -2822.1740984338735 4497.731726604325 152.40000000000043
  endloop
endfacet
facet normal -3.1086244689504162e-15 -0.0 -1.0
  outer loop
    vertex -2822.1740984338735 4497.731726604325 152.40000000000043
    vertex -2822.1740984338735 4548.531726604324 152.40000000000043
    vertex -2822.1740984338735 4523.131726604324 152.40000000000043
  endloop
endfacet
facet normal -8.881784197001237e-16 -1.0 -6.469275259997636e-17
  outer loop
    vertex 733.8259015661256 802.0317266043236 2477.20774674301
    vertex 683.0259015661256 802.0317266043237 152.39999999999998
    vertex 733.8259015661256 802.0317266043237 152.39999999999998
  endloop
endfacet
facet normal -8.881784197001237e-16 -1.0 -6.469275259997636e-17
  outer loop
    vertex 683.0259015661256 802.0317266043237 152.39999999999998
    vertex 632.2259015661256 802.0317266043236 2477.207746743011
    vertex 632.2259015661256 802.0317266043239 152.399999999996
  endloop
endfacet
facet normal -8.881784197001237e-16 -1.0 -6.469275259997636e-17
  outer loop
    vertex 632.2259015661256 802.0317266043236 2477.207746743011
    vertex 683.0259015661256 802.0317266043237 152.39999999999998
    vertex 733.8259015661256 802.0317266043236 2477.20774674301
  endloop
endfacet
facet normal 7.793765632868639e-14 -4.440892098500642e-16 -1.0
  outer loop
    vertex 683.0259015661256 852.8317266043238 152.39999999999992
    vertex 632.2259015661256 827.4317266043238 152.399999999996
    vertex 632.2259015661256 852.8317266043238 152.39999999999597
  endloop
endfacet
facet normal 7.793765632868639e-14 -4.440892098500642e-16 -1.0
  outer loop
    vertex 632.2259015661256 827.4317266043238 152.399999999996
    vertex 683.0259015661256 852.8317266043238 152.39999999999992
    vertex 632.2259015661256 802.0317266043239 152.399999999996
  endloop
endfacet
facet normal 7.793765632868639e-14 -4.440892098500642e-16 -1.0
  outer loop
    vertex 632.2259015661256 802.0317266043239 152.399999999996
    vertex 683.0259015661256 852.8317266043238 152.39999999999992
    vertex 683.0259015661256 802.0317266043237 152.39999999999998
  endloop
endfacet
facet normal 0.0 0.0 1.0
  outer loop
    vertex -2720.5740984338736 2872.1317266043243 1371.6000000000006
    vertex -2923.7740984338734 3989.731726604324 1371.6000000000006
    vertex -2923.7740984338734 2872.1317266043243 1371.6000000000006
  endloop
endfacet
facet normal 0.0 0.0 1.0
  outer loop
    vertex -2923.7740984338734 3989.731726604324 1371.6000000000006
    vertex -2720.5740984338736 2872.1317266043243 1371.6000000000006
    vertex -2720.5740984338736 3989.731726604324 1371.6000000000006
  endloop
endfacet
facet normal -0.0 -0.0 -1.0
  outer loop
    vertex -840.9740984338732 4548.531726604324 638.2968488707245
    vertex -1399.7740984338734 4523.131726604323 638.2968488707245
    vertex -1399.7740984338734 4548.531726604324 638.2968488707245
  endloop
endfacet
facet normal -0.0 -0.0 -1.0
  outer loop
    vertex -1399.7740984338734 4523.131726604323 638.2968488707245
    vertex -840.9740984338732 4548.531726604324 638.2968488707245
    vertex -840.9740984338732 4523.131726604323 638.2968488707245
  endloop
endfacet
facet normal -1.0 0.0 1.5526260623994422e-16
  outer loop
    vertex 632.225901566127 4548.531726604324 2477.207746743003
    vertex 632.2259015661264 4523.131726604323 152.39999999999998
    vertex 632.225901566127 4523.131726604323 2477.207746743003
  endloop
endfacet
facet normal -1.0 0.0 1.5526260623994422e-16
  outer loop
    vertex 632.2259015661264 4523.131726604323 152.39999999999998
    vertex 632.225901566127 4548.531726604324 2477.207746743003
    vertex 632.2259015661264 4548.531726604324 152.39999999999998
  endloop
endfacet
facet normal 1.356004745821706e-16 1.0 -2.1544499798192267e-31
  outer loop
    vertex -2923.7740984338734 4707.281726604324 2477.207746743004
    vertex 733.8259015661271 4707.281726604323 2590.8
    vertex 733.8259015661271 4707.281726604323 2477.207746743003
  endloop
endfacet
facet normal 1.356004745821706e-16 1.0 -2.1544499798192267e-31
  outer loop
    vertex 733.8259015661271 4707.281726604323 2590.8
    vertex -2923.7740984338734 4707.281726604324 2477.207746743004
    vertex -2923.7740984338734 4707.281726604324 2590.800000000001
  endloop
endfacet
facet normal -3.3509523776496046e-16 -0.4472135954999592 -0.8944271909999153
  outer loop
    vertex 733.8259015661271 4446.931726604324 2607.382746743011
    vertex 708.4259015661271 2675.2817266043235 3493.2077467430145
    vertex 708.4259015661271 4446.931726604324 2607.382746743011
  endloop
endfacet
facet normal -3.3509523776496046e-16 -0.4472135954999592 -0.8944271909999153
  outer loop
    vertex 708.4259015661271 2675.2817266043235 3493.2077467430145
    vertex 733.8259015661271 4446.931726604324 2607.382746743011
    vertex 733.8259015661271 2675.2817266043235 3493.2077467430145
  endloop
endfacet
facet normal -1.3061447348531256e-16 -1.0 -3.881565155998594e-17
  outer loop
    vertex 632.2259015661256 827.4317266043237 2477.207746743011
    vertex -2822.1740984338744 827.4317266043241 152.40000000000066
    vertex 632.2259015661256 827.4317266043238 152.399999999996
  endloop
endfacet
facet normal -1.3061447348531256e-16 -1.0 -3.881565155998594e-17
  outer loop
    vertex -2822.1740984338744 827.4317266043241 152.40000000000066
    vertex 632.2259015661256 827.4317266043237 2477.207746743011
    vertex -2822.1740984338744 827.4317266043241 2477.207746743011
  endloop
endfacet
facet normal -0.0 -0.0 -1.0
  outer loop
    vertex -2898.3740984338733 4091.3317266043246 1270.0000000000007
    vertex -2923.7740984338734 2770.5317266043244 1270.0000000000007
    vertex -2923.7740984338734 4091.3317266043246 1270.0000000000007
  endloop
endfacet
facet normal -0.0 -0.0 -1.0
  outer loop
    vertex -2923.7740984338734 2770.5317266043244 1270.0000000000007
    vertex -2898.3740984338733 4091.3317266043246 1270.0000000000007
    vertex -2898.3740984338733 2770.5317266043244 1270.0000000000007
  endloop
endfacet
facet normal 2.9605947323337506e-16 -1.2063822684383453e-31 -1.0
  outer loop
    vertex 683.0259015661271 4446.931726604324 152.39999999999998
    vertex 708.4259015661256 903.6317266043238 152.39999999999998
    vertex 683.0259015661256 903.6317266043238 152.39999999999998
  endloop
endfacet
facet normal 2.9605947323337506e-16 -1.2063822684383453e-31 -1.0
  outer loop
    vertex 708.4259015661256 903.6317266043238 152.39999999999998
    vertex 683.0259015661271 4446.931726604324 152.39999999999998
    vertex 708.4259015661271 4446.931726604324 152.39999999999998
  endloop
endfacet
facet normal -0.0 -0.0 -1.0
  outer loop
    vertex -2720.5740984338736 3989.731726604324 1828.8000000000006
    vertex -2771.3740984338733 2872.1317266043243 1828.8000000000006
    vertex -2771.3740984338733 3989.731726604324 1828.8000000000006
  endloop
endfacet
facet normal -0.0 -0.0 -1.0
  outer loop
    vertex -2771.3740984338733 2872.1317266043243 1828.8000000000006
    vertex -2720.5740984338736 3989.731726604324 1828.8000000000006
    vertex -2720.5740984338736 2872.1317266043243 1828.8000000000006
  endloop
endfacet
facet normal 0.0 1.0 0.0
  outer loop
    vertex -1399.7740984338732 4523.131726604323 2070.8077467430035
    vertex -840.9740984338732 4523.131726604323 1563.382836317564
    vertex -1399.7740984338732 4523.131726604323 1563.382836317564
  endloop
endfacet
facet normal 0.0 1.0 0.0
  outer loop
    vertex -840.9740984338732 4523.131726604323 1563.382836317564
    vertex -1399.7740984338732 4523.131726604323 2070.8077467430035
    vertex -840.9740984338732 4523.131726604323 2070.8077467430035
  endloop
endfacet
facet normal -1.6750514817089047e-16 -4.529249365651493e-18 -1.0
  outer loop
    vertex 530.6259015661257 4345.331726604324 -4.307158180163894e-14
    vertex -2720.574098433874 1005.2317266043239 5.166493017377727e-13
    vertex -2720.574098433874 4345.331726604324 5.166493017377727e-13
  endloop
endfacet
facet normal -1.6750514817089047e-16 -4.529249365651493e-18 -1.0
  outer loop
    vertex -2720.574098433874 1005.2317266043239 5.166493017377727e-13
    vertex 530.6259015661257 4345.331726604324 -4.307158180163894e-14
    vertex 530.6259015661257 1005.2317266043236 -1.281529018921388e-14
  endloop
endfacet
facet normal 1.0 -2.801422972530861e-16 -2.3457671666290977e-16
  outer loop
    vertex 708.4259015661271 4446.931726604324 152.39999999999998
    vertex 708.4259015661263 903.6317266043238 2607.3827467430106
    vertex 708.4259015661256 903.6317266043238 152.39999999999998
  endloop
endfacet
facet normal 1.0 -2.801422972530861e-16 -2.3457671666290977e-16
  outer loop
    vertex 708.4259015661263 903.6317266043238 2607.3827467430106
    vertex 708.4259015661271 4446.931726604324 152.39999999999998
    vertex 708.4259015661271 2675.2817266043235 3493.2077467430145
  endloop
endfacet
facet normal 1.0 -2.801422972530861e-16 -2.3457671666290977e-16
  outer loop
    vertex 708.4259015661271 2675.2817266043235 3493.2077467430145
    vertex 708.4259015661271 4446.931726604324 152.39999999999998
    vertex 708.4259015661271 4446.931726604324 2607.382746743011
  endloop
endfacet
facet normal 0.0 1.0 0.0
  outer loop
    vertex -2923.7740984338743 903.6317266043242 2607.382746743012
    vertex -2898.374098433874 903.6317266043242 152.40000000000072
    vertex -2923.7740984338743 903.6317266043242 152.40000000000072
  endloop
endfacet
facet normal 0.0 1.0 0.0
  outer loop
    vertex -2898.374098433874 903.6317266043242 152.40000000000072
    vertex -2923.7740984338743 903.6317266043242 2607.382746743012
    vertex -2898.374098433874 903.6317266043242 2607.382746743012
  endloop
endfacet
facet normal 0.0 0.0 1.0
  outer loop
    vertex -78.97409843387362 4523.131726604323 254.00000000000017
    vertex -637.7740984338736 4548.531726604324 254.00000000000017
    vertex -637.7740984338736 4523.131726604323 254.00000000000017
  endloop
endfacet
facet normal 0.0 0.0 1.0
  outer loop
    vertex -637.7740984338736 4548.531726604324 254.00000000000017
    vertex -78.97409843387362 4523.131726604323 254.00000000000017
    vertex -78.97409843387362 4548.531726604324 254.00000000000017
  endloop
endfacet
facet normal -1.7215824419888403e-16 -0.0 -1.0
  outer loop
    vertex 733.8259015661271 4707.281726604323 2477.207746743003
    vertex -2923.7740984338734 4548.531726604324 2477.207746743004
    vertex -2923.7740984338734 4707.281726604324 2477.207746743004
  endloop
endfacet
facet normal -1.7215824419888403e-16 -0.0 -1.0
  outer loop
    vertex -2923.7740984338734 4548.531726604324 2477.207746743004
    vertex 733.8259015661271 4707.281726604323 2477.207746743003
    vertex -2822.1740984338735 4548.531726604324 2477.207746743004
  endloop
endfacet
facet normal -1.7215824419888403e-16 -0.0 -1.0
  outer loop
    vertex -2822.1740984338735 4548.531726604324 2477.207746743004
    vertex 733.8259015661271 4707.281726604323 2477.207746743003
    vertex -2822.1740984338735 4523.131726604324 2477.207746743004
  endloop
endfacet
facet normal -1.7215824419888403e-16 -0.0 -1.0
  outer loop
    vertex -2822.1740984338735 4523.131726604324 2477.207746743004
    vertex 733.8259015661271 4707.281726604323 2477.207746743003
    vertex 632.225901566127 4548.531726604324 2477.207746743003
  endloop
endfacet
facet normal -1.7215824419888403e-16 -0.0 -1.0
  outer loop
    vertex 632.225901566127 4548.531726604324 2477.207746743003
    vertex 733.8259015661271 4707.281726604323 2477.207746743003
    vertex 733.8259015661271 4548.531726604324 2477.207746743003
  endloop
endfacet
facet normal -1.7215824419888403e-16 -0.0 -1.0
  outer loop
    vertex 632.225901566127 4523.131726604323 2477.207746743003
    vertex -2822.1740984338735 4523.131726604324 2477.207746743004
    vertex 632.225901566127 4548.531726604324 2477.207746743003
  endloop
endfacet
facet normal -1.0 2.0373985254769893e-16 6.356895869581416e-17
  outer loop
    vertex -2898.374098433874 903.6317266043242 2607.382746743012
    vertex -2898.374098433874 1259.2317266043242 2387.6000000000004
    vertex -2898.374098433874 903.6317266043242 152.40000000000072
  endloop
endfacet
facet normal -1.0 2.0373985254769893e-16 6.356895869581416e-17
  outer loop
    vertex -2898.374098433874 1259.2317266043242 2387.6000000000004
    vertex -2898.374098433874 903.6317266043242 2607.382746743012
    vertex -2898.3740984338733 2675.281726604324 3493.207746743015
  endloop
endfacet
facet normal -1.0 2.0373985254769893e-16 6.356895869581416e-17
  outer loop
    vertex -2898.374098433874 1259.2317266043242 2387.6000000000004
    vertex -2898.3740984338733 2675.281726604324 3493.207746743015
    vertex -2898.374098433874 2580.031726604324 2387.6000000000004
  endloop
endfacet
facet normal -1.0 2.0373985254769893e-16 6.356895869581416e-17
  outer loop
    vertex -2898.374098433874 2580.031726604324 2387.6000000000004
    vertex -2898.3740984338733 2675.281726604324 3493.207746743015
    vertex -2898.374098433874 2580.031726604324 1270.0000000000007
  endloop
endfacet
facet normal -1.0 2.0373985254769893e-16 6.356895869581416e-17
  outer loop
    vertex -2898.3740984338733 4446.9317266043245 2607.3827467430115
    vertex -2898.3740984338733 2770.5317266043244 2387.6000000000004
    vertex -2898.3740984338733 2675.281726604324 3493.207746743015
  endloop
endfacet
facet normal -1.0 2.0373985254769893e-16 6.356895869581416e-17
  outer loop
    vertex -2898.3740984338733 2770.5317266043244 2387.6000000000004
    vertex -2898.3740984338733 4446.9317266043245 2607.3827467430115
    vertex -2898.3740984338733 4091.3317266043246 2387.6000000000004
  endloop
endfacet
facet normal -1.0 2.0373985254769893e-16 6.356895869581416e-17
  outer loop
    vertex -2898.3740984338733 4091.3317266043246 2387.6000000000004
    vertex -2898.3740984338733 4446.9317266043245 2607.3827467430115
    vertex -2898.3740984338733 4091.3317266043246 1270.0000000000007
  endloop
endfacet
facet normal -1.0 2.0373985254769893e-16 6.356895869581416e-17
  outer loop
    vertex -2898.374098433874 903.6317266043242 152.40000000000072
    vertex -2898.374098433874 1259.2317266043242 1270.0000000000007
    vertex -2898.3740984338733 4446.9317266043245 152.40000000000066
  endloop
endfacet
facet normal -1.0 2.0373985254769893e-16 6.356895869581416e-17
  outer loop
    vertex -2898.374098433874 1259.2317266043242 1270.0000000000007
    vertex -2898.374098433874 903.6317266043242 152.40000000000072
    vertex -2898.374098433874 1259.2317266043242 2387.6000000000004
  endloop
endfacet
facet normal -1.0 2.0373985254769893e-16 6.356895869581416e-17
  outer loop
    vertex -2898.3740984338733 4446.9317266043245 152.40000000000066
    vertex -2898.374098433874 1259.2317266043242 1270.0000000000007
    vertex -2898.374098433874 2580.031726604324 1270.0000000000007
  endloop
endfacet
facet normal -1.0 2.0373985254769893e-16 6.356895869581416e-17
  outer loop
    vertex -2898.3740984338733 4446.9317266043245 152.40000000000066
    vertex -2898.374098433874 2580.031726604324 1270.0000000000007
    vertex -2898.3740984338733 2770.5317266043244 1270.0000000000007
  endloop
endfacet
facet normal -1.0 2.0373985254769893e-16 6.356895869581416e-17
  outer loop
    vertex -2898.3740984338733 2770.5317266043244 1270.0000000000007
    vertex -2898.374098433874 2580.031726604324 1270.0000000000007
    vertex -2898.3740984338733 2675.281726604324 3493.207746743015
  endloop
endfacet
facet normal -1.0 2.0373985254769893e-16 6.356895869581416e-17
  outer loop
    vertex -2898.3740984338733 2770.5317266043244 1270.0000000000007
    vertex -2898.3740984338733 2675.281726604324 3493.207746743015
    vertex -2898.3740984338733 2770.5317266043244 2387.6000000000004
  endloop
endfacet
facet normal -1.0 2.0373985254769893e-16 6.356895869581416e-17
  outer loop
    vertex -2898.3740984338733 4446.9317266043245 152.40000000000066
    vertex -2898.3740984338733 2770.5317266043244 1270.0000000000007
    vertex -2898.3740984338733 4091.3317266043246 1270.0000000000007
  endloop
endfacet
facet normal -1.0 2.0373985254769893e-16 6.356895869581416e-17
  outer loop
    vertex -2898.3740984338733 4446.9317266043245 152.40000000000066
    vertex -2898.3740984338733 4091.3317266043246 1270.0000000000007
    vertex -2898.3740984338733 4446.9317266043245 2607.3827467430115
  endloop
endfacet
facet normal -1.356004745821706e-16 -1.0 4.308899959638714e-31
  outer loop
    vertex 733.8259015661271 643.2817266043238 2590.8
    vertex -2923.774098433874 643.2817266043243 2477.207746743011
    vertex 733.8259015661256 643.2817266043238 2477.20774674301
  endloop
endfacet
facet normal -1.356004745821706e-16 -1.0 4.308899959638714e-31
  outer loop
    vertex -2923.774098433874 643.2817266043243 2477.207746743011
    vertex 733.8259015661271 643.2817266043238 2590.8
    vertex -2923.7740984338734 643.2817266043243 2590.800000000001
  endloop
endfacet
facet normal -1.345329076898719e-15 -5.921189464667503e-16 -1.0
  outer loop
    vertex 632.2259015661256 852.8317266043238 152.39999999999597
    vertex -2822.1740984338744 827.4317266043241 152.40000000000066
    vertex -2822.1740984338744 852.8317266043242 152.40000000000063
  endloop
endfacet
facet normal -1.345329076898719e-15 -5.921189464667503e-16 -1.0
  outer loop
    vertex -2822.1740984338744 827.4317266043241 152.40000000000066
    vertex 632.2259015661256 852.8317266043238 152.39999999999597
    vertex 632.2259015661256 827.4317266043238 152.399999999996
  endloop
endfacet
facet normal 1.0 -2.0973380985278464e-16 -2.2062426408131019e-16
  outer loop
    vertex 733.8259015661271 4548.531726604324 152.39999999999998
    vertex 733.8259015661271 4446.931726604324 2607.382746743011
    vertex 733.8259015661271 4446.931726604324 152.39999999999998
  endloop
endfacet
facet normal 1.0 -2.0973380985278464e-16 -2.2062426408131019e-16
  outer loop
    vertex 733.8259015661256 802.0317266043236 2477.20774674301
    vertex 733.8259015661271 643.2817266043238 2590.8
    vertex 733.8259015661256 643.2817266043238 2477.20774674301
  endloop
endfacet
facet normal 1.0 -2.0973380985278464e-16 -2.2062426408131019e-16
  outer loop
    vertex 733.8259015661271 643.2817266043238 2590.8
    vertex 733.8259015661256 802.0317266043236 2477.20774674301
    vertex 733.8259015661264 903.6317266043238 2607.3827467430106
  endloop
endfacet
facet normal 1.0 -2.0973380985278464e-16 -2.2062426408131019e-16
  outer loop
    vertex 733.8259015661271 643.2817266043238 2590.8
    vertex 733.8259015661264 903.6317266043238 2607.3827467430106
    vertex 733.8259015661271 2675.281726604323 3606.8000000000043
  endloop
endfacet
facet normal 1.0 -2.0973380985278464e-16 -2.2062426408131019e-16
  outer loop
    vertex 733.8259015661264 903.6317266043238 2607.3827467430106
    vertex 733.8259015661256 802.0317266043236 2477.20774674301
    vertex 733.8259015661256 802.0317266043237 152.39999999999998
  endloop
endfacet
facet normal 1.0 -2.0973380985278464e-16 -2.2062426408131019e-16
  outer loop
    vertex 733.8259015661264 903.6317266043238 2607.3827467430106
    vertex 733.8259015661256 802.0317266043237 152.39999999999998
    vertex 733.8259015661256 903.6317266043238 152.39999999999998
  endloop
endfacet
facet normal 1.0 -2.0973380985278464e-16 -2.2062426408131019e-16
  outer loop
    vertex 733.8259015661271 2675.281726604323 3606.8000000000043
    vertex 733.8259015661264 903.6317266043238 2607.3827467430106
    vertex 733.8259015661271 2675.2817266043235 3493.2077467430145
  endloop
endfacet
facet normal 1.0 -2.0973380985278464e-16 -2.2062426408131019e-16
  outer loop
    vertex 733.8259015661271 2675.281726604323 3606.8000000000043
    vertex 733.8259015661271 2675.2817266043235 3493.2077467430145
    vertex 733.8259015661271 4707.281726604323 2590.8
  endloop
endfacet
facet normal 1.0 -2.0973380985278464e-16 -2.2062426408131019e-16
  outer loop
    vertex 733.8259015661271 4707.281726604323 2590.8
    vertex 733.8259015661271 2675.2817266043235 3493.2077467430145
    vertex 733.8259015661271 4446.931726604324 2607.382746743011
  endloop
endfacet
facet normal 1.0 -2.0973380985278464e-16 -2.2062426408131019e-16
  outer loop
    vertex 733.8259015661271 4707.281726604323 2590.8
    vertex 733.8259015661271 4446.931726604324 2607.382746743011
    vertex 733.8259015661271 4548.531726604324 2477.207746743003
  endloop
endfacet
facet normal 1.0 -2.0973380985278464e-16 -2.2062426408131019e-16
  outer loop
    vertex 733.8259015661271 4548.531726604324 2477.207746743003
    vertex 733.8259015661271 4446.931726604324 2607.382746743011
    vertex 733.8259015661271 4548.531726604324 152.39999999999998
  endloop
endfacet
facet normal 1.0 -2.0973380985278464e-16 -2.2062426408131019e-16
  outer loop
    vertex 733.8259015661271 4707.281726604323 2590.8
    vertex 733.8259015661271 4548.531726604324 2477.207746743003
    vertex 733.8259015661271 4707.281726604323 2477.207746743003
  endloop
endfacet
facet normal 2.04926357512619e-16 1.0 2.594534202973134e-31
  outer loop
    vertex -2872.9740984338737 4497.731726604325 5.359615359481966e-13
    vertex -2822.1740984338735 4497.731726604325 152.40000000000043
    vertex 632.2259015661264 4497.731726604324 152.39999999999998
  endloop
endfacet
facet normal 2.04926357512619e-16 1.0 2.594534202973134e-31
  outer loop
    vertex -2822.1740984338735 4497.731726604325 152.40000000000043
    vertex -2872.9740984338737 4497.731726604325 5.359615359481966e-13
    vertex -2872.9740984338737 4497.731726604325 152.4000000000006
  endloop
endfacet
facet normal 2.04926357512619e-16 1.0 2.594534202973134e-31
  outer loop
    vertex -2872.9740984338737 4497.731726604325 5.359615359481966e-13
    vertex 683.0259015661271 4497.731726604324 152.39999999999998
    vertex 683.0259015661271 4497.731726604324 -1.2991939321128326e-14
  endloop
endfacet
facet normal 2.04926357512619e-16 1.0 2.594534202973134e-31
  outer loop
    vertex 683.0259015661271 4497.731726604324 152.39999999999998
    vertex -2872.9740984338737 4497.731726604325 5.359615359481966e-13
    vertex 632.2259015661264 4497.731726604324 152.39999999999998
  endloop
endfacet
facet normal -1.0 0.0 0.0
  outer loop
    vertex -78.97409843387325 4548.531726604324 1461.7828363175638
    vertex -78.97409843387325 4523.131726604323 739.8968488707245
    vertex -78.97409843387325 4523.131726604323 1461.7828363175638
  endloop
endfacet
facet normal -1.0 0.0 0.0
  outer loop
    vertex -78.97409843387325 4523.131726604323 739.8968488707245
    vertex -78.97409843387325 4548.531726604324 1461.7828363175638
    vertex -78.97409843387325 4548.531726604324 739.8968488707245
  endloop
endfacet
facet normal -1.0 0.0 0.0
  outer loop
    vertex -2923.7740984338734 2770.5317266043244 2387.6000000000004
    vertex -2923.7740984338734 2872.1317266043243 2286.0000000000005
    vertex -2923.7740984338734 2770.5317266043244 1270.0000000000007
  endloop
endfacet
facet normal -1.0 0.0 0.0
  outer loop
    vertex -2923.7740984338734 2872.1317266043243 2286.0000000000005
    vertex -2923.7740984338734 2770.5317266043244 2387.6000000000004
    vertex -2923.7740984338734 4091.3317266043246 2387.6000000000004
  endloop
endfacet
facet normal -1.0 0.0 0.0
  outer loop
    vertex -2923.7740984338734 2872.1317266043243 2286.0000000000005
    vertex -2923.7740984338734 4091.3317266043246 2387.6000000000004
    vertex -2923.7740984338734 3989.731726604324 2286.0000000000005
  endloop
endfacet
facet normal -1.0 0.0 0.0
  outer loop
    vertex -2923.7740984338734 3989.731726604324 2286.0000000000005
    vertex -2923.7740984338734 4091.3317266043246 2387.6000000000004
    vertex -2923.7740984338734 3989.731726604324 1371.6000000000006
  endloop
endfacet
facet normal -1.0 0.0 0.0
  outer loop
    vertex -2923.7740984338734 2770.5317266043244 1270.0000000000007
    vertex -2923.7740984338734 2872.1317266043243 1371.6000000000006
    vertex -2923.7740984338734 4091.3317266043246 1270.0000000000007
  endloop
endfacet
facet normal -1.0 0.0 0.0
  outer loop
    vertex -2923.7740984338734 2872.1317266043243 1371.6000000000006
    vertex -2923.7740984338734 2770.5317266043244 1270.0000000000007
    vertex -2923.7740984338734 2872.1317266043243 2286.0000000000005
  endloop
endfacet
facet normal -1.0 0.0 0.0
  outer loop
    vertex -2923.7740984338734 4091.3317266043246 1270.0000000000007
    vertex -2923.7740984338734 2872.1317266043243 1371.6000000000006
    vertex -2923.7740984338734 3989.731726604324 1371.6000000000006
  endloop
endfacet
facet normal -1.0 0.0 0.0
  outer loop
    vertex -2923.7740984338734 4091.3317266043246 1270.0000000000007
    vertex -2923.7740984338734 3989.731726604324 1371.6000000000006
    vertex -2923.7740984338734 4091.3317266043246 2387.6000000000004
  endloop
endfacet
facet normal -4.930380657631803e-33 2.220446049250311e-16 -1.0
  outer loop
    vertex 708.4259015661256 903.6317266043238 152.39999999999998
    vertex 683.0259015661256 852.8317266043238 152.39999999999992
    vertex 683.0259015661256 903.6317266043238 152.39999999999998
  endloop
endfacet
facet normal -4.930380657631803e-33 2.220446049250311e-16 -1.0
  outer loop
    vertex 683.0259015661256 852.8317266043238 152.39999999999992
    vertex 708.4259015661256 903.6317266043238 152.39999999999998
    vertex 683.0259015661256 802.0317266043237 152.39999999999998
  endloop
endfacet
facet normal -4.930380657631803e-33 2.220446049250311e-16 -1.0
  outer loop
    vertex 683.0259015661256 802.0317266043237 152.39999999999998
    vertex 708.4259015661256 903.6317266043238 152.39999999999998
    vertex 733.8259015661256 802.0317266043237 152.39999999999998
  endloop
endfacet
facet normal -4.930380657631803e-33 2.220446049250311e-16 -1.0
  outer loop
    vertex 733.8259015661256 802.0317266043237 152.39999999999998
    vertex 708.4259015661256 903.6317266043238 152.39999999999998
    vertex 733.8259015661256 903.6317266043238 152.39999999999998
  endloop
endfacet
facet normal 0.0 1.0 0.0
  outer loop
    vertex -637.7740984338736 4548.531726604324 1563.3828363175637
    vertex -840.9740984338732 4548.531726604324 1563.382836317564
    vertex -637.7740984338736 4548.531726604324 2070.807746743003
  endloop
endfacet
facet normal 0.0 1.0 0.0
  outer loop
    vertex -840.9740984338732 4548.531726604324 1563.382836317564
    vertex -637.7740984338736 4548.531726604324 1563.3828363175637
    vertex -1399.7740984338732 4548.531726604324 1563.382836317564
  endloop
endfacet
facet normal 0.0 1.0 0.0
  outer loop
    vertex -637.7740984338736 4548.531726604324 2070.807746743003
    vertex -840.9740984338732 4548.531726604324 1563.382836317564
    vertex -840.9740984338732 4548.531726604324 2070.8077467430035
  endloop
endfacet
facet normal 0.0 1.0 0.0
  outer loop
    vertex -637.7740984338736 4548.531726604324 2070.807746743003
    vertex -840.9740984338732 4548.531726604324 2070.8077467430035
    vertex -78.97409843387325 4548.531726604324 2070.807746743003
  endloop
endfacet
facet normal 0.0 1.0 0.0
  outer loop
    vertex -1501.374098433873 4548.531726604324 152.40000000000032
    vertex -1399.7740984338734 4548.531726604324 254.00000000000034
    vertex -637.7740984338736 4548.531726604324 254.00000000000017
  endloop
endfacet
facet normal 0.0 1.0 0.0
  outer loop
    vertex -1399.7740984338734 4548.531726604324 254.00000000000034
    vertex -1501.374098433873 4548.531726604324 152.40000000000032
    vertex -1501.374098433873 4548.531726604324 2172.407746743004
  endloop
endfacet
facet normal 0.0 1.0 0.0
  outer loop
    vertex -1399.7740984338734 4548.531726604324 254.00000000000034
    vertex -1501.374098433873 4548.531726604324 2172.407746743004
    vertex -1399.7740984338734 4548.531726604324 638.2968488707245
  endloop
endfacet
facet normal 0.0 1.0 0.0
  outer loop
    vertex -1399.7740984338734 4548.531726604324 638.2968488707245
    vertex -1501.374098433873 4548.531726604324 2172.407746743004
    vertex -1399.7740984338734 4548.531726604324 739.8968488707246
  endloop
endfacet
facet normal 0.0 1.0 0.0
  outer loop
    vertex -1399.7740984338734 4548.531726604324 638.2968488707245
    vertex -1399.7740984338734 4548.531726604324 739.8968488707246
    vertex -840.9740984338732 4548.531726604324 638.2968488707245
  endloop
endfacet
facet normal 0.0 1.0 0.0
  outer loop
    vertex -840.9740984338732 4548.531726604324 638.2968488707245
    vertex -1399.7740984338734 4548.531726604324 739.8968488707246
    vertex -637.7740984338736 4548.531726604324 739.8968488707245
  endloop
endfacet
facet normal 0.0 1.0 0.0
  outer loop
    vertex -1399.7740984338734 4548.531726604324 739.8968488707246
    vertex -1501.374098433873 4548.531726604324 2172.407746743004
    vertex -1399.7740984338734 4548.531726604324 1461.7828363175638
  endloop
endfacet
facet normal 0.0 1.0 0.0
  outer loop
    vertex -1399.7740984338734 4548.531726604324 1461.7828363175638
    vertex -1501.374098433873 4548.531726604324 2172.407746743004
    vertex -1399.7740984338732 4548.531726604324 1563.382836317564
  endloop
endfacet
facet normal 0.0 1.0 0.0
  outer loop
    vertex -1399.7740984338734 4548.531726604324 1461.7828363175638
    vertex -1399.7740984338732 4548.531726604324 1563.382836317564
    vertex -840.9740984338732 4548.531726604324 1461.7828363175638
  endloop
endfacet
facet normal 0.0 1.0 0.0
  outer loop
    vertex -840.9740984338732 4548.531726604324 1461.7828363175638
    vertex -1399.7740984338732 4548.531726604324 1563.382836317564
    vertex -637.7740984338736 4548.531726604324 1563.3828363175637
  endloop
endfacet
facet normal 0.0 1.0 0.0
  outer loop
    vertex -1399.7740984338732 4548.531726604324 1563.382836317564
    vertex -1501.374098433873 4548.531726604324 2172.407746743004
    vertex -1399.7740984338732 4548.531726604324 2070.8077467430035
  endloop
endfacet
facet normal 0.0 1.0 0.0
  outer loop
    vertex -1399.7740984338732 4548.531726604324 2070.8077467430035
    vertex -1501.374098433873 4548.531726604324 2172.407746743004
    vertex -840.9740984338732 4548.531726604324 2070.8077467430035
  endloop
endfacet
facet normal 0.0 1.0 0.0
  outer loop
    vertex -840.9740984338732 4548.531726604324 2070.8077467430035
    vertex -1501.374098433873 4548.531726604324 2172.407746743004
    vertex 22.62590156612674 4548.531726604324 2172.4077467430034
  endloop
endfacet
facet normal 0.0 1.0 0.0
  outer loop
    vertex 22.625901566126377 4548.531726604324 152.4000000000001
    vertex -78.97409843387362 4548.531726604324 254.00000000000017
    vertex 22.62590156612674 4548.531726604324 2172.4077467430034
  endloop
endfacet
facet normal 0.0 1.0 0.0
  outer loop
    vertex -78.97409843387362 4548.531726604324 254.00000000000017
    vertex 22.625901566126377 4548.531726604324 152.4000000000001
    vertex -1501.374098433873 4548.531726604324 152.40000000000032
  endloop
endfacet
facet normal 0.0 1.0 0.0
  outer loop
    vertex -78.97409843387362 4548.531726604324 254.00000000000017
    vertex -1501.374098433873 4548.531726604324 152.40000000000032
    vertex -637.7740984338736 4548.531726604324 254.00000000000017
  endloop
endfacet
facet normal 0.0 1.0 0.0
  outer loop
    vertex 22.62590156612674 4548.531726604324 2172.4077467430034
    vertex -78.97409843387362 4548.531726604324 254.00000000000017
    vertex -78.97409843387362 4548.531726604324 638.2968488707245
  endloop
endfacet
facet normal 0.0 1.0 0.0
  outer loop
    vertex 22.62590156612674 4548.531726604324 2172.4077467430034
    vertex -78.97409843387362 4548.531726604324 638.2968488707245
    vertex -78.97409843387325 4548.531726604324 739.8968488707245
  endloop
endfacet
facet normal 0.0 1.0 0.0
  outer loop
    vertex -78.97409843387325 4548.531726604324 739.8968488707245
    vertex -78.97409843387362 4548.531726604324 638.2968488707245
    vertex -840.9740984338732 4548.531726604324 638.2968488707245
  endloop
endfacet
facet normal 0.0 1.0 0.0
  outer loop
    vertex -78.97409843387325 4548.531726604324 739.8968488707245
    vertex -840.9740984338732 4548.531726604324 638.2968488707245
    vertex -637.7740984338736 4548.531726604324 739.8968488707245
  endloop
endfacet
facet normal 0.0 1.0 0.0
  outer loop
    vertex 22.62590156612674 4548.531726604324 2172.4077467430034
    vertex -78.97409843387325 4548.531726604324 739.8968488707245
    vertex -78.97409843387325 4548.531726604324 1461.7828363175638
  endloop
endfacet
facet normal 0.0 1.0 0.0
  outer loop
    vertex 22.62590156612674 4548.531726604324 2172.4077467430034
    vertex -78.97409843387325 4548.531726604324 1461.7828363175638
    vertex -78.97409843387325 4548.531726604324 1563.3828363175637
  endloop
endfacet
facet normal 0.0 1.0 0.0
  outer loop
    vertex -78.97409843387325 4548.531726604324 1563.3828363175637
    vertex -78.97409843387325 4548.531726604324 1461.7828363175638
    vertex -840.9740984338732 4548.531726604324 1461.7828363175638
  endloop
endfacet
facet normal 0.0 1.0 0.0
  outer loop
    vertex -78.97409843387325 4548.531726604324 1563.3828363175637
    vertex -840.9740984338732 4548.531726604324 1461.7828363175638
    vertex -637.7740984338736 4548.531726604324 1563.3828363175637
  endloop
endfacet
facet normal 0.0 1.0 0.0
  outer loop
    vertex 22.62590156612674 4548.531726604324 2172.4077467430034
    vertex -78.97409843387325 4548.531726604324 1563.3828363175637
    vertex -78.97409843387325 4548.531726604324 2070.807746743003
  endloop
endfacet
facet normal 0.0 1.0 0.0
  outer loop
    vertex 22.62590156612674 4548.531726604324 2172.4077467430034
    vertex -78.97409843387325 4548.531726604324 2070.807746743003
    vertex -840.9740984338732 4548.531726604324 2070.8077467430035
  endloop
endfacet
facet normal 0.0 1.0 0.0
  outer loop
    vertex -637.7740984338736 4548.531726604324 739.8968488707245
    vertex -840.9740984338732 4548.531726604324 739.8968488707246
    vertex -637.7740984338736 4548.531726604324 1461.7828363175638
  endloop
endfacet
facet normal 0.0 1.0 0.0
  outer loop
    vertex -840.9740984338732 4548.531726604324 739.8968488707246
    vertex -637.7740984338736 4548.531726604324 739.8968488707245
    vertex -1399.7740984338734 4548.531726604324 739.8968488707246
  endloop
endfacet
facet normal 0.0 1.0 0.0
  outer loop
    vertex -637.7740984338736 4548.531726604324 1461.7828363175638
    vertex -840.9740984338732 4548.531726604324 739.8968488707246
    vertex -840.9740984338732 4548.531726604324 1461.7828363175638
  endloop
endfacet
facet normal 0.0 1.0 0.0
  outer loop
    vertex -637.7740984338736 4548.531726604324 1461.7828363175638
    vertex -840.9740984338732 4548.531726604324 1461.7828363175638
    vertex -78.97409843387325 4548.531726604324 1461.7828363175638
  endloop
endfacet
facet normal 0.0 1.0 0.0
  outer loop
    vertex -637.7740984338736 4548.531726604324 254.00000000000017
    vertex -840.9740984338732 4548.531726604324 254.00000000000034
    vertex -637.7740984338736 4548.531726604324 638.2968488707245
  endloop
endfacet
facet normal 0.0 1.0 0.0
  outer loop
    vertex -840.9740984338732 4548.531726604324 254.00000000000034
    vertex -637.7740984338736 4548.531726604324 254.00000000000017
    vertex -1399.7740984338734 4548.531726604324 254.00000000000034
  endloop
endfacet
facet normal 0.0 1.0 0.0
  outer loop
    vertex -637.7740984338736 4548.531726604324 638.2968488707245
    vertex -840.9740984338732 4548.531726604324 254.00000000000034
    vertex -840.9740984338732 4548.531726604324 638.2968488707245
  endloop
endfacet
facet normal 0.0 1.0 0.0
  outer loop
    vertex -637.7740984338736 4548.531726604324 638.2968488707245
    vertex -840.9740984338732 4548.531726604324 638.2968488707245
    vertex -78.97409843387362 4548.531726604324 638.2968488707245
  endloop
endfacet
facet normal -1.0 -0.0 -0.0
  outer loop
    vertex -2771.3740984338733 3989.731726604324 2286.0000000000005
    vertex -2771.3740984338733 2872.1317266043243 1828.8000000000006
    vertex -2771.3740984338733 2872.1317266043243 2286.0000000000005
  endloop
endfacet
facet normal -1.0 -0.0 -0.0
  outer loop
    vertex -2771.3740984338733 2872.1317266043243 1828.8000000000006
    vertex -2771.3740984338733 3989.731726604324 2286.0000000000005
    vertex -2771.3740984338733 3989.731726604324 1828.8000000000006
  endloop
endfacet
facet normal -1.0 -0.0 -0.0
  outer loop
    vertex -2720.5740984338736 3989.731726604324 1828.8000000000006
    vertex -2720.5740984338736 2872.1317266043243 1371.6000000000006
    vertex -2720.5740984338736 2872.1317266043243 1828.8000000000006
  endloop
endfacet
facet normal -1.0 -0.0 -0.0
  outer loop
    vertex -2720.5740984338736 2872.1317266043243 1371.6000000000006
    vertex -2720.5740984338736 3989.731726604324 1828.8000000000006
    vertex -2720.5740984338736 3989.731726604324 1371.6000000000006
  endloop
endfacet
endsolid shed
