solid shed
facet normal 1.0 0.0 0.0
  outer loop
    vertex -1755.374098433873 4574.9905891043245 1563.382836317564
    vertex -1755.374098433873 4553.824007104324 2070.8077467430035
    vertex -1755.374098433873 4553.824007104324 1563.382836317564
  endloop
endfacet
facet normal 1.0 0.0 0.0
  outer loop
    vertex -1755.374098433873 4553.824007104324 2070.8077467430035
    vertex -1755.374098433873 4574.9905891043245 1563.382836317564
    vertex -1755.374098433873 4574.9905891043245 2070.8077467430035
  endloop
endfacet
facet normal -1.0884495918951552e-16 -1.0 -3.234624691448308e-17
  outer loop
    vertex 632.2259015661256 1474.086326104324 2477.207746743011
    vertex -2822.1740984338744 1474.0863261043241 152.40000000000066
    vertex 632.2259015661256 1474.0863261043241 152.399999999996
  endloop
endfacet
facet normal -1.0884495918951552e-16 -1.0 -3.234624691448308e-17
  outer loop
    vertex -2822.1740984338744 1474.0863261043241 152.40000000000066
    vertex 632.2259015661256 1474.086326104324 2477.207746743011
    vertex -2822.1740984338744 1474.0863261043241 2477.207746743011
  endloop
endfacet
facet normal 0.0 1.0 0.0
  outer loop
    vertex -2923.7740984338743 1537.5860721043246 2607.382746743012
    vertex -2898.374098433874 1537.5860721043246 152.40000000000072
    vertex -2923.7740984338743 1537.5860721043246 152.40000000000072
  endloop
endfacet
facet normal 0.0 1.0 0.0
  outer loop
    vertex -2898.374098433874 1537.5860721043246 152.40000000000072
    vertex -2923.7740984338743 1537.5860721043246 2607.382746743012
    vertex -2898.374098433874 1537.5860721043246 2607.382746743012
  endloop
endfacet
facet normal 7.793765632868639e-14 -5.329091834568108e-16 -1.0
  outer loop
    vertex 683.0259015661256 1495.2529081043238 152.39999999999992
    vertex 632.2259015661256 1474.0863261043241 152.399999999996
    vertex 632.2259015661256 1495.2529081043238 152.39999999999597
  endloop
endfacet
facet normal 7.793765632868639e-14 -5.329091834568108e-16 -1.0
  outer loop
    vertex 632.2259015661256 1474.0863261043241 152.399999999996
    vertex 683.0259015661256 1495.2529081043238 152.39999999999992
    vertex 632.2259015661256 1452.919744104324 152.399999999996
  endloop
endfacet
facet normal 7.793765632868639e-14 -5.329091834568108e-16 -1.0
  outer loop
    vertex 632.2259015661256 1452.919744104324 152.399999999996
    vertex 683.0259015661256 1495.2529081043238 152.39999999999992
    vertex 683.0259015661256 1452.9197441043239 152.39999999999998
  endloop
endfacet
facet normal -3.1086244689504162e-15 0.0 -1.0
  outer loop
    vertex -2822.1740984338735 4574.9905891043245 152.40000000000043
    vertex -2872.9740984338737 4532.657425104325 152.4000000000006
    vertex -2872.9740984338737 4574.9905891043245 152.4000000000006
  endloop
endfacet
facet normal -3.1086244689504162e-15 0.0 -1.0
  outer loop
    vertex -2872.9740984338737 4532.657425104325 152.4000000000006
    vertex -2822.1740984338735 4574.9905891043245 152.40000000000043
    vertex -2822.1740984338735 4532.657425104325 152.40000000000043
  endloop
endfacet
facet normal -3.1086244689504162e-15 0.0 -1.0
  outer loop
    vertex -2822.1740984338735 4532.657425104325 152.40000000000043
    vertex -2822.1740984338735 4574.9905891043245 152.40000000000043
    vertex -2822.1740984338735 4553.824007104325 152.40000000000043
  endloop
endfacet
facet normal -1.0 0.0 0.0
  outer loop
    vertex -2923.7740984338734 3194.9298491043246 2387.6000000000004
    vertex -2923.7740984338734 3279.5961771043244 2286.0000000000005
    vertex -2923.7740984338734 3194.9298491043246 1270.0000000000007
  endloop
endfacet
facet normal -1.0 0.0 0.0
  outer loop
    vertex -2923.7740984338734 3279.5961771043244 2286.0000000000005
    vertex -2923.7740984338734 3194.9298491043246 2387.6000000000004
    vertex -2923.7740984338734 4193.992113104325 2387.6000000000004
  endloop
endfacet
facet normal -1.0 0.0 0.0
  outer loop
    vertex -2923.7740984338734 3279.5961771043244 2286.0000000000005
    vertex -2923.7740984338734 4193.992113104325 2387.6000000000004
    vertex -2923.7740984338734 4109.3257851043245 2286.0000000000005
  endloop
endfacet
facet normal -1.0 0.0 0.0
  outer loop
    vertex -2923.7740984338734 4109.3257851043245 2286.0000000000005
    vertex -2923.7740984338734 4193.992113104325 2387.6000000000004
    vertex -2923.7740984338734 4109.3257851043245 1371.6000000000006
  endloop
endfacet
facet normal -1.0 0.0 0.0
  outer loop
    vertex -2923.7740984338734 3194.9298491043246 1270.0000000000007
    vertex -2923.7740984338734 3279.5961771043244 1371.6000000000006
    vertex -2923.7740984338734 4193.992113104325 1270.0000000000007
  endloop
endfacet
facet normal -1.0 0.0 0.0
  outer loop
    vertex -2923.7740984338734 3279.5961771043244 1371.6000000000006
    vertex -2923.7740984338734 3194.9298491043246 1270.0000000000007
    vertex -2923.7740984338734 3279.5961771043244 2286.0000000000005
  endloop
endfacet
facet normal -1.0 0.0 0.0
  outer loop
    vertex -2923.7740984338734 4193.992113104325 1270.0000000000007
    vertex -2923.7740984338734 3279.5961771043244 1371.6000000000006
    vertex -2923.7740984338734 4109.3257851043245 1371.6000000000006
  endloop
endfacet
facet normal -1.0 0.0 0.0
  outer loop
    vertex -2923.7740984338734 4193.992113104325 1270.0000000000007
    vertex -2923.7740984338734 4109.3257851043245 1371.6000000000006
    vertex -2923.7740984338734 4193.992113104325 2387.6000000000004
  endloop
endfacet
facet normal 0.0 0.0 1.0
  outer loop
    vertex -2771.3740984338733 3279.5961771043244 1371.6000000000006
    vertex -2923.7740984338734 4109.3257851043245 1371.6000000000006
    vertex -2923.7740984338734 3279.5961771043244 1371.6000000000006
  endloop
endfacet
facet normal 0.0 0.0 1.0
  outer loop
    vertex -2923.7740984338734 4109.3257851043245 1371.6000000000006
    vertex -2771.3740984338733 3279.5961771043244 1371.6000000000006
    vertex -2771.3740984338733 4109.3257851043245 1371.6000000000006
  endloop
endfacet
facet normal 2.9605947323337506e-16 -1.4476645127840655e-31 -1.0
  outer loop
    vertex 683.0259015661271 4490.324261104324 152.39999999999998
    vertex 708.4259015661256 1537.5860721043236 152.39999999999998
    vertex 683.0259015661256 1537.5860721043236 152.39999999999998
  endloop
endfacet
facet normal 2.9605947323337506e-16 -1.4476645127840655e-31 -1.0
  outer loop
    vertex 708.4259015661256 1537.5860721043236 152.39999999999998
    vertex 683.0259015661271 4490.324261104324 152.39999999999998
    vertex 708.4259015661271 4490.324261104324 152.39999999999998
  endloop
endfacet
facet normal 0.0 0.0 -1.0
  outer loop
    vertex -2771.3740984338733 4109.3257851043245 1828.8000000000006
    vertex -2822.1740984338735 3279.5961771043244 1828.8000000000006
    vertex -2822.1740984338735 4109.3257851043245 1828.8000000000006
  endloop
endfacet
facet normal 0.0 0.0 -1.0
  outer loop
    vertex -2822.1740984338735 3279.5961771043244 1828.8000000000006
    vertex -2771.3740984338733 4109.3257851043245 1828.8000000000006
    vertex -2771.3740984338733 3279.5961771043244 1828.8000000000006
  endloop
endfacet
facet normal 0.0 0.0 -1.0
  outer loop
    vertex -2872.9740984338737 4574.9905891043245 152.4000000000006
    vertex -2923.7740984338734 4490.324261104324 152.40000000000066
    vertex -2923.7740984338734 4574.9905891043245 152.40000000000066
  endloop
endfacet
facet normal 0.0 0.0 -1.0
  outer loop
    vertex -2923.7740984338734 4490.324261104324 152.40000000000066
    vertex -2872.9740984338737 4574.9905891043245 152.4000000000006
    vertex -2898.3740984338733 4490.324261104324 152.40000000000066
  endloop
endfacet
facet normal 0.0 0.0 -1.0
  outer loop
    vertex -2898.3740984338733 4490.324261104324 152.40000000000066
    vertex -2872.9740984338737 4574.9905891043245 152.4000000000006
    vertex -2872.9740984338737 4532.657425104325 152.4000000000006
  endloop
endfacet
facet normal 0.0 0.0 -1.0
  outer loop
    vertex -2898.3740984338733 4490.324261104324 152.40000000000066
    vertex -2872.9740984338737 4532.657425104325 152.4000000000006
    vertex -2872.9740984338737 4490.324261104324 152.4000000000006
  endloop
endfacet
facet normal 0.0 0.0 -1.0
  outer loop
    vertex -2822.1740984338735 4109.3257851043245 2286.0000000000005
    vertex -2923.7740984338734 3279.5961771043244 2286.0000000000005
    vertex -2923.7740984338734 4109.3257851043245 2286.0000000000005
  endloop
endfacet
facet normal 0.0 0.0 -1.0
  outer loop
    vertex -2923.7740984338734 3279.5961771043244 2286.0000000000005
    vertex -2822.1740984338735 4109.3257851043245 2286.0000000000005
    vertex -2822.1740984338735 3279.5961771043244 2286.0000000000005
  endloop
endfacet
facet normal 0.0 0.0 -1.0
  outer loop
    vertex -2872.974098433874 1537.5860721043246 152.40000000000066
    vertex -2872.9740984338746 1495.2529081043244 152.4000000000006
    vertex -2898.374098433874 1537.5860721043246 152.40000000000072
  endloop
endfacet
facet normal 0.0 0.0 -1.0
  outer loop
    vertex -2898.374098433874 1537.5860721043246 152.40000000000072
    vertex -2923.7740984338743 1452.919744104324 152.40000000000072
    vertex -2923.7740984338743 1537.5860721043246 152.40000000000072
  endloop
endfacet
facet normal 0.0 0.0 -1.0
  outer loop
    vertex -2923.7740984338743 1452.919744104324 152.40000000000072
    vertex -2898.374098433874 1537.5860721043246 152.40000000000072
    vertex -2872.9740984338746 1452.919744104324 152.40000000000066
  endloop
endfacet
facet normal 0.0 0.0 -1.0
  outer loop
    vertex -2872.9740984338746 1452.919744104324 152.40000000000066
    vertex -2898.374098433874 1537.5860721043246 152.40000000000072
    vertex -2872.9740984338746 1495.2529081043244 152.4000000000006
  endloop
endfacet
facet normal -1.0 0.0 0.0
  outer loop
    vertex -1145.7740984338732 4574.9905891043245 2070.8077467430035
    vertex -1145.7740984338732 4553.824007104324 1563.382836317564
    vertex -1145.7740984338732 4553.824007104324 2070.8077467430035
  endloop
endfacet
facet normal -1.0 0.0 0.0
  outer loop
    vertex -1145.7740984338732 4553.824007104324 1563.382836317564
    vertex -1145.7740984338732 4574.9905891043245 2070.8077467430035
    vertex -1145.7740984338732 4574.9905891043245 1563.382836317564
  endloop
endfacet
facet normal 0.0 1.0 0.0
  outer loop
    vertex 632.225901566127 4574.9905891043245 2477.207746743003
    vertex 683.0259015661271 4574.9905891043245 152.39999999999998
    vertex 632.2259015661264 4574.9905891043245 152.39999999999998
  endloop
endfacet
facet normal 0.0 1.0 0.0
  outer loop
    vertex 683.0259015661271 4574.9905891043245 152.39999999999998
    vertex 632.225901566127 4574.9905891043245 2477.207746743003
    vertex 733.8259015661271 4574.9905891043245 152.39999999999998
  endloop
endfacet
facet normal 0.0 1.0 0.0
  outer loop
    vertex 733.8259015661271 4574.9905891043245 152.39999999999998
    vertex 632.225901566127 4574.9905891043245 2477.207746743003
    vertex 733.8259015661271 4574.9905891043245 2477.207746743003
  endloop
endfacet
facet normal -1.0 7.812987813430947e-31 1.5526260623994346e-16
  outer loop
    vertex 632.2259015661256 1474.086326104324 2477.207746743011
    vertex 632.2259015661256 1452.919744104324 152.399999999996
    vertex 632.2259015661256 1452.9197441043239 2477.207746743011
  endloop
endfacet
facet normal -1.0 7.812987813430947e-31 1.5526260623994346e-16
  outer loop
    vertex 632.2259015661256 1452.919744104324 152.399999999996
    vertex 632.2259015661256 1474.086326104324 2477.207746743011
    vertex 632.2259015661256 1474.0863261043241 152.399999999996
  endloop
endfacet
facet normal 1.0 -3.390634829288554e-16 -1.699862088693048e-16
  outer loop
    vertex 733.8259015661256 1537.5860721043236 152.39999999999998
    vertex 733.8259015661256 1452.9197441043239 2477.20774674301
    vertex 733.8259015661256 1452.9197441043239 152.39999999999998
  endloop
endfacet
facet normal 1.0 -3.390634829288554e-16 -1.699862088693048e-16
  outer loop
    vertex 733.8259015661271 4574.9905891043245 152.39999999999998
    vertex 733.8259015661271 4490.324261104324 2607.382746743011
    vertex 733.8259015661271 4490.324261104324 152.39999999999998
  endloop
endfacet
facet normal 1.0 -3.390634829288554e-16 -1.699862088693048e-16
  outer loop
    vertex 733.8259015661256 1452.9197441043239 2477.20774674301
    vertex 733.8259015661271 1320.628606604324 2590.8
    vertex 733.8259015661256 1320.628606604324 2477.20774674301
  endloop
endfacet
facet normal 1.0 -3.390634829288554e-16 -1.699862088693048e-16
  outer loop
    vertex 733.8259015661271 1320.628606604324 2590.8
    vertex 733.8259015661256 1452.9197441043239 2477.20774674301
    vertex 733.8259015661264 1537.5860721043236 2607.3827467430106
  endloop
endfacet
facet normal 1.0 -3.390634829288554e-16 -1.699862088693048e-16
  outer loop
    vertex 733.8259015661271 1320.628606604324 2590.8
    vertex 733.8259015661264 1537.5860721043236 2607.3827467430106
    vertex 733.8259015661271 3013.9551666043235 3454.400000000004
  endloop
endfacet
facet normal 1.0 -3.390634829288554e-16 -1.699862088693048e-16
  outer loop
    vertex 733.8259015661264 1537.5860721043236 2607.3827467430106
    vertex 733.8259015661256 1452.9197441043239 2477.20774674301
    vertex 733.8259015661256 1537.5860721043236 152.39999999999998
  endloop
endfacet
facet normal 1.0 -3.390634829288554e-16 -1.699862088693048e-16
  outer loop
    vertex 733.8259015661271 3013.9551666043235 3454.400000000004
    vertex 733.8259015661264 1537.5860721043236 2607.3827467430106
    vertex 733.8259015661271 3013.955166604324 3340.8077467430144
  endloop
endfacet
facet normal 1.0 -3.390634829288554e-16 -1.699862088693048e-16
  outer loop
    vertex 733.8259015661271 3013.9551666043235 3454.400000000004
    vertex 733.8259015661271 3013.955166604324 3340.8077467430144
    vertex 733.8259015661271 4707.281726604324 2590.8
  endloop
endfacet
facet normal 1.0 -3.390634829288554e-16 -1.699862088693048e-16
  outer loop
    vertex 733.8259015661271 4707.281726604324 2590.8
    vertex 733.8259015661271 3013.955166604324 3340.8077467430144
    vertex 733.8259015661271 4490.324261104324 2607.382746743011
  endloop
endfacet
facet normal 1.0 -3.390634829288554e-16 -1.699862088693048e-16
  outer loop
    vertex 733.8259015661271 4707.281726604324 2590.8
    vertex 733.8259015661271 4490.324261104324 2607.382746743011
    vertex 733.8259015661271 4574.9905891043245 2477.207746743003
  endloop
endfacet
facet normal 1.0 -3.390634829288554e-16 -1.699862088693048e-16
  outer loop
    vertex 733.8259015661271 4574.9905891043245 2477.207746743003
    vertex 733.8259015661271 4490.324261104324 2607.382746743011
    vertex 733.8259015661271 4574.9905891043245 152.39999999999998
  endloop
endfacet
facet normal 1.0 -3.390634829288554e-16 -1.699862088693048e-16
  outer loop
    vertex 733.8259015661271 4707.281726604324 2590.8
    vertex 733.8259015661271 4574.9905891043245 2477.207746743003
    vertex 733.8259015661271 4707.281726604324 2477.207746743003
  endloop
endfacet
facet normal -1.5437386818597431e-16 9.903074257037068e-18 -1.0
  outer loop
    vertex -2872.9740984338737 4532.657425104325 5.359615359481966e-13
    vertex 683.0259015661256 1495.2529081043238 -4.307158180163894e-14
    vertex -2872.974098433875 1495.2529081043244 5.05881893467686e-13
  endloop
endfacet
facet normal -1.5437386818597431e-16 9.903074257037068e-18 -1.0
  outer loop
    vertex 683.0259015661256 1495.2529081043238 -4.307158180163894e-14
    vertex -2872.9740984338737 4532.657425104325 5.359615359481966e-13
    vertex 683.0259015661271 4532.657425104324 -1.2991939321128326e-14
  endloop
endfacet
facet normal 1.0 -3.6673320151866424e-16 -1.9064997669179162e-16
  outer loop
    vertex 708.4259015661271 4490.324261104324 152.39999999999998
    vertex 708.4259015661263 1537.5860721043236 2607.3827467430106
    vertex 708.4259015661256 1537.5860721043236 152.39999999999998
  endloop
endfacet
facet normal 1.0 -3.6673320151866424e-16 -1.9064997669179162e-16
  outer loop
    vertex 708.4259015661263 1537.5860721043236 2607.3827467430106
    vertex 708.4259015661271 4490.324261104324 152.39999999999998
    vertex 708.4259015661271 3013.955166604324 3340.8077467430144
  endloop
endfacet
facet normal 1.0 -3.6673320151866424e-16 -1.9064997669179162e-16
  outer loop
    vertex 708.4259015661271 3013.955166604324 3340.8077467430144
    vertex 708.4259015661271 4490.324261104324 152.39999999999998
    vertex 708.4259015661271 4490.324261104324 2607.382746743011
  endloop
endfacet
facet normal 0.0 -0.4449023561985025 -0.8955790827442436
  outer loop
    vertex 733.8259015661271 4490.324261104324 2607.382746743011
    vertex 708.4259015661271 3013.955166604324 3340.8077467430144
    vertex 708.4259015661271 4490.324261104324 2607.382746743011
  endloop
endfacet
facet normal 0.0 -0.4449023561985025 -0.8955790827442436
  outer loop
    vertex 708.4259015661271 3013.955166604324 3340.8077467430144
    vertex 733.8259015661271 4490.324261104324 2607.382746743011
    vertex 733.8259015661271 3013.955166604324 3340.8077467430144
  endloop
endfacet
facet normal 0.0 1.0 0.0
  outer loop
    vertex -1755.374098433873 4553.824007104324 2070.8077467430035
    vertex -1145.7740984338732 4553.824007104324 1563.382836317564
    vertex -1755.374098433873 4553.824007104324 1563.382836317564
  endloop
endfacet
facet normal 0.0 1.0 0.0
  outer loop
    vertex -1145.7740984338732 4553.824007104324 1563.382836317564
    vertex -1755.374098433873 4553.824007104324 2070.8077467430035
    vertex -1145.7740984338732 4553.824007104324 2070.8077467430035
  endloop
endfacet
facet normal 1.707712815059908e-16 1.0 2.1621031873636015e-31
  outer loop
    vertex -2872.9740984338737 4532.657425104325 5.359615359481966e-13
    vertex -2822.1740984338735 4532.657425104325 152.40000000000043
    vertex 632.2259015661264 4532.657425104324 152.39999999999998
  endloop
endfacet
facet normal 1.707712815059908e-16 1.0 2.1621031873636015e-31
  outer loop
    vertex -2822.1740984338735 4532.657425104325 152.40000000000043
    vertex -2872.9740984338737 4532.657425104325 5.359615359481966e-13
    vertex -2872.9740984338737 4532.657425104325 152.4000000000006
  endloop
endfacet
facet normal 1.707712815059908e-16 1.0 2.1621031873636015e-31
  outer loop
    vertex -2872.9740984338737 4532.657425104325 5.359615359481966e-13
    vertex 683.0259015661271 4532.657425104324 152.39999999999998
    vertex 683.0259015661271 4532.657425104324 -1.2991939321128326e-14
  endloop
endfacet
facet normal 1.707712815059908e-16 1.0 2.1621031873636015e-31
  outer loop
    vertex 683.0259015661271 4532.657425104324 152.39999999999998
    vertex -2872.9740984338737 4532.657425104325 5.359615359481966e-13
    vertex 632.2259015661264 4532.657425104324 152.39999999999998
  endloop
endfacet
facet normal -1.1299994348356023e-16 -1.0 3.59073560336573e-31
  outer loop
    vertex 733.8259015661271 1320.628606604324 2590.8
    vertex -2923.774098433874 1320.6286066043244 2477.207746743011
    vertex 733.8259015661256 1320.628606604324 2477.20774674301
  endloop
endfacet
facet normal -1.1299994348356023e-16 -1.0 3.59073560336573e-31
  outer loop
    vertex -2923.774098433874 1320.6286066043244 2477.207746743011
    vertex 733.8259015661271 1320.628606604324 2590.8
    vertex -2923.7740984338734 1320.6286066043244 2590.800000000001
  endloop
endfacet
facet normal 0.0 0.0 1.0
  outer loop
    vertex -2898.3740984338733 3194.9298491043246 2387.6000000000004
    vertex -2923.7740984338734 4193.992113104325 2387.6000000000004
    vertex -2923.7740984338734 3194.9298491043246 2387.6000000000004
  endloop
endfacet
facet normal 0.0 0.0 1.0
  outer loop
    vertex -2923.7740984338734 4193.992113104325 2387.6000000000004
    vertex -2898.3740984338733 3194.9298491043246 2387.6000000000004
    vertex -2898.3740984338733 4193.992113104325 2387.6000000000004
  endloop
endfacet
facet normal 1.2600893965632345e-16 -0.454327524990562 0.8908347209420783
  outer loop
    vertex 733.8259015661271 1320.628606604324 2590.8
    vertex -2923.7740984338734 3013.955166604324 3454.4000000000046
    vertex -2923.7740984338734 1320.6286066043244 2590.800000000001
  endloop
endfacet
facet normal 1.2600893965632345e-16 -0.454327524990562 0.8908347209420783
  outer loop
    vertex -2923.7740984338734 3013.955166604324 3454.4000000000046
    vertex 733.8259015661271 1320.628606604324 2590.8
    vertex 733.8259015661271 3013.9551666043235 3454.400000000004
  endloop
endfacet
facet normal -1.0 0.0 0.0
  outer loop
    vertex -434.5740984338736 4574.9905891043245 638.2968488707245
    vertex -434.5740984338736 4553.824007104324 254.00000000000017
    vertex -434.5740984338736 4553.824007104324 638.2968488707245
  endloop
endfacet
facet normal -1.0 0.0 0.0
  outer loop
    vertex -434.5740984338736 4553.824007104324 254.00000000000017
    vertex -434.5740984338736 4574.9905891043245 638.2968488707245
    vertex -434.5740984338736 4574.9905891043245 254.00000000000017
  endloop
endfacet
facet normal 1.0 0.0 0.0
  outer loop
    vertex -993.3740984338735 4574.9905891043245 254.00000000000017
    vertex -993.3740984338735 4553.824007104324 638.2968488707245
    vertex -993.3740984338735 4553.824007104324 254.00000000000017
  endloop
endfacet
facet normal 1.0 0.0 0.0
  outer loop
    vertex -993.3740984338735 4553.824007104324 638.2968488707245
    vertex -993.3740984338735 4574.9905891043245 254.00000000000017
    vertex -993.3740984338735 4574.9905891043245 638.2968488707245
  endloop
endfacet
facet normal -1.0 2.4448880101244275e-16 6.220337010580715e-17
  outer loop
    vertex -2898.374098433874 1537.5860721043246 2607.382746743012
    vertex -2898.374098433874 1833.9182201043243 2387.6000000000004
    vertex -2898.374098433874 1537.5860721043246 152.40000000000072
  endloop
endfacet
facet normal -1.0 2.4448880101244275e-16 6.220337010580715e-17
  outer loop
    vertex -2898.374098433874 1833.9182201043243 2387.6000000000004
    vertex -2898.374098433874 1537.5860721043246 2607.382746743012
    vertex -2898.3740984338733 3013.955166604324 3340.807746743015
  endloop
endfacet
facet normal -1.0 2.4448880101244275e-16 6.220337010580715e-17
  outer loop
    vertex -2898.374098433874 1833.9182201043243 2387.6000000000004
    vertex -2898.3740984338733 3013.955166604324 3340.807746743015
    vertex -2898.374098433874 2832.980484104324 2387.6000000000004
  endloop
endfacet
facet normal -1.0 2.4448880101244275e-16 6.220337010580715e-17
  outer loop
    vertex -2898.374098433874 2832.980484104324 2387.6000000000004
    vertex -2898.3740984338733 3013.955166604324 3340.807746743015
    vertex -2898.374098433874 2832.980484104324 1270.0000000000007
  endloop
endfacet
facet normal -1.0 2.4448880101244275e-16 6.220337010580715e-17
  outer loop
    vertex -2898.3740984338733 4490.324261104324 2607.3827467430115
    vertex -2898.3740984338733 3194.9298491043246 2387.6000000000004
    vertex -2898.3740984338733 3013.955166604324 3340.807746743015
  endloop
endfacet
facet normal -1.0 2.4448880101244275e-16 6.220337010580715e-17
  outer loop
    vertex -2898.3740984338733 3194.9298491043246 2387.6000000000004
    vertex -2898.3740984338733 4490.324261104324 2607.3827467430115
    vertex -2898.3740984338733 4193.992113104325 2387.6000000000004
  endloop
endfacet
facet normal -1.0 2.4448880101244275e-16 6.220337010580715e-17
  outer loop
    vertex -2898.3740984338733 4193.992113104325 2387.6000000000004
    vertex -2898.3740984338733 4490.324261104324 2607.3827467430115
    vertex -2898.3740984338733 4193.992113104325 1270.0000000000007
  endloop
endfacet
facet normal -1.0 2.4448880101244275e-16 6.220337010580715e-17
  outer loop
    vertex -2898.374098433874 1537.5860721043246 152.40000000000072
    vertex -2898.374098433874 1833.9182201043243 1270.0000000000007
    vertex -2898.3740984338733 4490.324261104324 152.40000000000066
  endloop
endfacet
facet normal -1.0 2.4448880101244275e-16 6.220337010580715e-17
  outer loop
    vertex -2898.374098433874 1833.9182201043243 1270.0000000000007
    vertex -2898.374098433874 1537.5860721043246 152.40000000000072
    vertex -2898.374098433874 1833.9182201043243 2387.6000000000004
  endloop
endfacet
facet normal -1.0 2.4448880101244275e-16 6.220337010580715e-17
  outer loop
    vertex -2898.3740984338733 4490.324261104324 152.40000000000066
    vertex -2898.374098433874 1833.9182201043243 1270.0000000000007
    vertex -2898.374098433874 2832.980484104324 1270.0000000000007
  endloop
endfacet
facet normal -1.0 2.4448880101244275e-16 6.220337010580715e-17
  outer loop
    vertex -2898.3740984338733 4490.324261104324 152.40000000000066
    vertex -2898.374098433874 2832.980484104324 1270.0000000000007
    vertex -2898.3740984338733 3194.9298491043246 1270.0000000000007
  endloop
endfacet
facet normal -1.0 2.4448880101244275e-16 6.220337010580715e-17
  outer loop
    vertex -2898.3740984338733 3194.9298491043246 1270.0000000000007
    vertex -2898.374098433874 2832.980484104324 1270.0000000000007
    vertex -2898.3740984338733 3013.955166604324 3340.807746743015
  endloop
endfacet
facet normal -1.0 2.4448880101244275e-16 6.220337010580715e-17
  outer loop
    vertex -2898.3740984338733 3194.9298491043246 1270.0000000000007
    vertex -2898.3740984338733 3013.955166604324 3340.807746743015
    vertex -2898.3740984338733 3194.9298491043246 2387.6000000000004
  endloop
endfacet
facet normal -1.0 2.4448880101244275e-16 6.220337010580715e-17
  outer loop
    vertex -2898.3740984338733 4490.324261104324 152.40000000000066
    vertex -2898.3740984338733 3194.9298491043246 1270.0000000000007
    vertex -2898.3740984338733 4193.992113104325 1270.0000000000007
  endloop
endfacet
facet normal -1.0 2.4448880101244275e-16 6.220337010580715e-17
  outer loop
    vertex -2898.3740984338733 4490.324261104324 152.40000000000066
    vertex -2898.3740984338733 4193.992113104325 1270.0000000000007
    vertex -2898.3740984338733 4490.324261104324 2607.3827467430115
  endloop
endfacet
facet normal -1.0 -1.937851576206578e-16 -3.9474596431116675e-16
  outer loop
    vertex -2822.1740984338744 2748.3141561043244 2286.0000000000005
    vertex -2822.174098433874 1918.5845481043243 1828.8000000000006
    vertex -2822.1740984338744 1918.5845481043243 2286.0000000000005
  endloop
endfacet
facet normal -1.0 -1.937851576206578e-16 -3.9474596431116675e-16
  outer loop
    vertex -2822.174098433874 1918.5845481043243 1828.8000000000006
    vertex -2822.1740984338744 2748.3141561043244 2286.0000000000005
    vertex -2822.1740984338744 2748.3141561043244 1828.8000000000006
  endloop
endfacet
facet normal -7.401457224887042e-16 -1.0 -5.3910411524138295e-17
  outer loop
    vertex 733.8259015661256 1452.9197441043239 2477.20774674301
    vertex 683.0259015661256 1452.9197441043239 152.39999999999998
    vertex 733.8259015661256 1452.9197441043239 152.39999999999998
  endloop
endfacet
facet normal -7.401457224887042e-16 -1.0 -5.3910411524138295e-17
  outer loop
    vertex 683.0259015661256 1452.9197441043239 152.39999999999998
    vertex 632.2259015661256 1452.9197441043239 2477.207746743011
    vertex 632.2259015661256 1452.919744104324 152.399999999996
  endloop
endfacet
facet normal -7.401457224887042e-16 -1.0 -5.3910411524138295e-17
  outer loop
    vertex 632.2259015661256 1452.9197441043239 2477.207746743011
    vertex 683.0259015661256 1452.9197441043239 152.39999999999998
    vertex 733.8259015661256 1452.9197441043239 2477.20774674301
  endloop
endfacet
facet normal -9.975341684123955e-17 -1.0 4.934304816591372e-16
  outer loop
    vertex 683.0259015661256 1495.2529081043238 152.39999999999992
    vertex -2872.974098433875 1495.2529081043244 5.05881893467686e-13
    vertex 683.0259015661256 1495.2529081043238 -4.307158180163894e-14
  endloop
endfacet
facet normal -9.975341684123955e-17 -1.0 4.934304816591372e-16
  outer loop
    vertex -2872.974098433875 1495.2529081043244 5.05881893467686e-13
    vertex 683.0259015661256 1495.2529081043238 152.39999999999992
    vertex 632.2259015661256 1495.2529081043238 152.39999999999597
  endloop
endfacet
facet normal -9.975341684123955e-17 -1.0 4.934304816591372e-16
  outer loop
    vertex 632.2259015661256 1495.2529081043238 152.39999999999597
    vertex -2872.9740984338746 1495.2529081043244 152.4000000000006
    vertex -2872.974098433875 1495.2529081043244 5.05881893467686e-13
  endloop
endfacet
facet normal -9.975341684123955e-17 -1.0 4.934304816591372e-16
  outer loop
    vertex -2872.9740984338746 1495.2529081043244 152.4000000000006
    vertex 632.2259015661256 1495.2529081043238 152.39999999999597
    vertex -2822.1740984338744 1495.2529081043244 152.40000000000063
  endloop
endfacet
facet normal 2.057173649743257e-16 0.4543275249905619 0.8908347209420783
  outer loop
    vertex 733.8259015661271 3013.9551666043235 3454.400000000004
    vertex -2923.7740984338734 4707.281726604324 2590.800000000001
    vertex -2923.7740984338734 3013.955166604324 3454.4000000000046
  endloop
endfacet
facet normal 2.057173649743257e-16 0.4543275249905619 0.8908347209420783
  outer loop
    vertex -2923.7740984338734 4707.281726604324 2590.800000000001
    vertex 733.8259015661271 3013.9551666043235 3454.400000000004
    vertex 733.8259015661271 4707.281726604324 2590.8
  endloop
endfacet
facet normal 0.0 0.0 1.0
  outer loop
    vertex -1196.5740984338731 4553.824007104324 254.00000000000034
    vertex -1755.3740984338735 4574.9905891043245 254.00000000000034
    vertex -1755.3740984338735 4553.824007104324 254.00000000000034
  endloop
endfacet
facet normal 0.0 0.0 1.0
  outer loop
    vertex -1755.3740984338735 4574.9905891043245 254.00000000000034
    vertex -1196.5740984338731 4553.824007104324 254.00000000000034
    vertex -1196.5740984338731 4574.9905891043245 254.00000000000034
  endloop
endfacet
facet normal 0.0 0.0 -1.0
  outer loop
    vertex -434.57409843387325 4574.9905891043245 2070.807746743003
    vertex -993.3740984338735 4553.824007104324 2070.807746743003
    vertex -993.3740984338735 4574.9905891043245 2070.807746743003
  endloop
endfacet
facet normal 0.0 0.0 -1.0
  outer loop
    vertex -993.3740984338735 4553.824007104324 2070.807746743003
    vertex -434.57409843387325 4574.9905891043245 2070.807746743003
    vertex -434.57409843387325 4553.824007104324 2070.807746743003
  endloop
endfacet
facet normal 0.0 -1.0 0.0
  outer loop
    vertex -2898.3740984338733 4490.324261104324 2607.3827467430115
    vertex -2923.7740984338734 4490.324261104324 152.40000000000066
    vertex -2898.3740984338733 4490.324261104324 152.40000000000066
  endloop
endfacet
facet normal 0.0 -1.0 0.0
  outer loop
    vertex -2923.7740984338734 4490.324261104324 152.40000000000066
    vertex -2898.3740984338733 4490.324261104324 2607.3827467430115
    vertex -2923.7740984338734 4490.324261104324 2607.3827467430115
  endloop
endfacet
facet normal 0.0 -1.0 0.0
  outer loop
    vertex -2771.3740984338733 4109.3257851043245 1828.8000000000006
    vertex -2923.7740984338734 4109.3257851043245 1371.6000000000006
    vertex -2771.3740984338733 4109.3257851043245 1371.6000000000006
  endloop
endfacet
facet normal 0.0 -1.0 0.0
  outer loop
    vertex -2923.7740984338734 4109.3257851043245 1371.6000000000006
    vertex -2771.3740984338733 4109.3257851043245 1828.8000000000006
    vertex -2822.1740984338735 4109.3257851043245 1828.8000000000006
  endloop
endfacet
facet normal 0.0 -1.0 0.0
  outer loop
    vertex -2923.7740984338734 4109.3257851043245 1371.6000000000006
    vertex -2822.1740984338735 4109.3257851043245 1828.8000000000006
    vertex -2923.7740984338734 4109.3257851043245 2286.0000000000005
  endloop
endfacet
facet normal 0.0 -1.0 0.0
  outer loop
    vertex -2923.7740984338734 4109.3257851043245 2286.0000000000005
    vertex -2822.1740984338735 4109.3257851043245 1828.8000000000006
    vertex -2822.1740984338735 4109.3257851043245 2286.0000000000005
  endloop
endfacet
facet normal -2.9399358799928845e-18 0.44490235619850277 -0.8955790827442436
  outer loop
    vertex -2923.7740984338734 3013.955166604324 3340.807746743015
    vertex -2898.374098433874 1537.5860721043246 2607.382746743012
    vertex -2923.7740984338743 1537.5860721043246 2607.382746743012
  endloop
endfacet
facet normal -2.9399358799928845e-18 0.44490235619850277 -0.8955790827442436
  outer loop
    vertex -2898.374098433874 1537.5860721043246 2607.382746743012
    vertex -2923.7740984338734 3013.955166604324 3340.807746743015
    vertex -2898.3740984338733 3013.955166604324 3340.807746743015
  endloop
endfacet
facet normal 0.0 -1.0 0.0
  outer loop
    vertex -2898.3740984338733 3194.9298491043246 2387.6000000000004
    vertex -2923.7740984338734 3194.9298491043246 1270.0000000000007
    vertex -2898.3740984338733 3194.9298491043246 1270.0000000000007
  endloop
endfacet
facet normal 0.0 -1.0 0.0
  outer loop
    vertex -2923.7740984338734 3194.9298491043246 1270.0000000000007
    vertex -2898.3740984338733 3194.9298491043246 2387.6000000000004
    vertex -2923.7740984338734 3194.9298491043246 2387.6000000000004
  endloop
endfacet
facet normal 0.0 1.0 0.0
  outer loop
    vertex -2872.9740984338737 4574.9905891043245 152.4000000000006
    vertex -2822.1740984338735 4574.9905891043245 2477.207746743004
    vertex -2822.1740984338735 4574.9905891043245 152.40000000000043
  endloop
endfacet
facet normal 0.0 1.0 0.0
  outer loop
    vertex -2822.1740984338735 4574.9905891043245 2477.207746743004
    vertex -2872.9740984338737 4574.9905891043245 152.4000000000006
    vertex -2923.7740984338734 4574.9905891043245 152.40000000000066
  endloop
endfacet
facet normal 0.0 1.0 0.0
  outer loop
    vertex -2822.1740984338735 4574.9905891043245 2477.207746743004
    vertex -2923.7740984338734 4574.9905891043245 152.40000000000066
    vertex -2923.7740984338734 4574.9905891043245 2477.207746743004
  endloop
endfacet
facet normal 0.0 0.0 1.0
  outer loop
    vertex -2771.374098433874 1918.5845481043243 1371.6000000000006
    vertex -2923.7740984338743 2748.3141561043244 1371.6000000000006
    vertex -2923.7740984338743 1918.5845481043243 1371.6000000000006
  endloop
endfacet
facet normal 0.0 0.0 1.0
  outer loop
    vertex -2923.7740984338743 2748.3141561043244 1371.6000000000006
    vertex -2771.374098433874 1918.5845481043243 1371.6000000000006
    vertex -2771.374098433874 2748.3141561043244 1371.6000000000006
  endloop
endfacet
facet normal 0.0 -1.0 0.0
  outer loop
    vertex -2771.374098433874 2748.3141561043244 1828.8000000000006
    vertex -2923.7740984338743 2748.3141561043244 1371.6000000000006
    vertex -2771.374098433874 2748.3141561043244 1371.6000000000006
  endloop
endfacet
facet normal 0.0 -1.0 0.0
  outer loop
    vertex -2923.7740984338743 2748.3141561043244 1371.6000000000006
    vertex -2771.374098433874 2748.3141561043244 1828.8000000000006
    vertex -2822.1740984338744 2748.3141561043244 1828.8000000000006
  endloop
endfacet
facet normal 0.0 -1.0 0.0
  outer loop
    vertex -2923.7740984338743 2748.3141561043244 1371.6000000000006
    vertex -2822.1740984338744 2748.3141561043244 1828.8000000000006
    vertex -2923.7740984338743 2748.3141561043244 2286.0000000000005
  endloop
endfacet
facet normal 0.0 -1.0 0.0
  outer loop
    vertex -2923.7740984338743 2748.3141561043244 2286.0000000000005
    vertex -2822.1740984338744 2748.3141561043244 1828.8000000000006
    vertex -2822.1740984338744 2748.3141561043244 2286.0000000000005
  endloop
endfacet
facet normal 0.0 -1.0 0.0
  outer loop
    vertex -2822.1740984338744 1452.919744104324 2477.207746743011
    vertex -2872.9740984338746 1452.919744104324 152.40000000000066
    vertex -2822.1740984338744 1452.919744104324 152.40000000000066
  endloop
endfacet
facet normal 0.0 -1.0 0.0
  outer loop
    vertex -2872.9740984338746 1452.919744104324 152.40000000000066
    vertex -2822.1740984338744 1452.919744104324 2477.207746743011
    vertex -2923.7740984338743 1452.919744104324 152.40000000000072
  endloop
endfacet
facet normal 0.0 -1.0 0.0
  outer loop
    vertex -2923.7740984338743 1452.919744104324 152.40000000000072
    vertex -2822.1740984338744 1452.919744104324 2477.207746743011
    vertex -2923.7740984338743 1452.919744104324 2477.207746743011
  endloop
endfacet
facet normal 1.0 0.0 0.0
  outer loop
    vertex -1755.3740984338735 4574.9905891043245 739.8968488707246
    vertex -1755.3740984338735 4553.824007104324 1461.7828363175638
    vertex -1755.3740984338735 4553.824007104324 739.8968488707246
  endloop
endfacet
facet normal 1.0 0.0 0.0
  outer loop
    vertex -1755.3740984338735 4553.824007104324 1461.7828363175638
    vertex -1755.3740984338735 4574.9905891043245 739.8968488707246
    vertex -1755.3740984338735 4574.9905891043245 1461.7828363175638
  endloop
endfacet
facet normal -1.0 0.0 1.5526260623994422e-16
  outer loop
    vertex 632.225901566127 4574.9905891043245 2477.207746743003
    vertex 632.2259015661264 4553.824007104324 152.39999999999998
    vertex 632.225901566127 4553.824007104324 2477.207746743003
  endloop
endfacet
facet normal -1.0 0.0 1.5526260623994422e-16
  outer loop
    vertex 632.2259015661264 4553.824007104324 152.39999999999998
    vertex 632.225901566127 4574.9905891043245 2477.207746743003
    vertex 632.2259015661264 4574.9905891043245 152.39999999999998
  endloop
endfacet
facet normal 0.0 0.0 -1.0
  outer loop
    vertex 733.8259015661271 4574.9905891043245 152.39999999999998
    vertex 683.0259015661271 4532.657425104324 152.39999999999998
    vertex 683.0259015661271 4574.9905891043245 152.39999999999998
  endloop
endfacet
facet normal 0.0 0.0 -1.0
  outer loop
    vertex 683.0259015661271 4532.657425104324 152.39999999999998
    vertex 733.8259015661271 4574.9905891043245 152.39999999999998
    vertex 683.0259015661271 4490.324261104324 152.39999999999998
  endloop
endfacet
facet normal 0.0 0.0 -1.0
  outer loop
    vertex 683.0259015661271 4490.324261104324 152.39999999999998
    vertex 733.8259015661271 4574.9905891043245 152.39999999999998
    vertex 708.4259015661271 4490.324261104324 152.39999999999998
  endloop
endfacet
facet normal 0.0 0.0 -1.0
  outer loop
    vertex 708.4259015661271 4490.324261104324 152.39999999999998
    vertex 733.8259015661271 4574.9905891043245 152.39999999999998
    vertex 733.8259015661271 4490.324261104324 152.39999999999998
  endloop
endfacet
facet normal -2.3684757858669997e-15 -1.52805500632771e-17 -1.0
  outer loop
    vertex -2898.3740984338733 4490.324261104324 152.40000000000066
    vertex -2872.974098433874 1537.5860721043246 152.40000000000066
    vertex -2898.374098433874 1537.5860721043246 152.40000000000072
  endloop
endfacet
facet normal -2.3684757858669997e-15 -1.52805500632771e-17 -1.0
  outer loop
    vertex -2872.974098433874 1537.5860721043246 152.40000000000066
    vertex -2898.3740984338733 4490.324261104324 152.40000000000066
    vertex -2872.9740984338737 4490.324261104324 152.4000000000006
  endloop
endfacet
facet normal 0.0 1.0 0.0
  outer loop
    vertex -1755.3740984338735 4553.824007104324 1461.7828363175638
    vertex -1196.5740984338731 4553.824007104324 739.8968488707246
    vertex -1755.3740984338735 4553.824007104324 739.8968488707246
  endloop
endfacet
facet normal 0.0 1.0 0.0
  outer loop
    vertex -1196.5740984338731 4553.824007104324 739.8968488707246
    vertex -1755.3740984338735 4553.824007104324 1461.7828363175638
    vertex -1196.5740984338731 4553.824007104324 1461.7828363175638
  endloop
endfacet
facet normal 0.0 0.0 -1.0
  outer loop
    vertex 683.0259015661271 4574.9905891043245 152.39999999999998
    vertex 632.2259015661264 4553.824007104324 152.39999999999998
    vertex 632.2259015661264 4574.9905891043245 152.39999999999998
  endloop
endfacet
facet normal 0.0 0.0 -1.0
  outer loop
    vertex 632.2259015661264 4553.824007104324 152.39999999999998
    vertex 683.0259015661271 4574.9905891043245 152.39999999999998
    vertex 632.2259015661264 4532.657425104324 152.39999999999998
  endloop
endfacet
facet normal 0.0 0.0 -1.0
  outer loop
    vertex 632.2259015661264 4532.657425104324 152.39999999999998
    vertex 683.0259015661271 4574.9905891043245 152.39999999999998
    vertex 683.0259015661271 4532.657425104324 152.39999999999998
  endloop
endfacet
facet normal 0.0 0.0 1.0
  outer loop
    vertex -434.57409843387325 4553.824007104324 739.8968488707245
    vertex -993.3740984338735 4574.9905891043245 739.8968488707245
    vertex -993.3740984338735 4553.824007104324 739.8968488707245
  endloop
endfacet
facet normal 0.0 0.0 1.0
  outer loop
    vertex -993.3740984338735 4574.9905891043245 739.8968488707245
    vertex -434.57409843387325 4553.824007104324 739.8968488707245
    vertex -434.57409843387325 4574.9905891043245 739.8968488707245
  endloop
endfacet
facet normal 3.9474596431116675e-16 1.52991817828316e-31 -1.0
  outer loop
    vertex -2771.374098433874 2748.3141561043244 1828.8000000000006
    vertex -2822.174098433874 1918.5845481043243 1828.8000000000006
    vertex -2822.1740984338744 2748.3141561043244 1828.8000000000006
  endloop
endfacet
facet normal 3.9474596431116675e-16 1.52991817828316e-31 -1.0
  outer loop
    vertex -2822.174098433874 1918.5845481043243 1828.8000000000006
    vertex -2771.374098433874 2748.3141561043244 1828.8000000000006
    vertex -2771.3740984338738 1918.5845481043243 1828.8000000000006
  endloop
endfacet
facet normal 0.0 0.0 -1.0
  outer loop
    vertex -434.57409843387325 4574.9905891043245 1461.7828363175638
    vertex -993.3740984338735 4553.824007104324 1461.7828363175638
    vertex -993.3740984338735 4574.9905891043245 1461.7828363175638
  endloop
endfacet
facet normal 0.0 0.0 -1.0
  outer loop
    vertex -993.3740984338735 4553.824007104324 1461.7828363175638
    vertex -434.57409843387325 4574.9905891043245 1461.7828363175638
    vertex -434.57409843387325 4553.824007104324 1461.7828363175638
  endloop
endfacet
facet normal 1.0 0.0 0.0
  outer loop
    vertex -993.3740984338735 4574.9905891043245 1563.3828363175637
    vertex -993.3740984338735 4553.824007104324 2070.807746743003
    vertex -993.3740984338735 4553.824007104324 1563.3828363175637
  endloop
endfacet
facet normal 1.0 0.0 0.0
  outer loop
    vertex -993.3740984338735 4553.824007104324 2070.807746743003
    vertex -993.3740984338735 4574.9905891043245 1563.3828363175637
    vertex -993.3740984338735 4574.9905891043245 2070.807746743003
  endloop
endfacet
facet normal 0.0 -0.4449023561985026 -0.8955790827442436
  outer loop
    vertex -2898.3740984338733 4490.324261104324 2607.3827467430115
    vertex -2923.7740984338734 3013.955166604324 3340.807746743015
    vertex -2923.7740984338734 4490.324261104324 2607.3827467430115
  endloop
endfacet
facet normal 0.0 -0.4449023561985026 -0.8955790827442436
  outer loop
    vertex -2923.7740984338734 3013.955166604324 3340.807746743015
    vertex -2898.3740984338733 4490.324261104324 2607.3827467430115
    vertex -2898.3740984338733 3013.955166604324 3340.807746743015
  endloop
endfacet
facet normal 0.0 1.0 0.0
  outer loop
    vertex -993.3740984338735 4553.824007104324 638.2968488707245
    vertex -434.5740984338736 4553.824007104324 254.00000000000017
    vertex -993.3740984338735 4553.824007104324 254.00000000000017
  endloop
endfacet
facet normal 0.0 1.0 0.0
  outer loop
    vertex -434.5740984338736 4553.824007104324 254.00000000000017
    vertex -993.3740984338735 4553.824007104324 638.2968488707245
    vertex -434.5740984338736 4553.824007104324 638.2968488707245
  endloop
endfacet
facet normal 0.0 1.0 0.0
  outer loop
    vertex -993.3740984338735 4553.824007104324 1461.7828363175638
    vertex -434.57409843387325 4553.824007104324 739.8968488707245
    vertex -993.3740984338735 4553.824007104324 739.8968488707245
  endloop
endfacet
facet normal 0.0 1.0 0.0
  outer loop
    vertex -434.57409843387325 4553.824007104324 739.8968488707245
    vertex -993.3740984338735 4553.824007104324 1461.7828363175638
    vertex -434.57409843387325 4553.824007104324 1461.7828363175638
  endloop
endfacet
facet normal 1.0 -4.706524194533967e-16 2.9605947323337506e-16
  outer loop
    vertex 683.0259015661271 4532.657425104324 -1.2991939321128326e-14
    vertex 683.0259015661256 1495.2529081043238 152.39999999999992
    vertex 683.0259015661256 1495.2529081043238 -4.307158180163894e-14
  endloop
endfacet
facet normal 1.0 -4.706524194533967e-16 2.9605947323337506e-16
  outer loop
    vertex 683.0259015661256 1495.2529081043238 152.39999999999992
    vertex 683.0259015661271 4532.657425104324 -1.2991939321128326e-14
    vertex 683.0259015661256 1537.5860721043236 152.39999999999998
  endloop
endfacet
facet normal 1.0 -4.706524194533967e-16 2.9605947323337506e-16
  outer loop
    vertex 683.0259015661256 1537.5860721043236 152.39999999999998
    vertex 683.0259015661271 4532.657425104324 -1.2991939321128326e-14
    vertex 683.0259015661271 4490.324261104324 152.39999999999998
  endloop
endfacet
facet normal 1.0 -4.706524194533967e-16 2.9605947323337506e-16
  outer loop
    vertex 683.0259015661271 4490.324261104324 152.39999999999998
    vertex 683.0259015661271 4532.657425104324 -1.2991939321128326e-14
    vertex 683.0259015661271 4532.657425104324 152.39999999999998
  endloop
endfacet
facet normal 0.0 0.0 -1.0
  outer loop
    vertex -1145.7740984338732 4574.9905891043245 2070.8077467430035
    vertex -1755.374098433873 4553.824007104324 2070.8077467430035
    vertex -1755.374098433873 4574.9905891043245 2070.8077467430035
  endloop
endfacet
facet normal 0.0 0.0 -1.0
  outer loop
    vertex -1755.374098433873 4553.824007104324 2070.8077467430035
    vertex -1145.7740984338732 4574.9905891043245 2070.8077467430035
    vertex -1145.7740984338732 4553.824007104324 2070.8077467430035
  endloop
endfacet
facet normal 1.0 0.0 0.0
  outer loop
    vertex -2822.1740984338744 1474.0863261043241 152.40000000000066
    vertex -2822.1740984338744 1452.919744104324 2477.207746743011
    vertex -2822.1740984338744 1452.919744104324 152.40000000000066
  endloop
endfacet
facet normal 1.0 0.0 0.0
  outer loop
    vertex -2822.1740984338744 1452.919744104324 2477.207746743011
    vertex -2822.1740984338744 1474.0863261043241 152.40000000000066
    vertex -2822.1740984338744 1474.0863261043241 2477.207746743011
  endloop
endfacet
facet normal 0.0 1.0 0.0
  outer loop
    vertex -2923.7740984338743 1918.5845481043243 2286.0000000000005
    vertex -2771.374098433874 1918.5845481043243 1371.6000000000006
    vertex -2923.7740984338743 1918.5845481043243 1371.6000000000006
  endloop
endfacet
facet normal 0.0 1.0 0.0
  outer loop
    vertex -2771.374098433874 1918.5845481043243 1371.6000000000006
    vertex -2923.7740984338743 1918.5845481043243 2286.0000000000005
    vertex -2822.174098433874 1918.5845481043243 1828.8000000000006
  endloop
endfacet
facet normal 0.0 1.0 0.0
  outer loop
    vertex -2822.174098433874 1918.5845481043243 1828.8000000000006
    vertex -2923.7740984338743 1918.5845481043243 2286.0000000000005
    vertex -2822.1740984338744 1918.5845481043243 2286.0000000000005
  endloop
endfacet
facet normal 0.0 1.0 0.0
  outer loop
    vertex -2771.3740984338738 1918.5845481043243 1828.8000000000006
    vertex -2771.374098433874 1918.5845481043243 1371.6000000000006
    vertex -2822.174098433874 1918.5845481043243 1828.8000000000006
  endloop
endfacet
facet normal -1.0 2.752693811129907e-16 2.3684757858669997e-15
  outer loop
    vertex -2872.974098433874 1537.5860721043246 152.40000000000066
    vertex -2872.974098433875 1495.2529081043244 5.05881893467686e-13
    vertex -2872.9740984338746 1495.2529081043244 152.4000000000006
  endloop
endfacet
facet normal -1.0 2.752693811129907e-16 2.3684757858669997e-15
  outer loop
    vertex -2872.974098433875 1495.2529081043244 5.05881893467686e-13
    vertex -2872.974098433874 1537.5860721043246 152.40000000000066
    vertex -2872.9740984338737 4532.657425104325 5.359615359481966e-13
  endloop
endfacet
facet normal -1.0 2.752693811129907e-16 2.3684757858669997e-15
  outer loop
    vertex -2872.9740984338737 4532.657425104325 5.359615359481966e-13
    vertex -2872.974098433874 1537.5860721043246 152.40000000000066
    vertex -2872.9740984338737 4490.324261104324 152.4000000000006
  endloop
endfacet
facet normal -1.0 2.752693811129907e-16 2.3684757858669997e-15
  outer loop
    vertex -2872.9740984338737 4532.657425104325 5.359615359481966e-13
    vertex -2872.9740984338737 4490.324261104324 152.4000000000006
    vertex -2872.9740984338737 4532.657425104325 152.4000000000006
  endloop
endfacet
facet normal 0.0 1.0 0.0
  outer loop
    vertex -1755.3740984338735 4553.824007104324 638.2968488707245
    vertex -1196.5740984338731 4553.824007104324 254.00000000000034
    vertex -1755.3740984338735 4553.824007104324 254.00000000000034
  endloop
endfacet
facet normal 0.0 1.0 0.0
  outer loop
    vertex -1196.5740984338731 4553.824007104324 254.00000000000034
    vertex -1755.3740984338735 4553.824007104324 638.2968488707245
    vertex -1196.5740984338731 4553.824007104324 638.2968488707245
  endloop
endfacet
facet normal -1.0 0.0 8.934513007391294e-17
  outer loop
    vertex -1856.9740984338728 4574.9905891043245 2172.407746743004
    vertex -1856.9740984338732 4553.824007104324 152.40000000000032
    vertex -1856.9740984338728 4553.824007104324 2172.407746743004
  endloop
endfacet
facet normal -1.0 0.0 8.934513007391294e-17
  outer loop
    vertex -1856.9740984338732 4553.824007104324 152.40000000000032
    vertex -1856.9740984338728 4574.9905891043245 2172.407746743004
    vertex -1856.9740984338732 4574.9905891043245 152.40000000000032
  endloop
endfacet
facet normal 1.0 0.0 -5.863274161100537e-17
  outer loop
    vertex -332.9740984338736 4574.9905891043245 152.40000000000012
    vertex -332.9740984338732 4553.824007104324 2172.4077467430034
    vertex -332.9740984338736 4553.824007104324 152.40000000000012
  endloop
endfacet
facet normal 1.0 0.0 -5.863274161100537e-17
  outer loop
    vertex -332.9740984338732 4553.824007104324 2172.4077467430034
    vertex -332.9740984338736 4574.9905891043245 152.40000000000012
    vertex -332.9740984338732 4574.9905891043245 2172.4077467430034
  endloop
endfacet
facet normal 2.368475785867001e-16 0.0 1.0
  outer loop
    vertex -332.9740984338732 4553.824007104324 2172.4077467430034
    vertex -1856.9740984338728 4574.9905891043245 2172.407746743004
    vertex -1856.9740984338728 4553.824007104324 2172.407746743004
  endloop
endfacet
facet normal 2.368475785867001e-16 0.0 1.0
  outer loop
    vertex -1856.9740984338728 4574.9905891043245 2172.407746743004
    vertex -332.9740984338732 4553.824007104324 2172.4077467430034
    vertex -332.9740984338732 4574.9905891043245 2172.4077467430034
  endloop
endfacet
facet normal 0.0 1.0 0.0
  outer loop
    vertex -993.3740984338735 4553.824007104324 2070.807746743003
    vertex -434.57409843387325 4553.824007104324 1563.3828363175637
    vertex -993.3740984338735 4553.824007104324 1563.3828363175637
  endloop
endfacet
facet normal 0.0 1.0 0.0
  outer loop
    vertex -434.57409843387325 4553.824007104324 1563.3828363175637
    vertex -993.3740984338735 4553.824007104324 2070.807746743003
    vertex -434.57409843387325 4553.824007104324 2070.807746743003
  endloop
endfacet
facet normal -1.0 0.0 0.0
  outer loop
    vertex -2923.7740984338743 1833.9182201043243 2387.6000000000004
    vertex -2923.7740984338743 1918.5845481043243 2286.0000000000005
    vertex -2923.7740984338743 1833.9182201043243 1270.0000000000007
  endloop
endfacet
facet normal -1.0 0.0 0.0
  outer loop
    vertex -2923.7740984338743 1918.5845481043243 2286.0000000000005
    vertex -2923.7740984338743 1833.9182201043243 2387.6000000000004
    vertex -2923.7740984338743 2832.980484104324 2387.6000000000004
  endloop
endfacet
facet normal -1.0 0.0 0.0
  outer loop
    vertex -2923.7740984338743 1918.5845481043243 2286.0000000000005
    vertex -2923.7740984338743 2832.980484104324 2387.6000000000004
    vertex -2923.7740984338743 2748.3141561043244 2286.0000000000005
  endloop
endfacet
facet normal -1.0 0.0 0.0
  outer loop
    vertex -2923.7740984338743 2748.3141561043244 2286.0000000000005
    vertex -2923.7740984338743 2832.980484104324 2387.6000000000004
    vertex -2923.7740984338743 2748.3141561043244 1371.6000000000006
  endloop
endfacet
facet normal -1.0 0.0 0.0
  outer loop
    vertex -2923.7740984338743 1833.9182201043243 1270.0000000000007
    vertex -2923.7740984338743 1918.5845481043243 1371.6000000000006
    vertex -2923.7740984338743 2832.980484104324 1270.0000000000007
  endloop
endfacet
facet normal -1.0 0.0 0.0
  outer loop
    vertex -2923.7740984338743 1918.5845481043243 1371.6000000000006
    vertex -2923.7740984338743 1833.9182201043243 1270.0000000000007
    vertex -2923.7740984338743 1918.5845481043243 2286.0000000000005
  endloop
endfacet
facet normal -1.0 0.0 0.0
  outer loop
    vertex -2923.7740984338743 2832.980484104324 1270.0000000000007
    vertex -2923.7740984338743 1918.5845481043243 1371.6000000000006
    vertex -2923.7740984338743 2748.3141561043244 1371.6000000000006
  endloop
endfacet
facet normal -1.0 0.0 0.0
  outer loop
    vertex -2923.7740984338743 2832.980484104324 1270.0000000000007
    vertex -2923.7740984338743 2748.3141561043244 1371.6000000000006
    vertex -2923.7740984338743 2832.980484104324 2387.6000000000004
  endloop
endfacet
facet normal 0.0 -1.0 0.0
  outer loop
    vertex 733.8259015661271 4490.324261104324 2607.382746743011
    vertex 708.4259015661271 4490.324261104324 152.39999999999998
    vertex 733.8259015661271 4490.324261104324 152.39999999999998
  endloop
endfacet
facet normal 0.0 -1.0 0.0
  outer loop
    vertex 708.4259015661271 4490.324261104324 152.39999999999998
    vertex 733.8259015661271 4490.324261104324 2607.382746743011
    vertex 708.4259015661271 4490.324261104324 2607.382746743011
  endloop
endfacet
facet normal 0.0 1.0 0.0
  outer loop
    vertex -2923.7740984338743 2832.980484104324 2387.6000000000004
    vertex -2898.374098433874 2832.980484104324 1270.0000000000007
    vertex -2923.7740984338743 2832.980484104324 1270.0000000000007
  endloop
endfacet
facet normal 0.0 1.0 0.0
  outer loop
    vertex -2898.374098433874 2832.980484104324 1270.0000000000007
    vertex -2923.7740984338743 2832.980484104324 2387.6000000000004
    vertex -2898.374098433874 2832.980484104324 2387.6000000000004
  endloop
endfacet
facet normal 0.0 0.0 -1.0
  outer loop
    vertex -1196.5740984338731 4574.9905891043245 1461.7828363175638
    vertex -1755.3740984338735 4553.824007104324 1461.7828363175638
    vertex -1755.3740984338735 4574.9905891043245 1461.7828363175638
  endloop
endfacet
facet normal 0.0 0.0 -1.0
  outer loop
    vertex -1755.3740984338735 4553.824007104324 1461.7828363175638
    vertex -1196.5740984338731 4574.9905891043245 1461.7828363175638
    vertex -1196.5740984338731 4553.824007104324 1461.7828363175638
  endloop
endfacet
facet normal -1.0 -1.937851576206578e-16 3.9474596431116675e-16
  outer loop
    vertex -2771.374098433874 2748.3141561043244 1828.8000000000006
    vertex -2771.374098433874 1918.5845481043243 1371.6000000000006
    vertex -2771.3740984338738 1918.5845481043243 1828.8000000000006
  endloop
endfacet
facet normal -1.0 -1.937851576206578e-16 3.9474596431116675e-16
  outer loop
    vertex -2771.374098433874 1918.5845481043243 1371.6000000000006
    vertex -2771.374098433874 2748.3141561043244 1828.8000000000006
    vertex -2771.374098433874 2748.3141561043244 1371.6000000000006
  endloop
endfacet
facet normal -1.345329076898719e-15 -7.105455779424121e-16 -1.0
  outer loop
    vertex 632.2259015661256 1495.2529081043238 152.39999999999597
    vertex -2822.1740984338744 1474.0863261043241 152.40000000000066
    vertex -2822.1740984338744 1495.2529081043244 152.40000000000063
  endloop
endfacet
facet normal -1.345329076898719e-15 -7.105455779424121e-16 -1.0
  outer loop
    vertex -2822.1740984338744 1474.0863261043241 152.40000000000066
    vertex 632.2259015661256 1495.2529081043238 152.39999999999597
    vertex 632.2259015661256 1474.0863261043241 152.399999999996
  endloop
endfacet
facet normal 1.1299994348356023e-16 1.0 -1.7953678016827563e-31
  outer loop
    vertex -2923.7740984338734 4707.281726604324 2477.207746743004
    vertex 733.8259015661271 4707.281726604324 2590.8
    vertex 733.8259015661271 4707.281726604324 2477.207746743003
  endloop
endfacet
facet normal 1.1299994348356023e-16 1.0 -1.7953678016827563e-31
  outer loop
    vertex 733.8259015661271 4707.281726604324 2590.8
    vertex -2923.7740984338734 4707.281726604324 2477.207746743004
    vertex -2923.7740984338734 4707.281726604324 2590.800000000001
  endloop
endfacet
facet normal 0.0 0.0 -1.0
  outer loop
    vertex -2822.1740984338744 2748.3141561043244 2286.0000000000005
    vertex -2923.7740984338743 1918.5845481043243 2286.0000000000005
    vertex -2923.7740984338743 2748.3141561043244 2286.0000000000005
  endloop
endfacet
facet normal 0.0 0.0 -1.0
  outer loop
    vertex -2923.7740984338743 1918.5845481043243 2286.0000000000005
    vertex -2822.1740984338744 2748.3141561043244 2286.0000000000005
    vertex -2822.1740984338744 1918.5845481043243 2286.0000000000005
  endloop
endfacet
facet normal 0.0 0.0 -1.0
  outer loop
    vertex -434.5740984338736 4574.9905891043245 638.2968488707245
    vertex -993.3740984338735 4553.824007104324 638.2968488707245
    vertex -993.3740984338735 4574.9905891043245 638.2968488707245
  endloop
endfacet
facet normal 0.0 0.0 -1.0
  outer loop
    vertex -993.3740984338735 4553.824007104324 638.2968488707245
    vertex -434.5740984338736 4574.9905891043245 638.2968488707245
    vertex -434.5740984338736 4553.824007104324 638.2968488707245
  endloop
endfacet
facet normal -4.930380657631803e-33 2.6645459172840423e-16 -1.0
  outer loop
    vertex 708.4259015661256 1537.5860721043236 152.39999999999998
    vertex 683.0259015661256 1495.2529081043238 152.39999999999992
    vertex 683.0259015661256 1537.5860721043236 152.39999999999998
  endloop
endfacet
facet normal -4.930380657631803e-33 2.6645459172840423e-16 -1.0
  outer loop
    vertex 683.0259015661256 1495.2529081043238 152.39999999999992
    vertex 708.4259015661256 1537.5860721043236 152.39999999999998
    vertex 683.0259015661256 1452.9197441043239 152.39999999999998
  endloop
endfacet
facet normal -4.930380657631803e-33 2.6645459172840423e-16 -1.0
  outer loop
    vertex 683.0259015661256 1452.9197441043239 152.39999999999998
    vertex 708.4259015661256 1537.5860721043236 152.39999999999998
    vertex 733.8259015661256 1452.9197441043239 152.39999999999998
  endloop
endfacet
facet normal -4.930380657631803e-33 2.6645459172840423e-16 -1.0
  outer loop
    vertex 733.8259015661256 1452.9197441043239 152.39999999999998
    vertex 708.4259015661256 1537.5860721043236 152.39999999999998
    vertex 733.8259015661256 1537.5860721043236 152.39999999999998
  endloop
endfacet
facet normal 0.0 0.0 -1.0
  outer loop
    vertex -2898.3740984338733 4193.992113104325 1270.0000000000007
    vertex -2923.7740984338734 3194.9298491043246 1270.0000000000007
    vertex -2923.7740984338734 4193.992113104325 1270.0000000000007
  endloop
endfacet
facet normal 0.0 0.0 -1.0
  outer loop
    vertex -2923.7740984338734 3194.9298491043246 1270.0000000000007
    vertex -2898.3740984338733 4193.992113104325 1270.0000000000007
    vertex -2898.3740984338733 3194.9298491043246 1270.0000000000007
  endloop
endfacet
facet normal 0.0 0.0 1.0
  outer loop
    vertex -1196.5740984338731 4553.824007104324 739.8968488707246
    vertex -1755.3740984338735 4574.9905891043245 739.8968488707246
    vertex -1755.3740984338735 4553.824007104324 739.8968488707246
  endloop
endfacet
facet normal 0.0 0.0 1.0
  outer loop
    vertex -1755.3740984338735 4574.9905891043245 739.8968488707246
    vertex -1196.5740984338731 4553.824007104324 739.8968488707246
    vertex -1196.5740984338731 4574.9905891043245 739.8968488707246
  endloop
endfacet
facet normal 1.0 0.0 0.0
  outer loop
    vertex -1755.3740984338735 4574.9905891043245 254.00000000000034
    vertex -1755.3740984338735 4553.824007104324 638.2968488707245
    vertex -1755.3740984338735 4553.824007104324 254.00000000000034
  endloop
endfacet
facet normal 1.0 0.0 0.0
  outer loop
    vertex -1755.3740984338735 4553.824007104324 638.2968488707245
    vertex -1755.3740984338735 4574.9905891043245 254.00000000000034
    vertex -1755.3740984338735 4574.9905891043245 638.2968488707245
  endloop
endfacet
facet normal 0.0 0.0 1.0
  outer loop
    vertex -1145.7740984338732 4553.824007104324 1563.382836317564
    vertex -1755.374098433873 4574.9905891043245 1563.382836317564
    vertex -1755.374098433873 4553.824007104324 1563.382836317564
  endloop
endfacet
facet normal 0.0 0.0 1.0
  outer loop
    vertex -1755.374098433873 4574.9905891043245 1563.382836317564
    vertex -1145.7740984338732 4553.824007104324 1563.382836317564
    vertex -1145.7740984338732 4574.9905891043245 1563.382836317564
  endloop
endfacet
facet normal -1.0 0.0 0.0
  outer loop
    vertex -1196.5740984338731 4574.9905891043245 638.2968488707245
    vertex -1196.5740984338731 4553.824007104324 254.00000000000034
    vertex -1196.5740984338731 4553.824007104324 638.2968488707245
  endloop
endfacet
facet normal -1.0 0.0 0.0
  outer loop
    vertex -1196.5740984338731 4553.824007104324 254.00000000000034
    vertex -1196.5740984338731 4574.9905891043245 638.2968488707245
    vertex -1196.5740984338731 4574.9905891043245 254.00000000000034
  endloop
endfacet
facet normal 1.0 0.0 0.0
  outer loop
    vertex -993.3740984338735 4574.9905891043245 739.8968488707245
    vertex -993.3740984338735 4553.824007104324 1461.7828363175638
    vertex -993.3740984338735 4553.824007104324 739.8968488707245
  endloop
endfacet
facet normal 1.0 0.0 0.0
  outer loop
    vertex -993.3740984338735 4553.824007104324 1461.7828363175638
    vertex -993.3740984338735 4574.9905891043245 739.8968488707245
    vertex -993.3740984338735 4574.9905891043245 1461.7828363175638
  endloop
endfacet
facet normal 1.5792356851596707e-16 1.0 -7.822971182847631e-18
  outer loop
    vertex -2822.1740984338735 4553.824007104325 152.40000000000043
    vertex -1856.9740984338728 4553.824007104324 2172.407746743004
    vertex -1856.9740984338732 4553.824007104324 152.40000000000032
  endloop
endfacet
facet normal 1.5792356851596707e-16 1.0 -7.822971182847631e-18
  outer loop
    vertex -1856.9740984338728 4553.824007104324 2172.407746743004
    vertex -2822.1740984338735 4553.824007104325 152.40000000000043
    vertex -2822.1740984338735 4553.824007104325 2477.207746743004
  endloop
endfacet
facet normal 1.5792356851596707e-16 1.0 -7.822971182847631e-18
  outer loop
    vertex -1856.9740984338728 4553.824007104324 2172.407746743004
    vertex -2822.1740984338735 4553.824007104325 2477.207746743004
    vertex 632.225901566127 4553.824007104324 2477.207746743003
  endloop
endfacet
facet normal 1.5792356851596707e-16 1.0 -7.822971182847631e-18
  outer loop
    vertex -332.9740984338736 4553.824007104324 152.40000000000012
    vertex 632.225901566127 4553.824007104324 2477.207746743003
    vertex 632.2259015661264 4553.824007104324 152.39999999999998
  endloop
endfacet
facet normal 1.5792356851596707e-16 1.0 -7.822971182847631e-18
  outer loop
    vertex 632.225901566127 4553.824007104324 2477.207746743003
    vertex -332.9740984338736 4553.824007104324 152.40000000000012
    vertex -332.9740984338732 4553.824007104324 2172.4077467430034
  endloop
endfacet
facet normal 1.5792356851596707e-16 1.0 -7.822971182847631e-18
  outer loop
    vertex 632.225901566127 4553.824007104324 2477.207746743003
    vertex -332.9740984338732 4553.824007104324 2172.4077467430034
    vertex -1856.9740984338728 4553.824007104324 2172.407746743004
  endloop
endfacet
facet normal -1.0 1.6691570781744189e-16 8.263292038159166e-17
  outer loop
    vertex -2923.7740984338734 4574.9905891043245 152.40000000000066
    vertex -2923.7740984338734 4490.324261104324 152.40000000000066
    vertex -2923.7740984338734 4574.9905891043245 2477.207746743004
  endloop
endfacet
facet normal -1.0 1.6691570781744189e-16 8.263292038159166e-17
  outer loop
    vertex -2923.7740984338734 1320.6286066043244 2590.800000000001
    vertex -2923.7740984338743 1537.5860721043246 2607.382746743012
    vertex -2923.774098433874 1320.6286066043244 2477.207746743011
  endloop
endfacet
facet normal -1.0 1.6691570781744189e-16 8.263292038159166e-17
  outer loop
    vertex -2923.7740984338743 1537.5860721043246 2607.382746743012
    vertex -2923.7740984338734 1320.6286066043244 2590.800000000001
    vertex -2923.7740984338734 3013.955166604324 3454.4000000000046
  endloop
endfacet
facet normal -1.0 1.6691570781744189e-16 8.263292038159166e-17
  outer loop
    vertex -2923.774098433874 1320.6286066043244 2477.207746743011
    vertex -2923.7740984338743 1537.5860721043246 2607.382746743012
    vertex -2923.7740984338743 1452.919744104324 2477.207746743011
  endloop
endfacet
facet normal -1.0 1.6691570781744189e-16 8.263292038159166e-17
  outer loop
    vertex -2923.7740984338743 1452.919744104324 2477.207746743011
    vertex -2923.7740984338743 1537.5860721043246 2607.382746743012
    vertex -2923.7740984338743 1452.919744104324 152.40000000000072
  endloop
endfacet
facet normal -1.0 1.6691570781744189e-16 8.263292038159166e-17
  outer loop
    vertex -2923.7740984338743 1537.5860721043246 2607.382746743012
    vertex -2923.7740984338734 3013.955166604324 3454.4000000000046
    vertex -2923.7740984338734 3013.955166604324 3340.807746743015
  endloop
endfacet
facet normal -1.0 1.6691570781744189e-16 8.263292038159166e-17
  outer loop
    vertex -2923.7740984338734 3013.955166604324 3340.807746743015
    vertex -2923.7740984338734 3013.955166604324 3454.4000000000046
    vertex -2923.7740984338734 4707.281726604324 2590.800000000001
  endloop
endfacet
facet normal -1.0 1.6691570781744189e-16 8.263292038159166e-17
  outer loop
    vertex -2923.7740984338734 3013.955166604324 3340.807746743015
    vertex -2923.7740984338734 4707.281726604324 2590.800000000001
    vertex -2923.7740984338734 4490.324261104324 2607.3827467430115
  endloop
endfacet
facet normal -1.0 1.6691570781744189e-16 8.263292038159166e-17
  outer loop
    vertex -2923.7740984338734 4490.324261104324 2607.3827467430115
    vertex -2923.7740984338734 4707.281726604324 2590.800000000001
    vertex -2923.7740984338734 4574.9905891043245 2477.207746743004
  endloop
endfacet
facet normal -1.0 1.6691570781744189e-16 8.263292038159166e-17
  outer loop
    vertex -2923.7740984338734 4490.324261104324 2607.3827467430115
    vertex -2923.7740984338734 4574.9905891043245 2477.207746743004
    vertex -2923.7740984338734 4490.324261104324 152.40000000000066
  endloop
endfacet
facet normal -1.0 1.6691570781744189e-16 8.263292038159166e-17
  outer loop
    vertex -2923.7740984338734 4574.9905891043245 2477.207746743004
    vertex -2923.7740984338734 4707.281726604324 2590.800000000001
    vertex -2923.7740984338734 4707.281726604324 2477.207746743004
  endloop
endfacet
facet normal -1.0 1.6691570781744189e-16 8.263292038159166e-17
  outer loop
    vertex -2923.7740984338743 1537.5860721043246 152.40000000000072
    vertex -2923.7740984338743 1452.919744104324 152.40000000000072
    vertex -2923.7740984338743 1537.5860721043246 2607.382746743012
  endloop
endfacet
facet normal 0.0 0.0 1.0
  outer loop
    vertex -434.57409843387325 4553.824007104324 1563.3828363175637
    vertex -993.3740984338735 4574.9905891043245 1563.3828363175637
    vertex -993.3740984338735 4553.824007104324 1563.3828363175637
  endloop
endfacet
facet normal 0.0 0.0 1.0
  outer loop
    vertex -993.3740984338735 4574.9905891043245 1563.3828363175637
    vertex -434.57409843387325 4553.824007104324 1563.3828363175637
    vertex -434.57409843387325 4574.9905891043245 1563.3828363175637
  endloop
endfacet
facet normal -1.0 0.0 0.0
  outer loop
    vertex -434.57409843387325 4574.9905891043245 2070.807746743003
    vertex -434.57409843387325 4553.824007104324 1563.3828363175637
    vertex -434.57409843387325 4553.824007104324 2070.807746743003
  endloop
endfacet
facet normal -1.0 0.0 0.0
  outer loop
    vertex -434.57409843387325 4553.824007104324 1563.3828363175637
    vertex -434.57409843387325 4574.9905891043245 2070.807746743003
    vertex -434.57409843387325 4574.9905891043245 1563.3828363175637
  endloop
endfacet
facet normal 0.0 1.0 0.0
  outer loop
    vertex -2923.7740984338734 3279.5961771043244 2286.0000000000005
    vertex -2771.3740984338733 3279.5961771043244 1371.6000000000006
    vertex -2923.7740984338734 3279.5961771043244 1371.6000000000006
  endloop
endfacet
facet normal 0.0 1.0 0.0
  outer loop
    vertex -2771.3740984338733 3279.5961771043244 1371.6000000000006
    vertex -2923.7740984338734 3279.5961771043244 2286.0000000000005
    vertex -2822.1740984338735 3279.5961771043244 1828.8000000000006
  endloop
endfacet
facet normal 0.0 1.0 0.0
  outer loop
    vertex -2822.1740984338735 3279.5961771043244 1828.8000000000006
    vertex -2923.7740984338734 3279.5961771043244 2286.0000000000005
    vertex -2822.1740984338735 3279.5961771043244 2286.0000000000005
  endloop
endfacet
facet normal 0.0 1.0 0.0
  outer loop
    vertex -2771.3740984338733 3279.5961771043244 1828.8000000000006
    vertex -2771.3740984338733 3279.5961771043244 1371.6000000000006
    vertex -2822.1740984338735 3279.5961771043244 1828.8000000000006
  endloop
endfacet
facet normal -1.7215824419888408e-16 -2.348664559139464e-31 -1.0
  outer loop
    vertex 632.2259015661256 1474.086326104324 2477.207746743011
    vertex -2822.1740984338744 1452.919744104324 2477.207746743011
    vertex -2822.1740984338744 1474.0863261043241 2477.207746743011
  endloop
endfacet
facet normal -1.7215824419888408e-16 -2.348664559139464e-31 -1.0
  outer loop
    vertex -2822.1740984338744 1452.919744104324 2477.207746743011
    vertex -2923.774098433874 1320.6286066043244 2477.207746743011
    vertex -2923.7740984338743 1452.919744104324 2477.207746743011
  endloop
endfacet
facet normal -1.7215824419888408e-16 -2.348664559139464e-31 -1.0
  outer loop
    vertex -2923.774098433874 1320.6286066043244 2477.207746743011
    vertex -2822.1740984338744 1452.919744104324 2477.207746743011
    vertex 733.8259015661256 1320.628606604324 2477.20774674301
  endloop
endfacet
facet normal -1.7215824419888408e-16 -2.348664559139464e-31 -1.0
  outer loop
    vertex 733.8259015661256 1320.628606604324 2477.20774674301
    vertex -2822.1740984338744 1452.919744104324 2477.207746743011
    vertex 632.2259015661256 1452.9197441043239 2477.207746743011
  endloop
endfacet
facet normal -1.7215824419888408e-16 -2.348664559139464e-31 -1.0
  outer loop
    vertex 632.2259015661256 1452.9197441043239 2477.207746743011
    vertex -2822.1740984338744 1452.919744104324 2477.207746743011
    vertex 632.2259015661256 1474.086326104324 2477.207746743011
  endloop
endfacet
facet normal -1.7215824419888408e-16 -2.348664559139464e-31 -1.0
  outer loop
    vertex 733.8259015661256 1320.628606604324 2477.20774674301
    vertex 632.2259015661256 1452.9197441043239 2477.207746743011
    vertex 733.8259015661256 1452.9197441043239 2477.20774674301
  endloop
endfacet
facet normal 0.0 0.0 -1.0
  outer loop
    vertex -2898.374098433874 2832.980484104324 1270.0000000000007
    vertex -2923.7740984338743 1833.9182201043243 1270.0000000000007
    vertex -2923.7740984338743 2832.980484104324 1270.0000000000007
  endloop
endfacet
facet normal 0.0 0.0 -1.0
  outer loop
    vertex -2923.7740984338743 1833.9182201043243 1270.0000000000007
    vertex -2898.374098433874 2832.980484104324 1270.0000000000007
    vertex -2898.374098433874 1833.9182201043243 1270.0000000000007
  endloop
endfacet
facet normal 1.5776707507164462e-15 0.44490235619850277 -0.8955790827442436
  outer loop
    vertex 708.4259015661271 3013.955166604324 3340.8077467430144
    vertex 733.8259015661264 1537.5860721043236 2607.3827467430106
    vertex 708.4259015661263 1537.5860721043236 2607.3827467430106
  endloop
endfacet
facet normal 1.5776707507164462e-15 0.44490235619850277 -0.8955790827442436
  outer loop
    vertex 733.8259015661264 1537.5860721043236 2607.3827467430106
    vertex 708.4259015661271 3013.955166604324 3340.8077467430144
    vertex 733.8259015661271 3013.955166604324 3340.8077467430144
  endloop
endfacet
facet normal -1.0 0.0 0.0
  outer loop
    vertex -1196.5740984338731 4574.9905891043245 1461.7828363175638
    vertex -1196.5740984338731 4553.824007104324 739.8968488707246
    vertex -1196.5740984338731 4553.824007104324 1461.7828363175638
  endloop
endfacet
facet normal -1.0 0.0 0.0
  outer loop
    vertex -1196.5740984338731 4553.824007104324 739.8968488707246
    vertex -1196.5740984338731 4574.9905891043245 1461.7828363175638
    vertex -1196.5740984338731 4574.9905891043245 739.8968488707246
  endloop
endfacet
facet normal 0.0 1.0 0.0
  outer loop
    vertex 708.4259015661263 1537.5860721043236 2607.3827467430106
    vertex 733.8259015661256 1537.5860721043236 152.39999999999998
    vertex 708.4259015661256 1537.5860721043236 152.39999999999998
  endloop
endfacet
facet normal 0.0 1.0 0.0
  outer loop
    vertex 733.8259015661256 1537.5860721043236 152.39999999999998
    vertex 708.4259015661263 1537.5860721043236 2607.3827467430106
    vertex 733.8259015661264 1537.5860721043236 2607.3827467430106
  endloop
endfacet
facet normal 0.0 0.0 1.0
  outer loop
    vertex -2898.374098433874 1833.9182201043243 2387.6000000000004
    vertex -2923.7740984338743 2832.980484104324 2387.6000000000004
    vertex -2923.7740984338743 1833.9182201043243 2387.6000000000004
  endloop
endfacet
facet normal 0.0 0.0 1.0
  outer loop
    vertex -2923.7740984338743 2832.980484104324 2387.6000000000004
    vertex -2898.374098433874 1833.9182201043243 2387.6000000000004
    vertex -2898.374098433874 2832.980484104324 2387.6000000000004
  endloop
endfacet
facet normal 2.2204460492502973e-16 -5.329091834568071e-16 -1.0
  outer loop
    vertex -2822.1740984338744 1495.2529081043244 152.40000000000063
    vertex -2872.9740984338746 1452.919744104324 152.40000000000066
    vertex -2872.9740984338746 1495.2529081043244 152.4000000000006
  endloop
endfacet
facet normal 2.2204460492502973e-16 -5.329091834568071e-16 -1.0
  outer loop
    vertex -2872.9740984338746 1452.919744104324 152.40000000000066
    vertex -2822.1740984338744 1495.2529081043244 152.40000000000063
    vertex -2822.1740984338744 1452.919744104324 152.40000000000066
  endloop
endfacet
facet normal 2.2204460492502973e-16 -5.329091834568071e-16 -1.0
  outer loop
    vertex -2822.1740984338744 1452.919744104324 152.40000000000066
    vertex -2822.1740984338744 1495.2529081043244 152.40000000000063
    vertex -2822.1740984338744 1474.0863261043241 152.40000000000066
  endloop
endfacet
facet normal -1.298980443022288e-16 8.246933450020557e-16 -1.0
  outer loop
    vertex -332.9740984338736 4574.9905891043245 152.40000000000012
    vertex -1856.9740984338732 4553.824007104324 152.40000000000032
    vertex -1856.9740984338732 4574.9905891043245 152.40000000000032
  endloop
endfacet
facet normal -1.298980443022288e-16 8.246933450020557e-16 -1.0
  outer loop
    vertex -1856.9740984338732 4553.824007104324 152.40000000000032
    vertex -2822.1740984338735 4532.657425104325 152.40000000000043
    vertex -2822.1740984338735 4553.824007104325 152.40000000000043
  endloop
endfacet
facet normal -1.298980443022288e-16 8.246933450020557e-16 -1.0
  outer loop
    vertex -2822.1740984338735 4532.657425104325 152.40000000000043
    vertex -1856.9740984338732 4553.824007104324 152.40000000000032
    vertex 632.2259015661264 4532.657425104324 152.39999999999998
  endloop
endfacet
facet normal -1.298980443022288e-16 8.246933450020557e-16 -1.0
  outer loop
    vertex 632.2259015661264 4532.657425104324 152.39999999999998
    vertex -1856.9740984338732 4553.824007104324 152.40000000000032
    vertex -332.9740984338736 4553.824007104324 152.40000000000012
  endloop
endfacet
facet normal -1.298980443022288e-16 8.246933450020557e-16 -1.0
  outer loop
    vertex -332.9740984338736 4553.824007104324 152.40000000000012
    vertex -1856.9740984338732 4553.824007104324 152.40000000000032
    vertex -332.9740984338736 4574.9905891043245 152.40000000000012
  endloop
endfacet
facet normal -1.298980443022288e-16 8.246933450020557e-16 -1.0
  outer loop
    vertex 632.2259015661264 4532.657425104324 152.39999999999998
    vertex -332.9740984338736 4553.824007104324 152.40000000000012
    vertex 632.2259015661264 4553.824007104324 152.39999999999998
  endloop
endfacet
facet normal -1.0 0.0 0.0
  outer loop
    vertex -434.57409843387325 4574.9905891043245 1461.7828363175638
    vertex -434.57409843387325 4553.824007104324 739.8968488707245
    vertex -434.57409843387325 4553.824007104324 1461.7828363175638
  endloop
endfacet
facet normal -1.0 0.0 0.0
  outer loop
    vertex -434.57409843387325 4553.824007104324 739.8968488707245
    vertex -434.57409843387325 4574.9905891043245 1461.7828363175638
    vertex -434.57409843387325 4574.9905891043245 739.8968488707245
  endloop
endfacet
facet normal 1.0 0.0 0.0
  outer loop
    vertex -2822.1740984338735 4574.9905891043245 152.40000000000043
    vertex -2822.1740984338735 4553.824007104325 2477.207746743004
    vertex -2822.1740984338735 4553.824007104325 152.40000000000043
  endloop
endfacet
facet normal 1.0 0.0 0.0
  outer loop
    vertex -2822.1740984338735 4553.824007104325 2477.207746743004
    vertex -2822.1740984338735 4574.9905891043245 152.40000000000043
    vertex -2822.1740984338735 4574.9905891043245 2477.207746743004
  endloop
endfacet
facet normal -1.7215824419888403e-16 0.0 -1.0
  outer loop
    vertex 733.8259015661271 4707.281726604324 2477.207746743003
    vertex -2923.7740984338734 4574.9905891043245 2477.207746743004
    vertex -2923.7740984338734 4707.281726604324 2477.207746743004
  endloop
endfacet
facet normal -1.7215824419888403e-16 0.0 -1.0
  outer loop
    vertex -2923.7740984338734 4574.9905891043245 2477.207746743004
    vertex 733.8259015661271 4707.281726604324 2477.207746743003
    vertex -2822.1740984338735 4574.9905891043245 2477.207746743004
  endloop
endfacet
facet normal -1.7215824419888403e-16 0.0 -1.0
  outer loop
    vertex -2822.1740984338735 4574.9905891043245 2477.207746743004
    vertex 733.8259015661271 4707.281726604324 2477.207746743003
    vertex -2822.1740984338735 4553.824007104325 2477.207746743004
  endloop
endfacet
facet normal -1.7215824419888403e-16 0.0 -1.0
  outer loop
    vertex -2822.1740984338735 4553.824007104325 2477.207746743004
    vertex 733.8259015661271 4707.281726604324 2477.207746743003
    vertex 632.225901566127 4574.9905891043245 2477.207746743003
  endloop
endfacet
facet normal -1.7215824419888403e-16 0.0 -1.0
  outer loop
    vertex 632.225901566127 4574.9905891043245 2477.207746743003
    vertex 733.8259015661271 4707.281726604324 2477.207746743003
    vertex 733.8259015661271 4574.9905891043245 2477.207746743003
  endloop
endfacet
facet normal -1.7215824419888403e-16 0.0 -1.0
  outer loop
    vertex 632.225901566127 4553.824007104324 2477.207746743003
    vertex -2822.1740984338735 4553.824007104325 2477.207746743004
    vertex 632.225901566127 4574.9905891043245 2477.207746743003
  endloop
endfacet
facet normal -1.0 0.0 0.0
  outer loop
    vertex -2771.3740984338733 4109.3257851043245 1828.8000000000006
    vertex -2771.3740984338733 3279.5961771043244 1371.6000000000006
    vertex -2771.3740984338733 3279.5961771043244 1828.8000000000006
  endloop
endfacet
facet normal -1.0 0.0 0.0
  outer loop
    vertex -2771.3740984338733 3279.5961771043244 1371.6000000000006
    vertex -2771.3740984338733 4109.3257851043245 1828.8000000000006
    vertex -2771.3740984338733 4109.3257851043245 1371.6000000000006
  endloop
endfacet
facet normal 0.0 0.0 -1.0
  outer loop
    vertex -1196.5740984338731 4574.9905891043245 638.2968488707245
    vertex -1755.3740984338735 4553.824007104324 638.2968488707245
    vertex -1755.3740984338735 4574.9905891043245 638.2968488707245
  endloop
endfacet
facet normal 0.0 0.0 -1.0
  outer loop
    vertex -1755.3740984338735 4553.824007104324 638.2968488707245
    vertex -1196.5740984338731 4574.9905891043245 638.2968488707245
    vertex -1196.5740984338731 4553.824007104324 638.2968488707245
  endloop
endfacet
facet normal 0.0 0.0 1.0
  outer loop
    vertex -434.5740984338736 4553.824007104324 254.00000000000017
    vertex -993.3740984338735 4574.9905891043245 254.00000000000017
    vertex -993.3740984338735 4553.824007104324 254.00000000000017
  endloop
endfacet
facet normal 0.0 0.0 1.0
  outer loop
    vertex -993.3740984338735 4574.9905891043245 254.00000000000017
    vertex -434.5740984338736 4553.824007104324 254.00000000000017
    vertex -434.5740984338736 4574.9905891043245 254.00000000000017
  endloop
endfacet
facet normal 0.0 1.0 0.0
  outer loop
    vertex -993.3740984338735 4574.9905891043245 1563.3828363175637
    vertex -1145.7740984338732 4574.9905891043245 1563.382836317564
    vertex -993.3740984338735 4574.9905891043245 2070.807746743003
  endloop
endfacet
facet normal 0.0 1.0 0.0
  outer loop
    vertex -1145.7740984338732 4574.9905891043245 1563.382836317564
    vertex -993.3740984338735 4574.9905891043245 1563.3828363175637
    vertex -1755.374098433873 4574.9905891043245 1563.382836317564
  endloop
endfacet
facet normal 0.0 1.0 0.0
  outer loop
    vertex -993.3740984338735 4574.9905891043245 2070.807746743003
    vertex -1145.7740984338732 4574.9905891043245 1563.382836317564
    vertex -1145.7740984338732 4574.9905891043245 2070.8077467430035
  endloop
endfacet
facet normal 0.0 1.0 0.0
  outer loop
    vertex -993.3740984338735 4574.9905891043245 2070.807746743003
    vertex -1145.7740984338732 4574.9905891043245 2070.8077467430035
    vertex -434.57409843387325 4574.9905891043245 2070.807746743003
  endloop
endfacet
facet normal 0.0 1.0 0.0
  outer loop
    vertex -1856.9740984338732 4574.9905891043245 152.40000000000032
    vertex -1755.3740984338735 4574.9905891043245 254.00000000000034
    vertex -993.3740984338735 4574.9905891043245 254.00000000000017
  endloop
endfacet
facet normal 0.0 1.0 0.0
  outer loop
    vertex -1755.3740984338735 4574.9905891043245 254.00000000000034
    vertex -1856.9740984338732 4574.9905891043245 152.40000000000032
    vertex -1856.9740984338728 4574.9905891043245 2172.407746743004
  endloop
endfacet
facet normal 0.0 1.0 0.0
  outer loop
    vertex -1755.3740984338735 4574.9905891043245 254.00000000000034
    vertex -1856.9740984338728 4574.9905891043245 2172.407746743004
    vertex -1755.3740984338735 4574.9905891043245 638.2968488707245
  endloop
endfacet
facet normal 0.0 1.0 0.0
  outer loop
    vertex -1755.3740984338735 4574.9905891043245 638.2968488707245
    vertex -1856.9740984338728 4574.9905891043245 2172.407746743004
    vertex -1755.3740984338735 4574.9905891043245 739.8968488707246
  endloop
endfacet
facet normal 0.0 1.0 0.0
  outer loop
    vertex -1755.3740984338735 4574.9905891043245 638.2968488707245
    vertex -1755.3740984338735 4574.9905891043245 739.8968488707246
    vertex -1196.5740984338731 4574.9905891043245 638.2968488707245
  endloop
endfacet
facet normal 0.0 1.0 0.0
  outer loop
    vertex -1196.5740984338731 4574.9905891043245 638.2968488707245
    vertex -1755.3740984338735 4574.9905891043245 739.8968488707246
    vertex -993.3740984338735 4574.9905891043245 739.8968488707245
  endloop
endfacet
facet normal 0.0 1.0 0.0
  outer loop
    vertex -1755.3740984338735 4574.9905891043245 739.8968488707246
    vertex -1856.9740984338728 4574.9905891043245 2172.407746743004
    vertex -1755.3740984338735 4574.9905891043245 1461.7828363175638
  endloop
endfacet
facet normal 0.0 1.0 0.0
  outer loop
    vertex -1755.3740984338735 4574.9905891043245 1461.7828363175638
    vertex -1856.9740984338728 4574.9905891043245 2172.407746743004
    vertex -1755.374098433873 4574.9905891043245 1563.382836317564
  endloop
endfacet
facet normal 0.0 1.0 0.0
  outer loop
    vertex -1755.3740984338735 4574.9905891043245 1461.7828363175638
    vertex -1755.374098433873 4574.9905891043245 1563.382836317564
    vertex -1196.5740984338731 4574.9905891043245 1461.7828363175638
  endloop
endfacet
facet normal 0.0 1.0 0.0
  outer loop
    vertex -1196.5740984338731 4574.9905891043245 1461.7828363175638
    vertex -1755.374098433873 4574.9905891043245 1563.382836317564
    vertex -993.3740984338735 4574.9905891043245 1563.3828363175637
  endloop
endfacet
facet normal 0.0 1.0 0.0
  outer loop
    vertex -1755.374098433873 4574.9905891043245 1563.382836317564
    vertex -1856.9740984338728 4574.9905891043245 2172.407746743004
    vertex -1755.374098433873 4574.9905891043245 2070.8077467430035
  endloop
endfacet
facet normal 0.0 1.0 0.0
  outer loop
    vertex -1755.374098433873 4574.9905891043245 2070.8077467430035
    vertex -1856.9740984338728 4574.9905891043245 2172.407746743004
    vertex -1145.7740984338732 4574.9905891043245 2070.8077467430035
  endloop
endfacet
facet normal 0.0 1.0 0.0
  outer loop
    vertex -1145.7740984338732 4574.9905891043245 2070.8077467430035
    vertex -1856.9740984338728 4574.9905891043245 2172.407746743004
    vertex -332.9740984338732 4574.9905891043245 2172.4077467430034
  endloop
endfacet
facet normal 0.0 1.0 0.0
  outer loop
    vertex -332.9740984338736 4574.9905891043245 152.40000000000012
    vertex -434.5740984338736 4574.9905891043245 254.00000000000017
    vertex -332.9740984338732 4574.9905891043245 2172.4077467430034
  endloop
endfacet
facet normal 0.0 1.0 0.0
  outer loop
    vertex -434.5740984338736 4574.9905891043245 254.00000000000017
    vertex -332.9740984338736 4574.9905891043245 152.40000000000012
    vertex -1856.9740984338732 4574.9905891043245 152.40000000000032
  endloop
endfacet
facet normal 0.0 1.0 0.0
  outer loop
    vertex -434.5740984338736 4574.9905891043245 254.00000000000017
    vertex -1856.9740984338732 4574.9905891043245 152.40000000000032
    vertex -993.3740984338735 4574.9905891043245 254.00000000000017
  endloop
endfacet
facet normal 0.0 1.0 0.0
  outer loop
    vertex -332.9740984338732 4574.9905891043245 2172.4077467430034
    vertex -434.5740984338736 4574.9905891043245 254.00000000000017
    vertex -434.5740984338736 4574.9905891043245 638.2968488707245
  endloop
endfacet
facet normal 0.0 1.0 0.0
  outer loop
    vertex -332.9740984338732 4574.9905891043245 2172.4077467430034
    vertex -434.5740984338736 4574.9905891043245 638.2968488707245
    vertex -434.57409843387325 4574.9905891043245 739.8968488707245
  endloop
endfacet
facet normal 0.0 1.0 0.0
  outer loop
    vertex -434.57409843387325 4574.9905891043245 739.8968488707245
    vertex -434.5740984338736 4574.9905891043245 638.2968488707245
    vertex -1196.5740984338731 4574.9905891043245 638.2968488707245
  endloop
endfacet
facet normal 0.0 1.0 0.0
  outer loop
    vertex -434.57409843387325 4574.9905891043245 739.8968488707245
    vertex -1196.5740984338731 4574.9905891043245 638.2968488707245
    vertex -993.3740984338735 4574.9905891043245 739.8968488707245
  endloop
endfacet
facet normal 0.0 1.0 0.0
  outer loop
    vertex -332.9740984338732 4574.9905891043245 2172.4077467430034
    vertex -434.57409843387325 4574.9905891043245 739.8968488707245
    vertex -434.57409843387325 4574.9905891043245 1461.7828363175638
  endloop
endfacet
facet normal 0.0 1.0 0.0
  outer loop
    vertex -332.9740984338732 4574.9905891043245 2172.4077467430034
    vertex -434.57409843387325 4574.9905891043245 1461.7828363175638
    vertex -434.57409843387325 4574.9905891043245 1563.3828363175637
  endloop
endfacet
facet normal 0.0 1.0 0.0
  outer loop
    vertex -434.57409843387325 4574.9905891043245 1563.3828363175637
    vertex -434.57409843387325 4574.9905891043245 1461.7828363175638
    vertex -1196.5740984338731 4574.9905891043245 1461.7828363175638
  endloop
endfacet
facet normal 0.0 1.0 0.0
  outer loop
    vertex -434.57409843387325 4574.9905891043245 1563.3828363175637
    vertex -1196.5740984338731 4574.9905891043245 1461.7828363175638
    vertex -993.3740984338735 4574.9905891043245 1563.3828363175637
  endloop
endfacet
facet normal 0.0 1.0 0.0
  outer loop
    vertex -332.9740984338732 4574.9905891043245 2172.4077467430034
    vertex -434.57409843387325 4574.9905891043245 1563.3828363175637
    vertex -434.57409843387325 4574.9905891043245 2070.807746743003
  endloop
endfacet
facet normal 0.0 1.0 0.0
  outer loop
    vertex -332.9740984338732 4574.9905891043245 2172.4077467430034
    vertex -434.57409843387325 4574.9905891043245 2070.807746743003
    vertex -1145.7740984338732 4574.9905891043245 2070.8077467430035
  endloop
endfacet
facet normal 0.0 1.0 0.0
  outer loop
    vertex -993.3740984338735 4574.9905891043245 739.8968488707245
    vertex -1196.5740984338731 4574.9905891043245 739.8968488707246
    vertex -993.3740984338735 4574.9905891043245 1461.7828363175638
  endloop
endfacet
facet normal 0.0 1.0 0.0
  outer loop
    vertex -1196.5740984338731 4574.9905891043245 739.8968488707246
    vertex -993.3740984338735 4574.9905891043245 739.8968488707245
    vertex -1755.3740984338735 4574.9905891043245 739.8968488707246
  endloop
endfacet
facet normal 0.0 1.0 0.0
  outer loop
    vertex -993.3740984338735 4574.9905891043245 1461.7828363175638
    vertex -1196.5740984338731 4574.9905891043245 739.8968488707246
    vertex -1196.5740984338731 4574.9905891043245 1461.7828363175638
  endloop
endfacet
facet normal 0.0 1.0 0.0
  outer loop
    vertex -993.3740984338735 4574.9905891043245 1461.7828363175638
    vertex -1196.5740984338731 4574.9905891043245 1461.7828363175638
    vertex -434.57409843387325 4574.9905891043245 1461.7828363175638
  endloop
endfacet
facet normal 0.0 1.0 0.0
  outer loop
    vertex -993.3740984338735 4574.9905891043245 254.00000000000017
    vertex -1196.5740984338731 4574.9905891043245 254.00000000000034
    vertex -993.3740984338735 4574.9905891043245 638.2968488707245
  endloop
endfacet
facet normal 0.0 1.0 0.0
  outer loop
    vertex -1196.5740984338731 4574.9905891043245 254.00000000000034
    vertex -993.3740984338735 4574.9905891043245 254.00000000000017
    vertex -1755.3740984338735 4574.9905891043245 254.00000000000034
  endloop
endfacet
facet normal 0.0 1.0 0.0
  outer loop
    vertex -993.3740984338735 4574.9905891043245 638.2968488707245
    vertex -1196.5740984338731 4574.9905891043245 254.00000000000034
    vertex -1196.5740984338731 4574.9905891043245 638.2968488707245
  endloop
endfacet
facet normal 0.0 1.0 0.0
  outer loop
    vertex -993.3740984338735 4574.9905891043245 638.2968488707245
    vertex -1196.5740984338731 4574.9905891043245 638.2968488707245
    vertex -434.5740984338736 4574.9905891043245 638.2968488707245
  endloop
endfacet
facet normal 0.0 1.0 0.0
  outer loop
    vertex -2923.7740984338734 4193.992113104325 2387.6000000000004
    vertex -2898.3740984338733 4193.992113104325 1270.0000000000007
    vertex -2923.7740984338734 4193.992113104325 1270.0000000000007
  endloop
endfacet
facet normal 0.0 1.0 0.0
  outer loop
    vertex -2898.3740984338733 4193.992113104325 1270.0000000000007
    vertex -2923.7740984338734 4193.992113104325 2387.6000000000004
    vertex -2898.3740984338733 4193.992113104325 2387.6000000000004
  endloop
endfacet
facet normal -1.0 0.0 0.0
  outer loop
    vertex -2822.1740984338735 4109.3257851043245 2286.0000000000005
    vertex -2822.1740984338735 3279.5961771043244 1828.8000000000006
    vertex -2822.1740984338735 3279.5961771043244 2286.0000000000005
  endloop
endfacet
facet normal -1.0 0.0 0.0
  outer loop
    vertex -2822.1740984338735 3279.5961771043244 1828.8000000000006
    vertex -2822.1740984338735 4109.3257851043245 2286.0000000000005
    vertex -2822.1740984338735 4109.3257851043245 1828.8000000000006
  endloop
endfacet
facet normal 0.0 -1.0 0.0
  outer loop
    vertex -2898.374098433874 1833.9182201043243 2387.6000000000004
    vertex -2923.7740984338743 1833.9182201043243 1270.0000000000007
    vertex -2898.374098433874 1833.9182201043243 1270.0000000000007
  endloop
endfacet
facet normal 0.0 -1.0 0.0
  outer loop
    vertex -2923.7740984338743 1833.9182201043243 1270.0000000000007
    vertex -2898.374098433874 1833.9182201043243 2387.6000000000004
    vertex -2923.7740984338743 1833.9182201043243 2387.6000000000004
  endloop
endfacet
endsolid shed
