solid Spatula-Spoon_FINALTest_v17
facet normal 1.0 0.0 0.0
  outer loop
    vertex 55.97867798939367 -0.0016007607222744634 -0.11754423493393484
    vertex 55.97867798939367 3.4137467392778356 7.937499999999986
    vertex 55.97867798939367 -0.0016007607222744634 24.266455765066056
  endloop
endfacet
facet normal 1.0 0.0 0.0
  outer loop
    vertex 55.97867798939367 3.4137467392778356 7.937499999999986
    vertex 55.97867798939367 -0.0016007607222744634 -0.11754423493393484
    vertex 55.97867798939367 48.194899239277724 -0.11754423493393484
  endloop
endfacet
facet normal 1.0 0.0 0.0
  outer loop
    vertex 55.97867798939367 3.4137467392778356 7.937499999999986
    vertex 55.97867798939367 48.194899239277724 -0.11754423493393484
    vertex 55.97867798939367 45.019899239277755 7.937499999999986
  endloop
endfacet
facet normal 1.0 0.0 0.0
  outer loop
    vertex 55.97867798939367 45.019899239277755 7.937499999999986
    vertex 55.97867798939367 48.194899239277724 -0.11754423493393484
    vertex 55.97867798939367 45.019899239277755 19.824556393864608
  endloop
endfacet
facet normal 1.0 0.0 0.0
  outer loop
    vertex 55.97867798939367 -0.0016007607222744634 24.266455765066056
    vertex 55.97867798939367 3.4137467392778356 19.824556393864608
    vertex 55.97867798939367 48.194899239277724 24.266455765066056
  endloop
endfacet
facet normal 1.0 0.0 0.0
  outer loop
    vertex 55.97867798939367 3.4137467392778356 19.824556393864608
    vertex 55.97867798939367 -0.0016007607222744634 24.266455765066056
    vertex 55.97867798939367 3.4137467392778356 7.937499999999986
  endloop
endfacet
facet normal 1.0 0.0 0.0
  outer loop
    vertex 55.97867798939367 48.194899239277724 24.266455765066056
    vertex 55.97867798939367 3.4137467392778356 19.824556393864608
    vertex 55.97867798939367 45.019899239277755 19.824556393864608
  endloop
endfacet
facet normal 1.0 0.0 0.0
  outer loop
    vertex 55.97867798939367 48.194899239277724 24.266455765066056
    vertex 55.97867798939367 45.019899239277755 19.824556393864608
    vertex 55.97867798939367 48.194899239277724 -0.11754423493393484
  endloop
endfacet
facet normal 0.0 1.0 0.0
  outer loop
    vertex 13.904374206942753 3.4137467392778356 7.9374999999999885
    vertex 55.97867798939367 3.4137467392778356 19.824556393864608
    vertex 55.97867798939367 3.4137467392778356 7.937499999999986
  endloop
endfacet
facet normal 0.0 1.0 0.0
  outer loop
    vertex 55.97867798939367 3.4137467392778356 19.824556393864608
    vertex 13.904374206942753 3.4137467392778356 7.9374999999999885
    vertex 13.904374206942753 3.4137467392778356 8.929824024999988
  endloop
endfacet
facet normal 0.0 -1.0 0.0
  outer loop
    vertex 55.97867798939367 -0.0016007607222744634 24.266455765066056
    vertex 0.41617798939364703 -0.0016007607222744634 -0.11754423493393484
    vertex 55.97867798939367 -0.0016007607222744634 -0.11754423493393484
  endloop
endfacet
facet normal 0.0 -1.0 0.0
  outer loop
    vertex 0.41617798939364703 -0.0016007607222744634 -0.11754423493393484
    vertex 55.97867798939367 -0.0016007607222744634 24.266455765066056
    vertex 0.41617798939364703 -0.0016007607222744634 24.266455765066056
  endloop
endfacet
facet normal 0.0 1.0 0.0
  outer loop
    vertex 0.41617798939364703 48.194899239277724 24.266455765066056
    vertex 55.97867798939367 48.194899239277724 -0.11754423493393484
    vertex 0.41617798939364703 48.194899239277724 -0.11754423493393484
  endloop
endfacet
facet normal 0.0 1.0 0.0
  outer loop
    vertex 55.97867798939367 48.194899239277724 -0.11754423493393484
    vertex 0.41617798939364703 48.194899239277724 24.266455765066056
    vertex 55.97867798939367 48.194899239277724 24.266455765066056
  endloop
endfacet
facet normal 0.0 0.0 1.0
  outer loop
    vertex 55.97867798939367 -0.0016007607222744634 24.266455765066056
    vertex 0.41617798939364703 48.194899239277724 24.266455765066056
    vertex 0.41617798939364703 -0.0016007607222744634 24.266455765066056
  endloop
endfacet
facet normal 0.0 0.0 1.0
  outer loop
    vertex 0.41617798939364703 48.194899239277724 24.266455765066056
    vertex 55.97867798939367 -0.0016007607222744634 24.266455765066056
    vertex 55.97867798939367 48.194899239277724 24.266455765066056
  endloop
endfacet
facet normal 0.0 -1.0 0.0
  outer loop
    vertex 55.97867798939367 45.019899239277755 19.824556393864608
    vertex 13.904374206942753 45.019899239277755 7.9374999999999885
    vertex 55.97867798939367 45.019899239277755 7.937499999999986
  endloop
endfacet
facet normal 0.0 -1.0 0.0
  outer loop
    vertex 13.904374206942753 45.019899239277755 7.9374999999999885
    vertex 55.97867798939367 45.019899239277755 19.824556393864608
    vertex 13.904374206942753 45.019899239277755 8.929824024999988
  endloop
endfacet
facet normal 3.351174266755298e-17 0.0 1.0
  outer loop
    vertex 55.97867798939367 3.4137467392778356 7.937499999999986
    vertex 13.904374206942753 45.019899239277755 7.9374999999999885
    vertex 13.904374206942753 3.4137467392778356 7.9374999999999885
  endloop
endfacet
facet normal 3.351174266755298e-17 0.0 1.0
  outer loop
    vertex 13.904374206942753 45.019899239277755 7.9374999999999885
    vertex 55.97867798939367 3.4137467392778356 7.937499999999986
    vertex 55.97867798939367 45.019899239277755 7.937499999999986
  endloop
endfacet
facet normal 0.25067280914829154 2.0028118591214255e-17 -0.9680718685891582
  outer loop
    vertex 55.97867798939367 45.019899239277755 19.824556393864608
    vertex 13.904374206942753 3.4137467392778356 8.929824024999988
    vertex 13.904374206942753 45.019899239277755 8.929824024999988
  endloop
endfacet
facet normal 0.25067280914829154 2.0028118591214255e-17 -0.9680718685891582
  outer loop
    vertex 13.904374206942753 3.4137467392778356 8.929824024999988
    vertex 55.97867798939367 45.019899239277755 19.824556393864608
    vertex 55.97867798939367 3.4137467392778356 19.824556393864608
  endloop
endfacet
facet normal 0.0 0.0 -1.0
  outer loop
    vertex 55.97867798939367 48.194899239277724 -0.11754423493393484
    vertex 0.41617798939364703 -0.0016007607222744634 -0.11754423493393484
    vertex 0.41617798939364703 48.194899239277724 -0.11754423493393484
  endloop
endfacet
facet normal 0.0 0.0 -1.0
  outer loop
    vertex 0.41617798939364703 -0.0016007607222744634 -0.11754423493393484
    vertex 55.97867798939367 48.194899239277724 -0.11754423493393484
    vertex 55.97867798939367 -0.0016007607222744634 -0.11754423493393484
  endloop
endfacet
facet normal 1.0 0.0 0.0
  outer loop
    vertex 13.904374206942753 45.019899239277755 7.9374999999999885
    vertex 13.904374206942753 3.4137467392778356 8.929824024999988
    vertex 13.904374206942753 3.4137467392778356 7.9374999999999885
  endloop
endfacet
facet normal 1.0 0.0 0.0
  outer loop
    vertex 13.904374206942753 3.4137467392778356 8.929824024999988
    vertex 13.904374206942753 45.019899239277755 7.9374999999999885
    vertex 13.904374206942753 45.019899239277755 8.929824024999988
  endloop
endfacet
facet normal -1.0 0.0 0.0
  outer loop
    vertex 0.41617798939364703 48.194899239277724 24.266455765066056
    vertex 0.41617798939364703 -0.0016007607222744634 -0.11754423493393484
    vertex 0.41617798939364703 -0.0016007607222744634 24.266455765066056
  endloop
endfacet
facet normal -1.0 0.0 0.0
  outer loop
    vertex 0.41617798939364703 -0.0016007607222744634 -0.11754423493393484
    vertex 0.41617798939364703 48.194899239277724 24.266455765066056
    vertex 0.41617798939364703 48.194899239277724 -0.11754423493393484
  endloop
endfacet
endsolid Spatula-Spoon_FINALTest_v17
