solid Spatula-Spoon_FINALTest_v17
facet normal 0.0 -1.0 0.0
  outer loop
    vertex 125.16492929417097 -0.01478331662767518 11.595072019851939
    vertex 83.01017489417104 -0.01478331662767518 -0.31281628014803997
    vertex 125.16492929417097 -0.01478331662767518 -0.31281628014803997
  endloop
endfacet
facet normal 0.0 -1.0 0.0
  outer loop
    vertex 83.01017489417104 -0.01478331662767518 -0.31281628014803997
    vertex 125.16492929417097 -0.01478331662767518 11.595072019851939
    vertex 83.01017489417104 -0.01478331662767518 0.6795077448519596
  endloop
endfacet
facet normal 0.0 1.0 0.0
  outer loop
    vertex 83.01017489417104 41.591369183372244 0.6795077448519596
    vertex 125.16492929417097 41.591369183372244 -0.31281628014803997
    vertex 83.01017489417104 41.591369183372244 -0.31281628014803997
  endloop
endfacet
facet normal 0.0 1.0 0.0
  outer loop
    vertex 125.16492929417097 41.591369183372244 -0.31281628014803997
    vertex 83.01017489417104 41.591369183372244 0.6795077448519596
    vertex 125.16492929417097 41.591369183372244 11.595072019851939
  endloop
endfacet
facet normal -0.19577205333752898 0.0 0.9806494292722592
  outer loop
    vertex 125.16492929417097 -0.01478331662767518 11.595072019851939
    vertex 83.01017489417104 41.591369183372244 0.6795077448519596
    vertex 83.01017489417104 -0.01478331662767518 0.6795077448519596
  endloop
endfacet
facet normal -0.19577205333752898 0.0 0.9806494292722592
  outer loop
    vertex 83.01017489417104 41.591369183372244 0.6795077448519596
    vertex 125.16492929417097 -0.01478331662767518 11.595072019851939
    vertex 125.16492929417097 41.591369183372244 11.595072019851939
  endloop
endfacet
facet normal 0.0 0.0 -1.0
  outer loop
    vertex 125.16492929417097 41.591369183372244 -0.31281628014803997
    vertex 83.01017489417104 -0.01478331662767518 -0.31281628014803997
    vertex 83.01017489417104 41.591369183372244 -0.31281628014803997
  endloop
endfacet
facet normal 0.0 0.0 -1.0
  outer loop
    vertex 83.01017489417104 -0.01478331662767518 -0.31281628014803997
    vertex 125.16492929417097 41.591369183372244 -0.31281628014803997
    vertex 125.16492929417097 -0.01478331662767518 -0.31281628014803997
  endloop
endfacet
facet normal 1.0 0.0 0.0
  outer loop
    vertex 125.16492929417097 -0.01478331662767518 -0.31281628014803997
    vertex 125.16492929417097 3.9614279333723172 4.146010256788102
    vertex 125.16492929417097 -0.01478331662767518 11.595072019851939
  endloop
endfacet
facet normal 1.0 0.0 0.0
  outer loop
    vertex 125.16492929417097 3.9614279333723172 4.146010256788102
    vertex 125.16492929417097 -0.01478331662767518 -0.31281628014803997
    vertex 125.16492929417097 41.591369183372244 -0.31281628014803997
  endloop
endfacet
facet normal 1.0 0.0 0.0
  outer loop
    vertex 125.16492929417097 3.9614279333723172 4.146010256788102
    vertex 125.16492929417097 41.591369183372244 -0.31281628014803997
    vertex 125.16492929417097 37.24634993337225 4.146010256788101
  endloop
endfacet
facet normal 1.0 0.0 0.0
  outer loop
    vertex 125.16492929417097 37.24634993337225 4.146010256788101
    vertex 125.16492929417097 41.591369183372244 -0.31281628014803997
    vertex 125.16492929417097 37.24634993337225 6.619210203941639
  endloop
endfacet
facet normal 1.0 0.0 0.0
  outer loop
    vertex 125.16492929417097 -0.01478331662767518 11.595072019851939
    vertex 125.16492929417097 3.9614279333723172 6.619210203941637
    vertex 125.16492929417097 41.591369183372244 11.595072019851939
  endloop
endfacet
facet normal 1.0 0.0 0.0
  outer loop
    vertex 125.16492929417097 3.9614279333723172 6.619210203941637
    vertex 125.16492929417097 -0.01478331662767518 11.595072019851939
    vertex 125.16492929417097 3.9614279333723172 4.146010256788102
  endloop
endfacet
facet normal 1.0 0.0 0.0
  outer loop
    vertex 125.16492929417097 41.591369183372244 11.595072019851939
    vertex 125.16492929417097 3.9614279333723172 6.619210203941637
    vertex 125.16492929417097 37.24634993337225 6.619210203941639
  endloop
endfacet
facet normal 1.0 0.0 0.0
  outer loop
    vertex 125.16492929417097 41.591369183372244 11.595072019851939
    vertex 125.16492929417097 37.24634993337225 6.619210203941639
    vertex 125.16492929417097 41.591369183372244 -0.31281628014803997
  endloop
endfacet
facet normal -1.0 0.0 0.0
  outer loop
    vertex 83.01017489417104 41.591369183372244 0.6795077448519596
    vertex 83.01017489417104 -0.01478331662767518 -0.31281628014803997
    vertex 83.01017489417104 -0.01478331662767518 0.6795077448519596
  endloop
endfacet
facet normal -1.0 0.0 0.0
  outer loop
    vertex 83.01017489417104 -0.01478331662767518 -0.31281628014803997
    vertex 83.01017489417104 41.591369183372244 0.6795077448519596
    vertex 83.01017489417104 41.591369183372244 -0.31281628014803997
  endloop
endfacet
facet normal 0.9963534959687784 0.0 0.0853212228627404
  outer loop
    vertex 91.85545950953379 37.246349933372244 1.293604251857695
    vertex 91.84187094607894 3.9614279333723172 1.4994266510546144
    vertex 91.85545950953379 3.9614279333723172 1.293604251857695
  endloop
endfacet
facet normal 0.9963534959687784 0.0 0.0853212228627404
  outer loop
    vertex 91.84187094607894 3.9614279333723172 1.4994266510546144
    vertex 91.85545950953379 37.246349933372244 1.293604251857695
    vertex 91.84187094607894 37.246349933372244 1.4994266510546144
  endloop
endfacet
facet normal -0.06587740403039573 1.860731258746678e-17 0.9978277244285287
  outer loop
    vertex 125.16492929417097 3.9614279333723172 4.146010256788102
    vertex 91.85545950953379 37.246349933372244 1.293604251857695
    vertex 91.85545950953379 3.9614279333723172 1.293604251857695
  endloop
endfacet
facet normal -0.06587740403039573 1.860731258746678e-17 0.9978277244285287
  outer loop
    vertex 91.85545950953379 37.246349933372244 1.293604251857695
    vertex 125.16492929417097 3.9614279333723172 4.146010256788102
    vertex 125.16492929417097 37.24634993337225 4.146010256788101
  endloop
endfacet
facet normal 0.0 1.0 0.0
  outer loop
    vertex 91.84187094607894 3.9614279333723172 1.4994266510546144
    vertex 125.16492929417097 3.9614279333723172 4.146010256788102
    vertex 91.85545950953379 3.9614279333723172 1.293604251857695
  endloop
endfacet
facet normal 0.0 1.0 0.0
  outer loop
    vertex 125.16492929417097 3.9614279333723172 4.146010256788102
    vertex 91.84187094607894 3.9614279333723172 1.4994266510546144
    vertex 125.16492929417097 3.9614279333723172 6.619210203941637
  endloop
endfacet
facet normal 0.11763008834912445 5.0730707768004556e-17 -0.9930574818785551
  outer loop
    vertex 125.16492929417097 37.24634993337225 6.619210203941639
    vertex 91.84187094607894 3.9614279333723172 1.4994266510546144
    vertex 91.84187094607894 37.246349933372244 1.4994266510546144
  endloop
endfacet
facet normal 0.11763008834912445 5.0730707768004556e-17 -0.9930574818785551
  outer loop
    vertex 91.84187094607894 3.9614279333723172 1.4994266510546144
    vertex 125.16492929417097 37.24634993337225 6.619210203941639
    vertex 125.16492929417097 3.9614279333723172 6.619210203941637
  endloop
endfacet
facet normal 1.0193314572001606e-16 -1.0 6.050925951664825e-20
  outer loop
    vertex 125.16492929417097 37.24634993337225 4.146010256788101
    vertex 91.84187094607894 37.246349933372244 1.4994266510546144
    vertex 91.85545950953379 37.246349933372244 1.293604251857695
  endloop
endfacet
facet normal 1.0193314572001606e-16 -1.0 6.050925951664825e-20
  outer loop
    vertex 91.84187094607894 37.246349933372244 1.4994266510546144
    vertex 125.16492929417097 37.24634993337225 4.146010256788101
    vertex 125.16492929417097 37.24634993337225 6.619210203941639
  endloop
endfacet
endsolid Spatula-Spoon_FINALTest_v17
