solid Untitled
facet normal -0.9559125061126384 0.08706444406378563 -0.2804479688593218
  outer loop
    vertex 2524.1669754531267 1254.1045240082854 169.87306825711346
    vertex 2474.679231633008 1210.925676702531 325.1482555158333
    vertex 2524.166975453125 1258.688698268939 171.29621489325652
  endloop
endfacet
facet normal -0.9559125061126384 0.08706444406378563 -0.2804479688593218
  outer loop
    vertex 2474.679231633008 1210.925676702531 325.1482555158333
    vertex 2524.1669754531267 1254.1045240082854 169.87306825711346
    vertex 2474.6792316330066 1206.341502441877 323.7251088796903
  endloop
endfacet
facet normal 2.168404344971009e-19 0.0007046845963728161 -0.9999997517097792
  outer loop
    vertex 2166.2367654319432 1024.4383429853385 -2.4999959032117087
    vertex 2566.836765431942 1406.3552674846262 -2.230864862600375
    vertex 2566.836765431942 1024.4383429853376 -2.4999959032117087
  endloop
endfacet
facet normal 2.168404344971009e-19 0.0007046845963728161 -0.9999997517097792
  outer loop
    vertex 2566.836765431942 1406.3552674846262 -2.230864862600375
    vertex 2166.2367654319432 1024.4383429853385 -2.4999959032117087
    vertex 2166.2367654319437 1406.355267484627 -2.230864862600375
  endloop
endfacet
facet normal 5.551115123125781e-16 0.9493122514703011 -0.314334613443044
  outer loop
    vertex 2166.2367654319437 1419.0267156894997 36.03778424669107
    vertex 2539.7897645473145 1419.0267156894977 36.03778424669106
    vertex 2166.2367654319437 1406.355267484627 -2.230864862600375
  endloop
endfacet
facet normal 5.551115123125781e-16 0.9493122514703011 -0.314334613443044
  outer loop
    vertex 2166.2367654319437 1406.355267484627 -2.230864862600375
    vertex 2566.8367654319427 1419.0267156894977 36.03778424669106
    vertex 2566.836765431942 1406.3552674846262 -2.230864862600375
  endloop
endfacet
facet normal 5.551115123125781e-16 0.9493122514703011 -0.314334613443044
  outer loop
    vertex 2566.8367654319427 1419.0267156894977 36.03778424669106
    vertex 2166.2367654319437 1406.355267484627 -2.230864862600375
    vertex 2539.7897645473145 1419.0267156894977 36.03778424669106
  endloop
endfacet
facet normal 0.18307862544154405 0.9629689148950001 0.19792191857492913
  outer loop
    vertex 2566.836765431944 1268.3046986231511 139.072235204545
    vertex 2559.3176168709583 1277.945798265591 99.11969263132039
    vertex 2559.3176168709592 1271.1635989807073 132.11779174530858
  endloop
endfacet
facet normal -1.3877787807814453e-15 0.9550363043027371 0.2964888825298006
  outer loop
    vertex 2199.236765431943 1260.8071874857333 164.472235204545
    vertex 2208.906555410761 1258.6886982689398 171.29621489325652
    vertex 2208.90655541076 1260.807187485733 164.47223520454506
  endloop
endfacet
facet normal -1.3877787807814453e-15 0.9550363043027371 0.2964888825298006
  outer loop
    vertex 2208.906555410761 1258.6886982689398 171.29621489325652
    vertex 2199.236765431943 1260.8071874857333 164.472235204545
    vertex 2253.1144849365196 1208.8071874857321 331.972235204545
  endloop
endfacet
facet normal -1.3877787807814453e-15 0.9550363043027371 0.2964888825298006
  outer loop
    vertex 2208.906555410761 1258.6886982689398 171.29621489325652
    vertex 2253.1144849365196 1208.8071874857321 331.972235204545
    vertex 2258.3942992308794 1210.9256767025267 325.1482555158335
  endloop
endfacet
facet normal -1.3877787807814453e-15 0.9550363043027371 0.2964888825298006
  outer loop
    vertex 2258.3942992308794 1210.9256767025267 325.1482555158335
    vertex 2253.1144849365196 1208.8071874857321 331.972235204545
    vertex 2479.9590459273677 1208.807187485735 331.9722352045448
  endloop
endfacet
facet normal -1.3877787807814453e-15 0.9550363043027371 0.2964888825298006
  outer loop
    vertex 2533.836765431942 1260.8071874857342 164.472235204545
    vertex 2524.166975453125 1258.688698268939 171.29621489325652
    vertex 2479.9590459273677 1208.807187485735 331.9722352045448
  endloop
endfacet
facet normal -1.3877787807814453e-15 0.9550363043027371 0.2964888825298006
  outer loop
    vertex 2524.166975453125 1258.688698268939 171.29621489325652
    vertex 2533.836765431942 1260.8071874857342 164.472235204545
    vertex 2524.1669754531254 1260.8071874857326 164.47223520454506
  endloop
endfacet
facet normal -1.3877787807814453e-15 0.9550363043027371 0.2964888825298006
  outer loop
    vertex 2479.9590459273677 1208.807187485735 331.9722352045448
    vertex 2524.166975453125 1258.688698268939 171.29621489325652
    vertex 2474.679231633008 1210.925676702531 325.1482555158333
  endloop
endfacet
facet normal -1.3877787807814453e-15 0.9550363043027371 0.2964888825298006
  outer loop
    vertex 2479.9590459273677 1208.807187485735 331.9722352045448
    vertex 2474.679231633008 1210.925676702531 325.1482555158333
    vertex 2258.3942992308794 1210.9256767025267 325.1482555158335
  endloop
endfacet
facet normal 1.0 -1.1102230246251564e-16 0.0
  outer loop
    vertex 2525.3392542945276 1260.807187485734 151.372235204545
    vertex 2525.3392542945294 1024.4267156894975 139.07223520454505
    vertex 2525.3392542945276 1260.8071874857342 139.07223520454505
  endloop
endfacet
facet normal 1.0 -1.1102230246251564e-16 0.0
  outer loop
    vertex 2525.3392542945294 1024.4267156894975 139.07223520454505
    vertex 2525.3392542945276 1260.807187485734 151.372235204545
    vertex 2525.3392542945294 1024.4267156894975 151.372235204545
  endloop
endfacet
facet normal -3.1780134079895106e-15 0.2964888825298008 -0.955036304302737
  outer loop
    vertex 2474.6792316330066 1206.341502441877 323.7251088796903
    vertex 2258.3942992308794 1210.9256767025267 325.1482555158335
    vertex 2474.679231633008 1210.925676702531 325.1482555158333
  endloop
endfacet
facet normal -3.1780134079895106e-15 0.2964888825298008 -0.955036304302737
  outer loop
    vertex 2258.3942992308794 1210.9256767025267 325.1482555158335
    vertex 2474.6792316330066 1206.341502441877 323.7251088796903
    vertex 2258.39429923088 1206.3415024418741 323.7251088796905
  endloop
endfacet
facet normal -1.0 1.1102230246251564e-16 0.0
  outer loop
    vertex 2166.2367654319437 1406.355267484627 -2.230864862600375
    vertex 2166.236765431942 1024.4267156894982 36.03778424669107
    vertex 2166.2367654319437 1419.0267156894997 36.03778424669107
  endloop
endfacet
facet normal -1.0 1.1102230246251564e-16 0.0
  outer loop
    vertex 2166.236765431942 1024.4267156894982 36.03778424669107
    vertex 2166.2367654319437 1406.355267484627 -2.230864862600375
    vertex 2166.2367654319432 1024.4383429853385 -2.4999959032117087
  endloop
endfacet
facet normal -0.12816882609969735 0.9583091561530445 0.25537484850600606
  outer loop
    vertex 2166.236765431943 1268.3046986231493 139.072235204545
    vertex 2173.7559139929276 1271.1635989807073 132.11779174530858
    vertex 2166.236765431943 1280.8046986231498 92.16524917208392
  endloop
endfacet
facet normal -1.1102230246251563e-16 -1.0 0.0
  outer loop
    vertex 2525.3392542945294 1024.4267156894975 151.372235204545
    vertex 2207.734276569356 1024.4267156894987 139.07223520454505
    vertex 2525.3392542945294 1024.4267156894975 139.07223520454505
  endloop
endfacet
facet normal -1.1102230246251563e-16 -1.0 0.0
  outer loop
    vertex 2207.734276569356 1024.4267156894987 139.07223520454505
    vertex 2525.3392542945294 1024.4267156894975 151.372235204545
    vertex 2207.734276569356 1024.4267156894987 151.372235204545
  endloop
endfacet
facet normal -1.3877787807814454e-16 0.9248977331451462 0.3802159691845806
  outer loop
    vertex 2166.236765431943 1268.3046986231493 139.072235204545
    vertex 2559.3176168709592 1271.1635989807073 132.11779174530858
    vertex 2173.7559139929276 1271.1635989807073 132.11779174530858
  endloop
endfacet
facet normal -1.3877787807814454e-16 0.9248977331451462 0.3802159691845806
  outer loop
    vertex 2559.3176168709592 1271.1635989807073 132.11779174530858
    vertex 2166.236765431943 1268.3046986231493 139.072235204545
    vertex 2566.836765431944 1268.3046986231511 139.072235204545
  endloop
endfacet
facet normal -6.504415488741242e-14 -2.338190405182239e-15 -1.0
  outer loop
    vertex 2207.734276569356 1024.4267156894987 151.372235204545
    vertex 2199.236765431943 1260.8071874857333 151.372235204545
    vertex 2207.7342765693575 1260.8071874857317 151.372235204545
  endloop
endfacet
facet normal -6.504415488741242e-14 -2.338190405182239e-15 -1.0
  outer loop
    vertex 2199.236765431943 1260.8071874857333 151.372235204545
    vertex 2207.734276569356 1024.4267156894987 151.372235204545
    vertex 2199.236765431942 1024.4267156894994 151.3722352045461
  endloop
endfacet
facet normal -0.93075619229656 -0.056237065132548204 0.36128977705837007
  outer loop
    vertex 2253.11448493652 1024.4267156894994 303.27223520454606
    vertex 2253.1144849365196 1208.8071874857321 331.972235204545
    vertex 2199.236765431942 1024.4267156894994 164.47223520454608
  endloop
endfacet
facet normal -0.9519649045676175 1.387778780781446e-15 0.3062071528745977
  outer loop
    vertex 2199.236765431942 1024.4267156894994 164.47223520454608
    vertex 2253.1144849365196 1208.8071874857321 331.972235204545
    vertex 2199.236765431943 1260.8071874857333 164.472235204545
  endloop
endfacet
facet normal 0.18307862544165235 0.9629689148949733 0.19792191857495925
  outer loop
    vertex 2173.7559139929276 1271.1635989807073 132.11779174530858
    vertex 2173.7559139929276 1277.9457982655922 99.11969263132036
    vertex 2166.236765431943 1280.8046986231498 92.16524917208392
  endloop
endfacet
facet normal 0.9550151925815809 -0.045611721092614264 0.2930282458012121
  outer loop
    vertex 2479.9590459273686 1024.4267156895005 303.2722352045459
    vertex 2533.836765431942 1260.8071874857342 164.472235204545
    vertex 2479.9590459273677 1208.807187485735 331.9722352045448
  endloop
endfacet
facet normal 0.9559125061126382 0.08706444406379002 -0.2804479688593211
  outer loop
    vertex 2258.3942992308794 1210.9256767025267 325.1482555158335
    vertex 2208.90655541076 1254.104524008286 169.87306825711346
    vertex 2208.906555410761 1258.6886982689398 171.29621489325652
  endloop
endfacet
facet normal 0.9559125061126382 0.08706444406379002 -0.2804479688593211
  outer loop
    vertex 2208.90655541076 1254.104524008286 169.87306825711346
    vertex 2258.3942992308794 1210.9256767025267 325.1482555158335
    vertex 2258.39429923088 1206.3415024418741 323.7251088796905
  endloop
endfacet
facet normal 1.1102230246251563e-16 1.0 0.0
  outer loop
    vertex 2199.236765431943 1260.8071874857333 164.472235204545
    vertex 2207.7342765693575 1260.8071874857317 151.372235204545
    vertex 2199.236765431943 1260.8071874857333 151.372235204545
  endloop
endfacet
facet normal 1.1102230246251563e-16 1.0 0.0
  outer loop
    vertex 2207.7342765693575 1260.8071874857317 151.372235204545
    vertex 2199.236765431943 1260.8071874857333 164.472235204545
    vertex 2525.3392542945276 1260.807187485734 151.372235204545
  endloop
endfacet
facet normal 1.1102230246251563e-16 1.0 0.0
  outer loop
    vertex 2525.3392542945276 1260.807187485734 151.372235204545
    vertex 2199.236765431943 1260.8071874857333 164.472235204545
    vertex 2525.7367654319405 1260.8071874857333 151.372235204545
  endloop
endfacet
facet normal 1.1102230246251563e-16 1.0 0.0
  outer loop
    vertex 2525.7367654319405 1260.8071874857333 151.372235204545
    vertex 2199.236765431943 1260.8071874857333 164.472235204545
    vertex 2533.836765431942 1260.807187485734 151.372235204545
  endloop
endfacet
facet normal 1.1102230246251563e-16 1.0 0.0
  outer loop
    vertex 2533.836765431942 1260.807187485734 151.372235204545
    vertex 2199.236765431943 1260.8071874857333 164.472235204545
    vertex 2533.836765431942 1260.8071874857342 164.472235204545
  endloop
endfacet
facet normal 1.1102230246251563e-16 1.0 0.0
  outer loop
    vertex 2533.836765431942 1260.8071874857342 164.472235204545
    vertex 2199.236765431943 1260.8071874857333 164.472235204545
    vertex 2208.90655541076 1260.807187485733 164.47223520454506
  endloop
endfacet
facet normal 1.1102230246251563e-16 1.0 0.0
  outer loop
    vertex 2533.836765431942 1260.8071874857342 164.472235204545
    vertex 2208.90655541076 1260.807187485733 164.47223520454506
    vertex 2524.1669754531254 1260.8071874857326 164.47223520454506
  endloop
endfacet
facet normal 0.932231500841437 1.6376331714307302e-15 0.3618624446373539
  outer loop
    vertex 2479.9590459273686 1024.4267156895005 303.2722352045459
    vertex 2533.836765431943 1024.4267156894975 164.47223520454608
    vertex 2533.836765431942 1260.8071874857342 164.472235204545
  endloop
endfacet
facet normal 1.1102230246251563e-16 1.0 0.0
  outer loop
    vertex 2166.2367654319437 1419.0267156894997 36.03778424669107
    vertex 2566.8367654319427 1419.0267156894977 36.03778424669106
    vertex 2539.7897645473145 1419.0267156894977 36.03778424669106
  endloop
endfacet
facet normal 1.1102230246251563e-16 1.0 0.0
  outer loop
    vertex 2566.8367654319427 1419.0267156894977 36.03778424669106
    vertex 2166.2367654319437 1419.0267156894997 36.03778424669107
    vertex 2566.8367654319427 1419.0267156894977 55.87865111013691
  endloop
endfacet
facet normal 1.1102230246251563e-16 1.0 0.0
  outer loop
    vertex 2566.8367654319427 1419.0267156894977 55.87865111013691
    vertex 2166.2367654319437 1419.0267156894997 36.03778424669107
    vertex 2166.2367654319437 1419.0267156894997 55.87865111013691
  endloop
endfacet
facet normal 0.0 -0.2964888825297978 0.9550363043027379
  outer loop
    vertex 2208.90655541076 1260.807187485733 164.47223520454506
    vertex 2524.1669754531254 1256.2230132250804 163.04908856840194
    vertex 2524.1669754531254 1260.8071874857326 164.47223520454506
  endloop
endfacet
facet normal 0.0 -0.2964888825297978 0.9550363043027379
  outer loop
    vertex 2524.1669754531254 1256.2230132250804 163.04908856840194
    vertex 2208.90655541076 1260.807187485733 164.47223520454506
    vertex 2208.9065554107615 1256.22301322508 163.04908856840194
  endloop
endfacet
facet normal 1.0 -1.1102230246251564e-16 0.0
  outer loop
    vertex 2566.8367654319427 1419.0267156894977 55.87865111013691
    vertex 2566.836765431942 1024.426715689498 36.03778424669107
    vertex 2566.8367654319427 1419.0267156894977 36.03778424669106
  endloop
endfacet
facet normal 1.0 -1.1102230246251564e-16 0.0
  outer loop
    vertex 2566.836765431942 1024.426715689498 36.03778424669107
    vertex 2566.8367654319427 1419.0267156894977 55.87865111013691
    vertex 2566.8367654319436 1280.8046986231489 92.16524917208392
  endloop
endfacet
facet normal 1.0 -1.1102230246251564e-16 0.0
  outer loop
    vertex 2566.836765431942 1024.426715689498 36.03778424669107
    vertex 2566.8367654319436 1280.8046986231489 92.16524917208392
    vertex 2566.836765431944 1268.3046986231511 139.072235204545
  endloop
endfacet
facet normal 1.0 -1.1102230246251564e-16 0.0
  outer loop
    vertex 2566.836765431942 1024.426715689498 36.03778424669107
    vertex 2566.836765431944 1268.3046986231511 139.072235204545
    vertex 2566.836765431942 1024.426715689498 139.07223520454505
  endloop
endfacet
facet normal -1.0 1.1102230246251564e-16 0.0
  outer loop
    vertex 2166.236765431942 1024.4267156894982 36.03778424669107
    vertex 2166.2367654319437 1419.0267156894997 55.87865111013691
    vertex 2166.2367654319437 1419.0267156894997 36.03778424669107
  endloop
endfacet
facet normal -1.0 1.1102230246251564e-16 0.0
  outer loop
    vertex 2166.2367654319437 1419.0267156894997 55.87865111013691
    vertex 2166.236765431942 1024.4267156894982 36.03778424669107
    vertex 2166.236765431943 1280.8046986231498 92.16524917208392
  endloop
endfacet
facet normal -1.0 1.1102230246251564e-16 0.0
  outer loop
    vertex 2166.236765431943 1280.8046986231498 92.16524917208392
    vertex 2166.236765431942 1024.4267156894982 36.03778424669107
    vertex 2166.236765431943 1268.3046986231493 139.072235204545
  endloop
endfacet
facet normal -1.0 1.1102230246251564e-16 0.0
  outer loop
    vertex 2166.236765431943 1268.3046986231493 139.072235204545
    vertex 2166.236765431942 1024.4267156894982 36.03778424669107
    vertex 2166.236765431942 1024.4267156894982 139.07223520454505
  endloop
endfacet
facet normal 1.0 -1.1102230246251564e-16 0.0
  outer loop
    vertex 2208.906555410761 1258.6886982689398 171.29621489325652
    vertex 2208.9065554107615 1256.22301322508 163.04908856840194
    vertex 2208.90655541076 1260.807187485733 164.47223520454506
  endloop
endfacet
facet normal 1.0 -1.1102230246251564e-16 0.0
  outer loop
    vertex 2208.9065554107615 1256.22301322508 163.04908856840194
    vertex 2208.906555410761 1258.6886982689398 171.29621489325652
    vertex 2208.90655541076 1254.104524008286 169.87306825711346
  endloop
endfacet
facet normal 1.36434511000183e-15 0.9795245705148036 0.20132465263297922
  outer loop
    vertex 2173.7559139929276 1271.1635989807073 132.11779174530858
    vertex 2559.3176168709583 1277.945798265591 99.11969263132039
    vertex 2173.7559139929276 1277.9457982655922 99.11969263132036
  endloop
endfacet
facet normal 1.36434511000183e-15 0.9795245705148036 0.20132465263297922
  outer loop
    vertex 2559.3176168709583 1277.945798265591 99.11969263132039
    vertex 2173.7559139929276 1271.1635989807073 132.11779174530858
    vertex 2559.3176168709592 1271.1635989807073 132.11779174530858
  endloop
endfacet
facet normal -1.7749370367472766e-30 -4.676489230581726e-15 -1.0
  outer loop
    vertex 2525.7367654319405 1024.4267156894987 151.3722352045461
    vertex 2533.836765431942 1260.807187485734 151.372235204545
    vertex 2533.836765431943 1024.4267156894975 151.3722352045461
  endloop
endfacet
facet normal -1.7749370367472766e-30 -4.676489230581726e-15 -1.0
  outer loop
    vertex 2533.836765431942 1260.807187485734 151.372235204545
    vertex 2525.7367654319405 1024.4267156894987 151.3722352045461
    vertex 2525.7367654319405 1260.8071874857333 151.372235204545
  endloop
endfacet
facet normal -1.0 1.1102230246251564e-16 0.0
  outer loop
    vertex 2199.236765431942 1024.4267156894994 151.3722352045461
    vertex 2199.236765431943 1260.8071874857333 164.472235204545
    vertex 2199.236765431943 1260.8071874857333 151.372235204545
  endloop
endfacet
facet normal -1.0 1.1102230246251564e-16 0.0
  outer loop
    vertex 2199.236765431943 1260.8071874857333 164.472235204545
    vertex 2199.236765431942 1024.4267156894994 151.3722352045461
    vertex 2199.236765431942 1024.4267156894994 164.47223520454608
  endloop
endfacet
facet normal 1.0 -1.1102230246251564e-16 0.0
  outer loop
    vertex 2533.836765431942 1260.8071874857342 164.472235204545
    vertex 2533.836765431943 1024.4267156894975 151.3722352045461
    vertex 2533.836765431942 1260.807187485734 151.372235204545
  endloop
endfacet
facet normal 1.0 -1.1102230246251564e-16 0.0
  outer loop
    vertex 2533.836765431943 1024.4267156894975 151.3722352045461
    vertex 2533.836765431942 1260.8071874857342 164.472235204545
    vertex 2533.836765431943 1024.4267156894975 164.47223520454608
  endloop
endfacet
facet normal 1.915134717478395e-15 -0.15380429342070545 0.9881013304946804
  outer loop
    vertex 2479.9590459273677 1208.807187485735 331.9722352045448
    vertex 2253.11448493652 1024.4267156894994 303.27223520454606
    vertex 2479.9590459273686 1024.4267156895005 303.2722352045459
  endloop
endfacet
facet normal 1.915134717478395e-15 -0.15380429342070545 0.9881013304946804
  outer loop
    vertex 2253.11448493652 1024.4267156894994 303.27223520454606
    vertex 2479.9590459273677 1208.807187485735 331.9722352045448
    vertex 2253.1144849365196 1208.8071874857321 331.972235204545
  endloop
endfacet
facet normal 1.1102230246251563e-16 1.0 0.0
  outer loop
    vertex 2207.7342765693575 1260.8071874857317 151.372235204545
    vertex 2525.3392542945276 1260.8071874857342 139.07223520454505
    vertex 2207.7342765693575 1260.807187485732 139.07223520454505
  endloop
endfacet
facet normal 1.1102230246251563e-16 1.0 0.0
  outer loop
    vertex 2525.3392542945276 1260.8071874857342 139.07223520454505
    vertex 2207.7342765693575 1260.8071874857317 151.372235204545
    vertex 2525.3392542945276 1260.807187485734 151.372235204545
  endloop
endfacet
facet normal -1.0 1.1102230246251564e-16 0.0
  outer loop
    vertex 2524.1669754531254 1256.2230132250804 163.04908856840194
    vertex 2524.166975453125 1258.688698268939 171.29621489325652
    vertex 2524.1669754531254 1260.8071874857326 164.47223520454506
  endloop
endfacet
facet normal -1.0 1.1102230246251564e-16 0.0
  outer loop
    vertex 2524.166975453125 1258.688698268939 171.29621489325652
    vertex 2524.1669754531254 1256.2230132250804 163.04908856840194
    vertex 2524.1669754531267 1254.1045240082854 169.87306825711346
  endloop
endfacet
facet normal -2.0539125955565392e-15 0.9550363043027369 0.2964888825298008
  outer loop
    vertex 2208.90655541076 1254.104524008286 169.87306825711346
    vertex 2524.1669754531254 1256.2230132250804 163.04908856840194
    vertex 2208.9065554107615 1256.22301322508 163.04908856840194
  endloop
endfacet
facet normal -2.0539125955565392e-15 0.9550363043027369 0.2964888825298008
  outer loop
    vertex 2524.1669754531254 1256.2230132250804 163.04908856840194
    vertex 2208.90655541076 1254.104524008286 169.87306825711346
    vertex 2524.1669754531267 1254.1045240082854 169.87306825711346
  endloop
endfacet
facet normal -2.0539125955565392e-15 0.9550363043027369 0.2964888825298008
  outer loop
    vertex 2524.1669754531267 1254.1045240082854 169.87306825711346
    vertex 2208.90655541076 1254.104524008286 169.87306825711346
    vertex 2323.711179212113 1250.3413991226187 181.99467245614588
  endloop
endfacet
facet normal -2.0539125955565392e-15 0.9550363043027369 0.2964888825298008
  outer loop
    vertex 2323.711179212113 1250.3413991226187 181.99467245614588
    vertex 2208.90655541076 1254.104524008286 169.87306825711346
    vertex 2307.40782763903 1249.9633743523532 183.2123483988195
  endloop
endfacet
facet normal -2.0539125955565392e-15 0.9550363043027369 0.2964888825298008
  outer loop
    vertex 2307.40782763903 1249.9633743523532 183.2123483988195
    vertex 2208.90655541076 1254.104524008286 169.87306825711346
    vertex 2291.1522172578775 1249.4346555216928 184.9154330937344
  endloop
endfacet
facet normal -2.0539125955565392e-15 0.9550363043027369 0.2964888825298008
  outer loop
    vertex 2291.1522172578775 1249.4346555216928 184.9154330937344
    vertex 2208.90655541076 1254.104524008286 169.87306825711346
    vertex 2274.960189404311 1248.7557578750498 187.10226685936254
  endloop
endfacet
facet normal -2.0539125955565392e-15 0.9550363043027369 0.2964888825298008
  outer loop
    vertex 2274.960189404311 1248.7557578750498 187.10226685936254
    vertex 2208.90655541076 1254.104524008286 169.87306825711346
    vertex 2266.0532023867036 1248.297815006706 188.57737129104984
  endloop
endfacet
facet normal -2.0539125955565392e-15 0.9550363043027369 0.2964888825298008
  outer loop
    vertex 2266.0532023867036 1248.297815006706 188.57737129104984
    vertex 2208.90655541076 1254.104524008286 169.87306825711346
    vertex 2263.8450076484414 1245.6478091071417 197.11344798676367
  endloop
endfacet
facet normal -2.0539125955565392e-15 0.9550363043027369 0.2964888825298008
  outer loop
    vertex 2263.8450076484414 1245.6478091071417 197.11344798676367
    vertex 2208.90655541076 1254.104524008286 169.87306825711346
    vertex 2262.035753856829 1242.9713525246548 205.73472640150626
  endloop
endfacet
facet normal -2.0539125955565392e-15 0.9550363043027369 0.2964888825298008
  outer loop
    vertex 2262.035753856829 1242.9713525246548 205.73472640150626
    vertex 2208.90655541076 1254.104524008286 169.87306825711346
    vertex 2260.629008000155 1240.2737219591422 214.42420947310865
  endloop
endfacet
facet normal -2.0539125955565392e-15 0.9550363043027369 0.2964888825298008
  outer loop
    vertex 2260.629008000155 1240.2737219591422 214.42420947310865
    vertex 2208.90655541076 1254.104524008286 169.87306825711346
    vertex 2259.6275435124335 1237.56023585553 223.16476567224512
  endloop
endfacet
facet normal -2.0539125955565392e-15 0.9550363043027369 0.2964888825298008
  outer loop
    vertex 2259.6275435124335 1237.56023585553 223.16476567224512
    vertex 2208.90655541076 1254.104524008286 169.87306825711346
    vertex 2259.033334805502 1234.8362439183245 231.93916277766292
  endloop
endfacet
facet normal -2.0539125955565392e-15 0.9550363043027369 0.2964888825298008
  outer loop
    vertex 2259.033334805502 1234.8362439183245 231.93916277766292
    vertex 2208.90655541076 1254.104524008286 169.87306825711346
    vertex 2258.8475533764163 1232.1071165645485 240.7301018499333
  endloop
endfacet
facet normal -2.0539125955565392e-15 0.9550363043027369 0.2964888825298008
  outer loop
    vertex 2258.8475533764163 1232.1071165645485 240.7301018499333
    vertex 2208.90655541076 1254.104524008286 169.87306825711346
    vertex 2258.39429923088 1206.3415024418741 323.7251088796905
  endloop
endfacet
facet normal -2.0539125955565392e-15 0.9550363043027369 0.2964888825298008
  outer loop
    vertex 2524.1669754531267 1254.1045240082854 169.87306825711346
    vertex 2323.711179212113 1250.3413991226187 181.99467245614588
    vertex 2340.0463841169585 1250.568361441686 181.2635919091492
  endloop
endfacet
facet normal -2.0539125955565392e-15 0.9550363043027369 0.2964888825298008
  outer loop
    vertex 2524.1669754531267 1254.1045240082854 169.87306825711346
    vertex 2340.0463841169585 1250.568361441686 181.2635919091492
    vertex 2356.397523451858 1250.6440401313796 181.01981920676906
  endloop
endfacet
facet normal -2.0539125955565392e-15 0.9550363043027369 0.2964888825298008
  outer loop
    vertex 2258.8475533764163 1232.1071165645485 240.7301018499333
    vertex 2258.39429923088 1206.3415024418741 323.7251088796905
    vertex 2259.070565497839 1229.3782343358073 249.52025133673283
  endloop
endfacet
facet normal -2.0539125955565392e-15 0.9550363043027369 0.2964888825298008
  outer loop
    vertex 2259.070565497839 1229.3782343358073 249.52025133673283
    vertex 2258.39429923088 1206.3415024418741 323.7251088796905
    vertex 2259.7019314958866 1226.6549772904577 258.2922812424269
  endloop
endfacet
facet normal -2.0539125955565392e-15 0.9550363043027369 0.2964888825298008
  outer loop
    vertex 2259.7019314958866 1226.6549772904577 258.2922812424269
    vertex 2258.39429923088 1206.3415024418741 323.7251088796905
    vertex 2260.740406616988 1223.9427143966568 267.0288972945761
  endloop
endfacet
facet normal -2.0539125955565392e-15 0.9550363043027369 0.2964888825298008
  outer loop
    vertex 2260.740406616988 1223.9427143966568 267.0288972945761
    vertex 2258.39429923088 1206.3415024418741 323.7251088796905
    vertex 2262.183943481927 1221.2467929473241 275.7128750400268
  endloop
endfacet
facet normal -2.0539125955565392e-15 0.9550363043027369 0.2964888825298008
  outer loop
    vertex 2262.183943481927 1221.2467929473241 275.7128750400268
    vertex 2258.39429923088 1206.3415024418741 323.7251088796905
    vertex 2264.029696122322 1218.5725280178153 284.32709380333984
  endloop
endfacet
facet normal -2.0539125955565392e-15 0.9550363043027369 0.2964888825298008
  outer loop
    vertex 2264.029696122322 1218.5725280178153 284.32709380333984
    vertex 2258.39429923088 1206.3415024418741 323.7251088796905
    vertex 2266.2740255915055 1215.9251919871374 292.8545704406202
  endloop
endfacet
facet normal -2.0539125955565392e-15 0.9550363043027369 0.2964888825298008
  outer loop
    vertex 2266.2740255915055 1215.9251919871374 292.8545704406202
    vertex 2258.39429923088 1206.3415024418741 323.7251088796905
    vertex 2282.386691543953 1215.0967771204328 295.52302217472146
  endloop
endfacet
facet normal -2.0539125955565392e-15 0.9550363043027369 0.2964888825298008
  outer loop
    vertex 2282.386691543953 1215.0967771204328 295.52302217472146
    vertex 2258.39429923088 1206.3415024418741 323.7251088796905
    vertex 2298.5787193975207 1214.4178794737888 297.70985594035034
  endloop
endfacet
facet normal -2.0539125955565392e-15 0.9550363043027369 0.2964888825298008
  outer loop
    vertex 2298.5787193975207 1214.4178794737888 297.70985594035034
    vertex 2258.39429923088 1206.3415024418741 323.7251088796905
    vertex 2314.834329778675 1213.8891606431291 299.4129406352661
  endloop
endfacet
facet normal -2.0539125955565392e-15 0.9550363043027369 0.2964888825298008
  outer loop
    vertex 2314.834329778675 1213.8891606431291 299.4129406352661
    vertex 2258.39429923088 1206.3415024418741 323.7251088796905
    vertex 2331.1376813517577 1213.5111358728661 300.6306165779387
  endloop
endfacet
facet normal -2.0539125955565392e-15 0.9550363043027369 0.2964888825298008
  outer loop
    vertex 2331.1376813517577 1213.5111358728661 300.6306165779387
    vertex 2258.39429923088 1206.3415024418741 323.7251088796905
    vertex 2347.4728862566058 1213.2841735538002 301.36169712493404
  endloop
endfacet
facet normal -2.0539125955565392e-15 0.9550363043027369 0.2964888825298008
  outer loop
    vertex 2347.4728862566058 1213.2841735538002 301.36169712493404
    vertex 2258.39429923088 1206.3415024418741 323.7251088796905
    vertex 2363.824025591503 1213.2084948641052 301.6054698273151
  endloop
endfacet
facet normal -2.0539125955565392e-15 0.9550363043027369 0.2964888825298008
  outer loop
    vertex 2363.824025591503 1213.2084948641052 301.6054698273151
    vertex 2258.39429923088 1206.3415024418741 323.7251088796905
    vertex 2474.6792316330066 1206.341502441877 323.7251088796903
  endloop
endfacet
facet normal -2.0539125955565392e-15 0.9550363043027369 0.2964888825298008
  outer loop
    vertex 2524.1669754531267 1254.1045240082854 169.87306825711346
    vertex 2459.481142426378 1239.9098205988278 215.59639173950853
    vertex 2474.6792316330066 1206.341502441877 323.7251088796903
  endloop
endfacet
facet normal -2.0539125955565392e-15 0.9550363043027369 0.2964888825298008
  outer loop
    vertex 2459.481142426378 1239.9098205988278 215.59639173950853
    vertex 2524.1669754531267 1254.1045240082854 169.87306825711346
    vertex 2458.0376055614342 1242.6057420481602 206.91241399405743
  endloop
endfacet
facet normal -2.0539125955565392e-15 0.9550363043027369 0.2964888825298008
  outer loop
    vertex 2458.0376055614342 1242.6057420481602 206.91241399405743
    vertex 2524.1669754531267 1254.1045240082854 169.87306825711346
    vertex 2456.1918529210407 1245.280006977667 198.2981952307451
  endloop
endfacet
facet normal -2.0539125955565392e-15 0.9550363043027369 0.2964888825298008
  outer loop
    vertex 2456.1918529210407 1245.280006977667 198.2981952307451
    vertex 2524.1669754531267 1254.1045240082854 169.87306825711346
    vertex 2453.9475234518613 1247.9273430083433 189.77071859346472
  endloop
endfacet
facet normal -2.0539125955565392e-15 0.9550363043027369 0.2964888825298008
  outer loop
    vertex 2453.9475234518613 1247.9273430083433 189.77071859346472
    vertex 2524.1669754531267 1254.1045240082854 169.87306825711346
    vertex 2437.834857499412 1248.7557578750516 187.10226685936303
  endloop
endfacet
facet normal -2.0539125955565392e-15 0.9550363043027369 0.2964888825298008
  outer loop
    vertex 2437.834857499412 1248.7557578750516 187.10226685936303
    vertex 2524.1669754531267 1254.1045240082854 169.87306825711346
    vertex 2421.642829645843 1249.434655521694 184.91543309373455
  endloop
endfacet
facet normal -2.0539125955565392e-15 0.9550363043027369 0.2964888825298008
  outer loop
    vertex 2421.642829645843 1249.434655521694 184.91543309373455
    vertex 2524.1669754531267 1254.1045240082854 169.87306825711346
    vertex 2405.387219264688 1249.963374352355 183.21234839881959
  endloop
endfacet
facet normal -2.0539125955565392e-15 0.9550363043027369 0.2964888825298008
  outer loop
    vertex 2405.387219264688 1249.963374352355 183.21234839881959
    vertex 2524.1669754531267 1254.1045240082854 169.87306825711346
    vertex 2389.0838676916055 1250.341399122618 181.99467245614574
  endloop
endfacet
facet normal -2.0539125955565392e-15 0.9550363043027369 0.2964888825298008
  outer loop
    vertex 2389.0838676916055 1250.341399122618 181.99467245614574
    vertex 2524.1669754531267 1254.1045240082854 169.87306825711346
    vertex 2372.748662786761 1250.568361441684 181.26359190914957
  endloop
endfacet
facet normal -2.0539125955565392e-15 0.9550363043027369 0.2964888825298008
  outer loop
    vertex 2372.748662786761 1250.568361441684 181.26359190914957
    vertex 2524.1669754531267 1254.1045240082854 169.87306825711346
    vertex 2356.397523451858 1250.6440401313796 181.01981920676906
  endloop
endfacet
facet normal -2.0539125955565392e-15 0.9550363043027369 0.2964888825298008
  outer loop
    vertex 2474.6792316330066 1206.341502441877 323.7251088796903
    vertex 2459.481142426378 1239.9098205988278 215.59639173950853
    vertex 2460.5196175474775 1237.197557705025 224.3330077916581
  endloop
endfacet
facet normal -2.0539125955565392e-15 0.9550363043027369 0.2964888825298008
  outer loop
    vertex 2474.6792316330066 1206.341502441877 323.7251088796903
    vertex 2460.5196175474775 1237.197557705025 224.3330077916581
    vertex 2461.1509835455254 1234.4743006596752 233.10503769735146
  endloop
endfacet
facet normal -2.0539125955565392e-15 0.9550363043027369 0.2964888825298008
  outer loop
    vertex 2474.6792316330066 1206.341502441877 323.7251088796903
    vertex 2461.1509835455254 1234.4743006596752 233.10503769735146
    vertex 2461.373995666944 1231.7454184309374 241.89518718415167
  endloop
endfacet
facet normal -2.0539125955565392e-15 0.9550363043027369 0.2964888825298008
  outer loop
    vertex 2474.6792316330066 1206.341502441877 323.7251088796903
    vertex 2461.373995666944 1231.7454184309374 241.89518718415167
    vertex 2461.188214237863 1229.0162910771578 250.68612625642234
  endloop
endfacet
facet normal -2.0539125955565392e-15 0.9550363043027369 0.2964888825298008
  outer loop
    vertex 2474.6792316330066 1206.341502441877 323.7251088796903
    vertex 2461.188214237863 1229.0162910771578 250.68612625642234
    vertex 2460.5940055309306 1226.2922991399528 259.4605233618403
  endloop
endfacet
facet normal -2.0539125955565392e-15 0.9550363043027369 0.2964888825298008
  outer loop
    vertex 2474.6792316330066 1206.341502441877 323.7251088796903
    vertex 2460.5940055309306 1226.2922991399528 259.4605233618403
    vertex 2459.59254104321 1223.5788130363424 268.2010795609759
  endloop
endfacet
facet normal -2.0539125955565392e-15 0.9550363043027369 0.2964888825298008
  outer loop
    vertex 2474.6792316330066 1206.341502441877 323.7251088796903
    vertex 2459.59254104321 1223.5788130363424 268.2010795609759
    vertex 2458.185795186534 1220.8811824708303 276.89056263257805
  endloop
endfacet
facet normal -2.0539125955565392e-15 0.9550363043027369 0.2964888825298008
  outer loop
    vertex 2474.6792316330066 1206.341502441877 323.7251088796903
    vertex 2458.185795186534 1220.8811824708303 276.89056263257805
    vertex 2456.3765413949227 1218.204725888342 285.5118410473208
  endloop
endfacet
facet normal -2.0539125955565392e-15 0.9550363043027369 0.2964888825298008
  outer loop
    vertex 2474.6792316330066 1206.341502441877 323.7251088796903
    vertex 2456.3765413949227 1218.204725888342 285.5118410473208
    vertex 2454.1683466566633 1215.5547199887765 294.04791774303453
  endloop
endfacet
facet normal -2.0539125955565392e-15 0.9550363043027369 0.2964888825298008
  outer loop
    vertex 2474.6792316330066 1206.341502441877 323.7251088796903
    vertex 2454.1683466566633 1215.5547199887765 294.04791774303453
    vertex 2445.2613596390547 1215.096777120434 295.52302217472146
  endloop
endfacet
facet normal -2.0539125955565392e-15 0.9550363043027369 0.2964888825298008
  outer loop
    vertex 2474.6792316330066 1206.341502441877 323.7251088796903
    vertex 2445.2613596390547 1215.096777120434 295.52302217472146
    vertex 2429.0693317854875 1214.4178794737888 297.70985594035045
  endloop
endfacet
facet normal -2.0539125955565392e-15 0.9550363043027369 0.2964888825298008
  outer loop
    vertex 2474.6792316330066 1206.341502441877 323.7251088796903
    vertex 2429.0693317854875 1214.4178794737888 297.70985594035045
    vertex 2412.8137214043345 1213.8891606431284 299.412940635266
  endloop
endfacet
facet normal -2.0539125955565392e-15 0.9550363043027369 0.2964888825298008
  outer loop
    vertex 2474.6792316330066 1206.341502441877 323.7251088796903
    vertex 2412.8137214043345 1213.8891606431284 299.412940635266
    vertex 2396.5103698312523 1213.5111358728645 300.6306165779387
  endloop
endfacet
facet normal -2.0539125955565392e-15 0.9550363043027369 0.2964888825298008
  outer loop
    vertex 2474.6792316330066 1206.341502441877 323.7251088796903
    vertex 2396.5103698312523 1213.5111358728645 300.6306165779387
    vertex 2380.175164926405 1213.2841735537995 301.3616971249342
  endloop
endfacet
facet normal -2.0539125955565392e-15 0.9550363043027369 0.2964888825298008
  outer loop
    vertex 2474.6792316330066 1206.341502441877 323.7251088796903
    vertex 2380.175164926405 1213.2841735537995 301.3616971249342
    vertex 2363.824025591503 1213.2084948641052 301.6054698273151
  endloop
endfacet
facet normal -4.163336342344336e-17 0.25391985352615914 0.9672252622761949
  outer loop
    vertex 2566.8367654319427 1419.0267156894977 55.87865111013691
    vertex 2166.236765431943 1280.8046986231498 92.16524917208392
    vertex 2566.8367654319436 1280.8046986231489 92.16524917208392
  endloop
endfacet
facet normal -4.163336342344336e-17 0.25391985352615914 0.9672252622761949
  outer loop
    vertex 2166.236765431943 1280.8046986231498 92.16524917208392
    vertex 2566.8367654319427 1419.0267156894977 55.87865111013691
    vertex 2166.2367654319437 1419.0267156894997 55.87865111013691
  endloop
endfacet
facet normal -1.0 1.1102230246251564e-16 0.0
  outer loop
    vertex 2207.734276569356 1024.4267156894987 139.07223520454505
    vertex 2207.7342765693575 1260.8071874857317 151.372235204545
    vertex 2207.7342765693575 1260.807187485732 139.07223520454505
  endloop
endfacet
facet normal -1.0 1.1102230246251564e-16 0.0
  outer loop
    vertex 2207.7342765693575 1260.8071874857317 151.372235204545
    vertex 2207.734276569356 1024.4267156894987 139.07223520454505
    vertex 2207.734276569356 1024.4267156894987 151.372235204545
  endloop
endfacet
facet normal 5.273559366969493e-16 0.9550363043027356 0.2964888825298055
  outer loop
    vertex 2340.0463841169585 1250.568361441686 181.2635919091492
    vertex 2372.748662786761 1250.568361441684 181.26359190914957
    vertex 2356.397523451858 1250.6440401313796 181.01981920676906
  endloop
endfacet
facet normal 5.273559366969493e-16 0.9550363043027356 0.2964888825298055
  outer loop
    vertex 2372.748662786761 1250.568361441684 181.26359190914957
    vertex 2340.0463841169585 1250.568361441686 181.2635919091492
    vertex 2323.711179212113 1250.3413991226187 181.99467245614588
  endloop
endfacet
facet normal 5.273559366969493e-16 0.9550363043027356 0.2964888825298055
  outer loop
    vertex 2372.748662786761 1250.568361441684 181.26359190914957
    vertex 2323.711179212113 1250.3413991226187 181.99467245614588
    vertex 2389.0838676916055 1250.341399122618 181.99467245614574
  endloop
endfacet
facet normal 5.273559366969493e-16 0.9550363043027356 0.2964888825298055
  outer loop
    vertex 2389.0838676916055 1250.341399122618 181.99467245614574
    vertex 2323.711179212113 1250.3413991226187 181.99467245614588
    vertex 2405.387219264688 1249.963374352355 183.21234839881959
  endloop
endfacet
facet normal 5.273559366969493e-16 0.9550363043027356 0.2964888825298055
  outer loop
    vertex 2405.387219264688 1249.963374352355 183.21234839881959
    vertex 2323.711179212113 1250.3413991226187 181.99467245614588
    vertex 2307.40782763903 1249.9633743523532 183.2123483988195
  endloop
endfacet
facet normal 5.273559366969493e-16 0.9550363043027356 0.2964888825298055
  outer loop
    vertex 2405.387219264688 1249.963374352355 183.21234839881959
    vertex 2307.40782763903 1249.9633743523532 183.2123483988195
    vertex 2291.1522172578775 1249.4346555216928 184.9154330937344
  endloop
endfacet
facet normal 5.273559366969493e-16 0.9550363043027356 0.2964888825298055
  outer loop
    vertex 2405.387219264688 1249.963374352355 183.21234839881959
    vertex 2291.1522172578775 1249.4346555216928 184.9154330937344
    vertex 2421.642829645843 1249.434655521694 184.91543309373455
  endloop
endfacet
facet normal 5.273559366969493e-16 0.9550363043027356 0.2964888825298055
  outer loop
    vertex 2421.642829645843 1249.434655521694 184.91543309373455
    vertex 2291.1522172578775 1249.4346555216928 184.9154330937344
    vertex 2274.960189404311 1248.7557578750498 187.10226685936254
  endloop
endfacet
facet normal 5.273559366969493e-16 0.9550363043027356 0.2964888825298055
  outer loop
    vertex 2421.642829645843 1249.434655521694 184.91543309373455
    vertex 2274.960189404311 1248.7557578750498 187.10226685936254
    vertex 2437.834857499412 1248.7557578750516 187.10226685936303
  endloop
endfacet
facet normal 5.273559366969493e-16 0.9550363043027356 0.2964888825298055
  outer loop
    vertex 2437.834857499412 1248.7557578750516 187.10226685936303
    vertex 2274.960189404311 1248.7557578750498 187.10226685936254
    vertex 2266.0532023867036 1248.297815006706 188.57737129104984
  endloop
endfacet
facet normal 5.273559366969493e-16 0.9550363043027356 0.2964888825298055
  outer loop
    vertex 2437.834857499412 1248.7557578750516 187.10226685936303
    vertex 2266.0532023867036 1248.297815006706 188.57737129104984
    vertex 2453.9475234518613 1247.9273430083433 189.77071859346472
  endloop
endfacet
facet normal 5.273559366969493e-16 0.9550363043027356 0.2964888825298055
  outer loop
    vertex 2453.9475234518613 1247.9273430083433 189.77071859346472
    vertex 2266.0532023867036 1248.297815006706 188.57737129104984
    vertex 2263.8450076484414 1245.6478091071417 197.11344798676367
  endloop
endfacet
facet normal 5.273559366969493e-16 0.9550363043027356 0.2964888825298055
  outer loop
    vertex 2453.9475234518613 1247.9273430083433 189.77071859346472
    vertex 2263.8450076484414 1245.6478091071417 197.11344798676367
    vertex 2456.1918529210407 1245.280006977667 198.2981952307451
  endloop
endfacet
facet normal 5.273559366969493e-16 0.9550363043027356 0.2964888825298055
  outer loop
    vertex 2456.1918529210407 1245.280006977667 198.2981952307451
    vertex 2263.8450076484414 1245.6478091071417 197.11344798676367
    vertex 2262.035753856829 1242.9713525246548 205.73472640150626
  endloop
endfacet
facet normal 5.273559366969493e-16 0.9550363043027356 0.2964888825298055
  outer loop
    vertex 2456.1918529210407 1245.280006977667 198.2981952307451
    vertex 2262.035753856829 1242.9713525246548 205.73472640150626
    vertex 2458.0376055614342 1242.6057420481602 206.91241399405743
  endloop
endfacet
facet normal 5.273559366969493e-16 0.9550363043027356 0.2964888825298055
  outer loop
    vertex 2458.0376055614342 1242.6057420481602 206.91241399405743
    vertex 2262.035753856829 1242.9713525246548 205.73472640150626
    vertex 2260.629008000155 1240.2737219591422 214.42420947310865
  endloop
endfacet
facet normal 5.273559366969493e-16 0.9550363043027356 0.2964888825298055
  outer loop
    vertex 2458.0376055614342 1242.6057420481602 206.91241399405743
    vertex 2260.629008000155 1240.2737219591422 214.42420947310865
    vertex 2459.481142426378 1239.9098205988278 215.59639173950853
  endloop
endfacet
facet normal 5.273559366969493e-16 0.9550363043027356 0.2964888825298055
  outer loop
    vertex 2459.481142426378 1239.9098205988278 215.59639173950853
    vertex 2260.629008000155 1240.2737219591422 214.42420947310865
    vertex 2259.6275435124335 1237.56023585553 223.16476567224512
  endloop
endfacet
facet normal 5.273559366969493e-16 0.9550363043027356 0.2964888825298055
  outer loop
    vertex 2459.481142426378 1239.9098205988278 215.59639173950853
    vertex 2259.6275435124335 1237.56023585553 223.16476567224512
    vertex 2460.5196175474775 1237.197557705025 224.3330077916581
  endloop
endfacet
facet normal 5.273559366969493e-16 0.9550363043027356 0.2964888825298055
  outer loop
    vertex 2460.5196175474775 1237.197557705025 224.3330077916581
    vertex 2259.6275435124335 1237.56023585553 223.16476567224512
    vertex 2259.033334805502 1234.8362439183245 231.93916277766292
  endloop
endfacet
facet normal 5.273559366969493e-16 0.9550363043027356 0.2964888825298055
  outer loop
    vertex 2460.5196175474775 1237.197557705025 224.3330077916581
    vertex 2259.033334805502 1234.8362439183245 231.93916277766292
    vertex 2461.1509835455254 1234.4743006596752 233.10503769735146
  endloop
endfacet
facet normal 5.273559366969493e-16 0.9550363043027356 0.2964888825298055
  outer loop
    vertex 2461.1509835455254 1234.4743006596752 233.10503769735146
    vertex 2259.033334805502 1234.8362439183245 231.93916277766292
    vertex 2258.8475533764163 1232.1071165645485 240.7301018499333
  endloop
endfacet
facet normal 5.273559366969493e-16 0.9550363043027356 0.2964888825298055
  outer loop
    vertex 2461.1509835455254 1234.4743006596752 233.10503769735146
    vertex 2258.8475533764163 1232.1071165645485 240.7301018499333
    vertex 2461.373995666944 1231.7454184309374 241.89518718415167
  endloop
endfacet
facet normal 5.273559366969493e-16 0.9550363043027356 0.2964888825298055
  outer loop
    vertex 2461.373995666944 1231.7454184309374 241.89518718415167
    vertex 2258.8475533764163 1232.1071165645485 240.7301018499333
    vertex 2259.070565497839 1229.3782343358073 249.52025133673283
  endloop
endfacet
facet normal 5.273559366969493e-16 0.9550363043027356 0.2964888825298055
  outer loop
    vertex 2461.373995666944 1231.7454184309374 241.89518718415167
    vertex 2259.070565497839 1229.3782343358073 249.52025133673283
    vertex 2461.188214237863 1229.0162910771578 250.68612625642234
  endloop
endfacet
facet normal 5.273559366969493e-16 0.9550363043027356 0.2964888825298055
  outer loop
    vertex 2461.188214237863 1229.0162910771578 250.68612625642234
    vertex 2259.070565497839 1229.3782343358073 249.52025133673283
    vertex 2259.7019314958866 1226.6549772904577 258.2922812424269
  endloop
endfacet
facet normal 5.273559366969493e-16 0.9550363043027356 0.2964888825298055
  outer loop
    vertex 2461.188214237863 1229.0162910771578 250.68612625642234
    vertex 2259.7019314958866 1226.6549772904577 258.2922812424269
    vertex 2460.5940055309306 1226.2922991399528 259.4605233618403
  endloop
endfacet
facet normal 5.273559366969493e-16 0.9550363043027356 0.2964888825298055
  outer loop
    vertex 2460.5940055309306 1226.2922991399528 259.4605233618403
    vertex 2259.7019314958866 1226.6549772904577 258.2922812424269
    vertex 2260.740406616988 1223.9427143966568 267.0288972945761
  endloop
endfacet
facet normal 5.273559366969493e-16 0.9550363043027356 0.2964888825298055
  outer loop
    vertex 2460.5940055309306 1226.2922991399528 259.4605233618403
    vertex 2260.740406616988 1223.9427143966568 267.0288972945761
    vertex 2459.59254104321 1223.5788130363424 268.2010795609759
  endloop
endfacet
facet normal 5.273559366969493e-16 0.9550363043027356 0.2964888825298055
  outer loop
    vertex 2459.59254104321 1223.5788130363424 268.2010795609759
    vertex 2260.740406616988 1223.9427143966568 267.0288972945761
    vertex 2262.183943481927 1221.2467929473241 275.7128750400268
  endloop
endfacet
facet normal 5.273559366969493e-16 0.9550363043027356 0.2964888825298055
  outer loop
    vertex 2459.59254104321 1223.5788130363424 268.2010795609759
    vertex 2262.183943481927 1221.2467929473241 275.7128750400268
    vertex 2458.185795186534 1220.8811824708303 276.89056263257805
  endloop
endfacet
facet normal 5.273559366969493e-16 0.9550363043027356 0.2964888825298055
  outer loop
    vertex 2458.185795186534 1220.8811824708303 276.89056263257805
    vertex 2262.183943481927 1221.2467929473241 275.7128750400268
    vertex 2264.029696122322 1218.5725280178153 284.32709380333984
  endloop
endfacet
facet normal 5.273559366969493e-16 0.9550363043027356 0.2964888825298055
  outer loop
    vertex 2458.185795186534 1220.8811824708303 276.89056263257805
    vertex 2264.029696122322 1218.5725280178153 284.32709380333984
    vertex 2456.3765413949227 1218.204725888342 285.5118410473208
  endloop
endfacet
facet normal 5.273559366969493e-16 0.9550363043027356 0.2964888825298055
  outer loop
    vertex 2456.3765413949227 1218.204725888342 285.5118410473208
    vertex 2264.029696122322 1218.5725280178153 284.32709380333984
    vertex 2266.2740255915055 1215.9251919871374 292.8545704406202
  endloop
endfacet
facet normal 5.273559366969493e-16 0.9550363043027356 0.2964888825298055
  outer loop
    vertex 2456.3765413949227 1218.204725888342 285.5118410473208
    vertex 2266.2740255915055 1215.9251919871374 292.8545704406202
    vertex 2454.1683466566633 1215.5547199887765 294.04791774303453
  endloop
endfacet
facet normal 5.273559366969493e-16 0.9550363043027356 0.2964888825298055
  outer loop
    vertex 2454.1683466566633 1215.5547199887765 294.04791774303453
    vertex 2266.2740255915055 1215.9251919871374 292.8545704406202
    vertex 2282.386691543953 1215.0967771204328 295.52302217472146
  endloop
endfacet
facet normal 5.273559366969493e-16 0.9550363043027356 0.2964888825298055
  outer loop
    vertex 2454.1683466566633 1215.5547199887765 294.04791774303453
    vertex 2282.386691543953 1215.0967771204328 295.52302217472146
    vertex 2445.2613596390547 1215.096777120434 295.52302217472146
  endloop
endfacet
facet normal 5.273559366969493e-16 0.9550363043027356 0.2964888825298055
  outer loop
    vertex 2445.2613596390547 1215.096777120434 295.52302217472146
    vertex 2282.386691543953 1215.0967771204328 295.52302217472146
    vertex 2298.5787193975207 1214.4178794737888 297.70985594035034
  endloop
endfacet
facet normal 5.273559366969493e-16 0.9550363043027356 0.2964888825298055
  outer loop
    vertex 2445.2613596390547 1215.096777120434 295.52302217472146
    vertex 2298.5787193975207 1214.4178794737888 297.70985594035034
    vertex 2429.0693317854875 1214.4178794737888 297.70985594035045
  endloop
endfacet
facet normal 5.273559366969493e-16 0.9550363043027356 0.2964888825298055
  outer loop
    vertex 2429.0693317854875 1214.4178794737888 297.70985594035045
    vertex 2298.5787193975207 1214.4178794737888 297.70985594035034
    vertex 2314.834329778675 1213.8891606431291 299.4129406352661
  endloop
endfacet
facet normal 5.273559366969493e-16 0.9550363043027356 0.2964888825298055
  outer loop
    vertex 2429.0693317854875 1214.4178794737888 297.70985594035045
    vertex 2314.834329778675 1213.8891606431291 299.4129406352661
    vertex 2412.8137214043345 1213.8891606431284 299.412940635266
  endloop
endfacet
facet normal 5.273559366969493e-16 0.9550363043027356 0.2964888825298055
  outer loop
    vertex 2412.8137214043345 1213.8891606431284 299.412940635266
    vertex 2314.834329778675 1213.8891606431291 299.4129406352661
    vertex 2396.5103698312523 1213.5111358728645 300.6306165779387
  endloop
endfacet
facet normal 5.273559366969493e-16 0.9550363043027356 0.2964888825298055
  outer loop
    vertex 2396.5103698312523 1213.5111358728645 300.6306165779387
    vertex 2314.834329778675 1213.8891606431291 299.4129406352661
    vertex 2331.1376813517577 1213.5111358728661 300.6306165779387
  endloop
endfacet
facet normal 5.273559366969493e-16 0.9550363043027356 0.2964888825298055
  outer loop
    vertex 2396.5103698312523 1213.5111358728645 300.6306165779387
    vertex 2331.1376813517577 1213.5111358728661 300.6306165779387
    vertex 2347.4728862566058 1213.2841735538002 301.36169712493404
  endloop
endfacet
facet normal 5.273559366969493e-16 0.9550363043027356 0.2964888825298055
  outer loop
    vertex 2396.5103698312523 1213.5111358728645 300.6306165779387
    vertex 2347.4728862566058 1213.2841735538002 301.36169712493404
    vertex 2380.175164926405 1213.2841735537995 301.3616971249342
  endloop
endfacet
facet normal 5.273559366969493e-16 0.9550363043027356 0.2964888825298055
  outer loop
    vertex 2380.175164926405 1213.2841735537995 301.3616971249342
    vertex 2347.4728862566058 1213.2841735538002 301.36169712493404
    vertex 2363.824025591503 1213.2084948641052 301.6054698273151
  endloop
endfacet
facet normal 4.440892098500626e-16 -1.0 6.2158394750766455e-15
  outer loop
    vertex 2533.836765431943 1024.4267156894975 164.47223520454608
    vertex 2525.7367654319405 1024.4267156894987 151.3722352045461
    vertex 2533.836765431943 1024.4267156894975 151.3722352045461
  endloop
endfacet
facet normal 4.440892098500626e-16 -1.0 6.2158394750766455e-15
  outer loop
    vertex 2525.7367654319405 1024.4267156894987 151.3722352045461
    vertex 2533.836765431943 1024.4267156894975 164.47223520454608
    vertex 2199.236765431942 1024.4267156894994 151.3722352045461
  endloop
endfacet
facet normal 4.440892098500626e-16 -1.0 6.2158394750766455e-15
  outer loop
    vertex 2199.236765431942 1024.4267156894994 151.3722352045461
    vertex 2533.836765431943 1024.4267156894975 164.47223520454608
    vertex 2199.236765431942 1024.4267156894994 164.47223520454608
  endloop
endfacet
facet normal 4.440892098500626e-16 -1.0 6.2158394750766455e-15
  outer loop
    vertex 2199.236765431942 1024.4267156894994 164.47223520454608
    vertex 2533.836765431943 1024.4267156894975 164.47223520454608
    vertex 2479.9590459273686 1024.4267156895005 303.2722352045459
  endloop
endfacet
facet normal 4.440892098500626e-16 -1.0 6.2158394750766455e-15
  outer loop
    vertex 2199.236765431942 1024.4267156894994 164.47223520454608
    vertex 2479.9590459273686 1024.4267156895005 303.2722352045459
    vertex 2253.11448493652 1024.4267156894994 303.27223520454606
  endloop
endfacet
facet normal 4.440892098500626e-16 -1.0 6.2158394750766455e-15
  outer loop
    vertex 2525.7367654319405 1024.4267156894987 151.3722352045461
    vertex 2207.734276569356 1024.4267156894987 151.372235204545
    vertex 2525.3392542945294 1024.4267156894975 151.372235204545
  endloop
endfacet
facet normal 4.440892098500626e-16 -1.0 6.2158394750766455e-15
  outer loop
    vertex 2207.734276569356 1024.4267156894987 151.372235204545
    vertex 2525.7367654319405 1024.4267156894987 151.3722352045461
    vertex 2199.236765431942 1024.4267156894994 151.3722352045461
  endloop
endfacet
facet normal 1.3904350810828458e-12 -2.338190405182239e-15 -1.0
  outer loop
    vertex 2525.3392542945294 1024.4267156894975 151.372235204545
    vertex 2525.7367654319405 1260.8071874857333 151.372235204545
    vertex 2525.7367654319405 1024.4267156894987 151.3722352045461
  endloop
endfacet
facet normal 1.3904350810828458e-12 -2.338190405182239e-15 -1.0
  outer loop
    vertex 2525.7367654319405 1260.8071874857333 151.372235204545
    vertex 2525.3392542945294 1024.4267156894975 151.372235204545
    vertex 2525.3392542945276 1260.807187485734 151.372235204545
  endloop
endfacet
facet normal 2.1033332942909123e-15 0.9248977331451551 0.3802159691845592
  outer loop
    vertex 2173.7559139929276 1277.9457982655922 99.11969263132036
    vertex 2566.8367654319436 1280.8046986231489 92.16524917208392
    vertex 2166.236765431943 1280.8046986231498 92.16524917208392
  endloop
endfacet
facet normal 2.1033332942909123e-15 0.9248977331451551 0.3802159691845592
  outer loop
    vertex 2566.8367654319436 1280.8046986231489 92.16524917208392
    vertex 2173.7559139929276 1277.9457982655922 99.11969263132036
    vertex 2559.3176168709583 1277.945798265591 99.11969263132039
  endloop
endfacet
facet normal -2.2204460492503126e-16 -0.9999999982265282 -5.955622321127487e-05
  outer loop
    vertex 2566.836765431942 1024.426715689498 36.03778424669107
    vertex 2166.2367654319432 1024.4383429853385 -2.4999959032117087
    vertex 2566.836765431942 1024.4383429853376 -2.4999959032117087
  endloop
endfacet
facet normal -2.2204460492503126e-16 -0.9999999982265282 -5.955622321127487e-05
  outer loop
    vertex 2166.2367654319432 1024.4383429853385 -2.4999959032117087
    vertex 2566.836765431942 1024.426715689498 36.03778424669107
    vertex 2166.236765431942 1024.4267156894982 36.03778424669107
  endloop
endfacet
facet normal -2.2204460492503126e-16 -0.9999999982265282 -5.955622321127487e-05
  outer loop
    vertex 2166.236765431942 1024.4267156894982 36.03778424669107
    vertex 2566.836765431942 1024.426715689498 36.03778424669107
    vertex 2566.836765431942 1024.426715689498 139.07223520454505
  endloop
endfacet
facet normal -2.2204460492503126e-16 -0.9999999982265282 -5.955622321127487e-05
  outer loop
    vertex 2166.236765431942 1024.4267156894982 36.03778424669107
    vertex 2566.836765431942 1024.426715689498 139.07223520454505
    vertex 2166.236765431942 1024.4267156894982 139.07223520454505
  endloop
endfacet
facet normal -2.2204460492503126e-16 -0.9999999982265282 -5.955622321127487e-05
  outer loop
    vertex 2166.236765431942 1024.4267156894982 139.07223520454505
    vertex 2566.836765431942 1024.426715689498 139.07223520454505
    vertex 2525.3392542945294 1024.4267156894975 139.07223520454505
  endloop
endfacet
facet normal -2.2204460492503126e-16 -0.9999999982265282 -5.955622321127487e-05
  outer loop
    vertex 2166.236765431942 1024.4267156894982 139.07223520454505
    vertex 2525.3392542945294 1024.4267156894975 139.07223520454505
    vertex 2207.734276569356 1024.4267156894987 139.07223520454505
  endloop
endfacet
facet normal 0.0 0.0 1.0
  outer loop
    vertex 2566.836765431944 1268.3046986231511 139.072235204545
    vertex 2525.3392542945276 1260.8071874857342 139.07223520454505
    vertex 2566.836765431942 1024.426715689498 139.07223520454505
  endloop
endfacet
facet normal 0.0 0.0 1.0
  outer loop
    vertex 2525.3392542945276 1260.8071874857342 139.07223520454505
    vertex 2566.836765431944 1268.3046986231511 139.072235204545
    vertex 2166.236765431943 1268.3046986231493 139.072235204545
  endloop
endfacet
facet normal 0.0 0.0 1.0
  outer loop
    vertex 2566.836765431942 1024.426715689498 139.07223520454505
    vertex 2525.3392542945276 1260.8071874857342 139.07223520454505
    vertex 2525.3392542945294 1024.4267156894975 139.07223520454505
  endloop
endfacet
facet normal 0.0 0.0 1.0
  outer loop
    vertex 2525.3392542945276 1260.8071874857342 139.07223520454505
    vertex 2166.236765431943 1268.3046986231493 139.072235204545
    vertex 2207.7342765693575 1260.807187485732 139.07223520454505
  endloop
endfacet
facet normal 0.0 0.0 1.0
  outer loop
    vertex 2207.7342765693575 1260.807187485732 139.07223520454505
    vertex 2166.236765431943 1268.3046986231493 139.072235204545
    vertex 2207.734276569356 1024.4267156894987 139.07223520454505
  endloop
endfacet
facet normal 0.0 0.0 1.0
  outer loop
    vertex 2207.734276569356 1024.4267156894987 139.07223520454505
    vertex 2166.236765431943 1268.3046986231493 139.072235204545
    vertex 2166.236765431942 1024.4267156894982 139.07223520454505
  endloop
endfacet
facet normal -0.12816882609972557 0.9583091561530517 0.25537484850596487
  outer loop
    vertex 2566.836765431944 1268.3046986231511 139.072235204545
    vertex 2566.8367654319436 1280.8046986231489 92.16524917208392
    vertex 2559.3176168709583 1277.945798265591 99.11969263132039
  endloop
endfacet
facet normal 1.0 -1.1102230246251564e-16 0.0
  outer loop
    vertex 2566.836765431942 1024.426715689498 36.03778424669107
    vertex 2566.836765431942 1406.3552674846262 -2.230864862600375
    vertex 2566.8367654319427 1419.0267156894977 36.03778424669106
  endloop
endfacet
facet normal 1.0 -1.1102230246251564e-16 0.0
  outer loop
    vertex 2566.836765431942 1406.3552674846262 -2.230864862600375
    vertex 2566.836765431942 1024.426715689498 36.03778424669107
    vertex 2566.836765431942 1024.4383429853376 -2.4999959032117087
  endloop
endfacet
endsolid Untitled
