solid pdp11-2
facet normal 0.0 0.0 1.0
  outer loop
    vertex 57.150000000000006 863.5999999999999 3619.5
    vertex 552.4499999999999 876.3 3619.5
    vertex 57.15 876.3 3619.5
  endloop
endfacet
facet normal 0.0 0.0 1.0
  outer loop
    vertex 552.4499999999999 876.3 3619.5
    vertex 57.150000000000006 863.5999999999999 3619.5
    vertex 552.4499999999999 863.5999999999999 3619.5
  endloop
endfacet
facet normal 0.0 -1.0 0.0
  outer loop
    vertex 552.4499999999999 863.5999999999999 3619.5
    vertex 57.150000000000006 863.5999999999999 1828.8
    vertex 552.4499999999999 863.5999999999999 1828.8
  endloop
endfacet
facet normal 0.0 -1.0 0.0
  outer loop
    vertex 57.150000000000006 863.5999999999999 1828.8
    vertex 552.4499999999999 863.5999999999999 3619.5
    vertex 57.150000000000006 863.5999999999999 3619.5
  endloop
endfacet
facet normal 0.0 0.0 -1.0
  outer loop
    vertex 552.4499999999999 876.3 1828.8
    vertex 57.150000000000006 863.5999999999999 1828.8
    vertex 57.15 876.3 1828.8
  endloop
endfacet
facet normal 0.0 0.0 -1.0
  outer loop
    vertex 57.150000000000006 863.5999999999999 1828.8
    vertex 552.4499999999999 876.3 1828.8
    vertex 552.4499999999999 863.5999999999999 1828.8
  endloop
endfacet
facet normal 0.0 1.0 0.0
  outer loop
    vertex 57.15 876.3 3619.5
    vertex 552.4499999999999 876.3 1828.8
    vertex 57.15 876.3 1828.8
  endloop
endfacet
facet normal 0.0 1.0 0.0
  outer loop
    vertex 552.4499999999999 876.3 1828.8
    vertex 57.15 876.3 3619.5
    vertex 552.4499999999999 876.3 3619.5
  endloop
endfacet
facet normal -1.0 -1.4458718460234595e-16 0.0
  outer loop
    vertex 57.15 876.3 3619.5
    vertex 57.150000000000006 863.5999999999999 1828.8
    vertex 57.150000000000006 863.5999999999999 3619.5
  endloop
endfacet
facet normal -1.0 -1.4458718460234595e-16 0.0
  outer loop
    vertex 57.150000000000006 863.5999999999999 1828.8
    vertex 57.15 876.3 3619.5
    vertex 57.15 876.3 1828.8
  endloop
endfacet
facet normal 1.0 0.0 0.0
  outer loop
    vertex 552.4499999999999 876.3 1828.8
    vertex 552.4499999999999 863.5999999999999 3619.5
    vertex 552.4499999999999 863.5999999999999 1828.8
  endloop
endfacet
facet normal 1.0 0.0 0.0
  outer loop
    vertex 552.4499999999999 863.5999999999999 3619.5
    vertex 552.4499999999999 876.3 1828.8
    vertex 552.4499999999999 876.3 3619.5
  endloop
endfacet
endsolid pdp11-2
