solid pdp11-2
facet normal 0.0 1.0 0.0
  outer loop
    vertex 25.4 -93.12491514005352 1473.1999999999998
    vertex 37.235239686379124 -93.12491514005352 1479.494039146837
    vertex 469.9 -93.12491514005352 1473.1999999999998
  endloop
endfacet
facet normal 0.0 1.0 0.0
  outer loop
    vertex 37.235239686379124 -93.12491514005352 1479.494039146837
    vertex 25.4 -93.12491514005352 1473.1999999999998
    vertex 36.61462431460531 -93.12491514005352 1479.55
  endloop
endfacet
facet normal 0.0 1.0 0.0
  outer loop
    vertex 36.61462431460531 -93.12491514005352 1479.55
    vertex 25.4 -93.12491514005352 1473.1999999999998
    vertex 36.372172113139584 -93.12491514005352 1479.571861901368
  endloop
endfacet
facet normal 0.0 1.0 0.0
  outer loop
    vertex 36.372172113139584 -93.12491514005352 1479.571861901368
    vertex 25.4 -93.12491514005352 1473.1999999999998
    vertex 35.53137104285954 -93.12491514005352 1479.7816131285786
  endloop
endfacet
facet normal 0.0 1.0 0.0
  outer loop
    vertex 35.53137104285954 -93.12491514005352 1479.7816131285786
    vertex 25.4 -93.12491514005352 1473.1999999999998
    vertex 34.73287945030919 -93.12491514005352 1480.1182927889781
  endloop
endfacet
facet normal 0.0 1.0 0.0
  outer loop
    vertex 34.73287945030919 -93.12491514005352 1480.1182927889781
    vertex 25.4 -93.12491514005352 1473.1999999999998
    vertex 33.995731738998956 -93.12491514005352 1480.573875129297
  endloop
endfacet
facet normal 0.0 1.0 0.0
  outer loop
    vertex 33.995731738998956 -93.12491514005352 1480.573875129297
    vertex 25.4 -93.12491514005352 1473.1999999999998
    vertex 33.3375 -93.12491514005352 1481.1374999999998
  endloop
endfacet
facet normal 0.0 1.0 0.0
  outer loop
    vertex 33.3375 -93.12491514005352 1481.1374999999998
    vertex 25.4 -93.12491514005352 1473.1999999999998
    vertex 32.77387512929715 -93.12491514005352 1481.795731738999
  endloop
endfacet
facet normal 0.0 1.0 0.0
  outer loop
    vertex 32.77387512929715 -93.12491514005352 1481.795731738999
    vertex 25.4 -93.12491514005352 1473.1999999999998
    vertex 32.31829278897823 -93.12491514005352 1482.532879450309
  endloop
endfacet
facet normal 0.0 1.0 0.0
  outer loop
    vertex 32.31829278897823 -93.12491514005352 1482.532879450309
    vertex 25.4 -93.12491514005352 1473.1999999999998
    vertex 31.98161312857862 -93.12491514005352 1483.3313710428595
  endloop
endfacet
facet normal 0.0 1.0 0.0
  outer loop
    vertex 31.98161312857862 -93.12491514005352 1483.3313710428595
    vertex 25.4 -93.12491514005352 1473.1999999999998
    vertex 31.7718619013681 -93.12491514005352 1484.1721721131396
  endloop
endfacet
facet normal 0.0 1.0 0.0
  outer loop
    vertex 31.7718619013681 -93.12491514005352 1484.1721721131396
    vertex 25.4 -93.12491514005352 1473.1999999999998
    vertex 31.694039146837095 -93.12491514005352 1485.035239686379
  endloop
endfacet
facet normal 0.0 1.0 0.0
  outer loop
    vertex 31.694039146837095 -93.12491514005352 1485.035239686379
    vertex 25.4 -93.12491514005352 1473.1999999999998
    vertex 25.4 -93.12491514005352 1749.425
  endloop
endfacet
facet normal 0.0 1.0 0.0
  outer loop
    vertex 31.7718619013681 -93.12491514005352 1484.1721721131396
    vertex 31.694039146837095 -93.12491514005352 1485.035239686379
    vertex 31.75 -93.12491514005352 1484.4146243146051
  endloop
endfacet
facet normal 0.0 1.0 0.0
  outer loop
    vertex 31.694039146837095 -93.12491514005352 1485.035239686379
    vertex 25.4 -93.12491514005352 1749.425
    vertex 31.75 -93.12491514005352 1485.8999999999999
  endloop
endfacet
facet normal 0.0 1.0 0.0
  outer loop
    vertex 31.75 -93.12491514005352 1485.8999999999999
    vertex 25.4 -93.12491514005352 1749.425
    vertex 31.75 -93.12491514005352 1736.725
  endloop
endfacet
facet normal 0.0 1.0 0.0
  outer loop
    vertex 31.75 -93.12491514005352 1736.725
    vertex 25.4 -93.12491514005352 1749.425
    vertex 31.8043251302763 -93.12491514005352 1737.553841320597
  endloop
endfacet
facet normal 0.0 1.0 0.0
  outer loop
    vertex 31.8043251302763 -93.12491514005352 1737.553841320597
    vertex 25.4 -93.12491514005352 1749.425
    vertex 31.966371003064413 -93.12491514005352 1738.368500936401
  endloop
endfacet
facet normal 0.0 1.0 0.0
  outer loop
    vertex 31.966371003064413 -93.12491514005352 1738.368500936401
    vertex 25.4 -93.12491514005352 1749.425
    vertex 32.233364968553325 -93.12491514005352 1739.1550397955182
  endloop
endfacet
facet normal 0.0 1.0 0.0
  outer loop
    vertex 32.233364968553325 -93.12491514005352 1739.1550397955182
    vertex 25.4 -93.12491514005352 1749.425
    vertex 32.60073868596881 -93.12491514005352 1739.8999999999999
  endloop
endfacet
facet normal 0.0 1.0 0.0
  outer loop
    vertex 32.60073868596881 -93.12491514005352 1739.8999999999999
    vertex 25.4 -93.12491514005352 1749.425
    vertex 33.06220628915065 -93.12491514005352 1740.5906350742052
  endloop
endfacet
facet normal 0.0 1.0 0.0
  outer loop
    vertex 33.06220628915065 -93.12491514005352 1740.5906350742052
    vertex 25.4 -93.12491514005352 1749.425
    vertex 33.60987193946542 -93.12491514005352 1741.2151280605344
  endloop
endfacet
facet normal 0.0 1.0 0.0
  outer loop
    vertex 33.60987193946542 -93.12491514005352 1741.2151280605344
    vertex 25.4 -93.12491514005352 1749.425
    vertex 34.234364925794615 -93.12491514005352 1741.762793710849
  endloop
endfacet
facet normal 0.0 1.0 0.0
  outer loop
    vertex 34.234364925794615 -93.12491514005352 1741.762793710849
    vertex 25.4 -93.12491514005352 1749.425
    vertex 34.925 -93.12491514005352 1742.2242613140309
  endloop
endfacet
facet normal 0.0 1.0 0.0
  outer loop
    vertex 34.925 -93.12491514005352 1742.2242613140309
    vertex 25.4 -93.12491514005352 1749.425
    vertex 35.669960204481676 -93.12491514005352 1742.5916350314467
  endloop
endfacet
facet normal 0.0 1.0 0.0
  outer loop
    vertex 35.669960204481676 -93.12491514005352 1742.5916350314467
    vertex 25.4 -93.12491514005352 1749.425
    vertex 36.45649906359899 -93.12491514005352 1742.8586289969357
  endloop
endfacet
facet normal 0.0 1.0 0.0
  outer loop
    vertex 36.45649906359899 -93.12491514005352 1742.8586289969357
    vertex 25.4 -93.12491514005352 1749.425
    vertex 37.271158679402674 -93.12491514005352 1743.0206748697235
  endloop
endfacet
facet normal 0.0 1.0 0.0
  outer loop
    vertex 37.271158679402674 -93.12491514005352 1743.0206748697235
    vertex 25.4 -93.12491514005352 1749.425
    vertex 38.099999999999994 -93.12491514005352 1743.0749999999998
  endloop
endfacet
facet normal 0.0 1.0 0.0
  outer loop
    vertex 38.099999999999994 -93.12491514005352 1743.0749999999998
    vertex 25.4 -93.12491514005352 1749.425
    vertex 457.2 -93.12491514005352 1743.0749999999998
  endloop
endfacet
facet normal 0.0 1.0 0.0
  outer loop
    vertex 469.9 -93.12491514005352 1473.1999999999998
    vertex 463.54999999999995 -93.12491514005352 1485.8999999999999
    vertex 469.9 -93.12491514005352 1749.425
  endloop
endfacet
facet normal 0.0 1.0 0.0
  outer loop
    vertex 463.54999999999995 -93.12491514005352 1485.8999999999999
    vertex 469.9 -93.12491514005352 1473.1999999999998
    vertex 463.49567486972364 -93.12491514005352 1485.0711586794025
  endloop
endfacet
facet normal 0.0 1.0 0.0
  outer loop
    vertex 463.49567486972364 -93.12491514005352 1485.0711586794025
    vertex 469.9 -93.12491514005352 1473.1999999999998
    vertex 463.33362899693554 -93.12491514005352 1484.256499063599
  endloop
endfacet
facet normal 0.0 1.0 0.0
  outer loop
    vertex 463.33362899693554 -93.12491514005352 1484.256499063599
    vertex 469.9 -93.12491514005352 1473.1999999999998
    vertex 463.0666350314467 -93.12491514005352 1483.4699602044816
  endloop
endfacet
facet normal 0.0 1.0 0.0
  outer loop
    vertex 463.0666350314467 -93.12491514005352 1483.4699602044816
    vertex 469.9 -93.12491514005352 1473.1999999999998
    vertex 462.6992613140311 -93.12491514005352 1482.725
  endloop
endfacet
facet normal 0.0 1.0 0.0
  outer loop
    vertex 462.6992613140311 -93.12491514005352 1482.725
    vertex 469.9 -93.12491514005352 1473.1999999999998
    vertex 462.2377937108493 -93.12491514005352 1482.0343649257945
  endloop
endfacet
facet normal 0.0 1.0 0.0
  outer loop
    vertex 462.2377937108493 -93.12491514005352 1482.0343649257945
    vertex 469.9 -93.12491514005352 1473.1999999999998
    vertex 461.69012806053456 -93.12491514005352 1481.4098719394653
  endloop
endfacet
facet normal 0.0 1.0 0.0
  outer loop
    vertex 461.69012806053456 -93.12491514005352 1481.4098719394653
    vertex 469.9 -93.12491514005352 1473.1999999999998
    vertex 461.0656350742054 -93.12491514005352 1480.8622062891504
  endloop
endfacet
facet normal 0.0 1.0 0.0
  outer loop
    vertex 461.0656350742054 -93.12491514005352 1480.8622062891504
    vertex 469.9 -93.12491514005352 1473.1999999999998
    vertex 460.375 -93.12491514005352 1480.4007386859687
  endloop
endfacet
facet normal 0.0 1.0 0.0
  outer loop
    vertex 460.375 -93.12491514005352 1480.4007386859687
    vertex 469.9 -93.12491514005352 1473.1999999999998
    vertex 459.63003979551826 -93.12491514005352 1480.0333649685533
  endloop
endfacet
facet normal 0.0 1.0 0.0
  outer loop
    vertex 459.63003979551826 -93.12491514005352 1480.0333649685533
    vertex 469.9 -93.12491514005352 1473.1999999999998
    vertex 458.843500936401 -93.12491514005352 1479.7663710030643
  endloop
endfacet
facet normal 0.0 1.0 0.0
  outer loop
    vertex 458.843500936401 -93.12491514005352 1479.7663710030643
    vertex 469.9 -93.12491514005352 1473.1999999999998
    vertex 458.0288413205973 -93.12491514005352 1479.604325130276
  endloop
endfacet
facet normal 0.0 1.0 0.0
  outer loop
    vertex 458.0288413205973 -93.12491514005352 1479.604325130276
    vertex 469.9 -93.12491514005352 1473.1999999999998
    vertex 457.2 -93.12491514005352 1479.55
  endloop
endfacet
facet normal 0.0 1.0 0.0
  outer loop
    vertex 457.2 -93.12491514005352 1479.55
    vertex 469.9 -93.12491514005352 1473.1999999999998
    vertex 37.235239686379124 -93.12491514005352 1479.494039146837
  endloop
endfacet
facet normal 0.0 1.0 0.0
  outer loop
    vertex 457.2 -93.12491514005352 1479.55
    vertex 37.235239686379124 -93.12491514005352 1479.494039146837
    vertex 38.099999999999994 -93.12491514005352 1479.55
  endloop
endfacet
facet normal 0.0 1.0 0.0
  outer loop
    vertex 469.9 -93.12491514005352 1749.425
    vertex 463.54999999999995 -93.12491514005352 1485.8999999999999
    vertex 463.54999999999995 -93.12491514005352 1736.725
  endloop
endfacet
facet normal 0.0 1.0 0.0
  outer loop
    vertex 469.9 -93.12491514005352 1749.425
    vertex 463.54999999999995 -93.12491514005352 1736.725
    vertex 463.49567486972364 -93.12491514005352 1737.553841320597
  endloop
endfacet
facet normal 0.0 1.0 0.0
  outer loop
    vertex 469.9 -93.12491514005352 1749.425
    vertex 463.49567486972364 -93.12491514005352 1737.553841320597
    vertex 463.33362899693554 -93.12491514005352 1738.368500936401
  endloop
endfacet
facet normal 0.0 1.0 0.0
  outer loop
    vertex 469.9 -93.12491514005352 1749.425
    vertex 463.33362899693554 -93.12491514005352 1738.368500936401
    vertex 463.0666350314467 -93.12491514005352 1739.1550397955182
  endloop
endfacet
facet normal 0.0 1.0 0.0
  outer loop
    vertex 469.9 -93.12491514005352 1749.425
    vertex 463.0666350314467 -93.12491514005352 1739.1550397955182
    vertex 462.6992613140311 -93.12491514005352 1739.8999999999999
  endloop
endfacet
facet normal 0.0 1.0 0.0
  outer loop
    vertex 469.9 -93.12491514005352 1749.425
    vertex 462.6992613140311 -93.12491514005352 1739.8999999999999
    vertex 462.2377937108493 -93.12491514005352 1740.5906350742052
  endloop
endfacet
facet normal 0.0 1.0 0.0
  outer loop
    vertex 469.9 -93.12491514005352 1749.425
    vertex 462.2377937108493 -93.12491514005352 1740.5906350742052
    vertex 461.69012806053456 -93.12491514005352 1741.2151280605344
  endloop
endfacet
facet normal 0.0 1.0 0.0
  outer loop
    vertex 469.9 -93.12491514005352 1749.425
    vertex 461.69012806053456 -93.12491514005352 1741.2151280605344
    vertex 461.0656350742054 -93.12491514005352 1741.762793710849
  endloop
endfacet
facet normal 0.0 1.0 0.0
  outer loop
    vertex 469.9 -93.12491514005352 1749.425
    vertex 461.0656350742054 -93.12491514005352 1741.762793710849
    vertex 460.375 -93.12491514005352 1742.2242613140309
  endloop
endfacet
facet normal 0.0 1.0 0.0
  outer loop
    vertex 469.9 -93.12491514005352 1749.425
    vertex 460.375 -93.12491514005352 1742.2242613140309
    vertex 459.63003979551826 -93.12491514005352 1742.5916350314467
  endloop
endfacet
facet normal 0.0 1.0 0.0
  outer loop
    vertex 469.9 -93.12491514005352 1749.425
    vertex 459.63003979551826 -93.12491514005352 1742.5916350314467
    vertex 458.843500936401 -93.12491514005352 1742.8586289969357
  endloop
endfacet
facet normal 0.0 1.0 0.0
  outer loop
    vertex 469.9 -93.12491514005352 1749.425
    vertex 458.843500936401 -93.12491514005352 1742.8586289969357
    vertex 458.0288413205973 -93.12491514005352 1743.0206748697235
  endloop
endfacet
facet normal 0.0 1.0 0.0
  outer loop
    vertex 469.9 -93.12491514005352 1749.425
    vertex 458.0288413205973 -93.12491514005352 1743.0206748697235
    vertex 457.2 -93.12491514005352 1743.0749999999998
  endloop
endfacet
facet normal 0.0 1.0 0.0
  outer loop
    vertex 469.9 -93.12491514005352 1749.425
    vertex 457.2 -93.12491514005352 1743.0749999999998
    vertex 25.4 -93.12491514005352 1749.425
  endloop
endfacet
facet normal 0.9959593139531117 0.0 0.08980559531592257
  outer loop
    vertex 31.75 -93.12491514005352 1484.4146243146051
    vertex 31.694039146837095 -99.47491514005353 1485.035239686379
    vertex 31.75 -99.47491514005353 1484.4146243146051
  endloop
endfacet
facet normal 0.9959593139531117 0.0 0.08980559531592257
  outer loop
    vertex 31.694039146837095 -99.47491514005353 1485.035239686379
    vertex 31.75 -93.12491514005352 1484.4146243146051
    vertex 31.694039146837095 -93.12491514005352 1485.035239686379
  endloop
endfacet
facet normal 0.9979126958216487 0.0 -0.06457748460546976
  outer loop
    vertex 31.694039146837095 -93.12491514005352 1485.035239686379
    vertex 31.75 -99.47491514005353 1485.8999999999999
    vertex 31.694039146837095 -99.47491514005353 1485.035239686379
  endloop
endfacet
facet normal 0.9979126958216487 0.0 -0.06457748460546976
  outer loop
    vertex 31.75 -99.47491514005353 1485.8999999999999
    vertex 31.694039146837095 -93.12491514005352 1485.035239686379
    vertex 31.75 -93.12491514005352 1485.8999999999999
  endloop
endfacet
facet normal 1.0 0.0 0.0
  outer loop
    vertex 31.75 -93.12491514005352 1485.8999999999999
    vertex 31.75 -99.47491514005353 1736.725
    vertex 31.75 -99.47491514005353 1485.8999999999999
  endloop
endfacet
facet normal 1.0 0.0 0.0
  outer loop
    vertex 31.75 -99.47491514005353 1736.725
    vertex 31.75 -93.12491514005352 1485.8999999999999
    vertex 31.75 -93.12491514005352 1736.725
  endloop
endfacet
facet normal 0.9978589232386039 0.0 -0.06540312923013841
  outer loop
    vertex 31.75 -93.12491514005352 1736.725
    vertex 31.8043251302763 -99.47491514005353 1737.553841320597
    vertex 31.75 -99.47491514005353 1736.725
  endloop
endfacet
facet normal 0.9978589232386039 0.0 -0.06540312923013841
  outer loop
    vertex 31.8043251302763 -99.47491514005353 1737.553841320597
    vertex 31.75 -93.12491514005352 1736.725
    vertex 31.8043251302763 -93.12491514005352 1737.553841320597
  endloop
endfacet
facet normal 0.9807852804032295 0.0 -0.19509032201613274
  outer loop
    vertex 31.8043251302763 -93.12491514005352 1737.553841320597
    vertex 31.966371003064413 -99.47491514005353 1738.368500936401
    vertex 31.8043251302763 -99.47491514005353 1737.553841320597
  endloop
endfacet
facet normal 0.9807852804032295 0.0 -0.19509032201613274
  outer loop
    vertex 31.966371003064413 -99.47491514005353 1738.368500936401
    vertex 31.8043251302763 -93.12491514005352 1737.553841320597
    vertex 31.966371003064413 -93.12491514005352 1738.368500936401
  endloop
endfacet
facet normal 0.9469301294951075 0.0 -0.3214394653031568
  outer loop
    vertex 31.966371003064413 -93.12491514005352 1738.368500936401
    vertex 32.233364968553325 -99.47491514005353 1739.1550397955182
    vertex 31.966371003064413 -99.47491514005353 1738.368500936401
  endloop
endfacet
facet normal 0.9469301294951075 0.0 -0.3214394653031568
  outer loop
    vertex 32.233364968553325 -99.47491514005353 1739.1550397955182
    vertex 31.966371003064413 -93.12491514005352 1738.368500936401
    vertex 32.233364968553325 -93.12491514005352 1739.1550397955182
  endloop
endfacet
facet normal 0.8968727415326873 0.0 -0.4422886902190037
  outer loop
    vertex 32.233364968553325 -93.12491514005352 1739.1550397955182
    vertex 32.60073868596881 -99.47491514005353 1739.8999999999999
    vertex 32.233364968553325 -99.47491514005353 1739.1550397955182
  endloop
endfacet
facet normal 0.8968727415326873 0.0 -0.4422886902190037
  outer loop
    vertex 32.60073868596881 -99.47491514005353 1739.8999999999999
    vertex 32.233364968553325 -93.12491514005352 1739.1550397955182
    vertex 32.60073868596881 -93.12491514005352 1739.8999999999999
  endloop
endfacet
facet normal 0.8314696123025512 0.0 -0.5555702330195933
  outer loop
    vertex 32.60073868596881 -93.12491514005352 1739.8999999999999
    vertex 33.06220628915065 -99.47491514005353 1740.5906350742052
    vertex 32.60073868596881 -99.47491514005353 1739.8999999999999
  endloop
endfacet
facet normal 0.8314696123025512 0.0 -0.5555702330195933
  outer loop
    vertex 33.06220628915065 -99.47491514005353 1740.5906350742052
    vertex 32.60073868596881 -93.12491514005352 1739.8999999999999
    vertex 33.06220628915065 -93.12491514005352 1740.5906350742052
  endloop
endfacet
facet normal 0.7518398074789636 0.0 -0.6593458151000847
  outer loop
    vertex 33.06220628915065 -93.12491514005352 1740.5906350742052
    vertex 33.60987193946542 -99.47491514005353 1741.2151280605344
    vertex 33.06220628915065 -99.47491514005353 1740.5906350742052
  endloop
endfacet
facet normal 0.7518398074789636 0.0 -0.6593458151000847
  outer loop
    vertex 33.60987193946542 -99.47491514005353 1741.2151280605344
    vertex 33.06220628915065 -93.12491514005352 1740.5906350742052
    vertex 33.60987193946542 -93.12491514005352 1741.2151280605344
  endloop
endfacet
facet normal 0.6593458151000675 0.0 -0.7518398074789788
  outer loop
    vertex 34.234364925794615 -93.12491514005352 1741.762793710849
    vertex 33.60987193946542 -99.47491514005353 1741.2151280605344
    vertex 33.60987193946542 -93.12491514005352 1741.2151280605344
  endloop
endfacet
facet normal 0.6593458151000675 0.0 -0.7518398074789788
  outer loop
    vertex 33.60987193946542 -99.47491514005353 1741.2151280605344
    vertex 34.234364925794615 -93.12491514005352 1741.762793710849
    vertex 34.234364925794615 -99.47491514005353 1741.762793710849
  endloop
endfacet
facet normal 0.555570233019623 0.0 -0.8314696123025315
  outer loop
    vertex 34.925 -93.12491514005352 1742.2242613140309
    vertex 34.234364925794615 -99.47491514005353 1741.762793710849
    vertex 34.234364925794615 -93.12491514005352 1741.762793710849
  endloop
endfacet
facet normal 0.555570233019623 0.0 -0.8314696123025315
  outer loop
    vertex 34.234364925794615 -99.47491514005353 1741.762793710849
    vertex 34.925 -93.12491514005352 1742.2242613140309
    vertex 34.925 -99.47491514005353 1742.2242613140309
  endloop
endfacet
facet normal 0.44228869021898193 0.0 -0.8968727415326979
  outer loop
    vertex 35.669960204481676 -93.12491514005352 1742.5916350314467
    vertex 34.925 -99.47491514005353 1742.2242613140309
    vertex 34.925 -93.12491514005352 1742.2242613140309
  endloop
endfacet
facet normal 0.44228869021898193 0.0 -0.8968727415326979
  outer loop
    vertex 34.925 -99.47491514005353 1742.2242613140309
    vertex 35.669960204481676 -93.12491514005352 1742.5916350314467
    vertex 35.669960204481676 -99.47491514005353 1742.5916350314467
  endloop
endfacet
facet normal 0.32143946530315076 0.0 -0.9469301294951094
  outer loop
    vertex 36.45649906359899 -93.12491514005352 1742.8586289969357
    vertex 35.669960204481676 -99.47491514005353 1742.5916350314467
    vertex 35.669960204481676 -93.12491514005352 1742.5916350314467
  endloop
endfacet
facet normal 0.32143946530315076 0.0 -0.9469301294951094
  outer loop
    vertex 35.669960204481676 -99.47491514005353 1742.5916350314467
    vertex 36.45649906359899 -93.12491514005352 1742.8586289969357
    vertex 36.45649906359899 -99.47491514005353 1742.8586289969357
  endloop
endfacet
facet normal 0.1950903220161223 0.0 -0.9807852804032317
  outer loop
    vertex 37.271158679402674 -93.12491514005352 1743.0206748697235
    vertex 36.45649906359899 -99.47491514005353 1742.8586289969357
    vertex 36.45649906359899 -93.12491514005352 1742.8586289969357
  endloop
endfacet
facet normal 0.1950903220161223 0.0 -0.9807852804032317
  outer loop
    vertex 36.45649906359899 -99.47491514005353 1742.8586289969357
    vertex 37.271158679402674 -93.12491514005352 1743.0206748697235
    vertex 37.271158679402674 -99.47491514005353 1743.0206748697235
  endloop
endfacet
facet normal 0.06540312923016633 0.0 -0.997858923238602
  outer loop
    vertex 38.099999999999994 -93.12491514005352 1743.0749999999998
    vertex 37.271158679402674 -99.47491514005353 1743.0206748697235
    vertex 37.271158679402674 -93.12491514005352 1743.0206748697235
  endloop
endfacet
facet normal 0.06540312923016633 0.0 -0.997858923238602
  outer loop
    vertex 37.271158679402674 -99.47491514005353 1743.0206748697235
    vertex 38.099999999999994 -93.12491514005352 1743.0749999999998
    vertex 38.099999999999994 -99.47491514005353 1743.0749999999998
  endloop
endfacet
facet normal -0.0 -0.0 -1.0
  outer loop
    vertex 457.2 -93.12491514005352 1743.0749999999998
    vertex 38.099999999999994 -99.47491514005353 1743.0749999999998
    vertex 38.099999999999994 -93.12491514005352 1743.0749999999998
  endloop
endfacet
facet normal -0.0 -0.0 -1.0
  outer loop
    vertex 38.099999999999994 -99.47491514005353 1743.0749999999998
    vertex 457.2 -93.12491514005352 1743.0749999999998
    vertex 457.2 -99.47491514005353 1743.0749999999998
  endloop
endfacet
facet normal -0.065403129230169 -0.0 -0.9978589232386018
  outer loop
    vertex 458.0288413205973 -93.12491514005352 1743.0206748697235
    vertex 457.2 -99.47491514005353 1743.0749999999998
    vertex 457.2 -93.12491514005352 1743.0749999999998
  endloop
endfacet
facet normal -0.065403129230169 -0.0 -0.9978589232386018
  outer loop
    vertex 457.2 -99.47491514005353 1743.0749999999998
    vertex 458.0288413205973 -93.12491514005352 1743.0206748697235
    vertex 458.0288413205973 -99.47491514005353 1743.0206748697235
  endloop
endfacet
facet normal -0.19509032201610543 -0.0 -0.980785280403235
  outer loop
    vertex 458.843500936401 -93.12491514005352 1742.8586289969357
    vertex 458.0288413205973 -99.47491514005353 1743.0206748697235
    vertex 458.0288413205973 -93.12491514005352 1743.0206748697235
  endloop
endfacet
facet normal -0.19509032201610543 -0.0 -0.980785280403235
  outer loop
    vertex 458.0288413205973 -99.47491514005353 1743.0206748697235
    vertex 458.843500936401 -93.12491514005352 1742.8586289969357
    vertex 458.843500936401 -99.47491514005353 1742.8586289969357
  endloop
endfacet
facet normal -0.3214394653031777 -0.0 -0.9469301294951002
  outer loop
    vertex 459.63003979551826 -93.12491514005352 1742.5916350314467
    vertex 458.843500936401 -99.47491514005353 1742.8586289969357
    vertex 458.843500936401 -93.12491514005352 1742.8586289969357
  endloop
endfacet
facet normal -0.3214394653031777 -0.0 -0.9469301294951002
  outer loop
    vertex 458.843500936401 -99.47491514005353 1742.8586289969357
    vertex 459.63003979551826 -93.12491514005352 1742.5916350314467
    vertex 459.63003979551826 -99.47491514005353 1742.5916350314467
  endloop
endfacet
facet normal -0.4422886902189658 -0.0 -0.8968727415327059
  outer loop
    vertex 460.375 -93.12491514005352 1742.2242613140309
    vertex 459.63003979551826 -99.47491514005353 1742.5916350314467
    vertex 459.63003979551826 -93.12491514005352 1742.5916350314467
  endloop
endfacet
facet normal -0.4422886902189658 -0.0 -0.8968727415327059
  outer loop
    vertex 459.63003979551826 -99.47491514005353 1742.5916350314467
    vertex 460.375 -93.12491514005352 1742.2242613140309
    vertex 460.375 -99.47491514005353 1742.2242613140309
  endloop
endfacet
facet normal -0.5555702330196168 -0.0 -0.8314696123025357
  outer loop
    vertex 461.0656350742054 -93.12491514005352 1741.762793710849
    vertex 460.375 -99.47491514005353 1742.2242613140309
    vertex 460.375 -93.12491514005352 1742.2242613140309
  endloop
endfacet
facet normal -0.5555702330196168 -0.0 -0.8314696123025357
  outer loop
    vertex 460.375 -99.47491514005353 1742.2242613140309
    vertex 461.0656350742054 -93.12491514005352 1741.762793710849
    vertex 461.0656350742054 -99.47491514005353 1741.762793710849
  endloop
endfacet
facet normal -0.659345815100054 -0.0 -0.7518398074789905
  outer loop
    vertex 461.69012806053456 -93.12491514005352 1741.2151280605344
    vertex 461.0656350742054 -99.47491514005353 1741.762793710849
    vertex 461.0656350742054 -93.12491514005352 1741.762793710849
  endloop
endfacet
facet normal -0.659345815100054 -0.0 -0.7518398074789905
  outer loop
    vertex 461.0656350742054 -99.47491514005353 1741.762793710849
    vertex 461.69012806053456 -93.12491514005352 1741.2151280605344
    vertex 461.69012806053456 -99.47491514005353 1741.2151280605344
  endloop
endfacet
facet normal -0.7518398074789939 -0.0 -0.6593458151000502
  outer loop
    vertex 461.69012806053456 -93.12491514005352 1741.2151280605344
    vertex 462.2377937108493 -99.47491514005353 1740.5906350742052
    vertex 461.69012806053456 -99.47491514005353 1741.2151280605344
  endloop
endfacet
facet normal -0.7518398074789939 -0.0 -0.6593458151000502
  outer loop
    vertex 462.2377937108493 -99.47491514005353 1740.5906350742052
    vertex 461.69012806053456 -93.12491514005352 1741.2151280605344
    vertex 462.2377937108493 -93.12491514005352 1740.5906350742052
  endloop
endfacet
facet normal -0.8314696123025607 -0.0 -0.5555702330195792
  outer loop
    vertex 462.2377937108493 -93.12491514005352 1740.5906350742052
    vertex 462.6992613140311 -99.47491514005353 1739.8999999999999
    vertex 462.2377937108493 -99.47491514005353 1740.5906350742052
  endloop
endfacet
facet normal -0.8314696123025607 -0.0 -0.5555702330195792
  outer loop
    vertex 462.6992613140311 -99.47491514005353 1739.8999999999999
    vertex 462.2377937108493 -93.12491514005352 1740.5906350742052
    vertex 462.6992613140311 -93.12491514005352 1739.8999999999999
  endloop
endfacet
facet normal -0.8968727415326522 -0.0 -0.44228869021907474
  outer loop
    vertex 462.6992613140311 -93.12491514005352 1739.8999999999999
    vertex 463.0666350314467 -99.47491514005353 1739.1550397955182
    vertex 462.6992613140311 -99.47491514005353 1739.8999999999999
  endloop
endfacet
facet normal -0.8968727415326522 -0.0 -0.44228869021907474
  outer loop
    vertex 463.0666350314467 -99.47491514005353 1739.1550397955182
    vertex 462.6992613140311 -93.12491514005352 1739.8999999999999
    vertex 463.0666350314467 -93.12491514005352 1739.1550397955182
  endloop
endfacet
facet normal -0.946930129495128 -0.0 -0.32143946530309586
  outer loop
    vertex 463.0666350314467 -93.12491514005352 1739.1550397955182
    vertex 463.33362899693554 -99.47491514005353 1738.368500936401
    vertex 463.0666350314467 -99.47491514005353 1739.1550397955182
  endloop
endfacet
facet normal -0.946930129495128 -0.0 -0.32143946530309586
  outer loop
    vertex 463.33362899693554 -99.47491514005353 1738.368500936401
    vertex 463.0666350314467 -93.12491514005352 1739.1550397955182
    vertex 463.33362899693554 -93.12491514005352 1738.368500936401
  endloop
endfacet
facet normal -0.9807852804032309 -0.0 -0.19509032201612622
  outer loop
    vertex 463.33362899693554 -93.12491514005352 1738.368500936401
    vertex 463.49567486972364 -99.47491514005353 1737.553841320597
    vertex 463.33362899693554 -99.47491514005353 1738.368500936401
  endloop
endfacet
facet normal -0.9807852804032309 -0.0 -0.19509032201612622
  outer loop
    vertex 463.49567486972364 -99.47491514005353 1737.553841320597
    vertex 463.33362899693554 -93.12491514005352 1738.368500936401
    vertex 463.49567486972364 -93.12491514005352 1737.553841320597
  endloop
endfacet
facet normal -0.997858923238602 -0.0 -0.06540312923016545
  outer loop
    vertex 463.49567486972364 -93.12491514005352 1737.553841320597
    vertex 463.54999999999995 -99.47491514005353 1736.725
    vertex 463.49567486972364 -99.47491514005353 1737.553841320597
  endloop
endfacet
facet normal -0.997858923238602 -0.0 -0.06540312923016545
  outer loop
    vertex 463.54999999999995 -99.47491514005353 1736.725
    vertex 463.49567486972364 -93.12491514005352 1737.553841320597
    vertex 463.54999999999995 -93.12491514005352 1736.725
  endloop
endfacet
facet normal -1.0 0.0 0.0
  outer loop
    vertex 463.54999999999995 -93.12491514005352 1736.725
    vertex 463.54999999999995 -99.47491514005353 1485.8999999999999
    vertex 463.54999999999995 -99.47491514005353 1736.725
  endloop
endfacet
facet normal -1.0 0.0 0.0
  outer loop
    vertex 463.54999999999995 -99.47491514005353 1485.8999999999999
    vertex 463.54999999999995 -93.12491514005352 1736.725
    vertex 463.54999999999995 -93.12491514005352 1485.8999999999999
  endloop
endfacet
facet normal -0.997858923238602 0.0 0.06540312923016633
  outer loop
    vertex 463.54999999999995 -93.12491514005352 1485.8999999999999
    vertex 463.49567486972364 -99.47491514005353 1485.0711586794025
    vertex 463.54999999999995 -99.47491514005353 1485.8999999999999
  endloop
endfacet
facet normal -0.997858923238602 0.0 0.06540312923016633
  outer loop
    vertex 463.49567486972364 -99.47491514005353 1485.0711586794025
    vertex 463.54999999999995 -93.12491514005352 1485.8999999999999
    vertex 463.49567486972364 -93.12491514005352 1485.0711586794025
  endloop
endfacet
facet normal -0.9807852804032319 0.0 0.19509032201612103
  outer loop
    vertex 463.49567486972364 -93.12491514005352 1485.0711586794025
    vertex 463.33362899693554 -99.47491514005353 1484.256499063599
    vertex 463.49567486972364 -99.47491514005353 1485.0711586794025
  endloop
endfacet
facet normal -0.9807852804032319 0.0 0.19509032201612103
  outer loop
    vertex 463.33362899693554 -99.47491514005353 1484.256499063599
    vertex 463.49567486972364 -93.12491514005352 1485.0711586794025
    vertex 463.33362899693554 -93.12491514005352 1484.256499063599
  endloop
endfacet
facet normal -0.9469301294951253 0.0 0.32143946530310413
  outer loop
    vertex 463.33362899693554 -93.12491514005352 1484.256499063599
    vertex 463.0666350314467 -99.47491514005353 1483.4699602044816
    vertex 463.33362899693554 -99.47491514005353 1484.256499063599
  endloop
endfacet
facet normal -0.9469301294951253 0.0 0.32143946530310413
  outer loop
    vertex 463.0666350314467 -99.47491514005353 1483.4699602044816
    vertex 463.33362899693554 -93.12491514005352 1484.256499063599
    vertex 463.0666350314467 -93.12491514005352 1483.4699602044816
  endloop
endfacet
facet normal -0.896872741532655 0.0 0.44228869021906936
  outer loop
    vertex 463.0666350314467 -93.12491514005352 1483.4699602044816
    vertex 462.6992613140311 -99.47491514005353 1482.725
    vertex 463.0666350314467 -99.47491514005353 1483.4699602044816
  endloop
endfacet
facet normal -0.896872741532655 0.0 0.44228869021906936
  outer loop
    vertex 462.6992613140311 -99.47491514005353 1482.725
    vertex 463.0666350314467 -93.12491514005352 1483.4699602044816
    vertex 462.6992613140311 -93.12491514005352 1482.725
  endloop
endfacet
facet normal -0.8314696123025564 0.0 0.5555702330195855
  outer loop
    vertex 462.6992613140311 -93.12491514005352 1482.725
    vertex 462.2377937108493 -99.47491514005353 1482.0343649257945
    vertex 462.6992613140311 -99.47491514005353 1482.725
  endloop
endfacet
facet normal -0.8314696123025564 0.0 0.5555702330195855
  outer loop
    vertex 462.2377937108493 -99.47491514005353 1482.0343649257945
    vertex 462.6992613140311 -93.12491514005352 1482.725
    vertex 462.2377937108493 -93.12491514005352 1482.0343649257945
  endloop
endfacet
facet normal -0.7518398074790056 0.0 0.6593458151000368
  outer loop
    vertex 462.2377937108493 -93.12491514005352 1482.0343649257945
    vertex 461.69012806053456 -99.47491514005353 1481.4098719394653
    vertex 462.2377937108493 -99.47491514005353 1482.0343649257945
  endloop
endfacet
facet normal -0.7518398074790056 0.0 0.6593458151000368
  outer loop
    vertex 461.69012806053456 -99.47491514005353 1481.4098719394653
    vertex 462.2377937108493 -93.12491514005352 1482.0343649257945
    vertex 461.69012806053456 -93.12491514005352 1481.4098719394653
  endloop
endfacet
facet normal -0.659345815100054 0.0 0.7518398074789905
  outer loop
    vertex 461.69012806053456 -99.47491514005353 1481.4098719394653
    vertex 461.0656350742054 -93.12491514005352 1480.8622062891504
    vertex 461.0656350742054 -99.47491514005353 1480.8622062891504
  endloop
endfacet
facet normal -0.659345815100054 0.0 0.7518398074789905
  outer loop
    vertex 461.0656350742054 -93.12491514005352 1480.8622062891504
    vertex 461.69012806053456 -99.47491514005353 1481.4098719394653
    vertex 461.69012806053456 -93.12491514005352 1481.4098719394653
  endloop
endfacet
facet normal -0.5555702330195981 0.0 0.8314696123025482
  outer loop
    vertex 461.0656350742054 -99.47491514005353 1480.8622062891504
    vertex 460.375 -93.12491514005352 1480.4007386859687
    vertex 460.375 -99.47491514005353 1480.4007386859687
  endloop
endfacet
facet normal -0.5555702330195981 0.0 0.8314696123025482
  outer loop
    vertex 460.375 -93.12491514005352 1480.4007386859687
    vertex 461.0656350742054 -99.47491514005353 1480.8622062891504
    vertex 461.0656350742054 -93.12491514005352 1480.8622062891504
  endloop
endfacet
facet normal -0.4422886902189876 0.0 0.896872741532695
  outer loop
    vertex 460.375 -99.47491514005353 1480.4007386859687
    vertex 459.63003979551826 -93.12491514005352 1480.0333649685533
    vertex 459.63003979551826 -99.47491514005353 1480.0333649685533
  endloop
endfacet
facet normal -0.4422886902189876 0.0 0.896872741532695
  outer loop
    vertex 459.63003979551826 -93.12491514005352 1480.0333649685533
    vertex 460.375 -99.47491514005353 1480.4007386859687
    vertex 460.375 -93.12491514005352 1480.4007386859687
  endloop
endfacet
facet normal -0.32143946530318984 0.0 0.9469301294950963
  outer loop
    vertex 459.63003979551826 -99.47491514005353 1480.0333649685533
    vertex 458.843500936401 -93.12491514005352 1479.7663710030643
    vertex 458.843500936401 -99.47491514005353 1479.7663710030643
  endloop
endfacet
facet normal -0.32143946530318984 0.0 0.9469301294950963
  outer loop
    vertex 458.843500936401 -93.12491514005352 1479.7663710030643
    vertex 459.63003979551826 -99.47491514005353 1480.0333649685533
    vertex 459.63003979551826 -93.12491514005352 1480.0333649685533
  endloop
endfacet
facet normal -0.19509032201610543 0.0 0.980785280403235
  outer loop
    vertex 458.843500936401 -99.47491514005353 1479.7663710030643
    vertex 458.0288413205973 -93.12491514005352 1479.604325130276
    vertex 458.0288413205973 -99.47491514005353 1479.604325130276
  endloop
endfacet
facet normal -0.19509032201610543 0.0 0.980785280403235
  outer loop
    vertex 458.0288413205973 -93.12491514005352 1479.604325130276
    vertex 458.843500936401 -99.47491514005353 1479.7663710030643
    vertex 458.843500936401 -93.12491514005352 1479.7663710030643
  endloop
endfacet
facet normal -0.06540312923014195 0.0 0.9978589232386036
  outer loop
    vertex 458.0288413205973 -99.47491514005353 1479.604325130276
    vertex 457.2 -93.12491514005352 1479.55
    vertex 457.2 -99.47491514005353 1479.55
  endloop
endfacet
facet normal -0.06540312923014195 0.0 0.9978589232386036
  outer loop
    vertex 457.2 -93.12491514005352 1479.55
    vertex 458.0288413205973 -99.47491514005353 1479.604325130276
    vertex 458.0288413205973 -93.12491514005352 1479.604325130276
  endloop
endfacet
facet normal 0.0 0.0 1.0
  outer loop
    vertex 457.2 -99.47491514005353 1479.55
    vertex 38.099999999999994 -93.12491514005352 1479.55
    vertex 38.099999999999994 -99.47491514005353 1479.55
  endloop
endfacet
facet normal 0.0 0.0 1.0
  outer loop
    vertex 38.099999999999994 -93.12491514005352 1479.55
    vertex 457.2 -99.47491514005353 1479.55
    vertex 457.2 -93.12491514005352 1479.55
  endloop
endfacet
facet normal -0.06457748460546371 0.0 0.9979126958216491
  outer loop
    vertex 38.099999999999994 -99.47491514005353 1479.55
    vertex 37.235239686379124 -93.12491514005352 1479.494039146837
    vertex 37.235239686379124 -99.47491514005353 1479.494039146837
  endloop
endfacet
facet normal -0.06457748460546371 0.0 0.9979126958216491
  outer loop
    vertex 37.235239686379124 -93.12491514005352 1479.494039146837
    vertex 38.099999999999994 -99.47491514005353 1479.55
    vertex 38.099999999999994 -93.12491514005352 1479.55
  endloop
endfacet
facet normal 0.08980559531590793 0.0 0.995959313953113
  outer loop
    vertex 37.235239686379124 -99.47491514005353 1479.494039146837
    vertex 36.61462431460531 -93.12491514005352 1479.55
    vertex 36.61462431460531 -99.47491514005353 1479.55
  endloop
endfacet
facet normal 0.08980559531590793 0.0 0.995959313953113
  outer loop
    vertex 36.61462431460531 -93.12491514005352 1479.55
    vertex 37.235239686379124 -99.47491514005353 1479.494039146837
    vertex 37.235239686379124 -93.12491514005352 1479.494039146837
  endloop
endfacet
facet normal 0.08980559531590873 0.0 0.995959313953113
  outer loop
    vertex 36.61462431460531 -99.47491514005353 1479.55
    vertex 36.372172113139584 -93.12491514005352 1479.571861901368
    vertex 36.372172113139584 -99.47491514005353 1479.571861901368
  endloop
endfacet
facet normal 0.08980559531590873 0.0 0.995959313953113
  outer loop
    vertex 36.372172113139584 -93.12491514005352 1479.571861901368
    vertex 36.61462431460531 -99.47491514005353 1479.55
    vertex 36.61462431460531 -93.12491514005352 1479.55
  endloop
endfacet
facet normal 0.2420478938506423 0.0 0.9702643026941
  outer loop
    vertex 36.372172113139584 -99.47491514005353 1479.571861901368
    vertex 35.53137104285954 -93.12491514005352 1479.7816131285786
    vertex 35.53137104285954 -99.47491514005353 1479.7816131285786
  endloop
endfacet
facet normal 0.2420478938506423 0.0 0.9702643026941
  outer loop
    vertex 35.53137104285954 -93.12491514005352 1479.7816131285786
    vertex 36.372172113139584 -99.47491514005353 1479.571861901368
    vertex 36.372172113139584 -93.12491514005352 1479.571861901368
  endloop
endfacet
facet normal 0.3885202665359559 0.0 0.9214401784656615
  outer loop
    vertex 35.53137104285954 -99.47491514005353 1479.7816131285786
    vertex 34.73287945030919 -93.12491514005352 1480.1182927889781
    vertex 34.73287945030919 -99.47491514005353 1480.1182927889781
  endloop
endfacet
facet normal 0.3885202665359559 0.0 0.9214401784656615
  outer loop
    vertex 34.73287945030919 -93.12491514005352 1480.1182927889781
    vertex 35.53137104285954 -99.47491514005353 1479.7816131285786
    vertex 35.53137104285954 -93.12491514005352 1479.7816131285786
  endloop
endfacet
facet normal 0.5257311121191264 0.0 0.8506508083520445
  outer loop
    vertex 34.73287945030919 -99.47491514005353 1480.1182927889781
    vertex 33.995731738998956 -93.12491514005352 1480.573875129297
    vertex 33.995731738998956 -99.47491514005353 1480.573875129297
  endloop
endfacet
facet normal 0.5257311121191264 0.0 0.8506508083520445
  outer loop
    vertex 33.995731738998956 -93.12491514005352 1480.573875129297
    vertex 34.73287945030919 -99.47491514005353 1480.1182927889781
    vertex 34.73287945030919 -93.12491514005352 1480.1182927889781
  endloop
endfacet
facet normal 0.6504096051773659 0.0 0.7595836658940364
  outer loop
    vertex 33.995731738998956 -99.47491514005353 1480.573875129297
    vertex 33.3375 -93.12491514005352 1481.1374999999998
    vertex 33.3375 -99.47491514005353 1481.1374999999998
  endloop
endfacet
facet normal 0.6504096051773659 0.0 0.7595836658940364
  outer loop
    vertex 33.3375 -93.12491514005352 1481.1374999999998
    vertex 33.995731738998956 -99.47491514005353 1480.573875129297
    vertex 33.995731738998956 -93.12491514005352 1480.573875129297
  endloop
endfacet
facet normal 0.7595836658940364 0.0 0.6504096051773659
  outer loop
    vertex 33.3375 -93.12491514005352 1481.1374999999998
    vertex 32.77387512929715 -99.47491514005353 1481.795731738999
    vertex 33.3375 -99.47491514005353 1481.1374999999998
  endloop
endfacet
facet normal 0.7595836658940364 0.0 0.6504096051773659
  outer loop
    vertex 32.77387512929715 -99.47491514005353 1481.795731738999
    vertex 33.3375 -93.12491514005352 1481.1374999999998
    vertex 32.77387512929715 -93.12491514005352 1481.795731738999
  endloop
endfacet
facet normal 0.8506508083520434 0.0 0.5257311121191282
  outer loop
    vertex 32.77387512929715 -93.12491514005352 1481.795731738999
    vertex 32.31829278897823 -99.47491514005353 1482.532879450309
    vertex 32.77387512929715 -99.47491514005353 1481.795731738999
  endloop
endfacet
facet normal 0.8506508083520434 0.0 0.5257311121191282
  outer loop
    vertex 32.31829278897823 -99.47491514005353 1482.532879450309
    vertex 32.77387512929715 -93.12491514005352 1481.795731738999
    vertex 32.31829278897823 -93.12491514005352 1482.532879450309
  endloop
endfacet
facet normal 0.9214401784656636 0.0 0.38852026653595023
  outer loop
    vertex 32.31829278897823 -93.12491514005352 1482.532879450309
    vertex 31.98161312857862 -99.47491514005353 1483.3313710428595
    vertex 32.31829278897823 -99.47491514005353 1482.532879450309
  endloop
endfacet
facet normal 0.9214401784656636 0.0 0.38852026653595023
  outer loop
    vertex 31.98161312857862 -99.47491514005353 1483.3313710428595
    vertex 32.31829278897823 -93.12491514005352 1482.532879450309
    vertex 31.98161312857862 -93.12491514005352 1483.3313710428595
  endloop
endfacet
facet normal 0.9702643026941012 0.0 0.24204789385063769
  outer loop
    vertex 31.98161312857862 -93.12491514005352 1483.3313710428595
    vertex 31.7718619013681 -99.47491514005353 1484.1721721131396
    vertex 31.98161312857862 -99.47491514005353 1483.3313710428595
  endloop
endfacet
facet normal 0.9702643026941012 0.0 0.24204789385063769
  outer loop
    vertex 31.7718619013681 -99.47491514005353 1484.1721721131396
    vertex 31.98161312857862 -93.12491514005352 1483.3313710428595
    vertex 31.7718619013681 -93.12491514005352 1484.1721721131396
  endloop
endfacet
facet normal 0.9959593139531121 0.0 0.0898055953159172
  outer loop
    vertex 31.7718619013681 -93.12491514005352 1484.1721721131396
    vertex 31.75 -99.47491514005353 1484.4146243146051
    vertex 31.7718619013681 -99.47491514005353 1484.1721721131396
  endloop
endfacet
facet normal 0.9959593139531121 0.0 0.0898055953159172
  outer loop
    vertex 31.75 -99.47491514005353 1484.4146243146051
    vertex 31.7718619013681 -93.12491514005352 1484.1721721131396
    vertex 31.75 -93.12491514005352 1484.4146243146051
  endloop
endfacet
facet normal -0.0 -0.0 -1.0
  outer loop
    vertex 469.9 -93.12491514005352 1473.1999999999998
    vertex 25.4 -99.47491514005353 1473.1999999999998
    vertex 25.4 -93.12491514005352 1473.1999999999998
  endloop
endfacet
facet normal -0.0 -0.0 -1.0
  outer loop
    vertex 25.4 -99.47491514005353 1473.1999999999998
    vertex 469.9 -93.12491514005352 1473.1999999999998
    vertex 469.9 -99.47491514005353 1473.1999999999998
  endloop
endfacet
facet normal 1.0 0.0 0.0
  outer loop
    vertex 469.9 -93.12491514005352 1473.1999999999998
    vertex 469.9 -99.47491514005353 1749.425
    vertex 469.9 -99.47491514005353 1473.1999999999998
  endloop
endfacet
facet normal 1.0 0.0 0.0
  outer loop
    vertex 469.9 -99.47491514005353 1749.425
    vertex 469.9 -93.12491514005352 1473.1999999999998
    vertex 469.9 -93.12491514005352 1749.425
  endloop
endfacet
facet normal 0.0 0.0 1.0
  outer loop
    vertex 469.9 -99.47491514005353 1749.425
    vertex 25.4 -93.12491514005352 1749.425
    vertex 25.4 -99.47491514005353 1749.425
  endloop
endfacet
facet normal 0.0 0.0 1.0
  outer loop
    vertex 25.4 -93.12491514005352 1749.425
    vertex 469.9 -99.47491514005353 1749.425
    vertex 469.9 -93.12491514005352 1749.425
  endloop
endfacet
facet normal -1.0 0.0 0.0
  outer loop
    vertex 25.4 -93.12491514005352 1749.425
    vertex 25.4 -99.47491514005353 1473.1999999999998
    vertex 25.4 -99.47491514005353 1749.425
  endloop
endfacet
facet normal -1.0 0.0 0.0
  outer loop
    vertex 25.4 -99.47491514005353 1473.1999999999998
    vertex 25.4 -93.12491514005352 1749.425
    vertex 25.4 -93.12491514005352 1473.1999999999998
  endloop
endfacet
facet normal -0.0 -1.0 -0.0
  outer loop
    vertex 469.9 -99.47491514005353 1473.1999999999998
    vertex 457.2 -99.47491514005353 1479.55
    vertex 25.4 -99.47491514005353 1473.1999999999998
  endloop
endfacet
facet normal -0.0 -1.0 -0.0
  outer loop
    vertex 457.2 -99.47491514005353 1479.55
    vertex 469.9 -99.47491514005353 1473.1999999999998
    vertex 458.0288413205973 -99.47491514005353 1479.604325130276
  endloop
endfacet
facet normal -0.0 -1.0 -0.0
  outer loop
    vertex 458.0288413205973 -99.47491514005353 1479.604325130276
    vertex 469.9 -99.47491514005353 1473.1999999999998
    vertex 458.843500936401 -99.47491514005353 1479.7663710030643
  endloop
endfacet
facet normal -0.0 -1.0 -0.0
  outer loop
    vertex 458.843500936401 -99.47491514005353 1479.7663710030643
    vertex 469.9 -99.47491514005353 1473.1999999999998
    vertex 459.63003979551826 -99.47491514005353 1480.0333649685533
  endloop
endfacet
facet normal -0.0 -1.0 -0.0
  outer loop
    vertex 459.63003979551826 -99.47491514005353 1480.0333649685533
    vertex 469.9 -99.47491514005353 1473.1999999999998
    vertex 460.375 -99.47491514005353 1480.4007386859687
  endloop
endfacet
facet normal -0.0 -1.0 -0.0
  outer loop
    vertex 460.375 -99.47491514005353 1480.4007386859687
    vertex 469.9 -99.47491514005353 1473.1999999999998
    vertex 461.0656350742054 -99.47491514005353 1480.8622062891504
  endloop
endfacet
facet normal -0.0 -1.0 -0.0
  outer loop
    vertex 461.0656350742054 -99.47491514005353 1480.8622062891504
    vertex 469.9 -99.47491514005353 1473.1999999999998
    vertex 461.69012806053456 -99.47491514005353 1481.4098719394653
  endloop
endfacet
facet normal -0.0 -1.0 -0.0
  outer loop
    vertex 461.69012806053456 -99.47491514005353 1481.4098719394653
    vertex 469.9 -99.47491514005353 1473.1999999999998
    vertex 462.2377937108493 -99.47491514005353 1482.0343649257945
  endloop
endfacet
facet normal -0.0 -1.0 -0.0
  outer loop
    vertex 462.2377937108493 -99.47491514005353 1482.0343649257945
    vertex 469.9 -99.47491514005353 1473.1999999999998
    vertex 462.6992613140311 -99.47491514005353 1482.725
  endloop
endfacet
facet normal -0.0 -1.0 -0.0
  outer loop
    vertex 462.6992613140311 -99.47491514005353 1482.725
    vertex 469.9 -99.47491514005353 1473.1999999999998
    vertex 463.0666350314467 -99.47491514005353 1483.4699602044816
  endloop
endfacet
facet normal -0.0 -1.0 -0.0
  outer loop
    vertex 463.0666350314467 -99.47491514005353 1483.4699602044816
    vertex 469.9 -99.47491514005353 1473.1999999999998
    vertex 463.33362899693554 -99.47491514005353 1484.256499063599
  endloop
endfacet
facet normal -0.0 -1.0 -0.0
  outer loop
    vertex 463.33362899693554 -99.47491514005353 1484.256499063599
    vertex 469.9 -99.47491514005353 1473.1999999999998
    vertex 463.49567486972364 -99.47491514005353 1485.0711586794025
  endloop
endfacet
facet normal -0.0 -1.0 -0.0
  outer loop
    vertex 463.49567486972364 -99.47491514005353 1485.0711586794025
    vertex 469.9 -99.47491514005353 1473.1999999999998
    vertex 463.54999999999995 -99.47491514005353 1485.8999999999999
  endloop
endfacet
facet normal -0.0 -1.0 -0.0
  outer loop
    vertex 463.54999999999995 -99.47491514005353 1485.8999999999999
    vertex 469.9 -99.47491514005353 1473.1999999999998
    vertex 469.9 -99.47491514005353 1749.425
  endloop
endfacet
facet normal -0.0 -1.0 -0.0
  outer loop
    vertex 25.4 -99.47491514005353 1473.1999999999998
    vertex 457.2 -99.47491514005353 1479.55
    vertex 37.235239686379124 -99.47491514005353 1479.494039146837
  endloop
endfacet
facet normal -0.0 -1.0 -0.0
  outer loop
    vertex 463.54999999999995 -99.47491514005353 1485.8999999999999
    vertex 469.9 -99.47491514005353 1749.425
    vertex 463.54999999999995 -99.47491514005353 1736.725
  endloop
endfacet
facet normal -0.0 -1.0 -0.0
  outer loop
    vertex 463.54999999999995 -99.47491514005353 1736.725
    vertex 469.9 -99.47491514005353 1749.425
    vertex 463.49567486972364 -99.47491514005353 1737.553841320597
  endloop
endfacet
facet normal -0.0 -1.0 -0.0
  outer loop
    vertex 463.49567486972364 -99.47491514005353 1737.553841320597
    vertex 469.9 -99.47491514005353 1749.425
    vertex 463.33362899693554 -99.47491514005353 1738.368500936401
  endloop
endfacet
facet normal -0.0 -1.0 -0.0
  outer loop
    vertex 463.33362899693554 -99.47491514005353 1738.368500936401
    vertex 469.9 -99.47491514005353 1749.425
    vertex 463.0666350314467 -99.47491514005353 1739.1550397955182
  endloop
endfacet
facet normal -0.0 -1.0 -0.0
  outer loop
    vertex 463.0666350314467 -99.47491514005353 1739.1550397955182
    vertex 469.9 -99.47491514005353 1749.425
    vertex 462.6992613140311 -99.47491514005353 1739.8999999999999
  endloop
endfacet
facet normal -0.0 -1.0 -0.0
  outer loop
    vertex 462.6992613140311 -99.47491514005353 1739.8999999999999
    vertex 469.9 -99.47491514005353 1749.425
    vertex 462.2377937108493 -99.47491514005353 1740.5906350742052
  endloop
endfacet
facet normal -0.0 -1.0 -0.0
  outer loop
    vertex 462.2377937108493 -99.47491514005353 1740.5906350742052
    vertex 469.9 -99.47491514005353 1749.425
    vertex 461.69012806053456 -99.47491514005353 1741.2151280605344
  endloop
endfacet
facet normal -0.0 -1.0 -0.0
  outer loop
    vertex 461.69012806053456 -99.47491514005353 1741.2151280605344
    vertex 469.9 -99.47491514005353 1749.425
    vertex 461.0656350742054 -99.47491514005353 1741.762793710849
  endloop
endfacet
facet normal -0.0 -1.0 -0.0
  outer loop
    vertex 461.0656350742054 -99.47491514005353 1741.762793710849
    vertex 469.9 -99.47491514005353 1749.425
    vertex 460.375 -99.47491514005353 1742.2242613140309
  endloop
endfacet
facet normal -0.0 -1.0 -0.0
  outer loop
    vertex 460.375 -99.47491514005353 1742.2242613140309
    vertex 469.9 -99.47491514005353 1749.425
    vertex 459.63003979551826 -99.47491514005353 1742.5916350314467
  endloop
endfacet
facet normal -0.0 -1.0 -0.0
  outer loop
    vertex 459.63003979551826 -99.47491514005353 1742.5916350314467
    vertex 469.9 -99.47491514005353 1749.425
    vertex 458.843500936401 -99.47491514005353 1742.8586289969357
  endloop
endfacet
facet normal -0.0 -1.0 -0.0
  outer loop
    vertex 458.843500936401 -99.47491514005353 1742.8586289969357
    vertex 469.9 -99.47491514005353 1749.425
    vertex 458.0288413205973 -99.47491514005353 1743.0206748697235
  endloop
endfacet
facet normal -0.0 -1.0 -0.0
  outer loop
    vertex 458.0288413205973 -99.47491514005353 1743.0206748697235
    vertex 469.9 -99.47491514005353 1749.425
    vertex 457.2 -99.47491514005353 1743.0749999999998
  endloop
endfacet
facet normal -0.0 -1.0 -0.0
  outer loop
    vertex 457.2 -99.47491514005353 1743.0749999999998
    vertex 469.9 -99.47491514005353 1749.425
    vertex 38.099999999999994 -99.47491514005353 1743.0749999999998
  endloop
endfacet
facet normal -0.0 -1.0 -0.0
  outer loop
    vertex 25.4 -99.47491514005353 1473.1999999999998
    vertex 31.694039146837095 -99.47491514005353 1485.035239686379
    vertex 25.4 -99.47491514005353 1749.425
  endloop
endfacet
facet normal -0.0 -1.0 -0.0
  outer loop
    vertex 31.694039146837095 -99.47491514005353 1485.035239686379
    vertex 25.4 -99.47491514005353 1473.1999999999998
    vertex 31.7718619013681 -99.47491514005353 1484.1721721131396
  endloop
endfacet
facet normal -0.0 -1.0 -0.0
  outer loop
    vertex 31.7718619013681 -99.47491514005353 1484.1721721131396
    vertex 25.4 -99.47491514005353 1473.1999999999998
    vertex 31.98161312857862 -99.47491514005353 1483.3313710428595
  endloop
endfacet
facet normal -0.0 -1.0 -0.0
  outer loop
    vertex 31.98161312857862 -99.47491514005353 1483.3313710428595
    vertex 25.4 -99.47491514005353 1473.1999999999998
    vertex 32.31829278897823 -99.47491514005353 1482.532879450309
  endloop
endfacet
facet normal -0.0 -1.0 -0.0
  outer loop
    vertex 32.31829278897823 -99.47491514005353 1482.532879450309
    vertex 25.4 -99.47491514005353 1473.1999999999998
    vertex 32.77387512929715 -99.47491514005353 1481.795731738999
  endloop
endfacet
facet normal -0.0 -1.0 -0.0
  outer loop
    vertex 32.77387512929715 -99.47491514005353 1481.795731738999
    vertex 25.4 -99.47491514005353 1473.1999999999998
    vertex 33.3375 -99.47491514005353 1481.1374999999998
  endloop
endfacet
facet normal -0.0 -1.0 -0.0
  outer loop
    vertex 33.3375 -99.47491514005353 1481.1374999999998
    vertex 25.4 -99.47491514005353 1473.1999999999998
    vertex 33.995731738998956 -99.47491514005353 1480.573875129297
  endloop
endfacet
facet normal -0.0 -1.0 -0.0
  outer loop
    vertex 33.995731738998956 -99.47491514005353 1480.573875129297
    vertex 25.4 -99.47491514005353 1473.1999999999998
    vertex 34.73287945030919 -99.47491514005353 1480.1182927889781
  endloop
endfacet
facet normal -0.0 -1.0 -0.0
  outer loop
    vertex 34.73287945030919 -99.47491514005353 1480.1182927889781
    vertex 25.4 -99.47491514005353 1473.1999999999998
    vertex 35.53137104285954 -99.47491514005353 1479.7816131285786
  endloop
endfacet
facet normal -0.0 -1.0 -0.0
  outer loop
    vertex 35.53137104285954 -99.47491514005353 1479.7816131285786
    vertex 25.4 -99.47491514005353 1473.1999999999998
    vertex 36.372172113139584 -99.47491514005353 1479.571861901368
  endloop
endfacet
facet normal -0.0 -1.0 -0.0
  outer loop
    vertex 36.372172113139584 -99.47491514005353 1479.571861901368
    vertex 25.4 -99.47491514005353 1473.1999999999998
    vertex 36.61462431460531 -99.47491514005353 1479.55
  endloop
endfacet
facet normal -0.0 -1.0 -0.0
  outer loop
    vertex 36.61462431460531 -99.47491514005353 1479.55
    vertex 25.4 -99.47491514005353 1473.1999999999998
    vertex 37.235239686379124 -99.47491514005353 1479.494039146837
  endloop
endfacet
facet normal -0.0 -1.0 -0.0
  outer loop
    vertex 31.694039146837095 -99.47491514005353 1485.035239686379
    vertex 31.7718619013681 -99.47491514005353 1484.1721721131396
    vertex 31.75 -99.47491514005353 1484.4146243146051
  endloop
endfacet
facet normal -0.0 -1.0 -0.0
  outer loop
    vertex 25.4 -99.47491514005353 1749.425
    vertex 31.694039146837095 -99.47491514005353 1485.035239686379
    vertex 31.75 -99.47491514005353 1485.8999999999999
  endloop
endfacet
facet normal -0.0 -1.0 -0.0
  outer loop
    vertex 25.4 -99.47491514005353 1749.425
    vertex 31.75 -99.47491514005353 1485.8999999999999
    vertex 31.75 -99.47491514005353 1736.725
  endloop
endfacet
facet normal -0.0 -1.0 -0.0
  outer loop
    vertex 25.4 -99.47491514005353 1749.425
    vertex 31.75 -99.47491514005353 1736.725
    vertex 31.8043251302763 -99.47491514005353 1737.553841320597
  endloop
endfacet
facet normal -0.0 -1.0 -0.0
  outer loop
    vertex 25.4 -99.47491514005353 1749.425
    vertex 31.8043251302763 -99.47491514005353 1737.553841320597
    vertex 31.966371003064413 -99.47491514005353 1738.368500936401
  endloop
endfacet
facet normal -0.0 -1.0 -0.0
  outer loop
    vertex 25.4 -99.47491514005353 1749.425
    vertex 31.966371003064413 -99.47491514005353 1738.368500936401
    vertex 32.233364968553325 -99.47491514005353 1739.1550397955182
  endloop
endfacet
facet normal -0.0 -1.0 -0.0
  outer loop
    vertex 25.4 -99.47491514005353 1749.425
    vertex 32.233364968553325 -99.47491514005353 1739.1550397955182
    vertex 32.60073868596881 -99.47491514005353 1739.8999999999999
  endloop
endfacet
facet normal -0.0 -1.0 -0.0
  outer loop
    vertex 25.4 -99.47491514005353 1749.425
    vertex 32.60073868596881 -99.47491514005353 1739.8999999999999
    vertex 33.06220628915065 -99.47491514005353 1740.5906350742052
  endloop
endfacet
facet normal -0.0 -1.0 -0.0
  outer loop
    vertex 25.4 -99.47491514005353 1749.425
    vertex 33.06220628915065 -99.47491514005353 1740.5906350742052
    vertex 33.60987193946542 -99.47491514005353 1741.2151280605344
  endloop
endfacet
facet normal -0.0 -1.0 -0.0
  outer loop
    vertex 25.4 -99.47491514005353 1749.425
    vertex 33.60987193946542 -99.47491514005353 1741.2151280605344
    vertex 34.234364925794615 -99.47491514005353 1741.762793710849
  endloop
endfacet
facet normal -0.0 -1.0 -0.0
  outer loop
    vertex 25.4 -99.47491514005353 1749.425
    vertex 34.234364925794615 -99.47491514005353 1741.762793710849
    vertex 34.925 -99.47491514005353 1742.2242613140309
  endloop
endfacet
facet normal -0.0 -1.0 -0.0
  outer loop
    vertex 25.4 -99.47491514005353 1749.425
    vertex 34.925 -99.47491514005353 1742.2242613140309
    vertex 35.669960204481676 -99.47491514005353 1742.5916350314467
  endloop
endfacet
facet normal -0.0 -1.0 -0.0
  outer loop
    vertex 25.4 -99.47491514005353 1749.425
    vertex 35.669960204481676 -99.47491514005353 1742.5916350314467
    vertex 36.45649906359899 -99.47491514005353 1742.8586289969357
  endloop
endfacet
facet normal -0.0 -1.0 -0.0
  outer loop
    vertex 25.4 -99.47491514005353 1749.425
    vertex 36.45649906359899 -99.47491514005353 1742.8586289969357
    vertex 37.271158679402674 -99.47491514005353 1743.0206748697235
  endloop
endfacet
facet normal -0.0 -1.0 -0.0
  outer loop
    vertex 25.4 -99.47491514005353 1749.425
    vertex 37.271158679402674 -99.47491514005353 1743.0206748697235
    vertex 38.099999999999994 -99.47491514005353 1743.0749999999998
  endloop
endfacet
facet normal -0.0 -1.0 -0.0
  outer loop
    vertex 25.4 -99.47491514005353 1749.425
    vertex 38.099999999999994 -99.47491514005353 1743.0749999999998
    vertex 469.9 -99.47491514005353 1749.425
  endloop
endfacet
facet normal -0.0 -1.0 -0.0
  outer loop
    vertex 38.099999999999994 -99.47491514005353 1479.55
    vertex 37.235239686379124 -99.47491514005353 1479.494039146837
    vertex 457.2 -99.47491514005353 1479.55
  endloop
endfacet
facet normal 0.0 1.0 0.0
  outer loop
    vertex 31.75 -93.12491514005352 1485.8999999999999
    vertex 31.75 -93.12491514005352 1484.4146243146051
    vertex 31.694039146837095 -93.12491514005352 1485.035239686379
  endloop
endfacet
facet normal 0.0 1.0 0.0
  outer loop
    vertex 38.099999999999994 -93.12491514005352 1479.55
    vertex 37.235239686379124 -93.12491514005352 1479.494039146837
    vertex 36.61462431460531 -93.12491514005352 1479.55
  endloop
endfacet
endsolid pdp11-2
