solid pdp11-2
facet normal 0.0 1.0 0.0
  outer loop
    vertex 25.4 -67.72491514005353 352.42499999999995
    vertex 469.9 -67.72491514005353 76.19999999999999
    vertex 25.4 -67.72491514005353 76.19999999999999
  endloop
endfacet
facet normal 0.0 1.0 0.0
  outer loop
    vertex 469.9 -67.72491514005353 76.19999999999999
    vertex 25.4 -67.72491514005353 352.42499999999995
    vertex 469.9 -67.72491514005353 352.42499999999995
  endloop
endfacet
facet normal 1.0 0.0 0.0
  outer loop
    vertex 469.9 -67.72491514005353 76.19999999999999
    vertex 469.9 -93.12491514005352 352.42499999999995
    vertex 469.9 -93.12491514005352 76.19999999999999
  endloop
endfacet
facet normal 1.0 0.0 0.0
  outer loop
    vertex 469.9 -93.12491514005352 352.42499999999995
    vertex 469.9 -67.72491514005353 76.19999999999999
    vertex 469.9 -67.72491514005353 352.42499999999995
  endloop
endfacet
facet normal 0.0 0.0 1.0
  outer loop
    vertex 469.9 -93.12491514005352 352.42499999999995
    vertex 25.4 -67.72491514005353 352.42499999999995
    vertex 25.4 -93.12491514005352 352.42499999999995
  endloop
endfacet
facet normal 0.0 0.0 1.0
  outer loop
    vertex 25.4 -67.72491514005353 352.42499999999995
    vertex 469.9 -93.12491514005352 352.42499999999995
    vertex 469.9 -67.72491514005353 352.42499999999995
  endloop
endfacet
facet normal 0.0 0.0 -1.0
  outer loop
    vertex 469.9 -67.72491514005353 76.19999999999999
    vertex 25.4 -93.12491514005352 76.19999999999999
    vertex 25.4 -67.72491514005353 76.19999999999999
  endloop
endfacet
facet normal 0.0 0.0 -1.0
  outer loop
    vertex 25.4 -93.12491514005352 76.19999999999999
    vertex 469.9 -67.72491514005353 76.19999999999999
    vertex 469.9 -93.12491514005352 76.19999999999999
  endloop
endfacet
facet normal 0.0 -1.0 0.0
  outer loop
    vertex 469.9 -93.12491514005352 352.42499999999995
    vertex 25.4 -93.12491514005352 76.19999999999999
    vertex 469.9 -93.12491514005352 76.19999999999999
  endloop
endfacet
facet normal 0.0 -1.0 0.0
  outer loop
    vertex 25.4 -93.12491514005352 76.19999999999999
    vertex 469.9 -93.12491514005352 352.42499999999995
    vertex 25.4 -93.12491514005352 352.42499999999995
  endloop
endfacet
facet normal -1.0 -0.0 -0.0
  outer loop
    vertex 25.4 -67.72491514005353 352.42499999999995
    vertex 25.4 -93.12491514005352 76.19999999999999
    vertex 25.4 -93.12491514005352 352.42499999999995
  endloop
endfacet
facet normal -1.0 -0.0 -0.0
  outer loop
    vertex 25.4 -93.12491514005352 76.19999999999999
    vertex 25.4 -67.72491514005353 352.42499999999995
    vertex 25.4 -67.72491514005353 76.19999999999999
  endloop
endfacet
facet normal 0.0 1.0 0.0
  outer loop
    vertex 25.4 -67.72491514005353 631.8249999999999
    vertex 469.9 -67.72491514005353 355.59999999999997
    vertex 25.4 -67.72491514005353 355.59999999999997
  endloop
endfacet
facet normal 0.0 1.0 0.0
  outer loop
    vertex 469.9 -67.72491514005353 355.59999999999997
    vertex 25.4 -67.72491514005353 631.8249999999999
    vertex 469.9 -67.72491514005353 631.8249999999999
  endloop
endfacet
facet normal 1.0 0.0 0.0
  outer loop
    vertex 469.9 -67.72491514005353 355.59999999999997
    vertex 469.9 -93.12491514005352 631.8249999999999
    vertex 469.9 -93.12491514005352 355.59999999999997
  endloop
endfacet
facet normal 1.0 0.0 0.0
  outer loop
    vertex 469.9 -93.12491514005352 631.8249999999999
    vertex 469.9 -67.72491514005353 355.59999999999997
    vertex 469.9 -67.72491514005353 631.8249999999999
  endloop
endfacet
facet normal 0.0 0.0 1.0
  outer loop
    vertex 469.9 -93.12491514005352 631.8249999999999
    vertex 25.4 -67.72491514005353 631.8249999999999
    vertex 25.4 -93.12491514005352 631.8249999999999
  endloop
endfacet
facet normal 0.0 0.0 1.0
  outer loop
    vertex 25.4 -67.72491514005353 631.8249999999999
    vertex 469.9 -93.12491514005352 631.8249999999999
    vertex 469.9 -67.72491514005353 631.8249999999999
  endloop
endfacet
facet normal 0.0 0.0 -1.0
  outer loop
    vertex 469.9 -67.72491514005353 355.59999999999997
    vertex 25.4 -93.12491514005352 355.59999999999997
    vertex 25.4 -67.72491514005353 355.59999999999997
  endloop
endfacet
facet normal 0.0 0.0 -1.0
  outer loop
    vertex 25.4 -93.12491514005352 355.59999999999997
    vertex 469.9 -67.72491514005353 355.59999999999997
    vertex 469.9 -93.12491514005352 355.59999999999997
  endloop
endfacet
facet normal 0.0 -1.0 0.0
  outer loop
    vertex 469.9 -93.12491514005352 631.8249999999999
    vertex 25.4 -93.12491514005352 355.59999999999997
    vertex 469.9 -93.12491514005352 355.59999999999997
  endloop
endfacet
facet normal 0.0 -1.0 0.0
  outer loop
    vertex 25.4 -93.12491514005352 355.59999999999997
    vertex 469.9 -93.12491514005352 631.8249999999999
    vertex 25.4 -93.12491514005352 631.8249999999999
  endloop
endfacet
facet normal -1.0 -0.0 -0.0
  outer loop
    vertex 25.4 -67.72491514005353 631.8249999999999
    vertex 25.4 -93.12491514005352 355.59999999999997
    vertex 25.4 -93.12491514005352 631.8249999999999
  endloop
endfacet
facet normal -1.0 -0.0 -0.0
  outer loop
    vertex 25.4 -93.12491514005352 355.59999999999997
    vertex 25.4 -67.72491514005353 631.8249999999999
    vertex 25.4 -67.72491514005353 355.59999999999997
  endloop
endfacet
facet normal -1.0 -0.0 -0.0
  outer loop
    vertex 6.35 -55.02491514005352 911.2249999999999
    vertex 6.35 -67.72491514005353 76.19999999999999
    vertex 6.35 -67.72491514005353 911.2249999999999
  endloop
endfacet
facet normal -1.0 -0.0 -0.0
  outer loop
    vertex 6.35 -67.72491514005353 76.19999999999999
    vertex 6.35 -55.02491514005352 911.2249999999999
    vertex 6.35 -55.02491514005352 76.19999999999999
  endloop
endfacet
facet normal 0.0 -1.0 0.0
  outer loop
    vertex 488.95 -67.72491514005353 911.2249999999999
    vertex 6.35 -67.72491514005353 76.19999999999999
    vertex 488.95 -67.72491514005353 76.19999999999999
  endloop
endfacet
facet normal 0.0 -1.0 0.0
  outer loop
    vertex 6.35 -67.72491514005353 76.19999999999999
    vertex 488.95 -67.72491514005353 911.2249999999999
    vertex 6.35 -67.72491514005353 911.2249999999999
  endloop
endfacet
facet normal 1.0 0.0 0.0
  outer loop
    vertex 488.95 -55.02491514005352 76.19999999999999
    vertex 488.95 -67.72491514005353 911.2249999999999
    vertex 488.95 -67.72491514005353 76.19999999999999
  endloop
endfacet
facet normal 1.0 0.0 0.0
  outer loop
    vertex 488.95 -67.72491514005353 911.2249999999999
    vertex 488.95 -55.02491514005352 76.19999999999999
    vertex 488.95 -55.02491514005352 911.2249999999999
  endloop
endfacet
facet normal 0.0 0.0 -1.0
  outer loop
    vertex 488.95 -55.02491514005352 76.19999999999999
    vertex 6.35 -67.72491514005353 76.19999999999999
    vertex 6.35 -55.02491514005352 76.19999999999999
  endloop
endfacet
facet normal 0.0 0.0 -1.0
  outer loop
    vertex 6.35 -67.72491514005353 76.19999999999999
    vertex 488.95 -55.02491514005352 76.19999999999999
    vertex 488.95 -67.72491514005353 76.19999999999999
  endloop
endfacet
facet normal 0.0 1.0 0.0
  outer loop
    vertex 6.35 -55.02491514005352 911.2249999999999
    vertex 488.95 -55.02491514005352 76.19999999999999
    vertex 6.35 -55.02491514005352 76.19999999999999
  endloop
endfacet
facet normal 0.0 1.0 0.0
  outer loop
    vertex 488.95 -55.02491514005352 76.19999999999999
    vertex 6.35 -55.02491514005352 911.2249999999999
    vertex 488.95 -55.02491514005352 911.2249999999999
  endloop
endfacet
facet normal 0.0 0.0 1.0
  outer loop
    vertex 488.95 -67.72491514005353 911.2249999999999
    vertex 6.35 -55.02491514005352 911.2249999999999
    vertex 6.35 -67.72491514005353 911.2249999999999
  endloop
endfacet
facet normal 0.0 0.0 1.0
  outer loop
    vertex 6.35 -55.02491514005352 911.2249999999999
    vertex 488.95 -67.72491514005353 911.2249999999999
    vertex 488.95 -55.02491514005352 911.2249999999999
  endloop
endfacet
endsolid pdp11-2
