solid pdp11-2
facet normal 1.0 0.0 0.0
  outer loop
    vertex 57.15 -55.02491514005352 366.5713144898403
    vertex 57.15 -29.624915140053528 417.3713144898403
    vertex 57.15 -55.02491514005352 911.2249999999999
  endloop
endfacet
facet normal 1.0 0.0 0.0
  outer loop
    vertex 57.15 -29.624915140053528 417.3713144898403
    vertex 57.15 -55.02491514005352 366.5713144898403
    vertex 57.15 596.9 366.5713144898403
  endloop
endfacet
facet normal 1.0 0.0 0.0
  outer loop
    vertex 57.15 -29.624915140053528 417.3713144898403
    vertex 57.15 596.9 366.5713144898403
    vertex 57.15 571.5 417.3713144898403
  endloop
endfacet
facet normal 1.0 0.0 0.0
  outer loop
    vertex 57.15 571.5 417.3713144898403
    vertex 57.15 596.9 366.5713144898403
    vertex 57.15 571.5 835.025
  endloop
endfacet
facet normal 1.0 0.0 0.0
  outer loop
    vertex 57.15 -55.02491514005352 911.2249999999999
    vertex 57.15 -29.624915140053528 835.025
    vertex 57.15 596.9 911.2249999999999
  endloop
endfacet
facet normal 1.0 0.0 0.0
  outer loop
    vertex 57.15 -29.624915140053528 835.025
    vertex 57.15 -55.02491514005352 911.2249999999999
    vertex 57.15 -29.624915140053528 417.3713144898403
  endloop
endfacet
facet normal 1.0 0.0 0.0
  outer loop
    vertex 57.15 596.9 911.2249999999999
    vertex 57.15 -29.624915140053528 835.025
    vertex 57.15 571.5 835.025
  endloop
endfacet
facet normal 1.0 0.0 0.0
  outer loop
    vertex 57.15 596.9 911.2249999999999
    vertex 57.15 571.5 835.025
    vertex 57.15 596.9 366.5713144898403
  endloop
endfacet
facet normal 0.0 -1.0 0.0
  outer loop
    vertex 57.15 -55.02491514005352 911.2249999999999
    vertex 44.449999999999996 -55.02491514005352 366.5713144898403
    vertex 57.15 -55.02491514005352 366.5713144898403
  endloop
endfacet
facet normal 0.0 -1.0 0.0
  outer loop
    vertex 44.449999999999996 -55.02491514005352 366.5713144898403
    vertex 57.15 -55.02491514005352 911.2249999999999
    vertex 44.449999999999996 -55.02491514005352 911.2249999999999
  endloop
endfacet
facet normal 0.0 1.0 0.0
  outer loop
    vertex 44.449999999999996 -29.624915140053528 835.025
    vertex 57.15 -29.624915140053528 417.3713144898403
    vertex 44.449999999999996 -29.624915140053528 417.3713144898403
  endloop
endfacet
facet normal 0.0 1.0 0.0
  outer loop
    vertex 57.15 -29.624915140053528 417.3713144898403
    vertex 44.449999999999996 -29.624915140053528 835.025
    vertex 57.15 -29.624915140053528 835.025
  endloop
endfacet
facet normal 0.0 0.0 1.0
  outer loop
    vertex 57.15 -55.02491514005352 911.2249999999999
    vertex 44.449999999999996 596.9 911.2249999999999
    vertex 44.449999999999996 -55.02491514005352 911.2249999999999
  endloop
endfacet
facet normal 0.0 0.0 1.0
  outer loop
    vertex 44.449999999999996 596.9 911.2249999999999
    vertex 57.15 -55.02491514005352 911.2249999999999
    vertex 57.15 596.9 911.2249999999999
  endloop
endfacet
facet normal 0.0 0.0 1.0
  outer loop
    vertex 57.15 -29.624915140053528 417.3713144898403
    vertex 44.449999999999996 571.5 417.3713144898403
    vertex 44.449999999999996 -29.624915140053528 417.3713144898403
  endloop
endfacet
facet normal 0.0 0.0 1.0
  outer loop
    vertex 44.449999999999996 571.5 417.3713144898403
    vertex 57.15 -29.624915140053528 417.3713144898403
    vertex 57.15 571.5 417.3713144898403
  endloop
endfacet
facet normal 0.0 0.0 -1.0
  outer loop
    vertex 57.15 571.5 835.025
    vertex 44.449999999999996 -29.624915140053528 835.025
    vertex 44.449999999999996 571.5 835.025
  endloop
endfacet
facet normal 0.0 0.0 -1.0
  outer loop
    vertex 44.449999999999996 -29.624915140053528 835.025
    vertex 57.15 571.5 835.025
    vertex 57.15 -29.624915140053528 835.025
  endloop
endfacet
facet normal -0.0 -1.0 -0.0
  outer loop
    vertex 57.15 571.5 835.025
    vertex 44.449999999999996 571.5 417.3713144898403
    vertex 57.15 571.5 417.3713144898403
  endloop
endfacet
facet normal -0.0 -1.0 -0.0
  outer loop
    vertex 44.449999999999996 571.5 417.3713144898403
    vertex 57.15 571.5 835.025
    vertex 44.449999999999996 571.5 835.025
  endloop
endfacet
facet normal -1.0 0.0 0.0
  outer loop
    vertex 44.449999999999996 -55.02491514005352 911.2249999999999
    vertex 44.449999999999996 -29.624915140053528 835.025
    vertex 44.449999999999996 -55.02491514005352 366.5713144898403
  endloop
endfacet
facet normal -1.0 0.0 0.0
  outer loop
    vertex 44.449999999999996 -29.624915140053528 835.025
    vertex 44.449999999999996 -55.02491514005352 911.2249999999999
    vertex 44.449999999999996 596.9 911.2249999999999
  endloop
endfacet
facet normal -1.0 0.0 0.0
  outer loop
    vertex 44.449999999999996 -29.624915140053528 835.025
    vertex 44.449999999999996 596.9 911.2249999999999
    vertex 44.449999999999996 571.5 835.025
  endloop
endfacet
facet normal -1.0 0.0 0.0
  outer loop
    vertex 44.449999999999996 571.5 835.025
    vertex 44.449999999999996 596.9 911.2249999999999
    vertex 44.449999999999996 571.5 417.3713144898403
  endloop
endfacet
facet normal -1.0 0.0 0.0
  outer loop
    vertex 44.449999999999996 -55.02491514005352 366.5713144898403
    vertex 44.449999999999996 -29.624915140053528 417.3713144898403
    vertex 44.449999999999996 596.9 366.5713144898403
  endloop
endfacet
facet normal -1.0 0.0 0.0
  outer loop
    vertex 44.449999999999996 -29.624915140053528 417.3713144898403
    vertex 44.449999999999996 -55.02491514005352 366.5713144898403
    vertex 44.449999999999996 -29.624915140053528 835.025
  endloop
endfacet
facet normal -1.0 0.0 0.0
  outer loop
    vertex 44.449999999999996 596.9 366.5713144898403
    vertex 44.449999999999996 -29.624915140053528 417.3713144898403
    vertex 44.449999999999996 571.5 417.3713144898403
  endloop
endfacet
facet normal -1.0 0.0 0.0
  outer loop
    vertex 44.449999999999996 596.9 366.5713144898403
    vertex 44.449999999999996 571.5 417.3713144898403
    vertex 44.449999999999996 596.9 911.2249999999999
  endloop
endfacet
facet normal 0.0 1.0 0.0
  outer loop
    vertex 44.449999999999996 596.9 911.2249999999999
    vertex 57.15 596.9 366.5713144898403
    vertex 44.449999999999996 596.9 366.5713144898403
  endloop
endfacet
facet normal 0.0 1.0 0.0
  outer loop
    vertex 57.15 596.9 366.5713144898403
    vertex 44.449999999999996 596.9 911.2249999999999
    vertex 57.15 596.9 911.2249999999999
  endloop
endfacet
facet normal 0.0 0.0 -1.0
  outer loop
    vertex 57.15 596.9 366.5713144898403
    vertex 44.449999999999996 -55.02491514005352 366.5713144898403
    vertex 44.449999999999996 596.9 366.5713144898403
  endloop
endfacet
facet normal 0.0 0.0 -1.0
  outer loop
    vertex 44.449999999999996 -55.02491514005352 366.5713144898403
    vertex 57.15 596.9 366.5713144898403
    vertex 57.15 -55.02491514005352 366.5713144898403
  endloop
endfacet
endsolid pdp11-2
