solid pdp11-2
facet normal 4.641285593388593e-31 -4.728735703371322e-31 1.0
  outer loop
    vertex 438.15 -55.02491514005352 417.3713144898403
    vertex 57.15 -25.4 417.3713144898403
    vertex 57.15 -55.02491514005352 417.3713144898403
  endloop
endfacet
facet normal 4.641285593388593e-31 -4.728735703371322e-31 1.0
  outer loop
    vertex 57.15 -25.4 417.3713144898403
    vertex 438.15 -55.02491514005352 417.3713144898403
    vertex 247.64999999999998 -25.4 417.3713144898403
  endloop
endfacet
facet normal 4.641285593388593e-31 -4.728735703371322e-31 1.0
  outer loop
    vertex 247.64999999999998 -25.4 417.3713144898403
    vertex 438.15 -55.02491514005352 417.3713144898403
    vertex 247.64999999999998 -12.7 417.3713144898403
  endloop
endfacet
facet normal 4.641285593388593e-31 -4.728735703371322e-31 1.0
  outer loop
    vertex 247.64999999999998 -12.7 417.3713144898403
    vertex 438.15 -55.02491514005352 417.3713144898403
    vertex 247.64999999999998 0.0 417.3713144898403
  endloop
endfacet
facet normal 4.641285593388593e-31 -4.728735703371322e-31 1.0
  outer loop
    vertex 247.64999999999998 0.0 417.3713144898403
    vertex 438.15 -55.02491514005352 417.3713144898403
    vertex 247.64999999999998 12.7 417.3713144898403
  endloop
endfacet
facet normal 4.641285593388593e-31 -4.728735703371322e-31 1.0
  outer loop
    vertex 247.64999999999998 12.7 417.3713144898403
    vertex 438.15 -55.02491514005352 417.3713144898403
    vertex 247.64999999999998 25.4 417.3713144898403
  endloop
endfacet
facet normal 4.641285593388593e-31 -4.728735703371322e-31 1.0
  outer loop
    vertex 247.64999999999998 25.4 417.3713144898403
    vertex 438.15 -55.02491514005352 417.3713144898403
    vertex 247.64999999999998 38.099999999999994 417.3713144898403
  endloop
endfacet
facet normal 4.641285593388593e-31 -4.728735703371322e-31 1.0
  outer loop
    vertex 247.64999999999998 38.099999999999994 417.3713144898403
    vertex 438.15 -55.02491514005352 417.3713144898403
    vertex 247.64999999999998 50.8 417.3713144898403
  endloop
endfacet
facet normal 4.641285593388593e-31 -4.728735703371322e-31 1.0
  outer loop
    vertex 247.64999999999998 50.8 417.3713144898403
    vertex 438.15 -55.02491514005352 417.3713144898403
    vertex 247.64999999999998 63.5 417.3713144898403
  endloop
endfacet
facet normal 4.641285593388593e-31 -4.728735703371322e-31 1.0
  outer loop
    vertex 247.64999999999998 63.5 417.3713144898403
    vertex 438.15 -55.02491514005352 417.3713144898403
    vertex 247.64999999999998 76.19999999999999 417.3713144898403
  endloop
endfacet
facet normal 4.641285593388593e-31 -4.728735703371322e-31 1.0
  outer loop
    vertex 247.64999999999998 76.19999999999999 417.3713144898403
    vertex 438.15 -55.02491514005352 417.3713144898403
    vertex 247.64999999999998 88.89999999999999 417.3713144898403
  endloop
endfacet
facet normal 4.641285593388593e-31 -4.728735703371322e-31 1.0
  outer loop
    vertex 247.64999999999998 88.89999999999999 417.3713144898403
    vertex 438.15 -55.02491514005352 417.3713144898403
    vertex 247.64999999999998 101.6 417.3713144898403
  endloop
endfacet
facet normal 4.641285593388593e-31 -4.728735703371322e-31 1.0
  outer loop
    vertex 247.64999999999998 101.6 417.3713144898403
    vertex 438.15 -55.02491514005352 417.3713144898403
    vertex 247.64999999999998 114.3 417.3713144898403
  endloop
endfacet
facet normal 4.641285593388593e-31 -4.728735703371322e-31 1.0
  outer loop
    vertex 247.64999999999998 114.3 417.3713144898403
    vertex 438.15 -55.02491514005352 417.3713144898403
    vertex 247.64999999999998 127.0 417.3713144898403
  endloop
endfacet
facet normal 4.641285593388593e-31 -4.728735703371322e-31 1.0
  outer loop
    vertex 247.64999999999998 127.0 417.3713144898403
    vertex 438.15 -55.02491514005352 417.3713144898403
    vertex 247.64999999999998 139.7 417.3713144898403
  endloop
endfacet
facet normal 4.641285593388593e-31 -4.728735703371322e-31 1.0
  outer loop
    vertex 247.64999999999998 139.7 417.3713144898403
    vertex 438.15 -55.02491514005352 417.3713144898403
    vertex 247.64999999999998 152.39999999999998 417.3713144898403
  endloop
endfacet
facet normal 4.641285593388593e-31 -4.728735703371322e-31 1.0
  outer loop
    vertex 247.64999999999998 152.39999999999998 417.3713144898403
    vertex 438.15 -55.02491514005352 417.3713144898403
    vertex 247.64999999999998 165.1 417.3713144898403
  endloop
endfacet
facet normal 4.641285593388593e-31 -4.728735703371322e-31 1.0
  outer loop
    vertex 247.64999999999998 165.1 417.3713144898403
    vertex 438.15 -55.02491514005352 417.3713144898403
    vertex 247.64999999999998 177.79999999999998 417.3713144898403
  endloop
endfacet
facet normal 4.641285593388593e-31 -4.728735703371322e-31 1.0
  outer loop
    vertex 247.64999999999998 177.79999999999998 417.3713144898403
    vertex 438.15 -55.02491514005352 417.3713144898403
    vertex 247.64999999999998 190.5 417.3713144898403
  endloop
endfacet
facet normal 4.641285593388593e-31 -4.728735703371322e-31 1.0
  outer loop
    vertex 247.64999999999998 190.5 417.3713144898403
    vertex 438.15 -55.02491514005352 417.3713144898403
    vertex 247.64999999999998 203.2 417.3713144898403
  endloop
endfacet
facet normal 4.641285593388593e-31 -4.728735703371322e-31 1.0
  outer loop
    vertex 247.64999999999998 203.2 417.3713144898403
    vertex 438.15 -55.02491514005352 417.3713144898403
    vertex 247.64999999999998 215.89999999999998 417.3713144898403
  endloop
endfacet
facet normal 4.641285593388593e-31 -4.728735703371322e-31 1.0
  outer loop
    vertex 247.64999999999998 215.89999999999998 417.3713144898403
    vertex 438.15 -55.02491514005352 417.3713144898403
    vertex 247.64999999999998 228.6 417.3713144898403
  endloop
endfacet
facet normal 4.641285593388593e-31 -4.728735703371322e-31 1.0
  outer loop
    vertex 247.64999999999998 228.6 417.3713144898403
    vertex 438.15 -55.02491514005352 417.3713144898403
    vertex 247.64999999999998 241.29999999999998 417.3713144898403
  endloop
endfacet
facet normal 4.641285593388593e-31 -4.728735703371322e-31 1.0
  outer loop
    vertex 247.64999999999998 241.29999999999998 417.3713144898403
    vertex 438.15 -55.02491514005352 417.3713144898403
    vertex 247.64999999999998 254.0 417.3713144898403
  endloop
endfacet
facet normal 4.641285593388593e-31 -4.728735703371322e-31 1.0
  outer loop
    vertex 247.64999999999998 254.0 417.3713144898403
    vertex 438.15 -55.02491514005352 417.3713144898403
    vertex 247.64999999999998 266.7 417.3713144898403
  endloop
endfacet
facet normal 4.641285593388593e-31 -4.728735703371322e-31 1.0
  outer loop
    vertex 247.64999999999998 266.7 417.3713144898403
    vertex 438.15 -55.02491514005352 417.3713144898403
    vertex 247.64999999999998 279.4 417.3713144898403
  endloop
endfacet
facet normal 4.641285593388593e-31 -4.728735703371322e-31 1.0
  outer loop
    vertex 247.64999999999998 279.4 417.3713144898403
    vertex 438.15 -55.02491514005352 417.3713144898403
    vertex 247.64999999999998 292.09999999999997 417.3713144898403
  endloop
endfacet
facet normal 4.641285593388593e-31 -4.728735703371322e-31 1.0
  outer loop
    vertex 247.64999999999998 292.09999999999997 417.3713144898403
    vertex 438.15 -55.02491514005352 417.3713144898403
    vertex 247.64999999999998 304.79999999999995 417.3713144898403
  endloop
endfacet
facet normal 4.641285593388593e-31 -4.728735703371322e-31 1.0
  outer loop
    vertex 247.64999999999998 304.79999999999995 417.3713144898403
    vertex 438.15 -55.02491514005352 417.3713144898403
    vertex 247.64999999999998 317.5 417.3713144898403
  endloop
endfacet
facet normal 4.641285593388593e-31 -4.728735703371322e-31 1.0
  outer loop
    vertex 247.64999999999998 317.5 417.3713144898403
    vertex 438.15 -55.02491514005352 417.3713144898403
    vertex 247.64999999999998 330.2 417.3713144898403
  endloop
endfacet
facet normal 4.641285593388593e-31 -4.728735703371322e-31 1.0
  outer loop
    vertex 247.64999999999998 330.2 417.3713144898403
    vertex 438.15 -55.02491514005352 417.3713144898403
    vertex 247.64999999999998 342.9 417.3713144898403
  endloop
endfacet
facet normal 4.641285593388593e-31 -4.728735703371322e-31 1.0
  outer loop
    vertex 247.64999999999998 342.9 417.3713144898403
    vertex 438.15 -55.02491514005352 417.3713144898403
    vertex 247.64999999999998 355.59999999999997 417.3713144898403
  endloop
endfacet
facet normal 4.641285593388593e-31 -4.728735703371322e-31 1.0
  outer loop
    vertex 247.64999999999998 355.59999999999997 417.3713144898403
    vertex 438.15 -55.02491514005352 417.3713144898403
    vertex 247.64999999999998 368.29999999999995 417.3713144898403
  endloop
endfacet
facet normal 4.641285593388593e-31 -4.728735703371322e-31 1.0
  outer loop
    vertex 247.64999999999998 368.29999999999995 417.3713144898403
    vertex 438.15 -55.02491514005352 417.3713144898403
    vertex 247.64999999999998 381.0 417.3713144898403
  endloop
endfacet
facet normal 4.641285593388593e-31 -4.728735703371322e-31 1.0
  outer loop
    vertex 247.64999999999998 381.0 417.3713144898403
    vertex 438.15 -55.02491514005352 417.3713144898403
    vertex 247.64999999999998 393.7 417.3713144898403
  endloop
endfacet
facet normal 4.641285593388593e-31 -4.728735703371322e-31 1.0
  outer loop
    vertex 247.64999999999998 393.7 417.3713144898403
    vertex 438.15 -55.02491514005352 417.3713144898403
    vertex 247.64999999999998 406.4 417.3713144898403
  endloop
endfacet
facet normal 4.641285593388593e-31 -4.728735703371322e-31 1.0
  outer loop
    vertex 247.64999999999998 406.4 417.3713144898403
    vertex 438.15 -55.02491514005352 417.3713144898403
    vertex 247.64999999999998 419.09999999999997 417.3713144898403
  endloop
endfacet
facet normal 4.641285593388593e-31 -4.728735703371322e-31 1.0
  outer loop
    vertex 247.64999999999998 419.09999999999997 417.3713144898403
    vertex 438.15 -55.02491514005352 417.3713144898403
    vertex 247.64999999999998 431.79999999999995 417.3713144898403
  endloop
endfacet
facet normal 4.641285593388593e-31 -4.728735703371322e-31 1.0
  outer loop
    vertex 247.64999999999998 431.79999999999995 417.3713144898403
    vertex 438.15 -55.02491514005352 417.3713144898403
    vertex 247.64999999999998 444.5 417.3713144898403
  endloop
endfacet
facet normal 4.641285593388593e-31 -4.728735703371322e-31 1.0
  outer loop
    vertex 247.64999999999998 444.5 417.3713144898403
    vertex 438.15 -55.02491514005352 417.3713144898403
    vertex 247.64999999999998 457.2 417.3713144898403
  endloop
endfacet
facet normal 4.641285593388593e-31 -4.728735703371322e-31 1.0
  outer loop
    vertex 247.64999999999998 457.2 417.3713144898403
    vertex 438.15 -55.02491514005352 417.3713144898403
    vertex 247.64999999999998 469.9 417.3713144898403
  endloop
endfacet
facet normal 4.641285593388593e-31 -4.728735703371322e-31 1.0
  outer loop
    vertex 247.64999999999998 469.9 417.3713144898403
    vertex 438.15 -55.02491514005352 417.3713144898403
    vertex 247.64999999999998 482.59999999999997 417.3713144898403
  endloop
endfacet
facet normal 4.641285593388593e-31 -4.728735703371322e-31 1.0
  outer loop
    vertex 247.64999999999998 482.59999999999997 417.3713144898403
    vertex 438.15 -55.02491514005352 417.3713144898403
    vertex 247.64999999999998 495.29999999999995 417.3713144898403
  endloop
endfacet
facet normal 4.641285593388593e-31 -4.728735703371322e-31 1.0
  outer loop
    vertex 247.64999999999998 495.29999999999995 417.3713144898403
    vertex 438.15 -55.02491514005352 417.3713144898403
    vertex 247.64999999999998 508.0 417.3713144898403
  endloop
endfacet
facet normal 4.641285593388593e-31 -4.728735703371322e-31 1.0
  outer loop
    vertex 247.64999999999998 508.0 417.3713144898403
    vertex 438.15 -55.02491514005352 417.3713144898403
    vertex 247.64999999999998 520.6999999999999 417.3713144898403
  endloop
endfacet
facet normal 4.641285593388593e-31 -4.728735703371322e-31 1.0
  outer loop
    vertex 247.64999999999998 520.6999999999999 417.3713144898403
    vertex 438.15 -55.02491514005352 417.3713144898403
    vertex 247.64999999999998 533.4 417.3713144898403
  endloop
endfacet
facet normal 4.641285593388593e-31 -4.728735703371322e-31 1.0
  outer loop
    vertex 247.64999999999998 533.4 417.3713144898403
    vertex 438.15 -55.02491514005352 417.3713144898403
    vertex 247.64999999999998 546.1 417.3713144898403
  endloop
endfacet
facet normal 4.641285593388593e-31 -4.728735703371322e-31 1.0
  outer loop
    vertex 247.64999999999998 546.1 417.3713144898403
    vertex 438.15 -55.02491514005352 417.3713144898403
    vertex 247.64999999999998 558.8 417.3713144898403
  endloop
endfacet
facet normal 4.641285593388593e-31 -4.728735703371322e-31 1.0
  outer loop
    vertex 247.64999999999998 558.8 417.3713144898403
    vertex 438.15 -55.02491514005352 417.3713144898403
    vertex 247.64999999999998 571.5 417.3713144898403
  endloop
endfacet
facet normal 4.641285593388593e-31 -4.728735703371322e-31 1.0
  outer loop
    vertex 247.64999999999998 571.5 417.3713144898403
    vertex 438.15 -55.02491514005352 417.3713144898403
    vertex 247.64999999999998 584.1999999999999 417.3713144898403
  endloop
endfacet
facet normal 4.641285593388593e-31 -4.728735703371322e-31 1.0
  outer loop
    vertex 247.64999999999998 584.1999999999999 417.3713144898403
    vertex 438.15 -55.02491514005352 417.3713144898403
    vertex 247.64999999999998 596.9 417.3713144898403
  endloop
endfacet
facet normal 4.641285593388593e-31 -4.728735703371322e-31 1.0
  outer loop
    vertex 247.64999999999998 596.9 417.3713144898403
    vertex 438.15 -55.02491514005352 417.3713144898403
    vertex 438.15 596.9 417.3713144898403
  endloop
endfacet
facet normal 4.641285593388593e-31 -4.728735703371322e-31 1.0
  outer loop
    vertex 247.64999999999998 571.5 417.3713144898403
    vertex 57.15 584.1999999999999 417.3713144898403
    vertex 57.15 571.5 417.3713144898403
  endloop
endfacet
facet normal 4.641285593388593e-31 -4.728735703371322e-31 1.0
  outer loop
    vertex 57.15 584.1999999999999 417.3713144898403
    vertex 247.64999999999998 571.5 417.3713144898403
    vertex 247.64999999999998 584.1999999999999 417.3713144898403
  endloop
endfacet
facet normal 4.641285593388593e-31 -4.728735703371322e-31 1.0
  outer loop
    vertex 247.64999999999998 546.1 417.3713144898403
    vertex 57.15 558.8 417.3713144898403
    vertex 57.15 546.1 417.3713144898403
  endloop
endfacet
facet normal 4.641285593388593e-31 -4.728735703371322e-31 1.0
  outer loop
    vertex 57.15 558.8 417.3713144898403
    vertex 247.64999999999998 546.1 417.3713144898403
    vertex 247.64999999999998 558.8 417.3713144898403
  endloop
endfacet
facet normal 4.641285593388593e-31 -4.728735703371322e-31 1.0
  outer loop
    vertex 247.64999999999998 520.6999999999999 417.3713144898403
    vertex 57.15 533.4 417.3713144898403
    vertex 57.15 520.6999999999999 417.3713144898403
  endloop
endfacet
facet normal 4.641285593388593e-31 -4.728735703371322e-31 1.0
  outer loop
    vertex 57.15 533.4 417.3713144898403
    vertex 247.64999999999998 520.6999999999999 417.3713144898403
    vertex 247.64999999999998 533.4 417.3713144898403
  endloop
endfacet
facet normal 4.641285593388593e-31 -4.728735703371322e-31 1.0
  outer loop
    vertex 247.64999999999998 495.29999999999995 417.3713144898403
    vertex 57.15 508.0 417.3713144898403
    vertex 57.15 495.29999999999995 417.3713144898403
  endloop
endfacet
facet normal 4.641285593388593e-31 -4.728735703371322e-31 1.0
  outer loop
    vertex 57.15 508.0 417.3713144898403
    vertex 247.64999999999998 495.29999999999995 417.3713144898403
    vertex 247.64999999999998 508.0 417.3713144898403
  endloop
endfacet
facet normal 4.641285593388593e-31 -4.728735703371322e-31 1.0
  outer loop
    vertex 247.64999999999998 469.9 417.3713144898403
    vertex 57.15 482.59999999999997 417.3713144898403
    vertex 57.15 469.9 417.3713144898403
  endloop
endfacet
facet normal 4.641285593388593e-31 -4.728735703371322e-31 1.0
  outer loop
    vertex 57.15 482.59999999999997 417.3713144898403
    vertex 247.64999999999998 469.9 417.3713144898403
    vertex 247.64999999999998 482.59999999999997 417.3713144898403
  endloop
endfacet
facet normal 4.641285593388593e-31 -4.728735703371322e-31 1.0
  outer loop
    vertex 247.64999999999998 444.5 417.3713144898403
    vertex 57.15 457.2 417.3713144898403
    vertex 57.15 444.5 417.3713144898403
  endloop
endfacet
facet normal 4.641285593388593e-31 -4.728735703371322e-31 1.0
  outer loop
    vertex 57.15 457.2 417.3713144898403
    vertex 247.64999999999998 444.5 417.3713144898403
    vertex 247.64999999999998 457.2 417.3713144898403
  endloop
endfacet
facet normal 4.641285593388593e-31 -4.728735703371322e-31 1.0
  outer loop
    vertex 247.64999999999998 419.09999999999997 417.3713144898403
    vertex 57.15 431.79999999999995 417.3713144898403
    vertex 57.15 419.09999999999997 417.3713144898403
  endloop
endfacet
facet normal 4.641285593388593e-31 -4.728735703371322e-31 1.0
  outer loop
    vertex 57.15 431.79999999999995 417.3713144898403
    vertex 247.64999999999998 419.09999999999997 417.3713144898403
    vertex 247.64999999999998 431.79999999999995 417.3713144898403
  endloop
endfacet
facet normal 4.641285593388593e-31 -4.728735703371322e-31 1.0
  outer loop
    vertex 247.64999999999998 393.7 417.3713144898403
    vertex 57.15 406.4 417.3713144898403
    vertex 57.15 393.7 417.3713144898403
  endloop
endfacet
facet normal 4.641285593388593e-31 -4.728735703371322e-31 1.0
  outer loop
    vertex 57.15 406.4 417.3713144898403
    vertex 247.64999999999998 393.7 417.3713144898403
    vertex 247.64999999999998 406.4 417.3713144898403
  endloop
endfacet
facet normal 4.641285593388593e-31 -4.728735703371322e-31 1.0
  outer loop
    vertex 247.64999999999998 368.29999999999995 417.3713144898403
    vertex 57.15 381.0 417.3713144898403
    vertex 57.15 368.29999999999995 417.3713144898403
  endloop
endfacet
facet normal 4.641285593388593e-31 -4.728735703371322e-31 1.0
  outer loop
    vertex 57.15 381.0 417.3713144898403
    vertex 247.64999999999998 368.29999999999995 417.3713144898403
    vertex 247.64999999999998 381.0 417.3713144898403
  endloop
endfacet
facet normal 4.641285593388593e-31 -4.728735703371322e-31 1.0
  outer loop
    vertex 247.64999999999998 342.9 417.3713144898403
    vertex 57.15 355.59999999999997 417.3713144898403
    vertex 57.15 342.9 417.3713144898403
  endloop
endfacet
facet normal 4.641285593388593e-31 -4.728735703371322e-31 1.0
  outer loop
    vertex 57.15 355.59999999999997 417.3713144898403
    vertex 247.64999999999998 342.9 417.3713144898403
    vertex 247.64999999999998 355.59999999999997 417.3713144898403
  endloop
endfacet
facet normal 4.641285593388593e-31 -4.728735703371322e-31 1.0
  outer loop
    vertex 247.64999999999998 317.5 417.3713144898403
    vertex 57.15 330.2 417.3713144898403
    vertex 57.15 317.5 417.3713144898403
  endloop
endfacet
facet normal 4.641285593388593e-31 -4.728735703371322e-31 1.0
  outer loop
    vertex 57.15 330.2 417.3713144898403
    vertex 247.64999999999998 317.5 417.3713144898403
    vertex 247.64999999999998 330.2 417.3713144898403
  endloop
endfacet
facet normal 4.641285593388593e-31 -4.728735703371322e-31 1.0
  outer loop
    vertex 247.64999999999998 292.09999999999997 417.3713144898403
    vertex 57.15 304.79999999999995 417.3713144898403
    vertex 57.15 292.09999999999997 417.3713144898403
  endloop
endfacet
facet normal 4.641285593388593e-31 -4.728735703371322e-31 1.0
  outer loop
    vertex 57.15 304.79999999999995 417.3713144898403
    vertex 247.64999999999998 292.09999999999997 417.3713144898403
    vertex 247.64999999999998 304.79999999999995 417.3713144898403
  endloop
endfacet
facet normal 4.641285593388593e-31 -4.728735703371322e-31 1.0
  outer loop
    vertex 247.64999999999998 266.7 417.3713144898403
    vertex 57.15 279.4 417.3713144898403
    vertex 57.15 266.7 417.3713144898403
  endloop
endfacet
facet normal 4.641285593388593e-31 -4.728735703371322e-31 1.0
  outer loop
    vertex 57.15 279.4 417.3713144898403
    vertex 247.64999999999998 266.7 417.3713144898403
    vertex 247.64999999999998 279.4 417.3713144898403
  endloop
endfacet
facet normal 4.641285593388593e-31 -4.728735703371322e-31 1.0
  outer loop
    vertex 247.64999999999998 241.29999999999998 417.3713144898403
    vertex 57.15 254.0 417.3713144898403
    vertex 57.15 241.29999999999998 417.3713144898403
  endloop
endfacet
facet normal 4.641285593388593e-31 -4.728735703371322e-31 1.0
  outer loop
    vertex 57.15 254.0 417.3713144898403
    vertex 247.64999999999998 241.29999999999998 417.3713144898403
    vertex 247.64999999999998 254.0 417.3713144898403
  endloop
endfacet
facet normal 4.641285593388593e-31 -4.728735703371322e-31 1.0
  outer loop
    vertex 247.64999999999998 215.89999999999998 417.3713144898403
    vertex 57.15 228.6 417.3713144898403
    vertex 57.15 215.89999999999998 417.3713144898403
  endloop
endfacet
facet normal 4.641285593388593e-31 -4.728735703371322e-31 1.0
  outer loop
    vertex 57.15 228.6 417.3713144898403
    vertex 247.64999999999998 215.89999999999998 417.3713144898403
    vertex 247.64999999999998 228.6 417.3713144898403
  endloop
endfacet
facet normal 4.641285593388593e-31 -4.728735703371322e-31 1.0
  outer loop
    vertex 247.64999999999998 190.5 417.3713144898403
    vertex 57.15 203.2 417.3713144898403
    vertex 57.15 190.5 417.3713144898403
  endloop
endfacet
facet normal 4.641285593388593e-31 -4.728735703371322e-31 1.0
  outer loop
    vertex 57.15 203.2 417.3713144898403
    vertex 247.64999999999998 190.5 417.3713144898403
    vertex 247.64999999999998 203.2 417.3713144898403
  endloop
endfacet
facet normal 4.641285593388593e-31 -4.728735703371322e-31 1.0
  outer loop
    vertex 247.64999999999998 165.1 417.3713144898403
    vertex 57.15 177.79999999999998 417.3713144898403
    vertex 57.15 165.1 417.3713144898403
  endloop
endfacet
facet normal 4.641285593388593e-31 -4.728735703371322e-31 1.0
  outer loop
    vertex 57.15 177.79999999999998 417.3713144898403
    vertex 247.64999999999998 165.1 417.3713144898403
    vertex 247.64999999999998 177.79999999999998 417.3713144898403
  endloop
endfacet
facet normal 4.641285593388593e-31 -4.728735703371322e-31 1.0
  outer loop
    vertex 247.64999999999998 139.7 417.3713144898403
    vertex 57.15 152.39999999999998 417.3713144898403
    vertex 57.15 139.7 417.3713144898403
  endloop
endfacet
facet normal 4.641285593388593e-31 -4.728735703371322e-31 1.0
  outer loop
    vertex 57.15 152.39999999999998 417.3713144898403
    vertex 247.64999999999998 139.7 417.3713144898403
    vertex 247.64999999999998 152.39999999999998 417.3713144898403
  endloop
endfacet
facet normal 4.641285593388593e-31 -4.728735703371322e-31 1.0
  outer loop
    vertex 247.64999999999998 114.3 417.3713144898403
    vertex 57.15 127.0 417.3713144898403
    vertex 57.15 114.3 417.3713144898403
  endloop
endfacet
facet normal 4.641285593388593e-31 -4.728735703371322e-31 1.0
  outer loop
    vertex 57.15 127.0 417.3713144898403
    vertex 247.64999999999998 114.3 417.3713144898403
    vertex 247.64999999999998 127.0 417.3713144898403
  endloop
endfacet
facet normal 4.641285593388593e-31 -4.728735703371322e-31 1.0
  outer loop
    vertex 247.64999999999998 88.89999999999999 417.3713144898403
    vertex 57.15 101.6 417.3713144898403
    vertex 57.15 88.89999999999999 417.3713144898403
  endloop
endfacet
facet normal 4.641285593388593e-31 -4.728735703371322e-31 1.0
  outer loop
    vertex 57.15 101.6 417.3713144898403
    vertex 247.64999999999998 88.89999999999999 417.3713144898403
    vertex 247.64999999999998 101.6 417.3713144898403
  endloop
endfacet
facet normal 4.641285593388593e-31 -4.728735703371322e-31 1.0
  outer loop
    vertex 247.64999999999998 63.5 417.3713144898403
    vertex 57.15 76.19999999999999 417.3713144898403
    vertex 57.15 63.5 417.3713144898403
  endloop
endfacet
facet normal 4.641285593388593e-31 -4.728735703371322e-31 1.0
  outer loop
    vertex 57.15 76.19999999999999 417.3713144898403
    vertex 247.64999999999998 63.5 417.3713144898403
    vertex 247.64999999999998 76.19999999999999 417.3713144898403
  endloop
endfacet
facet normal 4.641285593388593e-31 -4.728735703371322e-31 1.0
  outer loop
    vertex 247.64999999999998 38.099999999999994 417.3713144898403
    vertex 57.15 50.8 417.3713144898403
    vertex 57.15 38.099999999999994 417.3713144898403
  endloop
endfacet
facet normal 4.641285593388593e-31 -4.728735703371322e-31 1.0
  outer loop
    vertex 57.15 50.8 417.3713144898403
    vertex 247.64999999999998 38.099999999999994 417.3713144898403
    vertex 247.64999999999998 50.8 417.3713144898403
  endloop
endfacet
facet normal 4.641285593388593e-31 -4.728735703371322e-31 1.0
  outer loop
    vertex 247.64999999999998 12.7 417.3713144898403
    vertex 57.15 25.4 417.3713144898403
    vertex 57.15 12.7 417.3713144898403
  endloop
endfacet
facet normal 4.641285593388593e-31 -4.728735703371322e-31 1.0
  outer loop
    vertex 57.15 25.4 417.3713144898403
    vertex 247.64999999999998 12.7 417.3713144898403
    vertex 247.64999999999998 25.4 417.3713144898403
  endloop
endfacet
facet normal 4.641285593388593e-31 -4.728735703371322e-31 1.0
  outer loop
    vertex 247.64999999999998 -12.7 417.3713144898403
    vertex 57.15 0.0 417.3713144898403
    vertex 57.15 -12.7 417.3713144898403
  endloop
endfacet
facet normal 4.641285593388593e-31 -4.728735703371322e-31 1.0
  outer loop
    vertex 57.15 0.0 417.3713144898403
    vertex 247.64999999999998 -12.7 417.3713144898403
    vertex 247.64999999999998 0.0 417.3713144898403
  endloop
endfacet
facet normal 0.0 1.0 0.0
  outer loop
    vertex 57.15 596.9 417.3713144898403
    vertex 438.15 596.9 366.5713144898403
    vertex 57.15 596.9 366.5713144898403
  endloop
endfacet
facet normal 0.0 1.0 0.0
  outer loop
    vertex 438.15 596.9 366.5713144898403
    vertex 57.15 596.9 417.3713144898403
    vertex 438.15 596.9 417.3713144898403
  endloop
endfacet
facet normal 0.0 1.0 0.0
  outer loop
    vertex 438.15 596.9 417.3713144898403
    vertex 57.15 596.9 417.3713144898403
    vertex 247.64999999999998 596.9 417.3713144898403
  endloop
endfacet
facet normal 0.0 -1.0 0.0
  outer loop
    vertex 438.15 -55.02491514005352 417.3713144898403
    vertex 57.15 -55.02491514005352 366.5713144898403
    vertex 438.15 -55.02491514005352 366.5713144898403
  endloop
endfacet
facet normal 0.0 -1.0 0.0
  outer loop
    vertex 57.15 -55.02491514005352 366.5713144898403
    vertex 438.15 -55.02491514005352 417.3713144898403
    vertex 57.15 -55.02491514005352 417.3713144898403
  endloop
endfacet
facet normal 1.0 0.0 0.0
  outer loop
    vertex 247.64999999999998 165.1 417.3713144898403
    vertex 247.64999999999998 152.39999999999998 911.2249999999999
    vertex 247.64999999999998 152.39999999999998 417.3713144898403
  endloop
endfacet
facet normal 1.0 0.0 0.0
  outer loop
    vertex 247.64999999999998 152.39999999999998 911.2249999999999
    vertex 247.64999999999998 165.1 417.3713144898403
    vertex 247.64999999999998 165.1 911.2249999999999
  endloop
endfacet
facet normal 0.0 0.0 1.0
  outer loop
    vertex 247.64999999999998 152.39999999999998 911.2249999999999
    vertex 57.15 165.1 911.2249999999999
    vertex 57.15 152.39999999999998 911.2249999999999
  endloop
endfacet
facet normal 0.0 0.0 1.0
  outer loop
    vertex 57.15 165.1 911.2249999999999
    vertex 247.64999999999998 152.39999999999998 911.2249999999999
    vertex 247.64999999999998 165.1 911.2249999999999
  endloop
endfacet
facet normal -1.0 0.0 0.0
  outer loop
    vertex 57.15 165.1 911.2249999999999
    vertex 57.15 152.39999999999998 417.3713144898403
    vertex 57.15 152.39999999999998 911.2249999999999
  endloop
endfacet
facet normal -1.0 0.0 0.0
  outer loop
    vertex 57.15 152.39999999999998 417.3713144898403
    vertex 57.15 165.1 911.2249999999999
    vertex 57.15 165.1 417.3713144898403
  endloop
endfacet
facet normal 0.0 -1.0 0.0
  outer loop
    vertex 247.64999999999998 152.39999999999998 911.2249999999999
    vertex 57.15 152.39999999999998 417.3713144898403
    vertex 247.64999999999998 152.39999999999998 417.3713144898403
  endloop
endfacet
facet normal 0.0 -1.0 0.0
  outer loop
    vertex 57.15 152.39999999999998 417.3713144898403
    vertex 247.64999999999998 152.39999999999998 911.2249999999999
    vertex 57.15 152.39999999999998 911.2249999999999
  endloop
endfacet
facet normal 1.0 0.0 0.0
  outer loop
    vertex 247.64999999999998 88.89999999999999 417.3713144898403
    vertex 247.64999999999998 76.19999999999999 911.2249999999999
    vertex 247.64999999999998 76.19999999999999 417.3713144898403
  endloop
endfacet
facet normal 1.0 0.0 0.0
  outer loop
    vertex 247.64999999999998 76.19999999999999 911.2249999999999
    vertex 247.64999999999998 88.89999999999999 417.3713144898403
    vertex 247.64999999999998 88.89999999999999 911.2249999999999
  endloop
endfacet
facet normal 0.0 0.0 1.0
  outer loop
    vertex 247.64999999999998 76.19999999999999 911.2249999999999
    vertex 57.15 88.89999999999999 911.2249999999999
    vertex 57.15 76.19999999999999 911.2249999999999
  endloop
endfacet
facet normal 0.0 0.0 1.0
  outer loop
    vertex 57.15 88.89999999999999 911.2249999999999
    vertex 247.64999999999998 76.19999999999999 911.2249999999999
    vertex 247.64999999999998 88.89999999999999 911.2249999999999
  endloop
endfacet
facet normal -1.0 0.0 0.0
  outer loop
    vertex 57.15 88.89999999999999 911.2249999999999
    vertex 57.15 76.19999999999999 417.3713144898403
    vertex 57.15 76.19999999999999 911.2249999999999
  endloop
endfacet
facet normal -1.0 0.0 0.0
  outer loop
    vertex 57.15 76.19999999999999 417.3713144898403
    vertex 57.15 88.89999999999999 911.2249999999999
    vertex 57.15 88.89999999999999 417.3713144898403
  endloop
endfacet
facet normal 0.0 1.0 0.0
  outer loop
    vertex 57.15 165.1 911.2249999999999
    vertex 247.64999999999998 165.1 417.3713144898403
    vertex 57.15 165.1 417.3713144898403
  endloop
endfacet
facet normal 0.0 1.0 0.0
  outer loop
    vertex 247.64999999999998 165.1 417.3713144898403
    vertex 57.15 165.1 911.2249999999999
    vertex 247.64999999999998 165.1 911.2249999999999
  endloop
endfacet
facet normal 0.0 -1.0 0.0
  outer loop
    vertex 247.64999999999998 76.19999999999999 911.2249999999999
    vertex 57.15 76.19999999999999 417.3713144898403
    vertex 247.64999999999998 76.19999999999999 417.3713144898403
  endloop
endfacet
facet normal 0.0 -1.0 0.0
  outer loop
    vertex 57.15 76.19999999999999 417.3713144898403
    vertex 247.64999999999998 76.19999999999999 911.2249999999999
    vertex 57.15 76.19999999999999 911.2249999999999
  endloop
endfacet
facet normal 0.0 -1.0 0.0
  outer loop
    vertex 247.64999999999998 355.59999999999997 911.2249999999999
    vertex 57.15 355.59999999999997 417.3713144898403
    vertex 247.64999999999998 355.59999999999997 417.3713144898403
  endloop
endfacet
facet normal 0.0 -1.0 0.0
  outer loop
    vertex 57.15 355.59999999999997 417.3713144898403
    vertex 247.64999999999998 355.59999999999997 911.2249999999999
    vertex 57.15 355.59999999999997 911.2249999999999
  endloop
endfacet
facet normal 0.0 1.0 0.0
  outer loop
    vertex 57.15 368.29999999999995 911.2249999999999
    vertex 247.64999999999998 368.29999999999995 417.3713144898403
    vertex 57.15 368.29999999999995 417.3713144898403
  endloop
endfacet
facet normal 0.0 1.0 0.0
  outer loop
    vertex 247.64999999999998 368.29999999999995 417.3713144898403
    vertex 57.15 368.29999999999995 911.2249999999999
    vertex 247.64999999999998 368.29999999999995 911.2249999999999
  endloop
endfacet
facet normal 1.0 0.0 0.0
  outer loop
    vertex 247.64999999999998 368.29999999999995 417.3713144898403
    vertex 247.64999999999998 355.59999999999997 911.2249999999999
    vertex 247.64999999999998 355.59999999999997 417.3713144898403
  endloop
endfacet
facet normal 1.0 0.0 0.0
  outer loop
    vertex 247.64999999999998 355.59999999999997 911.2249999999999
    vertex 247.64999999999998 368.29999999999995 417.3713144898403
    vertex 247.64999999999998 368.29999999999995 911.2249999999999
  endloop
endfacet
facet normal 0.0 0.0 1.0
  outer loop
    vertex 247.64999999999998 355.59999999999997 911.2249999999999
    vertex 57.15 368.29999999999995 911.2249999999999
    vertex 57.15 355.59999999999997 911.2249999999999
  endloop
endfacet
facet normal 0.0 0.0 1.0
  outer loop
    vertex 57.15 368.29999999999995 911.2249999999999
    vertex 247.64999999999998 355.59999999999997 911.2249999999999
    vertex 247.64999999999998 368.29999999999995 911.2249999999999
  endloop
endfacet
facet normal -1.0 0.0 0.0
  outer loop
    vertex 57.15 368.29999999999995 911.2249999999999
    vertex 57.15 355.59999999999997 417.3713144898403
    vertex 57.15 355.59999999999997 911.2249999999999
  endloop
endfacet
facet normal -1.0 0.0 0.0
  outer loop
    vertex 57.15 355.59999999999997 417.3713144898403
    vertex 57.15 368.29999999999995 911.2249999999999
    vertex 57.15 368.29999999999995 417.3713144898403
  endloop
endfacet
facet normal 0.0 1.0 0.0
  outer loop
    vertex 57.15 88.89999999999999 911.2249999999999
    vertex 247.64999999999998 88.89999999999999 417.3713144898403
    vertex 57.15 88.89999999999999 417.3713144898403
  endloop
endfacet
facet normal 0.0 1.0 0.0
  outer loop
    vertex 247.64999999999998 88.89999999999999 417.3713144898403
    vertex 57.15 88.89999999999999 911.2249999999999
    vertex 247.64999999999998 88.89999999999999 911.2249999999999
  endloop
endfacet
facet normal 1.0 0.0 0.0
  outer loop
    vertex 438.15 596.9 366.5713144898403
    vertex 438.15 -55.02491514005352 417.3713144898403
    vertex 438.15 -55.02491514005352 366.5713144898403
  endloop
endfacet
facet normal 1.0 0.0 0.0
  outer loop
    vertex 438.15 -55.02491514005352 417.3713144898403
    vertex 438.15 596.9 366.5713144898403
    vertex 438.15 596.9 417.3713144898403
  endloop
endfacet
facet normal -1.0 0.0 0.0
  outer loop
    vertex 57.15 -25.4 417.3713144898403
    vertex 57.15 -55.02491514005352 366.5713144898403
    vertex 57.15 -55.02491514005352 417.3713144898403
  endloop
endfacet
facet normal -1.0 0.0 0.0
  outer loop
    vertex 57.15 -55.02491514005352 366.5713144898403
    vertex 57.15 -25.4 417.3713144898403
    vertex 57.15 596.9 366.5713144898403
  endloop
endfacet
facet normal -1.0 0.0 0.0
  outer loop
    vertex 57.15 596.9 366.5713144898403
    vertex 57.15 -25.4 417.3713144898403
    vertex 57.15 -12.7 417.3713144898403
  endloop
endfacet
facet normal -1.0 0.0 0.0
  outer loop
    vertex 57.15 596.9 366.5713144898403
    vertex 57.15 -12.7 417.3713144898403
    vertex 57.15 0.0 417.3713144898403
  endloop
endfacet
facet normal -1.0 0.0 0.0
  outer loop
    vertex 57.15 596.9 366.5713144898403
    vertex 57.15 0.0 417.3713144898403
    vertex 57.15 12.7 417.3713144898403
  endloop
endfacet
facet normal -1.0 0.0 0.0
  outer loop
    vertex 57.15 596.9 366.5713144898403
    vertex 57.15 12.7 417.3713144898403
    vertex 57.15 25.4 417.3713144898403
  endloop
endfacet
facet normal -1.0 0.0 0.0
  outer loop
    vertex 57.15 596.9 366.5713144898403
    vertex 57.15 25.4 417.3713144898403
    vertex 57.15 38.099999999999994 417.3713144898403
  endloop
endfacet
facet normal -1.0 0.0 0.0
  outer loop
    vertex 57.15 596.9 366.5713144898403
    vertex 57.15 38.099999999999994 417.3713144898403
    vertex 57.15 50.8 417.3713144898403
  endloop
endfacet
facet normal -1.0 0.0 0.0
  outer loop
    vertex 57.15 596.9 366.5713144898403
    vertex 57.15 50.8 417.3713144898403
    vertex 57.15 63.5 417.3713144898403
  endloop
endfacet
facet normal -1.0 0.0 0.0
  outer loop
    vertex 57.15 596.9 366.5713144898403
    vertex 57.15 63.5 417.3713144898403
    vertex 57.15 76.19999999999999 417.3713144898403
  endloop
endfacet
facet normal -1.0 0.0 0.0
  outer loop
    vertex 57.15 596.9 366.5713144898403
    vertex 57.15 76.19999999999999 417.3713144898403
    vertex 57.15 88.89999999999999 417.3713144898403
  endloop
endfacet
facet normal -1.0 0.0 0.0
  outer loop
    vertex 57.15 596.9 366.5713144898403
    vertex 57.15 88.89999999999999 417.3713144898403
    vertex 57.15 101.6 417.3713144898403
  endloop
endfacet
facet normal -1.0 0.0 0.0
  outer loop
    vertex 57.15 596.9 366.5713144898403
    vertex 57.15 101.6 417.3713144898403
    vertex 57.15 114.3 417.3713144898403
  endloop
endfacet
facet normal -1.0 0.0 0.0
  outer loop
    vertex 57.15 596.9 366.5713144898403
    vertex 57.15 114.3 417.3713144898403
    vertex 57.15 127.0 417.3713144898403
  endloop
endfacet
facet normal -1.0 0.0 0.0
  outer loop
    vertex 57.15 596.9 366.5713144898403
    vertex 57.15 127.0 417.3713144898403
    vertex 57.15 139.7 417.3713144898403
  endloop
endfacet
facet normal -1.0 0.0 0.0
  outer loop
    vertex 57.15 596.9 366.5713144898403
    vertex 57.15 139.7 417.3713144898403
    vertex 57.15 152.39999999999998 417.3713144898403
  endloop
endfacet
facet normal -1.0 0.0 0.0
  outer loop
    vertex 57.15 596.9 366.5713144898403
    vertex 57.15 152.39999999999998 417.3713144898403
    vertex 57.15 165.1 417.3713144898403
  endloop
endfacet
facet normal -1.0 0.0 0.0
  outer loop
    vertex 57.15 596.9 366.5713144898403
    vertex 57.15 165.1 417.3713144898403
    vertex 57.15 177.79999999999998 417.3713144898403
  endloop
endfacet
facet normal -1.0 0.0 0.0
  outer loop
    vertex 57.15 596.9 366.5713144898403
    vertex 57.15 177.79999999999998 417.3713144898403
    vertex 57.15 190.5 417.3713144898403
  endloop
endfacet
facet normal -1.0 0.0 0.0
  outer loop
    vertex 57.15 596.9 366.5713144898403
    vertex 57.15 190.5 417.3713144898403
    vertex 57.15 203.2 417.3713144898403
  endloop
endfacet
facet normal -1.0 0.0 0.0
  outer loop
    vertex 57.15 596.9 366.5713144898403
    vertex 57.15 203.2 417.3713144898403
    vertex 57.15 215.89999999999998 417.3713144898403
  endloop
endfacet
facet normal -1.0 0.0 0.0
  outer loop
    vertex 57.15 596.9 366.5713144898403
    vertex 57.15 215.89999999999998 417.3713144898403
    vertex 57.15 228.6 417.3713144898403
  endloop
endfacet
facet normal -1.0 0.0 0.0
  outer loop
    vertex 57.15 596.9 366.5713144898403
    vertex 57.15 228.6 417.3713144898403
    vertex 57.15 241.29999999999998 417.3713144898403
  endloop
endfacet
facet normal -1.0 0.0 0.0
  outer loop
    vertex 57.15 596.9 366.5713144898403
    vertex 57.15 241.29999999999998 417.3713144898403
    vertex 57.15 254.0 417.3713144898403
  endloop
endfacet
facet normal -1.0 0.0 0.0
  outer loop
    vertex 57.15 596.9 366.5713144898403
    vertex 57.15 254.0 417.3713144898403
    vertex 57.15 266.7 417.3713144898403
  endloop
endfacet
facet normal -1.0 0.0 0.0
  outer loop
    vertex 57.15 596.9 366.5713144898403
    vertex 57.15 266.7 417.3713144898403
    vertex 57.15 279.4 417.3713144898403
  endloop
endfacet
facet normal -1.0 0.0 0.0
  outer loop
    vertex 57.15 596.9 366.5713144898403
    vertex 57.15 279.4 417.3713144898403
    vertex 57.15 292.09999999999997 417.3713144898403
  endloop
endfacet
facet normal -1.0 0.0 0.0
  outer loop
    vertex 57.15 596.9 366.5713144898403
    vertex 57.15 292.09999999999997 417.3713144898403
    vertex 57.15 304.79999999999995 417.3713144898403
  endloop
endfacet
facet normal -1.0 0.0 0.0
  outer loop
    vertex 57.15 596.9 366.5713144898403
    vertex 57.15 304.79999999999995 417.3713144898403
    vertex 57.15 317.5 417.3713144898403
  endloop
endfacet
facet normal -1.0 0.0 0.0
  outer loop
    vertex 57.15 596.9 366.5713144898403
    vertex 57.15 317.5 417.3713144898403
    vertex 57.15 330.2 417.3713144898403
  endloop
endfacet
facet normal -1.0 0.0 0.0
  outer loop
    vertex 57.15 596.9 366.5713144898403
    vertex 57.15 330.2 417.3713144898403
    vertex 57.15 342.9 417.3713144898403
  endloop
endfacet
facet normal -1.0 0.0 0.0
  outer loop
    vertex 57.15 596.9 366.5713144898403
    vertex 57.15 342.9 417.3713144898403
    vertex 57.15 355.59999999999997 417.3713144898403
  endloop
endfacet
facet normal -1.0 0.0 0.0
  outer loop
    vertex 57.15 596.9 366.5713144898403
    vertex 57.15 355.59999999999997 417.3713144898403
    vertex 57.15 368.29999999999995 417.3713144898403
  endloop
endfacet
facet normal -1.0 0.0 0.0
  outer loop
    vertex 57.15 596.9 366.5713144898403
    vertex 57.15 368.29999999999995 417.3713144898403
    vertex 57.15 381.0 417.3713144898403
  endloop
endfacet
facet normal -1.0 0.0 0.0
  outer loop
    vertex 57.15 596.9 366.5713144898403
    vertex 57.15 381.0 417.3713144898403
    vertex 57.15 393.7 417.3713144898403
  endloop
endfacet
facet normal -1.0 0.0 0.0
  outer loop
    vertex 57.15 596.9 366.5713144898403
    vertex 57.15 393.7 417.3713144898403
    vertex 57.15 406.4 417.3713144898403
  endloop
endfacet
facet normal -1.0 0.0 0.0
  outer loop
    vertex 57.15 596.9 366.5713144898403
    vertex 57.15 406.4 417.3713144898403
    vertex 57.15 419.09999999999997 417.3713144898403
  endloop
endfacet
facet normal -1.0 0.0 0.0
  outer loop
    vertex 57.15 596.9 366.5713144898403
    vertex 57.15 419.09999999999997 417.3713144898403
    vertex 57.15 431.79999999999995 417.3713144898403
  endloop
endfacet
facet normal -1.0 0.0 0.0
  outer loop
    vertex 57.15 596.9 366.5713144898403
    vertex 57.15 431.79999999999995 417.3713144898403
    vertex 57.15 444.5 417.3713144898403
  endloop
endfacet
facet normal -1.0 0.0 0.0
  outer loop
    vertex 57.15 596.9 366.5713144898403
    vertex 57.15 444.5 417.3713144898403
    vertex 57.15 457.2 417.3713144898403
  endloop
endfacet
facet normal -1.0 0.0 0.0
  outer loop
    vertex 57.15 596.9 366.5713144898403
    vertex 57.15 457.2 417.3713144898403
    vertex 57.15 469.9 417.3713144898403
  endloop
endfacet
facet normal -1.0 0.0 0.0
  outer loop
    vertex 57.15 596.9 366.5713144898403
    vertex 57.15 469.9 417.3713144898403
    vertex 57.15 482.59999999999997 417.3713144898403
  endloop
endfacet
facet normal -1.0 0.0 0.0
  outer loop
    vertex 57.15 596.9 366.5713144898403
    vertex 57.15 482.59999999999997 417.3713144898403
    vertex 57.15 495.29999999999995 417.3713144898403
  endloop
endfacet
facet normal -1.0 0.0 0.0
  outer loop
    vertex 57.15 596.9 366.5713144898403
    vertex 57.15 495.29999999999995 417.3713144898403
    vertex 57.15 508.0 417.3713144898403
  endloop
endfacet
facet normal -1.0 0.0 0.0
  outer loop
    vertex 57.15 596.9 366.5713144898403
    vertex 57.15 508.0 417.3713144898403
    vertex 57.15 520.6999999999999 417.3713144898403
  endloop
endfacet
facet normal -1.0 0.0 0.0
  outer loop
    vertex 57.15 596.9 366.5713144898403
    vertex 57.15 520.6999999999999 417.3713144898403
    vertex 57.15 533.4 417.3713144898403
  endloop
endfacet
facet normal -1.0 0.0 0.0
  outer loop
    vertex 57.15 596.9 366.5713144898403
    vertex 57.15 533.4 417.3713144898403
    vertex 57.15 546.1 417.3713144898403
  endloop
endfacet
facet normal -1.0 0.0 0.0
  outer loop
    vertex 57.15 596.9 366.5713144898403
    vertex 57.15 546.1 417.3713144898403
    vertex 57.15 558.8 417.3713144898403
  endloop
endfacet
facet normal -1.0 0.0 0.0
  outer loop
    vertex 57.15 596.9 366.5713144898403
    vertex 57.15 558.8 417.3713144898403
    vertex 57.15 571.5 417.3713144898403
  endloop
endfacet
facet normal -1.0 0.0 0.0
  outer loop
    vertex 57.15 596.9 366.5713144898403
    vertex 57.15 571.5 417.3713144898403
    vertex 57.15 584.1999999999999 417.3713144898403
  endloop
endfacet
facet normal -1.0 0.0 0.0
  outer loop
    vertex 57.15 596.9 366.5713144898403
    vertex 57.15 584.1999999999999 417.3713144898403
    vertex 57.15 596.9 417.3713144898403
  endloop
endfacet
facet normal -0.0 -0.0 -1.0
  outer loop
    vertex 438.15 596.9 366.5713144898403
    vertex 57.15 -55.02491514005352 366.5713144898403
    vertex 57.15 596.9 366.5713144898403
  endloop
endfacet
facet normal -0.0 -0.0 -1.0
  outer loop
    vertex 57.15 -55.02491514005352 366.5713144898403
    vertex 438.15 596.9 366.5713144898403
    vertex 438.15 -55.02491514005352 366.5713144898403
  endloop
endfacet
facet normal 0.0 -1.0 0.0
  outer loop
    vertex 247.64999999999998 203.2 911.2249999999999
    vertex 57.15 203.2 417.3713144898403
    vertex 247.64999999999998 203.2 417.3713144898403
  endloop
endfacet
facet normal 0.0 -1.0 0.0
  outer loop
    vertex 57.15 203.2 417.3713144898403
    vertex 247.64999999999998 203.2 911.2249999999999
    vertex 57.15 203.2 911.2249999999999
  endloop
endfacet
facet normal 0.0 -1.0 0.0
  outer loop
    vertex 247.64999999999998 431.79999999999995 911.2249999999999
    vertex 57.15 431.79999999999995 417.3713144898403
    vertex 247.64999999999998 431.79999999999995 417.3713144898403
  endloop
endfacet
facet normal 0.0 -1.0 0.0
  outer loop
    vertex 57.15 431.79999999999995 417.3713144898403
    vertex 247.64999999999998 431.79999999999995 911.2249999999999
    vertex 57.15 431.79999999999995 911.2249999999999
  endloop
endfacet
facet normal -1.0 0.0 0.0
  outer loop
    vertex 57.15 444.5 911.2249999999999
    vertex 57.15 431.79999999999995 417.3713144898403
    vertex 57.15 431.79999999999995 911.2249999999999
  endloop
endfacet
facet normal -1.0 0.0 0.0
  outer loop
    vertex 57.15 431.79999999999995 417.3713144898403
    vertex 57.15 444.5 911.2249999999999
    vertex 57.15 444.5 417.3713144898403
  endloop
endfacet
facet normal 0.0 0.0 1.0
  outer loop
    vertex 247.64999999999998 431.79999999999995 911.2249999999999
    vertex 57.15 444.5 911.2249999999999
    vertex 57.15 431.79999999999995 911.2249999999999
  endloop
endfacet
facet normal 0.0 0.0 1.0
  outer loop
    vertex 57.15 444.5 911.2249999999999
    vertex 247.64999999999998 431.79999999999995 911.2249999999999
    vertex 247.64999999999998 444.5 911.2249999999999
  endloop
endfacet
facet normal 1.0 0.0 0.0
  outer loop
    vertex 247.64999999999998 444.5 417.3713144898403
    vertex 247.64999999999998 431.79999999999995 911.2249999999999
    vertex 247.64999999999998 431.79999999999995 417.3713144898403
  endloop
endfacet
facet normal 1.0 0.0 0.0
  outer loop
    vertex 247.64999999999998 431.79999999999995 911.2249999999999
    vertex 247.64999999999998 444.5 417.3713144898403
    vertex 247.64999999999998 444.5 911.2249999999999
  endloop
endfacet
facet normal 0.0 -1.0 0.0
  outer loop
    vertex 247.64999999999998 304.79999999999995 911.2249999999999
    vertex 57.15 304.79999999999995 417.3713144898403
    vertex 247.64999999999998 304.79999999999995 417.3713144898403
  endloop
endfacet
facet normal 0.0 -1.0 0.0
  outer loop
    vertex 57.15 304.79999999999995 417.3713144898403
    vertex 247.64999999999998 304.79999999999995 911.2249999999999
    vertex 57.15 304.79999999999995 911.2249999999999
  endloop
endfacet
facet normal 0.0 1.0 0.0
  outer loop
    vertex 57.15 444.5 911.2249999999999
    vertex 247.64999999999998 444.5 417.3713144898403
    vertex 57.15 444.5 417.3713144898403
  endloop
endfacet
facet normal 0.0 1.0 0.0
  outer loop
    vertex 247.64999999999998 444.5 417.3713144898403
    vertex 57.15 444.5 911.2249999999999
    vertex 247.64999999999998 444.5 911.2249999999999
  endloop
endfacet
facet normal -1.0 0.0 0.0
  outer loop
    vertex 57.15 317.5 911.2249999999999
    vertex 57.15 304.79999999999995 417.3713144898403
    vertex 57.15 304.79999999999995 911.2249999999999
  endloop
endfacet
facet normal -1.0 0.0 0.0
  outer loop
    vertex 57.15 304.79999999999995 417.3713144898403
    vertex 57.15 317.5 911.2249999999999
    vertex 57.15 317.5 417.3713144898403
  endloop
endfacet
facet normal 0.0 0.0 1.0
  outer loop
    vertex 247.64999999999998 304.79999999999995 911.2249999999999
    vertex 57.15 317.5 911.2249999999999
    vertex 57.15 304.79999999999995 911.2249999999999
  endloop
endfacet
facet normal 0.0 0.0 1.0
  outer loop
    vertex 57.15 317.5 911.2249999999999
    vertex 247.64999999999998 304.79999999999995 911.2249999999999
    vertex 247.64999999999998 317.5 911.2249999999999
  endloop
endfacet
facet normal 1.0 0.0 0.0
  outer loop
    vertex 247.64999999999998 317.5 417.3713144898403
    vertex 247.64999999999998 304.79999999999995 911.2249999999999
    vertex 247.64999999999998 304.79999999999995 417.3713144898403
  endloop
endfacet
facet normal 1.0 0.0 0.0
  outer loop
    vertex 247.64999999999998 304.79999999999995 911.2249999999999
    vertex 247.64999999999998 317.5 417.3713144898403
    vertex 247.64999999999998 317.5 911.2249999999999
  endloop
endfacet
facet normal 0.0 -1.0 0.0
  outer loop
    vertex 247.64999999999998 127.0 911.2249999999999
    vertex 57.15 127.0 417.3713144898403
    vertex 247.64999999999998 127.0 417.3713144898403
  endloop
endfacet
facet normal 0.0 -1.0 0.0
  outer loop
    vertex 57.15 127.0 417.3713144898403
    vertex 247.64999999999998 127.0 911.2249999999999
    vertex 57.15 127.0 911.2249999999999
  endloop
endfacet
facet normal 0.0 1.0 0.0
  outer loop
    vertex 57.15 317.5 911.2249999999999
    vertex 247.64999999999998 317.5 417.3713144898403
    vertex 57.15 317.5 417.3713144898403
  endloop
endfacet
facet normal 0.0 1.0 0.0
  outer loop
    vertex 247.64999999999998 317.5 417.3713144898403
    vertex 57.15 317.5 911.2249999999999
    vertex 247.64999999999998 317.5 911.2249999999999
  endloop
endfacet
facet normal -1.0 0.0 0.0
  outer loop
    vertex 57.15 139.7 911.2249999999999
    vertex 57.15 127.0 417.3713144898403
    vertex 57.15 127.0 911.2249999999999
  endloop
endfacet
facet normal -1.0 0.0 0.0
  outer loop
    vertex 57.15 127.0 417.3713144898403
    vertex 57.15 139.7 911.2249999999999
    vertex 57.15 139.7 417.3713144898403
  endloop
endfacet
facet normal 0.0 0.0 1.0
  outer loop
    vertex 247.64999999999998 127.0 911.2249999999999
    vertex 57.15 139.7 911.2249999999999
    vertex 57.15 127.0 911.2249999999999
  endloop
endfacet
facet normal 0.0 0.0 1.0
  outer loop
    vertex 57.15 139.7 911.2249999999999
    vertex 247.64999999999998 127.0 911.2249999999999
    vertex 247.64999999999998 139.7 911.2249999999999
  endloop
endfacet
facet normal 1.0 0.0 0.0
  outer loop
    vertex 247.64999999999998 139.7 417.3713144898403
    vertex 247.64999999999998 127.0 911.2249999999999
    vertex 247.64999999999998 127.0 417.3713144898403
  endloop
endfacet
facet normal 1.0 0.0 0.0
  outer loop
    vertex 247.64999999999998 127.0 911.2249999999999
    vertex 247.64999999999998 139.7 417.3713144898403
    vertex 247.64999999999998 139.7 911.2249999999999
  endloop
endfacet
facet normal 0.0 -1.0 0.0
  outer loop
    vertex 247.64999999999998 50.8 911.2249999999999
    vertex 57.15 50.8 417.3713144898403
    vertex 247.64999999999998 50.8 417.3713144898403
  endloop
endfacet
facet normal 0.0 -1.0 0.0
  outer loop
    vertex 57.15 50.8 417.3713144898403
    vertex 247.64999999999998 50.8 911.2249999999999
    vertex 57.15 50.8 911.2249999999999
  endloop
endfacet
facet normal 0.0 1.0 0.0
  outer loop
    vertex 57.15 139.7 911.2249999999999
    vertex 247.64999999999998 139.7 417.3713144898403
    vertex 57.15 139.7 417.3713144898403
  endloop
endfacet
facet normal 0.0 1.0 0.0
  outer loop
    vertex 247.64999999999998 139.7 417.3713144898403
    vertex 57.15 139.7 911.2249999999999
    vertex 247.64999999999998 139.7 911.2249999999999
  endloop
endfacet
facet normal -1.0 0.0 0.0
  outer loop
    vertex 57.15 63.5 911.2249999999999
    vertex 57.15 50.8 417.3713144898403
    vertex 57.15 50.8 911.2249999999999
  endloop
endfacet
facet normal -1.0 0.0 0.0
  outer loop
    vertex 57.15 50.8 417.3713144898403
    vertex 57.15 63.5 911.2249999999999
    vertex 57.15 63.5 417.3713144898403
  endloop
endfacet
facet normal 0.0 0.0 1.0
  outer loop
    vertex 247.64999999999998 50.8 911.2249999999999
    vertex 57.15 63.5 911.2249999999999
    vertex 57.15 50.8 911.2249999999999
  endloop
endfacet
facet normal 0.0 0.0 1.0
  outer loop
    vertex 57.15 63.5 911.2249999999999
    vertex 247.64999999999998 50.8 911.2249999999999
    vertex 247.64999999999998 63.5 911.2249999999999
  endloop
endfacet
facet normal 1.0 0.0 0.0
  outer loop
    vertex 247.64999999999998 63.5 417.3713144898403
    vertex 247.64999999999998 50.8 911.2249999999999
    vertex 247.64999999999998 50.8 417.3713144898403
  endloop
endfacet
facet normal 1.0 0.0 0.0
  outer loop
    vertex 247.64999999999998 50.8 911.2249999999999
    vertex 247.64999999999998 63.5 417.3713144898403
    vertex 247.64999999999998 63.5 911.2249999999999
  endloop
endfacet
facet normal 0.0 -1.0 0.0
  outer loop
    vertex 247.64999999999998 228.6 911.2249999999999
    vertex 57.15 228.6 417.3713144898403
    vertex 247.64999999999998 228.6 417.3713144898403
  endloop
endfacet
facet normal 0.0 -1.0 0.0
  outer loop
    vertex 57.15 228.6 417.3713144898403
    vertex 247.64999999999998 228.6 911.2249999999999
    vertex 57.15 228.6 911.2249999999999
  endloop
endfacet
facet normal 0.0 1.0 0.0
  outer loop
    vertex 57.15 63.5 911.2249999999999
    vertex 247.64999999999998 63.5 417.3713144898403
    vertex 57.15 63.5 417.3713144898403
  endloop
endfacet
facet normal 0.0 1.0 0.0
  outer loop
    vertex 247.64999999999998 63.5 417.3713144898403
    vertex 57.15 63.5 911.2249999999999
    vertex 247.64999999999998 63.5 911.2249999999999
  endloop
endfacet
facet normal -1.0 0.0 0.0
  outer loop
    vertex 57.15 241.29999999999998 911.2249999999999
    vertex 57.15 228.6 417.3713144898403
    vertex 57.15 228.6 911.2249999999999
  endloop
endfacet
facet normal -1.0 0.0 0.0
  outer loop
    vertex 57.15 228.6 417.3713144898403
    vertex 57.15 241.29999999999998 911.2249999999999
    vertex 57.15 241.29999999999998 417.3713144898403
  endloop
endfacet
facet normal 0.0 0.0 1.0
  outer loop
    vertex 247.64999999999998 228.6 911.2249999999999
    vertex 57.15 241.29999999999998 911.2249999999999
    vertex 57.15 228.6 911.2249999999999
  endloop
endfacet
facet normal 0.0 0.0 1.0
  outer loop
    vertex 57.15 241.29999999999998 911.2249999999999
    vertex 247.64999999999998 228.6 911.2249999999999
    vertex 247.64999999999998 241.29999999999998 911.2249999999999
  endloop
endfacet
facet normal 1.0 0.0 0.0
  outer loop
    vertex 247.64999999999998 241.29999999999998 417.3713144898403
    vertex 247.64999999999998 228.6 911.2249999999999
    vertex 247.64999999999998 228.6 417.3713144898403
  endloop
endfacet
facet normal 1.0 0.0 0.0
  outer loop
    vertex 247.64999999999998 228.6 911.2249999999999
    vertex 247.64999999999998 241.29999999999998 417.3713144898403
    vertex 247.64999999999998 241.29999999999998 911.2249999999999
  endloop
endfacet
facet normal 0.0 -1.0 0.0
  outer loop
    vertex 247.64999999999998 25.4 911.2249999999999
    vertex 57.15 25.4 417.3713144898403
    vertex 247.64999999999998 25.4 417.3713144898403
  endloop
endfacet
facet normal 0.0 -1.0 0.0
  outer loop
    vertex 57.15 25.4 417.3713144898403
    vertex 247.64999999999998 25.4 911.2249999999999
    vertex 57.15 25.4 911.2249999999999
  endloop
endfacet
facet normal 0.0 1.0 0.0
  outer loop
    vertex 57.15 241.29999999999998 911.2249999999999
    vertex 247.64999999999998 241.29999999999998 417.3713144898403
    vertex 57.15 241.29999999999998 417.3713144898403
  endloop
endfacet
facet normal 0.0 1.0 0.0
  outer loop
    vertex 247.64999999999998 241.29999999999998 417.3713144898403
    vertex 57.15 241.29999999999998 911.2249999999999
    vertex 247.64999999999998 241.29999999999998 911.2249999999999
  endloop
endfacet
facet normal -1.0 0.0 0.0
  outer loop
    vertex 57.15 38.099999999999994 911.2249999999999
    vertex 57.15 25.4 417.3713144898403
    vertex 57.15 25.4 911.2249999999999
  endloop
endfacet
facet normal -1.0 0.0 0.0
  outer loop
    vertex 57.15 25.4 417.3713144898403
    vertex 57.15 38.099999999999994 911.2249999999999
    vertex 57.15 38.099999999999994 417.3713144898403
  endloop
endfacet
facet normal 0.0 0.0 1.0
  outer loop
    vertex 247.64999999999998 25.4 911.2249999999999
    vertex 57.15 38.099999999999994 911.2249999999999
    vertex 57.15 25.4 911.2249999999999
  endloop
endfacet
facet normal 0.0 0.0 1.0
  outer loop
    vertex 57.15 38.099999999999994 911.2249999999999
    vertex 247.64999999999998 25.4 911.2249999999999
    vertex 247.64999999999998 38.099999999999994 911.2249999999999
  endloop
endfacet
facet normal 1.0 0.0 0.0
  outer loop
    vertex 247.64999999999998 38.099999999999994 417.3713144898403
    vertex 247.64999999999998 25.4 911.2249999999999
    vertex 247.64999999999998 25.4 417.3713144898403
  endloop
endfacet
facet normal 1.0 0.0 0.0
  outer loop
    vertex 247.64999999999998 25.4 911.2249999999999
    vertex 247.64999999999998 38.099999999999994 417.3713144898403
    vertex 247.64999999999998 38.099999999999994 911.2249999999999
  endloop
endfacet
facet normal 0.0 -1.0 0.0
  outer loop
    vertex 247.64999999999998 558.8 911.2249999999999
    vertex 57.15 558.8 417.3713144898403
    vertex 247.64999999999998 558.8 417.3713144898403
  endloop
endfacet
facet normal 0.0 -1.0 0.0
  outer loop
    vertex 57.15 558.8 417.3713144898403
    vertex 247.64999999999998 558.8 911.2249999999999
    vertex 57.15 558.8 911.2249999999999
  endloop
endfacet
facet normal 0.0 1.0 0.0
  outer loop
    vertex 57.15 38.099999999999994 911.2249999999999
    vertex 247.64999999999998 38.099999999999994 417.3713144898403
    vertex 57.15 38.099999999999994 417.3713144898403
  endloop
endfacet
facet normal 0.0 1.0 0.0
  outer loop
    vertex 247.64999999999998 38.099999999999994 417.3713144898403
    vertex 57.15 38.099999999999994 911.2249999999999
    vertex 247.64999999999998 38.099999999999994 911.2249999999999
  endloop
endfacet
facet normal -1.0 0.0 0.0
  outer loop
    vertex 57.15 571.5 911.2249999999999
    vertex 57.15 558.8 417.3713144898403
    vertex 57.15 558.8 911.2249999999999
  endloop
endfacet
facet normal -1.0 0.0 0.0
  outer loop
    vertex 57.15 558.8 417.3713144898403
    vertex 57.15 571.5 911.2249999999999
    vertex 57.15 571.5 417.3713144898403
  endloop
endfacet
facet normal 0.0 0.0 1.0
  outer loop
    vertex 247.64999999999998 558.8 911.2249999999999
    vertex 57.15 571.5 911.2249999999999
    vertex 57.15 558.8 911.2249999999999
  endloop
endfacet
facet normal 0.0 0.0 1.0
  outer loop
    vertex 57.15 571.5 911.2249999999999
    vertex 247.64999999999998 558.8 911.2249999999999
    vertex 247.64999999999998 571.5 911.2249999999999
  endloop
endfacet
facet normal 1.0 0.0 0.0
  outer loop
    vertex 247.64999999999998 571.5 417.3713144898403
    vertex 247.64999999999998 558.8 911.2249999999999
    vertex 247.64999999999998 558.8 417.3713144898403
  endloop
endfacet
facet normal 1.0 0.0 0.0
  outer loop
    vertex 247.64999999999998 558.8 911.2249999999999
    vertex 247.64999999999998 571.5 417.3713144898403
    vertex 247.64999999999998 571.5 911.2249999999999
  endloop
endfacet
facet normal 0.0 -1.0 0.0
  outer loop
    vertex 247.64999999999998 533.4 911.2249999999999
    vertex 57.15 533.4 417.3713144898403
    vertex 247.64999999999998 533.4 417.3713144898403
  endloop
endfacet
facet normal 0.0 -1.0 0.0
  outer loop
    vertex 57.15 533.4 417.3713144898403
    vertex 247.64999999999998 533.4 911.2249999999999
    vertex 57.15 533.4 911.2249999999999
  endloop
endfacet
facet normal 0.0 1.0 0.0
  outer loop
    vertex 57.15 571.5 911.2249999999999
    vertex 247.64999999999998 571.5 417.3713144898403
    vertex 57.15 571.5 417.3713144898403
  endloop
endfacet
facet normal 0.0 1.0 0.0
  outer loop
    vertex 247.64999999999998 571.5 417.3713144898403
    vertex 57.15 571.5 911.2249999999999
    vertex 247.64999999999998 571.5 911.2249999999999
  endloop
endfacet
facet normal -1.0 0.0 0.0
  outer loop
    vertex 57.15 546.1 911.2249999999999
    vertex 57.15 533.4 417.3713144898403
    vertex 57.15 533.4 911.2249999999999
  endloop
endfacet
facet normal -1.0 0.0 0.0
  outer loop
    vertex 57.15 533.4 417.3713144898403
    vertex 57.15 546.1 911.2249999999999
    vertex 57.15 546.1 417.3713144898403
  endloop
endfacet
facet normal 0.0 0.0 1.0
  outer loop
    vertex 247.64999999999998 533.4 911.2249999999999
    vertex 57.15 546.1 911.2249999999999
    vertex 57.15 533.4 911.2249999999999
  endloop
endfacet
facet normal 0.0 0.0 1.0
  outer loop
    vertex 57.15 546.1 911.2249999999999
    vertex 247.64999999999998 533.4 911.2249999999999
    vertex 247.64999999999998 546.1 911.2249999999999
  endloop
endfacet
facet normal 1.0 0.0 0.0
  outer loop
    vertex 247.64999999999998 546.1 417.3713144898403
    vertex 247.64999999999998 533.4 911.2249999999999
    vertex 247.64999999999998 533.4 417.3713144898403
  endloop
endfacet
facet normal 1.0 0.0 0.0
  outer loop
    vertex 247.64999999999998 533.4 911.2249999999999
    vertex 247.64999999999998 546.1 417.3713144898403
    vertex 247.64999999999998 546.1 911.2249999999999
  endloop
endfacet
facet normal 0.0 -1.0 0.0
  outer loop
    vertex 247.64999999999998 279.4 911.2249999999999
    vertex 57.15 279.4 417.3713144898403
    vertex 247.64999999999998 279.4 417.3713144898403
  endloop
endfacet
facet normal 0.0 -1.0 0.0
  outer loop
    vertex 57.15 279.4 417.3713144898403
    vertex 247.64999999999998 279.4 911.2249999999999
    vertex 57.15 279.4 911.2249999999999
  endloop
endfacet
facet normal 1.0 0.0 0.0
  outer loop
    vertex 247.64999999999998 -12.7 417.3713144898403
    vertex 247.64999999999998 -25.4 911.2249999999999
    vertex 247.64999999999998 -25.4 417.3713144898403
  endloop
endfacet
facet normal 1.0 0.0 0.0
  outer loop
    vertex 247.64999999999998 -25.4 911.2249999999999
    vertex 247.64999999999998 -12.7 417.3713144898403
    vertex 247.64999999999998 -12.7 911.2249999999999
  endloop
endfacet
facet normal 0.0 0.0 1.0
  outer loop
    vertex 247.64999999999998 -25.4 911.2249999999999
    vertex 57.15 -12.7 911.2249999999999
    vertex 57.15 -25.4 911.2249999999999
  endloop
endfacet
facet normal 0.0 0.0 1.0
  outer loop
    vertex 57.15 -12.7 911.2249999999999
    vertex 247.64999999999998 -25.4 911.2249999999999
    vertex 247.64999999999998 -12.7 911.2249999999999
  endloop
endfacet
facet normal -1.0 0.0 0.0
  outer loop
    vertex 57.15 -12.7 911.2249999999999
    vertex 57.15 -25.4 417.3713144898403
    vertex 57.15 -25.4 911.2249999999999
  endloop
endfacet
facet normal -1.0 0.0 0.0
  outer loop
    vertex 57.15 -25.4 417.3713144898403
    vertex 57.15 -12.7 911.2249999999999
    vertex 57.15 -12.7 417.3713144898403
  endloop
endfacet
facet normal 0.0 1.0 0.0
  outer loop
    vertex 57.15 190.5 911.2249999999999
    vertex 247.64999999999998 190.5 417.3713144898403
    vertex 57.15 190.5 417.3713144898403
  endloop
endfacet
facet normal 0.0 1.0 0.0
  outer loop
    vertex 247.64999999999998 190.5 417.3713144898403
    vertex 57.15 190.5 911.2249999999999
    vertex 247.64999999999998 190.5 911.2249999999999
  endloop
endfacet
facet normal 0.0 -1.0 0.0
  outer loop
    vertex 247.64999999999998 -25.4 911.2249999999999
    vertex 57.15 -25.4 417.3713144898403
    vertex 247.64999999999998 -25.4 417.3713144898403
  endloop
endfacet
facet normal 0.0 -1.0 0.0
  outer loop
    vertex 57.15 -25.4 417.3713144898403
    vertex 247.64999999999998 -25.4 911.2249999999999
    vertex 57.15 -25.4 911.2249999999999
  endloop
endfacet
facet normal 1.0 0.0 0.0
  outer loop
    vertex 247.64999999999998 190.5 417.3713144898403
    vertex 247.64999999999998 177.79999999999998 911.2249999999999
    vertex 247.64999999999998 177.79999999999998 417.3713144898403
  endloop
endfacet
facet normal 1.0 0.0 0.0
  outer loop
    vertex 247.64999999999998 177.79999999999998 911.2249999999999
    vertex 247.64999999999998 190.5 417.3713144898403
    vertex 247.64999999999998 190.5 911.2249999999999
  endloop
endfacet
facet normal 0.0 0.0 1.0
  outer loop
    vertex 247.64999999999998 177.79999999999998 911.2249999999999
    vertex 57.15 190.5 911.2249999999999
    vertex 57.15 177.79999999999998 911.2249999999999
  endloop
endfacet
facet normal 0.0 0.0 1.0
  outer loop
    vertex 57.15 190.5 911.2249999999999
    vertex 247.64999999999998 177.79999999999998 911.2249999999999
    vertex 247.64999999999998 190.5 911.2249999999999
  endloop
endfacet
facet normal -1.0 0.0 0.0
  outer loop
    vertex 57.15 190.5 911.2249999999999
    vertex 57.15 177.79999999999998 417.3713144898403
    vertex 57.15 177.79999999999998 911.2249999999999
  endloop
endfacet
facet normal -1.0 0.0 0.0
  outer loop
    vertex 57.15 177.79999999999998 417.3713144898403
    vertex 57.15 190.5 911.2249999999999
    vertex 57.15 190.5 417.3713144898403
  endloop
endfacet
facet normal 0.0 1.0 0.0
  outer loop
    vertex 57.15 292.09999999999997 911.2249999999999
    vertex 247.64999999999998 292.09999999999997 417.3713144898403
    vertex 57.15 292.09999999999997 417.3713144898403
  endloop
endfacet
facet normal 0.0 1.0 0.0
  outer loop
    vertex 247.64999999999998 292.09999999999997 417.3713144898403
    vertex 57.15 292.09999999999997 911.2249999999999
    vertex 247.64999999999998 292.09999999999997 911.2249999999999
  endloop
endfacet
facet normal 0.0 -1.0 0.0
  outer loop
    vertex 247.64999999999998 177.79999999999998 911.2249999999999
    vertex 57.15 177.79999999999998 417.3713144898403
    vertex 247.64999999999998 177.79999999999998 417.3713144898403
  endloop
endfacet
facet normal 0.0 -1.0 0.0
  outer loop
    vertex 57.15 177.79999999999998 417.3713144898403
    vertex 247.64999999999998 177.79999999999998 911.2249999999999
    vertex 57.15 177.79999999999998 911.2249999999999
  endloop
endfacet
facet normal 1.0 0.0 0.0
  outer loop
    vertex 247.64999999999998 292.09999999999997 417.3713144898403
    vertex 247.64999999999998 279.4 911.2249999999999
    vertex 247.64999999999998 279.4 417.3713144898403
  endloop
endfacet
facet normal 1.0 0.0 0.0
  outer loop
    vertex 247.64999999999998 279.4 911.2249999999999
    vertex 247.64999999999998 292.09999999999997 417.3713144898403
    vertex 247.64999999999998 292.09999999999997 911.2249999999999
  endloop
endfacet
facet normal 0.0 0.0 1.0
  outer loop
    vertex 247.64999999999998 279.4 911.2249999999999
    vertex 57.15 292.09999999999997 911.2249999999999
    vertex 57.15 279.4 911.2249999999999
  endloop
endfacet
facet normal 0.0 0.0 1.0
  outer loop
    vertex 57.15 292.09999999999997 911.2249999999999
    vertex 247.64999999999998 279.4 911.2249999999999
    vertex 247.64999999999998 292.09999999999997 911.2249999999999
  endloop
endfacet
facet normal -1.0 0.0 0.0
  outer loop
    vertex 57.15 292.09999999999997 911.2249999999999
    vertex 57.15 279.4 417.3713144898403
    vertex 57.15 279.4 911.2249999999999
  endloop
endfacet
facet normal -1.0 0.0 0.0
  outer loop
    vertex 57.15 279.4 417.3713144898403
    vertex 57.15 292.09999999999997 911.2249999999999
    vertex 57.15 292.09999999999997 417.3713144898403
  endloop
endfacet
facet normal 0.0 1.0 0.0
  outer loop
    vertex 57.15 546.1 911.2249999999999
    vertex 247.64999999999998 546.1 417.3713144898403
    vertex 57.15 546.1 417.3713144898403
  endloop
endfacet
facet normal 0.0 1.0 0.0
  outer loop
    vertex 247.64999999999998 546.1 417.3713144898403
    vertex 57.15 546.1 911.2249999999999
    vertex 247.64999999999998 546.1 911.2249999999999
  endloop
endfacet
facet normal -1.0 0.0 0.0
  outer loop
    vertex 57.15 215.89999999999998 911.2249999999999
    vertex 57.15 203.2 417.3713144898403
    vertex 57.15 203.2 911.2249999999999
  endloop
endfacet
facet normal -1.0 0.0 0.0
  outer loop
    vertex 57.15 203.2 417.3713144898403
    vertex 57.15 215.89999999999998 911.2249999999999
    vertex 57.15 215.89999999999998 417.3713144898403
  endloop
endfacet
facet normal 0.0 0.0 1.0
  outer loop
    vertex 247.64999999999998 203.2 911.2249999999999
    vertex 57.15 215.89999999999998 911.2249999999999
    vertex 57.15 203.2 911.2249999999999
  endloop
endfacet
facet normal 0.0 0.0 1.0
  outer loop
    vertex 57.15 215.89999999999998 911.2249999999999
    vertex 247.64999999999998 203.2 911.2249999999999
    vertex 247.64999999999998 215.89999999999998 911.2249999999999
  endloop
endfacet
facet normal 0.0 -1.0 0.0
  outer loop
    vertex 247.64999999999998 330.2 911.2249999999999
    vertex 57.15 330.2 417.3713144898403
    vertex 247.64999999999998 330.2 417.3713144898403
  endloop
endfacet
facet normal 0.0 -1.0 0.0
  outer loop
    vertex 57.15 330.2 417.3713144898403
    vertex 247.64999999999998 330.2 911.2249999999999
    vertex 57.15 330.2 911.2249999999999
  endloop
endfacet
facet normal 0.0 1.0 0.0
  outer loop
    vertex 57.15 215.89999999999998 911.2249999999999
    vertex 247.64999999999998 215.89999999999998 417.3713144898403
    vertex 57.15 215.89999999999998 417.3713144898403
  endloop
endfacet
facet normal 0.0 1.0 0.0
  outer loop
    vertex 247.64999999999998 215.89999999999998 417.3713144898403
    vertex 57.15 215.89999999999998 911.2249999999999
    vertex 247.64999999999998 215.89999999999998 911.2249999999999
  endloop
endfacet
facet normal -1.0 0.0 0.0
  outer loop
    vertex 57.15 342.9 911.2249999999999
    vertex 57.15 330.2 417.3713144898403
    vertex 57.15 330.2 911.2249999999999
  endloop
endfacet
facet normal -1.0 0.0 0.0
  outer loop
    vertex 57.15 330.2 417.3713144898403
    vertex 57.15 342.9 911.2249999999999
    vertex 57.15 342.9 417.3713144898403
  endloop
endfacet
facet normal 0.0 0.0 1.0
  outer loop
    vertex 247.64999999999998 330.2 911.2249999999999
    vertex 57.15 342.9 911.2249999999999
    vertex 57.15 330.2 911.2249999999999
  endloop
endfacet
facet normal 0.0 0.0 1.0
  outer loop
    vertex 57.15 342.9 911.2249999999999
    vertex 247.64999999999998 330.2 911.2249999999999
    vertex 247.64999999999998 342.9 911.2249999999999
  endloop
endfacet
facet normal 1.0 0.0 0.0
  outer loop
    vertex 247.64999999999998 342.9 417.3713144898403
    vertex 247.64999999999998 330.2 911.2249999999999
    vertex 247.64999999999998 330.2 417.3713144898403
  endloop
endfacet
facet normal 1.0 0.0 0.0
  outer loop
    vertex 247.64999999999998 330.2 911.2249999999999
    vertex 247.64999999999998 342.9 417.3713144898403
    vertex 247.64999999999998 342.9 911.2249999999999
  endloop
endfacet
facet normal 1.0 0.0 0.0
  outer loop
    vertex 247.64999999999998 596.9 417.3713144898403
    vertex 247.64999999999998 584.1999999999999 911.2249999999999
    vertex 247.64999999999998 584.1999999999999 417.3713144898403
  endloop
endfacet
facet normal 1.0 0.0 0.0
  outer loop
    vertex 247.64999999999998 584.1999999999999 911.2249999999999
    vertex 247.64999999999998 596.9 417.3713144898403
    vertex 247.64999999999998 596.9 911.2249999999999
  endloop
endfacet
facet normal 0.0 0.0 1.0
  outer loop
    vertex 247.64999999999998 584.1999999999999 911.2249999999999
    vertex 57.15 596.9 911.2249999999999
    vertex 57.15 584.1999999999999 911.2249999999999
  endloop
endfacet
facet normal 0.0 0.0 1.0
  outer loop
    vertex 57.15 596.9 911.2249999999999
    vertex 247.64999999999998 584.1999999999999 911.2249999999999
    vertex 247.64999999999998 596.9 911.2249999999999
  endloop
endfacet
facet normal -1.0 0.0 0.0
  outer loop
    vertex 57.15 596.9 911.2249999999999
    vertex 57.15 584.1999999999999 417.3713144898403
    vertex 57.15 584.1999999999999 911.2249999999999
  endloop
endfacet
facet normal -1.0 0.0 0.0
  outer loop
    vertex 57.15 584.1999999999999 417.3713144898403
    vertex 57.15 596.9 911.2249999999999
    vertex 57.15 596.9 417.3713144898403
  endloop
endfacet
facet normal 0.0 -1.0 0.0
  outer loop
    vertex 247.64999999999998 584.1999999999999 911.2249999999999
    vertex 57.15 584.1999999999999 417.3713144898403
    vertex 247.64999999999998 584.1999999999999 417.3713144898403
  endloop
endfacet
facet normal 0.0 -1.0 0.0
  outer loop
    vertex 57.15 584.1999999999999 417.3713144898403
    vertex 247.64999999999998 584.1999999999999 911.2249999999999
    vertex 57.15 584.1999999999999 911.2249999999999
  endloop
endfacet
facet normal 0.0 1.0 0.0
  outer loop
    vertex 57.15 342.9 911.2249999999999
    vertex 247.64999999999998 342.9 417.3713144898403
    vertex 57.15 342.9 417.3713144898403
  endloop
endfacet
facet normal 0.0 1.0 0.0
  outer loop
    vertex 247.64999999999998 342.9 417.3713144898403
    vertex 57.15 342.9 911.2249999999999
    vertex 247.64999999999998 342.9 911.2249999999999
  endloop
endfacet
facet normal 1.0 0.0 0.0
  outer loop
    vertex 247.64999999999998 215.89999999999998 417.3713144898403
    vertex 247.64999999999998 203.2 911.2249999999999
    vertex 247.64999999999998 203.2 417.3713144898403
  endloop
endfacet
facet normal 1.0 0.0 0.0
  outer loop
    vertex 247.64999999999998 203.2 911.2249999999999
    vertex 247.64999999999998 215.89999999999998 417.3713144898403
    vertex 247.64999999999998 215.89999999999998 911.2249999999999
  endloop
endfacet
facet normal 0.0 -1.0 0.0
  outer loop
    vertex 247.64999999999998 406.4 911.2249999999999
    vertex 57.15 406.4 417.3713144898403
    vertex 247.64999999999998 406.4 417.3713144898403
  endloop
endfacet
facet normal 0.0 -1.0 0.0
  outer loop
    vertex 57.15 406.4 417.3713144898403
    vertex 247.64999999999998 406.4 911.2249999999999
    vertex 57.15 406.4 911.2249999999999
  endloop
endfacet
facet normal 0.0 1.0 0.0
  outer loop
    vertex 57.15 596.9 911.2249999999999
    vertex 247.64999999999998 596.9 417.3713144898403
    vertex 57.15 596.9 417.3713144898403
  endloop
endfacet
facet normal 0.0 1.0 0.0
  outer loop
    vertex 247.64999999999998 596.9 417.3713144898403
    vertex 57.15 596.9 911.2249999999999
    vertex 247.64999999999998 596.9 911.2249999999999
  endloop
endfacet
facet normal -1.0 0.0 0.0
  outer loop
    vertex 57.15 419.09999999999997 911.2249999999999
    vertex 57.15 406.4 417.3713144898403
    vertex 57.15 406.4 911.2249999999999
  endloop
endfacet
facet normal -1.0 0.0 0.0
  outer loop
    vertex 57.15 406.4 417.3713144898403
    vertex 57.15 419.09999999999997 911.2249999999999
    vertex 57.15 419.09999999999997 417.3713144898403
  endloop
endfacet
facet normal 0.0 0.0 1.0
  outer loop
    vertex 247.64999999999998 406.4 911.2249999999999
    vertex 57.15 419.09999999999997 911.2249999999999
    vertex 57.15 406.4 911.2249999999999
  endloop
endfacet
facet normal 0.0 0.0 1.0
  outer loop
    vertex 57.15 419.09999999999997 911.2249999999999
    vertex 247.64999999999998 406.4 911.2249999999999
    vertex 247.64999999999998 419.09999999999997 911.2249999999999
  endloop
endfacet
facet normal 1.0 0.0 0.0
  outer loop
    vertex 247.64999999999998 419.09999999999997 417.3713144898403
    vertex 247.64999999999998 406.4 911.2249999999999
    vertex 247.64999999999998 406.4 417.3713144898403
  endloop
endfacet
facet normal 1.0 0.0 0.0
  outer loop
    vertex 247.64999999999998 406.4 911.2249999999999
    vertex 247.64999999999998 419.09999999999997 417.3713144898403
    vertex 247.64999999999998 419.09999999999997 911.2249999999999
  endloop
endfacet
facet normal 0.0 -1.0 0.0
  outer loop
    vertex 247.64999999999998 254.0 911.2249999999999
    vertex 57.15 254.0 417.3713144898403
    vertex 247.64999999999998 254.0 417.3713144898403
  endloop
endfacet
facet normal 0.0 -1.0 0.0
  outer loop
    vertex 57.15 254.0 417.3713144898403
    vertex 247.64999999999998 254.0 911.2249999999999
    vertex 57.15 254.0 911.2249999999999
  endloop
endfacet
facet normal 0.0 1.0 0.0
  outer loop
    vertex 57.15 419.09999999999997 911.2249999999999
    vertex 247.64999999999998 419.09999999999997 417.3713144898403
    vertex 57.15 419.09999999999997 417.3713144898403
  endloop
endfacet
facet normal 0.0 1.0 0.0
  outer loop
    vertex 247.64999999999998 419.09999999999997 417.3713144898403
    vertex 57.15 419.09999999999997 911.2249999999999
    vertex 247.64999999999998 419.09999999999997 911.2249999999999
  endloop
endfacet
facet normal -1.0 0.0 0.0
  outer loop
    vertex 57.15 266.7 911.2249999999999
    vertex 57.15 254.0 417.3713144898403
    vertex 57.15 254.0 911.2249999999999
  endloop
endfacet
facet normal -1.0 0.0 0.0
  outer loop
    vertex 57.15 254.0 417.3713144898403
    vertex 57.15 266.7 911.2249999999999
    vertex 57.15 266.7 417.3713144898403
  endloop
endfacet
facet normal 0.0 0.0 1.0
  outer loop
    vertex 247.64999999999998 254.0 911.2249999999999
    vertex 57.15 266.7 911.2249999999999
    vertex 57.15 254.0 911.2249999999999
  endloop
endfacet
facet normal 0.0 0.0 1.0
  outer loop
    vertex 57.15 266.7 911.2249999999999
    vertex 247.64999999999998 254.0 911.2249999999999
    vertex 247.64999999999998 266.7 911.2249999999999
  endloop
endfacet
facet normal 1.0 0.0 0.0
  outer loop
    vertex 247.64999999999998 266.7 417.3713144898403
    vertex 247.64999999999998 254.0 911.2249999999999
    vertex 247.64999999999998 254.0 417.3713144898403
  endloop
endfacet
facet normal 1.0 0.0 0.0
  outer loop
    vertex 247.64999999999998 254.0 911.2249999999999
    vertex 247.64999999999998 266.7 417.3713144898403
    vertex 247.64999999999998 266.7 911.2249999999999
  endloop
endfacet
facet normal 0.0 -1.0 0.0
  outer loop
    vertex 247.64999999999998 482.59999999999997 911.2249999999999
    vertex 57.15 482.59999999999997 417.3713144898403
    vertex 247.64999999999998 482.59999999999997 417.3713144898403
  endloop
endfacet
facet normal 0.0 -1.0 0.0
  outer loop
    vertex 57.15 482.59999999999997 417.3713144898403
    vertex 247.64999999999998 482.59999999999997 911.2249999999999
    vertex 57.15 482.59999999999997 911.2249999999999
  endloop
endfacet
facet normal 0.0 1.0 0.0
  outer loop
    vertex 57.15 266.7 911.2249999999999
    vertex 247.64999999999998 266.7 417.3713144898403
    vertex 57.15 266.7 417.3713144898403
  endloop
endfacet
facet normal 0.0 1.0 0.0
  outer loop
    vertex 247.64999999999998 266.7 417.3713144898403
    vertex 57.15 266.7 911.2249999999999
    vertex 247.64999999999998 266.7 911.2249999999999
  endloop
endfacet
facet normal -1.0 0.0 0.0
  outer loop
    vertex 57.15 495.29999999999995 911.2249999999999
    vertex 57.15 482.59999999999997 417.3713144898403
    vertex 57.15 482.59999999999997 911.2249999999999
  endloop
endfacet
facet normal -1.0 0.0 0.0
  outer loop
    vertex 57.15 482.59999999999997 417.3713144898403
    vertex 57.15 495.29999999999995 911.2249999999999
    vertex 57.15 495.29999999999995 417.3713144898403
  endloop
endfacet
facet normal 0.0 0.0 1.0
  outer loop
    vertex 247.64999999999998 482.59999999999997 911.2249999999999
    vertex 57.15 495.29999999999995 911.2249999999999
    vertex 57.15 482.59999999999997 911.2249999999999
  endloop
endfacet
facet normal 0.0 0.0 1.0
  outer loop
    vertex 57.15 495.29999999999995 911.2249999999999
    vertex 247.64999999999998 482.59999999999997 911.2249999999999
    vertex 247.64999999999998 495.29999999999995 911.2249999999999
  endloop
endfacet
facet normal 1.0 0.0 0.0
  outer loop
    vertex 247.64999999999998 495.29999999999995 417.3713144898403
    vertex 247.64999999999998 482.59999999999997 911.2249999999999
    vertex 247.64999999999998 482.59999999999997 417.3713144898403
  endloop
endfacet
facet normal 1.0 0.0 0.0
  outer loop
    vertex 247.64999999999998 482.59999999999997 911.2249999999999
    vertex 247.64999999999998 495.29999999999995 417.3713144898403
    vertex 247.64999999999998 495.29999999999995 911.2249999999999
  endloop
endfacet
facet normal 1.0 0.0 0.0
  outer loop
    vertex 247.64999999999998 12.7 417.3713144898403
    vertex 247.64999999999998 0.0 911.2249999999999
    vertex 247.64999999999998 0.0 417.3713144898403
  endloop
endfacet
facet normal 1.0 0.0 0.0
  outer loop
    vertex 247.64999999999998 0.0 911.2249999999999
    vertex 247.64999999999998 12.7 417.3713144898403
    vertex 247.64999999999998 12.7 911.2249999999999
  endloop
endfacet
facet normal 0.0 0.0 1.0
  outer loop
    vertex 247.64999999999998 0.0 911.2249999999999
    vertex 57.15 12.7 911.2249999999999
    vertex 57.15 0.0 911.2249999999999
  endloop
endfacet
facet normal 0.0 0.0 1.0
  outer loop
    vertex 57.15 12.7 911.2249999999999
    vertex 247.64999999999998 0.0 911.2249999999999
    vertex 247.64999999999998 12.7 911.2249999999999
  endloop
endfacet
facet normal -1.0 0.0 0.0
  outer loop
    vertex 57.15 12.7 911.2249999999999
    vertex 57.15 0.0 417.3713144898403
    vertex 57.15 0.0 911.2249999999999
  endloop
endfacet
facet normal -1.0 0.0 0.0
  outer loop
    vertex 57.15 0.0 417.3713144898403
    vertex 57.15 12.7 911.2249999999999
    vertex 57.15 12.7 417.3713144898403
  endloop
endfacet
facet normal 0.0 -1.0 0.0
  outer loop
    vertex 247.64999999999998 0.0 911.2249999999999
    vertex 57.15 0.0 417.3713144898403
    vertex 247.64999999999998 0.0 417.3713144898403
  endloop
endfacet
facet normal 0.0 -1.0 0.0
  outer loop
    vertex 57.15 0.0 417.3713144898403
    vertex 247.64999999999998 0.0 911.2249999999999
    vertex 57.15 0.0 911.2249999999999
  endloop
endfacet
facet normal 0.0 1.0 0.0
  outer loop
    vertex 57.15 520.6999999999999 911.2249999999999
    vertex 247.64999999999998 520.6999999999999 417.3713144898403
    vertex 57.15 520.6999999999999 417.3713144898403
  endloop
endfacet
facet normal 0.0 1.0 0.0
  outer loop
    vertex 247.64999999999998 520.6999999999999 417.3713144898403
    vertex 57.15 520.6999999999999 911.2249999999999
    vertex 247.64999999999998 520.6999999999999 911.2249999999999
  endloop
endfacet
facet normal 1.0 0.0 0.0
  outer loop
    vertex 247.64999999999998 520.6999999999999 417.3713144898403
    vertex 247.64999999999998 508.0 911.2249999999999
    vertex 247.64999999999998 508.0 417.3713144898403
  endloop
endfacet
facet normal 1.0 0.0 0.0
  outer loop
    vertex 247.64999999999998 508.0 911.2249999999999
    vertex 247.64999999999998 520.6999999999999 417.3713144898403
    vertex 247.64999999999998 520.6999999999999 911.2249999999999
  endloop
endfacet
facet normal -1.0 0.0 0.0
  outer loop
    vertex 57.15 520.6999999999999 911.2249999999999
    vertex 57.15 508.0 417.3713144898403
    vertex 57.15 508.0 911.2249999999999
  endloop
endfacet
facet normal -1.0 0.0 0.0
  outer loop
    vertex 57.15 508.0 417.3713144898403
    vertex 57.15 520.6999999999999 911.2249999999999
    vertex 57.15 520.6999999999999 417.3713144898403
  endloop
endfacet
facet normal 0.0 1.0 0.0
  outer loop
    vertex 57.15 469.9 911.2249999999999
    vertex 247.64999999999998 469.9 417.3713144898403
    vertex 57.15 469.9 417.3713144898403
  endloop
endfacet
facet normal 0.0 1.0 0.0
  outer loop
    vertex 247.64999999999998 469.9 417.3713144898403
    vertex 57.15 469.9 911.2249999999999
    vertex 247.64999999999998 469.9 911.2249999999999
  endloop
endfacet
facet normal 0.0 0.0 1.0
  outer loop
    vertex 247.64999999999998 508.0 911.2249999999999
    vertex 57.15 520.6999999999999 911.2249999999999
    vertex 57.15 508.0 911.2249999999999
  endloop
endfacet
facet normal 0.0 0.0 1.0
  outer loop
    vertex 57.15 520.6999999999999 911.2249999999999
    vertex 247.64999999999998 508.0 911.2249999999999
    vertex 247.64999999999998 520.6999999999999 911.2249999999999
  endloop
endfacet
facet normal 0.0 -1.0 0.0
  outer loop
    vertex 247.64999999999998 508.0 911.2249999999999
    vertex 57.15 508.0 417.3713144898403
    vertex 247.64999999999998 508.0 417.3713144898403
  endloop
endfacet
facet normal 0.0 -1.0 0.0
  outer loop
    vertex 57.15 508.0 417.3713144898403
    vertex 247.64999999999998 508.0 911.2249999999999
    vertex 57.15 508.0 911.2249999999999
  endloop
endfacet
facet normal 0.0 0.0 1.0
  outer loop
    vertex 247.64999999999998 381.0 911.2249999999999
    vertex 57.15 393.7 911.2249999999999
    vertex 57.15 381.0 911.2249999999999
  endloop
endfacet
facet normal 0.0 0.0 1.0
  outer loop
    vertex 57.15 393.7 911.2249999999999
    vertex 247.64999999999998 381.0 911.2249999999999
    vertex 247.64999999999998 393.7 911.2249999999999
  endloop
endfacet
facet normal -1.0 0.0 0.0
  outer loop
    vertex 57.15 393.7 911.2249999999999
    vertex 57.15 381.0 417.3713144898403
    vertex 57.15 381.0 911.2249999999999
  endloop
endfacet
facet normal -1.0 0.0 0.0
  outer loop
    vertex 57.15 381.0 417.3713144898403
    vertex 57.15 393.7 911.2249999999999
    vertex 57.15 393.7 417.3713144898403
  endloop
endfacet
facet normal 0.0 1.0 0.0
  outer loop
    vertex 57.15 114.3 911.2249999999999
    vertex 247.64999999999998 114.3 417.3713144898403
    vertex 57.15 114.3 417.3713144898403
  endloop
endfacet
facet normal 0.0 1.0 0.0
  outer loop
    vertex 247.64999999999998 114.3 417.3713144898403
    vertex 57.15 114.3 911.2249999999999
    vertex 247.64999999999998 114.3 911.2249999999999
  endloop
endfacet
facet normal 0.0 -1.0 0.0
  outer loop
    vertex 247.64999999999998 381.0 911.2249999999999
    vertex 57.15 381.0 417.3713144898403
    vertex 247.64999999999998 381.0 417.3713144898403
  endloop
endfacet
facet normal 0.0 -1.0 0.0
  outer loop
    vertex 57.15 381.0 417.3713144898403
    vertex 247.64999999999998 381.0 911.2249999999999
    vertex 57.15 381.0 911.2249999999999
  endloop
endfacet
facet normal 1.0 0.0 0.0
  outer loop
    vertex 247.64999999999998 469.9 417.3713144898403
    vertex 247.64999999999998 457.2 911.2249999999999
    vertex 247.64999999999998 457.2 417.3713144898403
  endloop
endfacet
facet normal 1.0 0.0 0.0
  outer loop
    vertex 247.64999999999998 457.2 911.2249999999999
    vertex 247.64999999999998 469.9 417.3713144898403
    vertex 247.64999999999998 469.9 911.2249999999999
  endloop
endfacet
facet normal 0.0 -1.0 0.0
  outer loop
    vertex 247.64999999999998 101.6 911.2249999999999
    vertex 57.15 101.6 417.3713144898403
    vertex 247.64999999999998 101.6 417.3713144898403
  endloop
endfacet
facet normal 0.0 -1.0 0.0
  outer loop
    vertex 57.15 101.6 417.3713144898403
    vertex 247.64999999999998 101.6 911.2249999999999
    vertex 57.15 101.6 911.2249999999999
  endloop
endfacet
facet normal 0.0 0.0 1.0
  outer loop
    vertex 247.64999999999998 457.2 911.2249999999999
    vertex 57.15 469.9 911.2249999999999
    vertex 57.15 457.2 911.2249999999999
  endloop
endfacet
facet normal 0.0 0.0 1.0
  outer loop
    vertex 57.15 469.9 911.2249999999999
    vertex 247.64999999999998 457.2 911.2249999999999
    vertex 247.64999999999998 469.9 911.2249999999999
  endloop
endfacet
facet normal 0.0 1.0 0.0
  outer loop
    vertex 57.15 495.29999999999995 911.2249999999999
    vertex 247.64999999999998 495.29999999999995 417.3713144898403
    vertex 57.15 495.29999999999995 417.3713144898403
  endloop
endfacet
facet normal 0.0 1.0 0.0
  outer loop
    vertex 247.64999999999998 495.29999999999995 417.3713144898403
    vertex 57.15 495.29999999999995 911.2249999999999
    vertex 247.64999999999998 495.29999999999995 911.2249999999999
  endloop
endfacet
facet normal -1.0 0.0 0.0
  outer loop
    vertex 57.15 469.9 911.2249999999999
    vertex 57.15 457.2 417.3713144898403
    vertex 57.15 457.2 911.2249999999999
  endloop
endfacet
facet normal -1.0 0.0 0.0
  outer loop
    vertex 57.15 457.2 417.3713144898403
    vertex 57.15 469.9 911.2249999999999
    vertex 57.15 469.9 417.3713144898403
  endloop
endfacet
facet normal -1.0 0.0 0.0
  outer loop
    vertex 57.15 114.3 911.2249999999999
    vertex 57.15 101.6 417.3713144898403
    vertex 57.15 101.6 911.2249999999999
  endloop
endfacet
facet normal -1.0 0.0 0.0
  outer loop
    vertex 57.15 101.6 417.3713144898403
    vertex 57.15 114.3 911.2249999999999
    vertex 57.15 114.3 417.3713144898403
  endloop
endfacet
facet normal 0.0 1.0 0.0
  outer loop
    vertex 57.15 393.7 911.2249999999999
    vertex 247.64999999999998 393.7 417.3713144898403
    vertex 57.15 393.7 417.3713144898403
  endloop
endfacet
facet normal 0.0 1.0 0.0
  outer loop
    vertex 247.64999999999998 393.7 417.3713144898403
    vertex 57.15 393.7 911.2249999999999
    vertex 247.64999999999998 393.7 911.2249999999999
  endloop
endfacet
facet normal 0.0 0.0 1.0
  outer loop
    vertex 247.64999999999998 101.6 911.2249999999999
    vertex 57.15 114.3 911.2249999999999
    vertex 57.15 101.6 911.2249999999999
  endloop
endfacet
facet normal 0.0 0.0 1.0
  outer loop
    vertex 57.15 114.3 911.2249999999999
    vertex 247.64999999999998 101.6 911.2249999999999
    vertex 247.64999999999998 114.3 911.2249999999999
  endloop
endfacet
facet normal 0.0 -1.0 0.0
  outer loop
    vertex 247.64999999999998 457.2 911.2249999999999
    vertex 57.15 457.2 417.3713144898403
    vertex 247.64999999999998 457.2 417.3713144898403
  endloop
endfacet
facet normal 0.0 -1.0 0.0
  outer loop
    vertex 57.15 457.2 417.3713144898403
    vertex 247.64999999999998 457.2 911.2249999999999
    vertex 57.15 457.2 911.2249999999999
  endloop
endfacet
facet normal 1.0 0.0 0.0
  outer loop
    vertex 247.64999999999998 393.7 417.3713144898403
    vertex 247.64999999999998 381.0 911.2249999999999
    vertex 247.64999999999998 381.0 417.3713144898403
  endloop
endfacet
facet normal 1.0 0.0 0.0
  outer loop
    vertex 247.64999999999998 381.0 911.2249999999999
    vertex 247.64999999999998 393.7 417.3713144898403
    vertex 247.64999999999998 393.7 911.2249999999999
  endloop
endfacet
facet normal 0.0 1.0 0.0
  outer loop
    vertex 57.15 12.7 911.2249999999999
    vertex 247.64999999999998 12.7 417.3713144898403
    vertex 57.15 12.7 417.3713144898403
  endloop
endfacet
facet normal 0.0 1.0 0.0
  outer loop
    vertex 247.64999999999998 12.7 417.3713144898403
    vertex 57.15 12.7 911.2249999999999
    vertex 247.64999999999998 12.7 911.2249999999999
  endloop
endfacet
facet normal 1.0 0.0 0.0
  outer loop
    vertex 247.64999999999998 114.3 417.3713144898403
    vertex 247.64999999999998 101.6 911.2249999999999
    vertex 247.64999999999998 101.6 417.3713144898403
  endloop
endfacet
facet normal 1.0 0.0 0.0
  outer loop
    vertex 247.64999999999998 101.6 911.2249999999999
    vertex 247.64999999999998 114.3 417.3713144898403
    vertex 247.64999999999998 114.3 911.2249999999999
  endloop
endfacet
facet normal 0.0 1.0 0.0
  outer loop
    vertex 57.15 -12.7 911.2249999999999
    vertex 247.64999999999998 -12.7 417.3713144898403
    vertex 57.15 -12.7 417.3713144898403
  endloop
endfacet
facet normal 0.0 1.0 0.0
  outer loop
    vertex 247.64999999999998 -12.7 417.3713144898403
    vertex 57.15 -12.7 911.2249999999999
    vertex 247.64999999999998 -12.7 911.2249999999999
  endloop
endfacet
endsolid pdp11-2
