solid pdp11-2
facet normal 1.0 0.0 0.0
  outer loop
    vertex 469.9 -67.72491514005353 1473.1999999999998
    vertex 469.9 -93.12491514005352 1749.425
    vertex 469.9 -93.12491514005352 1473.1999999999998
  endloop
endfacet
facet normal 1.0 0.0 0.0
  outer loop
    vertex 469.9 -93.12491514005352 1749.425
    vertex 469.9 -67.72491514005353 1473.1999999999998
    vertex 469.9 -67.72491514005353 1749.425
  endloop
endfacet
facet normal 0.0 0.0 1.0
  outer loop
    vertex 450.84999999999997 -55.0249151400535 1549.3999999999999
    vertex 431.79999999999995 577.85 1549.3999999999999
    vertex 431.79999999999995 -55.0249151400535 1549.3999999999999
  endloop
endfacet
facet normal 0.0 0.0 1.0
  outer loop
    vertex 63.5 -55.0249151400535 1549.3999999999999
    vertex 44.449999999999996 596.9 1549.3999999999999
    vertex 44.449999999999996 -55.0249151400535 1549.3999999999999
  endloop
endfacet
facet normal 0.0 0.0 1.0
  outer loop
    vertex 44.449999999999996 596.9 1549.3999999999999
    vertex 63.5 -55.0249151400535 1549.3999999999999
    vertex 63.5 577.85 1549.3999999999999
  endloop
endfacet
facet normal 0.0 0.0 1.0
  outer loop
    vertex 44.449999999999996 596.9 1549.3999999999999
    vertex 63.5 577.85 1549.3999999999999
    vertex 450.84999999999997 596.9 1549.3999999999999
  endloop
endfacet
facet normal 0.0 0.0 1.0
  outer loop
    vertex 450.84999999999997 596.9 1549.3999999999999
    vertex 63.5 577.85 1549.3999999999999
    vertex 431.79999999999995 577.85 1549.3999999999999
  endloop
endfacet
facet normal 0.0 0.0 1.0
  outer loop
    vertex 450.84999999999997 596.9 1549.3999999999999
    vertex 431.79999999999995 577.85 1549.3999999999999
    vertex 450.84999999999997 -55.0249151400535 1549.3999999999999
  endloop
endfacet
facet normal -1.0 0.0 0.0
  outer loop
    vertex 25.4 -67.72491514005353 1749.425
    vertex 25.4 -93.12491514005352 1473.1999999999998
    vertex 25.4 -93.12491514005352 1749.425
  endloop
endfacet
facet normal -1.0 0.0 0.0
  outer loop
    vertex 25.4 -93.12491514005352 1473.1999999999998
    vertex 25.4 -67.72491514005353 1749.425
    vertex 25.4 -67.72491514005353 1473.1999999999998
  endloop
endfacet
facet normal 0.0 -1.0 0.0
  outer loop
    vertex 431.79999999999995 577.85 1549.3999999999999
    vertex 63.5 577.85 1473.1999999999998
    vertex 431.79999999999995 577.85 1473.1999999999998
  endloop
endfacet
facet normal 0.0 -1.0 0.0
  outer loop
    vertex 63.5 577.85 1473.1999999999998
    vertex 431.79999999999995 577.85 1549.3999999999999
    vertex 63.5 577.85 1549.3999999999999
  endloop
endfacet
facet normal 0.0 0.0 -1.0
  outer loop
    vertex 44.449999999999996 596.9 1473.1999999999998
    vertex 63.5 577.85 1473.1999999999998
    vertex 44.449999999999996 -55.024915140053494 1473.1999999999998
  endloop
endfacet
facet normal 0.0 0.0 -1.0
  outer loop
    vertex 63.5 577.85 1473.1999999999998
    vertex 44.449999999999996 596.9 1473.1999999999998
    vertex 450.84999999999997 596.9 1473.1999999999998
  endloop
endfacet
facet normal 0.0 0.0 -1.0
  outer loop
    vertex 63.5 577.85 1473.1999999999998
    vertex 450.84999999999997 596.9 1473.1999999999998
    vertex 431.79999999999995 577.85 1473.1999999999998
  endloop
endfacet
facet normal 0.0 0.0 -1.0
  outer loop
    vertex 431.79999999999995 577.85 1473.1999999999998
    vertex 450.84999999999997 596.9 1473.1999999999998
    vertex 431.79999999999995 -55.0249151400535 1473.1999999999998
  endloop
endfacet
facet normal 0.0 0.0 -1.0
  outer loop
    vertex 488.95 -55.0249151400535 1473.1999999999998
    vertex 469.9 -67.72491514005353 1473.1999999999998
    vertex 450.84999999999997 -55.0249151400535 1473.1999999999998
  endloop
endfacet
facet normal 0.0 0.0 -1.0
  outer loop
    vertex 469.9 -67.72491514005353 1473.1999999999998
    vertex 488.95 -55.0249151400535 1473.1999999999998
    vertex 488.95 -67.7249151400535 1473.1999999999998
  endloop
endfacet
facet normal 0.0 0.0 -1.0
  outer loop
    vertex 44.449999999999996 -55.024915140053494 1473.1999999999998
    vertex 6.35 -67.7249151400535 1473.1999999999998
    vertex 6.35 -55.0249151400535 1473.1999999999998
  endloop
endfacet
facet normal 0.0 0.0 -1.0
  outer loop
    vertex 6.35 -67.7249151400535 1473.1999999999998
    vertex 44.449999999999996 -55.024915140053494 1473.1999999999998
    vertex 25.4 -67.72491514005353 1473.1999999999998
  endloop
endfacet
facet normal 0.0 0.0 -1.0
  outer loop
    vertex 25.4 -67.72491514005353 1473.1999999999998
    vertex 44.449999999999996 -55.024915140053494 1473.1999999999998
    vertex 25.4 -93.12491514005352 1473.1999999999998
  endloop
endfacet
facet normal 0.0 0.0 -1.0
  outer loop
    vertex 25.4 -93.12491514005352 1473.1999999999998
    vertex 44.449999999999996 -55.024915140053494 1473.1999999999998
    vertex 469.9 -93.12491514005352 1473.1999999999998
  endloop
endfacet
facet normal 0.0 0.0 -1.0
  outer loop
    vertex 469.9 -93.12491514005352 1473.1999999999998
    vertex 44.449999999999996 -55.024915140053494 1473.1999999999998
    vertex 63.5 -55.024915140053494 1473.1999999999998
  endloop
endfacet
facet normal 0.0 0.0 -1.0
  outer loop
    vertex 63.5 -55.024915140053494 1473.1999999999998
    vertex 44.449999999999996 -55.024915140053494 1473.1999999999998
    vertex 63.5 577.85 1473.1999999999998
  endloop
endfacet
facet normal 0.0 0.0 -1.0
  outer loop
    vertex 469.9 -93.12491514005352 1473.1999999999998
    vertex 63.5 -55.024915140053494 1473.1999999999998
    vertex 431.79999999999995 -55.0249151400535 1473.1999999999998
  endloop
endfacet
facet normal 0.0 0.0 -1.0
  outer loop
    vertex 469.9 -93.12491514005352 1473.1999999999998
    vertex 431.79999999999995 -55.0249151400535 1473.1999999999998
    vertex 450.84999999999997 -55.0249151400535 1473.1999999999998
  endloop
endfacet
facet normal 0.0 0.0 -1.0
  outer loop
    vertex 450.84999999999997 -55.0249151400535 1473.1999999999998
    vertex 431.79999999999995 -55.0249151400535 1473.1999999999998
    vertex 450.84999999999997 596.9 1473.1999999999998
  endloop
endfacet
facet normal 0.0 0.0 -1.0
  outer loop
    vertex 469.9 -93.12491514005352 1473.1999999999998
    vertex 450.84999999999997 -55.0249151400535 1473.1999999999998
    vertex 469.9 -67.72491514005353 1473.1999999999998
  endloop
endfacet
facet normal -1.0 0.0 0.0
  outer loop
    vertex 44.449999999999996 596.9 1549.3999999999999
    vertex 44.449999999999996 -55.024915140053494 1473.1999999999998
    vertex 44.449999999999996 -55.0249151400535 1549.3999999999999
  endloop
endfacet
facet normal -1.0 0.0 0.0
  outer loop
    vertex 44.449999999999996 -55.024915140053494 1473.1999999999998
    vertex 44.449999999999996 596.9 1549.3999999999999
    vertex 44.449999999999996 596.9 1473.1999999999998
  endloop
endfacet
facet normal -1.0 0.0 0.0
  outer loop
    vertex 431.79999999999995 577.85 1549.3999999999999
    vertex 431.79999999999995 -55.0249151400535 1473.1999999999998
    vertex 431.79999999999995 -55.0249151400535 1549.3999999999999
  endloop
endfacet
facet normal -1.0 0.0 0.0
  outer loop
    vertex 431.79999999999995 -55.0249151400535 1473.1999999999998
    vertex 431.79999999999995 577.85 1549.3999999999999
    vertex 431.79999999999995 577.85 1473.1999999999998
  endloop
endfacet
facet normal 0.0 0.0 1.0
  outer loop
    vertex 469.9 -93.12491514005352 1749.425
    vertex 25.4 -67.72491514005353 1749.425
    vertex 25.4 -93.12491514005352 1749.425
  endloop
endfacet
facet normal 0.0 0.0 1.0
  outer loop
    vertex 25.4 -67.72491514005353 1749.425
    vertex 6.35 -55.0249151400535 1749.425
    vertex 6.35 -67.7249151400535 1749.425
  endloop
endfacet
facet normal 0.0 0.0 1.0
  outer loop
    vertex 6.35 -55.0249151400535 1749.425
    vertex 25.4 -67.72491514005353 1749.425
    vertex 488.95 -55.0249151400535 1749.425
  endloop
endfacet
facet normal 0.0 0.0 1.0
  outer loop
    vertex 488.95 -55.0249151400535 1749.425
    vertex 25.4 -67.72491514005353 1749.425
    vertex 469.9 -67.72491514005353 1749.425
  endloop
endfacet
facet normal 0.0 0.0 1.0
  outer loop
    vertex 469.9 -67.72491514005353 1749.425
    vertex 25.4 -67.72491514005353 1749.425
    vertex 469.9 -93.12491514005352 1749.425
  endloop
endfacet
facet normal 0.0 0.0 1.0
  outer loop
    vertex 488.95 -55.0249151400535 1749.425
    vertex 469.9 -67.72491514005353 1749.425
    vertex 488.95 -67.7249151400535 1749.425
  endloop
endfacet
facet normal -1.1842378929335002e-15 -1.0 0.0
  outer loop
    vertex 25.4 -67.72491514005353 1749.425
    vertex 6.35 -67.7249151400535 1473.1999999999998
    vertex 25.4 -67.72491514005353 1473.1999999999998
  endloop
endfacet
facet normal -1.1842378929335002e-15 -1.0 0.0
  outer loop
    vertex 6.35 -67.7249151400535 1473.1999999999998
    vertex 25.4 -67.72491514005353 1749.425
    vertex 6.35 -67.7249151400535 1749.425
  endloop
endfacet
facet normal -1.0 0.0 0.0
  outer loop
    vertex 6.35 -55.0249151400535 1749.425
    vertex 6.35 -67.7249151400535 1473.1999999999998
    vertex 6.35 -67.7249151400535 1749.425
  endloop
endfacet
facet normal -1.0 0.0 0.0
  outer loop
    vertex 6.35 -67.7249151400535 1473.1999999999998
    vertex 6.35 -55.0249151400535 1749.425
    vertex 6.35 -55.0249151400535 1473.1999999999998
  endloop
endfacet
facet normal 8.175038898665048e-18 1.0 1.4064583051466748e-17
  outer loop
    vertex 6.35 -55.0249151400535 1749.425
    vertex 44.449999999999996 -55.024915140053494 1473.1999999999998
    vertex 6.35 -55.0249151400535 1473.1999999999998
  endloop
endfacet
facet normal 8.175038898665048e-18 1.0 1.4064583051466748e-17
  outer loop
    vertex 44.449999999999996 -55.024915140053494 1473.1999999999998
    vertex 6.35 -55.0249151400535 1749.425
    vertex 44.449999999999996 -55.0249151400535 1549.3999999999999
  endloop
endfacet
facet normal 8.175038898665048e-18 1.0 1.4064583051466748e-17
  outer loop
    vertex 44.449999999999996 -55.0249151400535 1549.3999999999999
    vertex 6.35 -55.0249151400535 1749.425
    vertex 63.5 -55.0249151400535 1549.3999999999999
  endloop
endfacet
facet normal 8.175038898665048e-18 1.0 1.4064583051466748e-17
  outer loop
    vertex 63.5 -55.0249151400535 1549.3999999999999
    vertex 6.35 -55.0249151400535 1749.425
    vertex 431.79999999999995 -55.0249151400535 1549.3999999999999
  endloop
endfacet
facet normal 8.175038898665048e-18 1.0 1.4064583051466748e-17
  outer loop
    vertex 431.79999999999995 -55.0249151400535 1549.3999999999999
    vertex 6.35 -55.0249151400535 1749.425
    vertex 450.84999999999997 -55.0249151400535 1549.3999999999999
  endloop
endfacet
facet normal 8.175038898665048e-18 1.0 1.4064583051466748e-17
  outer loop
    vertex 450.84999999999997 -55.0249151400535 1549.3999999999999
    vertex 488.95 -55.0249151400535 1473.1999999999998
    vertex 450.84999999999997 -55.0249151400535 1473.1999999999998
  endloop
endfacet
facet normal 8.175038898665048e-18 1.0 1.4064583051466748e-17
  outer loop
    vertex 488.95 -55.0249151400535 1473.1999999999998
    vertex 450.84999999999997 -55.0249151400535 1549.3999999999999
    vertex 488.95 -55.0249151400535 1749.425
  endloop
endfacet
facet normal 8.175038898665048e-18 1.0 1.4064583051466748e-17
  outer loop
    vertex 488.95 -55.0249151400535 1749.425
    vertex 450.84999999999997 -55.0249151400535 1549.3999999999999
    vertex 6.35 -55.0249151400535 1749.425
  endloop
endfacet
facet normal 8.175038898665048e-18 1.0 1.4064583051466748e-17
  outer loop
    vertex 63.5 -55.0249151400535 1549.3999999999999
    vertex 431.79999999999995 -55.0249151400535 1473.1999999999998
    vertex 63.5 -55.024915140053494 1473.1999999999998
  endloop
endfacet
facet normal 8.175038898665048e-18 1.0 1.4064583051466748e-17
  outer loop
    vertex 431.79999999999995 -55.0249151400535 1473.1999999999998
    vertex 63.5 -55.0249151400535 1549.3999999999999
    vertex 431.79999999999995 -55.0249151400535 1549.3999999999999
  endloop
endfacet
facet normal 1.0 0.0 0.0
  outer loop
    vertex 450.84999999999997 596.9 1473.1999999999998
    vertex 450.84999999999997 -55.0249151400535 1549.3999999999999
    vertex 450.84999999999997 -55.0249151400535 1473.1999999999998
  endloop
endfacet
facet normal 1.0 0.0 0.0
  outer loop
    vertex 450.84999999999997 -55.0249151400535 1549.3999999999999
    vertex 450.84999999999997 596.9 1473.1999999999998
    vertex 450.84999999999997 596.9 1549.3999999999999
  endloop
endfacet
facet normal 0.0 -1.0 0.0
  outer loop
    vertex 469.9 -93.12491514005352 1749.425
    vertex 25.4 -93.12491514005352 1473.1999999999998
    vertex 469.9 -93.12491514005352 1473.1999999999998
  endloop
endfacet
facet normal 0.0 -1.0 0.0
  outer loop
    vertex 25.4 -93.12491514005352 1473.1999999999998
    vertex 469.9 -93.12491514005352 1749.425
    vertex 25.4 -93.12491514005352 1749.425
  endloop
endfacet
facet normal 1.0 0.0 0.0
  outer loop
    vertex 488.95 -55.0249151400535 1473.1999999999998
    vertex 488.95 -67.7249151400535 1749.425
    vertex 488.95 -67.7249151400535 1473.1999999999998
  endloop
endfacet
facet normal 1.0 0.0 0.0
  outer loop
    vertex 488.95 -67.7249151400535 1749.425
    vertex 488.95 -55.0249151400535 1473.1999999999998
    vertex 488.95 -55.0249151400535 1749.425
  endloop
endfacet
facet normal 1.0 0.0 0.0
  outer loop
    vertex 63.5 -55.024915140053494 1473.1999999999998
    vertex 63.5 577.85 1549.3999999999999
    vertex 63.5 -55.0249151400535 1549.3999999999999
  endloop
endfacet
facet normal 1.0 0.0 0.0
  outer loop
    vertex 63.5 577.85 1549.3999999999999
    vertex 63.5 -55.024915140053494 1473.1999999999998
    vertex 63.5 577.85 1473.1999999999998
  endloop
endfacet
facet normal 1.1842378929335002e-15 -1.0 0.0
  outer loop
    vertex 488.95 -67.7249151400535 1749.425
    vertex 469.9 -67.72491514005353 1473.1999999999998
    vertex 488.95 -67.7249151400535 1473.1999999999998
  endloop
endfacet
facet normal 1.1842378929335002e-15 -1.0 0.0
  outer loop
    vertex 469.9 -67.72491514005353 1473.1999999999998
    vertex 488.95 -67.7249151400535 1749.425
    vertex 469.9 -67.72491514005353 1749.425
  endloop
endfacet
facet normal 0.0 1.0 0.0
  outer loop
    vertex 44.449999999999996 596.9 1549.3999999999999
    vertex 450.84999999999997 596.9 1473.1999999999998
    vertex 44.449999999999996 596.9 1473.1999999999998
  endloop
endfacet
facet normal 0.0 1.0 0.0
  outer loop
    vertex 450.84999999999997 596.9 1473.1999999999998
    vertex 44.449999999999996 596.9 1549.3999999999999
    vertex 450.84999999999997 596.9 1549.3999999999999
  endloop
endfacet
endsolid pdp11-2
