solid pdp11-2
facet normal 0.06540312923027429 0.0 0.9978589232385949
  outer loop
    vertex 82.55 50.79999999999999 3524.2500000000014
    vertex 81.72115867940268 57.15 3524.3043251302774
    vertex 81.72115867940268 50.79999999999999 3524.3043251302774
  endloop
endfacet
facet normal 0.06540312923027429 0.0 0.9978589232385949
  outer loop
    vertex 81.72115867940268 57.15 3524.3043251302774
    vertex 82.55 50.79999999999999 3524.2500000000014
    vertex 82.55 57.15 3524.2500000000014
  endloop
endfacet
facet normal 0.5555702330195871 0.0 0.8314696123025554
  outer loop
    vertex 79.375 50.79999999999999 3525.10073868597
    vertex 78.68436492579461 57.15 3525.562206289152
    vertex 78.68436492579461 50.79999999999999 3525.562206289152
  endloop
endfacet
facet normal 0.5555702330195871 0.0 0.8314696123025554
  outer loop
    vertex 78.68436492579461 57.15 3525.562206289152
    vertex 79.375 50.79999999999999 3525.10073868597
    vertex 79.375 57.15 3525.10073868597
  endloop
endfacet
facet normal 0.0 1.0 0.0
  outer loop
    vertex 69.85 57.15 3517.9000000000015
    vertex 82.55 57.15 3524.2500000000014
    vertex 539.75 57.15 3517.9000000000015
  endloop
endfacet
facet normal 0.0 1.0 0.0
  outer loop
    vertex 82.55 57.15 3524.2500000000014
    vertex 69.85 57.15 3517.9000000000015
    vertex 81.72115867940268 57.15 3524.3043251302774
  endloop
endfacet
facet normal 0.0 1.0 0.0
  outer loop
    vertex 81.72115867940268 57.15 3524.3043251302774
    vertex 69.85 57.15 3517.9000000000015
    vertex 80.906499063599 57.15 3524.4663710030654
  endloop
endfacet
facet normal 0.0 1.0 0.0
  outer loop
    vertex 80.906499063599 57.15 3524.4663710030654
    vertex 69.85 57.15 3517.9000000000015
    vertex 80.11996020448167 57.15 3524.7333649685543
  endloop
endfacet
facet normal 0.0 1.0 0.0
  outer loop
    vertex 80.11996020448167 57.15 3524.7333649685543
    vertex 69.85 57.15 3517.9000000000015
    vertex 79.375 57.15 3525.10073868597
  endloop
endfacet
facet normal 0.0 1.0 0.0
  outer loop
    vertex 79.375 57.15 3525.10073868597
    vertex 69.85 57.15 3517.9000000000015
    vertex 78.68436492579461 57.15 3525.562206289152
  endloop
endfacet
facet normal 0.0 1.0 0.0
  outer loop
    vertex 78.68436492579461 57.15 3525.562206289152
    vertex 69.85 57.15 3517.9000000000015
    vertex 78.05987193946541 57.15 3526.1098719394668
  endloop
endfacet
facet normal 0.0 1.0 0.0
  outer loop
    vertex 78.05987193946541 57.15 3526.1098719394668
    vertex 69.85 57.15 3517.9000000000015
    vertex 77.51220628915065 57.15 3526.734364925796
  endloop
endfacet
facet normal 0.0 1.0 0.0
  outer loop
    vertex 77.51220628915065 57.15 3526.734364925796
    vertex 69.85 57.15 3517.9000000000015
    vertex 77.05073868596881 57.15 3527.425000000001
  endloop
endfacet
facet normal 0.0 1.0 0.0
  outer loop
    vertex 77.05073868596881 57.15 3527.425000000001
    vertex 69.85 57.15 3517.9000000000015
    vertex 76.68336496855333 57.15 3528.1699602044832
  endloop
endfacet
facet normal 0.0 1.0 0.0
  outer loop
    vertex 76.68336496855333 57.15 3528.1699602044832
    vertex 69.85 57.15 3517.9000000000015
    vertex 76.4163710030644 57.15 3528.9564990636
  endloop
endfacet
facet normal 0.0 1.0 0.0
  outer loop
    vertex 76.4163710030644 57.15 3528.9564990636
    vertex 69.85 57.15 3517.9000000000015
    vertex 76.2543251302763 57.15 3529.771158679404
  endloop
endfacet
facet normal 0.0 1.0 0.0
  outer loop
    vertex 76.2543251302763 57.15 3529.771158679404
    vertex 69.85 57.15 3517.9000000000015
    vertex 76.19999999999999 57.15 3530.6000000000013
  endloop
endfacet
facet normal 0.0 1.0 0.0
  outer loop
    vertex 76.19999999999999 57.15 3530.6000000000013
    vertex 69.85 57.15 3517.9000000000015
    vertex 69.85 57.15 3632.200000000001
  endloop
endfacet
facet normal 0.0 1.0 0.0
  outer loop
    vertex 76.19999999999999 57.15 3530.6000000000013
    vertex 69.85 57.15 3632.200000000001
    vertex 76.19999999999999 57.15 3619.5000000000014
  endloop
endfacet
facet normal 0.0 1.0 0.0
  outer loop
    vertex 76.19999999999999 57.15 3619.5000000000014
    vertex 69.85 57.15 3632.200000000001
    vertex 76.2543251302763 57.15 3620.3288413205983
  endloop
endfacet
facet normal 0.0 1.0 0.0
  outer loop
    vertex 76.2543251302763 57.15 3620.3288413205983
    vertex 69.85 57.15 3632.200000000001
    vertex 76.4163710030644 57.15 3621.1435009364022
  endloop
endfacet
facet normal 0.0 1.0 0.0
  outer loop
    vertex 76.4163710030644 57.15 3621.1435009364022
    vertex 69.85 57.15 3632.200000000001
    vertex 76.68336496855333 57.15 3621.9300397955194
  endloop
endfacet
facet normal 0.0 1.0 0.0
  outer loop
    vertex 76.68336496855333 57.15 3621.9300397955194
    vertex 69.85 57.15 3632.200000000001
    vertex 77.05073868596881 57.15 3622.675000000001
  endloop
endfacet
facet normal 0.0 1.0 0.0
  outer loop
    vertex 77.05073868596881 57.15 3622.675000000001
    vertex 69.85 57.15 3632.200000000001
    vertex 77.51220628915065 57.15 3623.3656350742067
  endloop
endfacet
facet normal 0.0 1.0 0.0
  outer loop
    vertex 77.51220628915065 57.15 3623.3656350742067
    vertex 69.85 57.15 3632.200000000001
    vertex 78.05987193946541 57.15 3623.990128060536
  endloop
endfacet
facet normal 0.0 1.0 0.0
  outer loop
    vertex 78.05987193946541 57.15 3623.990128060536
    vertex 69.85 57.15 3632.200000000001
    vertex 78.68436492579461 57.15 3624.5377937108506
  endloop
endfacet
facet normal 0.0 1.0 0.0
  outer loop
    vertex 78.68436492579461 57.15 3624.5377937108506
    vertex 69.85 57.15 3632.200000000001
    vertex 79.375 57.15 3624.999261314032
  endloop
endfacet
facet normal 0.0 1.0 0.0
  outer loop
    vertex 79.375 57.15 3624.999261314032
    vertex 69.85 57.15 3632.200000000001
    vertex 80.11996020448167 57.15 3625.3666350314484
  endloop
endfacet
facet normal 0.0 1.0 0.0
  outer loop
    vertex 80.11996020448167 57.15 3625.3666350314484
    vertex 69.85 57.15 3632.200000000001
    vertex 80.906499063599 57.15 3625.633628996937
  endloop
endfacet
facet normal 0.0 1.0 0.0
  outer loop
    vertex 80.906499063599 57.15 3625.633628996937
    vertex 69.85 57.15 3632.200000000001
    vertex 81.72115867940268 57.15 3625.7956748697247
  endloop
endfacet
facet normal 0.0 1.0 0.0
  outer loop
    vertex 81.72115867940268 57.15 3625.7956748697247
    vertex 69.85 57.15 3632.200000000001
    vertex 82.55 57.15 3625.8500000000013
  endloop
endfacet
facet normal 0.0 1.0 0.0
  outer loop
    vertex 82.55 57.15 3625.8500000000013
    vertex 69.85 57.15 3632.200000000001
    vertex 527.05 57.15 3625.8500000000013
  endloop
endfacet
facet normal 0.0 1.0 0.0
  outer loop
    vertex 539.75 57.15 3517.9000000000015
    vertex 533.4 57.15 3530.6000000000013
    vertex 539.75 57.15 3632.200000000001
  endloop
endfacet
facet normal 0.0 1.0 0.0
  outer loop
    vertex 533.4 57.15 3530.6000000000013
    vertex 539.75 57.15 3517.9000000000015
    vertex 533.3456748697237 57.15 3529.771158679404
  endloop
endfacet
facet normal 0.0 1.0 0.0
  outer loop
    vertex 533.3456748697237 57.15 3529.771158679404
    vertex 539.75 57.15 3517.9000000000015
    vertex 533.1836289969356 57.15 3528.9564990636
  endloop
endfacet
facet normal 0.0 1.0 0.0
  outer loop
    vertex 533.1836289969356 57.15 3528.9564990636
    vertex 539.75 57.15 3517.9000000000015
    vertex 532.9166350314467 57.15 3528.1699602044832
  endloop
endfacet
facet normal 0.0 1.0 0.0
  outer loop
    vertex 532.9166350314467 57.15 3528.1699602044832
    vertex 539.75 57.15 3517.9000000000015
    vertex 532.5492613140311 57.15 3527.425000000001
  endloop
endfacet
facet normal 0.0 1.0 0.0
  outer loop
    vertex 532.5492613140311 57.15 3527.425000000001
    vertex 539.75 57.15 3517.9000000000015
    vertex 532.0877937108493 57.15 3526.734364925796
  endloop
endfacet
facet normal 0.0 1.0 0.0
  outer loop
    vertex 532.0877937108493 57.15 3526.734364925796
    vertex 539.75 57.15 3517.9000000000015
    vertex 531.5401280605346 57.15 3526.1098719394668
  endloop
endfacet
facet normal 0.0 1.0 0.0
  outer loop
    vertex 531.5401280605346 57.15 3526.1098719394668
    vertex 539.75 57.15 3517.9000000000015
    vertex 530.9156350742054 57.15 3525.562206289152
  endloop
endfacet
facet normal 0.0 1.0 0.0
  outer loop
    vertex 530.9156350742054 57.15 3525.562206289152
    vertex 539.75 57.15 3517.9000000000015
    vertex 530.225 57.15 3525.10073868597
  endloop
endfacet
facet normal 0.0 1.0 0.0
  outer loop
    vertex 530.225 57.15 3525.10073868597
    vertex 539.75 57.15 3517.9000000000015
    vertex 529.4800397955182 57.15 3524.7333649685543
  endloop
endfacet
facet normal 0.0 1.0 0.0
  outer loop
    vertex 529.4800397955182 57.15 3524.7333649685543
    vertex 539.75 57.15 3517.9000000000015
    vertex 528.693500936401 57.15 3524.4663710030654
  endloop
endfacet
facet normal 0.0 1.0 0.0
  outer loop
    vertex 528.693500936401 57.15 3524.4663710030654
    vertex 539.75 57.15 3517.9000000000015
    vertex 527.8788413205973 57.15 3524.3043251302774
  endloop
endfacet
facet normal 0.0 1.0 0.0
  outer loop
    vertex 527.8788413205973 57.15 3524.3043251302774
    vertex 539.75 57.15 3517.9000000000015
    vertex 527.05 57.15 3524.2500000000014
  endloop
endfacet
facet normal 0.0 1.0 0.0
  outer loop
    vertex 527.05 57.15 3524.2500000000014
    vertex 539.75 57.15 3517.9000000000015
    vertex 82.55 57.15 3524.2500000000014
  endloop
endfacet
facet normal 0.0 1.0 0.0
  outer loop
    vertex 539.75 57.15 3632.200000000001
    vertex 533.4 57.15 3530.6000000000013
    vertex 533.4 57.15 3619.5000000000014
  endloop
endfacet
facet normal 0.0 1.0 0.0
  outer loop
    vertex 539.75 57.15 3632.200000000001
    vertex 533.4 57.15 3619.5000000000014
    vertex 533.3456748697237 57.15 3620.3288413205983
  endloop
endfacet
facet normal 0.0 1.0 0.0
  outer loop
    vertex 539.75 57.15 3632.200000000001
    vertex 533.3456748697237 57.15 3620.3288413205983
    vertex 533.1836289969356 57.15 3621.1435009364022
  endloop
endfacet
facet normal 0.0 1.0 0.0
  outer loop
    vertex 539.75 57.15 3632.200000000001
    vertex 533.1836289969356 57.15 3621.1435009364022
    vertex 532.9166350314467 57.15 3621.9300397955194
  endloop
endfacet
facet normal 0.0 1.0 0.0
  outer loop
    vertex 539.75 57.15 3632.200000000001
    vertex 532.9166350314467 57.15 3621.9300397955194
    vertex 532.5492613140311 57.15 3622.675000000001
  endloop
endfacet
facet normal 0.0 1.0 0.0
  outer loop
    vertex 539.75 57.15 3632.200000000001
    vertex 532.5492613140311 57.15 3622.675000000001
    vertex 532.0877937108493 57.15 3623.3656350742067
  endloop
endfacet
facet normal 0.0 1.0 0.0
  outer loop
    vertex 539.75 57.15 3632.200000000001
    vertex 532.0877937108493 57.15 3623.3656350742067
    vertex 531.5401280605346 57.15 3623.990128060536
  endloop
endfacet
facet normal 0.0 1.0 0.0
  outer loop
    vertex 539.75 57.15 3632.200000000001
    vertex 531.5401280605346 57.15 3623.990128060536
    vertex 530.9156350742054 57.15 3624.5377937108506
  endloop
endfacet
facet normal 0.0 1.0 0.0
  outer loop
    vertex 539.75 57.15 3632.200000000001
    vertex 530.9156350742054 57.15 3624.5377937108506
    vertex 530.225 57.15 3624.999261314032
  endloop
endfacet
facet normal 0.0 1.0 0.0
  outer loop
    vertex 539.75 57.15 3632.200000000001
    vertex 530.225 57.15 3624.999261314032
    vertex 529.4800397955182 57.15 3625.3666350314484
  endloop
endfacet
facet normal 0.0 1.0 0.0
  outer loop
    vertex 539.75 57.15 3632.200000000001
    vertex 529.4800397955182 57.15 3625.3666350314484
    vertex 528.693500936401 57.15 3625.633628996937
  endloop
endfacet
facet normal 0.0 1.0 0.0
  outer loop
    vertex 539.75 57.15 3632.200000000001
    vertex 528.693500936401 57.15 3625.633628996937
    vertex 527.8788413205973 57.15 3625.7956748697247
  endloop
endfacet
facet normal 0.0 1.0 0.0
  outer loop
    vertex 539.75 57.15 3632.200000000001
    vertex 527.8788413205973 57.15 3625.7956748697247
    vertex 527.05 57.15 3625.8500000000013
  endloop
endfacet
facet normal 0.0 1.0 0.0
  outer loop
    vertex 539.75 57.15 3632.200000000001
    vertex 527.05 57.15 3625.8500000000013
    vertex 69.85 57.15 3632.200000000001
  endloop
endfacet
facet normal -0.9807852804032433 0.0 0.19509032201606388
  outer loop
    vertex 533.3456748697237 57.15 3529.771158679404
    vertex 533.1836289969356 50.79999999999999 3528.9564990636
    vertex 533.3456748697237 50.79999999999999 3529.771158679404
  endloop
endfacet
facet normal -0.9807852804032433 0.0 0.19509032201606388
  outer loop
    vertex 533.1836289969356 50.79999999999999 3528.9564990636
    vertex 533.3456748697237 57.15 3529.771158679404
    vertex 533.1836289969356 57.15 3528.9564990636
  endloop
endfacet
facet normal 0.0 -1.0 0.0
  outer loop
    vertex 539.75 50.79999999999999 3517.9000000000015
    vertex 527.05 50.79999999999999 3524.2500000000014
    vertex 69.85 50.79999999999999 3517.9000000000015
  endloop
endfacet
facet normal 0.0 -1.0 0.0
  outer loop
    vertex 527.05 50.79999999999999 3524.2500000000014
    vertex 539.75 50.79999999999999 3517.9000000000015
    vertex 527.8788413205973 50.79999999999999 3524.3043251302774
  endloop
endfacet
facet normal 0.0 -1.0 0.0
  outer loop
    vertex 527.8788413205973 50.79999999999999 3524.3043251302774
    vertex 539.75 50.79999999999999 3517.9000000000015
    vertex 528.693500936401 50.79999999999999 3524.4663710030654
  endloop
endfacet
facet normal 0.0 -1.0 0.0
  outer loop
    vertex 528.693500936401 50.79999999999999 3524.4663710030654
    vertex 539.75 50.79999999999999 3517.9000000000015
    vertex 529.4800397955182 50.79999999999999 3524.7333649685543
  endloop
endfacet
facet normal 0.0 -1.0 0.0
  outer loop
    vertex 529.4800397955182 50.79999999999999 3524.7333649685543
    vertex 539.75 50.79999999999999 3517.9000000000015
    vertex 530.225 50.79999999999999 3525.10073868597
  endloop
endfacet
facet normal 0.0 -1.0 0.0
  outer loop
    vertex 530.225 50.79999999999999 3525.10073868597
    vertex 539.75 50.79999999999999 3517.9000000000015
    vertex 530.9156350742054 50.79999999999999 3525.562206289152
  endloop
endfacet
facet normal 0.0 -1.0 0.0
  outer loop
    vertex 530.9156350742054 50.79999999999999 3525.562206289152
    vertex 539.75 50.79999999999999 3517.9000000000015
    vertex 531.5401280605346 50.79999999999999 3526.1098719394668
  endloop
endfacet
facet normal 0.0 -1.0 0.0
  outer loop
    vertex 531.5401280605346 50.79999999999999 3526.1098719394668
    vertex 539.75 50.79999999999999 3517.9000000000015
    vertex 532.0877937108493 50.79999999999999 3526.734364925796
  endloop
endfacet
facet normal 0.0 -1.0 0.0
  outer loop
    vertex 532.0877937108493 50.79999999999999 3526.734364925796
    vertex 539.75 50.79999999999999 3517.9000000000015
    vertex 532.5492613140311 50.79999999999999 3527.425000000001
  endloop
endfacet
facet normal 0.0 -1.0 0.0
  outer loop
    vertex 532.5492613140311 50.79999999999999 3527.425000000001
    vertex 539.75 50.79999999999999 3517.9000000000015
    vertex 532.9166350314467 50.79999999999999 3528.1699602044832
  endloop
endfacet
facet normal 0.0 -1.0 0.0
  outer loop
    vertex 532.9166350314467 50.79999999999999 3528.1699602044832
    vertex 539.75 50.79999999999999 3517.9000000000015
    vertex 533.1836289969356 50.79999999999999 3528.9564990636
  endloop
endfacet
facet normal 0.0 -1.0 0.0
  outer loop
    vertex 533.1836289969356 50.79999999999999 3528.9564990636
    vertex 539.75 50.79999999999999 3517.9000000000015
    vertex 533.3456748697237 50.79999999999999 3529.771158679404
  endloop
endfacet
facet normal 0.0 -1.0 0.0
  outer loop
    vertex 533.3456748697237 50.79999999999999 3529.771158679404
    vertex 539.75 50.79999999999999 3517.9000000000015
    vertex 533.4 50.79999999999999 3530.6000000000013
  endloop
endfacet
facet normal 0.0 -1.0 0.0
  outer loop
    vertex 533.4 50.79999999999999 3530.6000000000013
    vertex 539.75 50.79999999999999 3517.9000000000015
    vertex 539.75 50.79999999999999 3632.200000000001
  endloop
endfacet
facet normal 0.0 -1.0 0.0
  outer loop
    vertex 533.4 50.79999999999999 3530.6000000000013
    vertex 539.75 50.79999999999999 3632.200000000001
    vertex 533.4 50.79999999999999 3619.5000000000014
  endloop
endfacet
facet normal 0.0 -1.0 0.0
  outer loop
    vertex 533.4 50.79999999999999 3619.5000000000014
    vertex 539.75 50.79999999999999 3632.200000000001
    vertex 533.3456748697237 50.79999999999999 3620.3288413205983
  endloop
endfacet
facet normal 0.0 -1.0 0.0
  outer loop
    vertex 533.3456748697237 50.79999999999999 3620.3288413205983
    vertex 539.75 50.79999999999999 3632.200000000001
    vertex 533.1836289969356 50.79999999999999 3621.1435009364022
  endloop
endfacet
facet normal 0.0 -1.0 0.0
  outer loop
    vertex 533.1836289969356 50.79999999999999 3621.1435009364022
    vertex 539.75 50.79999999999999 3632.200000000001
    vertex 532.9166350314467 50.79999999999999 3621.9300397955194
  endloop
endfacet
facet normal 0.0 -1.0 0.0
  outer loop
    vertex 532.9166350314467 50.79999999999999 3621.9300397955194
    vertex 539.75 50.79999999999999 3632.200000000001
    vertex 532.5492613140311 50.79999999999999 3622.675000000001
  endloop
endfacet
facet normal 0.0 -1.0 0.0
  outer loop
    vertex 532.5492613140311 50.79999999999999 3622.675000000001
    vertex 539.75 50.79999999999999 3632.200000000001
    vertex 532.0877937108493 50.79999999999999 3623.3656350742067
  endloop
endfacet
facet normal 0.0 -1.0 0.0
  outer loop
    vertex 532.0877937108493 50.79999999999999 3623.3656350742067
    vertex 539.75 50.79999999999999 3632.200000000001
    vertex 531.5401280605346 50.79999999999999 3623.990128060536
  endloop
endfacet
facet normal 0.0 -1.0 0.0
  outer loop
    vertex 531.5401280605346 50.79999999999999 3623.990128060536
    vertex 539.75 50.79999999999999 3632.200000000001
    vertex 530.9156350742054 50.79999999999999 3624.5377937108506
  endloop
endfacet
facet normal 0.0 -1.0 0.0
  outer loop
    vertex 530.9156350742054 50.79999999999999 3624.5377937108506
    vertex 539.75 50.79999999999999 3632.200000000001
    vertex 530.225 50.79999999999999 3624.999261314032
  endloop
endfacet
facet normal 0.0 -1.0 0.0
  outer loop
    vertex 530.225 50.79999999999999 3624.999261314032
    vertex 539.75 50.79999999999999 3632.200000000001
    vertex 529.4800397955182 50.79999999999999 3625.3666350314484
  endloop
endfacet
facet normal 0.0 -1.0 0.0
  outer loop
    vertex 529.4800397955182 50.79999999999999 3625.3666350314484
    vertex 539.75 50.79999999999999 3632.200000000001
    vertex 528.693500936401 50.79999999999999 3625.633628996937
  endloop
endfacet
facet normal 0.0 -1.0 0.0
  outer loop
    vertex 528.693500936401 50.79999999999999 3625.633628996937
    vertex 539.75 50.79999999999999 3632.200000000001
    vertex 527.8788413205973 50.79999999999999 3625.7956748697247
  endloop
endfacet
facet normal 0.0 -1.0 0.0
  outer loop
    vertex 527.8788413205973 50.79999999999999 3625.7956748697247
    vertex 539.75 50.79999999999999 3632.200000000001
    vertex 527.05 50.79999999999999 3625.8500000000013
  endloop
endfacet
facet normal 0.0 -1.0 0.0
  outer loop
    vertex 527.05 50.79999999999999 3625.8500000000013
    vertex 539.75 50.79999999999999 3632.200000000001
    vertex 82.55 50.79999999999999 3625.8500000000013
  endloop
endfacet
facet normal 0.0 -1.0 0.0
  outer loop
    vertex 69.85 50.79999999999999 3517.9000000000015
    vertex 76.19999999999999 50.79999999999999 3530.6000000000013
    vertex 69.85 50.79999999999999 3632.200000000001
  endloop
endfacet
facet normal 0.0 -1.0 0.0
  outer loop
    vertex 76.19999999999999 50.79999999999999 3530.6000000000013
    vertex 69.85 50.79999999999999 3517.9000000000015
    vertex 76.2543251302763 50.79999999999999 3529.771158679404
  endloop
endfacet
facet normal 0.0 -1.0 0.0
  outer loop
    vertex 76.2543251302763 50.79999999999999 3529.771158679404
    vertex 69.85 50.79999999999999 3517.9000000000015
    vertex 76.4163710030644 50.79999999999999 3528.9564990636
  endloop
endfacet
facet normal 0.0 -1.0 0.0
  outer loop
    vertex 76.4163710030644 50.79999999999999 3528.9564990636
    vertex 69.85 50.79999999999999 3517.9000000000015
    vertex 76.68336496855333 50.79999999999999 3528.1699602044832
  endloop
endfacet
facet normal 0.0 -1.0 0.0
  outer loop
    vertex 76.68336496855333 50.79999999999999 3528.1699602044832
    vertex 69.85 50.79999999999999 3517.9000000000015
    vertex 77.05073868596881 50.79999999999999 3527.425000000001
  endloop
endfacet
facet normal 0.0 -1.0 0.0
  outer loop
    vertex 77.05073868596881 50.79999999999999 3527.425000000001
    vertex 69.85 50.79999999999999 3517.9000000000015
    vertex 77.51220628915065 50.79999999999999 3526.734364925796
  endloop
endfacet
facet normal 0.0 -1.0 0.0
  outer loop
    vertex 77.51220628915065 50.79999999999999 3526.734364925796
    vertex 69.85 50.79999999999999 3517.9000000000015
    vertex 78.05987193946541 50.79999999999999 3526.1098719394668
  endloop
endfacet
facet normal 0.0 -1.0 0.0
  outer loop
    vertex 78.05987193946541 50.79999999999999 3526.1098719394668
    vertex 69.85 50.79999999999999 3517.9000000000015
    vertex 78.68436492579461 50.79999999999999 3525.562206289152
  endloop
endfacet
facet normal 0.0 -1.0 0.0
  outer loop
    vertex 78.68436492579461 50.79999999999999 3525.562206289152
    vertex 69.85 50.79999999999999 3517.9000000000015
    vertex 79.375 50.79999999999999 3525.10073868597
  endloop
endfacet
facet normal 0.0 -1.0 0.0
  outer loop
    vertex 79.375 50.79999999999999 3525.10073868597
    vertex 69.85 50.79999999999999 3517.9000000000015
    vertex 80.11996020448167 50.79999999999999 3524.7333649685543
  endloop
endfacet
facet normal 0.0 -1.0 0.0
  outer loop
    vertex 80.11996020448167 50.79999999999999 3524.7333649685543
    vertex 69.85 50.79999999999999 3517.9000000000015
    vertex 80.906499063599 50.79999999999999 3524.4663710030654
  endloop
endfacet
facet normal 0.0 -1.0 0.0
  outer loop
    vertex 80.906499063599 50.79999999999999 3524.4663710030654
    vertex 69.85 50.79999999999999 3517.9000000000015
    vertex 81.72115867940268 50.79999999999999 3524.3043251302774
  endloop
endfacet
facet normal 0.0 -1.0 0.0
  outer loop
    vertex 81.72115867940268 50.79999999999999 3524.3043251302774
    vertex 69.85 50.79999999999999 3517.9000000000015
    vertex 82.55 50.79999999999999 3524.2500000000014
  endloop
endfacet
facet normal 0.0 -1.0 0.0
  outer loop
    vertex 82.55 50.79999999999999 3524.2500000000014
    vertex 69.85 50.79999999999999 3517.9000000000015
    vertex 527.05 50.79999999999999 3524.2500000000014
  endloop
endfacet
facet normal 0.0 -1.0 0.0
  outer loop
    vertex 69.85 50.79999999999999 3632.200000000001
    vertex 76.19999999999999 50.79999999999999 3530.6000000000013
    vertex 76.19999999999999 50.79999999999999 3619.5000000000014
  endloop
endfacet
facet normal 0.0 -1.0 0.0
  outer loop
    vertex 69.85 50.79999999999999 3632.200000000001
    vertex 76.19999999999999 50.79999999999999 3619.5000000000014
    vertex 76.2543251302763 50.79999999999999 3620.3288413205983
  endloop
endfacet
facet normal 0.0 -1.0 0.0
  outer loop
    vertex 69.85 50.79999999999999 3632.200000000001
    vertex 76.2543251302763 50.79999999999999 3620.3288413205983
    vertex 76.4163710030644 50.79999999999999 3621.1435009364022
  endloop
endfacet
facet normal 0.0 -1.0 0.0
  outer loop
    vertex 69.85 50.79999999999999 3632.200000000001
    vertex 76.4163710030644 50.79999999999999 3621.1435009364022
    vertex 76.68336496855333 50.79999999999999 3621.9300397955194
  endloop
endfacet
facet normal 0.0 -1.0 0.0
  outer loop
    vertex 69.85 50.79999999999999 3632.200000000001
    vertex 76.68336496855333 50.79999999999999 3621.9300397955194
    vertex 77.05073868596881 50.79999999999999 3622.675000000001
  endloop
endfacet
facet normal 0.0 -1.0 0.0
  outer loop
    vertex 69.85 50.79999999999999 3632.200000000001
    vertex 77.05073868596881 50.79999999999999 3622.675000000001
    vertex 77.51220628915065 50.79999999999999 3623.3656350742067
  endloop
endfacet
facet normal 0.0 -1.0 0.0
  outer loop
    vertex 69.85 50.79999999999999 3632.200000000001
    vertex 77.51220628915065 50.79999999999999 3623.3656350742067
    vertex 78.05987193946541 50.79999999999999 3623.990128060536
  endloop
endfacet
facet normal 0.0 -1.0 0.0
  outer loop
    vertex 69.85 50.79999999999999 3632.200000000001
    vertex 78.05987193946541 50.79999999999999 3623.990128060536
    vertex 78.68436492579461 50.79999999999999 3624.5377937108506
  endloop
endfacet
facet normal 0.0 -1.0 0.0
  outer loop
    vertex 69.85 50.79999999999999 3632.200000000001
    vertex 78.68436492579461 50.79999999999999 3624.5377937108506
    vertex 79.375 50.79999999999999 3624.999261314032
  endloop
endfacet
facet normal 0.0 -1.0 0.0
  outer loop
    vertex 69.85 50.79999999999999 3632.200000000001
    vertex 79.375 50.79999999999999 3624.999261314032
    vertex 80.11996020448167 50.79999999999999 3625.3666350314484
  endloop
endfacet
facet normal 0.0 -1.0 0.0
  outer loop
    vertex 69.85 50.79999999999999 3632.200000000001
    vertex 80.11996020448167 50.79999999999999 3625.3666350314484
    vertex 80.906499063599 50.79999999999999 3625.633628996937
  endloop
endfacet
facet normal 0.0 -1.0 0.0
  outer loop
    vertex 69.85 50.79999999999999 3632.200000000001
    vertex 80.906499063599 50.79999999999999 3625.633628996937
    vertex 81.72115867940268 50.79999999999999 3625.7956748697247
  endloop
endfacet
facet normal 0.0 -1.0 0.0
  outer loop
    vertex 69.85 50.79999999999999 3632.200000000001
    vertex 81.72115867940268 50.79999999999999 3625.7956748697247
    vertex 82.55 50.79999999999999 3625.8500000000013
  endloop
endfacet
facet normal 0.0 -1.0 0.0
  outer loop
    vertex 69.85 50.79999999999999 3632.200000000001
    vertex 82.55 50.79999999999999 3625.8500000000013
    vertex 539.75 50.79999999999999 3632.200000000001
  endloop
endfacet
facet normal -0.0 -0.0 -1.0
  outer loop
    vertex 539.75 57.15 3517.9000000000015
    vertex 69.85 50.79999999999999 3517.9000000000015
    vertex 69.85 57.15 3517.9000000000015
  endloop
endfacet
facet normal -0.0 -0.0 -1.0
  outer loop
    vertex 69.85 50.79999999999999 3517.9000000000015
    vertex 539.75 57.15 3517.9000000000015
    vertex 539.75 50.79999999999999 3517.9000000000015
  endloop
endfacet
facet normal 0.0 0.0 1.0
  outer loop
    vertex 539.75 50.79999999999999 3632.200000000001
    vertex 69.85 57.15 3632.200000000001
    vertex 69.85 50.79999999999999 3632.200000000001
  endloop
endfacet
facet normal 0.0 0.0 1.0
  outer loop
    vertex 69.85 57.15 3632.200000000001
    vertex 539.75 50.79999999999999 3632.200000000001
    vertex 539.75 57.15 3632.200000000001
  endloop
endfacet
facet normal -1.0 0.0 0.0
  outer loop
    vertex 69.85 57.15 3632.200000000001
    vertex 69.85 50.79999999999999 3517.9000000000015
    vertex 69.85 50.79999999999999 3632.200000000001
  endloop
endfacet
facet normal -1.0 0.0 0.0
  outer loop
    vertex 69.85 50.79999999999999 3517.9000000000015
    vertex 69.85 57.15 3632.200000000001
    vertex 69.85 57.15 3517.9000000000015
  endloop
endfacet
facet normal -1.0 0.0 0.0
  outer loop
    vertex 533.4 57.15 3619.5000000000014
    vertex 533.4 50.79999999999999 3530.6000000000013
    vertex 533.4 50.79999999999999 3619.5000000000014
  endloop
endfacet
facet normal -1.0 0.0 0.0
  outer loop
    vertex 533.4 50.79999999999999 3530.6000000000013
    vertex 533.4 57.15 3619.5000000000014
    vertex 533.4 57.15 3530.6000000000013
  endloop
endfacet
facet normal 1.0 0.0 0.0
  outer loop
    vertex 539.75 57.15 3517.9000000000015
    vertex 539.75 50.79999999999999 3632.200000000001
    vertex 539.75 50.79999999999999 3517.9000000000015
  endloop
endfacet
facet normal 1.0 0.0 0.0
  outer loop
    vertex 539.75 50.79999999999999 3632.200000000001
    vertex 539.75 57.15 3517.9000000000015
    vertex 539.75 57.15 3632.200000000001
  endloop
endfacet
facet normal -0.9469301294950944 -0.0 -0.32143946530319506
  outer loop
    vertex 532.9166350314467 57.15 3621.9300397955194
    vertex 533.1836289969356 50.79999999999999 3621.1435009364022
    vertex 532.9166350314467 50.79999999999999 3621.9300397955194
  endloop
endfacet
facet normal -0.9469301294950944 -0.0 -0.32143946530319506
  outer loop
    vertex 533.1836289969356 50.79999999999999 3621.1435009364022
    vertex 532.9166350314467 57.15 3621.9300397955194
    vertex 533.1836289969356 57.15 3621.1435009364022
  endloop
endfacet
facet normal -0.9978589232386015 -0.0 -0.06540312923017609
  outer loop
    vertex 533.3456748697237 57.15 3620.3288413205983
    vertex 533.4 50.79999999999999 3619.5000000000014
    vertex 533.3456748697237 50.79999999999999 3620.3288413205983
  endloop
endfacet
facet normal -0.9978589232386015 -0.0 -0.06540312923017609
  outer loop
    vertex 533.4 50.79999999999999 3619.5000000000014
    vertex 533.3456748697237 57.15 3620.3288413205983
    vertex 533.4 57.15 3619.5000000000014
  endloop
endfacet
facet normal -0.9807852804032433 -0.0 -0.19509032201606388
  outer loop
    vertex 533.1836289969356 57.15 3621.1435009364022
    vertex 533.3456748697237 50.79999999999999 3620.3288413205983
    vertex 533.1836289969356 50.79999999999999 3621.1435009364022
  endloop
endfacet
facet normal -0.9807852804032433 -0.0 -0.19509032201606388
  outer loop
    vertex 533.3456748697237 50.79999999999999 3620.3288413205983
    vertex 533.1836289969356 57.15 3621.1435009364022
    vertex 533.3456748697237 57.15 3620.3288413205983
  endloop
endfacet
facet normal -0.7518398074790175 -0.0 -0.6593458151000233
  outer loop
    vertex 531.5401280605346 57.15 3623.990128060536
    vertex 532.0877937108493 50.79999999999999 3623.3656350742067
    vertex 531.5401280605346 50.79999999999999 3623.990128060536
  endloop
endfacet
facet normal -0.7518398074790175 -0.0 -0.6593458151000233
  outer loop
    vertex 532.0877937108493 50.79999999999999 3623.3656350742067
    vertex 531.5401280605346 57.15 3623.990128060536
    vertex 532.0877937108493 57.15 3623.3656350742067
  endloop
endfacet
facet normal -0.896872741532684 -0.0 -0.44228869021901
  outer loop
    vertex 532.5492613140311 57.15 3622.675000000001
    vertex 532.9166350314467 50.79999999999999 3621.9300397955194
    vertex 532.5492613140311 50.79999999999999 3622.675000000001
  endloop
endfacet
facet normal -0.896872741532684 -0.0 -0.44228869021901
  outer loop
    vertex 532.9166350314467 50.79999999999999 3621.9300397955194
    vertex 532.5492613140311 57.15 3622.675000000001
    vertex 532.9166350314467 57.15 3621.9300397955194
  endloop
endfacet
facet normal -0.8314696123025607 -0.0 -0.5555702330195792
  outer loop
    vertex 532.0877937108493 57.15 3623.3656350742067
    vertex 532.5492613140311 50.79999999999999 3622.675000000001
    vertex 532.0877937108493 50.79999999999999 3623.3656350742067
  endloop
endfacet
facet normal -0.8314696123025607 -0.0 -0.5555702330195792
  outer loop
    vertex 532.5492613140311 50.79999999999999 3622.675000000001
    vertex 532.0877937108493 57.15 3623.3656350742067
    vertex 532.5492613140311 57.15 3622.675000000001
  endloop
endfacet
facet normal -0.442288690219228 -0.0 -0.8968727415325767
  outer loop
    vertex 530.225 57.15 3624.999261314032
    vertex 529.4800397955182 50.79999999999999 3625.3666350314484
    vertex 529.4800397955182 57.15 3625.3666350314484
  endloop
endfacet
facet normal -0.442288690219228 -0.0 -0.8968727415325767
  outer loop
    vertex 529.4800397955182 50.79999999999999 3625.3666350314484
    vertex 530.225 57.15 3624.999261314032
    vertex 530.225 50.79999999999999 3624.999261314032
  endloop
endfacet
facet normal -0.6593458150999618 -0.0 -0.7518398074790712
  outer loop
    vertex 531.5401280605346 57.15 3623.990128060536
    vertex 530.9156350742054 50.79999999999999 3624.5377937108506
    vertex 530.9156350742054 57.15 3624.5377937108506
  endloop
endfacet
facet normal -0.6593458150999618 -0.0 -0.7518398074790712
  outer loop
    vertex 530.9156350742054 50.79999999999999 3624.5377937108506
    vertex 531.5401280605346 57.15 3623.990128060536
    vertex 531.5401280605346 50.79999999999999 3623.990128060536
  endloop
endfacet
facet normal -0.5555702330195792 -0.0 -0.8314696123025607
  outer loop
    vertex 530.9156350742054 57.15 3624.5377937108506
    vertex 530.225 50.79999999999999 3624.999261314032
    vertex 530.225 57.15 3624.999261314032
  endloop
endfacet
facet normal -0.5555702330195792 -0.0 -0.8314696123025607
  outer loop
    vertex 530.225 50.79999999999999 3624.999261314032
    vertex 530.9156350742054 57.15 3624.5377937108506
    vertex 530.9156350742054 50.79999999999999 3624.5377937108506
  endloop
endfacet
facet normal -0.06540312923027718 -0.0 -0.9978589232385949
  outer loop
    vertex 527.8788413205973 57.15 3625.7956748697247
    vertex 527.05 50.79999999999999 3625.8500000000013
    vertex 527.05 57.15 3625.8500000000013
  endloop
endfacet
facet normal -0.06540312923027718 -0.0 -0.9978589232385949
  outer loop
    vertex 527.05 50.79999999999999 3625.8500000000013
    vertex 527.8788413205973 57.15 3625.7956748697247
    vertex 527.8788413205973 50.79999999999999 3625.7956748697247
  endloop
endfacet
facet normal -0.32143946530322637 -0.0 -0.9469301294950838
  outer loop
    vertex 529.4800397955182 57.15 3625.3666350314484
    vertex 528.693500936401 50.79999999999999 3625.633628996937
    vertex 528.693500936401 57.15 3625.633628996937
  endloop
endfacet
facet normal -0.32143946530322637 -0.0 -0.9469301294950838
  outer loop
    vertex 528.693500936401 50.79999999999999 3625.633628996937
    vertex 529.4800397955182 57.15 3625.3666350314484
    vertex 529.4800397955182 50.79999999999999 3625.3666350314484
  endloop
endfacet
facet normal -0.19509032201579193 -0.0 -0.9807852804032974
  outer loop
    vertex 528.693500936401 57.15 3625.633628996937
    vertex 527.8788413205973 50.79999999999999 3625.7956748697247
    vertex 527.8788413205973 57.15 3625.7956748697247
  endloop
endfacet
facet normal -0.19509032201579193 -0.0 -0.9807852804032974
  outer loop
    vertex 527.8788413205973 50.79999999999999 3625.7956748697247
    vertex 528.693500936401 57.15 3625.633628996937
    vertex 528.693500936401 50.79999999999999 3625.633628996937
  endloop
endfacet
facet normal 0.19509032201580948 0.0 -0.9807852804032939
  outer loop
    vertex 81.72115867940268 57.15 3625.7956748697247
    vertex 80.906499063599 50.79999999999999 3625.633628996937
    vertex 80.906499063599 57.15 3625.633628996937
  endloop
endfacet
facet normal 0.19509032201580948 0.0 -0.9807852804032939
  outer loop
    vertex 80.906499063599 50.79999999999999 3625.633628996937
    vertex 81.72115867940268 57.15 3625.7956748697247
    vertex 81.72115867940268 50.79999999999999 3625.7956748697247
  endloop
endfacet
facet normal -0.0 -0.0 -1.0
  outer loop
    vertex 527.05 57.15 3625.8500000000013
    vertex 82.55 50.79999999999999 3625.8500000000013
    vertex 82.55 57.15 3625.8500000000013
  endloop
endfacet
facet normal -0.0 -0.0 -1.0
  outer loop
    vertex 82.55 50.79999999999999 3625.8500000000013
    vertex 527.05 57.15 3625.8500000000013
    vertex 527.05 50.79999999999999 3625.8500000000013
  endloop
endfacet
facet normal 0.06540312923027429 0.0 -0.9978589232385949
  outer loop
    vertex 82.55 57.15 3625.8500000000013
    vertex 81.72115867940268 50.79999999999999 3625.7956748697247
    vertex 81.72115867940268 57.15 3625.7956748697247
  endloop
endfacet
facet normal 0.06540312923027429 0.0 -0.9978589232385949
  outer loop
    vertex 81.72115867940268 50.79999999999999 3625.7956748697247
    vertex 82.55 57.15 3625.8500000000013
    vertex 82.55 50.79999999999999 3625.8500000000013
  endloop
endfacet
facet normal 0.5555702330195871 0.0 -0.8314696123025554
  outer loop
    vertex 79.375 57.15 3624.999261314032
    vertex 78.68436492579461 50.79999999999999 3624.5377937108506
    vertex 78.68436492579461 57.15 3624.5377937108506
  endloop
endfacet
facet normal 0.5555702330195871 0.0 -0.8314696123025554
  outer loop
    vertex 78.68436492579461 50.79999999999999 3624.5377937108506
    vertex 79.375 57.15 3624.999261314032
    vertex 79.375 50.79999999999999 3624.999261314032
  endloop
endfacet
facet normal 0.3214394653031985 0.0 -0.9469301294950933
  outer loop
    vertex 80.906499063599 57.15 3625.633628996937
    vertex 80.11996020448167 50.79999999999999 3625.3666350314484
    vertex 80.11996020448167 57.15 3625.3666350314484
  endloop
endfacet
facet normal 0.3214394653031985 0.0 -0.9469301294950933
  outer loop
    vertex 80.11996020448167 50.79999999999999 3625.3666350314484
    vertex 80.906499063599 57.15 3625.633628996937
    vertex 80.906499063599 50.79999999999999 3625.633628996937
  endloop
endfacet
facet normal 0.44228869021924544 0.0 -0.896872741532568
  outer loop
    vertex 80.11996020448167 57.15 3625.3666350314484
    vertex 79.375 50.79999999999999 3624.999261314032
    vertex 79.375 57.15 3624.999261314032
  endloop
endfacet
facet normal 0.44228869021924544 0.0 -0.896872741532568
  outer loop
    vertex 79.375 50.79999999999999 3624.999261314032
    vertex 80.11996020448167 57.15 3625.3666350314484
    vertex 80.11996020448167 50.79999999999999 3625.3666350314484
  endloop
endfacet
facet normal 0.8314696123025512 0.0 -0.5555702330195933
  outer loop
    vertex 77.05073868596881 57.15 3622.675000000001
    vertex 77.51220628915065 50.79999999999999 3623.3656350742067
    vertex 77.05073868596881 50.79999999999999 3622.675000000001
  endloop
endfacet
facet normal 0.8314696123025512 0.0 -0.5555702330195933
  outer loop
    vertex 77.51220628915065 50.79999999999999 3623.3656350742067
    vertex 77.05073868596881 57.15 3622.675000000001
    vertex 77.51220628915065 57.15 3623.3656350742067
  endloop
endfacet
facet normal 0.6593458150999737 0.0 -0.7518398074790611
  outer loop
    vertex 78.68436492579461 57.15 3624.5377937108506
    vertex 78.05987193946541 50.79999999999999 3623.990128060536
    vertex 78.05987193946541 57.15 3623.990128060536
  endloop
endfacet
facet normal 0.6593458150999737 0.0 -0.7518398074790611
  outer loop
    vertex 78.05987193946541 50.79999999999999 3623.990128060536
    vertex 78.68436492579461 57.15 3624.5377937108506
    vertex 78.68436492579461 50.79999999999999 3624.5377937108506
  endloop
endfacet
facet normal 0.7518398074789888 0.0 -0.6593458151000559
  outer loop
    vertex 77.51220628915065 57.15 3623.3656350742067
    vertex 78.05987193946541 50.79999999999999 3623.990128060536
    vertex 77.51220628915065 50.79999999999999 3623.3656350742067
  endloop
endfacet
facet normal 0.7518398074789888 0.0 -0.6593458151000559
  outer loop
    vertex 78.05987193946541 50.79999999999999 3623.990128060536
    vertex 77.51220628915065 57.15 3623.3656350742067
    vertex 78.05987193946541 57.15 3623.990128060536
  endloop
endfacet
facet normal 0.980785280403242 0.0 -0.1950903220160704
  outer loop
    vertex 76.2543251302763 57.15 3620.3288413205983
    vertex 76.4163710030644 50.79999999999999 3621.1435009364022
    vertex 76.2543251302763 50.79999999999999 3620.3288413205983
  endloop
endfacet
facet normal 0.980785280403242 0.0 -0.1950903220160704
  outer loop
    vertex 76.4163710030644 50.79999999999999 3621.1435009364022
    vertex 76.2543251302763 57.15 3620.3288413205983
    vertex 76.4163710030644 57.15 3621.1435009364022
  endloop
endfacet
facet normal 0.8968727415327178 0.0 -0.4422886902189418
  outer loop
    vertex 76.68336496855333 57.15 3621.9300397955194
    vertex 77.05073868596881 50.79999999999999 3622.675000000001
    vertex 76.68336496855333 50.79999999999999 3621.9300397955194
  endloop
endfacet
facet normal 0.8968727415327178 0.0 -0.4422886902189418
  outer loop
    vertex 77.05073868596881 50.79999999999999 3622.675000000001
    vertex 76.68336496855333 57.15 3621.9300397955194
    vertex 77.05073868596881 57.15 3622.675000000001
  endloop
endfacet
facet normal 0.9469301294950736 0.0 -0.32143946530325596
  outer loop
    vertex 76.4163710030644 57.15 3621.1435009364022
    vertex 76.68336496855333 50.79999999999999 3621.9300397955194
    vertex 76.4163710030644 50.79999999999999 3621.1435009364022
  endloop
endfacet
facet normal 0.9469301294950736 0.0 -0.32143946530325596
  outer loop
    vertex 76.68336496855333 50.79999999999999 3621.9300397955194
    vertex 76.4163710030644 57.15 3621.1435009364022
    vertex 76.68336496855333 57.15 3621.9300397955194
  endloop
endfacet
facet normal 0.9978589232386029 0.0 0.06540312923015242
  outer loop
    vertex 76.2543251302763 57.15 3529.771158679404
    vertex 76.19999999999999 50.79999999999999 3530.6000000000013
    vertex 76.2543251302763 50.79999999999999 3529.771158679404
  endloop
endfacet
facet normal 0.9978589232386029 0.0 0.06540312923015242
  outer loop
    vertex 76.19999999999999 50.79999999999999 3530.6000000000013
    vertex 76.2543251302763 57.15 3529.771158679404
    vertex 76.19999999999999 57.15 3530.6000000000013
  endloop
endfacet
facet normal 0.9978589232386029 0.0 -0.06540312923015242
  outer loop
    vertex 76.19999999999999 57.15 3619.5000000000014
    vertex 76.2543251302763 50.79999999999999 3620.3288413205983
    vertex 76.19999999999999 50.79999999999999 3619.5000000000014
  endloop
endfacet
facet normal 0.9978589232386029 0.0 -0.06540312923015242
  outer loop
    vertex 76.2543251302763 50.79999999999999 3620.3288413205983
    vertex 76.19999999999999 57.15 3619.5000000000014
    vertex 76.2543251302763 57.15 3620.3288413205983
  endloop
endfacet
facet normal 1.0 0.0 0.0
  outer loop
    vertex 76.19999999999999 57.15 3530.6000000000013
    vertex 76.19999999999999 50.79999999999999 3619.5000000000014
    vertex 76.19999999999999 50.79999999999999 3530.6000000000013
  endloop
endfacet
facet normal 1.0 0.0 0.0
  outer loop
    vertex 76.19999999999999 50.79999999999999 3619.5000000000014
    vertex 76.19999999999999 57.15 3530.6000000000013
    vertex 76.19999999999999 57.15 3619.5000000000014
  endloop
endfacet
facet normal 0.896872741532719 0.0 0.442288690218939
  outer loop
    vertex 77.05073868596881 57.15 3527.425000000001
    vertex 76.68336496855333 50.79999999999999 3528.1699602044832
    vertex 77.05073868596881 50.79999999999999 3527.425000000001
  endloop
endfacet
facet normal 0.896872741532719 0.0 0.442288690218939
  outer loop
    vertex 76.68336496855333 50.79999999999999 3528.1699602044832
    vertex 77.05073868596881 57.15 3527.425000000001
    vertex 76.68336496855333 57.15 3528.1699602044832
  endloop
endfacet
facet normal 0.980785280403242 0.0 0.1950903220160704
  outer loop
    vertex 76.4163710030644 57.15 3528.9564990636
    vertex 76.2543251302763 50.79999999999999 3529.771158679404
    vertex 76.4163710030644 50.79999999999999 3528.9564990636
  endloop
endfacet
facet normal 0.980785280403242 0.0 0.1950903220160704
  outer loop
    vertex 76.2543251302763 50.79999999999999 3529.771158679404
    vertex 76.4163710030644 57.15 3528.9564990636
    vertex 76.2543251302763 57.15 3529.771158679404
  endloop
endfacet
facet normal 0.9469301294950736 0.0 0.32143946530325596
  outer loop
    vertex 76.68336496855333 57.15 3528.1699602044832
    vertex 76.4163710030644 50.79999999999999 3528.9564990636
    vertex 76.68336496855333 50.79999999999999 3528.1699602044832
  endloop
endfacet
facet normal 0.9469301294950736 0.0 0.32143946530325596
  outer loop
    vertex 76.4163710030644 50.79999999999999 3528.9564990636
    vertex 76.68336496855333 57.15 3528.1699602044832
    vertex 76.4163710030644 57.15 3528.9564990636
  endloop
endfacet
facet normal 0.6593458150999754 0.0 0.7518398074790595
  outer loop
    vertex 78.68436492579461 50.79999999999999 3525.562206289152
    vertex 78.05987193946541 57.15 3526.1098719394668
    vertex 78.05987193946541 50.79999999999999 3526.1098719394668
  endloop
endfacet
facet normal 0.6593458150999754 0.0 0.7518398074790595
  outer loop
    vertex 78.05987193946541 57.15 3526.1098719394668
    vertex 78.68436492579461 50.79999999999999 3525.562206289152
    vertex 78.68436492579461 57.15 3525.562206289152
  endloop
endfacet
facet normal 0.8314696123025496 0.0 0.5555702330195956
  outer loop
    vertex 77.51220628915065 57.15 3526.734364925796
    vertex 77.05073868596881 50.79999999999999 3527.425000000001
    vertex 77.51220628915065 50.79999999999999 3526.734364925796
  endloop
endfacet
facet normal 0.8314696123025496 0.0 0.5555702330195956
  outer loop
    vertex 77.05073868596881 50.79999999999999 3527.425000000001
    vertex 77.51220628915065 57.15 3526.734364925796
    vertex 77.05073868596881 57.15 3527.425000000001
  endloop
endfacet
facet normal 0.7518398074789888 0.0 0.6593458151000559
  outer loop
    vertex 78.05987193946541 57.15 3526.1098719394668
    vertex 77.51220628915065 50.79999999999999 3526.734364925796
    vertex 78.05987193946541 50.79999999999999 3526.1098719394668
  endloop
endfacet
facet normal 0.7518398074789888 0.0 0.6593458151000559
  outer loop
    vertex 77.51220628915065 50.79999999999999 3526.734364925796
    vertex 78.05987193946541 57.15 3526.1098719394668
    vertex 77.51220628915065 57.15 3526.734364925796
  endloop
endfacet
facet normal -0.06540312923027718 0.0 0.9978589232385949
  outer loop
    vertex 527.8788413205973 50.79999999999999 3524.3043251302774
    vertex 527.05 57.15 3524.2500000000014
    vertex 527.05 50.79999999999999 3524.2500000000014
  endloop
endfacet
facet normal -0.06540312923027718 0.0 0.9978589232385949
  outer loop
    vertex 527.05 57.15 3524.2500000000014
    vertex 527.8788413205973 50.79999999999999 3524.3043251302774
    vertex 527.8788413205973 57.15 3524.3043251302774
  endloop
endfacet
facet normal -0.896872741532684 0.0 0.44228869021901
  outer loop
    vertex 532.9166350314467 57.15 3528.1699602044832
    vertex 532.5492613140311 50.79999999999999 3527.425000000001
    vertex 532.9166350314467 50.79999999999999 3528.1699602044832
  endloop
endfacet
facet normal -0.896872741532684 0.0 0.44228869021901
  outer loop
    vertex 532.5492613140311 50.79999999999999 3527.425000000001
    vertex 532.9166350314467 57.15 3528.1699602044832
    vertex 532.5492613140311 57.15 3527.425000000001
  endloop
endfacet
facet normal 0.0 0.0 1.0
  outer loop
    vertex 527.05 50.79999999999999 3524.2500000000014
    vertex 82.55 57.15 3524.2500000000014
    vertex 82.55 50.79999999999999 3524.2500000000014
  endloop
endfacet
facet normal 0.0 0.0 1.0
  outer loop
    vertex 82.55 57.15 3524.2500000000014
    vertex 527.05 50.79999999999999 3524.2500000000014
    vertex 527.05 57.15 3524.2500000000014
  endloop
endfacet
facet normal -0.5555702330195792 0.0 0.8314696123025607
  outer loop
    vertex 530.9156350742054 50.79999999999999 3525.562206289152
    vertex 530.225 57.15 3525.10073868597
    vertex 530.225 50.79999999999999 3525.10073868597
  endloop
endfacet
facet normal -0.5555702330195792 0.0 0.8314696123025607
  outer loop
    vertex 530.225 57.15 3525.10073868597
    vertex 530.9156350742054 50.79999999999999 3525.562206289152
    vertex 530.9156350742054 57.15 3525.562206289152
  endloop
endfacet
facet normal -0.8314696123025607 0.0 0.5555702330195792
  outer loop
    vertex 532.5492613140311 57.15 3527.425000000001
    vertex 532.0877937108493 50.79999999999999 3526.734364925796
    vertex 532.5492613140311 50.79999999999999 3527.425000000001
  endloop
endfacet
facet normal -0.8314696123025607 0.0 0.5555702330195792
  outer loop
    vertex 532.0877937108493 50.79999999999999 3526.734364925796
    vertex 532.5492613140311 57.15 3527.425000000001
    vertex 532.0877937108493 57.15 3526.734364925796
  endloop
endfacet
facet normal -0.32143946530322637 0.0 0.9469301294950838
  outer loop
    vertex 529.4800397955182 50.79999999999999 3524.7333649685543
    vertex 528.693500936401 57.15 3524.4663710030654
    vertex 528.693500936401 50.79999999999999 3524.4663710030654
  endloop
endfacet
facet normal -0.32143946530322637 0.0 0.9469301294950838
  outer loop
    vertex 528.693500936401 57.15 3524.4663710030654
    vertex 529.4800397955182 50.79999999999999 3524.7333649685543
    vertex 529.4800397955182 57.15 3524.7333649685543
  endloop
endfacet
facet normal 0.44228869021924416 0.0 0.8968727415325688
  outer loop
    vertex 80.11996020448167 50.79999999999999 3524.7333649685543
    vertex 79.375 57.15 3525.10073868597
    vertex 79.375 50.79999999999999 3525.10073868597
  endloop
endfacet
facet normal 0.44228869021924416 0.0 0.8968727415325688
  outer loop
    vertex 79.375 57.15 3525.10073868597
    vertex 80.11996020448167 50.79999999999999 3524.7333649685543
    vertex 80.11996020448167 57.15 3524.7333649685543
  endloop
endfacet
facet normal -0.19509032201579193 0.0 0.9807852804032974
  outer loop
    vertex 528.693500936401 50.79999999999999 3524.4663710030654
    vertex 527.8788413205973 57.15 3524.3043251302774
    vertex 527.8788413205973 50.79999999999999 3524.3043251302774
  endloop
endfacet
facet normal -0.19509032201579193 0.0 0.9807852804032974
  outer loop
    vertex 527.8788413205973 57.15 3524.3043251302774
    vertex 528.693500936401 50.79999999999999 3524.4663710030654
    vertex 528.693500936401 57.15 3524.4663710030654
  endloop
endfacet
facet normal -0.6593458150999618 0.0 0.7518398074790712
  outer loop
    vertex 531.5401280605346 50.79999999999999 3526.1098719394668
    vertex 530.9156350742054 57.15 3525.562206289152
    vertex 530.9156350742054 50.79999999999999 3525.562206289152
  endloop
endfacet
facet normal -0.6593458150999618 0.0 0.7518398074790712
  outer loop
    vertex 530.9156350742054 57.15 3525.562206289152
    vertex 531.5401280605346 50.79999999999999 3526.1098719394668
    vertex 531.5401280605346 57.15 3526.1098719394668
  endloop
endfacet
facet normal -0.7518398074790175 0.0 0.6593458151000233
  outer loop
    vertex 532.0877937108493 57.15 3526.734364925796
    vertex 531.5401280605346 50.79999999999999 3526.1098719394668
    vertex 532.0877937108493 50.79999999999999 3526.734364925796
  endloop
endfacet
facet normal -0.7518398074790175 0.0 0.6593458151000233
  outer loop
    vertex 531.5401280605346 50.79999999999999 3526.1098719394668
    vertex 532.0877937108493 57.15 3526.734364925796
    vertex 531.5401280605346 57.15 3526.1098719394668
  endloop
endfacet
facet normal 0.3214394653031985 0.0 0.9469301294950933
  outer loop
    vertex 80.906499063599 50.79999999999999 3524.4663710030654
    vertex 80.11996020448167 57.15 3524.7333649685543
    vertex 80.11996020448167 50.79999999999999 3524.7333649685543
  endloop
endfacet
facet normal 0.3214394653031985 0.0 0.9469301294950933
  outer loop
    vertex 80.11996020448167 57.15 3524.7333649685543
    vertex 80.906499063599 50.79999999999999 3524.4663710030654
    vertex 80.906499063599 57.15 3524.4663710030654
  endloop
endfacet
facet normal 0.19509032201580948 0.0 0.9807852804032939
  outer loop
    vertex 81.72115867940268 50.79999999999999 3524.3043251302774
    vertex 80.906499063599 57.15 3524.4663710030654
    vertex 80.906499063599 50.79999999999999 3524.4663710030654
  endloop
endfacet
facet normal 0.19509032201580948 0.0 0.9807852804032939
  outer loop
    vertex 80.906499063599 57.15 3524.4663710030654
    vertex 81.72115867940268 50.79999999999999 3524.3043251302774
    vertex 81.72115867940268 57.15 3524.3043251302774
  endloop
endfacet
facet normal -0.442288690219228 0.0 0.8968727415325767
  outer loop
    vertex 530.225 50.79999999999999 3525.10073868597
    vertex 529.4800397955182 57.15 3524.7333649685543
    vertex 529.4800397955182 50.79999999999999 3524.7333649685543
  endloop
endfacet
facet normal -0.442288690219228 0.0 0.8968727415325767
  outer loop
    vertex 529.4800397955182 57.15 3524.7333649685543
    vertex 530.225 50.79999999999999 3525.10073868597
    vertex 530.225 57.15 3525.10073868597
  endloop
endfacet
facet normal -0.9469301294950944 0.0 0.32143946530319506
  outer loop
    vertex 533.1836289969356 57.15 3528.9564990636
    vertex 532.9166350314467 50.79999999999999 3528.1699602044832
    vertex 533.1836289969356 50.79999999999999 3528.9564990636
  endloop
endfacet
facet normal -0.9469301294950944 0.0 0.32143946530319506
  outer loop
    vertex 532.9166350314467 50.79999999999999 3528.1699602044832
    vertex 533.1836289969356 57.15 3528.9564990636
    vertex 532.9166350314467 57.15 3528.1699602044832
  endloop
endfacet
facet normal -0.9978589232386015 0.0 0.06540312923017609
  outer loop
    vertex 533.4 57.15 3530.6000000000013
    vertex 533.3456748697237 50.79999999999999 3529.771158679404
    vertex 533.4 50.79999999999999 3530.6000000000013
  endloop
endfacet
facet normal -0.9978589232386015 0.0 0.06540312923017609
  outer loop
    vertex 533.3456748697237 50.79999999999999 3529.771158679404
    vertex 533.4 57.15 3530.6000000000013
    vertex 533.3456748697237 57.15 3529.771158679404
  endloop
endfacet
endsolid pdp11-2
