solid pdp11-2
facet normal 0.0 0.0 1.0
  outer loop
    vertex 57.15 82.55 3619.5000000000014
    vertex 63.5 88.89999999999999 3619.5000000000014
    vertex 57.15 114.3 3619.5000000000014
  endloop
endfacet
facet normal 0.0 0.0 1.0
  outer loop
    vertex 63.5 88.89999999999999 3619.5000000000014
    vertex 57.15 82.55 3619.5000000000014
    vertex 552.4499999999999 82.55 3619.5000000000014
  endloop
endfacet
facet normal 0.0 0.0 1.0
  outer loop
    vertex 63.5 88.89999999999999 3619.5000000000014
    vertex 552.4499999999999 82.55 3619.5000000000014
    vertex 546.1 88.89999999999999 3619.5000000000014
  endloop
endfacet
facet normal 0.0 0.0 1.0
  outer loop
    vertex 546.1 88.89999999999999 3619.5000000000014
    vertex 552.4499999999999 82.55 3619.5000000000014
    vertex 546.1 120.64999999999999 3619.5000000000014
  endloop
endfacet
facet normal 0.0 0.0 1.0
  outer loop
    vertex 546.1 120.64999999999999 3619.5000000000014
    vertex 552.4499999999999 82.55 3619.5000000000014
    vertex 552.4499999999999 114.3 3619.5000000000014
  endloop
endfacet
facet normal 0.0 0.0 1.0
  outer loop
    vertex 546.1 120.64999999999999 3619.5000000000014
    vertex 552.4499999999999 114.3 3619.5000000000014
    vertex 558.8 120.64999999999999 3619.5000000000014
  endloop
endfacet
facet normal 0.0 0.0 1.0
  outer loop
    vertex 558.8 120.64999999999999 3619.5000000000014
    vertex 552.4499999999999 114.3 3619.5000000000014
    vertex 558.8 114.3 3619.5000000000014
  endloop
endfacet
facet normal 0.0 0.0 1.0
  outer loop
    vertex 57.15 114.3 3619.5000000000014
    vertex 50.8 120.64999999999999 3619.5000000000014
    vertex 50.8 114.3 3619.5000000000014
  endloop
endfacet
facet normal 0.0 0.0 1.0
  outer loop
    vertex 50.8 120.64999999999999 3619.5000000000014
    vertex 57.15 114.3 3619.5000000000014
    vertex 63.5 120.64999999999999 3619.5000000000014
  endloop
endfacet
facet normal 0.0 0.0 1.0
  outer loop
    vertex 63.5 120.64999999999999 3619.5000000000014
    vertex 57.15 114.3 3619.5000000000014
    vertex 63.5 88.89999999999999 3619.5000000000014
  endloop
endfacet
facet normal 1.0 0.0 0.0
  outer loop
    vertex 558.8 120.64999999999999 3505.200000000001
    vertex 558.8 114.3 3619.5000000000014
    vertex 558.8 114.3 3505.200000000001
  endloop
endfacet
facet normal 1.0 0.0 0.0
  outer loop
    vertex 558.8 114.3 3619.5000000000014
    vertex 558.8 120.64999999999999 3505.200000000001
    vertex 558.8 120.64999999999999 3619.5000000000014
  endloop
endfacet
facet normal 0.0 1.0 0.0
  outer loop
    vertex 546.1 120.64999999999999 3619.5000000000014
    vertex 558.8 120.64999999999999 3505.200000000001
    vertex 546.1 120.64999999999999 3505.200000000001
  endloop
endfacet
facet normal 0.0 1.0 0.0
  outer loop
    vertex 558.8 120.64999999999999 3505.200000000001
    vertex 546.1 120.64999999999999 3619.5000000000014
    vertex 558.8 120.64999999999999 3619.5000000000014
  endloop
endfacet
facet normal 1.0 0.0 0.0
  outer loop
    vertex 63.5 120.64999999999999 3505.200000000001
    vertex 63.5 88.89999999999999 3619.5000000000014
    vertex 63.5 88.89999999999999 3505.200000000001
  endloop
endfacet
facet normal 1.0 0.0 0.0
  outer loop
    vertex 63.5 88.89999999999999 3619.5000000000014
    vertex 63.5 120.64999999999999 3505.200000000001
    vertex 63.5 120.64999999999999 3619.5000000000014
  endloop
endfacet
facet normal 0.0 0.0 -1.0
  outer loop
    vertex 546.1 120.64999999999999 3505.200000000001
    vertex 552.4499999999999 114.3 3505.200000000001
    vertex 546.1 88.89999999999999 3505.200000000001
  endloop
endfacet
facet normal 0.0 0.0 -1.0
  outer loop
    vertex 552.4499999999999 114.3 3505.200000000001
    vertex 546.1 120.64999999999999 3505.200000000001
    vertex 558.8 120.64999999999999 3505.200000000001
  endloop
endfacet
facet normal 0.0 0.0 -1.0
  outer loop
    vertex 552.4499999999999 114.3 3505.200000000001
    vertex 558.8 120.64999999999999 3505.200000000001
    vertex 558.8 114.3 3505.200000000001
  endloop
endfacet
facet normal 0.0 0.0 -1.0
  outer loop
    vertex 63.5 120.64999999999999 3505.200000000001
    vertex 50.8 114.3 3505.200000000001
    vertex 50.8 120.64999999999999 3505.200000000001
  endloop
endfacet
facet normal 0.0 0.0 -1.0
  outer loop
    vertex 50.8 114.3 3505.200000000001
    vertex 63.5 120.64999999999999 3505.200000000001
    vertex 57.15 114.3 3505.200000000001
  endloop
endfacet
facet normal 0.0 0.0 -1.0
  outer loop
    vertex 57.15 114.3 3505.200000000001
    vertex 63.5 120.64999999999999 3505.200000000001
    vertex 57.15 82.55 3505.200000000001
  endloop
endfacet
facet normal 0.0 0.0 -1.0
  outer loop
    vertex 57.15 82.55 3505.200000000001
    vertex 63.5 120.64999999999999 3505.200000000001
    vertex 63.5 88.89999999999999 3505.200000000001
  endloop
endfacet
facet normal 0.0 0.0 -1.0
  outer loop
    vertex 57.15 82.55 3505.200000000001
    vertex 63.5 88.89999999999999 3505.200000000001
    vertex 552.4499999999999 82.55 3505.200000000001
  endloop
endfacet
facet normal 0.0 0.0 -1.0
  outer loop
    vertex 552.4499999999999 82.55 3505.200000000001
    vertex 63.5 88.89999999999999 3505.200000000001
    vertex 546.1 88.89999999999999 3505.200000000001
  endloop
endfacet
facet normal 0.0 0.0 -1.0
  outer loop
    vertex 552.4499999999999 82.55 3505.200000000001
    vertex 546.1 88.89999999999999 3505.200000000001
    vertex 552.4499999999999 114.3 3505.200000000001
  endloop
endfacet
facet normal -1.0 0.0 0.0
  outer loop
    vertex 50.8 120.64999999999999 3619.5000000000014
    vertex 50.8 114.3 3505.200000000001
    vertex 50.8 114.3 3619.5000000000014
  endloop
endfacet
facet normal -1.0 0.0 0.0
  outer loop
    vertex 50.8 114.3 3505.200000000001
    vertex 50.8 120.64999999999999 3619.5000000000014
    vertex 50.8 120.64999999999999 3505.200000000001
  endloop
endfacet
facet normal 0.0 1.0 0.0
  outer loop
    vertex 63.5 88.89999999999999 3619.5000000000014
    vertex 546.1 88.89999999999999 3505.200000000001
    vertex 63.5 88.89999999999999 3505.200000000001
  endloop
endfacet
facet normal 0.0 1.0 0.0
  outer loop
    vertex 546.1 88.89999999999999 3505.200000000001
    vertex 63.5 88.89999999999999 3619.5000000000014
    vertex 546.1 88.89999999999999 3619.5000000000014
  endloop
endfacet
facet normal 1.0 0.0 0.0
  outer loop
    vertex 552.4499999999999 114.3 3505.200000000001
    vertex 552.4499999999999 82.55 3619.5000000000014
    vertex 552.4499999999999 82.55 3505.200000000001
  endloop
endfacet
facet normal 1.0 0.0 0.0
  outer loop
    vertex 552.4499999999999 82.55 3619.5000000000014
    vertex 552.4499999999999 114.3 3505.200000000001
    vertex 552.4499999999999 114.3 3619.5000000000014
  endloop
endfacet
facet normal -0.0 -1.0 -0.0
  outer loop
    vertex 558.8 114.3 3619.5000000000014
    vertex 552.4499999999999 114.3 3505.200000000001
    vertex 558.8 114.3 3505.200000000001
  endloop
endfacet
facet normal -0.0 -1.0 -0.0
  outer loop
    vertex 552.4499999999999 114.3 3505.200000000001
    vertex 558.8 114.3 3619.5000000000014
    vertex 552.4499999999999 114.3 3619.5000000000014
  endloop
endfacet
facet normal -0.0 -1.0 -0.0
  outer loop
    vertex 57.15 114.3 3619.5000000000014
    vertex 50.8 114.3 3505.200000000001
    vertex 57.15 114.3 3505.200000000001
  endloop
endfacet
facet normal -0.0 -1.0 -0.0
  outer loop
    vertex 50.8 114.3 3505.200000000001
    vertex 57.15 114.3 3619.5000000000014
    vertex 50.8 114.3 3619.5000000000014
  endloop
endfacet
facet normal -1.0 -2.2204460492503132e-17 -0.0
  outer loop
    vertex 57.15 114.3 3619.5000000000014
    vertex 57.15 82.55 3505.200000000001
    vertex 57.15 82.55 3619.5000000000014
  endloop
endfacet
facet normal -1.0 -2.2204460492503132e-17 -0.0
  outer loop
    vertex 57.15 82.55 3505.200000000001
    vertex 57.15 114.3 3619.5000000000014
    vertex 57.15 114.3 3505.200000000001
  endloop
endfacet
facet normal 0.0 1.0 0.0
  outer loop
    vertex 50.8 120.64999999999999 3619.5000000000014
    vertex 63.5 120.64999999999999 3505.200000000001
    vertex 50.8 120.64999999999999 3505.200000000001
  endloop
endfacet
facet normal 0.0 1.0 0.0
  outer loop
    vertex 63.5 120.64999999999999 3505.200000000001
    vertex 50.8 120.64999999999999 3619.5000000000014
    vertex 63.5 120.64999999999999 3619.5000000000014
  endloop
endfacet
facet normal -1.0 0.0 0.0
  outer loop
    vertex 546.1 120.64999999999999 3619.5000000000014
    vertex 546.1 88.89999999999999 3505.200000000001
    vertex 546.1 88.89999999999999 3619.5000000000014
  endloop
endfacet
facet normal -1.0 0.0 0.0
  outer loop
    vertex 546.1 88.89999999999999 3505.200000000001
    vertex 546.1 120.64999999999999 3619.5000000000014
    vertex 546.1 120.64999999999999 3505.200000000001
  endloop
endfacet
facet normal -0.0 -1.0 -0.0
  outer loop
    vertex 552.4499999999999 82.55 3619.5000000000014
    vertex 57.15 82.55 3505.200000000001
    vertex 552.4499999999999 82.55 3505.200000000001
  endloop
endfacet
facet normal -0.0 -1.0 -0.0
  outer loop
    vertex 57.15 82.55 3505.200000000001
    vertex 552.4499999999999 82.55 3619.5000000000014
    vertex 57.15 82.55 3619.5000000000014
  endloop
endfacet
facet normal 0.0 0.0 1.0
  outer loop
    vertex 546.1 88.89999999999999 3619.5000000000014
    vertex 63.5 120.64999999999999 3619.5000000000014
    vertex 63.5 88.89999999999999 3619.5000000000014
  endloop
endfacet
facet normal 0.0 0.0 1.0
  outer loop
    vertex 63.5 120.64999999999999 3619.5000000000014
    vertex 546.1 88.89999999999999 3619.5000000000014
    vertex 177.79999999999998 165.1 3619.5000000000014
  endloop
endfacet
facet normal 0.0 0.0 1.0
  outer loop
    vertex 63.5 120.64999999999999 3619.5000000000014
    vertex 177.79999999999998 165.1 3619.5000000000014
    vertex 63.5 831.8499999999999 3619.5000000000014
  endloop
endfacet
facet normal 0.0 0.0 1.0
  outer loop
    vertex 63.5 831.8499999999999 3619.5000000000014
    vertex 177.79999999999998 165.1 3619.5000000000014
    vertex 63.5 863.5999999999999 3619.5000000000014
  endloop
endfacet
facet normal 0.0 0.0 1.0
  outer loop
    vertex 177.79999999999998 165.1 3619.5000000000014
    vertex 546.1 88.89999999999999 3619.5000000000014
    vertex 431.79999999999995 165.1 3619.5000000000014
  endloop
endfacet
facet normal 0.0 0.0 1.0
  outer loop
    vertex 431.79999999999995 165.1 3619.5000000000014
    vertex 546.1 88.89999999999999 3619.5000000000014
    vertex 431.79999999999995 787.4 3619.5000000000014
  endloop
endfacet
facet normal 0.0 0.0 1.0
  outer loop
    vertex 558.8 120.64999999999999 3619.5000000000014
    vertex 546.1 831.8499999999999 3619.5000000000014
    vertex 546.1 120.64999999999999 3619.5000000000014
  endloop
endfacet
facet normal 0.0 0.0 1.0
  outer loop
    vertex 546.1 831.8499999999999 3619.5000000000014
    vertex 558.8 120.64999999999999 3619.5000000000014
    vertex 558.8 831.8499999999999 3619.5000000000014
  endloop
endfacet
facet normal 0.0 0.0 1.0
  outer loop
    vertex 63.5 863.5999999999999 3619.5000000000014
    vertex 177.79999999999998 787.4 3619.5000000000014
    vertex 546.1 863.5999999999999 3619.5000000000014
  endloop
endfacet
facet normal 0.0 0.0 1.0
  outer loop
    vertex 177.79999999999998 787.4 3619.5000000000014
    vertex 63.5 863.5999999999999 3619.5000000000014
    vertex 177.79999999999998 165.1 3619.5000000000014
  endloop
endfacet
facet normal 0.0 0.0 1.0
  outer loop
    vertex 546.1 863.5999999999999 3619.5000000000014
    vertex 177.79999999999998 787.4 3619.5000000000014
    vertex 431.79999999999995 787.4 3619.5000000000014
  endloop
endfacet
facet normal 0.0 0.0 1.0
  outer loop
    vertex 546.1 863.5999999999999 3619.5000000000014
    vertex 431.79999999999995 787.4 3619.5000000000014
    vertex 546.1 88.89999999999999 3619.5000000000014
  endloop
endfacet
facet normal 0.0 0.0 1.0
  outer loop
    vertex 546.1 863.5999999999999 3619.5000000000014
    vertex 546.1 88.89999999999999 3619.5000000000014
    vertex 546.1 120.64999999999999 3619.5000000000014
  endloop
endfacet
facet normal 0.0 0.0 1.0
  outer loop
    vertex 546.1 863.5999999999999 3619.5000000000014
    vertex 546.1 120.64999999999999 3619.5000000000014
    vertex 546.1 831.8499999999999 3619.5000000000014
  endloop
endfacet
facet normal 0.0 0.0 1.0
  outer loop
    vertex 63.5 120.64999999999999 3619.5000000000014
    vertex 50.8 831.8499999999999 3619.5000000000014
    vertex 50.8 120.64999999999999 3619.5000000000014
  endloop
endfacet
facet normal 0.0 0.0 1.0
  outer loop
    vertex 50.8 831.8499999999999 3619.5000000000014
    vertex 63.5 120.64999999999999 3619.5000000000014
    vertex 63.5 831.8499999999999 3619.5000000000014
  endloop
endfacet
facet normal 5.184692157421852e-17 -2.9235873701468805e-18 -1.0
  outer loop
    vertex 546.1 863.5999999999999 3581.4000000000015
    vertex 63.5 831.8499999999999 3581.4000000000015
    vertex 63.5 863.5999999999999 3581.4000000000015
  endloop
endfacet
facet normal 5.184692157421852e-17 -2.9235873701468805e-18 -1.0
  outer loop
    vertex 63.5 831.8499999999999 3581.4000000000015
    vertex 546.1 863.5999999999999 3581.4000000000015
    vertex 253.99999999999994 719.8131810244988 3581.4000000000015
  endloop
endfacet
facet normal 5.184692157421852e-17 -2.9235873701468805e-18 -1.0
  outer loop
    vertex 63.5 831.8499999999999 3581.4000000000015
    vertex 253.99999999999994 719.8131810244988 3581.4000000000015
    vertex 232.95795103144673 703.6670489685531 3581.4000000000015
  endloop
endfacet
facet normal 5.184692157421852e-17 -2.9235873701468805e-18 -1.0
  outer loop
    vertex 63.5 831.8499999999999 3581.4000000000015
    vertex 232.95795103144673 703.6670489685531 3581.4000000000015
    vertex 216.811818975501 682.6249999999999 3581.4000000000015
  endloop
endfacet
facet normal 5.184692157421852e-17 -2.9235873701468805e-18 -1.0
  outer loop
    vertex 63.5 831.8499999999999 3581.4000000000015
    vertex 216.811818975501 682.6249999999999 3581.4000000000015
    vertex 206.6619360490306 658.121014982416 3581.4000000000015
  endloop
endfacet
facet normal 5.184692157421852e-17 -2.9235873701468805e-18 -1.0
  outer loop
    vertex 63.5 831.8499999999999 3581.4000000000015
    vertex 206.6619360490306 658.121014982416 3581.4000000000015
    vertex 63.5 120.64999999999999 3581.4000000000015
  endloop
endfacet
facet normal 5.184692157421852e-17 -2.9235873701468805e-18 -1.0
  outer loop
    vertex 63.5 120.64999999999999 3581.4000000000015
    vertex 206.6619360490306 658.121014982416 3581.4000000000015
    vertex 63.5 88.89999999999999 3581.4000000000015
  endloop
endfacet
facet normal 5.184692157421852e-17 -2.9235873701468805e-18 -1.0
  outer loop
    vertex 63.5 88.89999999999999 3581.4000000000015
    vertex 206.6619360490306 658.121014982416 3581.4000000000015
    vertex 203.2 631.8249999999998 3581.4000000000015
  endloop
endfacet
facet normal 5.184692157421852e-17 -2.9235873701468805e-18 -1.0
  outer loop
    vertex 253.99999999999994 719.8131810244988 3581.4000000000015
    vertex 546.1 863.5999999999999 3581.4000000000015
    vertex 278.5039850175838 729.9630639509692 3581.4000000000015
  endloop
endfacet
facet normal 5.184692157421852e-17 -2.9235873701468805e-18 -1.0
  outer loop
    vertex 278.5039850175838 729.9630639509692 3581.4000000000015
    vertex 546.1 863.5999999999999 3581.4000000000015
    vertex 304.79999999999995 733.4249999999998 3581.4000000000015
  endloop
endfacet
facet normal 5.184692157421852e-17 -2.9235873701468805e-18 -1.0
  outer loop
    vertex 304.79999999999995 733.4249999999998 3581.4000000000015
    vertex 546.1 863.5999999999999 3581.4000000000015
    vertex 331.096014982416 729.9630639509693 3581.4000000000015
  endloop
endfacet
facet normal 5.184692157421852e-17 -2.9235873701468805e-18 -1.0
  outer loop
    vertex 331.096014982416 729.9630639509693 3581.4000000000015
    vertex 546.1 863.5999999999999 3581.4000000000015
    vertex 355.5999999999999 719.8131810244989 3581.4000000000015
  endloop
endfacet
facet normal 5.184692157421852e-17 -2.9235873701468805e-18 -1.0
  outer loop
    vertex 355.5999999999999 719.8131810244989 3581.4000000000015
    vertex 546.1 863.5999999999999 3581.4000000000015
    vertex 376.6420489685532 703.6670489685531 3581.4000000000015
  endloop
endfacet
facet normal 5.184692157421852e-17 -2.9235873701468805e-18 -1.0
  outer loop
    vertex 376.6420489685532 703.6670489685531 3581.4000000000015
    vertex 546.1 863.5999999999999 3581.4000000000015
    vertex 392.7881810244989 682.6249999999999 3581.4000000000015
  endloop
endfacet
facet normal 5.184692157421852e-17 -2.9235873701468805e-18 -1.0
  outer loop
    vertex 392.7881810244989 682.6249999999999 3581.4000000000015
    vertex 546.1 863.5999999999999 3581.4000000000015
    vertex 402.9380639509693 658.1210149824161 3581.4000000000015
  endloop
endfacet
facet normal 5.184692157421852e-17 -2.9235873701468805e-18 -1.0
  outer loop
    vertex 402.9380639509693 658.1210149824161 3581.4000000000015
    vertex 546.1 863.5999999999999 3581.4000000000015
    vertex 406.4 631.8249999999998 3581.4000000000015
  endloop
endfacet
facet normal 5.184692157421852e-17 -2.9235873701468805e-18 -1.0
  outer loop
    vertex 558.8 831.8499999999999 3581.4000000000015
    vertex 546.1 120.64999999999999 3581.4000000000015
    vertex 546.1 831.8499999999999 3581.4000000000015
  endloop
endfacet
facet normal 5.184692157421852e-17 -2.9235873701468805e-18 -1.0
  outer loop
    vertex 546.1 120.64999999999999 3581.4000000000015
    vertex 558.8 831.8499999999999 3581.4000000000015
    vertex 558.8 120.64999999999999 3581.4000000000015
  endloop
endfacet
facet normal 5.184692157421852e-17 -2.9235873701468805e-18 -1.0
  outer loop
    vertex 63.5 88.89999999999999 3581.4000000000015
    vertex 216.81181897550104 581.0249999999999 3581.4000000000015
    vertex 546.1 88.89999999999999 3581.4000000000015
  endloop
endfacet
facet normal 5.184692157421852e-17 -2.9235873701468805e-18 -1.0
  outer loop
    vertex 216.81181897550104 581.0249999999999 3581.4000000000015
    vertex 63.5 88.89999999999999 3581.4000000000015
    vertex 206.66193604903066 605.5289850175838 3581.4000000000015
  endloop
endfacet
facet normal 5.184692157421852e-17 -2.9235873701468805e-18 -1.0
  outer loop
    vertex 206.66193604903066 605.5289850175838 3581.4000000000015
    vertex 63.5 88.89999999999999 3581.4000000000015
    vertex 203.2 631.8249999999998 3581.4000000000015
  endloop
endfacet
facet normal 5.184692157421852e-17 -2.9235873701468805e-18 -1.0
  outer loop
    vertex 546.1 88.89999999999999 3581.4000000000015
    vertex 216.81181897550104 581.0249999999999 3581.4000000000015
    vertex 232.95795103144675 559.9829510314466 3581.4000000000015
  endloop
endfacet
facet normal 5.184692157421852e-17 -2.9235873701468805e-18 -1.0
  outer loop
    vertex 546.1 88.89999999999999 3581.4000000000015
    vertex 232.95795103144675 559.9829510314466 3581.4000000000015
    vertex 254.00000000000003 543.8368189755009 3581.4000000000015
  endloop
endfacet
facet normal 5.184692157421852e-17 -2.9235873701468805e-18 -1.0
  outer loop
    vertex 546.1 88.89999999999999 3581.4000000000015
    vertex 254.00000000000003 543.8368189755009 3581.4000000000015
    vertex 278.5039850175839 533.6869360490305 3581.4000000000015
  endloop
endfacet
facet normal 5.184692157421852e-17 -2.9235873701468805e-18 -1.0
  outer loop
    vertex 546.1 88.89999999999999 3581.4000000000015
    vertex 278.5039850175839 533.6869360490305 3581.4000000000015
    vertex 304.79999999999995 530.2249999999999 3581.4000000000015
  endloop
endfacet
facet normal 5.184692157421852e-17 -2.9235873701468805e-18 -1.0
  outer loop
    vertex 546.1 88.89999999999999 3581.4000000000015
    vertex 304.79999999999995 530.2249999999999 3581.4000000000015
    vertex 331.0960149824161 533.6869360490305 3581.4000000000015
  endloop
endfacet
facet normal 5.184692157421852e-17 -2.9235873701468805e-18 -1.0
  outer loop
    vertex 546.1 88.89999999999999 3581.4000000000015
    vertex 331.0960149824161 533.6869360490305 3581.4000000000015
    vertex 355.59999999999997 543.8368189755009 3581.4000000000015
  endloop
endfacet
facet normal 5.184692157421852e-17 -2.9235873701468805e-18 -1.0
  outer loop
    vertex 546.1 88.89999999999999 3581.4000000000015
    vertex 355.59999999999997 543.8368189755009 3581.4000000000015
    vertex 376.6420489685532 559.9829510314466 3581.4000000000015
  endloop
endfacet
facet normal 5.184692157421852e-17 -2.9235873701468805e-18 -1.0
  outer loop
    vertex 546.1 88.89999999999999 3581.4000000000015
    vertex 376.6420489685532 559.9829510314466 3581.4000000000015
    vertex 392.78818102449895 581.0249999999999 3581.4000000000015
  endloop
endfacet
facet normal 5.184692157421852e-17 -2.9235873701468805e-18 -1.0
  outer loop
    vertex 546.1 88.89999999999999 3581.4000000000015
    vertex 392.78818102449895 581.0249999999999 3581.4000000000015
    vertex 402.9380639509693 605.5289850175838 3581.4000000000015
  endloop
endfacet
facet normal 5.184692157421852e-17 -2.9235873701468805e-18 -1.0
  outer loop
    vertex 546.1 88.89999999999999 3581.4000000000015
    vertex 402.9380639509693 605.5289850175838 3581.4000000000015
    vertex 406.4 631.8249999999998 3581.4000000000015
  endloop
endfacet
facet normal 5.184692157421852e-17 -2.9235873701468805e-18 -1.0
  outer loop
    vertex 546.1 88.89999999999999 3581.4000000000015
    vertex 406.4 631.8249999999998 3581.4000000000015
    vertex 546.1 863.5999999999999 3581.4000000000015
  endloop
endfacet
facet normal 5.184692157421852e-17 -2.9235873701468805e-18 -1.0
  outer loop
    vertex 546.1 88.89999999999999 3581.4000000000015
    vertex 546.1 863.5999999999999 3581.4000000000015
    vertex 546.1 831.8499999999999 3581.4000000000015
  endloop
endfacet
facet normal 5.184692157421852e-17 -2.9235873701468805e-18 -1.0
  outer loop
    vertex 546.1 88.89999999999999 3581.4000000000015
    vertex 546.1 831.8499999999999 3581.4000000000015
    vertex 546.1 120.64999999999999 3581.4000000000015
  endloop
endfacet
facet normal 5.184692157421852e-17 -2.9235873701468805e-18 -1.0
  outer loop
    vertex 63.5 831.8499999999999 3581.4000000000015
    vertex 50.8 120.64999999999999 3581.4000000000015
    vertex 50.8 831.8499999999999 3581.4000000000015
  endloop
endfacet
facet normal 5.184692157421852e-17 -2.9235873701468805e-18 -1.0
  outer loop
    vertex 50.8 120.64999999999999 3581.4000000000015
    vertex 63.5 831.8499999999999 3581.4000000000015
    vertex 63.5 120.64999999999999 3581.4000000000015
  endloop
endfacet
facet normal 0.0 1.0 -2.9235873701468805e-18
  outer loop
    vertex 546.1 831.8499999999999 3619.5000000000014
    vertex 558.8 831.8499999999999 3581.4000000000015
    vertex 546.1 831.8499999999999 3581.4000000000015
  endloop
endfacet
facet normal 0.0 1.0 -2.9235873701468805e-18
  outer loop
    vertex 558.8 831.8499999999999 3581.4000000000015
    vertex 546.1 831.8499999999999 3619.5000000000014
    vertex 558.8 831.8499999999999 3619.5000000000014
  endloop
endfacet
facet normal 1.0 0.0 5.1846921574218517e-17
  outer loop
    vertex 558.8 831.8499999999999 3581.4000000000015
    vertex 558.8 120.64999999999999 3619.5000000000014
    vertex 558.8 120.64999999999999 3581.4000000000015
  endloop
endfacet
facet normal 1.0 0.0 5.1846921574218517e-17
  outer loop
    vertex 558.8 120.64999999999999 3619.5000000000014
    vertex 558.8 831.8499999999999 3581.4000000000015
    vertex 558.8 831.8499999999999 3619.5000000000014
  endloop
endfacet
facet normal 0.0 -1.0 2.9235873701468805e-18
  outer loop
    vertex 558.8 120.64999999999999 3619.5000000000014
    vertex 546.1 120.64999999999999 3581.4000000000015
    vertex 558.8 120.64999999999999 3581.4000000000015
  endloop
endfacet
facet normal 0.0 -1.0 2.9235873701468805e-18
  outer loop
    vertex 546.1 120.64999999999999 3581.4000000000015
    vertex 558.8 120.64999999999999 3619.5000000000014
    vertex 546.1 120.64999999999999 3619.5000000000014
  endloop
endfacet
facet normal 1.0 0.0 5.184692157421853e-17
  outer loop
    vertex 546.1 120.64999999999999 3581.4000000000015
    vertex 546.1 88.89999999999999 3619.5000000000014
    vertex 546.1 88.89999999999999 3581.4000000000015
  endloop
endfacet
facet normal 1.0 0.0 5.184692157421853e-17
  outer loop
    vertex 546.1 88.89999999999999 3619.5000000000014
    vertex 546.1 120.64999999999999 3581.4000000000015
    vertex 546.1 120.64999999999999 3619.5000000000014
  endloop
endfacet
facet normal 0.0 -1.0 2.92358737014688e-18
  outer loop
    vertex 546.1 88.89999999999999 3619.5000000000014
    vertex 63.5 88.89999999999999 3581.4000000000015
    vertex 546.1 88.89999999999999 3581.4000000000015
  endloop
endfacet
facet normal 0.0 -1.0 2.92358737014688e-18
  outer loop
    vertex 63.5 88.89999999999999 3581.4000000000015
    vertex 546.1 88.89999999999999 3619.5000000000014
    vertex 63.5 88.89999999999999 3619.5000000000014
  endloop
endfacet
facet normal -1.0 0.0 -5.184692157421853e-17
  outer loop
    vertex 63.5 120.64999999999999 3619.5000000000014
    vertex 63.5 88.89999999999999 3581.4000000000015
    vertex 63.5 88.89999999999999 3619.5000000000014
  endloop
endfacet
facet normal -1.0 0.0 -5.184692157421853e-17
  outer loop
    vertex 63.5 88.89999999999999 3581.4000000000015
    vertex 63.5 120.64999999999999 3619.5000000000014
    vertex 63.5 120.64999999999999 3581.4000000000015
  endloop
endfacet
facet normal 0.0 -1.0 2.9235873701468805e-18
  outer loop
    vertex 63.5 120.64999999999999 3619.5000000000014
    vertex 50.8 120.64999999999999 3581.4000000000015
    vertex 63.5 120.64999999999999 3581.4000000000015
  endloop
endfacet
facet normal 0.0 -1.0 2.9235873701468805e-18
  outer loop
    vertex 50.8 120.64999999999999 3581.4000000000015
    vertex 63.5 120.64999999999999 3619.5000000000014
    vertex 50.8 120.64999999999999 3619.5000000000014
  endloop
endfacet
facet normal -1.0 0.0 -5.1846921574218517e-17
  outer loop
    vertex 50.8 831.8499999999999 3619.5000000000014
    vertex 50.8 120.64999999999999 3581.4000000000015
    vertex 50.8 120.64999999999999 3619.5000000000014
  endloop
endfacet
facet normal -1.0 0.0 -5.1846921574218517e-17
  outer loop
    vertex 50.8 120.64999999999999 3581.4000000000015
    vertex 50.8 831.8499999999999 3619.5000000000014
    vertex 50.8 831.8499999999999 3581.4000000000015
  endloop
endfacet
facet normal 0.0 1.0 -2.9235873701468805e-18
  outer loop
    vertex 50.8 831.8499999999999 3619.5000000000014
    vertex 63.5 831.8499999999999 3581.4000000000015
    vertex 50.8 831.8499999999999 3581.4000000000015
  endloop
endfacet
facet normal 0.0 1.0 -2.9235873701468805e-18
  outer loop
    vertex 63.5 831.8499999999999 3581.4000000000015
    vertex 50.8 831.8499999999999 3619.5000000000014
    vertex 63.5 831.8499999999999 3619.5000000000014
  endloop
endfacet
facet normal -1.0 0.0 -5.184692157421853e-17
  outer loop
    vertex 63.5 863.5999999999999 3619.5000000000014
    vertex 63.5 831.8499999999999 3581.4000000000015
    vertex 63.5 831.8499999999999 3619.5000000000014
  endloop
endfacet
facet normal -1.0 0.0 -5.184692157421853e-17
  outer loop
    vertex 63.5 831.8499999999999 3581.4000000000015
    vertex 63.5 863.5999999999999 3619.5000000000014
    vertex 63.5 863.5999999999999 3581.4000000000015
  endloop
endfacet
facet normal 0.0 1.0 -2.92358737014688e-18
  outer loop
    vertex 63.5 863.5999999999999 3619.5000000000014
    vertex 546.1 863.5999999999999 3581.4000000000015
    vertex 63.5 863.5999999999999 3581.4000000000015
  endloop
endfacet
facet normal 0.0 1.0 -2.92358737014688e-18
  outer loop
    vertex 546.1 863.5999999999999 3581.4000000000015
    vertex 63.5 863.5999999999999 3619.5000000000014
    vertex 546.1 863.5999999999999 3619.5000000000014
  endloop
endfacet
facet normal 1.0 0.0 5.184692157421853e-17
  outer loop
    vertex 546.1 863.5999999999999 3581.4000000000015
    vertex 546.1 831.8499999999999 3619.5000000000014
    vertex 546.1 831.8499999999999 3581.4000000000015
  endloop
endfacet
facet normal 1.0 0.0 5.184692157421853e-17
  outer loop
    vertex 546.1 831.8499999999999 3619.5000000000014
    vertex 546.1 863.5999999999999 3581.4000000000015
    vertex 546.1 863.5999999999999 3619.5000000000014
  endloop
endfacet
facet normal -1.0 0.0 0.0
  outer loop
    vertex 177.79999999999998 787.4 3638.550000000001
    vertex 177.79999999999998 165.1 3619.5000000000014
    vertex 177.79999999999998 165.1 3638.550000000001
  endloop
endfacet
facet normal -1.0 0.0 0.0
  outer loop
    vertex 177.79999999999998 165.1 3619.5000000000014
    vertex 177.79999999999998 787.4 3638.550000000001
    vertex 177.79999999999998 787.4 3619.5000000000014
  endloop
endfacet
facet normal 1.0 0.0 2.5376526277146436e-15
  outer loop
    vertex 431.79999999999995 787.4 3619.5000000000014
    vertex 431.79999999999995 165.1 3638.550000000001
    vertex 431.79999999999995 165.1 3619.5000000000014
  endloop
endfacet
facet normal 1.0 0.0 2.5376526277146436e-15
  outer loop
    vertex 431.79999999999995 165.1 3638.550000000001
    vertex 431.79999999999995 787.4 3619.5000000000014
    vertex 431.79999999999995 787.4 3638.550000000001
  endloop
endfacet
facet normal -0.9238795325112871 0.3826834323650889 -9.804552871244287e-18
  outer loop
    vertex 402.9380639509693 605.5289850175838 3632.200000000001
    vertex 392.78818102449895 581.0249999999999 3581.4000000000015
    vertex 392.78818102449895 581.0249999999999 3632.200000000001
  endloop
endfacet
facet normal -0.9238795325112871 0.3826834323650889 -9.804552871244287e-18
  outer loop
    vertex 392.78818102449895 581.0249999999999 3581.4000000000015
    vertex 402.9380639509693 605.5289850175838 3632.200000000001
    vertex 402.9380639509693 605.5289850175838 3581.4000000000015
  endloop
endfacet
facet normal -0.7933533402912353 0.6087614290087204 -1.0163067058340866e-17
  outer loop
    vertex 392.78818102449895 581.0249999999999 3632.200000000001
    vertex 376.6420489685532 559.9829510314466 3581.4000000000015
    vertex 376.6420489685532 559.9829510314466 3632.200000000001
  endloop
endfacet
facet normal -0.7933533402912353 0.6087614290087204 -1.0163067058340866e-17
  outer loop
    vertex 376.6420489685532 559.9829510314466 3581.4000000000015
    vertex 392.78818102449895 581.0249999999999 3632.200000000001
    vertex 392.78818102449895 581.0249999999999 3581.4000000000015
  endloop
endfacet
facet normal -0.6087614290087192 0.7933533402912363 -1.2527738482142704e-17
  outer loop
    vertex 355.59999999999997 543.8368189755009 3632.200000000001
    vertex 376.6420489685532 559.9829510314466 3581.4000000000015
    vertex 355.59999999999997 543.8368189755009 3581.4000000000015
  endloop
endfacet
facet normal -0.6087614290087192 0.7933533402912363 -1.2527738482142704e-17
  outer loop
    vertex 376.6420489685532 559.9829510314466 3581.4000000000015
    vertex 355.59999999999997 543.8368189755009 3632.200000000001
    vertex 376.6420489685532 559.9829510314466 3632.200000000001
  endloop
endfacet
facet normal -0.38268343236509134 0.9238795325112862 -3.097442880783522e-16
  outer loop
    vertex 331.0960149824161 533.6869360490305 3632.200000000001
    vertex 355.59999999999997 543.8368189755009 3581.4000000000015
    vertex 331.0960149824161 533.6869360490305 3581.4000000000015
  endloop
endfacet
facet normal -0.38268343236509134 0.9238795325112862 -3.097442880783522e-16
  outer loop
    vertex 355.59999999999997 543.8368189755009 3581.4000000000015
    vertex 331.0960149824161 533.6869360490305 3632.200000000001
    vertex 355.59999999999997 543.8368189755009 3632.200000000001
  endloop
endfacet
facet normal -0.13052619222005085 0.9914448613738105 -3.4291814589314067e-16
  outer loop
    vertex 304.79999999999995 530.2249999999999 3632.200000000001
    vertex 331.0960149824161 533.6869360490305 3581.4000000000015
    vertex 304.79999999999995 530.2249999999999 3581.4000000000015
  endloop
endfacet
facet normal -0.13052619222005085 0.9914448613738105 -3.4291814589314067e-16
  outer loop
    vertex 331.0960149824161 533.6869360490305 3581.4000000000015
    vertex 304.79999999999995 530.2249999999999 3632.200000000001
    vertex 331.0960149824161 533.6869360490305 3632.200000000001
  endloop
endfacet
facet normal 0.13052619222005082 0.9914448613738105 -3.34811243468734e-16
  outer loop
    vertex 278.5039850175839 533.6869360490305 3632.200000000001
    vertex 304.79999999999995 530.2249999999999 3581.4000000000015
    vertex 278.5039850175839 533.6869360490305 3581.4000000000015
  endloop
endfacet
facet normal 0.13052619222005082 0.9914448613738105 -3.34811243468734e-16
  outer loop
    vertex 304.79999999999995 530.2249999999999 3581.4000000000015
    vertex 278.5039850175839 533.6869360490305 3632.200000000001
    vertex 304.79999999999995 530.2249999999999 3632.200000000001
  endloop
endfacet
facet normal 0.38268343236509134 0.9238795325112862 6.863187009881965e-17
  outer loop
    vertex 254.00000000000003 543.8368189755009 3632.200000000001
    vertex 278.5039850175839 533.6869360490305 3581.4000000000015
    vertex 254.00000000000003 543.8368189755009 3581.4000000000015
  endloop
endfacet
facet normal 0.38268343236509134 0.9238795325112862 6.863187009881965e-17
  outer loop
    vertex 278.5039850175839 533.6869360490305 3581.4000000000015
    vertex 254.00000000000003 543.8368189755009 3632.200000000001
    vertex 278.5039850175839 533.6869360490305 3632.200000000001
  endloop
endfacet
facet normal 0.6087614290087189 0.7933533402912365 3.757819538230864e-16
  outer loop
    vertex 232.95795103144675 559.9829510314466 3632.200000000001
    vertex 254.00000000000003 543.8368189755009 3581.4000000000015
    vertex 232.95795103144675 559.9829510314466 3581.4000000000015
  endloop
endfacet
facet normal 0.6087614290087189 0.7933533402912365 3.757819538230864e-16
  outer loop
    vertex 254.00000000000003 543.8368189755009 3581.4000000000015
    vertex 232.95795103144675 559.9829510314466 3632.200000000001
    vertex 254.00000000000003 543.8368189755009 3632.200000000001
  endloop
endfacet
facet normal 0.7933533402912359 0.6087614290087195 -2.364671423794086e-18
  outer loop
    vertex 216.81181897550104 581.0249999999999 3581.4000000000015
    vertex 232.95795103144675 559.9829510314466 3632.200000000001
    vertex 232.95795103144675 559.9829510314466 3581.4000000000015
  endloop
endfacet
facet normal 0.7933533402912359 0.6087614290087195 -2.364671423794086e-18
  outer loop
    vertex 232.95795103144675 559.9829510314466 3632.200000000001
    vertex 216.81181897550104 581.0249999999999 3581.4000000000015
    vertex 216.81181897550104 581.0249999999999 3632.200000000001
  endloop
endfacet
facet normal 0.9238795325112865 0.38268343236509034 -9.804552871244324e-18
  outer loop
    vertex 206.66193604903066 605.5289850175838 3581.4000000000015
    vertex 216.81181897550104 581.0249999999999 3632.200000000001
    vertex 216.81181897550104 581.0249999999999 3581.4000000000015
  endloop
endfacet
facet normal 0.9238795325112865 0.38268343236509034 -9.804552871244324e-18
  outer loop
    vertex 216.81181897550104 581.0249999999999 3632.200000000001
    vertex 206.66193604903066 605.5289850175838 3581.4000000000015
    vertex 206.66193604903066 605.5289850175838 3632.200000000001
  endloop
endfacet
facet normal 0.9914448613738105 0.13052619222005193 -3.3441503981242684e-18
  outer loop
    vertex 203.2 631.8249999999998 3581.4000000000015
    vertex 206.66193604903066 605.5289850175838 3632.200000000001
    vertex 206.66193604903066 605.5289850175838 3581.4000000000015
  endloop
endfacet
facet normal 0.9914448613738105 0.13052619222005193 -3.3441503981242684e-18
  outer loop
    vertex 206.66193604903066 605.5289850175838 3632.200000000001
    vertex 203.2 631.8249999999998 3581.4000000000015
    vertex 203.2 631.8249999999998 3632.200000000001
  endloop
endfacet
facet normal -0.9914448613738105 0.13052619222005196 -3.3441503981473715e-18
  outer loop
    vertex 406.4 631.8249999999998 3632.200000000001
    vertex 402.9380639509693 605.5289850175838 3581.4000000000015
    vertex 402.9380639509693 605.5289850175838 3632.200000000001
  endloop
endfacet
facet normal -0.9914448613738105 0.13052619222005196 -3.3441503981473715e-18
  outer loop
    vertex 402.9380639509693 605.5289850175838 3581.4000000000015
    vertex 406.4 631.8249999999998 3632.200000000001
    vertex 406.4 631.8249999999998 3581.4000000000015
  endloop
endfacet
facet normal -0.9914448613738105 -0.1305261922200515 3.344150398121216e-18
  outer loop
    vertex 402.9380639509693 658.1210149824161 3632.200000000001
    vertex 406.4 631.8249999999998 3581.4000000000015
    vertex 406.4 631.8249999999998 3632.200000000001
  endloop
endfacet
facet normal -0.9914448613738105 -0.1305261922200515 3.344150398121216e-18
  outer loop
    vertex 406.4 631.8249999999998 3581.4000000000015
    vertex 402.9380639509693 658.1210149824161 3632.200000000001
    vertex 402.9380639509693 658.1210149824161 3581.4000000000015
  endloop
endfacet
facet normal -0.923879532511286 -0.38268343236509156 1.5722123999942103e-17
  outer loop
    vertex 392.7881810244989 682.6249999999999 3632.200000000001
    vertex 402.9380639509693 658.1210149824161 3581.4000000000015
    vertex 402.9380639509693 658.1210149824161 3632.200000000001
  endloop
endfacet
facet normal -0.923879532511286 -0.38268343236509156 1.5722123999942103e-17
  outer loop
    vertex 402.9380639509693 658.1210149824161 3581.4000000000015
    vertex 392.7881810244989 682.6249999999999 3632.200000000001
    vertex 392.7881810244989 682.6249999999999 3581.4000000000015
  endloop
endfacet
facet normal -0.793353340291236 -0.6087614290087194 -7.79839563454679e-18
  outer loop
    vertex 376.6420489685532 703.6670489685531 3632.200000000001
    vertex 392.7881810244989 682.6249999999999 3581.4000000000015
    vertex 392.7881810244989 682.6249999999999 3632.200000000001
  endloop
endfacet
facet normal -0.793353340291236 -0.6087614290087194 -7.79839563454679e-18
  outer loop
    vertex 392.7881810244989 682.6249999999999 3581.4000000000015
    vertex 376.6420489685532 703.6670489685531 3632.200000000001
    vertex 376.6420489685532 703.6670489685531 3581.4000000000015
  endloop
endfacet
facet normal -0.6087614290087197 -0.7933533402912359 7.798395634483599e-18
  outer loop
    vertex 376.6420489685532 703.6670489685531 3632.200000000001
    vertex 355.5999999999999 719.8131810244989 3581.4000000000015
    vertex 376.6420489685532 703.6670489685531 3581.4000000000015
  endloop
endfacet
facet normal -0.6087614290087197 -0.7933533402912359 7.798395634483599e-18
  outer loop
    vertex 355.5999999999999 719.8131810244989 3581.4000000000015
    vertex 376.6420489685532 703.6670489685531 3632.200000000001
    vertex 355.5999999999999 719.8131810244989 3632.200000000001
  endloop
endfacet
facet normal -0.38268343236508945 -0.9238795325112868 -1.1835142257408876e-17
  outer loop
    vertex 355.5999999999999 719.8131810244989 3632.200000000001
    vertex 331.096014982416 729.9630639509693 3581.4000000000015
    vertex 355.5999999999999 719.8131810244989 3581.4000000000015
  endloop
endfacet
facet normal -0.38268343236508945 -0.9238795325112868 -1.1835142257408876e-17
  outer loop
    vertex 331.096014982416 729.9630639509693 3581.4000000000015
    vertex 355.5999999999999 719.8131810244989 3632.200000000001
    vertex 331.096014982416 729.9630639509693 3632.200000000001
  endloop
endfacet
facet normal -0.1305261922200505 -0.9914448613738105 1.6898238063107578e-19
  outer loop
    vertex 331.096014982416 729.9630639509693 3632.200000000001
    vertex 304.79999999999995 733.4249999999998 3581.4000000000015
    vertex 331.096014982416 729.9630639509693 3581.4000000000015
  endloop
endfacet
facet normal -0.1305261922200505 -0.9914448613738105 1.6898238063107578e-19
  outer loop
    vertex 304.79999999999995 733.4249999999998 3581.4000000000015
    vertex 331.096014982416 729.9630639509693 3632.200000000001
    vertex 304.79999999999995 733.4249999999998 3632.200000000001
  endloop
endfacet
facet normal 0.13052619222005318 -0.9914448613738103 3.1751680174831245e-18
  outer loop
    vertex 304.79999999999995 733.4249999999998 3632.200000000001
    vertex 278.5039850175838 729.9630639509692 3581.4000000000015
    vertex 304.79999999999995 733.4249999999998 3581.4000000000015
  endloop
endfacet
facet normal 0.13052619222005318 -0.9914448613738103 3.1751680174831245e-18
  outer loop
    vertex 278.5039850175838 729.9630639509692 3581.4000000000015
    vertex 304.79999999999995 733.4249999999998 3632.200000000001
    vertex 278.5039850175838 729.9630639509692 3632.200000000001
  endloop
endfacet
facet normal 0.3826834323650895 -0.9238795325112868 -1.1835142257408876e-17
  outer loop
    vertex 278.5039850175838 729.9630639509692 3632.200000000001
    vertex 253.99999999999994 719.8131810244988 3581.4000000000015
    vertex 278.5039850175838 729.9630639509692 3581.4000000000015
  endloop
endfacet
facet normal 0.3826834323650895 -0.9238795325112868 -1.1835142257408876e-17
  outer loop
    vertex 253.99999999999994 719.8131810244988 3581.4000000000015
    vertex 278.5039850175838 729.9630639509692 3632.200000000001
    vertex 253.99999999999994 719.8131810244988 3632.200000000001
  endloop
endfacet
facet normal 0.6087614290087213 -0.7933533402912347 7.79839563448362e-18
  outer loop
    vertex 253.99999999999994 719.8131810244988 3632.200000000001
    vertex 232.95795103144673 703.6670489685531 3581.4000000000015
    vertex 253.99999999999994 719.8131810244988 3581.4000000000015
  endloop
endfacet
facet normal 0.6087614290087213 -0.7933533402912347 7.79839563448362e-18
  outer loop
    vertex 232.95795103144673 703.6670489685531 3581.4000000000015
    vertex 253.99999999999994 719.8131810244988 3632.200000000001
    vertex 232.95795103144673 703.6670489685531 3632.200000000001
  endloop
endfacet
facet normal 0.7933533402912348 -0.6087614290087211 -7.798395634504897e-18
  outer loop
    vertex 232.95795103144673 703.6670489685531 3581.4000000000015
    vertex 216.811818975501 682.6249999999999 3632.200000000001
    vertex 216.811818975501 682.6249999999999 3581.4000000000015
  endloop
endfacet
facet normal 0.7933533402912348 -0.6087614290087211 -7.798395634504897e-18
  outer loop
    vertex 216.811818975501 682.6249999999999 3632.200000000001
    vertex 232.95795103144673 703.6670489685531 3581.4000000000015
    vertex 232.95795103144673 703.6670489685531 3632.200000000001
  endloop
endfacet
facet normal 0.9238795325112868 -0.3826834323650896 -1.0605567902231959e-29
  outer loop
    vertex 216.811818975501 682.6249999999999 3581.4000000000015
    vertex 206.6619360490306 658.121014982416 3632.200000000001
    vertex 206.6619360490306 658.121014982416 3581.4000000000015
  endloop
endfacet
facet normal 0.9238795325112868 -0.3826834323650896 -1.0605567902231959e-29
  outer loop
    vertex 206.6619360490306 658.121014982416 3632.200000000001
    vertex 216.811818975501 682.6249999999999 3581.4000000000015
    vertex 216.811818975501 682.6249999999999 3632.200000000001
  endloop
endfacet
facet normal 0.9914448613738105 -0.13052619222005113 6.519318415670904e-18
  outer loop
    vertex 206.6619360490306 658.121014982416 3581.4000000000015
    vertex 203.2 631.8249999999998 3632.200000000001
    vertex 203.2 631.8249999999998 3581.4000000000015
  endloop
endfacet
facet normal 0.9914448613738105 -0.13052619222005113 6.519318415670904e-18
  outer loop
    vertex 203.2 631.8249999999998 3632.200000000001
    vertex 206.6619360490306 658.121014982416 3581.4000000000015
    vertex 206.6619360490306 658.121014982416 3632.200000000001
  endloop
endfacet
facet normal 1.0 0.0 0.0
  outer loop
    vertex 190.5 787.4 3632.200000000001
    vertex 190.5 165.1 3638.550000000001
    vertex 190.5 165.1 3632.200000000001
  endloop
endfacet
facet normal 1.0 0.0 0.0
  outer loop
    vertex 190.5 165.1 3638.550000000001
    vertex 190.5 787.4 3632.200000000001
    vertex 190.5 787.4 3638.550000000001
  endloop
endfacet
facet normal 0.0 0.0 1.0
  outer loop
    vertex 190.5 165.1 3638.550000000001
    vertex 177.79999999999998 787.4 3638.550000000001
    vertex 177.79999999999998 165.1 3638.550000000001
  endloop
endfacet
facet normal 0.0 0.0 1.0
  outer loop
    vertex 177.79999999999998 787.4 3638.550000000001
    vertex 190.5 165.1 3638.550000000001
    vertex 190.5 787.4 3638.550000000001
  endloop
endfacet
facet normal 0.0 -1.0 0.0
  outer loop
    vertex 431.79999999999995 165.1 3619.5000000000014
    vertex 419.09999999999997 165.1 3632.200000000001
    vertex 177.79999999999998 165.1 3619.5000000000014
  endloop
endfacet
facet normal 0.0 -1.0 0.0
  outer loop
    vertex 419.09999999999997 165.1 3632.200000000001
    vertex 431.79999999999995 165.1 3619.5000000000014
    vertex 431.79999999999995 165.1 3638.550000000001
  endloop
endfacet
facet normal 0.0 -1.0 0.0
  outer loop
    vertex 419.09999999999997 165.1 3632.200000000001
    vertex 431.79999999999995 165.1 3638.550000000001
    vertex 419.09999999999997 165.1 3638.550000000001
  endloop
endfacet
facet normal 0.0 -1.0 0.0
  outer loop
    vertex 177.79999999999998 165.1 3619.5000000000014
    vertex 190.5 165.1 3632.200000000001
    vertex 177.79999999999998 165.1 3638.550000000001
  endloop
endfacet
facet normal 0.0 -1.0 0.0
  outer loop
    vertex 190.5 165.1 3632.200000000001
    vertex 177.79999999999998 165.1 3619.5000000000014
    vertex 419.09999999999997 165.1 3632.200000000001
  endloop
endfacet
facet normal 0.0 -1.0 0.0
  outer loop
    vertex 177.79999999999998 165.1 3638.550000000001
    vertex 190.5 165.1 3632.200000000001
    vertex 190.5 165.1 3638.550000000001
  endloop
endfacet
facet normal 0.0 1.0 0.0
  outer loop
    vertex 431.79999999999995 787.4 3619.5000000000014
    vertex 419.09999999999997 787.4 3632.200000000001
    vertex 431.79999999999995 787.4 3638.550000000001
  endloop
endfacet
facet normal 0.0 1.0 0.0
  outer loop
    vertex 419.09999999999997 787.4 3632.200000000001
    vertex 431.79999999999995 787.4 3619.5000000000014
    vertex 190.5 787.4 3632.200000000001
  endloop
endfacet
facet normal 0.0 1.0 0.0
  outer loop
    vertex 431.79999999999995 787.4 3638.550000000001
    vertex 419.09999999999997 787.4 3632.200000000001
    vertex 419.09999999999997 787.4 3638.550000000001
  endloop
endfacet
facet normal 0.0 1.0 0.0
  outer loop
    vertex 177.79999999999998 787.4 3619.5000000000014
    vertex 190.5 787.4 3632.200000000001
    vertex 431.79999999999995 787.4 3619.5000000000014
  endloop
endfacet
facet normal 0.0 1.0 0.0
  outer loop
    vertex 190.5 787.4 3632.200000000001
    vertex 177.79999999999998 787.4 3619.5000000000014
    vertex 177.79999999999998 787.4 3638.550000000001
  endloop
endfacet
facet normal 0.0 1.0 0.0
  outer loop
    vertex 190.5 787.4 3632.200000000001
    vertex 177.79999999999998 787.4 3638.550000000001
    vertex 190.5 787.4 3638.550000000001
  endloop
endfacet
facet normal 0.0 0.0 1.0
  outer loop
    vertex 190.5 165.1 3632.200000000001
    vertex 203.2 631.8249999999998 3632.200000000001
    vertex 190.5 787.4 3632.200000000001
  endloop
endfacet
facet normal 0.0 0.0 1.0
  outer loop
    vertex 203.2 631.8249999999998 3632.200000000001
    vertex 190.5 165.1 3632.200000000001
    vertex 206.66193604903066 605.5289850175838 3632.200000000001
  endloop
endfacet
facet normal 0.0 0.0 1.0
  outer loop
    vertex 206.66193604903066 605.5289850175838 3632.200000000001
    vertex 190.5 165.1 3632.200000000001
    vertex 216.81181897550104 581.0249999999999 3632.200000000001
  endloop
endfacet
facet normal 0.0 0.0 1.0
  outer loop
    vertex 216.81181897550104 581.0249999999999 3632.200000000001
    vertex 190.5 165.1 3632.200000000001
    vertex 419.09999999999997 165.1 3632.200000000001
  endloop
endfacet
facet normal 0.0 0.0 1.0
  outer loop
    vertex 216.81181897550104 581.0249999999999 3632.200000000001
    vertex 419.09999999999997 165.1 3632.200000000001
    vertex 232.95795103144675 559.9829510314466 3632.200000000001
  endloop
endfacet
facet normal 0.0 0.0 1.0
  outer loop
    vertex 232.95795103144675 559.9829510314466 3632.200000000001
    vertex 419.09999999999997 165.1 3632.200000000001
    vertex 254.00000000000003 543.8368189755009 3632.200000000001
  endloop
endfacet
facet normal 0.0 0.0 1.0
  outer loop
    vertex 254.00000000000003 543.8368189755009 3632.200000000001
    vertex 419.09999999999997 165.1 3632.200000000001
    vertex 278.5039850175839 533.6869360490305 3632.200000000001
  endloop
endfacet
facet normal 0.0 0.0 1.0
  outer loop
    vertex 278.5039850175839 533.6869360490305 3632.200000000001
    vertex 419.09999999999997 165.1 3632.200000000001
    vertex 304.79999999999995 530.2249999999999 3632.200000000001
  endloop
endfacet
facet normal 0.0 0.0 1.0
  outer loop
    vertex 304.79999999999995 530.2249999999999 3632.200000000001
    vertex 419.09999999999997 165.1 3632.200000000001
    vertex 331.0960149824161 533.6869360490305 3632.200000000001
  endloop
endfacet
facet normal 0.0 0.0 1.0
  outer loop
    vertex 331.0960149824161 533.6869360490305 3632.200000000001
    vertex 419.09999999999997 165.1 3632.200000000001
    vertex 355.59999999999997 543.8368189755009 3632.200000000001
  endloop
endfacet
facet normal 0.0 0.0 1.0
  outer loop
    vertex 355.59999999999997 543.8368189755009 3632.200000000001
    vertex 419.09999999999997 165.1 3632.200000000001
    vertex 376.6420489685532 559.9829510314466 3632.200000000001
  endloop
endfacet
facet normal 0.0 0.0 1.0
  outer loop
    vertex 376.6420489685532 559.9829510314466 3632.200000000001
    vertex 419.09999999999997 165.1 3632.200000000001
    vertex 392.78818102449895 581.0249999999999 3632.200000000001
  endloop
endfacet
facet normal 0.0 0.0 1.0
  outer loop
    vertex 392.78818102449895 581.0249999999999 3632.200000000001
    vertex 419.09999999999997 165.1 3632.200000000001
    vertex 402.9380639509693 605.5289850175838 3632.200000000001
  endloop
endfacet
facet normal 0.0 0.0 1.0
  outer loop
    vertex 402.9380639509693 605.5289850175838 3632.200000000001
    vertex 419.09999999999997 165.1 3632.200000000001
    vertex 406.4 631.8249999999998 3632.200000000001
  endloop
endfacet
facet normal 0.0 0.0 1.0
  outer loop
    vertex 190.5 787.4 3632.200000000001
    vertex 278.5039850175838 729.9630639509692 3632.200000000001
    vertex 419.09999999999997 787.4 3632.200000000001
  endloop
endfacet
facet normal 0.0 0.0 1.0
  outer loop
    vertex 278.5039850175838 729.9630639509692 3632.200000000001
    vertex 190.5 787.4 3632.200000000001
    vertex 253.99999999999994 719.8131810244988 3632.200000000001
  endloop
endfacet
facet normal 0.0 0.0 1.0
  outer loop
    vertex 253.99999999999994 719.8131810244988 3632.200000000001
    vertex 190.5 787.4 3632.200000000001
    vertex 232.95795103144673 703.6670489685531 3632.200000000001
  endloop
endfacet
facet normal 0.0 0.0 1.0
  outer loop
    vertex 232.95795103144673 703.6670489685531 3632.200000000001
    vertex 190.5 787.4 3632.200000000001
    vertex 216.811818975501 682.6249999999999 3632.200000000001
  endloop
endfacet
facet normal 0.0 0.0 1.0
  outer loop
    vertex 216.811818975501 682.6249999999999 3632.200000000001
    vertex 190.5 787.4 3632.200000000001
    vertex 206.6619360490306 658.121014982416 3632.200000000001
  endloop
endfacet
facet normal 0.0 0.0 1.0
  outer loop
    vertex 206.6619360490306 658.121014982416 3632.200000000001
    vertex 190.5 787.4 3632.200000000001
    vertex 203.2 631.8249999999998 3632.200000000001
  endloop
endfacet
facet normal 0.0 0.0 1.0
  outer loop
    vertex 419.09999999999997 787.4 3632.200000000001
    vertex 278.5039850175838 729.9630639509692 3632.200000000001
    vertex 304.79999999999995 733.4249999999998 3632.200000000001
  endloop
endfacet
facet normal 0.0 0.0 1.0
  outer loop
    vertex 419.09999999999997 787.4 3632.200000000001
    vertex 304.79999999999995 733.4249999999998 3632.200000000001
    vertex 331.096014982416 729.9630639509693 3632.200000000001
  endloop
endfacet
facet normal 0.0 0.0 1.0
  outer loop
    vertex 419.09999999999997 787.4 3632.200000000001
    vertex 331.096014982416 729.9630639509693 3632.200000000001
    vertex 355.5999999999999 719.8131810244989 3632.200000000001
  endloop
endfacet
facet normal 0.0 0.0 1.0
  outer loop
    vertex 419.09999999999997 787.4 3632.200000000001
    vertex 355.5999999999999 719.8131810244989 3632.200000000001
    vertex 376.6420489685532 703.6670489685531 3632.200000000001
  endloop
endfacet
facet normal 0.0 0.0 1.0
  outer loop
    vertex 419.09999999999997 787.4 3632.200000000001
    vertex 376.6420489685532 703.6670489685531 3632.200000000001
    vertex 392.7881810244989 682.6249999999999 3632.200000000001
  endloop
endfacet
facet normal 0.0 0.0 1.0
  outer loop
    vertex 419.09999999999997 787.4 3632.200000000001
    vertex 392.7881810244989 682.6249999999999 3632.200000000001
    vertex 402.9380639509693 658.1210149824161 3632.200000000001
  endloop
endfacet
facet normal 0.0 0.0 1.0
  outer loop
    vertex 419.09999999999997 787.4 3632.200000000001
    vertex 402.9380639509693 658.1210149824161 3632.200000000001
    vertex 406.4 631.8249999999998 3632.200000000001
  endloop
endfacet
facet normal 0.0 0.0 1.0
  outer loop
    vertex 419.09999999999997 787.4 3632.200000000001
    vertex 406.4 631.8249999999998 3632.200000000001
    vertex 419.09999999999997 165.1 3632.200000000001
  endloop
endfacet
facet normal 0.0 0.0 1.0
  outer loop
    vertex 431.79999999999995 165.1 3638.550000000001
    vertex 419.09999999999997 787.4 3638.550000000001
    vertex 419.09999999999997 165.1 3638.550000000001
  endloop
endfacet
facet normal 0.0 0.0 1.0
  outer loop
    vertex 419.09999999999997 787.4 3638.550000000001
    vertex 431.79999999999995 165.1 3638.550000000001
    vertex 431.79999999999995 787.4 3638.550000000001
  endloop
endfacet
facet normal -1.0 0.0 0.0
  outer loop
    vertex 419.09999999999997 787.4 3638.550000000001
    vertex 419.09999999999997 165.1 3632.200000000001
    vertex 419.09999999999997 165.1 3638.550000000001
  endloop
endfacet
facet normal -1.0 0.0 0.0
  outer loop
    vertex 419.09999999999997 165.1 3632.200000000001
    vertex 419.09999999999997 787.4 3638.550000000001
    vertex 419.09999999999997 787.4 3632.200000000001
  endloop
endfacet
endsolid pdp11-2
