solid pdp11-2
facet normal -1.0 7.771561172376096e-16 0.0
  outer loop
    vertex 552.4499999999999 876.3 3619.5
    vertex 552.4499999999999 863.5999999999999 1790.6999999999998
    vertex 552.4499999999999 863.5999999999999 3619.5
  endloop
endfacet
facet normal -1.0 7.771561172376096e-16 0.0
  outer loop
    vertex 552.4499999999999 863.5999999999999 1790.6999999999998
    vertex 552.4499999999999 876.3 3619.5
    vertex 552.4499999999999 876.3 1790.6999999999998
  endloop
endfacet
facet normal -1.0 2.6645352591003756e-16 0.0
  outer loop
    vertex 546.1 863.5999999999999 3619.5
    vertex 546.1 831.8499999999999 1790.6999999999998
    vertex 546.1 831.8499999999999 3619.5
  endloop
endfacet
facet normal -1.0 2.6645352591003756e-16 0.0
  outer loop
    vertex 546.1 831.8499999999999 1790.6999999999998
    vertex 546.1 863.5999999999999 3619.5
    vertex 546.1 863.5999999999999 1790.6999999999998
  endloop
endfacet
facet normal 0.0 -1.0 0.0
  outer loop
    vertex 558.8 831.8499999999999 3619.5
    vertex 546.1 831.8499999999999 1790.6999999999998
    vertex 558.8 831.8499999999999 1790.6999999999998
  endloop
endfacet
facet normal 0.0 -1.0 0.0
  outer loop
    vertex 546.1 831.8499999999999 1790.6999999999998
    vertex 558.8 831.8499999999999 3619.5
    vertex 546.1 831.8499999999999 3619.5
  endloop
endfacet
facet normal 0.0 1.0 0.0
  outer loop
    vertex 552.4499999999999 876.3 3619.5
    vertex 571.5 876.3 1790.6999999999998
    vertex 552.4499999999999 876.3 1790.6999999999998
  endloop
endfacet
facet normal 0.0 1.0 0.0
  outer loop
    vertex 571.5 876.3 1790.6999999999998
    vertex 552.4499999999999 876.3 3619.5
    vertex 571.5 876.3 3619.5
  endloop
endfacet
facet normal 0.0 -1.0 0.0
  outer loop
    vertex 571.5 76.19999999999999 3619.5
    vertex 546.1 76.19999999999999 1790.6999999999998
    vertex 571.5 76.19999999999999 1790.6999999999998
  endloop
endfacet
facet normal 0.0 -1.0 0.0
  outer loop
    vertex 546.1 76.19999999999999 1790.6999999999998
    vertex 571.5 76.19999999999999 3619.5
    vertex 546.1 76.19999999999999 3619.5
  endloop
endfacet
facet normal -1.0 -1.947759692324836e-18 0.0
  outer loop
    vertex 558.8 831.8499999999999 3619.5
    vertex 558.8 114.3 1790.6999999999998
    vertex 558.8 114.3 3619.5
  endloop
endfacet
facet normal -1.0 -1.947759692324836e-18 0.0
  outer loop
    vertex 558.8 114.3 1790.6999999999998
    vertex 558.8 831.8499999999999 3619.5
    vertex 558.8 831.8499999999999 1790.6999999999998
  endloop
endfacet
facet normal 0.0 1.0 0.0
  outer loop
    vertex 552.4499999999999 114.3 3619.5
    vertex 558.8 114.3 1790.6999999999998
    vertex 552.4499999999999 114.3 1790.6999999999998
  endloop
endfacet
facet normal 0.0 1.0 0.0
  outer loop
    vertex 558.8 114.3 1790.6999999999998
    vertex 552.4499999999999 114.3 3619.5
    vertex 558.8 114.3 3619.5
  endloop
endfacet
facet normal 0.0 0.0 -1.0
  outer loop
    vertex 558.8 114.3 1790.6999999999998
    vertex 552.4499999999999 82.55 1790.6999999999998
    vertex 552.4499999999999 114.3 1790.6999999999998
  endloop
endfacet
facet normal 0.0 0.0 -1.0
  outer loop
    vertex 571.5 876.3 1790.6999999999998
    vertex 552.4499999999999 863.5999999999999 1790.6999999999998
    vertex 552.4499999999999 876.3 1790.6999999999998
  endloop
endfacet
facet normal 0.0 0.0 -1.0
  outer loop
    vertex 552.4499999999999 863.5999999999999 1790.6999999999998
    vertex 571.5 876.3 1790.6999999999998
    vertex 558.8 831.8499999999999 1790.6999999999998
  endloop
endfacet
facet normal 0.0 0.0 -1.0
  outer loop
    vertex 558.8 831.8499999999999 1790.6999999999998
    vertex 571.5 876.3 1790.6999999999998
    vertex 558.8 114.3 1790.6999999999998
  endloop
endfacet
facet normal 0.0 0.0 -1.0
  outer loop
    vertex 552.4499999999999 82.55 1790.6999999999998
    vertex 546.1 76.19999999999999 1790.6999999999998
    vertex 546.1 82.55 1790.6999999999998
  endloop
endfacet
facet normal 0.0 0.0 -1.0
  outer loop
    vertex 546.1 76.19999999999999 1790.6999999999998
    vertex 552.4499999999999 82.55 1790.6999999999998
    vertex 571.5 76.19999999999999 1790.6999999999998
  endloop
endfacet
facet normal 0.0 0.0 -1.0
  outer loop
    vertex 571.5 76.19999999999999 1790.6999999999998
    vertex 552.4499999999999 82.55 1790.6999999999998
    vertex 558.8 114.3 1790.6999999999998
  endloop
endfacet
facet normal 0.0 0.0 -1.0
  outer loop
    vertex 571.5 76.19999999999999 1790.6999999999998
    vertex 558.8 114.3 1790.6999999999998
    vertex 571.5 876.3 1790.6999999999998
  endloop
endfacet
facet normal 0.0 0.0 -1.0
  outer loop
    vertex 552.4499999999999 863.5999999999999 1790.6999999999998
    vertex 546.1 831.8499999999999 1790.6999999999998
    vertex 546.1 863.5999999999999 1790.6999999999998
  endloop
endfacet
facet normal 0.0 0.0 -1.0
  outer loop
    vertex 546.1 831.8499999999999 1790.6999999999998
    vertex 552.4499999999999 863.5999999999999 1790.6999999999998
    vertex 558.8 831.8499999999999 1790.6999999999998
  endloop
endfacet
facet normal -1.0 0.0 0.0
  outer loop
    vertex 552.4499999999999 114.3 3619.5
    vertex 552.4499999999999 82.55 1790.6999999999998
    vertex 552.4499999999999 82.55 3619.5
  endloop
endfacet
facet normal -1.0 0.0 0.0
  outer loop
    vertex 552.4499999999999 82.55 1790.6999999999998
    vertex 552.4499999999999 114.3 3619.5
    vertex 552.4499999999999 114.3 1790.6999999999998
  endloop
endfacet
facet normal -1.0 0.0 0.0
  outer loop
    vertex 546.1 82.55 3619.5
    vertex 546.1 76.19999999999999 1790.6999999999998
    vertex 546.1 76.19999999999999 3619.5
  endloop
endfacet
facet normal -1.0 0.0 0.0
  outer loop
    vertex 546.1 76.19999999999999 1790.6999999999998
    vertex 546.1 82.55 3619.5
    vertex 546.1 82.55 1790.6999999999998
  endloop
endfacet
facet normal 0.0 0.0 1.0
  outer loop
    vertex 571.5 76.19999999999999 3619.5
    vertex 546.1 82.55 3619.5
    vertex 546.1 76.19999999999999 3619.5
  endloop
endfacet
facet normal 0.0 0.0 1.0
  outer loop
    vertex 546.1 82.55 3619.5
    vertex 571.5 76.19999999999999 3619.5
    vertex 552.4499999999999 82.55 3619.5
  endloop
endfacet
facet normal 0.0 0.0 1.0
  outer loop
    vertex 552.4499999999999 82.55 3619.5
    vertex 571.5 76.19999999999999 3619.5
    vertex 552.4499999999999 114.3 3619.5
  endloop
endfacet
facet normal 0.0 0.0 1.0
  outer loop
    vertex 552.4499999999999 114.3 3619.5
    vertex 571.5 76.19999999999999 3619.5
    vertex 558.8 114.3 3619.5
  endloop
endfacet
facet normal 0.0 0.0 1.0
  outer loop
    vertex 558.8 114.3 3619.5
    vertex 571.5 76.19999999999999 3619.5
    vertex 558.8 831.8499999999999 3619.5
  endloop
endfacet
facet normal 0.0 0.0 1.0
  outer loop
    vertex 558.8 831.8499999999999 3619.5
    vertex 546.1 863.5999999999999 3619.5
    vertex 546.1 831.8499999999999 3619.5
  endloop
endfacet
facet normal 0.0 0.0 1.0
  outer loop
    vertex 546.1 863.5999999999999 3619.5
    vertex 558.8 831.8499999999999 3619.5
    vertex 552.4499999999999 863.5999999999999 3619.5
  endloop
endfacet
facet normal 0.0 0.0 1.0
  outer loop
    vertex 552.4499999999999 863.5999999999999 3619.5
    vertex 558.8 831.8499999999999 3619.5
    vertex 552.4499999999999 876.3 3619.5
  endloop
endfacet
facet normal 0.0 0.0 1.0
  outer loop
    vertex 552.4499999999999 876.3 3619.5
    vertex 558.8 831.8499999999999 3619.5
    vertex 571.5 876.3 3619.5
  endloop
endfacet
facet normal 0.0 0.0 1.0
  outer loop
    vertex 571.5 876.3 3619.5
    vertex 558.8 831.8499999999999 3619.5
    vertex 571.5 76.19999999999999 3619.5
  endloop
endfacet
facet normal 0.0 1.0 0.0
  outer loop
    vertex 546.1 82.55 3619.5
    vertex 552.4499999999999 82.55 1790.6999999999998
    vertex 546.1 82.55 1790.6999999999998
  endloop
endfacet
facet normal 0.0 1.0 0.0
  outer loop
    vertex 552.4499999999999 82.55 1790.6999999999998
    vertex 546.1 82.55 3619.5
    vertex 552.4499999999999 82.55 3619.5
  endloop
endfacet
facet normal 1.0 0.0 0.0
  outer loop
    vertex 571.5 876.3 1790.6999999999998
    vertex 571.5 76.19999999999999 3619.5
    vertex 571.5 76.19999999999999 1790.6999999999998
  endloop
endfacet
facet normal 1.0 0.0 0.0
  outer loop
    vertex 571.5 76.19999999999999 3619.5
    vertex 571.5 876.3 1790.6999999999998
    vertex 571.5 876.3 3619.5
  endloop
endfacet
facet normal 0.0 1.0 0.0
  outer loop
    vertex 546.1 863.5999999999999 3619.5
    vertex 552.4499999999999 863.5999999999999 1790.6999999999998
    vertex 546.1 863.5999999999999 1790.6999999999998
  endloop
endfacet
facet normal 0.0 1.0 0.0
  outer loop
    vertex 552.4499999999999 863.5999999999999 1790.6999999999998
    vertex 546.1 863.5999999999999 3619.5
    vertex 552.4499999999999 863.5999999999999 3619.5
  endloop
endfacet
endsolid pdp11-2
