solid pdp11-2
facet normal 0.0 1.0 0.0
  outer loop
    vertex 38.099999999999994 876.3 3619.5
    vertex 57.15 876.3 1790.6999999999998
    vertex 38.099999999999994 876.3 1790.6999999999998
  endloop
endfacet
facet normal 0.0 1.0 0.0
  outer loop
    vertex 57.15 876.3 1790.6999999999998
    vertex 38.099999999999994 876.3 3619.5
    vertex 57.15 876.3 3619.5
  endloop
endfacet
facet normal 1.0 2.6645352591003756e-16 0.0
  outer loop
    vertex 63.5 863.5999999999999 1790.6999999999998
    vertex 63.5 831.8499999999999 3619.5
    vertex 63.5 831.8499999999999 1790.6999999999998
  endloop
endfacet
facet normal 1.0 2.6645352591003756e-16 0.0
  outer loop
    vertex 63.5 831.8499999999999 3619.5
    vertex 63.5 863.5999999999999 1790.6999999999998
    vertex 63.5 863.5999999999999 3619.5
  endloop
endfacet
facet normal 1.0 0.0 0.0
  outer loop
    vertex 63.5 82.55 1790.6999999999998
    vertex 63.5 76.19999999999999 3619.5
    vertex 63.5 76.19999999999999 1790.6999999999998
  endloop
endfacet
facet normal 1.0 0.0 0.0
  outer loop
    vertex 63.5 76.19999999999999 3619.5
    vertex 63.5 82.55 1790.6999999999998
    vertex 63.5 82.55 3619.5
  endloop
endfacet
facet normal -1.0 0.0 0.0
  outer loop
    vertex 38.099999999999994 876.3 3619.5
    vertex 38.099999999999994 76.19999999999999 1790.6999999999998
    vertex 38.099999999999994 76.19999999999999 3619.5
  endloop
endfacet
facet normal -1.0 0.0 0.0
  outer loop
    vertex 38.099999999999994 76.19999999999999 1790.6999999999998
    vertex 38.099999999999994 876.3 3619.5
    vertex 38.099999999999994 876.3 1790.6999999999998
  endloop
endfacet
facet normal 0.0 0.0 1.0
  outer loop
    vertex 38.099999999999994 76.19999999999999 3619.5
    vertex 50.8 114.3 3619.5
    vertex 38.099999999999994 876.3 3619.5
  endloop
endfacet
facet normal 0.0 0.0 1.0
  outer loop
    vertex 50.8 114.3 3619.5
    vertex 38.099999999999994 76.19999999999999 3619.5
    vertex 57.15 82.55 3619.5
  endloop
endfacet
facet normal 0.0 0.0 1.0
  outer loop
    vertex 57.15 82.55 3619.5
    vertex 38.099999999999994 76.19999999999999 3619.5
    vertex 63.5 76.19999999999999 3619.5
  endloop
endfacet
facet normal 0.0 0.0 1.0
  outer loop
    vertex 57.15 82.55 3619.5
    vertex 63.5 76.19999999999999 3619.5
    vertex 63.5 82.55 3619.5
  endloop
endfacet
facet normal 0.0 0.0 1.0
  outer loop
    vertex 57.15 114.3 3619.5
    vertex 50.8 114.3 3619.5
    vertex 57.15 82.55 3619.5
  endloop
endfacet
facet normal 0.0 0.0 1.0
  outer loop
    vertex 38.099999999999994 876.3 3619.5
    vertex 50.8 831.8499999999999 3619.5
    vertex 57.15 876.3 3619.5
  endloop
endfacet
facet normal 0.0 0.0 1.0
  outer loop
    vertex 50.8 831.8499999999999 3619.5
    vertex 38.099999999999994 876.3 3619.5
    vertex 50.8 114.3 3619.5
  endloop
endfacet
facet normal 0.0 0.0 1.0
  outer loop
    vertex 57.15 876.3 3619.5
    vertex 50.8 831.8499999999999 3619.5
    vertex 57.150000000000006 863.5999999999999 3619.5
  endloop
endfacet
facet normal 0.0 0.0 1.0
  outer loop
    vertex 57.150000000000006 863.5999999999999 3619.5
    vertex 50.8 831.8499999999999 3619.5
    vertex 63.5 831.8499999999999 3619.5
  endloop
endfacet
facet normal 0.0 0.0 1.0
  outer loop
    vertex 57.150000000000006 863.5999999999999 3619.5
    vertex 63.5 831.8499999999999 3619.5
    vertex 63.5 863.5999999999999 3619.5
  endloop
endfacet
facet normal 0.0 1.0 0.0
  outer loop
    vertex 50.8 114.3 3619.5
    vertex 57.15 114.3 1790.6999999999998
    vertex 50.8 114.3 1790.6999999999998
  endloop
endfacet
facet normal 0.0 1.0 0.0
  outer loop
    vertex 57.15 114.3 1790.6999999999998
    vertex 50.8 114.3 3619.5
    vertex 57.15 114.3 3619.5
  endloop
endfacet
facet normal -0.0 -1.0 -0.0
  outer loop
    vertex 63.5 831.8499999999999 3619.5
    vertex 50.8 831.8499999999999 1790.6999999999998
    vertex 63.5 831.8499999999999 1790.6999999999998
  endloop
endfacet
facet normal -0.0 -1.0 -0.0
  outer loop
    vertex 50.8 831.8499999999999 1790.6999999999998
    vertex 63.5 831.8499999999999 3619.5
    vertex 50.8 831.8499999999999 3619.5
  endloop
endfacet
facet normal 1.0 -1.947759692324836e-18 0.0
  outer loop
    vertex 50.8 831.8499999999999 1790.6999999999998
    vertex 50.8 114.3 3619.5
    vertex 50.8 114.3 1790.6999999999998
  endloop
endfacet
facet normal 1.0 -1.947759692324836e-18 0.0
  outer loop
    vertex 50.8 114.3 3619.5
    vertex 50.8 831.8499999999999 1790.6999999999998
    vertex 50.8 831.8499999999999 3619.5
  endloop
endfacet
facet normal -0.0 -1.0 -0.0
  outer loop
    vertex 63.5 76.19999999999999 3619.5
    vertex 38.099999999999994 76.19999999999999 1790.6999999999998
    vertex 63.5 76.19999999999999 1790.6999999999998
  endloop
endfacet
facet normal -0.0 -1.0 -0.0
  outer loop
    vertex 38.099999999999994 76.19999999999999 1790.6999999999998
    vertex 63.5 76.19999999999999 3619.5
    vertex 38.099999999999994 76.19999999999999 3619.5
  endloop
endfacet
facet normal 1.0 0.0 0.0
  outer loop
    vertex 57.15 114.3 1790.6999999999998
    vertex 57.15 82.55 3619.5
    vertex 57.15 82.55 1790.6999999999998
  endloop
endfacet
facet normal 1.0 0.0 0.0
  outer loop
    vertex 57.15 82.55 3619.5
    vertex 57.15 114.3 1790.6999999999998
    vertex 57.15 114.3 3619.5
  endloop
endfacet
facet normal 0.0 1.0 0.0
  outer loop
    vertex 57.150000000000006 863.5999999999999 3619.5
    vertex 63.5 863.5999999999999 1790.6999999999998
    vertex 57.150000000000006 863.5999999999999 1790.6999999999998
  endloop
endfacet
facet normal 0.0 1.0 0.0
  outer loop
    vertex 63.5 863.5999999999999 1790.6999999999998
    vertex 57.150000000000006 863.5999999999999 3619.5
    vertex 63.5 863.5999999999999 3619.5
  endloop
endfacet
facet normal 1.0 7.771561172376096e-16 0.0
  outer loop
    vertex 57.15 876.3 1790.6999999999998
    vertex 57.150000000000006 863.5999999999999 3619.5
    vertex 57.150000000000006 863.5999999999999 1790.6999999999998
  endloop
endfacet
facet normal 1.0 7.771561172376096e-16 0.0
  outer loop
    vertex 57.150000000000006 863.5999999999999 3619.5
    vertex 57.15 876.3 1790.6999999999998
    vertex 57.15 876.3 3619.5
  endloop
endfacet
facet normal 0.0 0.0 -1.0
  outer loop
    vertex 38.099999999999994 876.3 1790.6999999999998
    vertex 50.8 831.8499999999999 1790.6999999999998
    vertex 38.099999999999994 76.19999999999999 1790.6999999999998
  endloop
endfacet
facet normal 0.0 0.0 -1.0
  outer loop
    vertex 50.8 831.8499999999999 1790.6999999999998
    vertex 38.099999999999994 876.3 1790.6999999999998
    vertex 57.15 876.3 1790.6999999999998
  endloop
endfacet
facet normal 0.0 0.0 -1.0
  outer loop
    vertex 38.099999999999994 76.19999999999999 1790.6999999999998
    vertex 50.8 831.8499999999999 1790.6999999999998
    vertex 50.8 114.3 1790.6999999999998
  endloop
endfacet
facet normal 0.0 0.0 -1.0
  outer loop
    vertex 50.8 831.8499999999999 1790.6999999999998
    vertex 57.15 876.3 1790.6999999999998
    vertex 57.150000000000006 863.5999999999999 1790.6999999999998
  endloop
endfacet
facet normal 0.0 0.0 -1.0
  outer loop
    vertex 50.8 831.8499999999999 1790.6999999999998
    vertex 57.150000000000006 863.5999999999999 1790.6999999999998
    vertex 63.5 831.8499999999999 1790.6999999999998
  endloop
endfacet
facet normal 0.0 0.0 -1.0
  outer loop
    vertex 63.5 831.8499999999999 1790.6999999999998
    vertex 57.150000000000006 863.5999999999999 1790.6999999999998
    vertex 63.5 863.5999999999999 1790.6999999999998
  endloop
endfacet
facet normal 0.0 0.0 -1.0
  outer loop
    vertex 38.099999999999994 76.19999999999999 1790.6999999999998
    vertex 57.15 82.55 1790.6999999999998
    vertex 63.5 76.19999999999999 1790.6999999999998
  endloop
endfacet
facet normal 0.0 0.0 -1.0
  outer loop
    vertex 57.15 82.55 1790.6999999999998
    vertex 38.099999999999994 76.19999999999999 1790.6999999999998
    vertex 50.8 114.3 1790.6999999999998
  endloop
endfacet
facet normal 0.0 0.0 -1.0
  outer loop
    vertex 57.15 82.55 1790.6999999999998
    vertex 50.8 114.3 1790.6999999999998
    vertex 57.15 114.3 1790.6999999999998
  endloop
endfacet
facet normal 0.0 0.0 -1.0
  outer loop
    vertex 63.5 76.19999999999999 1790.6999999999998
    vertex 57.15 82.55 1790.6999999999998
    vertex 63.5 82.55 1790.6999999999998
  endloop
endfacet
facet normal 0.0 1.0 0.0
  outer loop
    vertex 57.15 82.55 3619.5
    vertex 63.5 82.55 1790.6999999999998
    vertex 57.15 82.55 1790.6999999999998
  endloop
endfacet
facet normal 0.0 1.0 0.0
  outer loop
    vertex 63.5 82.55 1790.6999999999998
    vertex 57.15 82.55 3619.5
    vertex 63.5 82.55 3619.5
  endloop
endfacet
endsolid pdp11-2
