solid pdp11-2
facet normal 0.0 1.0 -2.92358737014688e-18
  outer loop
    vertex 712.7428696665057 863.5999999999999 3619.5
    vertex 1195.3428696665057 863.5999999999999 3581.3999999999996
    vertex 712.7428696665057 863.5999999999999 3581.3999999999996
  endloop
endfacet
facet normal 0.0 1.0 -2.92358737014688e-18
  outer loop
    vertex 1195.3428696665057 863.5999999999999 3581.3999999999996
    vertex 712.7428696665057 863.5999999999999 3619.5
    vertex 1195.3428696665057 863.5999999999999 3619.5
  endloop
endfacet
facet normal 0.0 1.0 0.0
  outer loop
    vertex 1081.0428696665056 787.4 3619.5
    vertex 1068.3428696665057 787.4 3632.2
    vertex 1081.0428696665056 787.4 3638.5499999999997
  endloop
endfacet
facet normal 0.0 1.0 0.0
  outer loop
    vertex 1068.3428696665057 787.4 3632.2
    vertex 1081.0428696665056 787.4 3619.5
    vertex 839.7428696665056 787.4 3632.2
  endloop
endfacet
facet normal 0.0 1.0 0.0
  outer loop
    vertex 1081.0428696665056 787.4 3638.5499999999997
    vertex 1068.3428696665057 787.4 3632.2
    vertex 1068.3428696665057 787.4 3638.5499999999997
  endloop
endfacet
facet normal 0.0 1.0 0.0
  outer loop
    vertex 827.0428696665057 787.4 3619.5
    vertex 839.7428696665056 787.4 3632.2
    vertex 1081.0428696665056 787.4 3619.5
  endloop
endfacet
facet normal 0.0 1.0 0.0
  outer loop
    vertex 839.7428696665056 787.4 3632.2
    vertex 827.0428696665057 787.4 3619.5
    vertex 827.0428696665057 787.4 3638.5499999999997
  endloop
endfacet
facet normal 0.0 1.0 0.0
  outer loop
    vertex 839.7428696665056 787.4 3632.2
    vertex 827.0428696665057 787.4 3638.5499999999997
    vertex 839.7428696665056 787.4 3638.5499999999997
  endloop
endfacet
facet normal 0.6087614290087189 0.7933533402912365 3.757819538230864e-16
  outer loop
    vertex 882.2008206979526 559.9829510314466 3632.2
    vertex 903.2428696665056 543.8368189755009 3581.3999999999996
    vertex 882.2008206979526 559.9829510314466 3581.3999999999996
  endloop
endfacet
facet normal 0.6087614290087189 0.7933533402912365 3.757819538230864e-16
  outer loop
    vertex 903.2428696665056 543.8368189755009 3581.3999999999996
    vertex 882.2008206979526 559.9829510314466 3632.2
    vertex 903.2428696665056 543.8368189755009 3632.2
  endloop
endfacet
facet normal -0.9914448613738105 0.13052619222005196 -3.3441503981473715e-18
  outer loop
    vertex 1055.6428696665057 631.8249999999998 3632.2
    vertex 1052.1809336174751 605.5289850175838 3581.3999999999996
    vertex 1052.1809336174751 605.5289850175838 3632.2
  endloop
endfacet
facet normal -0.9914448613738105 0.13052619222005196 -3.3441503981473715e-18
  outer loop
    vertex 1052.1809336174751 605.5289850175838 3581.3999999999996
    vertex 1055.6428696665057 631.8249999999998 3632.2
    vertex 1055.6428696665057 631.8249999999998 3581.3999999999996
  endloop
endfacet
facet normal -1.0 0.0 -5.1846921574218517e-17
  outer loop
    vertex 700.0428696665058 831.8499999999999 3619.5
    vertex 700.0428696665058 127.0 3581.3999999999996
    vertex 700.0428696665058 127.0 3619.5
  endloop
endfacet
facet normal -1.0 0.0 -5.1846921574218517e-17
  outer loop
    vertex 700.0428696665058 127.0 3581.3999999999996
    vertex 700.0428696665058 831.8499999999999 3619.5
    vertex 700.0428696665058 831.8499999999999 3581.3999999999996
  endloop
endfacet
facet normal 0.0 1.0 -2.9235873701468805e-18
  outer loop
    vertex 700.0428696665058 831.8499999999999 3619.5
    vertex 712.7428696665057 831.8499999999999 3581.3999999999996
    vertex 700.0428696665058 831.8499999999999 3581.3999999999996
  endloop
endfacet
facet normal 0.0 1.0 -2.9235873701468805e-18
  outer loop
    vertex 712.7428696665057 831.8499999999999 3581.3999999999996
    vertex 700.0428696665058 831.8499999999999 3619.5
    vertex 712.7428696665057 831.8499999999999 3619.5
  endloop
endfacet
facet normal 0.9238795325112868 -0.3826834323650896 -1.0605567902231959e-29
  outer loop
    vertex 866.0546886420068 682.6249999999999 3581.3999999999996
    vertex 855.9048057155366 658.121014982416 3632.2
    vertex 855.9048057155366 658.121014982416 3581.3999999999996
  endloop
endfacet
facet normal 0.9238795325112868 -0.3826834323650896 -1.0605567902231959e-29
  outer loop
    vertex 855.9048057155366 658.121014982416 3632.2
    vertex 866.0546886420068 682.6249999999999 3581.3999999999996
    vertex 866.0546886420068 682.6249999999999 3632.2
  endloop
endfacet
facet normal 1.0 0.0 5.1846921574218517e-17
  outer loop
    vertex 1208.0428696665056 831.8499999999999 3581.3999999999996
    vertex 1208.0428696665056 127.0 3619.5
    vertex 1208.0428696665056 127.0 3581.3999999999996
  endloop
endfacet
facet normal 1.0 0.0 5.1846921574218517e-17
  outer loop
    vertex 1208.0428696665056 127.0 3619.5
    vertex 1208.0428696665056 831.8499999999999 3581.3999999999996
    vertex 1208.0428696665056 831.8499999999999 3619.5
  endloop
endfacet
facet normal 0.38268343236509134 0.9238795325112862 6.863187009881965e-17
  outer loop
    vertex 903.2428696665056 543.8368189755009 3632.2
    vertex 927.7468546840896 533.6869360490305 3581.3999999999996
    vertex 903.2428696665056 543.8368189755009 3581.3999999999996
  endloop
endfacet
facet normal 0.38268343236509134 0.9238795325112862 6.863187009881965e-17
  outer loop
    vertex 927.7468546840896 533.6869360490305 3581.3999999999996
    vertex 903.2428696665056 543.8368189755009 3632.2
    vertex 927.7468546840896 533.6869360490305 3632.2
  endloop
endfacet
facet normal 0.0 1.0 -2.9235873701468805e-18
  outer loop
    vertex 1195.3428696665057 831.8499999999999 3619.5
    vertex 1208.0428696665056 831.8499999999999 3581.3999999999996
    vertex 1195.3428696665057 831.8499999999999 3581.3999999999996
  endloop
endfacet
facet normal 0.0 1.0 -2.9235873701468805e-18
  outer loop
    vertex 1208.0428696665056 831.8499999999999 3581.3999999999996
    vertex 1195.3428696665057 831.8499999999999 3619.5
    vertex 1208.0428696665056 831.8499999999999 3619.5
  endloop
endfacet
facet normal 1.0 0.0 2.5376526277146436e-15
  outer loop
    vertex 1081.0428696665056 787.4 3619.5
    vertex 1081.0428696665056 165.1 3638.5499999999997
    vertex 1081.0428696665056 165.1 3619.5
  endloop
endfacet
facet normal 1.0 0.0 2.5376526277146436e-15
  outer loop
    vertex 1081.0428696665056 165.1 3638.5499999999997
    vertex 1081.0428696665056 787.4 3619.5
    vertex 1081.0428696665056 787.4 3638.5499999999997
  endloop
endfacet
facet normal 0.0 0.0 1.0
  outer loop
    vertex 839.7428696665056 165.1 3638.5499999999997
    vertex 827.0428696665057 787.4 3638.5499999999997
    vertex 827.0428696665057 165.1 3638.5499999999997
  endloop
endfacet
facet normal 0.0 0.0 1.0
  outer loop
    vertex 827.0428696665057 787.4 3638.5499999999997
    vertex 839.7428696665056 165.1 3638.5499999999997
    vertex 839.7428696665056 787.4 3638.5499999999997
  endloop
endfacet
facet normal 0.0 -1.0 0.0
  outer loop
    vertex 1081.0428696665056 165.1 3619.5
    vertex 1068.3428696665057 165.1 3632.2
    vertex 827.0428696665057 165.1 3619.5
  endloop
endfacet
facet normal 0.0 -1.0 0.0
  outer loop
    vertex 1068.3428696665057 165.1 3632.2
    vertex 1081.0428696665056 165.1 3619.5
    vertex 1081.0428696665056 165.1 3638.5499999999997
  endloop
endfacet
facet normal 0.0 -1.0 0.0
  outer loop
    vertex 1068.3428696665057 165.1 3632.2
    vertex 1081.0428696665056 165.1 3638.5499999999997
    vertex 1068.3428696665057 165.1 3638.5499999999997
  endloop
endfacet
facet normal 0.0 -1.0 0.0
  outer loop
    vertex 827.0428696665057 165.1 3619.5
    vertex 839.7428696665056 165.1 3632.2
    vertex 827.0428696665057 165.1 3638.5499999999997
  endloop
endfacet
facet normal 0.0 -1.0 0.0
  outer loop
    vertex 839.7428696665056 165.1 3632.2
    vertex 827.0428696665057 165.1 3619.5
    vertex 1068.3428696665057 165.1 3632.2
  endloop
endfacet
facet normal 0.0 -1.0 0.0
  outer loop
    vertex 827.0428696665057 165.1 3638.5499999999997
    vertex 839.7428696665056 165.1 3632.2
    vertex 839.7428696665056 165.1 3638.5499999999997
  endloop
endfacet
facet normal 0.3826834323650895 -0.9238795325112868 -1.1835142257408876e-17
  outer loop
    vertex 927.7468546840896 729.9630639509692 3632.2
    vertex 903.2428696665056 719.8131810244988 3581.3999999999996
    vertex 927.7468546840896 729.9630639509692 3581.3999999999996
  endloop
endfacet
facet normal 0.3826834323650895 -0.9238795325112868 -1.1835142257408876e-17
  outer loop
    vertex 903.2428696665056 719.8131810244988 3581.3999999999996
    vertex 927.7468546840896 729.9630639509692 3632.2
    vertex 903.2428696665056 719.8131810244988 3632.2
  endloop
endfacet
facet normal -1.0 0.0 -5.184692157421853e-17
  outer loop
    vertex 712.7428696665057 863.5999999999999 3619.5
    vertex 712.7428696665057 831.8499999999999 3581.3999999999996
    vertex 712.7428696665057 831.8499999999999 3619.5
  endloop
endfacet
facet normal -1.0 0.0 -5.184692157421853e-17
  outer loop
    vertex 712.7428696665057 831.8499999999999 3581.3999999999996
    vertex 712.7428696665057 863.5999999999999 3619.5
    vertex 712.7428696665057 863.5999999999999 3581.3999999999996
  endloop
endfacet
facet normal 0.7933533402912359 0.6087614290087195 -2.364671423794086e-18
  outer loop
    vertex 866.0546886420068 581.0249999999999 3581.3999999999996
    vertex 882.2008206979526 559.9829510314466 3632.2
    vertex 882.2008206979526 559.9829510314466 3581.3999999999996
  endloop
endfacet
facet normal 0.7933533402912359 0.6087614290087195 -2.364671423794086e-18
  outer loop
    vertex 882.2008206979526 559.9829510314466 3632.2
    vertex 866.0546886420068 581.0249999999999 3581.3999999999996
    vertex 866.0546886420068 581.0249999999999 3632.2
  endloop
endfacet
facet normal 0.9914448613738105 -0.13052619222005113 6.519318415670904e-18
  outer loop
    vertex 855.9048057155366 658.121014982416 3581.3999999999996
    vertex 852.4428696665057 631.8249999999998 3632.2
    vertex 852.4428696665057 631.8249999999998 3581.3999999999996
  endloop
endfacet
facet normal 0.9914448613738105 -0.13052619222005113 6.519318415670904e-18
  outer loop
    vertex 852.4428696665057 631.8249999999998 3632.2
    vertex 855.9048057155366 658.121014982416 3581.3999999999996
    vertex 855.9048057155366 658.121014982416 3632.2
  endloop
endfacet
facet normal 0.13052619222005082 0.9914448613738105 -3.34811243468734e-16
  outer loop
    vertex 927.7468546840896 533.6869360490305 3632.2
    vertex 954.0428696665057 530.2249999999999 3581.3999999999996
    vertex 927.7468546840896 533.6869360490305 3581.3999999999996
  endloop
endfacet
facet normal 0.13052619222005082 0.9914448613738105 -3.34811243468734e-16
  outer loop
    vertex 954.0428696665057 530.2249999999999 3581.3999999999996
    vertex 927.7468546840896 533.6869360490305 3632.2
    vertex 954.0428696665057 530.2249999999999 3632.2
  endloop
endfacet
facet normal -0.13052619222005085 0.9914448613738105 -3.4291814589314067e-16
  outer loop
    vertex 954.0428696665057 530.2249999999999 3632.2
    vertex 980.3388846489216 533.6869360490305 3581.3999999999996
    vertex 954.0428696665057 530.2249999999999 3581.3999999999996
  endloop
endfacet
facet normal -0.13052619222005085 0.9914448613738105 -3.4291814589314067e-16
  outer loop
    vertex 980.3388846489216 533.6869360490305 3581.3999999999996
    vertex 954.0428696665057 530.2249999999999 3632.2
    vertex 980.3388846489216 533.6869360490305 3632.2
  endloop
endfacet
facet normal 0.0 -1.0 2.92358737014688e-18
  outer loop
    vertex 1188.9928696665056 95.25 3619.5
    vertex 719.0928696665057 95.25 3581.3999999999996
    vertex 1188.9928696665056 95.25 3581.3999999999996
  endloop
endfacet
facet normal 0.0 -1.0 2.92358737014688e-18
  outer loop
    vertex 719.0928696665057 95.25 3581.3999999999996
    vertex 1188.9928696665056 95.25 3619.5
    vertex 719.0928696665057 95.25 3619.5
  endloop
endfacet
facet normal 0.0 0.0 1.0
  outer loop
    vertex 1081.0428696665056 165.1 3638.5499999999997
    vertex 1068.3428696665057 787.4 3638.5499999999997
    vertex 1068.3428696665057 165.1 3638.5499999999997
  endloop
endfacet
facet normal 0.0 0.0 1.0
  outer loop
    vertex 1068.3428696665057 787.4 3638.5499999999997
    vertex 1081.0428696665056 165.1 3638.5499999999997
    vertex 1081.0428696665056 787.4 3638.5499999999997
  endloop
endfacet
facet normal 1.0 0.0 0.0
  outer loop
    vertex 839.7428696665056 787.4 3632.2
    vertex 839.7428696665056 165.1 3638.5499999999997
    vertex 839.7428696665056 165.1 3632.2
  endloop
endfacet
facet normal 1.0 0.0 0.0
  outer loop
    vertex 839.7428696665056 165.1 3638.5499999999997
    vertex 839.7428696665056 787.4 3632.2
    vertex 839.7428696665056 787.4 3638.5499999999997
  endloop
endfacet
facet normal 5.184692157421852e-17 -2.9235873701468805e-18 -1.0
  outer loop
    vertex 1195.3428696665057 863.5999999999999 3581.3999999999996
    vertex 712.7428696665057 831.8499999999999 3581.3999999999996
    vertex 712.7428696665057 863.5999999999999 3581.3999999999996
  endloop
endfacet
facet normal 5.184692157421852e-17 -2.9235873701468805e-18 -1.0
  outer loop
    vertex 712.7428696665057 831.8499999999999 3581.3999999999996
    vertex 1195.3428696665057 863.5999999999999 3581.3999999999996
    vertex 903.2428696665056 719.8131810244988 3581.3999999999996
  endloop
endfacet
facet normal 5.184692157421852e-17 -2.9235873701468805e-18 -1.0
  outer loop
    vertex 712.7428696665057 831.8499999999999 3581.3999999999996
    vertex 903.2428696665056 719.8131810244988 3581.3999999999996
    vertex 882.2008206979526 703.6670489685531 3581.3999999999996
  endloop
endfacet
facet normal 5.184692157421852e-17 -2.9235873701468805e-18 -1.0
  outer loop
    vertex 712.7428696665057 831.8499999999999 3581.3999999999996
    vertex 882.2008206979526 703.6670489685531 3581.3999999999996
    vertex 866.0546886420068 682.6249999999999 3581.3999999999996
  endloop
endfacet
facet normal 5.184692157421852e-17 -2.9235873701468805e-18 -1.0
  outer loop
    vertex 712.7428696665057 831.8499999999999 3581.3999999999996
    vertex 866.0546886420068 682.6249999999999 3581.3999999999996
    vertex 855.9048057155366 658.121014982416 3581.3999999999996
  endloop
endfacet
facet normal 5.184692157421852e-17 -2.9235873701468805e-18 -1.0
  outer loop
    vertex 712.7428696665057 831.8499999999999 3581.3999999999996
    vertex 855.9048057155366 658.121014982416 3581.3999999999996
    vertex 719.0928696665057 127.0 3581.3999999999996
  endloop
endfacet
facet normal 5.184692157421852e-17 -2.9235873701468805e-18 -1.0
  outer loop
    vertex 719.0928696665057 127.0 3581.3999999999996
    vertex 855.9048057155366 658.121014982416 3581.3999999999996
    vertex 719.0928696665057 95.25 3581.3999999999996
  endloop
endfacet
facet normal 5.184692157421852e-17 -2.9235873701468805e-18 -1.0
  outer loop
    vertex 719.0928696665057 95.25 3581.3999999999996
    vertex 855.9048057155366 658.121014982416 3581.3999999999996
    vertex 852.4428696665057 631.8249999999998 3581.3999999999996
  endloop
endfacet
facet normal 5.184692157421852e-17 -2.9235873701468805e-18 -1.0
  outer loop
    vertex 903.2428696665056 719.8131810244988 3581.3999999999996
    vertex 1195.3428696665057 863.5999999999999 3581.3999999999996
    vertex 927.7468546840896 729.9630639509692 3581.3999999999996
  endloop
endfacet
facet normal 5.184692157421852e-17 -2.9235873701468805e-18 -1.0
  outer loop
    vertex 927.7468546840896 729.9630639509692 3581.3999999999996
    vertex 1195.3428696665057 863.5999999999999 3581.3999999999996
    vertex 954.0428696665057 733.4249999999998 3581.3999999999996
  endloop
endfacet
facet normal 5.184692157421852e-17 -2.9235873701468805e-18 -1.0
  outer loop
    vertex 954.0428696665057 733.4249999999998 3581.3999999999996
    vertex 1195.3428696665057 863.5999999999999 3581.3999999999996
    vertex 980.3388846489216 729.9630639509693 3581.3999999999996
  endloop
endfacet
facet normal 5.184692157421852e-17 -2.9235873701468805e-18 -1.0
  outer loop
    vertex 980.3388846489216 729.9630639509693 3581.3999999999996
    vertex 1195.3428696665057 863.5999999999999 3581.3999999999996
    vertex 1004.8428696665056 719.8131810244989 3581.3999999999996
  endloop
endfacet
facet normal 5.184692157421852e-17 -2.9235873701468805e-18 -1.0
  outer loop
    vertex 1004.8428696665056 719.8131810244989 3581.3999999999996
    vertex 1195.3428696665057 863.5999999999999 3581.3999999999996
    vertex 1025.8849186350592 703.6670489685531 3581.3999999999996
  endloop
endfacet
facet normal 5.184692157421852e-17 -2.9235873701468805e-18 -1.0
  outer loop
    vertex 1025.8849186350592 703.6670489685531 3581.3999999999996
    vertex 1195.3428696665057 863.5999999999999 3581.3999999999996
    vertex 1042.0310506910046 682.6249999999999 3581.3999999999996
  endloop
endfacet
facet normal 5.184692157421852e-17 -2.9235873701468805e-18 -1.0
  outer loop
    vertex 1042.0310506910046 682.6249999999999 3581.3999999999996
    vertex 1195.3428696665057 863.5999999999999 3581.3999999999996
    vertex 1052.1809336174751 658.1210149824161 3581.3999999999996
  endloop
endfacet
facet normal 5.184692157421852e-17 -2.9235873701468805e-18 -1.0
  outer loop
    vertex 1052.1809336174751 658.1210149824161 3581.3999999999996
    vertex 1195.3428696665057 863.5999999999999 3581.3999999999996
    vertex 1055.6428696665057 631.8249999999998 3581.3999999999996
  endloop
endfacet
facet normal 5.184692157421852e-17 -2.9235873701468805e-18 -1.0
  outer loop
    vertex 1055.6428696665057 631.8249999999998 3581.3999999999996
    vertex 1195.3428696665057 863.5999999999999 3581.3999999999996
    vertex 1188.9928696665056 127.0 3581.3999999999996
  endloop
endfacet
facet normal 5.184692157421852e-17 -2.9235873701468805e-18 -1.0
  outer loop
    vertex 1188.9928696665056 127.0 3581.3999999999996
    vertex 1195.3428696665057 863.5999999999999 3581.3999999999996
    vertex 1195.3428696665057 831.8499999999999 3581.3999999999996
  endloop
endfacet
facet normal 5.184692157421852e-17 -2.9235873701468805e-18 -1.0
  outer loop
    vertex 1188.9928696665056 127.0 3581.3999999999996
    vertex 1195.3428696665057 831.8499999999999 3581.3999999999996
    vertex 1208.0428696665056 127.0 3581.3999999999996
  endloop
endfacet
facet normal 5.184692157421852e-17 -2.9235873701468805e-18 -1.0
  outer loop
    vertex 1208.0428696665056 127.0 3581.3999999999996
    vertex 1195.3428696665057 831.8499999999999 3581.3999999999996
    vertex 1208.0428696665056 831.8499999999999 3581.3999999999996
  endloop
endfacet
facet normal 5.184692157421852e-17 -2.9235873701468805e-18 -1.0
  outer loop
    vertex 719.0928696665057 95.25 3581.3999999999996
    vertex 866.0546886420068 581.0249999999999 3581.3999999999996
    vertex 1188.9928696665056 95.25 3581.3999999999996
  endloop
endfacet
facet normal 5.184692157421852e-17 -2.9235873701468805e-18 -1.0
  outer loop
    vertex 866.0546886420068 581.0249999999999 3581.3999999999996
    vertex 719.0928696665057 95.25 3581.3999999999996
    vertex 855.9048057155366 605.5289850175838 3581.3999999999996
  endloop
endfacet
facet normal 5.184692157421852e-17 -2.9235873701468805e-18 -1.0
  outer loop
    vertex 855.9048057155366 605.5289850175838 3581.3999999999996
    vertex 719.0928696665057 95.25 3581.3999999999996
    vertex 852.4428696665057 631.8249999999998 3581.3999999999996
  endloop
endfacet
facet normal 5.184692157421852e-17 -2.9235873701468805e-18 -1.0
  outer loop
    vertex 1188.9928696665056 95.25 3581.3999999999996
    vertex 866.0546886420068 581.0249999999999 3581.3999999999996
    vertex 882.2008206979526 559.9829510314466 3581.3999999999996
  endloop
endfacet
facet normal 5.184692157421852e-17 -2.9235873701468805e-18 -1.0
  outer loop
    vertex 1188.9928696665056 95.25 3581.3999999999996
    vertex 882.2008206979526 559.9829510314466 3581.3999999999996
    vertex 903.2428696665056 543.8368189755009 3581.3999999999996
  endloop
endfacet
facet normal 5.184692157421852e-17 -2.9235873701468805e-18 -1.0
  outer loop
    vertex 1188.9928696665056 95.25 3581.3999999999996
    vertex 903.2428696665056 543.8368189755009 3581.3999999999996
    vertex 927.7468546840896 533.6869360490305 3581.3999999999996
  endloop
endfacet
facet normal 5.184692157421852e-17 -2.9235873701468805e-18 -1.0
  outer loop
    vertex 1188.9928696665056 95.25 3581.3999999999996
    vertex 927.7468546840896 533.6869360490305 3581.3999999999996
    vertex 954.0428696665057 530.2249999999999 3581.3999999999996
  endloop
endfacet
facet normal 5.184692157421852e-17 -2.9235873701468805e-18 -1.0
  outer loop
    vertex 1188.9928696665056 95.25 3581.3999999999996
    vertex 954.0428696665057 530.2249999999999 3581.3999999999996
    vertex 980.3388846489216 533.6869360490305 3581.3999999999996
  endloop
endfacet
facet normal 5.184692157421852e-17 -2.9235873701468805e-18 -1.0
  outer loop
    vertex 1188.9928696665056 95.25 3581.3999999999996
    vertex 980.3388846489216 533.6869360490305 3581.3999999999996
    vertex 1004.8428696665056 543.8368189755009 3581.3999999999996
  endloop
endfacet
facet normal 5.184692157421852e-17 -2.9235873701468805e-18 -1.0
  outer loop
    vertex 1188.9928696665056 95.25 3581.3999999999996
    vertex 1004.8428696665056 543.8368189755009 3581.3999999999996
    vertex 1025.8849186350592 559.9829510314466 3581.3999999999996
  endloop
endfacet
facet normal 5.184692157421852e-17 -2.9235873701468805e-18 -1.0
  outer loop
    vertex 1188.9928696665056 95.25 3581.3999999999996
    vertex 1025.8849186350592 559.9829510314466 3581.3999999999996
    vertex 1042.0310506910048 581.0249999999999 3581.3999999999996
  endloop
endfacet
facet normal 5.184692157421852e-17 -2.9235873701468805e-18 -1.0
  outer loop
    vertex 1188.9928696665056 95.25 3581.3999999999996
    vertex 1042.0310506910048 581.0249999999999 3581.3999999999996
    vertex 1052.1809336174751 605.5289850175838 3581.3999999999996
  endloop
endfacet
facet normal 5.184692157421852e-17 -2.9235873701468805e-18 -1.0
  outer loop
    vertex 1188.9928696665056 95.25 3581.3999999999996
    vertex 1052.1809336174751 605.5289850175838 3581.3999999999996
    vertex 1055.6428696665057 631.8249999999998 3581.3999999999996
  endloop
endfacet
facet normal 5.184692157421852e-17 -2.9235873701468805e-18 -1.0
  outer loop
    vertex 1188.9928696665056 95.25 3581.3999999999996
    vertex 1055.6428696665057 631.8249999999998 3581.3999999999996
    vertex 1188.9928696665056 127.0 3581.3999999999996
  endloop
endfacet
facet normal 5.184692157421852e-17 -2.9235873701468805e-18 -1.0
  outer loop
    vertex 712.7428696665057 831.8499999999999 3581.3999999999996
    vertex 700.0428696665058 127.0 3581.3999999999996
    vertex 700.0428696665058 831.8499999999999 3581.3999999999996
  endloop
endfacet
facet normal 5.184692157421852e-17 -2.9235873701468805e-18 -1.0
  outer loop
    vertex 700.0428696665058 127.0 3581.3999999999996
    vertex 712.7428696665057 831.8499999999999 3581.3999999999996
    vertex 719.0928696665057 127.0 3581.3999999999996
  endloop
endfacet
facet normal 0.6087614290087213 -0.7933533402912347 7.79839563448362e-18
  outer loop
    vertex 903.2428696665056 719.8131810244988 3632.2
    vertex 882.2008206979526 703.6670489685531 3581.3999999999996
    vertex 903.2428696665056 719.8131810244988 3581.3999999999996
  endloop
endfacet
facet normal 0.6087614290087213 -0.7933533402912347 7.79839563448362e-18
  outer loop
    vertex 882.2008206979526 703.6670489685531 3581.3999999999996
    vertex 903.2428696665056 719.8131810244988 3632.2
    vertex 882.2008206979526 703.6670489685531 3632.2
  endloop
endfacet
facet normal -1.0 0.0 0.0
  outer loop
    vertex 1068.3428696665057 787.4 3638.5499999999997
    vertex 1068.3428696665057 165.1 3632.2
    vertex 1068.3428696665057 165.1 3638.5499999999997
  endloop
endfacet
facet normal -1.0 0.0 0.0
  outer loop
    vertex 1068.3428696665057 165.1 3632.2
    vertex 1068.3428696665057 787.4 3638.5499999999997
    vertex 1068.3428696665057 787.4 3632.2
  endloop
endfacet
facet normal 0.0 -1.0 2.9235873701468805e-18
  outer loop
    vertex 1208.0428696665056 127.0 3619.5
    vertex 1188.9928696665056 127.0 3581.3999999999996
    vertex 1208.0428696665056 127.0 3581.3999999999996
  endloop
endfacet
facet normal 0.0 -1.0 2.9235873701468805e-18
  outer loop
    vertex 1188.9928696665056 127.0 3581.3999999999996
    vertex 1208.0428696665056 127.0 3619.5
    vertex 1188.9928696665056 127.0 3619.5
  endloop
endfacet
facet normal 0.9238795325112865 0.38268343236509034 -9.804552871244324e-18
  outer loop
    vertex 855.9048057155366 605.5289850175838 3581.3999999999996
    vertex 866.0546886420068 581.0249999999999 3632.2
    vertex 866.0546886420068 581.0249999999999 3581.3999999999996
  endloop
endfacet
facet normal 0.9238795325112865 0.38268343236509034 -9.804552871244324e-18
  outer loop
    vertex 866.0546886420068 581.0249999999999 3632.2
    vertex 855.9048057155366 605.5289850175838 3581.3999999999996
    vertex 855.9048057155366 605.5289850175838 3632.2
  endloop
endfacet
facet normal 0.9914448613738105 0.13052619222005193 -3.3441503981242684e-18
  outer loop
    vertex 852.4428696665057 631.8249999999998 3581.3999999999996
    vertex 855.9048057155366 605.5289850175838 3632.2
    vertex 855.9048057155366 605.5289850175838 3581.3999999999996
  endloop
endfacet
facet normal 0.9914448613738105 0.13052619222005193 -3.3441503981242684e-18
  outer loop
    vertex 855.9048057155366 605.5289850175838 3632.2
    vertex 852.4428696665057 631.8249999999998 3581.3999999999996
    vertex 852.4428696665057 631.8249999999998 3632.2
  endloop
endfacet
facet normal -0.7933533402912353 0.6087614290087204 -1.0163067058340866e-17
  outer loop
    vertex 1042.0310506910048 581.0249999999999 3632.2
    vertex 1025.8849186350592 559.9829510314466 3581.3999999999996
    vertex 1025.8849186350592 559.9829510314466 3632.2
  endloop
endfacet
facet normal -0.7933533402912353 0.6087614290087204 -1.0163067058340866e-17
  outer loop
    vertex 1025.8849186350592 559.9829510314466 3581.3999999999996
    vertex 1042.0310506910048 581.0249999999999 3632.2
    vertex 1042.0310506910048 581.0249999999999 3581.3999999999996
  endloop
endfacet
facet normal 0.0 -1.0 2.9235873701468805e-18
  outer loop
    vertex 719.0928696665057 127.0 3619.5
    vertex 700.0428696665058 127.0 3581.3999999999996
    vertex 719.0928696665057 127.0 3581.3999999999996
  endloop
endfacet
facet normal 0.0 -1.0 2.9235873701468805e-18
  outer loop
    vertex 700.0428696665058 127.0 3581.3999999999996
    vertex 719.0928696665057 127.0 3619.5
    vertex 700.0428696665058 127.0 3619.5
  endloop
endfacet
facet normal -0.9238795325112871 0.3826834323650889 -9.804552871244287e-18
  outer loop
    vertex 1052.1809336174751 605.5289850175838 3632.2
    vertex 1042.0310506910048 581.0249999999999 3581.3999999999996
    vertex 1042.0310506910048 581.0249999999999 3632.2
  endloop
endfacet
facet normal -0.9238795325112871 0.3826834323650889 -9.804552871244287e-18
  outer loop
    vertex 1042.0310506910048 581.0249999999999 3581.3999999999996
    vertex 1052.1809336174751 605.5289850175838 3632.2
    vertex 1052.1809336174751 605.5289850175838 3581.3999999999996
  endloop
endfacet
facet normal -0.1305261922200505 -0.9914448613738105 1.6898238063107578e-19
  outer loop
    vertex 980.3388846489216 729.9630639509693 3632.2
    vertex 954.0428696665057 733.4249999999998 3581.3999999999996
    vertex 980.3388846489216 729.9630639509693 3581.3999999999996
  endloop
endfacet
facet normal -0.1305261922200505 -0.9914448613738105 1.6898238063107578e-19
  outer loop
    vertex 954.0428696665057 733.4249999999998 3581.3999999999996
    vertex 980.3388846489216 729.9630639509693 3632.2
    vertex 954.0428696665057 733.4249999999998 3632.2
  endloop
endfacet
facet normal -1.0 0.0 -5.184692157421853e-17
  outer loop
    vertex 719.0928696665057 127.0 3619.5
    vertex 719.0928696665057 95.25 3581.3999999999996
    vertex 719.0928696665057 95.25 3619.5
  endloop
endfacet
facet normal -1.0 0.0 -5.184692157421853e-17
  outer loop
    vertex 719.0928696665057 95.25 3581.3999999999996
    vertex 719.0928696665057 127.0 3619.5
    vertex 719.0928696665057 127.0 3581.3999999999996
  endloop
endfacet
facet normal 0.13052619222005318 -0.9914448613738103 3.1751680174831245e-18
  outer loop
    vertex 954.0428696665057 733.4249999999998 3632.2
    vertex 927.7468546840896 729.9630639509692 3581.3999999999996
    vertex 954.0428696665057 733.4249999999998 3581.3999999999996
  endloop
endfacet
facet normal 0.13052619222005318 -0.9914448613738103 3.1751680174831245e-18
  outer loop
    vertex 927.7468546840896 729.9630639509692 3581.3999999999996
    vertex 954.0428696665057 733.4249999999998 3632.2
    vertex 927.7468546840896 729.9630639509692 3632.2
  endloop
endfacet
facet normal -0.923879532511286 -0.38268343236509156 1.5722123999942103e-17
  outer loop
    vertex 1042.0310506910046 682.6249999999999 3632.2
    vertex 1052.1809336174751 658.1210149824161 3581.3999999999996
    vertex 1052.1809336174751 658.1210149824161 3632.2
  endloop
endfacet
facet normal -0.923879532511286 -0.38268343236509156 1.5722123999942103e-17
  outer loop
    vertex 1052.1809336174751 658.1210149824161 3581.3999999999996
    vertex 1042.0310506910046 682.6249999999999 3632.2
    vertex 1042.0310506910046 682.6249999999999 3581.3999999999996
  endloop
endfacet
facet normal -0.793353340291236 -0.6087614290087194 -7.79839563454679e-18
  outer loop
    vertex 1025.8849186350592 703.6670489685531 3632.2
    vertex 1042.0310506910046 682.6249999999999 3581.3999999999996
    vertex 1042.0310506910046 682.6249999999999 3632.2
  endloop
endfacet
facet normal -0.793353340291236 -0.6087614290087194 -7.79839563454679e-18
  outer loop
    vertex 1042.0310506910046 682.6249999999999 3581.3999999999996
    vertex 1025.8849186350592 703.6670489685531 3632.2
    vertex 1025.8849186350592 703.6670489685531 3581.3999999999996
  endloop
endfacet
facet normal 0.0 0.0 1.0
  outer loop
    vertex 1188.9928696665056 95.25 3619.5
    vertex 719.0928696665057 127.0 3619.5
    vertex 719.0928696665057 95.25 3619.5
  endloop
endfacet
facet normal 0.0 0.0 1.0
  outer loop
    vertex 719.0928696665057 127.0 3619.5
    vertex 1188.9928696665056 95.25 3619.5
    vertex 827.0428696665057 165.1 3619.5
  endloop
endfacet
facet normal 0.0 0.0 1.0
  outer loop
    vertex 827.0428696665057 165.1 3619.5
    vertex 1188.9928696665056 95.25 3619.5
    vertex 1081.0428696665056 165.1 3619.5
  endloop
endfacet
facet normal 0.0 0.0 1.0
  outer loop
    vertex 1081.0428696665056 165.1 3619.5
    vertex 1188.9928696665056 95.25 3619.5
    vertex 1081.0428696665056 787.4 3619.5
  endloop
endfacet
facet normal 0.0 0.0 1.0
  outer loop
    vertex 1208.0428696665056 127.0 3619.5
    vertex 1195.3428696665057 831.8499999999999 3619.5
    vertex 1188.9928696665056 127.0 3619.5
  endloop
endfacet
facet normal 0.0 0.0 1.0
  outer loop
    vertex 1195.3428696665057 831.8499999999999 3619.5
    vertex 1208.0428696665056 127.0 3619.5
    vertex 1208.0428696665056 831.8499999999999 3619.5
  endloop
endfacet
facet normal 0.0 0.0 1.0
  outer loop
    vertex 719.0928696665057 127.0 3619.5
    vertex 700.0428696665058 831.8499999999999 3619.5
    vertex 700.0428696665058 127.0 3619.5
  endloop
endfacet
facet normal 0.0 0.0 1.0
  outer loop
    vertex 700.0428696665058 831.8499999999999 3619.5
    vertex 719.0928696665057 127.0 3619.5
    vertex 712.7428696665057 831.8499999999999 3619.5
  endloop
endfacet
facet normal 0.0 0.0 1.0
  outer loop
    vertex 712.7428696665057 831.8499999999999 3619.5
    vertex 719.0928696665057 127.0 3619.5
    vertex 712.7428696665057 863.5999999999999 3619.5
  endloop
endfacet
facet normal 0.0 0.0 1.0
  outer loop
    vertex 712.7428696665057 863.5999999999999 3619.5
    vertex 719.0928696665057 127.0 3619.5
    vertex 827.0428696665057 787.4 3619.5
  endloop
endfacet
facet normal 0.0 0.0 1.0
  outer loop
    vertex 712.7428696665057 863.5999999999999 3619.5
    vertex 827.0428696665057 787.4 3619.5
    vertex 1195.3428696665057 863.5999999999999 3619.5
  endloop
endfacet
facet normal 0.0 0.0 1.0
  outer loop
    vertex 827.0428696665057 787.4 3619.5
    vertex 719.0928696665057 127.0 3619.5
    vertex 827.0428696665057 165.1 3619.5
  endloop
endfacet
facet normal 0.0 0.0 1.0
  outer loop
    vertex 1195.3428696665057 863.5999999999999 3619.5
    vertex 827.0428696665057 787.4 3619.5
    vertex 1081.0428696665056 787.4 3619.5
  endloop
endfacet
facet normal 0.0 0.0 1.0
  outer loop
    vertex 1195.3428696665057 863.5999999999999 3619.5
    vertex 1081.0428696665056 787.4 3619.5
    vertex 1188.9928696665056 127.0 3619.5
  endloop
endfacet
facet normal 0.0 0.0 1.0
  outer loop
    vertex 1188.9928696665056 127.0 3619.5
    vertex 1081.0428696665056 787.4 3619.5
    vertex 1188.9928696665056 95.25 3619.5
  endloop
endfacet
facet normal 0.0 0.0 1.0
  outer loop
    vertex 1195.3428696665057 863.5999999999999 3619.5
    vertex 1188.9928696665056 127.0 3619.5
    vertex 1195.3428696665057 831.8499999999999 3619.5
  endloop
endfacet
facet normal -0.9914448613738105 -0.1305261922200515 3.344150398121216e-18
  outer loop
    vertex 1052.1809336174751 658.1210149824161 3632.2
    vertex 1055.6428696665057 631.8249999999998 3581.3999999999996
    vertex 1055.6428696665057 631.8249999999998 3632.2
  endloop
endfacet
facet normal -0.9914448613738105 -0.1305261922200515 3.344150398121216e-18
  outer loop
    vertex 1055.6428696665057 631.8249999999998 3581.3999999999996
    vertex 1052.1809336174751 658.1210149824161 3632.2
    vertex 1052.1809336174751 658.1210149824161 3581.3999999999996
  endloop
endfacet
facet normal -0.38268343236508945 -0.9238795325112868 -1.1835142257408876e-17
  outer loop
    vertex 1004.8428696665056 719.8131810244989 3632.2
    vertex 980.3388846489216 729.9630639509693 3581.3999999999996
    vertex 1004.8428696665056 719.8131810244989 3581.3999999999996
  endloop
endfacet
facet normal -0.38268343236508945 -0.9238795325112868 -1.1835142257408876e-17
  outer loop
    vertex 980.3388846489216 729.9630639509693 3581.3999999999996
    vertex 1004.8428696665056 719.8131810244989 3632.2
    vertex 980.3388846489216 729.9630639509693 3632.2
  endloop
endfacet
facet normal 1.0 0.0 5.184692157421853e-17
  outer loop
    vertex 1195.3428696665057 863.5999999999999 3581.3999999999996
    vertex 1195.3428696665057 831.8499999999999 3619.5
    vertex 1195.3428696665057 831.8499999999999 3581.3999999999996
  endloop
endfacet
facet normal 1.0 0.0 5.184692157421853e-17
  outer loop
    vertex 1195.3428696665057 831.8499999999999 3619.5
    vertex 1195.3428696665057 863.5999999999999 3581.3999999999996
    vertex 1195.3428696665057 863.5999999999999 3619.5
  endloop
endfacet
facet normal 0.0 0.0 1.0
  outer loop
    vertex 839.7428696665056 165.1 3632.2
    vertex 852.4428696665057 631.8249999999998 3632.2
    vertex 839.7428696665056 787.4 3632.2
  endloop
endfacet
facet normal 0.0 0.0 1.0
  outer loop
    vertex 852.4428696665057 631.8249999999998 3632.2
    vertex 839.7428696665056 165.1 3632.2
    vertex 855.9048057155366 605.5289850175838 3632.2
  endloop
endfacet
facet normal 0.0 0.0 1.0
  outer loop
    vertex 855.9048057155366 605.5289850175838 3632.2
    vertex 839.7428696665056 165.1 3632.2
    vertex 866.0546886420068 581.0249999999999 3632.2
  endloop
endfacet
facet normal 0.0 0.0 1.0
  outer loop
    vertex 866.0546886420068 581.0249999999999 3632.2
    vertex 839.7428696665056 165.1 3632.2
    vertex 1068.3428696665057 165.1 3632.2
  endloop
endfacet
facet normal 0.0 0.0 1.0
  outer loop
    vertex 866.0546886420068 581.0249999999999 3632.2
    vertex 1068.3428696665057 165.1 3632.2
    vertex 882.2008206979526 559.9829510314466 3632.2
  endloop
endfacet
facet normal 0.0 0.0 1.0
  outer loop
    vertex 882.2008206979526 559.9829510314466 3632.2
    vertex 1068.3428696665057 165.1 3632.2
    vertex 903.2428696665056 543.8368189755009 3632.2
  endloop
endfacet
facet normal 0.0 0.0 1.0
  outer loop
    vertex 903.2428696665056 543.8368189755009 3632.2
    vertex 1068.3428696665057 165.1 3632.2
    vertex 927.7468546840896 533.6869360490305 3632.2
  endloop
endfacet
facet normal 0.0 0.0 1.0
  outer loop
    vertex 927.7468546840896 533.6869360490305 3632.2
    vertex 1068.3428696665057 165.1 3632.2
    vertex 954.0428696665057 530.2249999999999 3632.2
  endloop
endfacet
facet normal 0.0 0.0 1.0
  outer loop
    vertex 954.0428696665057 530.2249999999999 3632.2
    vertex 1068.3428696665057 165.1 3632.2
    vertex 980.3388846489216 533.6869360490305 3632.2
  endloop
endfacet
facet normal 0.0 0.0 1.0
  outer loop
    vertex 980.3388846489216 533.6869360490305 3632.2
    vertex 1068.3428696665057 165.1 3632.2
    vertex 1004.8428696665056 543.8368189755009 3632.2
  endloop
endfacet
facet normal 0.0 0.0 1.0
  outer loop
    vertex 1004.8428696665056 543.8368189755009 3632.2
    vertex 1068.3428696665057 165.1 3632.2
    vertex 1025.8849186350592 559.9829510314466 3632.2
  endloop
endfacet
facet normal 0.0 0.0 1.0
  outer loop
    vertex 1025.8849186350592 559.9829510314466 3632.2
    vertex 1068.3428696665057 165.1 3632.2
    vertex 1042.0310506910048 581.0249999999999 3632.2
  endloop
endfacet
facet normal 0.0 0.0 1.0
  outer loop
    vertex 1042.0310506910048 581.0249999999999 3632.2
    vertex 1068.3428696665057 165.1 3632.2
    vertex 1052.1809336174751 605.5289850175838 3632.2
  endloop
endfacet
facet normal 0.0 0.0 1.0
  outer loop
    vertex 1052.1809336174751 605.5289850175838 3632.2
    vertex 1068.3428696665057 165.1 3632.2
    vertex 1055.6428696665057 631.8249999999998 3632.2
  endloop
endfacet
facet normal 0.0 0.0 1.0
  outer loop
    vertex 839.7428696665056 787.4 3632.2
    vertex 927.7468546840896 729.9630639509692 3632.2
    vertex 1068.3428696665057 787.4 3632.2
  endloop
endfacet
facet normal 0.0 0.0 1.0
  outer loop
    vertex 927.7468546840896 729.9630639509692 3632.2
    vertex 839.7428696665056 787.4 3632.2
    vertex 903.2428696665056 719.8131810244988 3632.2
  endloop
endfacet
facet normal 0.0 0.0 1.0
  outer loop
    vertex 903.2428696665056 719.8131810244988 3632.2
    vertex 839.7428696665056 787.4 3632.2
    vertex 882.2008206979526 703.6670489685531 3632.2
  endloop
endfacet
facet normal 0.0 0.0 1.0
  outer loop
    vertex 882.2008206979526 703.6670489685531 3632.2
    vertex 839.7428696665056 787.4 3632.2
    vertex 866.0546886420068 682.6249999999999 3632.2
  endloop
endfacet
facet normal 0.0 0.0 1.0
  outer loop
    vertex 866.0546886420068 682.6249999999999 3632.2
    vertex 839.7428696665056 787.4 3632.2
    vertex 855.9048057155366 658.121014982416 3632.2
  endloop
endfacet
facet normal 0.0 0.0 1.0
  outer loop
    vertex 855.9048057155366 658.121014982416 3632.2
    vertex 839.7428696665056 787.4 3632.2
    vertex 852.4428696665057 631.8249999999998 3632.2
  endloop
endfacet
facet normal 0.0 0.0 1.0
  outer loop
    vertex 1068.3428696665057 787.4 3632.2
    vertex 927.7468546840896 729.9630639509692 3632.2
    vertex 954.0428696665057 733.4249999999998 3632.2
  endloop
endfacet
facet normal 0.0 0.0 1.0
  outer loop
    vertex 1068.3428696665057 787.4 3632.2
    vertex 954.0428696665057 733.4249999999998 3632.2
    vertex 980.3388846489216 729.9630639509693 3632.2
  endloop
endfacet
facet normal 0.0 0.0 1.0
  outer loop
    vertex 1068.3428696665057 787.4 3632.2
    vertex 980.3388846489216 729.9630639509693 3632.2
    vertex 1004.8428696665056 719.8131810244989 3632.2
  endloop
endfacet
facet normal 0.0 0.0 1.0
  outer loop
    vertex 1068.3428696665057 787.4 3632.2
    vertex 1004.8428696665056 719.8131810244989 3632.2
    vertex 1025.8849186350592 703.6670489685531 3632.2
  endloop
endfacet
facet normal 0.0 0.0 1.0
  outer loop
    vertex 1068.3428696665057 787.4 3632.2
    vertex 1025.8849186350592 703.6670489685531 3632.2
    vertex 1042.0310506910046 682.6249999999999 3632.2
  endloop
endfacet
facet normal 0.0 0.0 1.0
  outer loop
    vertex 1068.3428696665057 787.4 3632.2
    vertex 1042.0310506910046 682.6249999999999 3632.2
    vertex 1052.1809336174751 658.1210149824161 3632.2
  endloop
endfacet
facet normal 0.0 0.0 1.0
  outer loop
    vertex 1068.3428696665057 787.4 3632.2
    vertex 1052.1809336174751 658.1210149824161 3632.2
    vertex 1055.6428696665057 631.8249999999998 3632.2
  endloop
endfacet
facet normal 0.0 0.0 1.0
  outer loop
    vertex 1068.3428696665057 787.4 3632.2
    vertex 1055.6428696665057 631.8249999999998 3632.2
    vertex 1068.3428696665057 165.1 3632.2
  endloop
endfacet
facet normal 0.7933533402912348 -0.6087614290087211 -7.798395634504897e-18
  outer loop
    vertex 882.2008206979526 703.6670489685531 3581.3999999999996
    vertex 866.0546886420068 682.6249999999999 3632.2
    vertex 866.0546886420068 682.6249999999999 3581.3999999999996
  endloop
endfacet
facet normal 0.7933533402912348 -0.6087614290087211 -7.798395634504897e-18
  outer loop
    vertex 866.0546886420068 682.6249999999999 3632.2
    vertex 882.2008206979526 703.6670489685531 3581.3999999999996
    vertex 882.2008206979526 703.6670489685531 3632.2
  endloop
endfacet
facet normal -0.6087614290087197 -0.7933533402912359 7.798395634483599e-18
  outer loop
    vertex 1025.8849186350592 703.6670489685531 3632.2
    vertex 1004.8428696665056 719.8131810244989 3581.3999999999996
    vertex 1025.8849186350592 703.6670489685531 3581.3999999999996
  endloop
endfacet
facet normal -0.6087614290087197 -0.7933533402912359 7.798395634483599e-18
  outer loop
    vertex 1004.8428696665056 719.8131810244989 3581.3999999999996
    vertex 1025.8849186350592 703.6670489685531 3632.2
    vertex 1004.8428696665056 719.8131810244989 3632.2
  endloop
endfacet
facet normal -0.6087614290087192 0.7933533402912363 -1.2527738482142704e-17
  outer loop
    vertex 1004.8428696665056 543.8368189755009 3632.2
    vertex 1025.8849186350592 559.9829510314466 3581.3999999999996
    vertex 1004.8428696665056 543.8368189755009 3581.3999999999996
  endloop
endfacet
facet normal -0.6087614290087192 0.7933533402912363 -1.2527738482142704e-17
  outer loop
    vertex 1025.8849186350592 559.9829510314466 3581.3999999999996
    vertex 1004.8428696665056 543.8368189755009 3632.2
    vertex 1025.8849186350592 559.9829510314466 3632.2
  endloop
endfacet
facet normal -0.38268343236509134 0.9238795325112862 -3.097442880783522e-16
  outer loop
    vertex 980.3388846489216 533.6869360490305 3632.2
    vertex 1004.8428696665056 543.8368189755009 3581.3999999999996
    vertex 980.3388846489216 533.6869360490305 3581.3999999999996
  endloop
endfacet
facet normal -0.38268343236509134 0.9238795325112862 -3.097442880783522e-16
  outer loop
    vertex 1004.8428696665056 543.8368189755009 3581.3999999999996
    vertex 980.3388846489216 533.6869360490305 3632.2
    vertex 1004.8428696665056 543.8368189755009 3632.2
  endloop
endfacet
facet normal 1.0 0.0 5.184692157421853e-17
  outer loop
    vertex 1188.9928696665056 127.0 3581.3999999999996
    vertex 1188.9928696665056 95.25 3619.5
    vertex 1188.9928696665056 95.25 3581.3999999999996
  endloop
endfacet
facet normal 1.0 0.0 5.184692157421853e-17
  outer loop
    vertex 1188.9928696665056 95.25 3619.5
    vertex 1188.9928696665056 127.0 3581.3999999999996
    vertex 1188.9928696665056 127.0 3619.5
  endloop
endfacet
facet normal -1.0 0.0 0.0
  outer loop
    vertex 827.0428696665057 787.4 3638.5499999999997
    vertex 827.0428696665057 165.1 3619.5
    vertex 827.0428696665057 165.1 3638.5499999999997
  endloop
endfacet
facet normal -1.0 0.0 0.0
  outer loop
    vertex 827.0428696665057 165.1 3619.5
    vertex 827.0428696665057 787.4 3638.5499999999997
    vertex 827.0428696665057 787.4 3619.5
  endloop
endfacet
endsolid pdp11-2
